<?xml version="1.0" encoding="utf-8" standalone="no"?>
<!DOCTYPE svg PUBLIC "-//W3C//DTD SVG 1.1//EN"
  "http://www.w3.org/Graphics/SVG/1.1/DTD/svg11.dtd">
<svg xmlns:xlink="http://www.w3.org/1999/xlink" width="538.39pt" height="335.085pt" viewBox="0 0 538.39 335.085" xmlns="http://www.w3.org/2000/svg" version="1.1">
 <metadata>
  <rdf:RDF xmlns:dc="http://purl.org/dc/elements/1.1/" xmlns:cc="http://creativecommons.org/ns#" xmlns:rdf="http://www.w3.org/1999/02/22-rdf-syntax-ns#">
   <cc:Work>
    <dc:type rdf:resource="http://purl.org/dc/dcmitype/StillImage"/>
    <dc:date>2026-05-27T17:47:37.862725</dc:date>
    <dc:format>image/svg+xml</dc:format>
    <dc:creator>
     <cc:Agent>
      <dc:title>Matplotlib v3.9.4, https://matplotlib.org/</dc:title>
     </cc:Agent>
    </dc:creator>
   </cc:Work>
  </rdf:RDF>
 </metadata>
 <defs>
  <style type="text/css">*{stroke-linejoin: round; stroke-linecap: butt}</style>
 </defs>
 <g id="figure_1">
  <g id="patch_1">
   <path d="M 0 335.085 
L 538.39 335.085 
L 538.39 0 
L 0 0 
L 0 335.085 
z
" style="fill: none"/>
  </g>
  <g id="axes_1">
   <g id="patch_2">
    <path d="M 317.67 167.5425 
C 317.67 149.341715 314.084842 131.317909 307.119703 114.502576 
C 300.154564 97.687243 289.944899 82.407399 277.075 69.5375 
C 264.205101 56.667601 248.925257 46.457936 232.109924 39.492797 
C 215.294591 32.527658 197.270785 28.9425 179.07 28.9425 
C 160.869215 28.9425 142.845409 32.527658 126.030076 39.492797 
C 109.214743 46.457936 93.934899 56.667601 81.065 69.5375 
C 68.195101 82.407399 57.985436 97.687243 51.020297 114.502576 
C 44.055158 131.317909 40.47 149.341715 40.47 167.5425 
C 40.47 185.743285 44.055158 203.767091 51.020297 220.582424 
C 57.985436 237.397757 68.195101 252.677601 81.065 265.5475 
C 93.934899 278.417399 109.214743 288.627064 126.030076 295.592203 
C 142.845409 302.557342 160.869215 306.1425 179.07 306.1425 
C 197.270785 306.1425 215.294591 302.557342 232.109924 295.592203 
C 248.925257 288.627064 264.205101 278.417399 277.075 265.5475 
C 289.944899 252.677601 300.154564 237.397757 307.119703 220.582424 
C 314.084842 203.767091 317.67 185.743285 317.67 167.5425 
M 179.07 167.5425 
C 179.07 167.5425 179.07 167.5425 179.07 167.5425 
C 179.07 167.5425 179.07 167.5425 179.07 167.5425 
C 179.07 167.5425 179.07 167.5425 179.07 167.5425 
C 179.07 167.5425 179.07 167.5425 179.07 167.5425 
C 179.07 167.5425 179.07 167.5425 179.07 167.5425 
C 179.07 167.5425 179.07 167.5425 179.07 167.5425 
C 179.07 167.5425 179.07 167.5425 179.07 167.5425 
C 179.07 167.5425 179.07 167.5425 179.07 167.5425 
C 179.07 167.5425 179.07 167.5425 179.07 167.5425 
C 179.07 167.5425 179.07 167.5425 179.07 167.5425 
C 179.07 167.5425 179.07 167.5425 179.07 167.5425 
C 179.07 167.5425 179.07 167.5425 179.07 167.5425 
C 179.07 167.5425 179.07 167.5425 179.07 167.5425 
C 179.07 167.5425 179.07 167.5425 179.07 167.5425 
C 179.07 167.5425 179.07 167.5425 179.07 167.5425 
C 179.07 167.5425 179.07 167.5425 179.07 167.5425 
L 179.07 167.5425 
z
" style="fill: none"/>
   </g>
   <g id="patch_3">
    <path d="M 179.07 167.5425 
C 179.07 167.5425 179.07 167.5425 179.07 167.5425 
C 179.07 167.5425 179.07 167.5425 179.07 167.5425 
L 216.880071 160.875564 
C 217.074035 161.975589 217.219901 163.083555 217.317254 164.196299 
C 217.414606 165.309043 217.463352 166.425506 217.463352 167.5425 
z
" clip-path="url(#p782b499d8a)" style="fill: #808080; opacity: 0.5"/>
   </g>
   <g id="patch_4">
    <path d="M 179.07 167.5425 
C 179.07 167.5425 179.07 167.5425 179.07 167.5425 
C 179.07 167.5425 179.07 167.5425 179.07 167.5425 
L 216.006948 154.09855 
C 216.398079 155.173173 216.742127 156.264353 217.038109 157.368976 
C 217.334092 158.473598 217.581728 159.590612 217.78031 160.716828 
z
" clip-path="url(#p782b499d8a)" style="fill: #808080; opacity: 0.5"/>
   </g>
   <g id="patch_5">
    <path d="M 179.07 167.5425 
C 179.07 167.5425 179.07 167.5425 179.07 167.5425 
C 179.07 167.5425 179.07 167.5425 179.07 167.5425 
L 213.111276 147.88876 
C 213.68307 148.879138 214.211373 149.893997 214.694675 150.930441 
C 215.177976 151.966886 215.615817 153.023928 216.006948 154.09855 
z
" clip-path="url(#p782b499d8a)" style="fill: #808080; opacity: 0.5"/>
   </g>
   <g id="patch_6">
    <path d="M 179.07 167.5425 
C 179.07 167.5425 179.07 167.5425 179.07 167.5425 
C 179.07 167.5425 179.07 167.5425 179.07 167.5425 
L 226.687832 127.586395 
C 227.850292 128.971761 228.951741 130.407198 229.989036 131.888607 
C 231.02633 133.370017 231.998481 134.895989 232.902715 136.462168 
z
" clip-path="url(#p782b499d8a)" style="fill: #808080; opacity: 0.5"/>
   </g>
   <g id="patch_7">
    <path d="M 179.07 167.5425 
C 179.07 167.5425 179.07 167.5425 179.07 167.5425 
C 179.07 167.5425 179.07 167.5425 179.07 167.5425 
L 204.336361 137.431224 
C 205.212401 138.166309 206.055945 138.939275 206.864585 139.747915 
C 207.673225 140.556555 208.446191 141.400099 209.181276 142.276139 
z
" clip-path="url(#p782b499d8a)" style="fill: #808080; opacity: 0.5"/>
   </g>
   <g id="patch_8">
    <path d="M 179.07 167.5425 
C 179.07 167.5425 179.07 167.5425 179.07 167.5425 
C 179.07 167.5425 179.07 167.5425 179.07 167.5425 
L 191.867784 145.376088 
C 192.512681 145.74842 193.141022 146.148717 193.751015 146.575838 
C 194.361007 147.002959 194.952069 147.456497 195.522514 147.935157 
z
" clip-path="url(#p782b499d8a)" style="fill: #808080; opacity: 0.5"/>
   </g>
   <g id="patch_9">
    <path d="M 179.07 167.5425 
C 179.07 167.5425 179.07 167.5425 179.07 167.5425 
C 179.07 167.5425 179.07 167.5425 179.07 167.5425 
L 188.76215 140.913537 
C 189.536878 141.195515 190.298931 141.511168 191.046135 141.859595 
C 191.793339 142.208022 192.524982 142.588891 193.238975 143.001115 
z
" clip-path="url(#p782b499d8a)" style="fill: #808080; opacity: 0.5"/>
   </g>
   <g id="patch_10">
    <path d="M 179.07 167.5425 
C 179.07 167.5425 179.07 167.5425 179.07 167.5425 
C 179.07 167.5425 179.07 167.5425 179.07 167.5425 
L 186.213145 127.03171 
C 187.391743 127.239529 188.560711 127.498683 189.716711 127.808432 
C 190.872712 128.118181 192.014645 128.478231 193.13925 128.887554 
z
" clip-path="url(#p782b499d8a)" style="fill: #808080; opacity: 0.5"/>
   </g>
   <g id="patch_11">
    <path d="M 179.07 167.5425 
C 179.07 167.5425 179.07 167.5425 179.07 167.5425 
C 179.07 167.5425 179.07 167.5425 179.07 167.5425 
L 179.07 140.118677 
C 179.867853 140.118677 180.665327 140.153496 181.460144 140.223033 
C 182.254961 140.292571 183.046365 140.396761 183.832097 140.535307 
z
" clip-path="url(#p782b499d8a)" style="fill: #808080; opacity: 0.5"/>
   </g>
   <g id="patch_12">
    <path d="M 179.07 167.5425 
C 179.07 167.5425 179.07 167.5425 179.07 167.5425 
C 179.07 167.5425 179.07 167.5425 179.07 167.5425 
L 172.244328 128.83219 
C 173.370544 128.633607 174.50489 128.484268 175.644127 128.384598 
C 176.783365 128.284927 177.92641 128.235021 179.07 128.235021 
z
" clip-path="url(#p782b499d8a)" style="fill: #808080; opacity: 0.5"/>
   </g>
   <g id="patch_13">
    <path d="M 179.07 167.5425 
C 179.07 167.5425 179.07 167.5425 179.07 167.5425 
C 179.07 167.5425 179.07 167.5425 179.07 167.5425 
L 164.37545 127.169557 
C 165.550038 126.742042 166.742723 126.36599 167.950101 126.042474 
C 169.15748 125.718957 170.378401 125.448286 171.609382 125.231231 
z
" clip-path="url(#p782b499d8a)" style="fill: #808080; opacity: 0.5"/>
   </g>
   <g id="patch_14">
    <path d="M 179.07 167.5425 
C 179.07 167.5425 179.07 167.5425 179.07 167.5425 
C 179.07 167.5425 179.07 167.5425 179.07 167.5425 
L 165.358089 143.792773 
C 166.04905 143.393846 166.757091 143.025263 167.480192 142.688076 
C 168.203292 142.350889 168.940763 142.045418 169.6905 141.772536 
z
" clip-path="url(#p782b499d8a)" style="fill: #808080; opacity: 0.5"/>
   </g>
   <g id="patch_15">
    <path d="M 179.07 167.5425 
C 179.07 167.5425 179.07 167.5425 179.07 167.5425 
C 179.07 167.5425 179.07 167.5425 179.07 167.5425 
L 147.927742 130.428602 
C 149.007512 129.522566 150.126309 128.664084 151.280937 127.855605 
C 152.435565 127.047125 153.624925 126.289419 154.845623 125.584649 
z
" clip-path="url(#p782b499d8a)" style="fill: #808080; opacity: 0.5"/>
   </g>
   <g id="patch_16">
    <path d="M 179.07 167.5425 
C 179.07 167.5425 179.07 167.5425 179.07 167.5425 
C 179.07 167.5425 179.07 167.5425 179.07 167.5425 
L 143.356626 137.575421 
C 144.228471 136.536396 145.145245 135.535914 146.104329 134.576829 
C 147.063414 133.617745 148.063896 132.700971 149.102921 131.829126 
z
" clip-path="url(#p782b499d8a)" style="fill: #808080; opacity: 0.5"/>
   </g>
   <g id="patch_17">
    <path d="M 179.07 167.5425 
C 179.07 167.5425 179.07 167.5425 179.07 167.5425 
C 179.07 167.5425 179.07 167.5425 179.07 167.5425 
L 150.570327 151.088206 
C 151.049039 150.259053 151.563708 149.451185 152.112863 148.66691 
C 152.662019 147.882634 153.245139 147.122697 153.86056 146.389268 
z
" clip-path="url(#p782b499d8a)" style="fill: #808080; opacity: 0.5"/>
   </g>
   <g id="patch_18">
    <path d="M 179.07 167.5425 
C 179.07 167.5425 179.07 167.5425 179.07 167.5425 
C 179.07 167.5425 179.07 167.5425 179.07 167.5425 
L 142.992051 154.4112 
C 143.374085 153.361569 143.801744 152.329109 144.273806 151.316768 
C 144.745869 150.304428 145.261885 149.31317 145.820382 148.345824 
z
" clip-path="url(#p782b499d8a)" style="fill: #808080; opacity: 0.5"/>
   </g>
   <g id="patch_19">
    <path d="M 179.07 167.5425 
C 179.07 167.5425 179.07 167.5425 179.07 167.5425 
C 179.07 167.5425 179.07 167.5425 179.07 167.5425 
L 143.960649 161.351774 
C 144.140758 160.330322 144.365358 159.317217 144.633808 158.31535 
C 144.902257 157.313483 145.214301 156.323808 145.569047 155.34915 
z
" clip-path="url(#p782b499d8a)" style="fill: #808080; opacity: 0.5"/>
   </g>
   <g id="patch_20">
    <path d="M 179.07 167.5425 
C 179.07 167.5425 179.07 167.5425 179.07 167.5425 
C 179.07 167.5425 179.07 167.5425 179.07 167.5425 
L 149.817922 167.5425 
C 149.817922 166.691457 149.855062 165.840818 149.929235 164.993013 
C 150.003409 164.145209 150.114545 163.301044 150.262327 162.46293 
z
" clip-path="url(#p782b499d8a)" style="fill: #808080; opacity: 0.5"/>
   </g>
   <g id="patch_21">
    <path d="M 179.07 167.5425 
C 179.07 167.5425 179.07 167.5425 179.07 167.5425 
C 179.07 167.5425 179.07 167.5425 179.07 167.5425 
L 152.963047 172.14586 
C 152.829119 171.386319 152.728402 170.621295 152.661182 169.852972 
C 152.593963 169.084649 152.560305 168.313758 152.560305 167.5425 
z
" clip-path="url(#p782b499d8a)" style="fill: #808080; opacity: 0.5"/>
   </g>
   <g id="patch_22">
    <path d="M 179.07 167.5425 
C 179.07 167.5425 179.07 167.5425 179.07 167.5425 
C 179.07 167.5425 179.07 167.5425 179.07 167.5425 
L 149.005042 178.48525 
C 148.68668 177.610557 148.406641 176.722387 148.165725 175.823276 
C 147.924809 174.924164 147.723245 174.014967 147.561608 173.09828 
z
" clip-path="url(#p782b499d8a)" style="fill: #808080; opacity: 0.5"/>
   </g>
   <g id="patch_23">
    <path d="M 179.07 167.5425 
C 179.07 167.5425 179.07 167.5425 179.07 167.5425 
C 179.07 167.5425 179.07 167.5425 179.07 167.5425 
L 138.695464 190.852749 
C 138.017289 189.678115 137.390698 188.474445 136.817479 187.245174 
C 136.244261 186.015903 135.724961 184.762202 135.261061 183.48765 
z
" clip-path="url(#p782b499d8a)" style="fill: #808080; opacity: 0.5"/>
   </g>
   <g id="patch_24">
    <path d="M 179.07 167.5425 
C 179.07 167.5425 179.07 167.5425 179.07 167.5425 
C 179.07 167.5425 179.07 167.5425 179.07 167.5425 
L 140.555577 199.859938 
C 139.615352 198.739421 138.724474 197.578406 137.885486 196.380207 
C 137.046498 195.182008 136.260199 193.947766 135.528834 192.681004 
z
" clip-path="url(#p782b499d8a)" style="fill: #808080; opacity: 0.5"/>
   </g>
   <g id="patch_25">
    <path d="M 179.07 167.5425 
C 179.07 167.5425 179.07 167.5425 179.07 167.5425 
C 179.07 167.5425 179.07 167.5425 179.07 167.5425 
L 152.04087 199.754563 
C 151.10371 198.968192 150.201314 198.141299 149.336258 197.276242 
C 148.471201 196.411186 147.644308 195.50879 146.857937 194.57163 
z
" clip-path="url(#p782b499d8a)" style="fill: #808080; opacity: 0.5"/>
   </g>
   <g id="patch_26">
    <path d="M 179.07 167.5425 
C 179.07 167.5425 179.07 167.5425 179.07 167.5425 
C 179.07 167.5425 179.07 167.5425 179.07 167.5425 
L 165.358089 191.292227 
C 164.667127 190.893301 163.993905 190.46441 163.340341 190.00678 
C 162.686778 189.549151 162.053498 189.063217 161.442307 188.550367 
z
" clip-path="url(#p782b499d8a)" style="fill: #808080; opacity: 0.5"/>
   </g>
   <g id="patch_27">
    <path d="M 179.07 167.5425 
C 179.07 167.5425 179.07 167.5425 179.07 167.5425 
C 179.07 167.5425 179.07 167.5425 179.07 167.5425 
L 168.75255 195.88946 
C 167.92784 195.58929 167.116622 195.253273 166.321211 194.882366 
C 165.5258 194.51146 164.746955 194.106019 163.986898 193.6672 
z
" clip-path="url(#p782b499d8a)" style="fill: #808080; opacity: 0.5"/>
   </g>
   <g id="patch_28">
    <path d="M 179.07 167.5425 
C 179.07 167.5425 179.07 167.5425 179.07 167.5425 
C 179.07 167.5425 179.07 167.5425 179.07 167.5425 
L 173.355484 199.951132 
C 172.412605 199.784877 171.477431 199.577554 170.552631 199.329754 
C 169.62783 199.081955 168.714284 198.793915 167.8146 198.466457 
z
" clip-path="url(#p782b499d8a)" style="fill: #808080; opacity: 0.5"/>
   </g>
   <g id="patch_29">
    <path d="M 179.07 167.5425 
C 179.07 167.5425 179.07 167.5425 179.07 167.5425 
C 179.07 167.5425 179.07 167.5425 179.07 167.5425 
L 179.07 204.107597 
C 178.006196 204.107597 176.942898 204.061172 175.883142 203.968456 
C 174.823386 203.875739 173.76818 203.736819 172.720538 203.552091 
z
" clip-path="url(#p782b499d8a)" style="fill: #808080; opacity: 0.5"/>
   </g>
   <g id="patch_30">
    <path d="M 179.07 167.5425 
C 179.07 167.5425 179.07 167.5425 179.07 167.5425 
C 179.07 167.5425 179.07 167.5425 179.07 167.5425 
L 183.990833 195.449933 
C 183.17891 195.593097 182.361126 195.70076 181.539815 195.772616 
C 180.718504 195.844471 179.894448 195.88045 179.07 195.88045 
z
" clip-path="url(#p782b499d8a)" style="fill: #808080; opacity: 0.5"/>
   </g>
   <g id="patch_31">
    <path d="M 179.07 167.5425 
C 179.07 167.5425 179.07 167.5425 179.07 167.5425 
C 179.07 167.5425 179.07 167.5425 179.07 167.5425 
L 190.01275 197.607458 
C 189.138057 197.92582 188.249887 198.205859 187.350776 198.446775 
C 186.451664 198.687691 185.542467 198.889255 184.62578 199.050892 
z
" clip-path="url(#p782b499d8a)" style="fill: #808080; opacity: 0.5"/>
   </g>
   <g id="patch_32">
    <path d="M 179.07 167.5425 
C 179.07 167.5425 179.07 167.5425 179.07 167.5425 
C 179.07 167.5425 179.07 167.5425 179.07 167.5425 
L 197.809612 200.00046 
C 196.865299 200.54566 195.897642 201.04939 194.909405 201.510213 
C 193.921167 201.971036 192.91329 202.388512 191.88865 202.761451 
z
" clip-path="url(#p782b499d8a)" style="fill: #808080; opacity: 0.5"/>
   </g>
   <g id="patch_33">
    <path d="M 179.07 167.5425 
C 179.07 167.5425 179.07 167.5425 179.07 167.5425 
C 179.07 167.5425 179.07 167.5425 179.07 167.5425 
L 203.161181 196.253252 
C 202.325887 196.954147 201.460403 197.618256 200.5672 198.243683 
C 199.673997 198.869111 198.753926 199.455261 197.809612 200.00046 
z
" clip-path="url(#p782b499d8a)" style="fill: #808080; opacity: 0.5"/>
   </g>
   <g id="patch_34">
    <path d="M 179.07 167.5425 
C 179.07 167.5425 179.07 167.5425 179.07 167.5425 
C 179.07 167.5425 179.07 167.5425 179.07 167.5425 
L 209.881538 193.39645 
C 209.129358 194.292864 208.338416 195.156025 207.510971 195.983471 
C 206.683525 196.810916 205.820364 197.601858 204.92395 198.354038 
z
" clip-path="url(#p782b499d8a)" style="fill: #808080; opacity: 0.5"/>
   </g>
   <g id="patch_35">
    <path d="M 179.07 167.5425 
C 179.07 167.5425 179.07 167.5425 179.07 167.5425 
C 179.07 167.5425 179.07 167.5425 179.07 167.5425 
L 204.403042 182.168539 
C 203.977521 182.905564 203.520038 183.623668 203.031899 184.320802 
C 202.543761 185.017936 202.025432 185.693436 201.478391 186.345373 
z
" clip-path="url(#p782b499d8a)" style="fill: #808080; opacity: 0.5"/>
   </g>
   <g id="patch_36">
    <path d="M 179.07 167.5425 
C 179.07 167.5425 179.07 167.5425 179.07 167.5425 
C 179.07 167.5425 179.07 167.5425 179.07 167.5425 
L 216.006948 180.98645 
C 215.615817 182.061072 215.177976 183.118114 214.694675 184.154559 
C 214.211373 185.191003 213.68307 186.205862 213.111276 187.19624 
z
" clip-path="url(#p782b499d8a)" style="fill: #808080; opacity: 0.5"/>
   </g>
   <g id="patch_37">
    <path d="M 179.07 167.5425 
C 179.07 167.5425 179.07 167.5425 179.07 167.5425 
C 179.07 167.5425 179.07 167.5425 179.07 167.5425 
L 210.578392 173.09828 
C 210.416755 174.014967 210.215191 174.924164 209.974275 175.823276 
C 209.733359 176.722387 209.45332 177.610557 209.134958 178.48525 
z
" clip-path="url(#p782b499d8a)" style="fill: #808080; opacity: 0.5"/>
   </g>
   <g id="patch_38">
    <path d="M 179.07 167.5425 
C 179.07 167.5425 179.07 167.5425 179.07 167.5425 
C 179.07 167.5425 179.07 167.5425 179.07 167.5425 
L 216.549224 167.5425 
C 216.549224 168.632899 216.501639 169.72278 216.406605 170.80903 
C 216.31157 171.89528 216.169177 172.976865 215.979831 174.050699 
z
" clip-path="url(#p782b499d8a)" style="fill: #808080; opacity: 0.5"/>
   </g>
   <g id="patch_39">
    <path d="M 179.07 167.5425 
C 179.07 167.5425 179.07 167.5425 179.07 167.5425 
C 179.07 167.5425 179.07 167.5425 179.07 167.5425 
L 236.135243 157.480358 
C 236.427985 159.140582 236.648136 160.812791 236.795066 162.492211 
C 236.941996 164.171632 237.015566 165.856664 237.015566 167.5425 
z
" clip-path="url(#p782b499d8a)" style="fill: #00bfff; opacity: 0.5"/>
   </g>
   <g id="patch_40">
    <path d="M 179.07 167.5425 
C 179.07 167.5425 179.07 167.5425 179.07 167.5425 
C 179.07 167.5425 179.07 167.5425 179.07 167.5425 
L 205.20649 158.029596 
C 205.483253 158.789996 205.7267 159.562112 205.936137 160.34374 
C 206.145574 161.125368 206.3208 161.915764 206.461317 162.712672 
z
" clip-path="url(#p782b499d8a)" style="fill: #00bfff; opacity: 0.5"/>
   </g>
   <g id="patch_41">
    <path d="M 179.07 167.5425 
C 179.07 167.5425 179.07 167.5425 179.07 167.5425 
C 179.07 167.5425 179.07 167.5425 179.07 167.5425 
L 218.212219 144.943729 
C 218.869695 146.082511 219.477161 147.249442 220.032884 148.441193 
C 220.588607 149.632945 221.092056 150.84838 221.541796 152.08403 
z
" clip-path="url(#p782b499d8a)" style="fill: #00bfff; opacity: 0.5"/>
   </g>
   <g id="patch_42">
    <path d="M 179.07 167.5425 
C 179.07 167.5425 179.07 167.5425 179.07 167.5425 
C 179.07 167.5425 179.07 167.5425 179.07 167.5425 
L 218.132214 134.765411 
C 219.085812 135.901865 219.989361 137.079393 220.840282 138.294634 
C 221.691202 139.509875 222.488685 140.761672 223.230453 142.046451 
z
" clip-path="url(#p782b499d8a)" style="fill: #00bfff; opacity: 0.5"/>
   </g>
   <g id="patch_43">
    <path d="M 179.07 167.5425 
C 179.07 167.5425 179.07 167.5425 179.07 167.5425 
C 179.07 167.5425 179.07 167.5425 179.07 167.5425 
L 204.397751 137.358062 
C 205.27592 138.094934 206.121513 138.869777 206.932118 139.680382 
C 207.742723 140.490987 208.517566 141.33658 209.254438 142.214749 
z
" clip-path="url(#p782b499d8a)" style="fill: #00bfff; opacity: 0.5"/>
   </g>
   <g id="patch_44">
    <path d="M 179.07 167.5425 
C 179.07 167.5425 179.07 167.5425 179.07 167.5425 
C 179.07 167.5425 179.07 167.5425 179.07 167.5425 
L 197.033126 136.429454 
C 197.938311 136.952063 198.820259 137.513926 199.676451 138.113438 
C 200.532644 138.71295 201.362266 139.349542 202.162949 140.021395 
z
" clip-path="url(#p782b499d8a)" style="fill: #00bfff; opacity: 0.5"/>
   </g>
   <g id="patch_45">
    <path d="M 179.07 167.5425 
C 179.07 167.5425 179.07 167.5425 179.07 167.5425 
C 179.07 167.5425 179.07 167.5425 179.07 167.5425 
L 201.266777 106.557356 
C 203.041044 107.203137 204.786285 107.926039 206.497517 108.724 
C 208.208749 109.521961 209.884344 110.39422 211.519517 111.338288 
z
" clip-path="url(#p782b499d8a)" style="fill: #00bfff; opacity: 0.5"/>
   </g>
   <g id="patch_46">
    <path d="M 179.07 167.5425 
C 179.07 167.5425 179.07 167.5425 179.07 167.5425 
C 179.07 167.5425 179.07 167.5425 179.07 167.5425 
L 188.327171 115.042477 
C 189.854577 115.311799 191.369502 115.64765 192.867623 116.049071 
C 194.365744 116.450491 195.845633 116.917098 197.303067 117.447561 
z
" clip-path="url(#p782b499d8a)" style="fill: #00bfff; opacity: 0.5"/>
   </g>
   <g id="patch_47">
    <path d="M 179.07 167.5425 
C 179.07 167.5425 179.07 167.5425 179.07 167.5425 
C 179.07 167.5425 179.07 167.5425 179.07 167.5425 
L 179.07 124.662781 
C 180.317518 124.662781 181.564443 124.717223 182.807214 124.825951 
C 184.049985 124.93468 185.287419 125.097591 186.515985 125.31422 
z
" clip-path="url(#p782b499d8a)" style="fill: #00bfff; opacity: 0.5"/>
   </g>
   <g id="patch_48">
    <path d="M 179.07 167.5425 
C 179.07 167.5425 179.07 167.5425 179.07 167.5425 
C 179.07 167.5425 179.07 167.5425 179.07 167.5425 
L 172.227743 128.738135 
C 173.356696 128.53907 174.493798 128.389368 175.635804 128.289455 
C 176.777809 128.189543 177.923632 128.139515 179.07 128.139515 
z
" clip-path="url(#p782b499d8a)" style="fill: #00bfff; opacity: 0.5"/>
   </g>
   <g id="patch_49">
    <path d="M 179.07 167.5425 
C 179.07 167.5425 179.07 167.5425 179.07 167.5425 
C 179.07 167.5425 179.07 167.5425 179.07 167.5425 
L 169.953467 142.49503 
C 170.682184 142.229799 171.422128 141.996495 172.171189 141.795785 
C 172.920249 141.595075 173.677712 141.42715 174.441415 141.292488 
z
" clip-path="url(#p782b499d8a)" style="fill: #00bfff; opacity: 0.5"/>
   </g>
   <g id="patch_50">
    <path d="M 179.07 167.5425 
C 179.07 167.5425 179.07 167.5425 179.07 167.5425 
C 179.07 167.5425 179.07 167.5425 179.07 167.5425 
L 167.480887 147.469567 
C 168.064877 147.1324 168.663304 146.820879 169.274458 146.535893 
C 169.885613 146.250907 170.508913 145.992727 171.14258 145.762092 
z
" clip-path="url(#p782b499d8a)" style="fill: #00bfff; opacity: 0.5"/>
   </g>
   <g id="patch_51">
    <path d="M 179.07 167.5425 
C 179.07 167.5425 179.07 167.5425 179.07 167.5425 
C 179.07 167.5425 179.07 167.5425 179.07 167.5425 
L 170.875728 157.776947 
C 171.159841 157.538547 171.454223 157.31266 171.758033 157.09993 
C 172.061844 156.887199 172.374793 156.687829 172.695988 156.502387 
z
" clip-path="url(#p782b499d8a)" style="fill: #00bfff; opacity: 0.5"/>
   </g>
   <g id="patch_52">
    <path d="M 179.07 167.5425 
C 179.07 167.5425 179.07 167.5425 179.07 167.5425 
C 179.07 167.5425 179.07 167.5425 179.07 167.5425 
L 166.641114 157.113426 
C 166.944531 156.751827 167.263585 156.403642 167.597363 156.069863 
C 167.931142 155.736085 168.279327 155.417031 168.640926 155.113614 
z
" clip-path="url(#p782b499d8a)" style="fill: #00bfff; opacity: 0.5"/>
   </g>
   <g id="patch_53">
    <path d="M 179.07 167.5425 
C 179.07 167.5425 179.07 167.5425 179.07 167.5425 
C 179.07 167.5425 179.07 167.5425 179.07 167.5425 
L 165.018947 159.430121 
C 165.254964 159.021327 165.508708 158.623028 165.779456 158.236361 
C 166.050203 157.849693 166.337696 157.475025 166.641114 157.113426 
z
" clip-path="url(#p782b499d8a)" style="fill: #00bfff; opacity: 0.5"/>
   </g>
   <g id="patch_54">
    <path d="M 179.07 167.5425 
C 179.07 167.5425 179.07 167.5425 179.07 167.5425 
C 179.07 167.5425 179.07 167.5425 179.07 167.5425 
L 168.179796 163.57879 
C 168.295114 163.261956 168.424203 162.950306 168.566696 162.644729 
C 168.709189 162.339152 168.86495 162.039939 169.033534 161.747943 
z
" clip-path="url(#p782b499d8a)" style="fill: #00bfff; opacity: 0.5"/>
   </g>
   <g id="patch_55">
    <path d="M 179.07 167.5425 
C 179.07 167.5425 179.07 167.5425 179.07 167.5425 
C 179.07 167.5425 179.07 167.5425 179.07 167.5425 
L 152.819988 162.913915 
C 152.95465 162.150212 153.122575 161.392749 153.323285 160.643689 
C 153.523995 159.894628 153.757299 159.154684 154.02253 158.425967 
z
" clip-path="url(#p782b499d8a)" style="fill: #00bfff; opacity: 0.5"/>
   </g>
   <g id="patch_56">
    <path d="M 179.07 167.5425 
C 179.07 167.5425 179.07 167.5425 179.07 167.5425 
C 179.07 167.5425 179.07 167.5425 179.07 167.5425 
L 161.68633 167.5425 
C 161.68633 167.036749 161.708401 166.531239 161.75248 166.027413 
C 161.796559 165.523587 161.862604 165.021925 161.950427 164.523857 
z
" clip-path="url(#p782b499d8a)" style="fill: #00bfff; opacity: 0.5"/>
   </g>
   <g id="patch_57">
    <path d="M 179.07 167.5425 
C 179.07 167.5425 179.07 167.5425 179.07 167.5425 
C 179.07 167.5425 179.07 167.5425 179.07 167.5425 
L 160.809122 170.762385 
C 160.715445 170.231114 160.644997 169.696007 160.597979 169.158592 
C 160.550961 168.621178 160.527419 168.081967 160.527419 167.5425 
z
" clip-path="url(#p782b499d8a)" style="fill: #00bfff; opacity: 0.5"/>
   </g>
   <g id="patch_58">
    <path d="M 179.07 167.5425 
C 179.07 167.5425 179.07 167.5425 179.07 167.5425 
C 179.07 167.5425 179.07 167.5425 179.07 167.5425 
L 159.467632 174.677178 
C 159.26006 174.106878 159.077475 173.527791 158.920397 172.94157 
C 158.76332 172.355349 158.6319 171.762552 158.526513 171.164871 
z
" clip-path="url(#p782b499d8a)" style="fill: #00bfff; opacity: 0.5"/>
   </g>
   <g id="patch_59">
    <path d="M 179.07 167.5425 
C 179.07 167.5425 179.07 167.5425 179.07 167.5425 
C 179.07 167.5425 179.07 167.5425 179.07 167.5425 
L 158.997067 179.131613 
C 158.6599 178.547623 158.348379 177.949196 158.063393 177.338042 
C 157.778407 176.726887 157.520227 176.103587 157.289592 175.46992 
z
" clip-path="url(#p782b499d8a)" style="fill: #00bfff; opacity: 0.5"/>
   </g>
   <g id="patch_60">
    <path d="M 179.07 167.5425 
C 179.07 167.5425 179.07 167.5425 179.07 167.5425 
C 179.07 167.5425 179.07 167.5425 179.07 167.5425 
L 162.202226 181.696243 
C 161.790445 181.205501 161.400276 180.697023 161.032833 180.17226 
C 160.66539 179.647497 160.321022 179.106949 160.000714 178.552158 
z
" clip-path="url(#p782b499d8a)" style="fill: #00bfff; opacity: 0.5"/>
   </g>
   <g id="patch_61">
    <path d="M 179.07 167.5425 
C 179.07 167.5425 179.07 167.5425 179.07 167.5425 
C 179.07 167.5425 179.07 167.5425 179.07 167.5425 
L 164.171323 185.298052 
C 163.654753 184.864598 163.157345 184.408807 162.680519 183.931981 
C 162.203693 183.455155 161.747902 182.957747 161.314448 182.441177 
z
" clip-path="url(#p782b499d8a)" style="fill: #00bfff; opacity: 0.5"/>
   </g>
   <g id="patch_62">
    <path d="M 179.07 167.5425 
C 179.07 167.5425 179.07 167.5425 179.07 167.5425 
C 179.07 167.5425 179.07 167.5425 179.07 167.5425 
L 151.835584 214.713892 
C 150.463206 213.92155 149.12606 213.069694 147.827961 212.160755 
C 146.529863 211.251817 145.272049 210.286662 144.058109 209.268046 
z
" clip-path="url(#p782b499d8a)" style="fill: #00bfff; opacity: 0.5"/>
   </g>
   <g id="patch_63">
    <path d="M 179.07 167.5425 
C 179.07 167.5425 179.07 167.5425 179.07 167.5425 
C 179.07 167.5425 179.07 167.5425 179.07 167.5425 
L 162.818788 212.192337 
C 161.519771 211.719534 160.242006 211.190266 158.989139 210.606045 
C 157.736273 210.021823 156.509499 209.383205 155.312318 208.692013 
z
" clip-path="url(#p782b499d8a)" style="fill: #00bfff; opacity: 0.5"/>
   </g>
   <g id="patch_64">
    <path d="M 179.07 167.5425 
C 179.07 167.5425 179.07 167.5425 179.07 167.5425 
C 179.07 167.5425 179.07 167.5425 179.07 167.5425 
L 166.391701 239.444706 
C 164.299819 239.075851 162.22503 238.615881 160.173256 238.06611 
C 158.121482 237.516339 156.094677 236.87729 154.098626 236.150787 
z
" clip-path="url(#p782b499d8a)" style="fill: #00bfff; opacity: 0.5"/>
   </g>
   <g id="patch_65">
    <path d="M 179.07 167.5425 
C 179.07 167.5425 179.07 167.5425 179.07 167.5425 
C 179.07 167.5425 179.07 167.5425 179.07 167.5425 
L 179.07 208.104396 
C 177.889915 208.104396 176.710392 208.052897 175.534798 207.950046 
C 174.359203 207.847195 173.188657 207.69309 172.026501 207.48817 
z
" clip-path="url(#p782b499d8a)" style="fill: #00bfff; opacity: 0.5"/>
   </g>
   <g id="patch_66">
    <path d="M 179.07 167.5425 
C 179.07 167.5425 179.07 167.5425 179.07 167.5425 
C 179.07 167.5425 179.07 167.5425 179.07 167.5425 
L 187.924685 217.759914 
C 186.463688 218.017527 184.992144 218.211259 183.514254 218.340558 
C 182.036364 218.469857 180.553535 218.534598 179.07 218.534598 
z
" clip-path="url(#p782b499d8a)" style="fill: #00bfff; opacity: 0.5"/>
   </g>
   <g id="patch_67">
    <path d="M 179.07 167.5425 
C 179.07 167.5425 179.07 167.5425 179.07 167.5425 
C 179.07 167.5425 179.07 167.5425 179.07 167.5425 
L 197.699438 218.72646 
C 196.210321 219.268454 194.69826 219.745205 193.167571 220.155352 
C 191.636883 220.565499 190.089024 220.908651 188.528413 221.183828 
z
" clip-path="url(#p782b499d8a)" style="fill: #00bfff; opacity: 0.5"/>
   </g>
   <g id="patch_68">
    <path d="M 179.07 167.5425 
C 179.07 167.5425 179.07 167.5425 179.07 167.5425 
C 179.07 167.5425 179.07 167.5425 179.07 167.5425 
L 190.659113 187.615433 
C 190.075123 187.9526 189.476696 188.264121 188.865542 188.549107 
C 188.254387 188.834093 187.631087 189.092273 186.99742 189.322908 
z
" clip-path="url(#p782b499d8a)" style="fill: #00bfff; opacity: 0.5"/>
   </g>
   <g id="patch_69">
    <path d="M 179.07 167.5425 
C 179.07 167.5425 179.07 167.5425 179.07 167.5425 
C 179.07 167.5425 179.07 167.5425 179.07 167.5425 
L 200.673081 193.28805 
C 199.924055 193.916558 199.147957 194.512079 198.347003 195.072913 
C 197.546048 195.633747 196.721001 196.15936 195.874214 196.648253 
z
" clip-path="url(#p782b499d8a)" style="fill: #00bfff; opacity: 0.5"/>
   </g>
   <g id="patch_70">
    <path d="M 179.07 167.5425 
C 179.07 167.5425 179.07 167.5425 179.07 167.5425 
C 179.07 167.5425 179.07 167.5425 179.07 167.5425 
L 208.36666 192.125317 
C 207.651462 192.977657 206.899407 193.79838 206.112644 194.585144 
C 205.32588 195.371907 204.505157 196.123962 203.652817 196.83916 
z
" clip-path="url(#p782b499d8a)" style="fill: #00bfff; opacity: 0.5"/>
   </g>
   <g id="patch_71">
    <path d="M 179.07 167.5425 
C 179.07 167.5425 179.07 167.5425 179.07 167.5425 
C 179.07 167.5425 179.07 167.5425 179.07 167.5425 
L 207.172106 183.767259 
C 206.700072 184.584845 206.192583 185.381443 205.651088 186.154778 
C 205.109593 186.928114 204.534607 187.67745 203.927772 188.400648 
z
" clip-path="url(#p782b499d8a)" style="fill: #00bfff; opacity: 0.5"/>
   </g>
   <g id="patch_72">
    <path d="M 179.07 167.5425 
C 179.07 167.5425 179.07 167.5425 179.07 167.5425 
C 179.07 167.5425 179.07 167.5425 179.07 167.5425 
L 212.829633 179.830002 
C 212.472147 180.812185 212.071969 181.778301 211.630241 182.72559 
C 211.188513 183.672879 210.705655 184.60044 210.183046 185.505626 
z
" clip-path="url(#p782b499d8a)" style="fill: #00bfff; opacity: 0.5"/>
   </g>
   <g id="patch_73">
    <path d="M 179.07 167.5425 
C 179.07 167.5425 179.07 167.5425 179.07 167.5425 
C 179.07 167.5425 179.07 167.5425 179.07 167.5425 
L 228.146109 176.195942 
C 227.894351 177.623735 227.580403 179.039861 227.205162 180.440278 
C 226.829922 181.840695 226.393745 183.22407 225.897878 184.586454 
z
" clip-path="url(#p782b499d8a)" style="fill: #00bfff; opacity: 0.5"/>
   </g>
   <g id="patch_74">
    <path d="M 179.07 167.5425 
C 179.07 167.5425 179.07 167.5425 179.07 167.5425 
C 179.07 167.5425 179.07 167.5425 179.07 167.5425 
L 248.60468 167.5425 
C 248.60468 169.565503 248.516395 171.587542 248.340079 173.602847 
C 248.163763 175.618151 247.899582 177.624802 247.548292 179.61707 
z
" clip-path="url(#p782b499d8a)" style="fill: #00bfff; opacity: 0.5"/>
   </g>
   <g id="matplotlib.axis_1">
    <g id="xtick_1">
     <g id="line2d_1">
      <path d="M 179.07 167.5425 
L 317.67 167.5425 
" clip-path="url(#p782b499d8a)" style="fill: none; stroke: #b0b0b0; stroke-width: 0.8; stroke-linecap: square"/>
     </g>
     <g id="text_1">
      <!-- 0° -->
      <g transform="translate(322.58 171.9575) scale(0.16 -0.16)">
       <defs>
        <path id="DejaVuSans-30" d="M 2034 4250 
Q 1547 4250 1301 3770 
Q 1056 3291 1056 2328 
Q 1056 1369 1301 889 
Q 1547 409 2034 409 
Q 2525 409 2770 889 
Q 3016 1369 3016 2328 
Q 3016 3291 2770 3770 
Q 2525 4250 2034 4250 
z
M 2034 4750 
Q 2819 4750 3233 4129 
Q 3647 3509 3647 2328 
Q 3647 1150 3233 529 
Q 2819 -91 2034 -91 
Q 1250 -91 836 529 
Q 422 1150 422 2328 
Q 422 3509 836 4129 
Q 1250 4750 2034 4750 
z
" transform="scale(0.015625)"/>
        <path id="DejaVuSans-b0" d="M 1600 4347 
Q 1350 4347 1178 4173 
Q 1006 4000 1006 3750 
Q 1006 3503 1178 3333 
Q 1350 3163 1600 3163 
Q 1850 3163 2022 3333 
Q 2194 3503 2194 3750 
Q 2194 3997 2020 4172 
Q 1847 4347 1600 4347 
z
M 1600 4750 
Q 1800 4750 1984 4673 
Q 2169 4597 2303 4453 
Q 2447 4313 2519 4134 
Q 2591 3956 2591 3750 
Q 2591 3338 2302 3052 
Q 2013 2766 1594 2766 
Q 1172 2766 890 3047 
Q 609 3328 609 3750 
Q 609 4169 896 4459 
Q 1184 4750 1600 4750 
z
" transform="scale(0.015625)"/>
       </defs>
       <use xlink:href="#DejaVuSans-30"/>
       <use xlink:href="#DejaVuSans-b0" x="63.623047"/>
      </g>
     </g>
    </g>
    <g id="xtick_2">
     <g id="line2d_2">
      <path d="M 179.07 167.5425 
L 277.075 69.5375 
" clip-path="url(#p782b499d8a)" style="fill: none; stroke: #b0b0b0; stroke-width: 0.8; stroke-linecap: square"/>
     </g>
     <g id="text_2">
      <!-- 45° -->
      <g transform="translate(272.794495 64.053005) scale(0.16 -0.16)">
       <defs>
        <path id="DejaVuSans-34" d="M 2419 4116 
L 825 1625 
L 2419 1625 
L 2419 4116 
z
M 2253 4666 
L 3047 4666 
L 3047 1625 
L 3713 1625 
L 3713 1100 
L 3047 1100 
L 3047 0 
L 2419 0 
L 2419 1100 
L 313 1100 
L 313 1709 
L 2253 4666 
z
" transform="scale(0.015625)"/>
        <path id="DejaVuSans-35" d="M 691 4666 
L 3169 4666 
L 3169 4134 
L 1269 4134 
L 1269 2991 
Q 1406 3038 1543 3061 
Q 1681 3084 1819 3084 
Q 2600 3084 3056 2656 
Q 3513 2228 3513 1497 
Q 3513 744 3044 326 
Q 2575 -91 1722 -91 
Q 1428 -91 1123 -41 
Q 819 9 494 109 
L 494 744 
Q 775 591 1075 516 
Q 1375 441 1709 441 
Q 2250 441 2565 725 
Q 2881 1009 2881 1497 
Q 2881 1984 2565 2268 
Q 2250 2553 1709 2553 
Q 1456 2553 1204 2497 
Q 953 2441 691 2322 
L 691 4666 
z
" transform="scale(0.015625)"/>
       </defs>
       <use xlink:href="#DejaVuSans-34"/>
       <use xlink:href="#DejaVuSans-35" x="63.623047"/>
       <use xlink:href="#DejaVuSans-b0" x="127.246094"/>
      </g>
     </g>
    </g>
    <g id="xtick_3">
     <g id="line2d_3">
      <path d="M 179.07 167.5425 
L 179.07 28.9425 
" clip-path="url(#p782b499d8a)" style="fill: none; stroke: #b0b0b0; stroke-width: 0.8; stroke-linecap: square"/>
     </g>
     <g id="text_3">
      <!-- 90° -->
      <g transform="translate(164.89 19.3575) scale(0.16 -0.16)">
       <defs>
        <path id="DejaVuSans-39" d="M 703 97 
L 703 672 
Q 941 559 1184 500 
Q 1428 441 1663 441 
Q 2288 441 2617 861 
Q 2947 1281 2994 2138 
Q 2813 1869 2534 1725 
Q 2256 1581 1919 1581 
Q 1219 1581 811 2004 
Q 403 2428 403 3163 
Q 403 3881 828 4315 
Q 1253 4750 1959 4750 
Q 2769 4750 3195 4129 
Q 3622 3509 3622 2328 
Q 3622 1225 3098 567 
Q 2575 -91 1691 -91 
Q 1453 -91 1209 -44 
Q 966 3 703 97 
z
M 1959 2075 
Q 2384 2075 2632 2365 
Q 2881 2656 2881 3163 
Q 2881 3666 2632 3958 
Q 2384 4250 1959 4250 
Q 1534 4250 1286 3958 
Q 1038 3666 1038 3163 
Q 1038 2656 1286 2365 
Q 1534 2075 1959 2075 
z
" transform="scale(0.015625)"/>
       </defs>
       <use xlink:href="#DejaVuSans-39"/>
       <use xlink:href="#DejaVuSans-30" x="63.623047"/>
       <use xlink:href="#DejaVuSans-b0" x="127.246094"/>
      </g>
     </g>
    </g>
    <g id="xtick_4">
     <g id="line2d_4">
      <path d="M 179.07 167.5425 
L 81.065 69.5375 
" clip-path="url(#p782b499d8a)" style="fill: none; stroke: #b0b0b0; stroke-width: 0.8; stroke-linecap: square"/>
     </g>
     <g id="text_4">
      <!-- 135° -->
      <g transform="translate(51.895505 64.053005) scale(0.16 -0.16)">
       <defs>
        <path id="DejaVuSans-31" d="M 794 531 
L 1825 531 
L 1825 4091 
L 703 3866 
L 703 4441 
L 1819 4666 
L 2450 4666 
L 2450 531 
L 3481 531 
L 3481 0 
L 794 0 
L 794 531 
z
" transform="scale(0.015625)"/>
        <path id="DejaVuSans-33" d="M 2597 2516 
Q 3050 2419 3304 2112 
Q 3559 1806 3559 1356 
Q 3559 666 3084 287 
Q 2609 -91 1734 -91 
Q 1441 -91 1130 -33 
Q 819 25 488 141 
L 488 750 
Q 750 597 1062 519 
Q 1375 441 1716 441 
Q 2309 441 2620 675 
Q 2931 909 2931 1356 
Q 2931 1769 2642 2001 
Q 2353 2234 1838 2234 
L 1294 2234 
L 1294 2753 
L 1863 2753 
Q 2328 2753 2575 2939 
Q 2822 3125 2822 3475 
Q 2822 3834 2567 4026 
Q 2313 4219 1838 4219 
Q 1578 4219 1281 4162 
Q 984 4106 628 3988 
L 628 4550 
Q 988 4650 1302 4700 
Q 1616 4750 1894 4750 
Q 2613 4750 3031 4423 
Q 3450 4097 3450 3541 
Q 3450 3153 3228 2886 
Q 3006 2619 2597 2516 
z
" transform="scale(0.015625)"/>
       </defs>
       <use xlink:href="#DejaVuSans-31"/>
       <use xlink:href="#DejaVuSans-33" x="63.623047"/>
       <use xlink:href="#DejaVuSans-35" x="127.246094"/>
       <use xlink:href="#DejaVuSans-b0" x="190.869141"/>
      </g>
     </g>
    </g>
    <g id="xtick_5">
     <g id="line2d_5">
      <path d="M 179.07 167.5425 
L 40.47 167.5425 
" clip-path="url(#p782b499d8a)" style="fill: none; stroke: #b0b0b0; stroke-width: 0.8; stroke-linecap: square"/>
     </g>
     <g id="text_5">
      <!-- 180° -->
      <g transform="translate(7.2 171.9575) scale(0.16 -0.16)">
       <defs>
        <path id="DejaVuSans-38" d="M 2034 2216 
Q 1584 2216 1326 1975 
Q 1069 1734 1069 1313 
Q 1069 891 1326 650 
Q 1584 409 2034 409 
Q 2484 409 2743 651 
Q 3003 894 3003 1313 
Q 3003 1734 2745 1975 
Q 2488 2216 2034 2216 
z
M 1403 2484 
Q 997 2584 770 2862 
Q 544 3141 544 3541 
Q 544 4100 942 4425 
Q 1341 4750 2034 4750 
Q 2731 4750 3128 4425 
Q 3525 4100 3525 3541 
Q 3525 3141 3298 2862 
Q 3072 2584 2669 2484 
Q 3125 2378 3379 2068 
Q 3634 1759 3634 1313 
Q 3634 634 3220 271 
Q 2806 -91 2034 -91 
Q 1263 -91 848 271 
Q 434 634 434 1313 
Q 434 1759 690 2068 
Q 947 2378 1403 2484 
z
M 1172 3481 
Q 1172 3119 1398 2916 
Q 1625 2713 2034 2713 
Q 2441 2713 2670 2916 
Q 2900 3119 2900 3481 
Q 2900 3844 2670 4047 
Q 2441 4250 2034 4250 
Q 1625 4250 1398 4047 
Q 1172 3844 1172 3481 
z
" transform="scale(0.015625)"/>
       </defs>
       <use xlink:href="#DejaVuSans-31"/>
       <use xlink:href="#DejaVuSans-38" x="63.623047"/>
       <use xlink:href="#DejaVuSans-30" x="127.246094"/>
       <use xlink:href="#DejaVuSans-b0" x="190.869141"/>
      </g>
     </g>
    </g>
    <g id="xtick_6">
     <g id="line2d_6">
      <path d="M 179.07 167.5425 
L 81.065 265.5475 
" clip-path="url(#p782b499d8a)" style="fill: none; stroke: #b0b0b0; stroke-width: 0.8; stroke-linecap: square"/>
     </g>
     <g id="text_6">
      <!-- 225° -->
      <g transform="translate(51.895505 279.861995) scale(0.16 -0.16)">
       <defs>
        <path id="DejaVuSans-32" d="M 1228 531 
L 3431 531 
L 3431 0 
L 469 0 
L 469 531 
Q 828 903 1448 1529 
Q 2069 2156 2228 2338 
Q 2531 2678 2651 2914 
Q 2772 3150 2772 3378 
Q 2772 3750 2511 3984 
Q 2250 4219 1831 4219 
Q 1534 4219 1204 4116 
Q 875 4013 500 3803 
L 500 4441 
Q 881 4594 1212 4672 
Q 1544 4750 1819 4750 
Q 2544 4750 2975 4387 
Q 3406 4025 3406 3419 
Q 3406 3131 3298 2873 
Q 3191 2616 2906 2266 
Q 2828 2175 2409 1742 
Q 1991 1309 1228 531 
z
" transform="scale(0.015625)"/>
       </defs>
       <use xlink:href="#DejaVuSans-32"/>
       <use xlink:href="#DejaVuSans-32" x="63.623047"/>
       <use xlink:href="#DejaVuSans-35" x="127.246094"/>
       <use xlink:href="#DejaVuSans-b0" x="190.869141"/>
      </g>
     </g>
    </g>
    <g id="xtick_7">
     <g id="line2d_7">
      <path d="M 179.07 167.5425 
L 179.07 306.1425 
" clip-path="url(#p782b499d8a)" style="fill: none; stroke: #b0b0b0; stroke-width: 0.8; stroke-linecap: square"/>
     </g>
     <g id="text_7">
      <!-- 270° -->
      <g transform="translate(159.8 324.5575) scale(0.16 -0.16)">
       <defs>
        <path id="DejaVuSans-37" d="M 525 4666 
L 3525 4666 
L 3525 4397 
L 1831 0 
L 1172 0 
L 2766 4134 
L 525 4134 
L 525 4666 
z
" transform="scale(0.015625)"/>
       </defs>
       <use xlink:href="#DejaVuSans-32"/>
       <use xlink:href="#DejaVuSans-37" x="63.623047"/>
       <use xlink:href="#DejaVuSans-30" x="127.246094"/>
       <use xlink:href="#DejaVuSans-b0" x="190.869141"/>
      </g>
     </g>
    </g>
    <g id="xtick_8">
     <g id="line2d_8">
      <path d="M 179.07 167.5425 
L 277.075 265.5475 
" clip-path="url(#p782b499d8a)" style="fill: none; stroke: #b0b0b0; stroke-width: 0.8; stroke-linecap: square"/>
     </g>
     <g id="text_8">
      <!-- 315° -->
      <g transform="translate(267.704495 279.861995) scale(0.16 -0.16)">
       <use xlink:href="#DejaVuSans-33"/>
       <use xlink:href="#DejaVuSans-31" x="63.623047"/>
       <use xlink:href="#DejaVuSans-35" x="127.246094"/>
       <use xlink:href="#DejaVuSans-b0" x="190.869141"/>
      </g>
     </g>
    </g>
   </g>
   <g id="matplotlib.axis_2">
    <g id="ytick_1">
     <g id="line2d_9">
      <path d="M 245.07 167.5425 
C 245.07 158.875459 243.362782 150.292695 240.046049 142.285393 
C 236.729316 134.278092 231.867571 127.001976 225.739048 120.873452 
C 219.610524 114.744929 212.334408 109.883184 204.327107 106.566451 
C 196.319805 103.249718 187.737041 101.5425 179.07 101.5425 
C 170.402959 101.5425 161.820195 103.249718 153.812893 106.566451 
C 145.805592 109.883184 138.529476 114.744929 132.400952 120.873452 
C 126.272429 127.001976 121.410684 134.278092 118.093951 142.285393 
C 114.777218 150.292695 113.07 158.875459 113.07 167.5425 
C 113.07 176.209541 114.777218 184.792305 118.093951 192.799607 
C 121.410684 200.806908 126.272429 208.083024 132.400952 214.211548 
C 138.529476 220.340071 145.805592 225.201816 153.812893 228.518549 
C 161.820195 231.835282 170.402959 233.5425 179.07 233.5425 
C 187.737041 233.5425 196.319805 231.835282 204.327107 228.518549 
C 212.334408 225.201816 219.610524 220.340071 225.739048 214.211548 
C 231.867571 208.083024 236.729316 200.806908 240.046049 192.799607 
C 243.362782 184.792305 245.07 176.209541 245.07 167.5425 
" clip-path="url(#p782b499d8a)" style="fill: none; stroke: #000000; stroke-width: 1.5; stroke-linecap: square"/>
     </g>
     <g id="text_9">
      <!-- 0.005 -->
      <g transform="translate(240.046049 138.957893) scale(0.16 -0.16)">
       <defs>
        <path id="DejaVuSans-2e" d="M 684 794 
L 1344 794 
L 1344 0 
L 684 0 
L 684 794 
z
" transform="scale(0.015625)"/>
       </defs>
       <use xlink:href="#DejaVuSans-30"/>
       <use xlink:href="#DejaVuSans-2e" x="63.623047"/>
       <use xlink:href="#DejaVuSans-30" x="95.410156"/>
       <use xlink:href="#DejaVuSans-30" x="159.033203"/>
       <use xlink:href="#DejaVuSans-35" x="222.65625"/>
      </g>
     </g>
    </g>
    <g id="ytick_2">
     <g id="line2d_10">
      <path d="M 311.07 167.5425 
C 311.07 150.208419 307.655564 133.04289 301.022098 117.028287 
C 294.388633 101.013684 284.665141 86.461451 272.408095 74.204405 
C 260.151049 61.947359 245.598816 52.223867 229.584213 45.590402 
C 213.56961 38.956936 196.404081 35.5425 179.07 35.5425 
C 161.735919 35.5425 144.57039 38.956936 128.555787 45.590402 
C 112.541184 52.223867 97.988951 61.947359 85.731905 74.204405 
C 73.474859 86.461451 63.751367 101.013684 57.117902 117.028287 
C 50.484436 133.04289 47.07 150.208419 47.07 167.5425 
C 47.07 184.876581 50.484436 202.04211 57.117902 218.056713 
C 63.751367 234.071316 73.474859 248.623549 85.731905 260.880595 
C 97.988951 273.137641 112.541184 282.861133 128.555787 289.494598 
C 144.57039 296.128064 161.735919 299.5425 179.07 299.5425 
C 196.404081 299.5425 213.56961 296.128064 229.584213 289.494598 
C 245.598816 282.861133 260.151049 273.137641 272.408095 260.880595 
C 284.665141 248.623549 294.388633 234.071316 301.022098 218.056713 
C 307.655564 202.04211 311.07 184.876581 311.07 167.5425 
" clip-path="url(#p782b499d8a)" style="fill: none; stroke: #000000; stroke-width: 1.5; stroke-linecap: square"/>
     </g>
     <g id="text_10">
      <!-- 0.01 -->
      <g transform="translate(301.022098 113.700787) scale(0.16 -0.16)">
       <use xlink:href="#DejaVuSans-30"/>
       <use xlink:href="#DejaVuSans-2e" x="63.623047"/>
       <use xlink:href="#DejaVuSans-30" x="95.410156"/>
       <use xlink:href="#DejaVuSans-31" x="159.033203"/>
      </g>
     </g>
    </g>
   </g>
   <g id="legend_1">
    <g id="patch_75">
     <path d="M 387.51 160.1825 
L 419.51 160.1825 
L 419.51 148.9825 
L 387.51 148.9825 
z
" style="fill: #808080; opacity: 0.5"/>
    </g>
    <g id="text_11">
     <!-- $\Delta\mathit{pilH}$, Core -->
     <g transform="translate(432.31 160.1825) scale(0.16 -0.16)">
      <defs>
       <path id="DejaVuSans-394" d="M 2188 4044 
L 906 525 
L 3472 525 
L 2188 4044 
z
M 50 0 
L 1831 4666 
L 2547 4666 
L 4325 0 
L 50 0 
z
" transform="scale(0.015625)"/>
       <path id="DejaVuSans-Oblique-70" d="M 3175 2156 
Q 3175 2616 2975 2859 
Q 2775 3103 2400 3103 
Q 2144 3103 1911 2972 
Q 1678 2841 1497 2591 
Q 1319 2344 1212 1994 
Q 1106 1644 1106 1300 
Q 1106 863 1306 627 
Q 1506 391 1875 391 
Q 2147 391 2380 519 
Q 2613 647 2778 891 
Q 2956 1147 3065 1494 
Q 3175 1841 3175 2156 
z
M 1394 2969 
Q 1625 3272 1939 3428 
Q 2253 3584 2638 3584 
Q 3175 3584 3472 3232 
Q 3769 2881 3769 2247 
Q 3769 1728 3584 1258 
Q 3400 788 3053 416 
Q 2822 169 2531 39 
Q 2241 -91 1919 -91 
Q 1547 -91 1294 64 
Q 1041 219 916 525 
L 556 -1331 
L -19 -1331 
L 922 3500 
L 1497 3500 
L 1394 2969 
z
" transform="scale(0.015625)"/>
       <path id="DejaVuSans-Oblique-69" d="M 1172 4863 
L 1747 4863 
L 1606 4134 
L 1031 4134 
L 1172 4863 
z
M 909 3500 
L 1484 3500 
L 800 0 
L 225 0 
L 909 3500 
z
" transform="scale(0.015625)"/>
       <path id="DejaVuSans-Oblique-6c" d="M 1172 4863 
L 1747 4863 
L 800 0 
L 225 0 
L 1172 4863 
z
" transform="scale(0.015625)"/>
       <path id="DejaVuSans-Oblique-48" d="M 1081 4666 
L 1716 4666 
L 1344 2753 
L 3634 2753 
L 4006 4666 
L 4641 4666 
L 3731 0 
L 3097 0 
L 3531 2222 
L 1241 2222 
L 806 0 
L 172 0 
L 1081 4666 
z
" transform="scale(0.015625)"/>
       <path id="DejaVuSans-2c" d="M 750 794 
L 1409 794 
L 1409 256 
L 897 -744 
L 494 -744 
L 750 256 
L 750 794 
z
" transform="scale(0.015625)"/>
       <path id="DejaVuSans-20" transform="scale(0.015625)"/>
       <path id="DejaVuSans-43" d="M 4122 4306 
L 4122 3641 
Q 3803 3938 3442 4084 
Q 3081 4231 2675 4231 
Q 1875 4231 1450 3742 
Q 1025 3253 1025 2328 
Q 1025 1406 1450 917 
Q 1875 428 2675 428 
Q 3081 428 3442 575 
Q 3803 722 4122 1019 
L 4122 359 
Q 3791 134 3420 21 
Q 3050 -91 2638 -91 
Q 1578 -91 968 557 
Q 359 1206 359 2328 
Q 359 3453 968 4101 
Q 1578 4750 2638 4750 
Q 3056 4750 3426 4639 
Q 3797 4528 4122 4306 
z
" transform="scale(0.015625)"/>
       <path id="DejaVuSans-6f" d="M 1959 3097 
Q 1497 3097 1228 2736 
Q 959 2375 959 1747 
Q 959 1119 1226 758 
Q 1494 397 1959 397 
Q 2419 397 2687 759 
Q 2956 1122 2956 1747 
Q 2956 2369 2687 2733 
Q 2419 3097 1959 3097 
z
M 1959 3584 
Q 2709 3584 3137 3096 
Q 3566 2609 3566 1747 
Q 3566 888 3137 398 
Q 2709 -91 1959 -91 
Q 1206 -91 779 398 
Q 353 888 353 1747 
Q 353 2609 779 3096 
Q 1206 3584 1959 3584 
z
" transform="scale(0.015625)"/>
       <path id="DejaVuSans-72" d="M 2631 2963 
Q 2534 3019 2420 3045 
Q 2306 3072 2169 3072 
Q 1681 3072 1420 2755 
Q 1159 2438 1159 1844 
L 1159 0 
L 581 0 
L 581 3500 
L 1159 3500 
L 1159 2956 
Q 1341 3275 1631 3429 
Q 1922 3584 2338 3584 
Q 2397 3584 2469 3576 
Q 2541 3569 2628 3553 
L 2631 2963 
z
" transform="scale(0.015625)"/>
       <path id="DejaVuSans-65" d="M 3597 1894 
L 3597 1613 
L 953 1613 
Q 991 1019 1311 708 
Q 1631 397 2203 397 
Q 2534 397 2845 478 
Q 3156 559 3463 722 
L 3463 178 
Q 3153 47 2828 -22 
Q 2503 -91 2169 -91 
Q 1331 -91 842 396 
Q 353 884 353 1716 
Q 353 2575 817 3079 
Q 1281 3584 2069 3584 
Q 2775 3584 3186 3129 
Q 3597 2675 3597 1894 
z
M 3022 2063 
Q 3016 2534 2758 2815 
Q 2500 3097 2075 3097 
Q 1594 3097 1305 2825 
Q 1016 2553 972 2059 
L 3022 2063 
z
" transform="scale(0.015625)"/>
      </defs>
      <use xlink:href="#DejaVuSans-394" transform="translate(0 0.015625)"/>
      <use xlink:href="#DejaVuSans-Oblique-70" transform="translate(68.408203 0.015625)"/>
      <use xlink:href="#DejaVuSans-Oblique-69" transform="translate(131.884766 0.015625)"/>
      <use xlink:href="#DejaVuSans-Oblique-6c" transform="translate(159.667969 0.015625)"/>
      <use xlink:href="#DejaVuSans-Oblique-48" transform="translate(187.451172 0.015625)"/>
      <use xlink:href="#DejaVuSans-2c" transform="translate(262.646484 0.015625)"/>
      <use xlink:href="#DejaVuSans-20" transform="translate(294.433594 0.015625)"/>
      <use xlink:href="#DejaVuSans-43" transform="translate(326.220703 0.015625)"/>
      <use xlink:href="#DejaVuSans-6f" transform="translate(396.044922 0.015625)"/>
      <use xlink:href="#DejaVuSans-72" transform="translate(457.226562 0.015625)"/>
      <use xlink:href="#DejaVuSans-65" transform="translate(498.339844 0.015625)"/>
     </g>
    </g>
    <g id="patch_76">
     <path d="M 387.51 183.7025 
L 419.51 183.7025 
L 419.51 172.5025 
L 387.51 172.5025 
z
" style="fill: #00bfff; opacity: 0.5"/>
    </g>
    <g id="text_12">
     <!-- $\Delta\mathit{pilH}$, Edge -->
     <g transform="translate(432.31 183.7025) scale(0.16 -0.16)">
      <defs>
       <path id="DejaVuSans-45" d="M 628 4666 
L 3578 4666 
L 3578 4134 
L 1259 4134 
L 1259 2753 
L 3481 2753 
L 3481 2222 
L 1259 2222 
L 1259 531 
L 3634 531 
L 3634 0 
L 628 0 
L 628 4666 
z
" transform="scale(0.015625)"/>
       <path id="DejaVuSans-64" d="M 2906 2969 
L 2906 4863 
L 3481 4863 
L 3481 0 
L 2906 0 
L 2906 525 
Q 2725 213 2448 61 
Q 2172 -91 1784 -91 
Q 1150 -91 751 415 
Q 353 922 353 1747 
Q 353 2572 751 3078 
Q 1150 3584 1784 3584 
Q 2172 3584 2448 3432 
Q 2725 3281 2906 2969 
z
M 947 1747 
Q 947 1113 1208 752 
Q 1469 391 1925 391 
Q 2381 391 2643 752 
Q 2906 1113 2906 1747 
Q 2906 2381 2643 2742 
Q 2381 3103 1925 3103 
Q 1469 3103 1208 2742 
Q 947 2381 947 1747 
z
" transform="scale(0.015625)"/>
       <path id="DejaVuSans-67" d="M 2906 1791 
Q 2906 2416 2648 2759 
Q 2391 3103 1925 3103 
Q 1463 3103 1205 2759 
Q 947 2416 947 1791 
Q 947 1169 1205 825 
Q 1463 481 1925 481 
Q 2391 481 2648 825 
Q 2906 1169 2906 1791 
z
M 3481 434 
Q 3481 -459 3084 -895 
Q 2688 -1331 1869 -1331 
Q 1566 -1331 1297 -1286 
Q 1028 -1241 775 -1147 
L 775 -588 
Q 1028 -725 1275 -790 
Q 1522 -856 1778 -856 
Q 2344 -856 2625 -561 
Q 2906 -266 2906 331 
L 2906 616 
Q 2728 306 2450 153 
Q 2172 0 1784 0 
Q 1141 0 747 490 
Q 353 981 353 1791 
Q 353 2603 747 3093 
Q 1141 3584 1784 3584 
Q 2172 3584 2450 3431 
Q 2728 3278 2906 2969 
L 2906 3500 
L 3481 3500 
L 3481 434 
z
" transform="scale(0.015625)"/>
      </defs>
      <use xlink:href="#DejaVuSans-394" transform="translate(0 0.015625)"/>
      <use xlink:href="#DejaVuSans-Oblique-70" transform="translate(68.408203 0.015625)"/>
      <use xlink:href="#DejaVuSans-Oblique-69" transform="translate(131.884766 0.015625)"/>
      <use xlink:href="#DejaVuSans-Oblique-6c" transform="translate(159.667969 0.015625)"/>
      <use xlink:href="#DejaVuSans-Oblique-48" transform="translate(187.451172 0.015625)"/>
      <use xlink:href="#DejaVuSans-2c" transform="translate(262.646484 0.015625)"/>
      <use xlink:href="#DejaVuSans-20" transform="translate(294.433594 0.015625)"/>
      <use xlink:href="#DejaVuSans-45" transform="translate(326.220703 0.015625)"/>
      <use xlink:href="#DejaVuSans-64" transform="translate(389.404297 0.015625)"/>
      <use xlink:href="#DejaVuSans-67" transform="translate(452.880859 0.015625)"/>
      <use xlink:href="#DejaVuSans-65" transform="translate(516.357422 0.015625)"/>
     </g>
    </g>
   </g>
  </g>
 </g>
 <defs>
  <clipPath id="p782b499d8a">
   <path d="M 317.67 167.5425 
C 317.67 149.341715 314.084842 131.317909 307.119703 114.502576 
C 300.154564 97.687243 289.944899 82.407399 277.075 69.5375 
C 264.205101 56.667601 248.925257 46.457936 232.109924 39.492797 
C 215.294591 32.527658 197.270785 28.9425 179.07 28.9425 
C 160.869215 28.9425 142.845409 32.527658 126.030076 39.492797 
C 109.214743 46.457936 93.934899 56.667601 81.065 69.5375 
C 68.195101 82.407399 57.985436 97.687243 51.020297 114.502576 
C 44.055158 131.317909 40.47 149.341715 40.47 167.5425 
C 40.47 185.743285 44.055158 203.767091 51.020297 220.582424 
C 57.985436 237.397757 68.195101 252.677601 81.065 265.5475 
C 93.934899 278.417399 109.214743 288.627064 126.030076 295.592203 
C 142.845409 302.557342 160.869215 306.1425 179.07 306.1425 
C 197.270785 306.1425 215.294591 302.557342 232.109924 295.592203 
C 248.925257 288.627064 264.205101 278.417399 277.075 265.5475 
C 289.944899 252.677601 300.154564 237.397757 307.119703 220.582424 
C 314.084842 203.767091 317.67 185.743285 317.67 167.5425 
M 179.07 167.5425 
C 179.07 167.5425 179.07 167.5425 179.07 167.5425 
C 179.07 167.5425 179.07 167.5425 179.07 167.5425 
C 179.07 167.5425 179.07 167.5425 179.07 167.5425 
C 179.07 167.5425 179.07 167.5425 179.07 167.5425 
C 179.07 167.5425 179.07 167.5425 179.07 167.5425 
C 179.07 167.5425 179.07 167.5425 179.07 167.5425 
C 179.07 167.5425 179.07 167.5425 179.07 167.5425 
C 179.07 167.5425 179.07 167.5425 179.07 167.5425 
C 179.07 167.5425 179.07 167.5425 179.07 167.5425 
C 179.07 167.5425 179.07 167.5425 179.07 167.5425 
C 179.07 167.5425 179.07 167.5425 179.07 167.5425 
C 179.07 167.5425 179.07 167.5425 179.07 167.5425 
C 179.07 167.5425 179.07 167.5425 179.07 167.5425 
C 179.07 167.5425 179.07 167.5425 179.07 167.5425 
C 179.07 167.5425 179.07 167.5425 179.07 167.5425 
C 179.07 167.5425 179.07 167.5425 179.07 167.5425 
z
"/>
  </clipPath>
 </defs>
</svg>
