<?xml version="1.0" encoding="utf-8" standalone="no"?>
<!DOCTYPE svg PUBLIC "-//W3C//DTD SVG 1.1//EN"
  "http://www.w3.org/Graphics/SVG/1.1/DTD/svg11.dtd">
<svg xmlns:xlink="http://www.w3.org/1999/xlink" width="521.9425pt" height="335.085pt" viewBox="0 0 521.9425 335.085" xmlns="http://www.w3.org/2000/svg" version="1.1">
 <metadata>
  <rdf:RDF xmlns:dc="http://purl.org/dc/elements/1.1/" xmlns:cc="http://creativecommons.org/ns#" xmlns:rdf="http://www.w3.org/1999/02/22-rdf-syntax-ns#">
   <cc:Work>
    <dc:type rdf:resource="http://purl.org/dc/dcmitype/StillImage"/>
    <dc:date>2026-05-27T17:47:37.294421</dc:date>
    <dc:format>image/svg+xml</dc:format>
    <dc:creator>
     <cc:Agent>
      <dc:title>Matplotlib v3.9.4, https://matplotlib.org/</dc:title>
     </cc:Agent>
    </dc:creator>
   </cc:Work>
  </rdf:RDF>
 </metadata>
 <defs>
  <style type="text/css">*{stroke-linejoin: round; stroke-linecap: butt}</style>
 </defs>
 <g id="figure_1">
  <g id="patch_1">
   <path d="M 0 335.085 
L 521.9425 335.085 
L 521.9425 0 
L 0 0 
L 0 335.085 
z
" style="fill: none"/>
  </g>
  <g id="axes_1">
   <g id="patch_2">
    <path d="M 317.67 167.5425 
C 317.67 149.341715 314.084842 131.317909 307.119703 114.502576 
C 300.154564 97.687243 289.944899 82.407399 277.075 69.5375 
C 264.205101 56.667601 248.925257 46.457936 232.109924 39.492797 
C 215.294591 32.527658 197.270785 28.9425 179.07 28.9425 
C 160.869215 28.9425 142.845409 32.527658 126.030076 39.492797 
C 109.214743 46.457936 93.934899 56.667601 81.065 69.5375 
C 68.195101 82.407399 57.985436 97.687243 51.020297 114.502576 
C 44.055158 131.317909 40.47 149.341715 40.47 167.5425 
C 40.47 185.743285 44.055158 203.767091 51.020297 220.582424 
C 57.985436 237.397757 68.195101 252.677601 81.065 265.5475 
C 93.934899 278.417399 109.214743 288.627064 126.030076 295.592203 
C 142.845409 302.557342 160.869215 306.1425 179.07 306.1425 
C 197.270785 306.1425 215.294591 302.557342 232.109924 295.592203 
C 248.925257 288.627064 264.205101 278.417399 277.075 265.5475 
C 289.944899 252.677601 300.154564 237.397757 307.119703 220.582424 
C 314.084842 203.767091 317.67 185.743285 317.67 167.5425 
M 179.07 167.5425 
C 179.07 167.5425 179.07 167.5425 179.07 167.5425 
C 179.07 167.5425 179.07 167.5425 179.07 167.5425 
C 179.07 167.5425 179.07 167.5425 179.07 167.5425 
C 179.07 167.5425 179.07 167.5425 179.07 167.5425 
C 179.07 167.5425 179.07 167.5425 179.07 167.5425 
C 179.07 167.5425 179.07 167.5425 179.07 167.5425 
C 179.07 167.5425 179.07 167.5425 179.07 167.5425 
C 179.07 167.5425 179.07 167.5425 179.07 167.5425 
C 179.07 167.5425 179.07 167.5425 179.07 167.5425 
C 179.07 167.5425 179.07 167.5425 179.07 167.5425 
C 179.07 167.5425 179.07 167.5425 179.07 167.5425 
C 179.07 167.5425 179.07 167.5425 179.07 167.5425 
C 179.07 167.5425 179.07 167.5425 179.07 167.5425 
C 179.07 167.5425 179.07 167.5425 179.07 167.5425 
C 179.07 167.5425 179.07 167.5425 179.07 167.5425 
C 179.07 167.5425 179.07 167.5425 179.07 167.5425 
L 179.07 167.5425 
z
" style="fill: none"/>
   </g>
   <g id="patch_3">
    <path d="M 179.07 167.5425 
C 179.07 167.5425 179.07 167.5425 179.07 167.5425 
C 179.07 167.5425 179.07 167.5425 179.07 167.5425 
L 220.361376 160.261716 
C 220.573199 161.463024 220.732496 162.673004 220.838812 163.888202 
C 220.945128 165.103401 220.998362 166.32266 220.998362 167.5425 
z
" clip-path="url(#pd7f23267a8)" style="fill: #808080; opacity: 0.5"/>
   </g>
   <g id="patch_4">
    <path d="M 179.07 167.5425 
C 179.07 167.5425 179.07 167.5425 179.07 167.5425 
C 179.07 167.5425 179.07 167.5425 179.07 167.5425 
L 218.190342 153.30386 
C 218.604593 154.442005 218.968977 155.597686 219.282456 156.767605 
C 219.595935 157.937523 219.858209 159.120565 220.06853 160.313353 
z
" clip-path="url(#pd7f23267a8)" style="fill: #808080; opacity: 0.5"/>
   </g>
   <g id="patch_5">
    <path d="M 179.07 167.5425 
C 179.07 167.5425 179.07 167.5425 179.07 167.5425 
C 179.07 167.5425 179.07 167.5425 179.07 167.5425 
L 218.986377 144.496769 
C 219.656857 145.658074 220.276337 146.848085 220.843051 148.063406 
C 221.409765 149.278728 221.923172 150.518202 222.381807 151.778292 
z
" clip-path="url(#pd7f23267a8)" style="fill: #808080; opacity: 0.5"/>
   </g>
   <g id="patch_6">
    <path d="M 179.07 167.5425 
C 179.07 167.5425 179.07 167.5425 179.07 167.5425 
C 179.07 167.5425 179.07 167.5425 179.07 167.5425 
L 215.289285 137.150911 
C 216.173481 138.204654 217.01127 139.296483 217.800262 140.423279 
C 218.589253 141.550075 219.328695 142.710767 220.016477 143.90204 
z
" clip-path="url(#pd7f23267a8)" style="fill: #808080; opacity: 0.5"/>
   </g>
   <g id="patch_7">
    <path d="M 179.07 167.5425 
C 179.07 167.5425 179.07 167.5425 179.07 167.5425 
C 179.07 167.5425 179.07 167.5425 179.07 167.5425 
L 206.976742 134.28454 
C 207.94433 135.096443 208.876026 135.950185 209.769171 136.843329 
C 210.662315 137.736474 211.516057 138.66817 212.32796 139.635758 
z
" clip-path="url(#pd7f23267a8)" style="fill: #808080; opacity: 0.5"/>
   </g>
   <g id="patch_8">
    <path d="M 179.07 167.5425 
C 179.07 167.5425 179.07 167.5425 179.07 167.5425 
C 179.07 167.5425 179.07 167.5425 179.07 167.5425 
L 195.722399 138.699699 
C 196.561535 139.184174 197.379129 139.705039 198.172848 140.260806 
C 198.966566 140.816574 199.735652 141.406715 200.477912 142.029544 
z
" clip-path="url(#pd7f23267a8)" style="fill: #808080; opacity: 0.5"/>
   </g>
   <g id="patch_9">
    <path d="M 179.07 167.5425 
C 179.07 167.5425 179.07 167.5425 179.07 167.5425 
C 179.07 167.5425 179.07 167.5425 179.07 167.5425 
L 188.528525 141.555416 
C 189.284579 141.830597 190.028263 142.138641 190.757456 142.478669 
C 191.486649 142.818698 192.200656 143.190386 192.897439 143.592674 
z
" clip-path="url(#pd7f23267a8)" style="fill: #808080; opacity: 0.5"/>
   </g>
   <g id="patch_10">
    <path d="M 179.07 167.5425 
C 179.07 167.5425 179.07 167.5425 179.07 167.5425 
C 179.07 167.5425 179.07 167.5425 179.07 167.5425 
L 185.059865 133.57229 
C 186.048175 133.746556 187.028409 133.963868 187.99777 134.223608 
C 188.967131 134.483347 189.924696 134.785266 190.86773 135.128503 
z
" clip-path="url(#pd7f23267a8)" style="fill: #808080; opacity: 0.5"/>
   </g>
   <g id="patch_11">
    <path d="M 179.07 167.5425 
C 179.07 167.5425 179.07 167.5425 179.07 167.5425 
C 179.07 167.5425 179.07 167.5425 179.07 167.5425 
L 179.07 137.211344 
C 179.952438 137.211344 180.834455 137.249854 181.713534 137.326764 
C 182.592614 137.403673 183.467919 137.518909 184.33695 137.672143 
z
" clip-path="url(#pd7f23267a8)" style="fill: #808080; opacity: 0.5"/>
   </g>
   <g id="patch_12">
    <path d="M 179.07 167.5425 
C 179.07 167.5425 179.07 167.5425 179.07 167.5425 
C 179.07 167.5425 179.07 167.5425 179.07 167.5425 
L 171.995763 127.42251 
C 173.162992 127.216697 174.338646 127.061919 175.51937 126.958619 
C 176.700095 126.855319 177.884765 126.803595 179.07 126.803595 
z
" clip-path="url(#pd7f23267a8)" style="fill: #808080; opacity: 0.5"/>
   </g>
   <g id="patch_13">
    <path d="M 179.07 167.5425 
C 179.07 167.5425 179.07 167.5425 179.07 167.5425 
C 179.07 167.5425 179.07 167.5425 179.07 167.5425 
L 167.577384 135.966796 
C 168.496029 135.632436 169.428829 135.338325 170.37312 135.085303 
C 171.317412 134.832281 172.272295 134.620589 173.235046 134.45083 
z
" clip-path="url(#pd7f23267a8)" style="fill: #808080; opacity: 0.5"/>
   </g>
   <g id="patch_14">
    <path d="M 179.07 167.5425 
C 179.07 167.5425 179.07 167.5425 179.07 167.5425 
C 179.07 167.5425 179.07 167.5425 179.07 167.5425 
L 162.714965 139.214749 
C 163.539117 138.738924 164.383641 138.299293 165.246127 137.897109 
C 166.108613 137.494925 166.98824 137.130572 167.882497 136.805089 
z
" clip-path="url(#pd7f23267a8)" style="fill: #808080; opacity: 0.5"/>
   </g>
   <g id="patch_15">
    <path d="M 179.07 167.5425 
C 179.07 167.5425 179.07 167.5425 179.07 167.5425 
C 179.07 167.5425 179.07 167.5425 179.07 167.5425 
L 157.279804 141.573956 
C 158.035318 140.940004 158.818138 140.339325 159.62603 139.773633 
C 160.433922 139.207941 161.266116 138.677775 162.120237 138.184649 
z
" clip-path="url(#pd7f23267a8)" style="fill: #808080; opacity: 0.5"/>
   </g>
   <g id="patch_16">
    <path d="M 179.07 167.5425 
C 179.07 167.5425 179.07 167.5425 179.07 167.5425 
C 179.07 167.5425 179.07 167.5425 179.07 167.5425 
L 146.723217 140.400326 
C 147.512876 139.459247 148.343228 138.553077 149.211902 137.684402 
C 150.080577 136.815728 150.986747 135.985376 151.927826 135.195717 
z
" clip-path="url(#pd7f23267a8)" style="fill: #808080; opacity: 0.5"/>
   </g>
   <g id="patch_17">
    <path d="M 179.07 167.5425 
C 179.07 167.5425 179.07 167.5425 179.07 167.5425 
C 179.07 167.5425 179.07 167.5425 179.07 167.5425 
L 149.712149 150.592737 
C 150.205275 149.738616 150.735441 148.906422 151.301133 148.09853 
C 151.866825 147.290638 152.467504 146.507818 153.101456 145.752304 
z
" clip-path="url(#pd7f23267a8)" style="fill: #808080; opacity: 0.5"/>
   </g>
   <g id="patch_18">
    <path d="M 179.07 167.5425 
C 179.07 167.5425 179.07 167.5425 179.07 167.5425 
C 179.07 167.5425 179.07 167.5425 179.07 167.5425 
L 142.185107 154.117497 
C 142.575686 153.044388 143.01291 151.988836 143.495531 150.953853 
C 143.978152 149.918869 144.505709 148.90544 145.076698 147.916458 
z
" clip-path="url(#pd7f23267a8)" style="fill: #808080; opacity: 0.5"/>
   </g>
   <g id="patch_19">
    <path d="M 179.07 167.5425 
C 179.07 167.5425 179.07 167.5425 179.07 167.5425 
C 179.07 167.5425 179.07 167.5425 179.07 167.5425 
L 141.58563 160.932994 
C 141.777923 159.842445 142.017717 158.760807 142.304326 157.691167 
C 142.590935 156.621528 142.924087 155.564905 143.302831 154.524315 
z
" clip-path="url(#pd7f23267a8)" style="fill: #808080; opacity: 0.5"/>
   </g>
   <g id="patch_20">
    <path d="M 179.07 167.5425 
C 179.07 167.5425 179.07 167.5425 179.07 167.5425 
C 179.07 167.5425 179.07 167.5425 179.07 167.5425 
L 142.19683 167.5425 
C 142.19683 166.469733 142.243646 165.397476 142.337144 164.328792 
C 142.430642 163.260107 142.570733 162.196011 142.757017 161.139541 
z
" clip-path="url(#pd7f23267a8)" style="fill: #808080; opacity: 0.5"/>
   </g>
   <g id="patch_21">
    <path d="M 179.07 167.5425 
C 179.07 167.5425 179.07 167.5425 179.07 167.5425 
C 179.07 167.5425 179.07 167.5425 179.07 167.5425 
L 140.414244 174.358553 
C 140.215941 173.233924 140.066812 172.101177 139.967282 170.963545 
C 139.867752 169.825912 139.817916 168.684478 139.817916 167.5425 
z
" clip-path="url(#pd7f23267a8)" style="fill: #808080; opacity: 0.5"/>
   </g>
   <g id="patch_22">
    <path d="M 179.07 167.5425 
C 179.07 167.5425 179.07 167.5425 179.07 167.5425 
C 179.07 167.5425 179.07 167.5425 179.07 167.5425 
L 146.097141 179.543639 
C 145.747986 178.584346 145.440862 177.610271 145.176644 176.624197 
C 144.912426 175.638123 144.691367 174.640988 144.514097 173.635638 
z
" clip-path="url(#pd7f23267a8)" style="fill: #808080; opacity: 0.5"/>
   </g>
   <g id="patch_23">
    <path d="M 179.07 167.5425 
C 179.07 167.5425 179.07 167.5425 179.07 167.5425 
C 179.07 167.5425 179.07 167.5425 179.07 167.5425 
L 149.712149 184.492263 
C 149.219022 183.638143 148.763404 182.762909 148.346595 181.869059 
C 147.929786 180.97521 147.552183 180.063596 147.214865 179.136821 
z
" clip-path="url(#pd7f23267a8)" style="fill: #808080; opacity: 0.5"/>
   </g>
   <g id="patch_24">
    <path d="M 179.07 167.5425 
C 179.07 167.5425 179.07 167.5425 179.07 167.5425 
C 179.07 167.5425 179.07 167.5425 179.07 167.5425 
L 151.506896 190.67069 
C 150.834018 189.868785 150.196455 189.037897 149.596027 188.180398 
C 148.9956 187.322899 148.43288 186.439605 147.909473 185.533038 
z
" clip-path="url(#pd7f23267a8)" style="fill: #808080; opacity: 0.5"/>
   </g>
   <g id="patch_25">
    <path d="M 179.07 167.5425 
C 179.07 167.5425 179.07 167.5425 179.07 167.5425 
C 179.07 167.5425 179.07 167.5425 179.07 167.5425 
L 163.778634 185.76604 
C 163.248449 185.321161 162.737931 184.853358 162.248537 184.363963 
C 161.759142 183.874569 161.291339 183.364051 160.84646 182.833866 
z
" clip-path="url(#pd7f23267a8)" style="fill: #808080; opacity: 0.5"/>
   </g>
   <g id="patch_26">
    <path d="M 179.07 167.5425 
C 179.07 167.5425 179.07 167.5425 179.07 167.5425 
C 179.07 167.5425 179.07 167.5425 179.07 167.5425 
L 165.688608 190.719751 
C 165.014302 190.330441 164.357307 189.911888 163.719497 189.46529 
C 163.081688 189.018691 162.463672 188.54447 161.867214 188.043982 
z
" clip-path="url(#pd7f23267a8)" style="fill: #808080; opacity: 0.5"/>
   </g>
   <g id="patch_27">
    <path d="M 179.07 167.5425 
C 179.07 167.5425 179.07 167.5425 179.07 167.5425 
C 179.07 167.5425 179.07 167.5425 179.07 167.5425 
L 167.780793 198.559342 
C 166.878406 198.2309 165.990783 197.863235 165.120456 197.457395 
C 164.250129 197.051554 163.397927 196.607926 162.566283 196.127776 
z
" clip-path="url(#pd7f23267a8)" style="fill: #808080; opacity: 0.5"/>
   </g>
   <g id="patch_28">
    <path d="M 179.07 167.5425 
C 179.07 167.5425 179.07 167.5425 179.07 167.5425 
C 179.07 167.5425 179.07 167.5425 179.07 167.5425 
L 174.577602 193.020158 
C 173.836369 192.889458 173.101193 192.726474 172.374172 192.531669 
C 171.647152 192.336865 170.928978 192.110425 170.221702 191.852998 
z
" clip-path="url(#pd7f23267a8)" style="fill: #808080; opacity: 0.5"/>
   </g>
   <g id="patch_29">
    <path d="M 179.07 167.5425 
C 179.07 167.5425 179.07 167.5425 179.07 167.5425 
C 179.07 167.5425 179.07 167.5425 179.07 167.5425 
L 179.07 194.305284 
C 178.291379 194.305284 177.513128 194.271305 176.73747 194.203444 
C 175.961811 194.135583 175.189484 194.033904 174.422691 193.898698 
z
" clip-path="url(#pd7f23267a8)" style="fill: #808080; opacity: 0.5"/>
   </g>
   <g id="patch_30">
    <path d="M 179.07 167.5425 
C 179.07 167.5425 179.07 167.5425 179.07 167.5425 
C 179.07 167.5425 179.07 167.5425 179.07 167.5425 
L 184.543497 198.584244 
C 183.640386 198.743487 182.730756 198.863242 181.817202 198.943167 
C 180.903649 199.023093 179.987043 199.063113 179.07 199.063113 
z
" clip-path="url(#pd7f23267a8)" style="fill: #808080; opacity: 0.5"/>
   </g>
   <g id="patch_31">
    <path d="M 179.07 167.5425 
C 179.07 167.5425 179.07 167.5425 179.07 167.5425 
C 179.07 167.5425 179.07 167.5425 179.07 167.5425 
L 192.18989 203.5891 
C 191.14117 203.970803 190.076293 204.306558 188.998296 204.595406 
C 187.9203 204.884254 186.830212 205.125921 185.731143 205.319717 
z
" clip-path="url(#pd7f23267a8)" style="fill: #808080; opacity: 0.5"/>
   </g>
   <g id="patch_32">
    <path d="M 179.07 167.5425 
C 179.07 167.5425 179.07 167.5425 179.07 167.5425 
C 179.07 167.5425 179.07 167.5425 179.07 167.5425 
L 195.127671 195.355201 
C 194.318504 195.822374 193.489334 196.254012 192.64253 196.648884 
C 191.795725 197.043755 190.932091 197.401484 190.054094 197.721049 
z
" clip-path="url(#pd7f23267a8)" style="fill: #808080; opacity: 0.5"/>
   </g>
   <g id="patch_33">
    <path d="M 179.07 167.5425 
C 179.07 167.5425 179.07 167.5425 179.07 167.5425 
C 179.07 167.5425 179.07 167.5425 179.07 167.5425 
L 207.167884 201.028254 
C 206.193669 201.845718 205.184243 202.620278 204.142487 203.349723 
C 203.100732 204.079168 202.02764 204.762803 200.926274 205.398677 
z
" clip-path="url(#pd7f23267a8)" style="fill: #808080; opacity: 0.5"/>
   </g>
   <g id="patch_34">
    <path d="M 179.07 167.5425 
C 179.07 167.5425 179.07 167.5425 179.07 167.5425 
C 179.07 167.5425 179.07 167.5425 179.07 167.5425 
L 210.961195 194.30239 
C 210.182658 195.230214 209.364001 196.123621 208.507561 196.980061 
C 207.651121 197.836501 206.757714 198.655158 205.82989 199.433695 
z
" clip-path="url(#pd7f23267a8)" style="fill: #808080; opacity: 0.5"/>
   </g>
   <g id="patch_35">
    <path d="M 179.07 167.5425 
C 179.07 167.5425 179.07 167.5425 179.07 167.5425 
C 179.07 167.5425 179.07 167.5425 179.07 167.5425 
L 217.441227 189.696138 
C 216.796702 190.812489 216.103765 191.900181 215.364396 192.95611 
C 214.625027 194.012038 213.839929 195.035198 213.011343 196.022668 
z
" clip-path="url(#pd7f23267a8)" style="fill: #808080; opacity: 0.5"/>
   </g>
   <g id="patch_36">
    <path d="M 179.07 167.5425 
C 179.07 167.5425 179.07 167.5425 179.07 167.5425 
C 179.07 167.5425 179.07 167.5425 179.07 167.5425 
L 221.543514 183.001595 
C 221.093756 184.237295 220.590285 185.45278 220.03454 186.644579 
C 219.478795 187.836378 218.871304 189.003357 218.213802 190.142185 
z
" clip-path="url(#pd7f23267a8)" style="fill: #808080; opacity: 0.5"/>
   </g>
   <g id="patch_37">
    <path d="M 179.07 167.5425 
C 179.07 167.5425 179.07 167.5425 179.07 167.5425 
C 179.07 167.5425 179.07 167.5425 179.07 167.5425 
L 222.118456 175.133104 
C 221.897619 176.385532 221.622232 177.627725 221.293079 178.85614 
C 220.963926 180.084554 220.581322 181.29802 220.146359 182.493072 
z
" clip-path="url(#pd7f23267a8)" style="fill: #808080; opacity: 0.5"/>
   </g>
   <g id="patch_38">
    <path d="M 179.07 167.5425 
C 179.07 167.5425 179.07 167.5425 179.07 167.5425 
C 179.07 167.5425 179.07 167.5425 179.07 167.5425 
L 220.700998 167.5425 
C 220.700998 168.753689 220.648142 169.964301 220.542579 171.170881 
C 220.437017 172.37746 220.27885 173.578859 220.06853 174.771647 
z
" clip-path="url(#pd7f23267a8)" style="fill: #808080; opacity: 0.5"/>
   </g>
   <g id="patch_39">
    <path d="M 179.07 167.5425 
C 179.07 167.5425 179.07 167.5425 179.07 167.5425 
C 179.07 167.5425 179.07 167.5425 179.07 167.5425 
L 295.595301 146.995946 
C 296.193071 150.386067 296.642611 153.800661 296.942637 157.229981 
C 297.242664 160.6593 297.392892 164.100081 297.392892 167.5425 
z
" clip-path="url(#pd7f23267a8)" style="fill: #ff00ff; opacity: 0.5"/>
   </g>
   <g id="patch_40">
    <path d="M 179.07 167.5425 
C 179.07 167.5425 179.07 167.5425 179.07 167.5425 
C 179.07 167.5425 179.07 167.5425 179.07 167.5425 
L 284.279344 129.24943 
C 285.393421 132.310332 286.37339 135.418394 287.216452 138.564746 
C 288.059514 141.711097 288.764868 144.892742 289.3305 148.100599 
z
" clip-path="url(#pd7f23267a8)" style="fill: #ff00ff; opacity: 0.5"/>
   </g>
   <g id="patch_41">
    <path d="M 179.07 167.5425 
C 179.07 167.5425 179.07 167.5425 179.07 167.5425 
C 179.07 167.5425 179.07 167.5425 179.07 167.5425 
L 246.281919 128.737681 
C 247.410884 130.693106 248.453977 132.696869 249.40822 134.743249 
C 250.362463 136.78963 251.226947 138.876679 251.999205 140.99844 
z
" clip-path="url(#pd7f23267a8)" style="fill: #ff00ff; opacity: 0.5"/>
   </g>
   <g id="patch_42">
    <path d="M 179.07 167.5425 
C 179.07 167.5425 179.07 167.5425 179.07 167.5425 
C 179.07 167.5425 179.07 167.5425 179.07 167.5425 
L 214.156681 138.101279 
C 215.013228 139.122071 215.824819 140.179757 216.589137 141.271317 
C 217.353456 142.362878 218.069776 143.487274 218.73605 144.641295 
z
" clip-path="url(#pd7f23267a8)" style="fill: #ff00ff; opacity: 0.5"/>
   </g>
   <g id="patch_43">
    <path d="M 179.07 167.5425 
C 179.07 167.5425 179.07 167.5425 179.07 167.5425 
C 179.07 167.5425 179.07 167.5425 179.07 167.5425 
L 195.83514 147.562584 
C 196.416424 148.05034 196.976146 148.56323 197.512708 149.099792 
C 198.04927 149.636354 198.56216 150.196076 199.049916 150.77736 
z
" clip-path="url(#pd7f23267a8)" style="fill: #ff00ff; opacity: 0.5"/>
   </g>
   <g id="patch_44">
    <path d="M 179.07 167.5425 
C 179.07 167.5425 179.07 167.5425 179.07 167.5425 
C 179.07 167.5425 179.07 167.5425 179.07 167.5425 
L 186.06759 155.422318 
C 186.420208 155.625902 186.763773 155.844777 187.097306 156.078319 
C 187.430838 156.311861 187.75402 156.559847 188.065929 156.82157 
z
" clip-path="url(#pd7f23267a8)" style="fill: #ff00ff; opacity: 0.5"/>
   </g>
   <g id="patch_45">
    <path d="M 179.07 167.5425 
C 179.07 167.5425 179.07 167.5425 179.07 167.5425 
C 179.07 167.5425 179.07 167.5425 179.07 167.5425 
L 185.814802 149.011309 
C 186.353938 149.207538 186.884254 149.427202 187.404236 149.669674 
C 187.924218 149.912145 188.433371 150.177193 188.930241 150.464062 
z
" clip-path="url(#pd7f23267a8)" style="fill: #ff00ff; opacity: 0.5"/>
   </g>
   <g id="patch_46">
    <path d="M 179.07 167.5425 
C 179.07 167.5425 179.07 167.5425 179.07 167.5425 
C 179.07 167.5425 179.07 167.5425 179.07 167.5425 
L 181.610703 153.133457 
C 182.029912 153.207375 182.445695 153.299552 182.856866 153.409725 
C 183.268037 153.519898 183.674204 153.647962 184.074208 153.793552 
z
" clip-path="url(#pd7f23267a8)" style="fill: #ff00ff; opacity: 0.5"/>
   </g>
   <g id="patch_47">
    <path d="M 179.07 167.5425 
C 179.07 167.5425 179.07 167.5425 179.07 167.5425 
C 179.07 167.5425 179.07 167.5425 179.07 167.5425 
L 179.07 160.54491 
C 179.273584 160.54491 179.477071 160.553794 179.67988 160.571538 
C 179.882689 160.589281 180.084628 160.615867 180.285119 160.651219 
z
" clip-path="url(#pd7f23267a8)" style="fill: #ff00ff; opacity: 0.5"/>
   </g>
   <g id="patch_48">
    <path d="M 179.07 167.5425 
C 179.07 167.5425 179.07 167.5425 179.07 167.5425 
C 179.07 167.5425 179.07 167.5425 179.07 167.5425 
L 178.075812 161.904179 
C 178.23985 161.875255 178.405072 161.853503 178.571007 161.838985 
C 178.736942 161.824468 178.903431 161.817199 179.07 161.817199 
z
" clip-path="url(#pd7f23267a8)" style="fill: #ff00ff; opacity: 0.5"/>
   </g>
   <g id="patch_49">
    <path d="M 179.07 167.5425 
C 179.07 167.5425 179.07 167.5425 179.07 167.5425 
C 179.07 167.5425 179.07 167.5425 179.07 167.5425 
L 176.676683 160.966916 
C 176.867989 160.897286 177.062243 160.836038 177.25889 160.783347 
C 177.455537 160.730655 177.65439 160.686571 177.854881 160.651219 
z
" clip-path="url(#pd7f23267a8)" style="fill: #ff00ff; opacity: 0.5"/>
   </g>
   <g id="patch_50">
    <path d="M 179.07 167.5425 
C 179.07 167.5425 179.07 167.5425 179.07 167.5425 
C 179.07 167.5425 179.07 167.5425 179.07 167.5425 
L 174.616988 159.829657 
C 174.841381 159.700103 175.071321 159.580404 175.306152 159.470901 
C 175.540982 159.361398 175.78048 159.262195 176.02396 159.173575 
z
" clip-path="url(#pd7f23267a8)" style="fill: #ff00ff; opacity: 0.5"/>
   </g>
   <g id="patch_51">
    <path d="M 179.07 167.5425 
C 179.07 167.5425 179.07 167.5425 179.07 167.5425 
C 179.07 167.5425 179.07 167.5425 179.07 167.5425 
L 170.074071 156.82157 
C 170.38598 156.559847 170.709162 156.311861 171.042694 156.078319 
C 171.376227 155.844777 171.719792 155.625902 172.07241 155.422318 
z
" clip-path="url(#pd7f23267a8)" style="fill: #ff00ff; opacity: 0.5"/>
   </g>
   <g id="patch_52">
    <path d="M 179.07 167.5425 
C 179.07 167.5425 179.07 167.5425 179.07 167.5425 
C 179.07 167.5425 179.07 167.5425 179.07 167.5425 
L 163.963234 154.866419 
C 164.332025 154.426911 164.71982 154.003707 165.125514 153.598014 
C 165.531207 153.19232 165.954411 152.804525 166.393919 152.435734 
z
" clip-path="url(#pd7f23267a8)" style="fill: #ff00ff; opacity: 0.5"/>
   </g>
   <g id="patch_53">
    <path d="M 179.07 167.5425 
C 179.07 167.5425 179.07 167.5425 179.07 167.5425 
C 179.07 167.5425 179.07 167.5425 179.07 167.5425 
L 161.440644 157.364187 
C 161.736766 156.851288 162.05513 156.351557 162.394828 155.866419 
C 162.734525 155.381281 163.095232 154.911198 163.475919 154.457513 
z
" clip-path="url(#pd7f23267a8)" style="fill: #ff00ff; opacity: 0.5"/>
   </g>
   <g id="patch_54">
    <path d="M 179.07 167.5425 
C 179.07 167.5425 179.07 167.5425 179.07 167.5425 
C 179.07 167.5425 179.07 167.5425 179.07 167.5425 
L 145.5943 155.358341 
C 145.948779 154.384418 146.345591 153.426428 146.783604 152.487106 
C 147.221617 151.547784 147.700414 150.628024 148.218628 149.730452 
z
" clip-path="url(#pd7f23267a8)" style="fill: #ff00ff; opacity: 0.5"/>
   </g>
   <g id="patch_55">
    <path d="M 179.07 167.5425 
C 179.07 167.5425 179.07 167.5425 179.07 167.5425 
C 179.07 167.5425 179.07 167.5425 179.07 167.5425 
L 139.601753 160.583183 
C 139.804223 159.434916 140.056708 158.296032 140.358486 157.169781 
C 140.660264 156.04353 141.011048 154.930985 141.409837 153.835322 
z
" clip-path="url(#pd7f23267a8)" style="fill: #ff00ff; opacity: 0.5"/>
   </g>
   <g id="patch_56">
    <path d="M 179.07 167.5425 
C 179.07 167.5425 179.07 167.5425 179.07 167.5425 
C 179.07 167.5425 179.07 167.5425 179.07 167.5425 
L 129.450723 167.5425 
C 129.450723 166.098905 129.513722 164.655997 129.639539 163.217895 
C 129.765357 161.779793 129.953874 160.347867 130.204551 158.926203 
z
" clip-path="url(#pd7f23267a8)" style="fill: #ff00ff; opacity: 0.5"/>
   </g>
   <g id="patch_57">
    <path d="M 179.07 167.5425 
C 179.07 167.5425 179.07 167.5425 179.07 167.5425 
C 179.07 167.5425 179.07 167.5425 179.07 167.5425 
L 125.19271 177.04252 
C 124.916322 175.475044 124.70847 173.896254 124.569748 172.310654 
C 124.431026 170.725055 124.361566 169.134156 124.361566 167.5425 
z
" clip-path="url(#pd7f23267a8)" style="fill: #ff00ff; opacity: 0.5"/>
   </g>
   <g id="patch_58">
    <path d="M 179.07 167.5425 
C 179.07 167.5425 179.07 167.5425 179.07 167.5425 
C 179.07 167.5425 179.07 167.5425 179.07 167.5425 
L 131.247571 184.948441 
C 130.741172 183.557122 130.295732 182.144366 129.912522 180.714207 
C 129.529312 179.284047 129.208696 177.837844 128.951591 176.379728 
z
" clip-path="url(#pd7f23267a8)" style="fill: #ff00ff; opacity: 0.5"/>
   </g>
   <g id="patch_59">
    <path d="M 179.07 167.5425 
C 179.07 167.5425 179.07 167.5425 179.07 167.5425 
C 179.07 167.5425 179.07 167.5425 179.07 167.5425 
L 146.565875 186.308765 
C 146.0199 185.363108 145.515454 184.394076 145.053976 183.404433 
C 144.592498 182.41479 144.174427 181.405479 143.800958 180.379381 
z
" clip-path="url(#pd7f23267a8)" style="fill: #ff00ff; opacity: 0.5"/>
   </g>
   <g id="patch_60">
    <path d="M 179.07 167.5425 
C 179.07 167.5425 179.07 167.5425 179.07 167.5425 
C 179.07 167.5425 179.07 167.5425 179.07 167.5425 
L 167.861755 176.947335 
C 167.588136 176.621248 167.328877 176.283376 167.08472 175.934683 
C 166.840563 175.58599 166.611738 175.226808 166.398901 174.858163 
z
" clip-path="url(#pd7f23267a8)" style="fill: #ff00ff; opacity: 0.5"/>
   </g>
   <g id="patch_61">
    <path d="M 179.07 167.5425 
C 179.07 167.5425 179.07 167.5425 179.07 167.5425 
C 179.07 167.5425 179.07 167.5425 179.07 167.5425 
L 170.891883 177.2888 
C 170.60833 177.050871 170.335295 176.80068 170.073557 176.538943 
C 169.81182 176.277205 169.561629 176.00417 169.3237 175.720617 
z
" clip-path="url(#pd7f23267a8)" style="fill: #ff00ff; opacity: 0.5"/>
   </g>
   <g id="patch_62">
    <path d="M 179.07 167.5425 
C 179.07 167.5425 179.07 167.5425 179.07 167.5425 
C 179.07 167.5425 179.07 167.5425 179.07 167.5425 
L 174.298916 175.80626 
C 174.058494 175.667453 173.824245 175.51822 173.596837 175.358987 
C 173.369428 175.199754 173.149077 175.030672 172.936412 174.852225 
z
" clip-path="url(#pd7f23267a8)" style="fill: #ff00ff; opacity: 0.5"/>
   </g>
   <g id="patch_63">
    <path d="M 179.07 167.5425 
C 179.07 167.5425 179.07 167.5425 179.07 167.5425 
C 179.07 167.5425 179.07 167.5425 179.07 167.5425 
L 177.329406 172.324743 
C 177.190274 172.274103 177.053418 172.217416 176.919229 172.154842 
C 176.785041 172.092269 176.653646 172.023869 176.525422 171.949839 
z
" clip-path="url(#pd7f23267a8)" style="fill: #ff00ff; opacity: 0.5"/>
   </g>
   <g id="patch_64">
    <path d="M 179.07 167.5425 
C 179.07 167.5425 179.07 167.5425 179.07 167.5425 
C 179.07 167.5425 179.07 167.5425 179.07 167.5425 
L 177.41302 176.939702 
C 177.139623 176.891494 176.86846 176.831379 176.600305 176.759527 
C 176.33215 176.687675 176.067258 176.604155 175.806386 176.509205 
z
" clip-path="url(#pd7f23267a8)" style="fill: #ff00ff; opacity: 0.5"/>
   </g>
   <g id="patch_65">
    <path d="M 179.07 167.5425 
C 179.07 167.5425 179.07 167.5425 179.07 167.5425 
C 179.07 167.5425 179.07 167.5425 179.07 167.5425 
L 179.07 174.54009 
C 178.866416 174.54009 178.662929 174.531206 178.46012 174.513462 
C 178.257311 174.495719 178.055372 174.469133 177.854881 174.433781 
z
" clip-path="url(#pd7f23267a8)" style="fill: #ff00ff; opacity: 0.5"/>
   </g>
   <g id="patch_66">
    <path d="M 179.07 167.5425 
C 179.07 167.5425 179.07 167.5425 179.07 167.5425 
C 179.07 167.5425 179.07 167.5425 179.07 167.5425 
L 179.843257 171.927861 
C 179.715672 171.950358 179.587166 171.967276 179.458106 171.978567 
C 179.329045 171.989858 179.199553 171.995512 179.07 171.995512 
z
" clip-path="url(#pd7f23267a8)" style="fill: #ff00ff; opacity: 0.5"/>
   </g>
   <g id="patch_67">
    <path d="M 179.07 167.5425 
C 179.07 167.5425 179.07 167.5425 179.07 167.5425 
C 179.07 167.5425 179.07 167.5425 179.07 167.5425 
L 181.898465 175.313645 
C 181.672376 175.395935 181.442803 175.468319 181.210402 175.53059 
C 180.978001 175.592862 180.742993 175.644962 180.50605 175.686741 
z
" clip-path="url(#pd7f23267a8)" style="fill: #ff00ff; opacity: 0.5"/>
   </g>
   <g id="patch_68">
    <path d="M 179.07 167.5425 
C 179.07 167.5425 179.07 167.5425 179.07 167.5425 
C 179.07 167.5425 179.07 167.5425 179.07 167.5425 
L 187.657952 182.417269 
C 187.225194 182.667122 186.781738 182.89797 186.328851 183.109155 
C 185.875963 183.32034 185.414075 183.51166 184.944505 183.68257 
z
" clip-path="url(#pd7f23267a8)" style="fill: #ff00ff; opacity: 0.5"/>
   </g>
   <g id="patch_69">
    <path d="M 179.07 167.5425 
C 179.07 167.5425 179.07 167.5425 179.07 167.5425 
C 179.07 167.5425 179.07 167.5425 179.07 167.5425 
L 196.652952 188.497046 
C 196.043312 189.008594 195.411638 189.493294 194.759734 189.949763 
C 194.10783 190.406231 193.436316 190.834033 192.747108 191.231947 
z
" clip-path="url(#pd7f23267a8)" style="fill: #ff00ff; opacity: 0.5"/>
   </g>
   <g id="patch_70">
    <path d="M 179.07 167.5425 
C 179.07 167.5425 179.07 167.5425 179.07 167.5425 
C 179.07 167.5425 179.07 167.5425 179.07 167.5425 
L 210.745476 194.12138 
C 209.972205 195.042929 209.159086 195.930293 208.308439 196.780939 
C 207.457793 197.631586 206.570429 198.444705 205.64888 199.217976 
z
" clip-path="url(#pd7f23267a8)" style="fill: #ff00ff; opacity: 0.5"/>
   </g>
   <g id="patch_71">
    <path d="M 179.07 167.5425 
C 179.07 167.5425 179.07 167.5425 179.07 167.5425 
C 179.07 167.5425 179.07 167.5425 179.07 167.5425 
L 238.569075 201.894307 
C 237.569663 203.62534 236.495185 205.311933 235.348706 206.949274 
C 234.202228 208.586615 232.984841 210.173144 231.700022 211.704332 
z
" clip-path="url(#pd7f23267a8)" style="fill: #ff00ff; opacity: 0.5"/>
   </g>
   <g id="patch_72">
    <path d="M 179.07 167.5425 
C 179.07 167.5425 179.07 167.5425 179.07 167.5425 
C 179.07 167.5425 179.07 167.5425 179.07 167.5425 
L 260.96591 197.350174 
C 260.098703 199.732807 259.127929 202.076461 258.056362 204.374445 
C 256.984794 206.67243 255.813452 208.922557 254.545679 211.118404 
z
" clip-path="url(#pd7f23267a8)" style="fill: #ff00ff; opacity: 0.5"/>
   </g>
   <g id="patch_73">
    <path d="M 179.07 167.5425 
C 179.07 167.5425 179.07 167.5425 179.07 167.5425 
C 179.07 167.5425 179.07 167.5425 179.07 167.5425 
L 289.3305 186.984401 
C 288.764868 190.192258 288.059514 193.373903 287.216452 196.520254 
C 286.37339 199.666606 285.393421 202.774668 284.279344 205.83557 
z
" clip-path="url(#pd7f23267a8)" style="fill: #ff00ff; opacity: 0.5"/>
   </g>
   <g id="patch_74">
    <path d="M 179.07 167.5425 
C 179.07 167.5425 179.07 167.5425 179.07 167.5425 
C 179.07 167.5425 179.07 167.5425 179.07 167.5425 
L 294.848313 167.5425 
C 294.848313 170.910889 294.701316 174.277674 294.407742 177.633245 
C 294.114167 180.988816 293.674295 184.329978 293.089381 187.647193 
z
" clip-path="url(#pd7f23267a8)" style="fill: #ff00ff; opacity: 0.5"/>
   </g>
   <g id="matplotlib.axis_1">
    <g id="xtick_1">
     <g id="line2d_1">
      <path d="M 179.07 167.5425 
L 317.67 167.5425 
" clip-path="url(#pd7f23267a8)" style="fill: none; stroke: #b0b0b0; stroke-width: 0.8; stroke-linecap: square"/>
     </g>
     <g id="text_1">
      <!-- 0° -->
      <g transform="translate(322.58 171.9575) scale(0.16 -0.16)">
       <defs>
        <path id="DejaVuSans-30" d="M 2034 4250 
Q 1547 4250 1301 3770 
Q 1056 3291 1056 2328 
Q 1056 1369 1301 889 
Q 1547 409 2034 409 
Q 2525 409 2770 889 
Q 3016 1369 3016 2328 
Q 3016 3291 2770 3770 
Q 2525 4250 2034 4250 
z
M 2034 4750 
Q 2819 4750 3233 4129 
Q 3647 3509 3647 2328 
Q 3647 1150 3233 529 
Q 2819 -91 2034 -91 
Q 1250 -91 836 529 
Q 422 1150 422 2328 
Q 422 3509 836 4129 
Q 1250 4750 2034 4750 
z
" transform="scale(0.015625)"/>
        <path id="DejaVuSans-b0" d="M 1600 4347 
Q 1350 4347 1178 4173 
Q 1006 4000 1006 3750 
Q 1006 3503 1178 3333 
Q 1350 3163 1600 3163 
Q 1850 3163 2022 3333 
Q 2194 3503 2194 3750 
Q 2194 3997 2020 4172 
Q 1847 4347 1600 4347 
z
M 1600 4750 
Q 1800 4750 1984 4673 
Q 2169 4597 2303 4453 
Q 2447 4313 2519 4134 
Q 2591 3956 2591 3750 
Q 2591 3338 2302 3052 
Q 2013 2766 1594 2766 
Q 1172 2766 890 3047 
Q 609 3328 609 3750 
Q 609 4169 896 4459 
Q 1184 4750 1600 4750 
z
" transform="scale(0.015625)"/>
       </defs>
       <use xlink:href="#DejaVuSans-30"/>
       <use xlink:href="#DejaVuSans-b0" x="63.623047"/>
      </g>
     </g>
    </g>
    <g id="xtick_2">
     <g id="line2d_2">
      <path d="M 179.07 167.5425 
L 277.075 69.5375 
" clip-path="url(#pd7f23267a8)" style="fill: none; stroke: #b0b0b0; stroke-width: 0.8; stroke-linecap: square"/>
     </g>
     <g id="text_2">
      <!-- 45° -->
      <g transform="translate(272.794495 64.053005) scale(0.16 -0.16)">
       <defs>
        <path id="DejaVuSans-34" d="M 2419 4116 
L 825 1625 
L 2419 1625 
L 2419 4116 
z
M 2253 4666 
L 3047 4666 
L 3047 1625 
L 3713 1625 
L 3713 1100 
L 3047 1100 
L 3047 0 
L 2419 0 
L 2419 1100 
L 313 1100 
L 313 1709 
L 2253 4666 
z
" transform="scale(0.015625)"/>
        <path id="DejaVuSans-35" d="M 691 4666 
L 3169 4666 
L 3169 4134 
L 1269 4134 
L 1269 2991 
Q 1406 3038 1543 3061 
Q 1681 3084 1819 3084 
Q 2600 3084 3056 2656 
Q 3513 2228 3513 1497 
Q 3513 744 3044 326 
Q 2575 -91 1722 -91 
Q 1428 -91 1123 -41 
Q 819 9 494 109 
L 494 744 
Q 775 591 1075 516 
Q 1375 441 1709 441 
Q 2250 441 2565 725 
Q 2881 1009 2881 1497 
Q 2881 1984 2565 2268 
Q 2250 2553 1709 2553 
Q 1456 2553 1204 2497 
Q 953 2441 691 2322 
L 691 4666 
z
" transform="scale(0.015625)"/>
       </defs>
       <use xlink:href="#DejaVuSans-34"/>
       <use xlink:href="#DejaVuSans-35" x="63.623047"/>
       <use xlink:href="#DejaVuSans-b0" x="127.246094"/>
      </g>
     </g>
    </g>
    <g id="xtick_3">
     <g id="line2d_3">
      <path d="M 179.07 167.5425 
L 179.07 28.9425 
" clip-path="url(#pd7f23267a8)" style="fill: none; stroke: #b0b0b0; stroke-width: 0.8; stroke-linecap: square"/>
     </g>
     <g id="text_3">
      <!-- 90° -->
      <g transform="translate(164.89 19.3575) scale(0.16 -0.16)">
       <defs>
        <path id="DejaVuSans-39" d="M 703 97 
L 703 672 
Q 941 559 1184 500 
Q 1428 441 1663 441 
Q 2288 441 2617 861 
Q 2947 1281 2994 2138 
Q 2813 1869 2534 1725 
Q 2256 1581 1919 1581 
Q 1219 1581 811 2004 
Q 403 2428 403 3163 
Q 403 3881 828 4315 
Q 1253 4750 1959 4750 
Q 2769 4750 3195 4129 
Q 3622 3509 3622 2328 
Q 3622 1225 3098 567 
Q 2575 -91 1691 -91 
Q 1453 -91 1209 -44 
Q 966 3 703 97 
z
M 1959 2075 
Q 2384 2075 2632 2365 
Q 2881 2656 2881 3163 
Q 2881 3666 2632 3958 
Q 2384 4250 1959 4250 
Q 1534 4250 1286 3958 
Q 1038 3666 1038 3163 
Q 1038 2656 1286 2365 
Q 1534 2075 1959 2075 
z
" transform="scale(0.015625)"/>
       </defs>
       <use xlink:href="#DejaVuSans-39"/>
       <use xlink:href="#DejaVuSans-30" x="63.623047"/>
       <use xlink:href="#DejaVuSans-b0" x="127.246094"/>
      </g>
     </g>
    </g>
    <g id="xtick_4">
     <g id="line2d_4">
      <path d="M 179.07 167.5425 
L 81.065 69.5375 
" clip-path="url(#pd7f23267a8)" style="fill: none; stroke: #b0b0b0; stroke-width: 0.8; stroke-linecap: square"/>
     </g>
     <g id="text_4">
      <!-- 135° -->
      <g transform="translate(51.895505 64.053005) scale(0.16 -0.16)">
       <defs>
        <path id="DejaVuSans-31" d="M 794 531 
L 1825 531 
L 1825 4091 
L 703 3866 
L 703 4441 
L 1819 4666 
L 2450 4666 
L 2450 531 
L 3481 531 
L 3481 0 
L 794 0 
L 794 531 
z
" transform="scale(0.015625)"/>
        <path id="DejaVuSans-33" d="M 2597 2516 
Q 3050 2419 3304 2112 
Q 3559 1806 3559 1356 
Q 3559 666 3084 287 
Q 2609 -91 1734 -91 
Q 1441 -91 1130 -33 
Q 819 25 488 141 
L 488 750 
Q 750 597 1062 519 
Q 1375 441 1716 441 
Q 2309 441 2620 675 
Q 2931 909 2931 1356 
Q 2931 1769 2642 2001 
Q 2353 2234 1838 2234 
L 1294 2234 
L 1294 2753 
L 1863 2753 
Q 2328 2753 2575 2939 
Q 2822 3125 2822 3475 
Q 2822 3834 2567 4026 
Q 2313 4219 1838 4219 
Q 1578 4219 1281 4162 
Q 984 4106 628 3988 
L 628 4550 
Q 988 4650 1302 4700 
Q 1616 4750 1894 4750 
Q 2613 4750 3031 4423 
Q 3450 4097 3450 3541 
Q 3450 3153 3228 2886 
Q 3006 2619 2597 2516 
z
" transform="scale(0.015625)"/>
       </defs>
       <use xlink:href="#DejaVuSans-31"/>
       <use xlink:href="#DejaVuSans-33" x="63.623047"/>
       <use xlink:href="#DejaVuSans-35" x="127.246094"/>
       <use xlink:href="#DejaVuSans-b0" x="190.869141"/>
      </g>
     </g>
    </g>
    <g id="xtick_5">
     <g id="line2d_5">
      <path d="M 179.07 167.5425 
L 40.47 167.5425 
" clip-path="url(#pd7f23267a8)" style="fill: none; stroke: #b0b0b0; stroke-width: 0.8; stroke-linecap: square"/>
     </g>
     <g id="text_5">
      <!-- 180° -->
      <g transform="translate(7.2 171.9575) scale(0.16 -0.16)">
       <defs>
        <path id="DejaVuSans-38" d="M 2034 2216 
Q 1584 2216 1326 1975 
Q 1069 1734 1069 1313 
Q 1069 891 1326 650 
Q 1584 409 2034 409 
Q 2484 409 2743 651 
Q 3003 894 3003 1313 
Q 3003 1734 2745 1975 
Q 2488 2216 2034 2216 
z
M 1403 2484 
Q 997 2584 770 2862 
Q 544 3141 544 3541 
Q 544 4100 942 4425 
Q 1341 4750 2034 4750 
Q 2731 4750 3128 4425 
Q 3525 4100 3525 3541 
Q 3525 3141 3298 2862 
Q 3072 2584 2669 2484 
Q 3125 2378 3379 2068 
Q 3634 1759 3634 1313 
Q 3634 634 3220 271 
Q 2806 -91 2034 -91 
Q 1263 -91 848 271 
Q 434 634 434 1313 
Q 434 1759 690 2068 
Q 947 2378 1403 2484 
z
M 1172 3481 
Q 1172 3119 1398 2916 
Q 1625 2713 2034 2713 
Q 2441 2713 2670 2916 
Q 2900 3119 2900 3481 
Q 2900 3844 2670 4047 
Q 2441 4250 2034 4250 
Q 1625 4250 1398 4047 
Q 1172 3844 1172 3481 
z
" transform="scale(0.015625)"/>
       </defs>
       <use xlink:href="#DejaVuSans-31"/>
       <use xlink:href="#DejaVuSans-38" x="63.623047"/>
       <use xlink:href="#DejaVuSans-30" x="127.246094"/>
       <use xlink:href="#DejaVuSans-b0" x="190.869141"/>
      </g>
     </g>
    </g>
    <g id="xtick_6">
     <g id="line2d_6">
      <path d="M 179.07 167.5425 
L 81.065 265.5475 
" clip-path="url(#pd7f23267a8)" style="fill: none; stroke: #b0b0b0; stroke-width: 0.8; stroke-linecap: square"/>
     </g>
     <g id="text_6">
      <!-- 225° -->
      <g transform="translate(51.895505 279.861995) scale(0.16 -0.16)">
       <defs>
        <path id="DejaVuSans-32" d="M 1228 531 
L 3431 531 
L 3431 0 
L 469 0 
L 469 531 
Q 828 903 1448 1529 
Q 2069 2156 2228 2338 
Q 2531 2678 2651 2914 
Q 2772 3150 2772 3378 
Q 2772 3750 2511 3984 
Q 2250 4219 1831 4219 
Q 1534 4219 1204 4116 
Q 875 4013 500 3803 
L 500 4441 
Q 881 4594 1212 4672 
Q 1544 4750 1819 4750 
Q 2544 4750 2975 4387 
Q 3406 4025 3406 3419 
Q 3406 3131 3298 2873 
Q 3191 2616 2906 2266 
Q 2828 2175 2409 1742 
Q 1991 1309 1228 531 
z
" transform="scale(0.015625)"/>
       </defs>
       <use xlink:href="#DejaVuSans-32"/>
       <use xlink:href="#DejaVuSans-32" x="63.623047"/>
       <use xlink:href="#DejaVuSans-35" x="127.246094"/>
       <use xlink:href="#DejaVuSans-b0" x="190.869141"/>
      </g>
     </g>
    </g>
    <g id="xtick_7">
     <g id="line2d_7">
      <path d="M 179.07 167.5425 
L 179.07 306.1425 
" clip-path="url(#pd7f23267a8)" style="fill: none; stroke: #b0b0b0; stroke-width: 0.8; stroke-linecap: square"/>
     </g>
     <g id="text_7">
      <!-- 270° -->
      <g transform="translate(159.8 324.5575) scale(0.16 -0.16)">
       <defs>
        <path id="DejaVuSans-37" d="M 525 4666 
L 3525 4666 
L 3525 4397 
L 1831 0 
L 1172 0 
L 2766 4134 
L 525 4134 
L 525 4666 
z
" transform="scale(0.015625)"/>
       </defs>
       <use xlink:href="#DejaVuSans-32"/>
       <use xlink:href="#DejaVuSans-37" x="63.623047"/>
       <use xlink:href="#DejaVuSans-30" x="127.246094"/>
       <use xlink:href="#DejaVuSans-b0" x="190.869141"/>
      </g>
     </g>
    </g>
    <g id="xtick_8">
     <g id="line2d_8">
      <path d="M 179.07 167.5425 
L 277.075 265.5475 
" clip-path="url(#pd7f23267a8)" style="fill: none; stroke: #b0b0b0; stroke-width: 0.8; stroke-linecap: square"/>
     </g>
     <g id="text_8">
      <!-- 315° -->
      <g transform="translate(267.704495 279.861995) scale(0.16 -0.16)">
       <use xlink:href="#DejaVuSans-33"/>
       <use xlink:href="#DejaVuSans-31" x="63.623047"/>
       <use xlink:href="#DejaVuSans-35" x="127.246094"/>
       <use xlink:href="#DejaVuSans-b0" x="190.869141"/>
      </g>
     </g>
    </g>
   </g>
   <g id="matplotlib.axis_2">
    <g id="ytick_1">
     <g id="line2d_9">
      <path d="M 245.07 167.5425 
C 245.07 158.875459 243.362782 150.292695 240.046049 142.285393 
C 236.729316 134.278092 231.867571 127.001976 225.739048 120.873452 
C 219.610524 114.744929 212.334408 109.883184 204.327107 106.566451 
C 196.319805 103.249718 187.737041 101.5425 179.07 101.5425 
C 170.402959 101.5425 161.820195 103.249718 153.812893 106.566451 
C 145.805592 109.883184 138.529476 114.744929 132.400952 120.873452 
C 126.272429 127.001976 121.410684 134.278092 118.093951 142.285393 
C 114.777218 150.292695 113.07 158.875459 113.07 167.5425 
C 113.07 176.209541 114.777218 184.792305 118.093951 192.799607 
C 121.410684 200.806908 126.272429 208.083024 132.400952 214.211548 
C 138.529476 220.340071 145.805592 225.201816 153.812893 228.518549 
C 161.820195 231.835282 170.402959 233.5425 179.07 233.5425 
C 187.737041 233.5425 196.319805 231.835282 204.327107 228.518549 
C 212.334408 225.201816 219.610524 220.340071 225.739048 214.211548 
C 231.867571 208.083024 236.729316 200.806908 240.046049 192.799607 
C 243.362782 184.792305 245.07 176.209541 245.07 167.5425 
" clip-path="url(#pd7f23267a8)" style="fill: none; stroke: #000000; stroke-width: 1.5; stroke-linecap: square"/>
     </g>
     <g id="text_9">
      <!-- 0.005 -->
      <g transform="translate(240.046049 138.957893) scale(0.16 -0.16)">
       <defs>
        <path id="DejaVuSans-2e" d="M 684 794 
L 1344 794 
L 1344 0 
L 684 0 
L 684 794 
z
" transform="scale(0.015625)"/>
       </defs>
       <use xlink:href="#DejaVuSans-30"/>
       <use xlink:href="#DejaVuSans-2e" x="63.623047"/>
       <use xlink:href="#DejaVuSans-30" x="95.410156"/>
       <use xlink:href="#DejaVuSans-30" x="159.033203"/>
       <use xlink:href="#DejaVuSans-35" x="222.65625"/>
      </g>
     </g>
    </g>
    <g id="ytick_2">
     <g id="line2d_10">
      <path d="M 311.07 167.5425 
C 311.07 150.208419 307.655564 133.04289 301.022098 117.028287 
C 294.388633 101.013684 284.665141 86.461451 272.408095 74.204405 
C 260.151049 61.947359 245.598816 52.223867 229.584213 45.590402 
C 213.56961 38.956936 196.404081 35.5425 179.07 35.5425 
C 161.735919 35.5425 144.57039 38.956936 128.555787 45.590402 
C 112.541184 52.223867 97.988951 61.947359 85.731905 74.204405 
C 73.474859 86.461451 63.751367 101.013684 57.117902 117.028287 
C 50.484436 133.04289 47.07 150.208419 47.07 167.5425 
C 47.07 184.876581 50.484436 202.04211 57.117902 218.056713 
C 63.751367 234.071316 73.474859 248.623549 85.731905 260.880595 
C 97.988951 273.137641 112.541184 282.861133 128.555787 289.494598 
C 144.57039 296.128064 161.735919 299.5425 179.07 299.5425 
C 196.404081 299.5425 213.56961 296.128064 229.584213 289.494598 
C 245.598816 282.861133 260.151049 273.137641 272.408095 260.880595 
C 284.665141 248.623549 294.388633 234.071316 301.022098 218.056713 
C 307.655564 202.04211 311.07 184.876581 311.07 167.5425 
" clip-path="url(#pd7f23267a8)" style="fill: none; stroke: #000000; stroke-width: 1.5; stroke-linecap: square"/>
     </g>
     <g id="text_10">
      <!-- 0.01 -->
      <g transform="translate(301.022098 113.700787) scale(0.16 -0.16)">
       <use xlink:href="#DejaVuSans-30"/>
       <use xlink:href="#DejaVuSans-2e" x="63.623047"/>
       <use xlink:href="#DejaVuSans-30" x="95.410156"/>
       <use xlink:href="#DejaVuSans-31" x="159.033203"/>
      </g>
     </g>
    </g>
   </g>
   <g id="legend_1">
    <g id="patch_75">
     <path d="M 387.51 160.215 
L 419.51 160.215 
L 419.51 149.015 
L 387.51 149.015 
z
" style="fill: #808080; opacity: 0.5"/>
    </g>
    <g id="text_11">
     <!-- WT, Core -->
     <g transform="translate(432.31 160.215) scale(0.16 -0.16)">
      <defs>
       <path id="DejaVuSans-57" d="M 213 4666 
L 850 4666 
L 1831 722 
L 2809 4666 
L 3519 4666 
L 4500 722 
L 5478 4666 
L 6119 4666 
L 4947 0 
L 4153 0 
L 3169 4050 
L 2175 0 
L 1381 0 
L 213 4666 
z
" transform="scale(0.015625)"/>
       <path id="DejaVuSans-54" d="M -19 4666 
L 3928 4666 
L 3928 4134 
L 2272 4134 
L 2272 0 
L 1638 0 
L 1638 4134 
L -19 4134 
L -19 4666 
z
" transform="scale(0.015625)"/>
       <path id="DejaVuSans-2c" d="M 750 794 
L 1409 794 
L 1409 256 
L 897 -744 
L 494 -744 
L 750 256 
L 750 794 
z
" transform="scale(0.015625)"/>
       <path id="DejaVuSans-20" transform="scale(0.015625)"/>
       <path id="DejaVuSans-43" d="M 4122 4306 
L 4122 3641 
Q 3803 3938 3442 4084 
Q 3081 4231 2675 4231 
Q 1875 4231 1450 3742 
Q 1025 3253 1025 2328 
Q 1025 1406 1450 917 
Q 1875 428 2675 428 
Q 3081 428 3442 575 
Q 3803 722 4122 1019 
L 4122 359 
Q 3791 134 3420 21 
Q 3050 -91 2638 -91 
Q 1578 -91 968 557 
Q 359 1206 359 2328 
Q 359 3453 968 4101 
Q 1578 4750 2638 4750 
Q 3056 4750 3426 4639 
Q 3797 4528 4122 4306 
z
" transform="scale(0.015625)"/>
       <path id="DejaVuSans-6f" d="M 1959 3097 
Q 1497 3097 1228 2736 
Q 959 2375 959 1747 
Q 959 1119 1226 758 
Q 1494 397 1959 397 
Q 2419 397 2687 759 
Q 2956 1122 2956 1747 
Q 2956 2369 2687 2733 
Q 2419 3097 1959 3097 
z
M 1959 3584 
Q 2709 3584 3137 3096 
Q 3566 2609 3566 1747 
Q 3566 888 3137 398 
Q 2709 -91 1959 -91 
Q 1206 -91 779 398 
Q 353 888 353 1747 
Q 353 2609 779 3096 
Q 1206 3584 1959 3584 
z
" transform="scale(0.015625)"/>
       <path id="DejaVuSans-72" d="M 2631 2963 
Q 2534 3019 2420 3045 
Q 2306 3072 2169 3072 
Q 1681 3072 1420 2755 
Q 1159 2438 1159 1844 
L 1159 0 
L 581 0 
L 581 3500 
L 1159 3500 
L 1159 2956 
Q 1341 3275 1631 3429 
Q 1922 3584 2338 3584 
Q 2397 3584 2469 3576 
Q 2541 3569 2628 3553 
L 2631 2963 
z
" transform="scale(0.015625)"/>
       <path id="DejaVuSans-65" d="M 3597 1894 
L 3597 1613 
L 953 1613 
Q 991 1019 1311 708 
Q 1631 397 2203 397 
Q 2534 397 2845 478 
Q 3156 559 3463 722 
L 3463 178 
Q 3153 47 2828 -22 
Q 2503 -91 2169 -91 
Q 1331 -91 842 396 
Q 353 884 353 1716 
Q 353 2575 817 3079 
Q 1281 3584 2069 3584 
Q 2775 3584 3186 3129 
Q 3597 2675 3597 1894 
z
M 3022 2063 
Q 3016 2534 2758 2815 
Q 2500 3097 2075 3097 
Q 1594 3097 1305 2825 
Q 1016 2553 972 2059 
L 3022 2063 
z
" transform="scale(0.015625)"/>
      </defs>
      <use xlink:href="#DejaVuSans-57"/>
      <use xlink:href="#DejaVuSans-54" x="98.876953"/>
      <use xlink:href="#DejaVuSans-2c" x="159.960938"/>
      <use xlink:href="#DejaVuSans-20" x="191.748047"/>
      <use xlink:href="#DejaVuSans-43" x="223.535156"/>
      <use xlink:href="#DejaVuSans-6f" x="293.359375"/>
      <use xlink:href="#DejaVuSans-72" x="354.541016"/>
      <use xlink:href="#DejaVuSans-65" x="393.404297"/>
     </g>
    </g>
    <g id="patch_76">
     <path d="M 387.51 183.7 
L 419.51 183.7 
L 419.51 172.5 
L 387.51 172.5 
z
" style="fill: #ff00ff; opacity: 0.5"/>
    </g>
    <g id="text_12">
     <!-- WT, Edge -->
     <g transform="translate(432.31 183.7) scale(0.16 -0.16)">
      <defs>
       <path id="DejaVuSans-45" d="M 628 4666 
L 3578 4666 
L 3578 4134 
L 1259 4134 
L 1259 2753 
L 3481 2753 
L 3481 2222 
L 1259 2222 
L 1259 531 
L 3634 531 
L 3634 0 
L 628 0 
L 628 4666 
z
" transform="scale(0.015625)"/>
       <path id="DejaVuSans-64" d="M 2906 2969 
L 2906 4863 
L 3481 4863 
L 3481 0 
L 2906 0 
L 2906 525 
Q 2725 213 2448 61 
Q 2172 -91 1784 -91 
Q 1150 -91 751 415 
Q 353 922 353 1747 
Q 353 2572 751 3078 
Q 1150 3584 1784 3584 
Q 2172 3584 2448 3432 
Q 2725 3281 2906 2969 
z
M 947 1747 
Q 947 1113 1208 752 
Q 1469 391 1925 391 
Q 2381 391 2643 752 
Q 2906 1113 2906 1747 
Q 2906 2381 2643 2742 
Q 2381 3103 1925 3103 
Q 1469 3103 1208 2742 
Q 947 2381 947 1747 
z
" transform="scale(0.015625)"/>
       <path id="DejaVuSans-67" d="M 2906 1791 
Q 2906 2416 2648 2759 
Q 2391 3103 1925 3103 
Q 1463 3103 1205 2759 
Q 947 2416 947 1791 
Q 947 1169 1205 825 
Q 1463 481 1925 481 
Q 2391 481 2648 825 
Q 2906 1169 2906 1791 
z
M 3481 434 
Q 3481 -459 3084 -895 
Q 2688 -1331 1869 -1331 
Q 1566 -1331 1297 -1286 
Q 1028 -1241 775 -1147 
L 775 -588 
Q 1028 -725 1275 -790 
Q 1522 -856 1778 -856 
Q 2344 -856 2625 -561 
Q 2906 -266 2906 331 
L 2906 616 
Q 2728 306 2450 153 
Q 2172 0 1784 0 
Q 1141 0 747 490 
Q 353 981 353 1791 
Q 353 2603 747 3093 
Q 1141 3584 1784 3584 
Q 2172 3584 2450 3431 
Q 2728 3278 2906 2969 
L 2906 3500 
L 3481 3500 
L 3481 434 
z
" transform="scale(0.015625)"/>
      </defs>
      <use xlink:href="#DejaVuSans-57"/>
      <use xlink:href="#DejaVuSans-54" x="98.876953"/>
      <use xlink:href="#DejaVuSans-2c" x="159.960938"/>
      <use xlink:href="#DejaVuSans-20" x="191.748047"/>
      <use xlink:href="#DejaVuSans-45" x="223.535156"/>
      <use xlink:href="#DejaVuSans-64" x="286.71875"/>
      <use xlink:href="#DejaVuSans-67" x="350.195312"/>
      <use xlink:href="#DejaVuSans-65" x="413.671875"/>
     </g>
    </g>
   </g>
  </g>
 </g>
 <defs>
  <clipPath id="pd7f23267a8">
   <path d="M 317.67 167.5425 
C 317.67 149.341715 314.084842 131.317909 307.119703 114.502576 
C 300.154564 97.687243 289.944899 82.407399 277.075 69.5375 
C 264.205101 56.667601 248.925257 46.457936 232.109924 39.492797 
C 215.294591 32.527658 197.270785 28.9425 179.07 28.9425 
C 160.869215 28.9425 142.845409 32.527658 126.030076 39.492797 
C 109.214743 46.457936 93.934899 56.667601 81.065 69.5375 
C 68.195101 82.407399 57.985436 97.687243 51.020297 114.502576 
C 44.055158 131.317909 40.47 149.341715 40.47 167.5425 
C 40.47 185.743285 44.055158 203.767091 51.020297 220.582424 
C 57.985436 237.397757 68.195101 252.677601 81.065 265.5475 
C 93.934899 278.417399 109.214743 288.627064 126.030076 295.592203 
C 142.845409 302.557342 160.869215 306.1425 179.07 306.1425 
C 197.270785 306.1425 215.294591 302.557342 232.109924 295.592203 
C 248.925257 288.627064 264.205101 278.417399 277.075 265.5475 
C 289.944899 252.677601 300.154564 237.397757 307.119703 220.582424 
C 314.084842 203.767091 317.67 185.743285 317.67 167.5425 
M 179.07 167.5425 
C 179.07 167.5425 179.07 167.5425 179.07 167.5425 
C 179.07 167.5425 179.07 167.5425 179.07 167.5425 
C 179.07 167.5425 179.07 167.5425 179.07 167.5425 
C 179.07 167.5425 179.07 167.5425 179.07 167.5425 
C 179.07 167.5425 179.07 167.5425 179.07 167.5425 
C 179.07 167.5425 179.07 167.5425 179.07 167.5425 
C 179.07 167.5425 179.07 167.5425 179.07 167.5425 
C 179.07 167.5425 179.07 167.5425 179.07 167.5425 
C 179.07 167.5425 179.07 167.5425 179.07 167.5425 
C 179.07 167.5425 179.07 167.5425 179.07 167.5425 
C 179.07 167.5425 179.07 167.5425 179.07 167.5425 
C 179.07 167.5425 179.07 167.5425 179.07 167.5425 
C 179.07 167.5425 179.07 167.5425 179.07 167.5425 
C 179.07 167.5425 179.07 167.5425 179.07 167.5425 
C 179.07 167.5425 179.07 167.5425 179.07 167.5425 
C 179.07 167.5425 179.07 167.5425 179.07 167.5425 
z
"/>
  </clipPath>
 </defs>
</svg>
