<?xml version="1.0" encoding="utf-8" standalone="no"?>
<!DOCTYPE svg PUBLIC "-//W3C//DTD SVG 1.1//EN"
  "http://www.w3.org/Graphics/SVG/1.1/DTD/svg11.dtd">
<svg xmlns:xlink="http://www.w3.org/1999/xlink" width="267.60375pt" height="174.433563pt" viewBox="0 0 267.60375 174.433563" xmlns="http://www.w3.org/2000/svg" version="1.1">
 <metadata>
  <rdf:RDF xmlns:dc="http://purl.org/dc/elements/1.1/" xmlns:cc="http://creativecommons.org/ns#" xmlns:rdf="http://www.w3.org/1999/02/22-rdf-syntax-ns#">
   <cc:Work>
    <dc:type rdf:resource="http://purl.org/dc/dcmitype/StillImage"/>
    <dc:date>2026-05-26T16:05:03.978802</dc:date>
    <dc:format>image/svg+xml</dc:format>
    <dc:creator>
     <cc:Agent>
      <dc:title>Matplotlib v3.9.4, https://matplotlib.org/</dc:title>
     </cc:Agent>
    </dc:creator>
   </cc:Work>
  </rdf:RDF>
 </metadata>
 <defs>
  <style type="text/css">*{stroke-linejoin: round; stroke-linecap: butt}</style>
 </defs>
 <g id="figure_1">
  <g id="patch_1">
   <path d="M 0 174.433563 
L 267.60375 174.433563 
L 267.60375 0 
L 0 0 
L 0 174.433563 
z
" style="fill: none"/>
  </g>
  <g id="axes_1">
   <g id="patch_2">
    <path d="M 53.94375 126.792 
L 260.40375 126.792 
L 260.40375 7.2 
L 53.94375 7.2 
L 53.94375 126.792 
z
" style="fill: none"/>
   </g>
   <g id="matplotlib.axis_1">
    <g id="xtick_1">
     <g id="line2d_1">
      <defs>
       <path id="m412c1dc3ee" d="M 0 0 
L 0 7 
" style="stroke: #000000; stroke-width: 1.25"/>
      </defs>
      <g>
       <use xlink:href="#m412c1dc3ee" x="251.378176" y="126.792" style="stroke: #000000; stroke-width: 1.25"/>
      </g>
     </g>
     <g id="text_1">
      <!-- 0 -->
      <g transform="translate(247.48552 147.312938) scale(0.14 -0.14)">
       <defs>
        <path id="ArialMT-30" d="M 266 2259 
Q 266 3072 433 3567 
Q 600 4063 929 4331 
Q 1259 4600 1759 4600 
Q 2128 4600 2406 4451 
Q 2684 4303 2865 4023 
Q 3047 3744 3150 3342 
Q 3253 2941 3253 2259 
Q 3253 1453 3087 958 
Q 2922 463 2592 192 
Q 2263 -78 1759 -78 
Q 1097 -78 719 397 
Q 266 969 266 2259 
z
M 844 2259 
Q 844 1131 1108 757 
Q 1372 384 1759 384 
Q 2147 384 2411 759 
Q 2675 1134 2675 2259 
Q 2675 3391 2411 3762 
Q 2147 4134 1753 4134 
Q 1366 4134 1134 3806 
Q 844 3388 844 2259 
z
" transform="scale(0.015625)"/>
       </defs>
       <use xlink:href="#ArialMT-30"/>
      </g>
     </g>
    </g>
    <g id="xtick_2">
     <g id="line2d_2">
      <g>
       <use xlink:href="#m412c1dc3ee" x="194.96834" y="126.792" style="stroke: #000000; stroke-width: 1.25"/>
      </g>
     </g>
     <g id="text_2">
      <!-- 100 -->
      <g transform="translate(183.290371 147.312938) scale(0.14 -0.14)">
       <defs>
        <path id="ArialMT-31" d="M 2384 0 
L 1822 0 
L 1822 3584 
Q 1619 3391 1289 3197 
Q 959 3003 697 2906 
L 697 3450 
Q 1169 3672 1522 3987 
Q 1875 4303 2022 4600 
L 2384 4600 
L 2384 0 
z
" transform="scale(0.015625)"/>
       </defs>
       <use xlink:href="#ArialMT-31"/>
       <use xlink:href="#ArialMT-30" x="55.615234"/>
       <use xlink:href="#ArialMT-30" x="111.230469"/>
      </g>
     </g>
    </g>
    <g id="xtick_3">
     <g id="line2d_3">
      <g>
       <use xlink:href="#m412c1dc3ee" x="138.558504" y="126.792" style="stroke: #000000; stroke-width: 1.25"/>
      </g>
     </g>
     <g id="text_3">
      <!-- 200 -->
      <g transform="translate(126.880535 147.312938) scale(0.14 -0.14)">
       <defs>
        <path id="ArialMT-32" d="M 3222 541 
L 3222 0 
L 194 0 
Q 188 203 259 391 
Q 375 700 629 1000 
Q 884 1300 1366 1694 
Q 2113 2306 2375 2664 
Q 2638 3022 2638 3341 
Q 2638 3675 2398 3904 
Q 2159 4134 1775 4134 
Q 1369 4134 1125 3890 
Q 881 3647 878 3216 
L 300 3275 
Q 359 3922 746 4261 
Q 1134 4600 1788 4600 
Q 2447 4600 2831 4234 
Q 3216 3869 3216 3328 
Q 3216 3053 3103 2787 
Q 2991 2522 2730 2228 
Q 2469 1934 1863 1422 
Q 1356 997 1212 845 
Q 1069 694 975 541 
L 3222 541 
z
" transform="scale(0.015625)"/>
       </defs>
       <use xlink:href="#ArialMT-32"/>
       <use xlink:href="#ArialMT-30" x="55.615234"/>
       <use xlink:href="#ArialMT-30" x="111.230469"/>
      </g>
     </g>
    </g>
    <g id="xtick_4">
     <g id="line2d_4">
      <g>
       <use xlink:href="#m412c1dc3ee" x="82.148668" y="126.792" style="stroke: #000000; stroke-width: 1.25"/>
      </g>
     </g>
     <g id="text_4">
      <!-- 300 -->
      <g transform="translate(70.470699 147.312938) scale(0.14 -0.14)">
       <defs>
        <path id="ArialMT-33" d="M 269 1209 
L 831 1284 
Q 928 806 1161 595 
Q 1394 384 1728 384 
Q 2125 384 2398 659 
Q 2672 934 2672 1341 
Q 2672 1728 2419 1979 
Q 2166 2231 1775 2231 
Q 1616 2231 1378 2169 
L 1441 2663 
Q 1497 2656 1531 2656 
Q 1891 2656 2178 2843 
Q 2466 3031 2466 3422 
Q 2466 3731 2256 3934 
Q 2047 4138 1716 4138 
Q 1388 4138 1169 3931 
Q 950 3725 888 3313 
L 325 3413 
Q 428 3978 793 4289 
Q 1159 4600 1703 4600 
Q 2078 4600 2393 4439 
Q 2709 4278 2876 4000 
Q 3044 3722 3044 3409 
Q 3044 3113 2884 2869 
Q 2725 2625 2413 2481 
Q 2819 2388 3044 2092 
Q 3269 1797 3269 1353 
Q 3269 753 2831 336 
Q 2394 -81 1725 -81 
Q 1122 -81 723 278 
Q 325 638 269 1209 
z
" transform="scale(0.015625)"/>
       </defs>
       <use xlink:href="#ArialMT-33"/>
       <use xlink:href="#ArialMT-30" x="55.615234"/>
       <use xlink:href="#ArialMT-30" x="111.230469"/>
      </g>
     </g>
    </g>
    <g id="text_5">
     <!-- Distance from the edge (µm) -->
     <g transform="translate(62.907813 164.287) scale(0.14 -0.14)">
      <defs>
       <path id="Arial-BoldMT-44" d="M 463 4581 
L 2153 4581 
Q 2725 4581 3025 4494 
Q 3428 4375 3715 4072 
Q 4003 3769 4153 3330 
Q 4303 2891 4303 2247 
Q 4303 1681 4163 1272 
Q 3991 772 3672 463 
Q 3431 228 3022 97 
Q 2716 0 2203 0 
L 463 0 
L 463 4581 
z
M 1388 3806 
L 1388 772 
L 2078 772 
Q 2466 772 2638 816 
Q 2863 872 3011 1006 
Q 3159 1141 3253 1448 
Q 3347 1756 3347 2288 
Q 3347 2819 3253 3103 
Q 3159 3388 2990 3547 
Q 2822 3706 2563 3763 
Q 2369 3806 1803 3806 
L 1388 3806 
z
" transform="scale(0.015625)"/>
       <path id="Arial-BoldMT-69" d="M 459 3769 
L 459 4581 
L 1338 4581 
L 1338 3769 
L 459 3769 
z
M 459 0 
L 459 3319 
L 1338 3319 
L 1338 0 
L 459 0 
z
" transform="scale(0.015625)"/>
       <path id="Arial-BoldMT-73" d="M 150 947 
L 1031 1081 
Q 1088 825 1259 692 
Q 1431 559 1741 559 
Q 2081 559 2253 684 
Q 2369 772 2369 919 
Q 2369 1019 2306 1084 
Q 2241 1147 2013 1200 
Q 950 1434 666 1628 
Q 272 1897 272 2375 
Q 272 2806 612 3100 
Q 953 3394 1669 3394 
Q 2350 3394 2681 3172 
Q 3013 2950 3138 2516 
L 2309 2363 
Q 2256 2556 2107 2659 
Q 1959 2763 1684 2763 
Q 1338 2763 1188 2666 
Q 1088 2597 1088 2488 
Q 1088 2394 1175 2328 
Q 1294 2241 1995 2081 
Q 2697 1922 2975 1691 
Q 3250 1456 3250 1038 
Q 3250 581 2869 253 
Q 2488 -75 1741 -75 
Q 1063 -75 667 200 
Q 272 475 150 947 
z
" transform="scale(0.015625)"/>
       <path id="Arial-BoldMT-74" d="M 1981 3319 
L 1981 2619 
L 1381 2619 
L 1381 1281 
Q 1381 875 1398 808 
Q 1416 741 1477 697 
Q 1538 653 1625 653 
Q 1747 653 1978 738 
L 2053 56 
Q 1747 -75 1359 -75 
Q 1122 -75 931 4 
Q 741 84 652 211 
Q 563 338 528 553 
Q 500 706 500 1172 
L 500 2619 
L 97 2619 
L 97 3319 
L 500 3319 
L 500 3978 
L 1381 4491 
L 1381 3319 
L 1981 3319 
z
" transform="scale(0.015625)"/>
       <path id="Arial-BoldMT-61" d="M 1116 2306 
L 319 2450 
Q 453 2931 781 3162 
Q 1109 3394 1756 3394 
Q 2344 3394 2631 3255 
Q 2919 3116 3036 2902 
Q 3153 2688 3153 2116 
L 3144 1091 
Q 3144 653 3186 445 
Q 3228 238 3344 0 
L 2475 0 
Q 2441 88 2391 259 
Q 2369 338 2359 363 
Q 2134 144 1878 34 
Q 1622 -75 1331 -75 
Q 819 -75 523 203 
Q 228 481 228 906 
Q 228 1188 362 1408 
Q 497 1628 739 1745 
Q 981 1863 1438 1950 
Q 2053 2066 2291 2166 
L 2291 2253 
Q 2291 2506 2166 2614 
Q 2041 2722 1694 2722 
Q 1459 2722 1328 2630 
Q 1197 2538 1116 2306 
z
M 2291 1594 
Q 2122 1538 1756 1459 
Q 1391 1381 1278 1306 
Q 1106 1184 1106 997 
Q 1106 813 1243 678 
Q 1381 544 1594 544 
Q 1831 544 2047 700 
Q 2206 819 2256 991 
Q 2291 1103 2291 1419 
L 2291 1594 
z
" transform="scale(0.015625)"/>
       <path id="Arial-BoldMT-6e" d="M 3478 0 
L 2600 0 
L 2600 1694 
Q 2600 2231 2544 2389 
Q 2488 2547 2361 2634 
Q 2234 2722 2056 2722 
Q 1828 2722 1647 2597 
Q 1466 2472 1398 2265 
Q 1331 2059 1331 1503 
L 1331 0 
L 453 0 
L 453 3319 
L 1269 3319 
L 1269 2831 
Q 1703 3394 2363 3394 
Q 2653 3394 2893 3289 
Q 3134 3184 3257 3021 
Q 3381 2859 3429 2653 
Q 3478 2447 3478 2063 
L 3478 0 
z
" transform="scale(0.015625)"/>
       <path id="Arial-BoldMT-63" d="M 3353 2338 
L 2488 2181 
Q 2444 2441 2289 2572 
Q 2134 2703 1888 2703 
Q 1559 2703 1364 2476 
Q 1169 2250 1169 1719 
Q 1169 1128 1367 884 
Q 1566 641 1900 641 
Q 2150 641 2309 783 
Q 2469 925 2534 1272 
L 3397 1125 
Q 3263 531 2881 228 
Q 2500 -75 1859 -75 
Q 1131 -75 698 384 
Q 266 844 266 1656 
Q 266 2478 700 2936 
Q 1134 3394 1875 3394 
Q 2481 3394 2839 3133 
Q 3197 2872 3353 2338 
z
" transform="scale(0.015625)"/>
       <path id="Arial-BoldMT-65" d="M 2381 1056 
L 3256 909 
Q 3088 428 2723 176 
Q 2359 -75 1813 -75 
Q 947 -75 531 491 
Q 203 944 203 1634 
Q 203 2459 634 2926 
Q 1066 3394 1725 3394 
Q 2466 3394 2894 2905 
Q 3322 2416 3303 1406 
L 1103 1406 
Q 1113 1016 1316 798 
Q 1519 581 1822 581 
Q 2028 581 2168 693 
Q 2309 806 2381 1056 
z
M 2431 1944 
Q 2422 2325 2234 2523 
Q 2047 2722 1778 2722 
Q 1491 2722 1303 2513 
Q 1116 2303 1119 1944 
L 2431 1944 
z
" transform="scale(0.015625)"/>
       <path id="Arial-BoldMT-20" transform="scale(0.015625)"/>
       <path id="Arial-BoldMT-66" d="M 75 3319 
L 563 3319 
L 563 3569 
Q 563 3988 652 4194 
Q 741 4400 980 4529 
Q 1219 4659 1584 4659 
Q 1959 4659 2319 4547 
L 2200 3934 
Q 1991 3984 1797 3984 
Q 1606 3984 1523 3895 
Q 1441 3806 1441 3553 
L 1441 3319 
L 2097 3319 
L 2097 2628 
L 1441 2628 
L 1441 0 
L 563 0 
L 563 2628 
L 75 2628 
L 75 3319 
z
" transform="scale(0.015625)"/>
       <path id="Arial-BoldMT-72" d="M 1300 0 
L 422 0 
L 422 3319 
L 1238 3319 
L 1238 2847 
Q 1447 3181 1614 3287 
Q 1781 3394 1994 3394 
Q 2294 3394 2572 3228 
L 2300 2463 
Q 2078 2606 1888 2606 
Q 1703 2606 1575 2504 
Q 1447 2403 1373 2137 
Q 1300 1872 1300 1025 
L 1300 0 
z
" transform="scale(0.015625)"/>
       <path id="Arial-BoldMT-6f" d="M 256 1706 
Q 256 2144 472 2553 
Q 688 2963 1083 3178 
Q 1478 3394 1966 3394 
Q 2719 3394 3200 2905 
Q 3681 2416 3681 1669 
Q 3681 916 3195 420 
Q 2709 -75 1972 -75 
Q 1516 -75 1102 131 
Q 688 338 472 736 
Q 256 1134 256 1706 
z
M 1156 1659 
Q 1156 1166 1390 903 
Q 1625 641 1969 641 
Q 2313 641 2545 903 
Q 2778 1166 2778 1666 
Q 2778 2153 2545 2415 
Q 2313 2678 1969 2678 
Q 1625 2678 1390 2415 
Q 1156 2153 1156 1659 
z
" transform="scale(0.015625)"/>
       <path id="Arial-BoldMT-6d" d="M 394 3319 
L 1203 3319 
L 1203 2866 
Q 1638 3394 2238 3394 
Q 2556 3394 2790 3262 
Q 3025 3131 3175 2866 
Q 3394 3131 3647 3262 
Q 3900 3394 4188 3394 
Q 4553 3394 4806 3245 
Q 5059 3097 5184 2809 
Q 5275 2597 5275 2122 
L 5275 0 
L 4397 0 
L 4397 1897 
Q 4397 2391 4306 2534 
Q 4184 2722 3931 2722 
Q 3747 2722 3584 2609 
Q 3422 2497 3350 2280 
Q 3278 2063 3278 1594 
L 3278 0 
L 2400 0 
L 2400 1819 
Q 2400 2303 2353 2443 
Q 2306 2584 2207 2653 
Q 2109 2722 1941 2722 
Q 1738 2722 1575 2612 
Q 1413 2503 1342 2297 
Q 1272 2091 1272 1613 
L 1272 0 
L 394 0 
L 394 3319 
z
" transform="scale(0.015625)"/>
       <path id="Arial-BoldMT-68" d="M 1334 4581 
L 1334 2897 
Q 1759 3394 2350 3394 
Q 2653 3394 2897 3281 
Q 3141 3169 3264 2994 
Q 3388 2819 3433 2606 
Q 3478 2394 3478 1947 
L 3478 0 
L 2600 0 
L 2600 1753 
Q 2600 2275 2550 2415 
Q 2500 2556 2373 2639 
Q 2247 2722 2056 2722 
Q 1838 2722 1666 2615 
Q 1494 2509 1414 2295 
Q 1334 2081 1334 1663 
L 1334 0 
L 456 0 
L 456 4581 
L 1334 4581 
z
" transform="scale(0.015625)"/>
       <path id="Arial-BoldMT-64" d="M 3503 0 
L 2688 0 
L 2688 488 
Q 2484 203 2207 64 
Q 1931 -75 1650 -75 
Q 1078 -75 670 386 
Q 263 847 263 1672 
Q 263 2516 659 2955 
Q 1056 3394 1663 3394 
Q 2219 3394 2625 2931 
L 2625 4581 
L 3503 4581 
L 3503 0 
z
M 1159 1731 
Q 1159 1200 1306 963 
Q 1519 619 1900 619 
Q 2203 619 2415 876 
Q 2628 1134 2628 1647 
Q 2628 2219 2422 2470 
Q 2216 2722 1894 2722 
Q 1581 2722 1370 2473 
Q 1159 2225 1159 1731 
z
" transform="scale(0.015625)"/>
       <path id="Arial-BoldMT-67" d="M 378 -219 
L 1381 -341 
Q 1406 -516 1497 -581 
Q 1622 -675 1891 -675 
Q 2234 -675 2406 -572 
Q 2522 -503 2581 -350 
Q 2622 -241 2622 53 
L 2622 538 
Q 2228 0 1628 0 
Q 959 0 569 566 
Q 263 1013 263 1678 
Q 263 2513 664 2953 
Q 1066 3394 1663 3394 
Q 2278 3394 2678 2853 
L 2678 3319 
L 3500 3319 
L 3500 341 
Q 3500 -247 3403 -537 
Q 3306 -828 3131 -993 
Q 2956 -1159 2664 -1253 
Q 2372 -1347 1925 -1347 
Q 1081 -1347 728 -1058 
Q 375 -769 375 -325 
Q 375 -281 378 -219 
z
M 1163 1728 
Q 1163 1200 1367 954 
Q 1572 709 1872 709 
Q 2194 709 2416 961 
Q 2638 1213 2638 1706 
Q 2638 2222 2425 2472 
Q 2213 2722 1888 2722 
Q 1572 2722 1367 2476 
Q 1163 2231 1163 1728 
z
" transform="scale(0.015625)"/>
       <path id="Arial-BoldMT-28" d="M 1916 -1347 
L 1313 -1347 
Q 834 -625 584 153 
Q 334 931 334 1659 
Q 334 2563 644 3369 
Q 913 4069 1325 4659 
L 1925 4659 
Q 1497 3713 1336 3048 
Q 1175 2384 1175 1641 
Q 1175 1128 1270 590 
Q 1366 53 1531 -431 
Q 1641 -750 1916 -1347 
z
" transform="scale(0.015625)"/>
       <path id="Arial-BoldMT-b5" d="M 347 3319 
L 1219 3319 
L 1219 1816 
Q 1219 1166 1350 931 
Q 1516 628 1841 628 
Q 2016 628 2172 740 
Q 2328 853 2403 1053 
Q 2478 1253 2478 1806 
L 2478 3319 
L 3366 3319 
L 3366 0 
L 2547 0 
L 2547 400 
Q 2453 225 2368 137 
Q 2284 50 2142 -15 
Q 2000 -81 1881 -81 
Q 1659 -81 1488 41 
Q 1366 131 1219 400 
L 1219 -1272 
L 347 -1272 
L 347 3319 
z
" transform="scale(0.015625)"/>
       <path id="Arial-BoldMT-29" d="M 216 -1347 
Q 475 -791 581 -494 
Q 688 -197 778 190 
Q 869 578 912 926 
Q 956 1275 956 1641 
Q 956 2384 797 3048 
Q 638 3713 209 4659 
L 806 4659 
Q 1278 3988 1539 3234 
Q 1800 2481 1800 1706 
Q 1800 1053 1594 306 
Q 1359 -531 822 -1347 
L 216 -1347 
z
" transform="scale(0.015625)"/>
      </defs>
      <use xlink:href="#Arial-BoldMT-44"/>
      <use xlink:href="#Arial-BoldMT-69" x="72.216797"/>
      <use xlink:href="#Arial-BoldMT-73" x="100"/>
      <use xlink:href="#Arial-BoldMT-74" x="155.615234"/>
      <use xlink:href="#Arial-BoldMT-61" x="188.916016"/>
      <use xlink:href="#Arial-BoldMT-6e" x="244.53125"/>
      <use xlink:href="#Arial-BoldMT-63" x="305.615234"/>
      <use xlink:href="#Arial-BoldMT-65" x="361.230469"/>
      <use xlink:href="#Arial-BoldMT-20" x="416.845703"/>
      <use xlink:href="#Arial-BoldMT-66" x="444.628906"/>
      <use xlink:href="#Arial-BoldMT-72" x="477.929688"/>
      <use xlink:href="#Arial-BoldMT-6f" x="516.845703"/>
      <use xlink:href="#Arial-BoldMT-6d" x="577.929688"/>
      <use xlink:href="#Arial-BoldMT-20" x="666.845703"/>
      <use xlink:href="#Arial-BoldMT-74" x="694.628906"/>
      <use xlink:href="#Arial-BoldMT-68" x="727.929688"/>
      <use xlink:href="#Arial-BoldMT-65" x="789.013672"/>
      <use xlink:href="#Arial-BoldMT-20" x="844.628906"/>
      <use xlink:href="#Arial-BoldMT-65" x="872.412109"/>
      <use xlink:href="#Arial-BoldMT-64" x="928.027344"/>
      <use xlink:href="#Arial-BoldMT-67" x="989.111328"/>
      <use xlink:href="#Arial-BoldMT-65" x="1050.195312"/>
      <use xlink:href="#Arial-BoldMT-20" x="1105.810547"/>
      <use xlink:href="#Arial-BoldMT-28" x="1133.59375"/>
      <use xlink:href="#Arial-BoldMT-b5" x="1166.894531"/>
      <use xlink:href="#Arial-BoldMT-6d" x="1224.511719"/>
      <use xlink:href="#Arial-BoldMT-29" x="1313.427734"/>
     </g>
    </g>
   </g>
   <g id="matplotlib.axis_2">
    <g id="ytick_1">
     <g id="line2d_5">
      <defs>
       <path id="m6bb55f0ced" d="M 0 0 
L -7 0 
" style="stroke: #000000; stroke-width: 1.25"/>
      </defs>
      <g>
       <use xlink:href="#m6bb55f0ced" x="53.94375" y="126.792" style="stroke: #000000; stroke-width: 1.25"/>
      </g>
     </g>
     <g id="text_6">
      <!-- 0.0 -->
      <g transform="translate(23.98375 131.802469) scale(0.14 -0.14)">
       <defs>
        <path id="ArialMT-2e" d="M 581 0 
L 581 641 
L 1222 641 
L 1222 0 
L 581 0 
z
" transform="scale(0.015625)"/>
       </defs>
       <use xlink:href="#ArialMT-30"/>
       <use xlink:href="#ArialMT-2e" x="55.615234"/>
       <use xlink:href="#ArialMT-30" x="83.398438"/>
      </g>
     </g>
    </g>
    <g id="ytick_2">
     <g id="line2d_6">
      <g>
       <use xlink:href="#m6bb55f0ced" x="53.94375" y="69.843429" style="stroke: #000000; stroke-width: 1.25"/>
      </g>
     </g>
     <g id="text_7">
      <!-- 0.5 -->
      <g transform="translate(23.98375 74.853897) scale(0.14 -0.14)">
       <defs>
        <path id="ArialMT-35" d="M 266 1200 
L 856 1250 
Q 922 819 1161 601 
Q 1400 384 1738 384 
Q 2144 384 2425 690 
Q 2706 997 2706 1503 
Q 2706 1984 2436 2262 
Q 2166 2541 1728 2541 
Q 1456 2541 1237 2417 
Q 1019 2294 894 2097 
L 366 2166 
L 809 4519 
L 3088 4519 
L 3088 3981 
L 1259 3981 
L 1013 2750 
Q 1425 3038 1878 3038 
Q 2478 3038 2890 2622 
Q 3303 2206 3303 1553 
Q 3303 931 2941 478 
Q 2500 -78 1738 -78 
Q 1113 -78 717 272 
Q 322 622 266 1200 
z
" transform="scale(0.015625)"/>
       </defs>
       <use xlink:href="#ArialMT-30"/>
       <use xlink:href="#ArialMT-2e" x="55.615234"/>
       <use xlink:href="#ArialMT-35" x="83.398438"/>
      </g>
     </g>
    </g>
    <g id="ytick_3">
     <g id="line2d_7">
      <g>
       <use xlink:href="#m6bb55f0ced" x="53.94375" y="12.894857" style="stroke: #000000; stroke-width: 1.25"/>
      </g>
     </g>
     <g id="text_8">
      <!-- 1.0 -->
      <g transform="translate(23.98375 17.905326) scale(0.14 -0.14)">
       <use xlink:href="#ArialMT-31"/>
       <use xlink:href="#ArialMT-2e" x="55.615234"/>
       <use xlink:href="#ArialMT-30" x="83.398438"/>
      </g>
     </g>
    </g>
    <g id="ytick_4">
     <g id="line2d_8">
      <defs>
       <path id="mbebdc0e5f4" d="M 0 0 
L -4 0 
" style="stroke: #000000; stroke-width: 1.25"/>
      </defs>
      <g>
       <use xlink:href="#mbebdc0e5f4" x="53.94375" y="98.317714" style="stroke: #000000; stroke-width: 1.25"/>
      </g>
     </g>
    </g>
    <g id="ytick_5">
     <g id="line2d_9">
      <g>
       <use xlink:href="#mbebdc0e5f4" x="53.94375" y="41.369143" style="stroke: #000000; stroke-width: 1.25"/>
      </g>
     </g>
    </g>
    <g id="text_9">
     <!-- Relative abundance -->
     <g transform="translate(17.220938 132.73475) rotate(-90) scale(0.14 -0.14)">
      <defs>
       <path id="Arial-BoldMT-52" d="M 469 0 
L 469 4581 
L 2416 4581 
Q 3150 4581 3483 4457 
Q 3816 4334 4016 4018 
Q 4216 3703 4216 3297 
Q 4216 2781 3912 2445 
Q 3609 2109 3006 2022 
Q 3306 1847 3501 1637 
Q 3697 1428 4028 894 
L 4588 0 
L 3481 0 
L 2813 997 
Q 2456 1531 2325 1670 
Q 2194 1809 2047 1861 
Q 1900 1913 1581 1913 
L 1394 1913 
L 1394 0 
L 469 0 
z
M 1394 2644 
L 2078 2644 
Q 2744 2644 2909 2700 
Q 3075 2756 3169 2893 
Q 3263 3031 3263 3238 
Q 3263 3469 3139 3611 
Q 3016 3753 2791 3791 
Q 2678 3806 2116 3806 
L 1394 3806 
L 1394 2644 
z
" transform="scale(0.015625)"/>
       <path id="Arial-BoldMT-6c" d="M 459 0 
L 459 4581 
L 1338 4581 
L 1338 0 
L 459 0 
z
" transform="scale(0.015625)"/>
       <path id="Arial-BoldMT-76" d="M 1372 0 
L 34 3319 
L 956 3319 
L 1581 1625 
L 1763 1059 
Q 1834 1275 1853 1344 
Q 1897 1484 1947 1625 
L 2578 3319 
L 3481 3319 
L 2163 0 
L 1372 0 
z
" transform="scale(0.015625)"/>
       <path id="Arial-BoldMT-62" d="M 422 0 
L 422 4581 
L 1300 4581 
L 1300 2931 
Q 1706 3394 2263 3394 
Q 2869 3394 3266 2955 
Q 3663 2516 3663 1694 
Q 3663 844 3258 384 
Q 2853 -75 2275 -75 
Q 1991 -75 1714 67 
Q 1438 209 1238 488 
L 1238 0 
L 422 0 
z
M 1294 1731 
Q 1294 1216 1456 969 
Q 1684 619 2063 619 
Q 2353 619 2558 867 
Q 2763 1116 2763 1650 
Q 2763 2219 2556 2470 
Q 2350 2722 2028 2722 
Q 1713 2722 1503 2476 
Q 1294 2231 1294 1731 
z
" transform="scale(0.015625)"/>
       <path id="Arial-BoldMT-75" d="M 2644 0 
L 2644 497 
Q 2463 231 2167 78 
Q 1872 -75 1544 -75 
Q 1209 -75 943 72 
Q 678 219 559 484 
Q 441 750 441 1219 
L 441 3319 
L 1319 3319 
L 1319 1794 
Q 1319 1094 1367 936 
Q 1416 778 1544 686 
Q 1672 594 1869 594 
Q 2094 594 2272 717 
Q 2450 841 2515 1023 
Q 2581 1206 2581 1919 
L 2581 3319 
L 3459 3319 
L 3459 0 
L 2644 0 
z
" transform="scale(0.015625)"/>
      </defs>
      <use xlink:href="#Arial-BoldMT-52"/>
      <use xlink:href="#Arial-BoldMT-65" x="72.216797"/>
      <use xlink:href="#Arial-BoldMT-6c" x="127.832031"/>
      <use xlink:href="#Arial-BoldMT-61" x="155.615234"/>
      <use xlink:href="#Arial-BoldMT-74" x="211.230469"/>
      <use xlink:href="#Arial-BoldMT-69" x="244.53125"/>
      <use xlink:href="#Arial-BoldMT-76" x="272.314453"/>
      <use xlink:href="#Arial-BoldMT-65" x="327.929688"/>
      <use xlink:href="#Arial-BoldMT-20" x="383.544922"/>
      <use xlink:href="#Arial-BoldMT-61" x="411.328125"/>
      <use xlink:href="#Arial-BoldMT-62" x="466.943359"/>
      <use xlink:href="#Arial-BoldMT-75" x="528.027344"/>
      <use xlink:href="#Arial-BoldMT-6e" x="589.111328"/>
      <use xlink:href="#Arial-BoldMT-64" x="650.195312"/>
      <use xlink:href="#Arial-BoldMT-61" x="711.279297"/>
      <use xlink:href="#Arial-BoldMT-6e" x="766.894531"/>
      <use xlink:href="#Arial-BoldMT-63" x="827.978516"/>
      <use xlink:href="#Arial-BoldMT-65" x="883.59375"/>
     </g>
    </g>
   </g>
   <g id="line2d_10">
    <path d="M 260.513189 126.792 
L 258.686186 126.792 
L 256.859184 126.792 
L 255.032181 126.792 
L 253.205179 126.792 
L 251.378176 47.419189 
L 249.551174 56.800716 
L 247.724171 66.857496 
L 245.897169 61.908795 
L 244.070166 61.494164 
L 242.243164 63.444713 
L 240.416161 61.626685 
L 238.589158 57.771588 
L 236.762156 72.87929 
L 234.935153 76.716532 
L 233.108151 70.016977 
L 231.281148 62.670077 
L 229.454146 54.778684 
L 227.627143 59.523889 
L 225.800141 64.568997 
L 223.973138 54.834284 
L 222.146136 69.574592 
L 220.319133 74.110218 
L 218.492131 79.350863 
L 216.665128 75.963415 
L 214.838125 78.047432 
L 213.011123 78.057165 
L 211.18412 79.777036 
L 209.357118 92.39759 
L 207.530115 101.271478 
L 205.703113 92.00253 
L 203.87611 80.655671 
L 202.049108 77.611481 
L 200.222105 95.499048 
L 198.395103 93.479465 
L 196.5681 76.802232 
L 194.741098 79.838484 
L 192.914095 82.172501 
L 191.087093 85.714342 
L 189.26009 78.530499 
L 187.433087 75.672282 
L 185.606085 79.162286 
L 183.779082 87.026461 
L 181.95208 84.675693 
L 180.125077 84.471867 
L 178.298075 74.399314 
L 176.471072 76.722646 
L 174.64407 82.093993 
L 172.817067 71.073676 
L 170.990065 74.405016 
L 169.163062 76.16293 
L 167.33606 91.521526 
L 165.509057 77.419655 
L 163.682054 69.843429 
L 161.855052 74.955722 
L 160.028049 73.111271 
L 158.201047 59.637284 
L 156.374044 85.740116 
L 154.547042 90.667906 
L 152.720039 87.480486 
L 150.893037 77.002678 
L 149.066034 85.701536 
L 147.239032 89.986134 
L 145.412029 84.436856 
L 143.585027 67.799597 
L 141.758024 76.587926 
L 139.931021 75.53425 
L 138.104019 88.556834 
L 136.277016 87.172688 
L 134.450014 94.812895 
L 132.623011 92.333159 
L 130.796009 75.166099 
L 128.969006 75.538286 
L 127.142004 93.68889 
L 125.315001 92.981024 
L 123.487999 72.718236 
L 121.660996 81.7675 
L 119.833994 84.731264 
L 118.006991 89.688467 
L 116.179989 88.271028 
L 114.352986 80.56316 
L 112.525983 68.477503 
L 110.698981 87.558538 
L 108.871978 78.48543 
L 107.044976 73.203352 
L 105.217973 83.342708 
L 103.390971 70.761083 
L 101.563968 86.611917 
L 99.736966 67.792649 
L 97.909963 82.7192 
L 96.082961 80.321966 
L 94.255958 91.315841 
L 92.428956 81.372894 
L 90.601953 100.859645 
L 88.77495 80.887782 
L 86.947948 77.665761 
L 85.120945 95.904639 
L 83.293943 88.104379 
L 81.46694 72.587938 
L 79.639938 79.691678 
L 77.812935 88.705086 
L 75.985933 81.28288 
L 74.15893 86.047352 
L 72.331928 64.904799 
L 70.504925 70.429185 
L 68.677923 64.329042 
L 66.85092 53.825225 
L 65.023917 77.323539 
L 63.196915 90.182204 
L 61.369912 96.665068 
L 59.54291 83.685095 
L 57.715907 89.41166 
L 55.888905 78.118007 
L 54.061902 86.010414 
" clip-path="url(#pc2fef064d5)" style="fill: none; stroke: #ff00ff; stroke-opacity: 0.5; stroke-width: 0.5; stroke-linecap: square"/>
   </g>
   <g id="line2d_11">
    <path d="M 260.513189 126.792 
L 258.686186 126.792 
L 256.859184 126.792 
L 255.032181 126.792 
L 253.205179 126.792 
L 251.378176 82.965995 
L 249.551174 81.110733 
L 247.724171 74.785621 
L 245.897169 76.02121 
L 244.070166 72.068498 
L 242.243164 71.706561 
L 240.416161 68.395883 
L 238.589158 57.752038 
L 236.762156 62.292506 
L 234.935153 68.238585 
L 233.108151 77.226159 
L 231.281148 66.129968 
L 229.454146 60.276069 
L 227.627143 65.820407 
L 225.800141 63.743273 
L 223.973138 63.578633 
L 222.146136 66.917305 
L 220.319133 69.402686 
L 218.492131 66.688843 
L 216.665128 61.862658 
L 214.838125 68.692029 
L 213.011123 69.17569 
L 211.18412 66.59064 
L 209.357118 68.226082 
L 207.530115 70.558527 
L 205.703113 74.52257 
L 203.87611 79.388888 
L 202.049108 77.524395 
L 200.222105 74.976535 
L 198.395103 72.297379 
L 196.5681 77.40174 
L 194.741098 83.079566 
L 192.914095 80.270021 
L 191.087093 80.693637 
L 189.26009 85.62922 
L 187.433087 83.436277 
L 185.606085 86.611266 
L 183.779082 77.976676 
L 181.95208 80.560034 
L 180.125077 82.513634 
L 178.298075 76.866697 
L 176.471072 80.150218 
L 174.64407 81.642423 
L 172.817067 91.881568 
L 170.990065 84.56803 
L 169.163062 86.15314 
L 167.33606 83.198016 
L 165.509057 93.05095 
L 163.682054 86.825814 
L 161.855052 84.961956 
L 160.028049 85.832892 
L 158.201047 86.778507 
L 156.374044 84.534097 
L 154.547042 86.850395 
L 152.720039 86.415178 
L 150.893037 85.797392 
L 149.066034 85.041284 
L 147.239032 87.981252 
L 145.412029 85.185738 
L 143.585027 84.0708 
L 141.758024 80.407801 
L 139.931021 84.914242 
L 138.104019 82.045438 
L 136.277016 82.868139 
L 134.450014 85.254342 
L 132.623011 83.805659 
L 130.796009 85.434641 
L 128.969006 90.549982 
L 127.142004 84.590442 
L 125.315001 81.717986 
L 123.487999 83.990414 
L 121.660996 81.129455 
L 119.833994 93.39126 
L 118.006991 88.220522 
L 116.179989 83.62723 
L 114.352986 89.173639 
L 112.525983 86.265045 
L 110.698981 81.091924 
L 108.871978 87.808243 
L 107.044976 85.433955 
L 105.217973 78.599526 
L 103.390971 95.045415 
L 101.563968 86.806013 
L 99.736966 89.290917 
L 97.909963 87.702225 
L 96.082961 83.225628 
L 94.255958 87.284783 
L 92.428956 89.073619 
L 90.601953 89.319589 
L 88.77495 84.759878 
L 86.947948 84.698183 
L 85.120945 79.350043 
L 83.293943 88.232922 
L 81.46694 90.311901 
L 79.639938 84.658661 
L 77.812935 78.058097 
L 75.985933 85.510121 
L 74.15893 79.353695 
L 72.331928 77.382212 
L 70.504925 84.444219 
L 68.677923 90.098169 
L 66.85092 84.711374 
L 65.023917 80.017116 
L 63.196915 77.789069 
L 61.369912 84.619857 
L 59.54291 77.78264 
L 57.715907 79.982781 
L 55.888905 73.964082 
L 54.061902 83.917023 
" clip-path="url(#pc2fef064d5)" style="fill: none; stroke: #ff00ff; stroke-opacity: 0.5; stroke-width: 0.5; stroke-linecap: square"/>
   </g>
   <g id="line2d_12">
    <path d="M 260.513189 126.792 
L 258.686186 126.792 
L 256.859184 126.792 
L 255.032181 126.792 
L 253.205179 126.792 
L 251.378176 95.393752 
L 249.551174 108.610867 
L 247.724171 106.322816 
L 245.897169 94.415717 
L 244.070166 103.024593 
L 242.243164 93.709015 
L 240.416161 88.930053 
L 238.589158 75.09077 
L 236.762156 69.628393 
L 234.935153 74.404928 
L 233.108151 71.076863 
L 231.281148 66.087178 
L 229.454146 62.268393 
L 227.627143 60.378205 
L 225.800141 51.442624 
L 223.973138 61.401304 
L 222.146136 61.442415 
L 220.319133 70.389698 
L 218.492131 68.598234 
L 216.665128 57.932048 
L 214.838125 65.551432 
L 213.011123 71.365473 
L 211.18412 73.244149 
L 209.357118 64.184746 
L 207.530115 74.440466 
L 205.703113 65.350282 
L 203.87611 68.626805 
L 202.049108 65.832598 
L 200.222105 70.921129 
L 198.395103 71.572247 
L 196.5681 79.416308 
L 194.741098 79.800474 
L 192.914095 63.029939 
L 191.087093 70.001766 
L 189.26009 69.441611 
L 187.433087 65.455075 
L 185.606085 71.651683 
L 183.779082 79.461232 
L 181.95208 71.248459 
L 180.125077 78.432442 
L 178.298075 74.576115 
L 176.471072 77.724996 
L 174.64407 75.001169 
L 172.817067 69.157602 
L 170.990065 69.30794 
L 169.163062 70.654206 
L 167.33606 66.166946 
L 165.509057 86.221549 
L 163.682054 80.750682 
L 161.855052 76.573227 
L 160.028049 73.463825 
L 158.201047 72.655556 
L 156.374044 82.100931 
L 154.547042 75.759965 
L 152.720039 79.124049 
L 150.893037 76.802307 
L 149.066034 83.691355 
L 147.239032 80.597169 
L 145.412029 76.177374 
L 143.585027 79.764247 
L 141.758024 77.628026 
L 139.931021 84.005243 
L 138.104019 90.130349 
L 136.277016 76.11515 
L 134.450014 81.611399 
L 132.623011 84.156924 
L 130.796009 86.951143 
L 128.969006 80.675145 
L 127.142004 83.525782 
L 125.315001 88.583693 
L 123.487999 88.309145 
L 121.660996 77.206173 
L 119.833994 82.797123 
L 118.006991 82.081351 
L 116.179989 80.508016 
L 114.352986 95.012735 
L 112.525983 79.439221 
L 110.698981 83.937273 
L 108.871978 85.485817 
L 107.044976 82.446155 
L 105.217973 79.551784 
L 103.390971 77.514232 
L 101.563968 66.61642 
L 99.736966 81.960146 
L 97.909963 99.065524 
L 96.082961 90.335482 
L 94.255958 81.242392 
L 92.428956 84.960538 
L 90.601953 83.090883 
L 88.77495 77.670483 
L 86.947948 64.186286 
L 85.120945 75.603852 
L 83.293943 74.139064 
L 81.46694 72.624978 
L 79.639938 76.896311 
L 77.812935 77.201791 
L 75.985933 78.818498 
L 74.15893 83.769112 
L 72.331928 68.823019 
L 70.504925 69.79099 
L 68.677923 71.225066 
L 66.85092 93.234233 
L 65.023917 81.573611 
L 63.196915 86.874057 
L 61.369912 85.087496 
L 59.54291 89.379277 
L 57.715907 81.330387 
L 55.888905 74.971213 
L 54.061902 74.828703 
" clip-path="url(#pc2fef064d5)" style="fill: none; stroke: #ff00ff; stroke-opacity: 0.5; stroke-width: 0.5; stroke-linecap: square"/>
   </g>
   <g id="line2d_13">
    <path d="M 260.513189 126.792 
L 258.686186 126.792 
L 256.859184 126.792 
L 255.032181 126.792 
L 253.205179 126.792 
L 251.378176 92.267669 
L 249.551174 82.886142 
L 247.724171 72.829361 
L 245.897169 77.778062 
L 244.070166 78.192694 
L 242.243164 76.242144 
L 240.416161 78.060172 
L 238.589158 81.915269 
L 236.762156 66.807567 
L 234.935153 62.970325 
L 233.108151 69.66988 
L 231.281148 77.01678 
L 229.454146 84.908173 
L 227.627143 80.162968 
L 225.800141 75.11786 
L 223.973138 84.852573 
L 222.146136 70.112265 
L 220.319133 65.57664 
L 218.492131 60.335994 
L 216.665128 63.723443 
L 214.838125 61.639425 
L 213.011123 61.629692 
L 211.18412 59.909821 
L 209.357118 47.289267 
L 207.530115 38.415379 
L 205.703113 47.684327 
L 203.87611 59.031186 
L 202.049108 62.075376 
L 200.222105 44.18781 
L 198.395103 46.207392 
L 196.5681 62.884626 
L 194.741098 59.848373 
L 192.914095 57.514356 
L 191.087093 53.972515 
L 189.26009 61.156358 
L 187.433087 64.014575 
L 185.606085 60.524571 
L 183.779082 52.660396 
L 181.95208 55.011164 
L 180.125077 55.21499 
L 178.298075 65.287543 
L 176.471072 62.964211 
L 174.64407 57.592864 
L 172.817067 68.613181 
L 170.990065 65.281841 
L 169.163062 63.523927 
L 167.33606 48.165331 
L 165.509057 62.267202 
L 163.682054 69.843429 
L 161.855052 64.731135 
L 160.028049 66.575587 
L 158.201047 80.049573 
L 156.374044 53.946741 
L 154.547042 49.018951 
L 152.720039 52.206371 
L 150.893037 62.68418 
L 149.066034 53.985322 
L 147.239032 49.700723 
L 145.412029 55.250001 
L 143.585027 71.88726 
L 141.758024 63.098931 
L 139.931021 64.152607 
L 138.104019 51.130023 
L 136.277016 52.514169 
L 134.450014 44.873962 
L 132.623011 47.353698 
L 130.796009 64.520758 
L 128.969006 64.148571 
L 127.142004 45.997968 
L 125.315001 46.705833 
L 123.487999 66.968621 
L 121.660996 57.919358 
L 119.833994 54.955594 
L 118.006991 49.99839 
L 116.179989 51.415829 
L 114.352986 59.123697 
L 112.525983 71.209354 
L 110.698981 52.128319 
L 108.871978 61.201427 
L 107.044976 66.483505 
L 105.217973 56.34415 
L 103.390971 68.925774 
L 101.563968 53.07494 
L 99.736966 71.894208 
L 97.909963 56.967657 
L 96.082961 59.364891 
L 94.255958 48.371016 
L 92.428956 58.313963 
L 90.601953 38.827212 
L 88.77495 58.799075 
L 86.947948 62.021096 
L 85.120945 43.782218 
L 83.293943 51.582478 
L 81.46694 67.098919 
L 79.639938 59.995179 
L 77.812935 50.981771 
L 75.985933 58.403978 
L 74.15893 53.639505 
L 72.331928 74.782058 
L 70.504925 69.257672 
L 68.677923 75.357815 
L 66.85092 85.861632 
L 65.023917 62.363318 
L 63.196915 49.504653 
L 61.369912 43.021789 
L 59.54291 56.001762 
L 57.715907 50.275197 
L 55.888905 61.56885 
L 54.061902 53.676443 
" clip-path="url(#pc2fef064d5)" style="fill: none; stroke: #00bfff; stroke-opacity: 0.5; stroke-width: 0.5; stroke-linecap: square"/>
   </g>
   <g id="line2d_14">
    <path d="M 260.513189 126.792 
L 258.686186 126.792 
L 256.859184 126.792 
L 255.032181 126.792 
L 253.205179 126.792 
L 251.378176 56.720863 
L 249.551174 58.576125 
L 247.724171 64.901236 
L 245.897169 63.665648 
L 244.070166 67.618359 
L 242.243164 67.980296 
L 240.416161 71.290974 
L 238.589158 81.934819 
L 236.762156 77.394351 
L 234.935153 71.448272 
L 233.108151 62.460698 
L 231.281148 73.556889 
L 229.454146 79.410789 
L 227.627143 73.86645 
L 225.800141 75.943584 
L 223.973138 76.108224 
L 222.146136 72.769552 
L 220.319133 70.284171 
L 218.492131 72.998014 
L 216.665128 77.824199 
L 214.838125 70.994828 
L 213.011123 70.511167 
L 211.18412 73.096217 
L 209.357118 71.460775 
L 207.530115 69.12833 
L 205.703113 65.164287 
L 203.87611 60.297969 
L 202.049108 62.162462 
L 200.222105 64.710322 
L 198.395103 67.389478 
L 196.5681 62.285117 
L 194.741098 56.607292 
L 192.914095 59.416836 
L 191.087093 58.99322 
L 189.26009 54.057637 
L 187.433087 56.25058 
L 185.606085 53.075591 
L 183.779082 61.710181 
L 181.95208 59.126823 
L 180.125077 57.173223 
L 178.298075 62.82016 
L 176.471072 59.53664 
L 174.64407 58.044434 
L 172.817067 47.80529 
L 170.990065 55.118827 
L 169.163062 53.533717 
L 167.33606 56.488841 
L 165.509057 46.635908 
L 163.682054 52.861043 
L 161.855052 54.724901 
L 160.028049 53.853965 
L 158.201047 52.90835 
L 156.374044 55.15276 
L 154.547042 52.836462 
L 152.720039 53.271679 
L 150.893037 53.889466 
L 149.066034 54.645573 
L 147.239032 51.705605 
L 145.412029 54.501119 
L 143.585027 55.616057 
L 141.758024 59.279056 
L 139.931021 54.772616 
L 138.104019 57.641419 
L 136.277016 56.818718 
L 134.450014 54.432515 
L 132.623011 55.881198 
L 130.796009 54.252216 
L 128.969006 49.136875 
L 127.142004 55.096416 
L 125.315001 57.968871 
L 123.487999 55.696443 
L 121.660996 58.557402 
L 119.833994 46.295597 
L 118.006991 51.466335 
L 116.179989 56.059627 
L 114.352986 50.513218 
L 112.525983 53.421813 
L 110.698981 58.594933 
L 108.871978 51.878614 
L 107.044976 54.252903 
L 105.217973 61.087331 
L 103.390971 44.641443 
L 101.563968 52.880844 
L 99.736966 50.39594 
L 97.909963 51.984632 
L 96.082961 56.461229 
L 94.255958 52.402074 
L 92.428956 50.613238 
L 90.601953 50.367268 
L 88.77495 54.926979 
L 86.947948 54.988674 
L 85.120945 60.336814 
L 83.293943 51.453935 
L 81.46694 49.374957 
L 79.639938 55.028196 
L 77.812935 61.62876 
L 75.985933 54.176737 
L 74.15893 60.333162 
L 72.331928 62.304645 
L 70.504925 55.242638 
L 68.677923 49.588688 
L 66.85092 54.975483 
L 65.023917 59.669741 
L 63.196915 61.897788 
L 61.369912 55.067 
L 59.54291 61.904218 
L 57.715907 59.704076 
L 55.888905 65.722775 
L 54.061902 55.769835 
" clip-path="url(#pc2fef064d5)" style="fill: none; stroke: #00bfff; stroke-opacity: 0.5; stroke-width: 0.5; stroke-linecap: square"/>
   </g>
   <g id="line2d_15">
    <path d="M 260.513189 126.792 
L 258.686186 126.792 
L 256.859184 126.792 
L 255.032181 126.792 
L 253.205179 126.792 
L 251.378176 44.293105 
L 249.551174 31.07599 
L 247.724171 33.364042 
L 245.897169 45.27114 
L 244.070166 36.662264 
L 242.243164 45.977842 
L 240.416161 50.756805 
L 238.589158 64.596087 
L 236.762156 70.058464 
L 234.935153 65.281929 
L 233.108151 68.609994 
L 231.281148 73.599679 
L 229.454146 77.418464 
L 227.627143 79.308652 
L 225.800141 88.244233 
L 223.973138 78.285553 
L 222.146136 78.244442 
L 220.319133 69.297159 
L 218.492131 71.088623 
L 216.665128 81.754809 
L 214.838125 74.135425 
L 213.011123 68.321384 
L 211.18412 66.442708 
L 209.357118 75.502111 
L 207.530115 65.246391 
L 205.703113 74.336575 
L 203.87611 71.060052 
L 202.049108 73.854259 
L 200.222105 68.765729 
L 198.395103 68.11461 
L 196.5681 60.270549 
L 194.741098 59.886383 
L 192.914095 76.656918 
L 191.087093 69.685091 
L 189.26009 70.245247 
L 187.433087 74.231782 
L 185.606085 68.035174 
L 183.779082 60.225625 
L 181.95208 68.438398 
L 180.125077 61.254415 
L 178.298075 65.110742 
L 176.471072 61.961861 
L 174.64407 64.685688 
L 172.817067 70.529255 
L 170.990065 70.378917 
L 169.163062 69.032651 
L 167.33606 73.519911 
L 165.509057 53.465308 
L 163.682054 58.936175 
L 161.855052 63.11363 
L 160.028049 66.223032 
L 158.201047 67.031301 
L 156.374044 57.585927 
L 154.547042 63.926892 
L 152.720039 60.562808 
L 150.893037 62.884551 
L 149.066034 55.995503 
L 147.239032 59.089688 
L 145.412029 63.509483 
L 143.585027 59.922611 
L 141.758024 62.058832 
L 139.931021 55.681615 
L 138.104019 49.556508 
L 136.277016 63.571707 
L 134.450014 58.075458 
L 132.623011 55.529934 
L 130.796009 52.735715 
L 128.969006 59.011712 
L 127.142004 56.161075 
L 125.315001 51.103164 
L 123.487999 51.377712 
L 121.660996 62.480685 
L 119.833994 56.889735 
L 118.006991 57.605506 
L 116.179989 59.178841 
L 114.352986 44.674122 
L 112.525983 60.247637 
L 110.698981 55.749584 
L 108.871978 54.20104 
L 107.044976 57.240702 
L 105.217973 60.135073 
L 103.390971 62.172625 
L 101.563968 73.070437 
L 99.736966 57.726711 
L 97.909963 40.621333 
L 96.082961 49.351375 
L 94.255958 58.444466 
L 92.428956 54.726319 
L 90.601953 56.595974 
L 88.77495 62.016374 
L 86.947948 75.500571 
L 85.120945 64.083006 
L 83.293943 65.547793 
L 81.46694 67.061879 
L 79.639938 62.790546 
L 77.812935 62.485066 
L 75.985933 60.868359 
L 74.15893 55.917745 
L 72.331928 70.863838 
L 70.504925 69.895867 
L 68.677923 68.461791 
L 66.85092 46.452624 
L 65.023917 58.113246 
L 63.196915 52.8128 
L 61.369912 54.599362 
L 59.54291 50.30758 
L 57.715907 58.35647 
L 55.888905 64.715644 
L 54.061902 64.858154 
" clip-path="url(#pc2fef064d5)" style="fill: none; stroke: #00bfff; stroke-opacity: 0.5; stroke-width: 0.5; stroke-linecap: square"/>
   </g>
   <g id="line2d_16">
    <path d="M 260.513189 126.792 
L 258.686186 126.792 
L 256.859184 126.792 
L 255.032181 126.792 
L 253.205179 126.792 
L 251.378176 75.259645 
L 249.551174 82.174105 
L 247.724171 82.655311 
L 245.897169 77.448574 
L 244.070166 78.862418 
L 242.243164 76.286763 
L 240.416161 72.984207 
L 238.589158 63.538132 
L 236.762156 68.26673 
L 234.935153 73.120015 
L 233.108151 72.773333 
L 231.281148 64.962408 
L 229.454146 59.107715 
L 227.627143 61.9075 
L 225.800141 59.918298 
L 223.973138 59.938074 
L 222.146136 65.978104 
L 220.319133 71.300867 
L 218.492131 71.54598 
L 216.665128 65.252707 
L 214.838125 70.763631 
L 213.011123 72.866109 
L 211.18412 73.203942 
L 209.357118 74.936139 
L 207.530115 82.090157 
L 205.703113 77.291794 
L 203.87611 76.223788 
L 202.049108 73.656158 
L 200.222105 80.46557 
L 198.395103 79.116364 
L 196.5681 77.873427 
L 194.741098 80.906175 
L 192.914095 75.157487 
L 191.087093 78.803248 
L 189.26009 77.86711 
L 187.433087 74.854545 
L 185.606085 79.141745 
L 183.779082 81.488123 
L 181.95208 78.828062 
L 180.125077 81.805981 
L 178.298075 75.280709 
L 176.471072 78.199286 
L 174.64407 79.579195 
L 172.817067 77.370949 
L 170.990065 76.093662 
L 169.163062 77.656759 
L 167.33606 80.295496 
L 165.509057 85.564051 
L 163.682054 79.139975 
L 161.855052 78.830302 
L 160.028049 77.469329 
L 158.201047 73.023782 
L 156.374044 84.125048 
L 154.547042 84.426089 
L 152.720039 84.339904 
L 150.893037 79.867459 
L 149.066034 84.811391 
L 147.239032 86.188185 
L 145.412029 81.933323 
L 143.585027 77.211548 
L 141.758024 78.207918 
L 139.931021 81.484578 
L 138.104019 86.910874 
L 136.277016 82.051992 
L 134.450014 87.226212 
L 132.623011 86.765247 
L 130.796009 82.517294 
L 128.969006 82.254471 
L 127.142004 87.268371 
L 125.315001 87.760901 
L 123.487999 81.672598 
L 121.660996 80.034376 
L 119.833994 86.973215 
L 118.006991 86.663447 
L 116.179989 84.135425 
L 114.352986 88.249845 
L 112.525983 78.06059 
L 110.698981 84.195911 
L 108.871978 83.926497 
L 107.044976 80.361154 
L 105.217973 80.498006 
L 103.390971 81.10691 
L 101.563968 80.01145 
L 99.736966 79.681237 
L 97.909963 89.828983 
L 96.082961 84.627692 
L 94.255958 86.614338 
L 92.428956 85.135684 
L 90.601953 91.090039 
L 88.77495 81.106048 
L 86.947948 75.516743 
L 85.120945 83.619511 
L 83.293943 83.492122 
L 81.46694 78.508272 
L 79.639938 80.41555 
L 77.812935 81.321658 
L 75.985933 81.870499 
L 74.15893 83.05672 
L 72.331928 70.37001 
L 70.504925 74.888131 
L 68.677923 75.217426 
L 66.85092 77.256944 
L 65.023917 79.638089 
L 63.196915 84.948443 
L 61.369912 88.790807 
L 59.54291 83.615671 
L 57.715907 83.574943 
L 55.888905 75.684434 
L 54.061902 81.58538 
" clip-path="url(#pc2fef064d5)" style="fill: none; stroke: #ff00ff; stroke-width: 3; stroke-linecap: square"/>
   </g>
   <g id="line2d_17">
    <path d="M 260.513189 126.792 
L 258.686186 126.792 
L 256.859184 126.792 
L 255.032181 126.792 
L 253.205179 126.792 
L 251.378176 64.427212 
L 249.551174 57.512752 
L 247.724171 57.031546 
L 245.897169 62.238283 
L 244.070166 60.824439 
L 242.243164 63.400094 
L 240.416161 66.70265 
L 238.589158 76.148725 
L 236.762156 71.420128 
L 234.935153 66.566842 
L 233.108151 66.913524 
L 231.281148 74.724449 
L 229.454146 80.579142 
L 227.627143 77.779357 
L 225.800141 79.768559 
L 223.973138 79.748783 
L 222.146136 73.708753 
L 220.319133 68.38599 
L 218.492131 68.140877 
L 216.665128 74.43415 
L 214.838125 68.923226 
L 213.011123 66.820748 
L 211.18412 66.482915 
L 209.357118 64.750718 
L 207.530115 57.5967 
L 205.703113 62.395063 
L 203.87611 63.463069 
L 202.049108 66.030699 
L 200.222105 59.221287 
L 198.395103 60.570493 
L 196.5681 61.81343 
L 194.741098 58.780683 
L 192.914095 64.52937 
L 191.087093 60.883609 
L 189.26009 61.819747 
L 187.433087 64.832312 
L 185.606085 60.545112 
L 183.779082 58.198734 
L 181.95208 60.858795 
L 180.125077 57.880876 
L 178.298075 64.406148 
L 176.471072 61.487571 
L 174.64407 60.107662 
L 172.817067 62.315909 
L 170.990065 63.593195 
L 169.163062 62.030098 
L 167.33606 59.391361 
L 165.509057 54.122806 
L 163.682054 60.546882 
L 161.855052 60.856555 
L 160.028049 62.217528 
L 158.201047 66.663075 
L 156.374044 55.561809 
L 154.547042 55.260768 
L 152.720039 55.346953 
L 150.893037 59.819399 
L 149.066034 54.875466 
L 147.239032 53.498672 
L 145.412029 57.753535 
L 143.585027 62.475309 
L 141.758024 61.47894 
L 139.931021 58.202279 
L 138.104019 52.775983 
L 136.277016 57.634865 
L 134.450014 52.460645 
L 132.623011 52.92161 
L 130.796009 57.169563 
L 128.969006 57.432386 
L 127.142004 52.418486 
L 125.315001 51.925956 
L 123.487999 58.014259 
L 121.660996 59.652481 
L 119.833994 52.713642 
L 118.006991 53.02341 
L 116.179989 55.551432 
L 114.352986 51.437013 
L 112.525983 61.626268 
L 110.698981 55.490946 
L 108.871978 55.760361 
L 107.044976 59.325703 
L 105.217973 59.188851 
L 103.390971 58.579947 
L 101.563968 59.675407 
L 99.736966 60.00562 
L 97.909963 49.857874 
L 96.082961 55.059165 
L 94.255958 53.072519 
L 92.428956 54.551173 
L 90.601953 48.596818 
L 88.77495 58.580809 
L 86.947948 64.170114 
L 85.120945 56.067346 
L 83.293943 56.194735 
L 81.46694 61.178585 
L 79.639938 59.271307 
L 77.812935 58.365199 
L 75.985933 57.816358 
L 74.15893 56.630137 
L 72.331928 69.316847 
L 70.504925 64.798726 
L 68.677923 64.469432 
L 66.85092 62.429913 
L 65.023917 60.048769 
L 63.196915 54.738414 
L 61.369912 50.89605 
L 59.54291 56.071187 
L 57.715907 56.111914 
L 55.888905 64.002423 
L 54.061902 58.101477 
" clip-path="url(#pc2fef064d5)" style="fill: none; stroke: #00bfff; stroke-width: 3; stroke-linecap: square"/>
   </g>
   <g id="line2d_18">
    <path d="M 260.513189 126.792 
L 258.686186 126.792 
L 256.859184 126.792 
L 255.032181 126.792 
L 253.205179 126.792 
L 251.378176 92.267669 
L 249.551174 82.886142 
L 247.724171 72.829361 
L 245.897169 77.778062 
L 244.070166 78.192694 
L 242.243164 76.242144 
L 240.416161 78.060172 
L 238.589158 81.915269 
L 236.762156 66.807567 
L 234.935153 62.970325 
L 233.108151 69.66988 
L 231.281148 77.01678 
L 229.454146 84.908173 
L 227.627143 80.162968 
L 225.800141 75.11786 
L 223.973138 84.852573 
L 222.146136 70.112265 
L 220.319133 65.57664 
L 218.492131 60.335994 
L 216.665128 63.723443 
L 214.838125 61.639425 
L 213.011123 61.629692 
L 211.18412 59.909821 
L 209.357118 47.289267 
L 207.530115 38.415379 
L 205.703113 47.684327 
L 203.87611 59.031186 
L 202.049108 62.075376 
L 200.222105 44.18781 
L 198.395103 46.207392 
L 196.5681 62.884626 
L 194.741098 59.848373 
L 192.914095 57.514356 
L 191.087093 53.972515 
L 189.26009 61.156358 
L 187.433087 64.014575 
L 185.606085 60.524571 
L 183.779082 52.660396 
L 181.95208 55.011164 
L 180.125077 55.21499 
L 178.298075 65.287543 
L 176.471072 62.964211 
L 174.64407 57.592864 
L 172.817067 68.613181 
L 170.990065 65.281841 
L 169.163062 63.523927 
L 167.33606 48.165331 
L 165.509057 62.267202 
L 163.682054 69.843429 
L 161.855052 64.731135 
L 160.028049 66.575587 
L 158.201047 80.049573 
L 156.374044 53.946741 
L 154.547042 49.018951 
L 152.720039 52.206371 
L 150.893037 62.68418 
L 149.066034 53.985322 
L 147.239032 49.700723 
L 145.412029 55.250001 
L 143.585027 71.88726 
L 141.758024 63.098931 
L 139.931021 64.152607 
L 138.104019 51.130023 
L 136.277016 52.514169 
L 134.450014 44.873962 
L 132.623011 47.353698 
L 130.796009 64.520758 
L 128.969006 64.148571 
L 127.142004 45.997968 
L 125.315001 46.705833 
L 123.487999 66.968621 
L 121.660996 57.919358 
L 119.833994 54.955594 
L 118.006991 49.99839 
L 116.179989 51.415829 
L 114.352986 59.123697 
L 112.525983 71.209354 
L 110.698981 52.128319 
L 108.871978 61.201427 
L 107.044976 66.483505 
L 105.217973 56.34415 
L 103.390971 68.925774 
L 101.563968 53.07494 
L 99.736966 71.894208 
L 97.909963 56.967657 
L 96.082961 59.364891 
L 94.255958 48.371016 
L 92.428956 58.313963 
L 90.601953 38.827212 
L 88.77495 58.799075 
L 86.947948 62.021096 
L 85.120945 43.782218 
L 83.293943 51.582478 
L 81.46694 67.098919 
L 79.639938 59.995179 
L 77.812935 50.981771 
L 75.985933 58.403978 
L 74.15893 53.639505 
L 72.331928 74.782058 
L 70.504925 69.257672 
L 68.677923 75.357815 
L 66.85092 85.861632 
L 65.023917 62.363318 
L 63.196915 49.504653 
L 61.369912 43.021789 
L 59.54291 56.001762 
L 57.715907 50.275197 
L 55.888905 61.56885 
L 54.061902 53.676443 
" clip-path="url(#pc2fef064d5)" style="fill: none; stroke: #00bfff; stroke-opacity: 0.5; stroke-width: 0.5; stroke-linecap: square"/>
   </g>
   <g id="line2d_19">
    <path d="M 260.513189 126.792 
L 258.686186 126.792 
L 256.859184 126.792 
L 255.032181 126.792 
L 253.205179 126.792 
L 251.378176 56.720863 
L 249.551174 58.576125 
L 247.724171 64.901236 
L 245.897169 63.665648 
L 244.070166 67.618359 
L 242.243164 67.980296 
L 240.416161 71.290974 
L 238.589158 81.934819 
L 236.762156 77.394351 
L 234.935153 71.448272 
L 233.108151 62.460698 
L 231.281148 73.556889 
L 229.454146 79.410789 
L 227.627143 73.86645 
L 225.800141 75.943584 
L 223.973138 76.108224 
L 222.146136 72.769552 
L 220.319133 70.284171 
L 218.492131 72.998014 
L 216.665128 77.824199 
L 214.838125 70.994828 
L 213.011123 70.511167 
L 211.18412 73.096217 
L 209.357118 71.460775 
L 207.530115 69.12833 
L 205.703113 65.164287 
L 203.87611 60.297969 
L 202.049108 62.162462 
L 200.222105 64.710322 
L 198.395103 67.389478 
L 196.5681 62.285117 
L 194.741098 56.607292 
L 192.914095 59.416836 
L 191.087093 58.99322 
L 189.26009 54.057637 
L 187.433087 56.25058 
L 185.606085 53.075591 
L 183.779082 61.710181 
L 181.95208 59.126823 
L 180.125077 57.173223 
L 178.298075 62.82016 
L 176.471072 59.53664 
L 174.64407 58.044434 
L 172.817067 47.80529 
L 170.990065 55.118827 
L 169.163062 53.533717 
L 167.33606 56.488841 
L 165.509057 46.635908 
L 163.682054 52.861043 
L 161.855052 54.724901 
L 160.028049 53.853965 
L 158.201047 52.90835 
L 156.374044 55.15276 
L 154.547042 52.836462 
L 152.720039 53.271679 
L 150.893037 53.889466 
L 149.066034 54.645573 
L 147.239032 51.705605 
L 145.412029 54.501119 
L 143.585027 55.616057 
L 141.758024 59.279056 
L 139.931021 54.772616 
L 138.104019 57.641419 
L 136.277016 56.818718 
L 134.450014 54.432515 
L 132.623011 55.881198 
L 130.796009 54.252216 
L 128.969006 49.136875 
L 127.142004 55.096416 
L 125.315001 57.968871 
L 123.487999 55.696443 
L 121.660996 58.557402 
L 119.833994 46.295597 
L 118.006991 51.466335 
L 116.179989 56.059627 
L 114.352986 50.513218 
L 112.525983 53.421813 
L 110.698981 58.594933 
L 108.871978 51.878614 
L 107.044976 54.252903 
L 105.217973 61.087331 
L 103.390971 44.641443 
L 101.563968 52.880844 
L 99.736966 50.39594 
L 97.909963 51.984632 
L 96.082961 56.461229 
L 94.255958 52.402074 
L 92.428956 50.613238 
L 90.601953 50.367268 
L 88.77495 54.926979 
L 86.947948 54.988674 
L 85.120945 60.336814 
L 83.293943 51.453935 
L 81.46694 49.374957 
L 79.639938 55.028196 
L 77.812935 61.62876 
L 75.985933 54.176737 
L 74.15893 60.333162 
L 72.331928 62.304645 
L 70.504925 55.242638 
L 68.677923 49.588688 
L 66.85092 54.975483 
L 65.023917 59.669741 
L 63.196915 61.897788 
L 61.369912 55.067 
L 59.54291 61.904218 
L 57.715907 59.704076 
L 55.888905 65.722775 
L 54.061902 55.769835 
" clip-path="url(#pc2fef064d5)" style="fill: none; stroke: #00bfff; stroke-opacity: 0.5; stroke-width: 0.5; stroke-linecap: square"/>
   </g>
   <g id="line2d_20">
    <path d="M 260.513189 126.792 
L 258.686186 126.792 
L 256.859184 126.792 
L 255.032181 126.792 
L 253.205179 126.792 
L 251.378176 44.293105 
L 249.551174 31.07599 
L 247.724171 33.364042 
L 245.897169 45.27114 
L 244.070166 36.662264 
L 242.243164 45.977842 
L 240.416161 50.756805 
L 238.589158 64.596087 
L 236.762156 70.058464 
L 234.935153 65.281929 
L 233.108151 68.609994 
L 231.281148 73.599679 
L 229.454146 77.418464 
L 227.627143 79.308652 
L 225.800141 88.244233 
L 223.973138 78.285553 
L 222.146136 78.244442 
L 220.319133 69.297159 
L 218.492131 71.088623 
L 216.665128 81.754809 
L 214.838125 74.135425 
L 213.011123 68.321384 
L 211.18412 66.442708 
L 209.357118 75.502111 
L 207.530115 65.246391 
L 205.703113 74.336575 
L 203.87611 71.060052 
L 202.049108 73.854259 
L 200.222105 68.765729 
L 198.395103 68.11461 
L 196.5681 60.270549 
L 194.741098 59.886383 
L 192.914095 76.656918 
L 191.087093 69.685091 
L 189.26009 70.245247 
L 187.433087 74.231782 
L 185.606085 68.035174 
L 183.779082 60.225625 
L 181.95208 68.438398 
L 180.125077 61.254415 
L 178.298075 65.110742 
L 176.471072 61.961861 
L 174.64407 64.685688 
L 172.817067 70.529255 
L 170.990065 70.378917 
L 169.163062 69.032651 
L 167.33606 73.519911 
L 165.509057 53.465308 
L 163.682054 58.936175 
L 161.855052 63.11363 
L 160.028049 66.223032 
L 158.201047 67.031301 
L 156.374044 57.585927 
L 154.547042 63.926892 
L 152.720039 60.562808 
L 150.893037 62.884551 
L 149.066034 55.995503 
L 147.239032 59.089688 
L 145.412029 63.509483 
L 143.585027 59.922611 
L 141.758024 62.058832 
L 139.931021 55.681615 
L 138.104019 49.556508 
L 136.277016 63.571707 
L 134.450014 58.075458 
L 132.623011 55.529934 
L 130.796009 52.735715 
L 128.969006 59.011712 
L 127.142004 56.161075 
L 125.315001 51.103164 
L 123.487999 51.377712 
L 121.660996 62.480685 
L 119.833994 56.889735 
L 118.006991 57.605506 
L 116.179989 59.178841 
L 114.352986 44.674122 
L 112.525983 60.247637 
L 110.698981 55.749584 
L 108.871978 54.20104 
L 107.044976 57.240702 
L 105.217973 60.135073 
L 103.390971 62.172625 
L 101.563968 73.070437 
L 99.736966 57.726711 
L 97.909963 40.621333 
L 96.082961 49.351375 
L 94.255958 58.444466 
L 92.428956 54.726319 
L 90.601953 56.595974 
L 88.77495 62.016374 
L 86.947948 75.500571 
L 85.120945 64.083006 
L 83.293943 65.547793 
L 81.46694 67.061879 
L 79.639938 62.790546 
L 77.812935 62.485066 
L 75.985933 60.868359 
L 74.15893 55.917745 
L 72.331928 70.863838 
L 70.504925 69.895867 
L 68.677923 68.461791 
L 66.85092 46.452624 
L 65.023917 58.113246 
L 63.196915 52.8128 
L 61.369912 54.599362 
L 59.54291 50.30758 
L 57.715907 58.35647 
L 55.888905 64.715644 
L 54.061902 64.858154 
" clip-path="url(#pc2fef064d5)" style="fill: none; stroke: #00bfff; stroke-opacity: 0.5; stroke-width: 0.5; stroke-linecap: square"/>
   </g>
   <g id="line2d_21">
    <path d="M 260.513189 126.792 
L 258.686186 126.792 
L 256.859184 126.792 
L 255.032181 126.792 
L 253.205179 126.792 
L 251.378176 47.419189 
L 249.551174 56.800716 
L 247.724171 66.857496 
L 245.897169 61.908795 
L 244.070166 61.494164 
L 242.243164 63.444713 
L 240.416161 61.626685 
L 238.589158 57.771588 
L 236.762156 72.87929 
L 234.935153 76.716532 
L 233.108151 70.016977 
L 231.281148 62.670077 
L 229.454146 54.778684 
L 227.627143 59.523889 
L 225.800141 64.568997 
L 223.973138 54.834284 
L 222.146136 69.574592 
L 220.319133 74.110218 
L 218.492131 79.350863 
L 216.665128 75.963415 
L 214.838125 78.047432 
L 213.011123 78.057165 
L 211.18412 79.777036 
L 209.357118 92.39759 
L 207.530115 101.271478 
L 205.703113 92.00253 
L 203.87611 80.655671 
L 202.049108 77.611481 
L 200.222105 95.499048 
L 198.395103 93.479465 
L 196.5681 76.802232 
L 194.741098 79.838484 
L 192.914095 82.172501 
L 191.087093 85.714342 
L 189.26009 78.530499 
L 187.433087 75.672282 
L 185.606085 79.162286 
L 183.779082 87.026461 
L 181.95208 84.675693 
L 180.125077 84.471867 
L 178.298075 74.399314 
L 176.471072 76.722646 
L 174.64407 82.093993 
L 172.817067 71.073676 
L 170.990065 74.405016 
L 169.163062 76.16293 
L 167.33606 91.521526 
L 165.509057 77.419655 
L 163.682054 69.843429 
L 161.855052 74.955722 
L 160.028049 73.111271 
L 158.201047 59.637284 
L 156.374044 85.740116 
L 154.547042 90.667906 
L 152.720039 87.480486 
L 150.893037 77.002678 
L 149.066034 85.701536 
L 147.239032 89.986134 
L 145.412029 84.436856 
L 143.585027 67.799597 
L 141.758024 76.587926 
L 139.931021 75.53425 
L 138.104019 88.556834 
L 136.277016 87.172688 
L 134.450014 94.812895 
L 132.623011 92.333159 
L 130.796009 75.166099 
L 128.969006 75.538286 
L 127.142004 93.68889 
L 125.315001 92.981024 
L 123.487999 72.718236 
L 121.660996 81.7675 
L 119.833994 84.731264 
L 118.006991 89.688467 
L 116.179989 88.271028 
L 114.352986 80.56316 
L 112.525983 68.477503 
L 110.698981 87.558538 
L 108.871978 78.48543 
L 107.044976 73.203352 
L 105.217973 83.342708 
L 103.390971 70.761083 
L 101.563968 86.611917 
L 99.736966 67.792649 
L 97.909963 82.7192 
L 96.082961 80.321966 
L 94.255958 91.315841 
L 92.428956 81.372894 
L 90.601953 100.859645 
L 88.77495 80.887782 
L 86.947948 77.665761 
L 85.120945 95.904639 
L 83.293943 88.104379 
L 81.46694 72.587938 
L 79.639938 79.691678 
L 77.812935 88.705086 
L 75.985933 81.28288 
L 74.15893 86.047352 
L 72.331928 64.904799 
L 70.504925 70.429185 
L 68.677923 64.329042 
L 66.85092 53.825225 
L 65.023917 77.323539 
L 63.196915 90.182204 
L 61.369912 96.665068 
L 59.54291 83.685095 
L 57.715907 89.41166 
L 55.888905 78.118007 
L 54.061902 86.010414 
" clip-path="url(#pc2fef064d5)" style="fill: none; stroke: #ff00ff; stroke-opacity: 0.5; stroke-width: 0.5; stroke-linecap: square"/>
   </g>
   <g id="line2d_22">
    <path d="M 260.513189 126.792 
L 258.686186 126.792 
L 256.859184 126.792 
L 255.032181 126.792 
L 253.205179 126.792 
L 251.378176 82.965995 
L 249.551174 81.110733 
L 247.724171 74.785621 
L 245.897169 76.02121 
L 244.070166 72.068498 
L 242.243164 71.706561 
L 240.416161 68.395883 
L 238.589158 57.752038 
L 236.762156 62.292506 
L 234.935153 68.238585 
L 233.108151 77.226159 
L 231.281148 66.129968 
L 229.454146 60.276069 
L 227.627143 65.820407 
L 225.800141 63.743273 
L 223.973138 63.578633 
L 222.146136 66.917305 
L 220.319133 69.402686 
L 218.492131 66.688843 
L 216.665128 61.862658 
L 214.838125 68.692029 
L 213.011123 69.17569 
L 211.18412 66.59064 
L 209.357118 68.226082 
L 207.530115 70.558527 
L 205.703113 74.52257 
L 203.87611 79.388888 
L 202.049108 77.524395 
L 200.222105 74.976535 
L 198.395103 72.297379 
L 196.5681 77.40174 
L 194.741098 83.079566 
L 192.914095 80.270021 
L 191.087093 80.693637 
L 189.26009 85.62922 
L 187.433087 83.436277 
L 185.606085 86.611266 
L 183.779082 77.976676 
L 181.95208 80.560034 
L 180.125077 82.513634 
L 178.298075 76.866697 
L 176.471072 80.150218 
L 174.64407 81.642423 
L 172.817067 91.881568 
L 170.990065 84.56803 
L 169.163062 86.15314 
L 167.33606 83.198016 
L 165.509057 93.05095 
L 163.682054 86.825814 
L 161.855052 84.961956 
L 160.028049 85.832892 
L 158.201047 86.778507 
L 156.374044 84.534097 
L 154.547042 86.850395 
L 152.720039 86.415178 
L 150.893037 85.797392 
L 149.066034 85.041284 
L 147.239032 87.981252 
L 145.412029 85.185738 
L 143.585027 84.0708 
L 141.758024 80.407801 
L 139.931021 84.914242 
L 138.104019 82.045438 
L 136.277016 82.868139 
L 134.450014 85.254342 
L 132.623011 83.805659 
L 130.796009 85.434641 
L 128.969006 90.549982 
L 127.142004 84.590442 
L 125.315001 81.717986 
L 123.487999 83.990414 
L 121.660996 81.129455 
L 119.833994 93.39126 
L 118.006991 88.220522 
L 116.179989 83.62723 
L 114.352986 89.173639 
L 112.525983 86.265045 
L 110.698981 81.091924 
L 108.871978 87.808243 
L 107.044976 85.433955 
L 105.217973 78.599526 
L 103.390971 95.045415 
L 101.563968 86.806013 
L 99.736966 89.290917 
L 97.909963 87.702225 
L 96.082961 83.225628 
L 94.255958 87.284783 
L 92.428956 89.073619 
L 90.601953 89.319589 
L 88.77495 84.759878 
L 86.947948 84.698183 
L 85.120945 79.350043 
L 83.293943 88.232922 
L 81.46694 90.311901 
L 79.639938 84.658661 
L 77.812935 78.058097 
L 75.985933 85.510121 
L 74.15893 79.353695 
L 72.331928 77.382212 
L 70.504925 84.444219 
L 68.677923 90.098169 
L 66.85092 84.711374 
L 65.023917 80.017116 
L 63.196915 77.789069 
L 61.369912 84.619857 
L 59.54291 77.78264 
L 57.715907 79.982781 
L 55.888905 73.964082 
L 54.061902 83.917023 
" clip-path="url(#pc2fef064d5)" style="fill: none; stroke: #ff00ff; stroke-opacity: 0.5; stroke-width: 0.5; stroke-linecap: square"/>
   </g>
   <g id="line2d_23">
    <path d="M 260.513189 126.792 
L 258.686186 126.792 
L 256.859184 126.792 
L 255.032181 126.792 
L 253.205179 126.792 
L 251.378176 95.393752 
L 249.551174 108.610867 
L 247.724171 106.322816 
L 245.897169 94.415717 
L 244.070166 103.024593 
L 242.243164 93.709015 
L 240.416161 88.930053 
L 238.589158 75.09077 
L 236.762156 69.628393 
L 234.935153 74.404928 
L 233.108151 71.076863 
L 231.281148 66.087178 
L 229.454146 62.268393 
L 227.627143 60.378205 
L 225.800141 51.442624 
L 223.973138 61.401304 
L 222.146136 61.442415 
L 220.319133 70.389698 
L 218.492131 68.598234 
L 216.665128 57.932048 
L 214.838125 65.551432 
L 213.011123 71.365473 
L 211.18412 73.244149 
L 209.357118 64.184746 
L 207.530115 74.440466 
L 205.703113 65.350282 
L 203.87611 68.626805 
L 202.049108 65.832598 
L 200.222105 70.921129 
L 198.395103 71.572247 
L 196.5681 79.416308 
L 194.741098 79.800474 
L 192.914095 63.029939 
L 191.087093 70.001766 
L 189.26009 69.441611 
L 187.433087 65.455075 
L 185.606085 71.651683 
L 183.779082 79.461232 
L 181.95208 71.248459 
L 180.125077 78.432442 
L 178.298075 74.576115 
L 176.471072 77.724996 
L 174.64407 75.001169 
L 172.817067 69.157602 
L 170.990065 69.30794 
L 169.163062 70.654206 
L 167.33606 66.166946 
L 165.509057 86.221549 
L 163.682054 80.750682 
L 161.855052 76.573227 
L 160.028049 73.463825 
L 158.201047 72.655556 
L 156.374044 82.100931 
L 154.547042 75.759965 
L 152.720039 79.124049 
L 150.893037 76.802307 
L 149.066034 83.691355 
L 147.239032 80.597169 
L 145.412029 76.177374 
L 143.585027 79.764247 
L 141.758024 77.628026 
L 139.931021 84.005243 
L 138.104019 90.130349 
L 136.277016 76.11515 
L 134.450014 81.611399 
L 132.623011 84.156924 
L 130.796009 86.951143 
L 128.969006 80.675145 
L 127.142004 83.525782 
L 125.315001 88.583693 
L 123.487999 88.309145 
L 121.660996 77.206173 
L 119.833994 82.797123 
L 118.006991 82.081351 
L 116.179989 80.508016 
L 114.352986 95.012735 
L 112.525983 79.439221 
L 110.698981 83.937273 
L 108.871978 85.485817 
L 107.044976 82.446155 
L 105.217973 79.551784 
L 103.390971 77.514232 
L 101.563968 66.61642 
L 99.736966 81.960146 
L 97.909963 99.065524 
L 96.082961 90.335482 
L 94.255958 81.242392 
L 92.428956 84.960538 
L 90.601953 83.090883 
L 88.77495 77.670483 
L 86.947948 64.186286 
L 85.120945 75.603852 
L 83.293943 74.139064 
L 81.46694 72.624978 
L 79.639938 76.896311 
L 77.812935 77.201791 
L 75.985933 78.818498 
L 74.15893 83.769112 
L 72.331928 68.823019 
L 70.504925 69.79099 
L 68.677923 71.225066 
L 66.85092 93.234233 
L 65.023917 81.573611 
L 63.196915 86.874057 
L 61.369912 85.087496 
L 59.54291 89.379277 
L 57.715907 81.330387 
L 55.888905 74.971213 
L 54.061902 74.828703 
" clip-path="url(#pc2fef064d5)" style="fill: none; stroke: #ff00ff; stroke-opacity: 0.5; stroke-width: 0.5; stroke-linecap: square"/>
   </g>
   <g id="line2d_24">
    <path d="M 260.513189 126.792 
L 258.686186 126.792 
L 256.859184 126.792 
L 255.032181 126.792 
L 253.205179 126.792 
L 251.378176 64.427212 
L 249.551174 57.512752 
L 247.724171 57.031546 
L 245.897169 62.238283 
L 244.070166 60.824439 
L 242.243164 63.400094 
L 240.416161 66.70265 
L 238.589158 76.148725 
L 236.762156 71.420128 
L 234.935153 66.566842 
L 233.108151 66.913524 
L 231.281148 74.724449 
L 229.454146 80.579142 
L 227.627143 77.779357 
L 225.800141 79.768559 
L 223.973138 79.748783 
L 222.146136 73.708753 
L 220.319133 68.38599 
L 218.492131 68.140877 
L 216.665128 74.43415 
L 214.838125 68.923226 
L 213.011123 66.820748 
L 211.18412 66.482915 
L 209.357118 64.750718 
L 207.530115 57.5967 
L 205.703113 62.395063 
L 203.87611 63.463069 
L 202.049108 66.030699 
L 200.222105 59.221287 
L 198.395103 60.570493 
L 196.5681 61.81343 
L 194.741098 58.780683 
L 192.914095 64.52937 
L 191.087093 60.883609 
L 189.26009 61.819747 
L 187.433087 64.832312 
L 185.606085 60.545112 
L 183.779082 58.198734 
L 181.95208 60.858795 
L 180.125077 57.880876 
L 178.298075 64.406148 
L 176.471072 61.487571 
L 174.64407 60.107662 
L 172.817067 62.315909 
L 170.990065 63.593195 
L 169.163062 62.030098 
L 167.33606 59.391361 
L 165.509057 54.122806 
L 163.682054 60.546882 
L 161.855052 60.856555 
L 160.028049 62.217528 
L 158.201047 66.663075 
L 156.374044 55.561809 
L 154.547042 55.260768 
L 152.720039 55.346953 
L 150.893037 59.819399 
L 149.066034 54.875466 
L 147.239032 53.498672 
L 145.412029 57.753535 
L 143.585027 62.475309 
L 141.758024 61.47894 
L 139.931021 58.202279 
L 138.104019 52.775983 
L 136.277016 57.634865 
L 134.450014 52.460645 
L 132.623011 52.92161 
L 130.796009 57.169563 
L 128.969006 57.432386 
L 127.142004 52.418486 
L 125.315001 51.925956 
L 123.487999 58.014259 
L 121.660996 59.652481 
L 119.833994 52.713642 
L 118.006991 53.02341 
L 116.179989 55.551432 
L 114.352986 51.437013 
L 112.525983 61.626268 
L 110.698981 55.490946 
L 108.871978 55.760361 
L 107.044976 59.325703 
L 105.217973 59.188851 
L 103.390971 58.579947 
L 101.563968 59.675407 
L 99.736966 60.00562 
L 97.909963 49.857874 
L 96.082961 55.059165 
L 94.255958 53.072519 
L 92.428956 54.551173 
L 90.601953 48.596818 
L 88.77495 58.580809 
L 86.947948 64.170114 
L 85.120945 56.067346 
L 83.293943 56.194735 
L 81.46694 61.178585 
L 79.639938 59.271307 
L 77.812935 58.365199 
L 75.985933 57.816358 
L 74.15893 56.630137 
L 72.331928 69.316847 
L 70.504925 64.798726 
L 68.677923 64.469432 
L 66.85092 62.429913 
L 65.023917 60.048769 
L 63.196915 54.738414 
L 61.369912 50.89605 
L 59.54291 56.071187 
L 57.715907 56.111914 
L 55.888905 64.002423 
L 54.061902 58.101477 
" clip-path="url(#pc2fef064d5)" style="fill: none; stroke: #00bfff; stroke-width: 4; stroke-linecap: square"/>
   </g>
   <g id="line2d_25">
    <path d="M 260.513189 126.792 
L 258.686186 126.792 
L 256.859184 126.792 
L 255.032181 126.792 
L 253.205179 126.792 
L 251.378176 75.259645 
L 249.551174 82.174105 
L 247.724171 82.655311 
L 245.897169 77.448574 
L 244.070166 78.862418 
L 242.243164 76.286763 
L 240.416161 72.984207 
L 238.589158 63.538132 
L 236.762156 68.26673 
L 234.935153 73.120015 
L 233.108151 72.773333 
L 231.281148 64.962408 
L 229.454146 59.107715 
L 227.627143 61.9075 
L 225.800141 59.918298 
L 223.973138 59.938074 
L 222.146136 65.978104 
L 220.319133 71.300867 
L 218.492131 71.54598 
L 216.665128 65.252707 
L 214.838125 70.763631 
L 213.011123 72.866109 
L 211.18412 73.203942 
L 209.357118 74.936139 
L 207.530115 82.090157 
L 205.703113 77.291794 
L 203.87611 76.223788 
L 202.049108 73.656158 
L 200.222105 80.46557 
L 198.395103 79.116364 
L 196.5681 77.873427 
L 194.741098 80.906175 
L 192.914095 75.157487 
L 191.087093 78.803248 
L 189.26009 77.86711 
L 187.433087 74.854545 
L 185.606085 79.141745 
L 183.779082 81.488123 
L 181.95208 78.828062 
L 180.125077 81.805981 
L 178.298075 75.280709 
L 176.471072 78.199286 
L 174.64407 79.579195 
L 172.817067 77.370949 
L 170.990065 76.093662 
L 169.163062 77.656759 
L 167.33606 80.295496 
L 165.509057 85.564051 
L 163.682054 79.139975 
L 161.855052 78.830302 
L 160.028049 77.469329 
L 158.201047 73.023782 
L 156.374044 84.125048 
L 154.547042 84.426089 
L 152.720039 84.339904 
L 150.893037 79.867459 
L 149.066034 84.811391 
L 147.239032 86.188185 
L 145.412029 81.933323 
L 143.585027 77.211548 
L 141.758024 78.207918 
L 139.931021 81.484578 
L 138.104019 86.910874 
L 136.277016 82.051992 
L 134.450014 87.226212 
L 132.623011 86.765247 
L 130.796009 82.517294 
L 128.969006 82.254471 
L 127.142004 87.268371 
L 125.315001 87.760901 
L 123.487999 81.672598 
L 121.660996 80.034376 
L 119.833994 86.973215 
L 118.006991 86.663447 
L 116.179989 84.135425 
L 114.352986 88.249845 
L 112.525983 78.06059 
L 110.698981 84.195911 
L 108.871978 83.926497 
L 107.044976 80.361154 
L 105.217973 80.498006 
L 103.390971 81.10691 
L 101.563968 80.01145 
L 99.736966 79.681237 
L 97.909963 89.828983 
L 96.082961 84.627692 
L 94.255958 86.614338 
L 92.428956 85.135684 
L 90.601953 91.090039 
L 88.77495 81.106048 
L 86.947948 75.516743 
L 85.120945 83.619511 
L 83.293943 83.492122 
L 81.46694 78.508272 
L 79.639938 80.41555 
L 77.812935 81.321658 
L 75.985933 81.870499 
L 74.15893 83.05672 
L 72.331928 70.37001 
L 70.504925 74.888131 
L 68.677923 75.217426 
L 66.85092 77.256944 
L 65.023917 79.638089 
L 63.196915 84.948443 
L 61.369912 88.790807 
L 59.54291 83.615671 
L 57.715907 83.574943 
L 55.888905 75.684434 
L 54.061902 81.58538 
" clip-path="url(#pc2fef064d5)" style="fill: none; stroke: #ff00ff; stroke-width: 4; stroke-linecap: square"/>
   </g>
   <g id="line2d_26">
    <path d="M 251.378176 126.792 
L 251.378176 7.2 
" clip-path="url(#pc2fef064d5)" style="fill: none; stroke-dasharray: 1.5,2.475; stroke-dashoffset: 0; stroke: #000000; stroke-width: 1.5"/>
   </g>
   <g id="patch_3">
    <path d="M 53.94375 126.792 
L 53.94375 7.2 
" style="fill: none; stroke: #000000; stroke-linejoin: miter; stroke-linecap: square"/>
   </g>
   <g id="patch_4">
    <path d="M 260.40375 126.792 
L 260.40375 7.2 
" style="fill: none"/>
   </g>
   <g id="patch_5">
    <path d="M 53.94375 126.792 
L 260.40375 126.792 
" style="fill: none; stroke: #000000; stroke-linejoin: miter; stroke-linecap: square"/>
   </g>
   <g id="patch_6">
    <path d="M 53.94375 7.2 
L 260.40375 7.2 
" style="fill: none"/>
   </g>
   <g id="legend_1">
    <g id="patch_7">
     <path d="M 60.94375 121.792 
L 119.24375 121.792 
Q 121.24375 121.792 121.24375 119.792 
L 121.24375 91.413875 
Q 121.24375 89.413875 119.24375 89.413875 
L 60.94375 89.413875 
Q 58.94375 89.413875 58.94375 91.413875 
L 58.94375 119.792 
Q 58.94375 121.792 60.94375 121.792 
z
" style="fill: #ffffff; opacity: 0.8; stroke: #cccccc; stroke-linejoin: miter"/>
    </g>
    <g id="line2d_27">
     <path d="M 62.94375 97.512313 
L 72.94375 97.512313 
L 82.94375 97.512313 
" style="fill: none; stroke: #ff00ff; stroke-width: 4; stroke-linecap: square"/>
    </g>
    <g id="text_10">
     <!-- WT -->
     <g transform="translate(90.94375 101.012313) scale(0.1 -0.1)">
      <defs>
       <path id="DejaVuSans-57" d="M 213 4666 
L 850 4666 
L 1831 722 
L 2809 4666 
L 3519 4666 
L 4500 722 
L 5478 4666 
L 6119 4666 
L 4947 0 
L 4153 0 
L 3169 4050 
L 2175 0 
L 1381 0 
L 213 4666 
z
" transform="scale(0.015625)"/>
       <path id="DejaVuSans-54" d="M -19 4666 
L 3928 4666 
L 3928 4134 
L 2272 4134 
L 2272 0 
L 1638 0 
L 1638 4134 
L -19 4134 
L -19 4666 
z
" transform="scale(0.015625)"/>
      </defs>
      <use xlink:href="#DejaVuSans-57"/>
      <use xlink:href="#DejaVuSans-54" x="98.876953"/>
     </g>
    </g>
    <g id="line2d_28">
     <path d="M 62.94375 112.192 
L 72.94375 112.192 
L 82.94375 112.192 
" style="fill: none; stroke: #00bfff; stroke-width: 4; stroke-linecap: square"/>
    </g>
    <g id="text_11">
     <!-- $\Delta\mathit{pilH}$ -->
     <g transform="translate(90.94375 115.692) scale(0.1 -0.1)">
      <defs>
       <path id="DejaVuSans-394" d="M 2188 4044 
L 906 525 
L 3472 525 
L 2188 4044 
z
M 50 0 
L 1831 4666 
L 2547 4666 
L 4325 0 
L 50 0 
z
" transform="scale(0.015625)"/>
       <path id="DejaVuSans-Oblique-70" d="M 3175 2156 
Q 3175 2616 2975 2859 
Q 2775 3103 2400 3103 
Q 2144 3103 1911 2972 
Q 1678 2841 1497 2591 
Q 1319 2344 1212 1994 
Q 1106 1644 1106 1300 
Q 1106 863 1306 627 
Q 1506 391 1875 391 
Q 2147 391 2380 519 
Q 2613 647 2778 891 
Q 2956 1147 3065 1494 
Q 3175 1841 3175 2156 
z
M 1394 2969 
Q 1625 3272 1939 3428 
Q 2253 3584 2638 3584 
Q 3175 3584 3472 3232 
Q 3769 2881 3769 2247 
Q 3769 1728 3584 1258 
Q 3400 788 3053 416 
Q 2822 169 2531 39 
Q 2241 -91 1919 -91 
Q 1547 -91 1294 64 
Q 1041 219 916 525 
L 556 -1331 
L -19 -1331 
L 922 3500 
L 1497 3500 
L 1394 2969 
z
" transform="scale(0.015625)"/>
       <path id="DejaVuSans-Oblique-69" d="M 1172 4863 
L 1747 4863 
L 1606 4134 
L 1031 4134 
L 1172 4863 
z
M 909 3500 
L 1484 3500 
L 800 0 
L 225 0 
L 909 3500 
z
" transform="scale(0.015625)"/>
       <path id="DejaVuSans-Oblique-6c" d="M 1172 4863 
L 1747 4863 
L 800 0 
L 225 0 
L 1172 4863 
z
" transform="scale(0.015625)"/>
       <path id="DejaVuSans-Oblique-48" d="M 1081 4666 
L 1716 4666 
L 1344 2753 
L 3634 2753 
L 4006 4666 
L 4641 4666 
L 3731 0 
L 3097 0 
L 3531 2222 
L 1241 2222 
L 806 0 
L 172 0 
L 1081 4666 
z
" transform="scale(0.015625)"/>
      </defs>
      <use xlink:href="#DejaVuSans-394" transform="translate(0 0.015625)"/>
      <use xlink:href="#DejaVuSans-Oblique-70" transform="translate(68.408203 0.015625)"/>
      <use xlink:href="#DejaVuSans-Oblique-69" transform="translate(131.884766 0.015625)"/>
      <use xlink:href="#DejaVuSans-Oblique-6c" transform="translate(159.667969 0.015625)"/>
      <use xlink:href="#DejaVuSans-Oblique-48" transform="translate(187.451172 0.015625)"/>
     </g>
    </g>
   </g>
  </g>
 </g>
 <defs>
  <clipPath id="pc2fef064d5">
   <rect x="53.94375" y="7.2" width="206.46" height="119.592"/>
  </clipPath>
 </defs>
</svg>
