<?xml version="1.0" encoding="utf-8" standalone="no"?>
<!DOCTYPE svg PUBLIC "-//W3C//DTD SVG 1.1//EN"
  "http://www.w3.org/Graphics/SVG/1.1/DTD/svg11.dtd">
<svg xmlns:xlink="http://www.w3.org/1999/xlink" width="267.60375pt" height="174.433563pt" viewBox="0 0 267.60375 174.433563" xmlns="http://www.w3.org/2000/svg" version="1.1">
 <metadata>
  <rdf:RDF xmlns:dc="http://purl.org/dc/elements/1.1/" xmlns:cc="http://creativecommons.org/ns#" xmlns:rdf="http://www.w3.org/1999/02/22-rdf-syntax-ns#">
   <cc:Work>
    <dc:type rdf:resource="http://purl.org/dc/dcmitype/StillImage"/>
    <dc:date>2026-05-26T16:05:04.139834</dc:date>
    <dc:format>image/svg+xml</dc:format>
    <dc:creator>
     <cc:Agent>
      <dc:title>Matplotlib v3.9.4, https://matplotlib.org/</dc:title>
     </cc:Agent>
    </dc:creator>
   </cc:Work>
  </rdf:RDF>
 </metadata>
 <defs>
  <style type="text/css">*{stroke-linejoin: round; stroke-linecap: butt}</style>
 </defs>
 <g id="figure_1">
  <g id="patch_1">
   <path d="M 0 174.433563 
L 267.60375 174.433563 
L 267.60375 0 
L 0 0 
L 0 174.433563 
z
" style="fill: none"/>
  </g>
  <g id="axes_1">
   <g id="patch_2">
    <path d="M 53.94375 126.792 
L 260.40375 126.792 
L 260.40375 7.2 
L 53.94375 7.2 
L 53.94375 126.792 
z
" style="fill: none"/>
   </g>
   <g id="matplotlib.axis_1">
    <g id="xtick_1">
     <g id="line2d_1">
      <defs>
       <path id="mc484c1aeda" d="M 0 0 
L 0 7 
" style="stroke: #000000; stroke-width: 1.25"/>
      </defs>
      <g>
       <use xlink:href="#mc484c1aeda" x="251.378176" y="126.792" style="stroke: #000000; stroke-width: 1.25"/>
      </g>
     </g>
     <g id="text_1">
      <!-- 0 -->
      <g transform="translate(247.48552 147.312938) scale(0.14 -0.14)">
       <defs>
        <path id="ArialMT-30" d="M 266 2259 
Q 266 3072 433 3567 
Q 600 4063 929 4331 
Q 1259 4600 1759 4600 
Q 2128 4600 2406 4451 
Q 2684 4303 2865 4023 
Q 3047 3744 3150 3342 
Q 3253 2941 3253 2259 
Q 3253 1453 3087 958 
Q 2922 463 2592 192 
Q 2263 -78 1759 -78 
Q 1097 -78 719 397 
Q 266 969 266 2259 
z
M 844 2259 
Q 844 1131 1108 757 
Q 1372 384 1759 384 
Q 2147 384 2411 759 
Q 2675 1134 2675 2259 
Q 2675 3391 2411 3762 
Q 2147 4134 1753 4134 
Q 1366 4134 1134 3806 
Q 844 3388 844 2259 
z
" transform="scale(0.015625)"/>
       </defs>
       <use xlink:href="#ArialMT-30"/>
      </g>
     </g>
    </g>
    <g id="xtick_2">
     <g id="line2d_2">
      <g>
       <use xlink:href="#mc484c1aeda" x="194.96834" y="126.792" style="stroke: #000000; stroke-width: 1.25"/>
      </g>
     </g>
     <g id="text_2">
      <!-- 100 -->
      <g transform="translate(183.290371 147.312938) scale(0.14 -0.14)">
       <defs>
        <path id="ArialMT-31" d="M 2384 0 
L 1822 0 
L 1822 3584 
Q 1619 3391 1289 3197 
Q 959 3003 697 2906 
L 697 3450 
Q 1169 3672 1522 3987 
Q 1875 4303 2022 4600 
L 2384 4600 
L 2384 0 
z
" transform="scale(0.015625)"/>
       </defs>
       <use xlink:href="#ArialMT-31"/>
       <use xlink:href="#ArialMT-30" x="55.615234"/>
       <use xlink:href="#ArialMT-30" x="111.230469"/>
      </g>
     </g>
    </g>
    <g id="xtick_3">
     <g id="line2d_3">
      <g>
       <use xlink:href="#mc484c1aeda" x="138.558504" y="126.792" style="stroke: #000000; stroke-width: 1.25"/>
      </g>
     </g>
     <g id="text_3">
      <!-- 200 -->
      <g transform="translate(126.880535 147.312938) scale(0.14 -0.14)">
       <defs>
        <path id="ArialMT-32" d="M 3222 541 
L 3222 0 
L 194 0 
Q 188 203 259 391 
Q 375 700 629 1000 
Q 884 1300 1366 1694 
Q 2113 2306 2375 2664 
Q 2638 3022 2638 3341 
Q 2638 3675 2398 3904 
Q 2159 4134 1775 4134 
Q 1369 4134 1125 3890 
Q 881 3647 878 3216 
L 300 3275 
Q 359 3922 746 4261 
Q 1134 4600 1788 4600 
Q 2447 4600 2831 4234 
Q 3216 3869 3216 3328 
Q 3216 3053 3103 2787 
Q 2991 2522 2730 2228 
Q 2469 1934 1863 1422 
Q 1356 997 1212 845 
Q 1069 694 975 541 
L 3222 541 
z
" transform="scale(0.015625)"/>
       </defs>
       <use xlink:href="#ArialMT-32"/>
       <use xlink:href="#ArialMT-30" x="55.615234"/>
       <use xlink:href="#ArialMT-30" x="111.230469"/>
      </g>
     </g>
    </g>
    <g id="xtick_4">
     <g id="line2d_4">
      <g>
       <use xlink:href="#mc484c1aeda" x="82.148668" y="126.792" style="stroke: #000000; stroke-width: 1.25"/>
      </g>
     </g>
     <g id="text_4">
      <!-- 300 -->
      <g transform="translate(70.470699 147.312938) scale(0.14 -0.14)">
       <defs>
        <path id="ArialMT-33" d="M 269 1209 
L 831 1284 
Q 928 806 1161 595 
Q 1394 384 1728 384 
Q 2125 384 2398 659 
Q 2672 934 2672 1341 
Q 2672 1728 2419 1979 
Q 2166 2231 1775 2231 
Q 1616 2231 1378 2169 
L 1441 2663 
Q 1497 2656 1531 2656 
Q 1891 2656 2178 2843 
Q 2466 3031 2466 3422 
Q 2466 3731 2256 3934 
Q 2047 4138 1716 4138 
Q 1388 4138 1169 3931 
Q 950 3725 888 3313 
L 325 3413 
Q 428 3978 793 4289 
Q 1159 4600 1703 4600 
Q 2078 4600 2393 4439 
Q 2709 4278 2876 4000 
Q 3044 3722 3044 3409 
Q 3044 3113 2884 2869 
Q 2725 2625 2413 2481 
Q 2819 2388 3044 2092 
Q 3269 1797 3269 1353 
Q 3269 753 2831 336 
Q 2394 -81 1725 -81 
Q 1122 -81 723 278 
Q 325 638 269 1209 
z
" transform="scale(0.015625)"/>
       </defs>
       <use xlink:href="#ArialMT-33"/>
       <use xlink:href="#ArialMT-30" x="55.615234"/>
       <use xlink:href="#ArialMT-30" x="111.230469"/>
      </g>
     </g>
    </g>
    <g id="text_5">
     <!-- Distance from the edge (µm) -->
     <g transform="translate(62.907813 164.287) scale(0.14 -0.14)">
      <defs>
       <path id="Arial-BoldMT-44" d="M 463 4581 
L 2153 4581 
Q 2725 4581 3025 4494 
Q 3428 4375 3715 4072 
Q 4003 3769 4153 3330 
Q 4303 2891 4303 2247 
Q 4303 1681 4163 1272 
Q 3991 772 3672 463 
Q 3431 228 3022 97 
Q 2716 0 2203 0 
L 463 0 
L 463 4581 
z
M 1388 3806 
L 1388 772 
L 2078 772 
Q 2466 772 2638 816 
Q 2863 872 3011 1006 
Q 3159 1141 3253 1448 
Q 3347 1756 3347 2288 
Q 3347 2819 3253 3103 
Q 3159 3388 2990 3547 
Q 2822 3706 2563 3763 
Q 2369 3806 1803 3806 
L 1388 3806 
z
" transform="scale(0.015625)"/>
       <path id="Arial-BoldMT-69" d="M 459 3769 
L 459 4581 
L 1338 4581 
L 1338 3769 
L 459 3769 
z
M 459 0 
L 459 3319 
L 1338 3319 
L 1338 0 
L 459 0 
z
" transform="scale(0.015625)"/>
       <path id="Arial-BoldMT-73" d="M 150 947 
L 1031 1081 
Q 1088 825 1259 692 
Q 1431 559 1741 559 
Q 2081 559 2253 684 
Q 2369 772 2369 919 
Q 2369 1019 2306 1084 
Q 2241 1147 2013 1200 
Q 950 1434 666 1628 
Q 272 1897 272 2375 
Q 272 2806 612 3100 
Q 953 3394 1669 3394 
Q 2350 3394 2681 3172 
Q 3013 2950 3138 2516 
L 2309 2363 
Q 2256 2556 2107 2659 
Q 1959 2763 1684 2763 
Q 1338 2763 1188 2666 
Q 1088 2597 1088 2488 
Q 1088 2394 1175 2328 
Q 1294 2241 1995 2081 
Q 2697 1922 2975 1691 
Q 3250 1456 3250 1038 
Q 3250 581 2869 253 
Q 2488 -75 1741 -75 
Q 1063 -75 667 200 
Q 272 475 150 947 
z
" transform="scale(0.015625)"/>
       <path id="Arial-BoldMT-74" d="M 1981 3319 
L 1981 2619 
L 1381 2619 
L 1381 1281 
Q 1381 875 1398 808 
Q 1416 741 1477 697 
Q 1538 653 1625 653 
Q 1747 653 1978 738 
L 2053 56 
Q 1747 -75 1359 -75 
Q 1122 -75 931 4 
Q 741 84 652 211 
Q 563 338 528 553 
Q 500 706 500 1172 
L 500 2619 
L 97 2619 
L 97 3319 
L 500 3319 
L 500 3978 
L 1381 4491 
L 1381 3319 
L 1981 3319 
z
" transform="scale(0.015625)"/>
       <path id="Arial-BoldMT-61" d="M 1116 2306 
L 319 2450 
Q 453 2931 781 3162 
Q 1109 3394 1756 3394 
Q 2344 3394 2631 3255 
Q 2919 3116 3036 2902 
Q 3153 2688 3153 2116 
L 3144 1091 
Q 3144 653 3186 445 
Q 3228 238 3344 0 
L 2475 0 
Q 2441 88 2391 259 
Q 2369 338 2359 363 
Q 2134 144 1878 34 
Q 1622 -75 1331 -75 
Q 819 -75 523 203 
Q 228 481 228 906 
Q 228 1188 362 1408 
Q 497 1628 739 1745 
Q 981 1863 1438 1950 
Q 2053 2066 2291 2166 
L 2291 2253 
Q 2291 2506 2166 2614 
Q 2041 2722 1694 2722 
Q 1459 2722 1328 2630 
Q 1197 2538 1116 2306 
z
M 2291 1594 
Q 2122 1538 1756 1459 
Q 1391 1381 1278 1306 
Q 1106 1184 1106 997 
Q 1106 813 1243 678 
Q 1381 544 1594 544 
Q 1831 544 2047 700 
Q 2206 819 2256 991 
Q 2291 1103 2291 1419 
L 2291 1594 
z
" transform="scale(0.015625)"/>
       <path id="Arial-BoldMT-6e" d="M 3478 0 
L 2600 0 
L 2600 1694 
Q 2600 2231 2544 2389 
Q 2488 2547 2361 2634 
Q 2234 2722 2056 2722 
Q 1828 2722 1647 2597 
Q 1466 2472 1398 2265 
Q 1331 2059 1331 1503 
L 1331 0 
L 453 0 
L 453 3319 
L 1269 3319 
L 1269 2831 
Q 1703 3394 2363 3394 
Q 2653 3394 2893 3289 
Q 3134 3184 3257 3021 
Q 3381 2859 3429 2653 
Q 3478 2447 3478 2063 
L 3478 0 
z
" transform="scale(0.015625)"/>
       <path id="Arial-BoldMT-63" d="M 3353 2338 
L 2488 2181 
Q 2444 2441 2289 2572 
Q 2134 2703 1888 2703 
Q 1559 2703 1364 2476 
Q 1169 2250 1169 1719 
Q 1169 1128 1367 884 
Q 1566 641 1900 641 
Q 2150 641 2309 783 
Q 2469 925 2534 1272 
L 3397 1125 
Q 3263 531 2881 228 
Q 2500 -75 1859 -75 
Q 1131 -75 698 384 
Q 266 844 266 1656 
Q 266 2478 700 2936 
Q 1134 3394 1875 3394 
Q 2481 3394 2839 3133 
Q 3197 2872 3353 2338 
z
" transform="scale(0.015625)"/>
       <path id="Arial-BoldMT-65" d="M 2381 1056 
L 3256 909 
Q 3088 428 2723 176 
Q 2359 -75 1813 -75 
Q 947 -75 531 491 
Q 203 944 203 1634 
Q 203 2459 634 2926 
Q 1066 3394 1725 3394 
Q 2466 3394 2894 2905 
Q 3322 2416 3303 1406 
L 1103 1406 
Q 1113 1016 1316 798 
Q 1519 581 1822 581 
Q 2028 581 2168 693 
Q 2309 806 2381 1056 
z
M 2431 1944 
Q 2422 2325 2234 2523 
Q 2047 2722 1778 2722 
Q 1491 2722 1303 2513 
Q 1116 2303 1119 1944 
L 2431 1944 
z
" transform="scale(0.015625)"/>
       <path id="Arial-BoldMT-20" transform="scale(0.015625)"/>
       <path id="Arial-BoldMT-66" d="M 75 3319 
L 563 3319 
L 563 3569 
Q 563 3988 652 4194 
Q 741 4400 980 4529 
Q 1219 4659 1584 4659 
Q 1959 4659 2319 4547 
L 2200 3934 
Q 1991 3984 1797 3984 
Q 1606 3984 1523 3895 
Q 1441 3806 1441 3553 
L 1441 3319 
L 2097 3319 
L 2097 2628 
L 1441 2628 
L 1441 0 
L 563 0 
L 563 2628 
L 75 2628 
L 75 3319 
z
" transform="scale(0.015625)"/>
       <path id="Arial-BoldMT-72" d="M 1300 0 
L 422 0 
L 422 3319 
L 1238 3319 
L 1238 2847 
Q 1447 3181 1614 3287 
Q 1781 3394 1994 3394 
Q 2294 3394 2572 3228 
L 2300 2463 
Q 2078 2606 1888 2606 
Q 1703 2606 1575 2504 
Q 1447 2403 1373 2137 
Q 1300 1872 1300 1025 
L 1300 0 
z
" transform="scale(0.015625)"/>
       <path id="Arial-BoldMT-6f" d="M 256 1706 
Q 256 2144 472 2553 
Q 688 2963 1083 3178 
Q 1478 3394 1966 3394 
Q 2719 3394 3200 2905 
Q 3681 2416 3681 1669 
Q 3681 916 3195 420 
Q 2709 -75 1972 -75 
Q 1516 -75 1102 131 
Q 688 338 472 736 
Q 256 1134 256 1706 
z
M 1156 1659 
Q 1156 1166 1390 903 
Q 1625 641 1969 641 
Q 2313 641 2545 903 
Q 2778 1166 2778 1666 
Q 2778 2153 2545 2415 
Q 2313 2678 1969 2678 
Q 1625 2678 1390 2415 
Q 1156 2153 1156 1659 
z
" transform="scale(0.015625)"/>
       <path id="Arial-BoldMT-6d" d="M 394 3319 
L 1203 3319 
L 1203 2866 
Q 1638 3394 2238 3394 
Q 2556 3394 2790 3262 
Q 3025 3131 3175 2866 
Q 3394 3131 3647 3262 
Q 3900 3394 4188 3394 
Q 4553 3394 4806 3245 
Q 5059 3097 5184 2809 
Q 5275 2597 5275 2122 
L 5275 0 
L 4397 0 
L 4397 1897 
Q 4397 2391 4306 2534 
Q 4184 2722 3931 2722 
Q 3747 2722 3584 2609 
Q 3422 2497 3350 2280 
Q 3278 2063 3278 1594 
L 3278 0 
L 2400 0 
L 2400 1819 
Q 2400 2303 2353 2443 
Q 2306 2584 2207 2653 
Q 2109 2722 1941 2722 
Q 1738 2722 1575 2612 
Q 1413 2503 1342 2297 
Q 1272 2091 1272 1613 
L 1272 0 
L 394 0 
L 394 3319 
z
" transform="scale(0.015625)"/>
       <path id="Arial-BoldMT-68" d="M 1334 4581 
L 1334 2897 
Q 1759 3394 2350 3394 
Q 2653 3394 2897 3281 
Q 3141 3169 3264 2994 
Q 3388 2819 3433 2606 
Q 3478 2394 3478 1947 
L 3478 0 
L 2600 0 
L 2600 1753 
Q 2600 2275 2550 2415 
Q 2500 2556 2373 2639 
Q 2247 2722 2056 2722 
Q 1838 2722 1666 2615 
Q 1494 2509 1414 2295 
Q 1334 2081 1334 1663 
L 1334 0 
L 456 0 
L 456 4581 
L 1334 4581 
z
" transform="scale(0.015625)"/>
       <path id="Arial-BoldMT-64" d="M 3503 0 
L 2688 0 
L 2688 488 
Q 2484 203 2207 64 
Q 1931 -75 1650 -75 
Q 1078 -75 670 386 
Q 263 847 263 1672 
Q 263 2516 659 2955 
Q 1056 3394 1663 3394 
Q 2219 3394 2625 2931 
L 2625 4581 
L 3503 4581 
L 3503 0 
z
M 1159 1731 
Q 1159 1200 1306 963 
Q 1519 619 1900 619 
Q 2203 619 2415 876 
Q 2628 1134 2628 1647 
Q 2628 2219 2422 2470 
Q 2216 2722 1894 2722 
Q 1581 2722 1370 2473 
Q 1159 2225 1159 1731 
z
" transform="scale(0.015625)"/>
       <path id="Arial-BoldMT-67" d="M 378 -219 
L 1381 -341 
Q 1406 -516 1497 -581 
Q 1622 -675 1891 -675 
Q 2234 -675 2406 -572 
Q 2522 -503 2581 -350 
Q 2622 -241 2622 53 
L 2622 538 
Q 2228 0 1628 0 
Q 959 0 569 566 
Q 263 1013 263 1678 
Q 263 2513 664 2953 
Q 1066 3394 1663 3394 
Q 2278 3394 2678 2853 
L 2678 3319 
L 3500 3319 
L 3500 341 
Q 3500 -247 3403 -537 
Q 3306 -828 3131 -993 
Q 2956 -1159 2664 -1253 
Q 2372 -1347 1925 -1347 
Q 1081 -1347 728 -1058 
Q 375 -769 375 -325 
Q 375 -281 378 -219 
z
M 1163 1728 
Q 1163 1200 1367 954 
Q 1572 709 1872 709 
Q 2194 709 2416 961 
Q 2638 1213 2638 1706 
Q 2638 2222 2425 2472 
Q 2213 2722 1888 2722 
Q 1572 2722 1367 2476 
Q 1163 2231 1163 1728 
z
" transform="scale(0.015625)"/>
       <path id="Arial-BoldMT-28" d="M 1916 -1347 
L 1313 -1347 
Q 834 -625 584 153 
Q 334 931 334 1659 
Q 334 2563 644 3369 
Q 913 4069 1325 4659 
L 1925 4659 
Q 1497 3713 1336 3048 
Q 1175 2384 1175 1641 
Q 1175 1128 1270 590 
Q 1366 53 1531 -431 
Q 1641 -750 1916 -1347 
z
" transform="scale(0.015625)"/>
       <path id="Arial-BoldMT-b5" d="M 347 3319 
L 1219 3319 
L 1219 1816 
Q 1219 1166 1350 931 
Q 1516 628 1841 628 
Q 2016 628 2172 740 
Q 2328 853 2403 1053 
Q 2478 1253 2478 1806 
L 2478 3319 
L 3366 3319 
L 3366 0 
L 2547 0 
L 2547 400 
Q 2453 225 2368 137 
Q 2284 50 2142 -15 
Q 2000 -81 1881 -81 
Q 1659 -81 1488 41 
Q 1366 131 1219 400 
L 1219 -1272 
L 347 -1272 
L 347 3319 
z
" transform="scale(0.015625)"/>
       <path id="Arial-BoldMT-29" d="M 216 -1347 
Q 475 -791 581 -494 
Q 688 -197 778 190 
Q 869 578 912 926 
Q 956 1275 956 1641 
Q 956 2384 797 3048 
Q 638 3713 209 4659 
L 806 4659 
Q 1278 3988 1539 3234 
Q 1800 2481 1800 1706 
Q 1800 1053 1594 306 
Q 1359 -531 822 -1347 
L 216 -1347 
z
" transform="scale(0.015625)"/>
      </defs>
      <use xlink:href="#Arial-BoldMT-44"/>
      <use xlink:href="#Arial-BoldMT-69" x="72.216797"/>
      <use xlink:href="#Arial-BoldMT-73" x="100"/>
      <use xlink:href="#Arial-BoldMT-74" x="155.615234"/>
      <use xlink:href="#Arial-BoldMT-61" x="188.916016"/>
      <use xlink:href="#Arial-BoldMT-6e" x="244.53125"/>
      <use xlink:href="#Arial-BoldMT-63" x="305.615234"/>
      <use xlink:href="#Arial-BoldMT-65" x="361.230469"/>
      <use xlink:href="#Arial-BoldMT-20" x="416.845703"/>
      <use xlink:href="#Arial-BoldMT-66" x="444.628906"/>
      <use xlink:href="#Arial-BoldMT-72" x="477.929688"/>
      <use xlink:href="#Arial-BoldMT-6f" x="516.845703"/>
      <use xlink:href="#Arial-BoldMT-6d" x="577.929688"/>
      <use xlink:href="#Arial-BoldMT-20" x="666.845703"/>
      <use xlink:href="#Arial-BoldMT-74" x="694.628906"/>
      <use xlink:href="#Arial-BoldMT-68" x="727.929688"/>
      <use xlink:href="#Arial-BoldMT-65" x="789.013672"/>
      <use xlink:href="#Arial-BoldMT-20" x="844.628906"/>
      <use xlink:href="#Arial-BoldMT-65" x="872.412109"/>
      <use xlink:href="#Arial-BoldMT-64" x="928.027344"/>
      <use xlink:href="#Arial-BoldMT-67" x="989.111328"/>
      <use xlink:href="#Arial-BoldMT-65" x="1050.195312"/>
      <use xlink:href="#Arial-BoldMT-20" x="1105.810547"/>
      <use xlink:href="#Arial-BoldMT-28" x="1133.59375"/>
      <use xlink:href="#Arial-BoldMT-b5" x="1166.894531"/>
      <use xlink:href="#Arial-BoldMT-6d" x="1224.511719"/>
      <use xlink:href="#Arial-BoldMT-29" x="1313.427734"/>
     </g>
    </g>
   </g>
   <g id="matplotlib.axis_2">
    <g id="ytick_1">
     <g id="line2d_5">
      <defs>
       <path id="m487cd7f5ef" d="M 0 0 
L -7 0 
" style="stroke: #000000; stroke-width: 1.25"/>
      </defs>
      <g>
       <use xlink:href="#m487cd7f5ef" x="53.94375" y="126.792" style="stroke: #000000; stroke-width: 1.25"/>
      </g>
     </g>
     <g id="text_6">
      <!-- 0.0 -->
      <g transform="translate(23.98375 131.802469) scale(0.14 -0.14)">
       <defs>
        <path id="ArialMT-2e" d="M 581 0 
L 581 641 
L 1222 641 
L 1222 0 
L 581 0 
z
" transform="scale(0.015625)"/>
       </defs>
       <use xlink:href="#ArialMT-30"/>
       <use xlink:href="#ArialMT-2e" x="55.615234"/>
       <use xlink:href="#ArialMT-30" x="83.398438"/>
      </g>
     </g>
    </g>
    <g id="ytick_2">
     <g id="line2d_6">
      <g>
       <use xlink:href="#m487cd7f5ef" x="53.94375" y="69.843429" style="stroke: #000000; stroke-width: 1.25"/>
      </g>
     </g>
     <g id="text_7">
      <!-- 0.5 -->
      <g transform="translate(23.98375 74.853897) scale(0.14 -0.14)">
       <defs>
        <path id="ArialMT-35" d="M 266 1200 
L 856 1250 
Q 922 819 1161 601 
Q 1400 384 1738 384 
Q 2144 384 2425 690 
Q 2706 997 2706 1503 
Q 2706 1984 2436 2262 
Q 2166 2541 1728 2541 
Q 1456 2541 1237 2417 
Q 1019 2294 894 2097 
L 366 2166 
L 809 4519 
L 3088 4519 
L 3088 3981 
L 1259 3981 
L 1013 2750 
Q 1425 3038 1878 3038 
Q 2478 3038 2890 2622 
Q 3303 2206 3303 1553 
Q 3303 931 2941 478 
Q 2500 -78 1738 -78 
Q 1113 -78 717 272 
Q 322 622 266 1200 
z
" transform="scale(0.015625)"/>
       </defs>
       <use xlink:href="#ArialMT-30"/>
       <use xlink:href="#ArialMT-2e" x="55.615234"/>
       <use xlink:href="#ArialMT-35" x="83.398438"/>
      </g>
     </g>
    </g>
    <g id="ytick_3">
     <g id="line2d_7">
      <g>
       <use xlink:href="#m487cd7f5ef" x="53.94375" y="12.894857" style="stroke: #000000; stroke-width: 1.25"/>
      </g>
     </g>
     <g id="text_8">
      <!-- 1.0 -->
      <g transform="translate(23.98375 17.905326) scale(0.14 -0.14)">
       <use xlink:href="#ArialMT-31"/>
       <use xlink:href="#ArialMT-2e" x="55.615234"/>
       <use xlink:href="#ArialMT-30" x="83.398438"/>
      </g>
     </g>
    </g>
    <g id="ytick_4">
     <g id="line2d_8">
      <defs>
       <path id="m42e0741c1e" d="M 0 0 
L -4 0 
" style="stroke: #000000; stroke-width: 1.25"/>
      </defs>
      <g>
       <use xlink:href="#m42e0741c1e" x="53.94375" y="98.317714" style="stroke: #000000; stroke-width: 1.25"/>
      </g>
     </g>
    </g>
    <g id="ytick_5">
     <g id="line2d_9">
      <g>
       <use xlink:href="#m42e0741c1e" x="53.94375" y="41.369143" style="stroke: #000000; stroke-width: 1.25"/>
      </g>
     </g>
    </g>
    <g id="text_9">
     <!-- Relative abundance -->
     <g transform="translate(17.220938 132.73475) rotate(-90) scale(0.14 -0.14)">
      <defs>
       <path id="Arial-BoldMT-52" d="M 469 0 
L 469 4581 
L 2416 4581 
Q 3150 4581 3483 4457 
Q 3816 4334 4016 4018 
Q 4216 3703 4216 3297 
Q 4216 2781 3912 2445 
Q 3609 2109 3006 2022 
Q 3306 1847 3501 1637 
Q 3697 1428 4028 894 
L 4588 0 
L 3481 0 
L 2813 997 
Q 2456 1531 2325 1670 
Q 2194 1809 2047 1861 
Q 1900 1913 1581 1913 
L 1394 1913 
L 1394 0 
L 469 0 
z
M 1394 2644 
L 2078 2644 
Q 2744 2644 2909 2700 
Q 3075 2756 3169 2893 
Q 3263 3031 3263 3238 
Q 3263 3469 3139 3611 
Q 3016 3753 2791 3791 
Q 2678 3806 2116 3806 
L 1394 3806 
L 1394 2644 
z
" transform="scale(0.015625)"/>
       <path id="Arial-BoldMT-6c" d="M 459 0 
L 459 4581 
L 1338 4581 
L 1338 0 
L 459 0 
z
" transform="scale(0.015625)"/>
       <path id="Arial-BoldMT-76" d="M 1372 0 
L 34 3319 
L 956 3319 
L 1581 1625 
L 1763 1059 
Q 1834 1275 1853 1344 
Q 1897 1484 1947 1625 
L 2578 3319 
L 3481 3319 
L 2163 0 
L 1372 0 
z
" transform="scale(0.015625)"/>
       <path id="Arial-BoldMT-62" d="M 422 0 
L 422 4581 
L 1300 4581 
L 1300 2931 
Q 1706 3394 2263 3394 
Q 2869 3394 3266 2955 
Q 3663 2516 3663 1694 
Q 3663 844 3258 384 
Q 2853 -75 2275 -75 
Q 1991 -75 1714 67 
Q 1438 209 1238 488 
L 1238 0 
L 422 0 
z
M 1294 1731 
Q 1294 1216 1456 969 
Q 1684 619 2063 619 
Q 2353 619 2558 867 
Q 2763 1116 2763 1650 
Q 2763 2219 2556 2470 
Q 2350 2722 2028 2722 
Q 1713 2722 1503 2476 
Q 1294 2231 1294 1731 
z
" transform="scale(0.015625)"/>
       <path id="Arial-BoldMT-75" d="M 2644 0 
L 2644 497 
Q 2463 231 2167 78 
Q 1872 -75 1544 -75 
Q 1209 -75 943 72 
Q 678 219 559 484 
Q 441 750 441 1219 
L 441 3319 
L 1319 3319 
L 1319 1794 
Q 1319 1094 1367 936 
Q 1416 778 1544 686 
Q 1672 594 1869 594 
Q 2094 594 2272 717 
Q 2450 841 2515 1023 
Q 2581 1206 2581 1919 
L 2581 3319 
L 3459 3319 
L 3459 0 
L 2644 0 
z
" transform="scale(0.015625)"/>
      </defs>
      <use xlink:href="#Arial-BoldMT-52"/>
      <use xlink:href="#Arial-BoldMT-65" x="72.216797"/>
      <use xlink:href="#Arial-BoldMT-6c" x="127.832031"/>
      <use xlink:href="#Arial-BoldMT-61" x="155.615234"/>
      <use xlink:href="#Arial-BoldMT-74" x="211.230469"/>
      <use xlink:href="#Arial-BoldMT-69" x="244.53125"/>
      <use xlink:href="#Arial-BoldMT-76" x="272.314453"/>
      <use xlink:href="#Arial-BoldMT-65" x="327.929688"/>
      <use xlink:href="#Arial-BoldMT-20" x="383.544922"/>
      <use xlink:href="#Arial-BoldMT-61" x="411.328125"/>
      <use xlink:href="#Arial-BoldMT-62" x="466.943359"/>
      <use xlink:href="#Arial-BoldMT-75" x="528.027344"/>
      <use xlink:href="#Arial-BoldMT-6e" x="589.111328"/>
      <use xlink:href="#Arial-BoldMT-64" x="650.195312"/>
      <use xlink:href="#Arial-BoldMT-61" x="711.279297"/>
      <use xlink:href="#Arial-BoldMT-6e" x="766.894531"/>
      <use xlink:href="#Arial-BoldMT-63" x="827.978516"/>
      <use xlink:href="#Arial-BoldMT-65" x="883.59375"/>
     </g>
    </g>
   </g>
   <g id="line2d_10">
    <path d="M 260.513189 126.792 
L 258.686186 126.792 
L 256.859184 126.792 
L 255.032181 126.792 
L 253.205179 126.792 
L 251.378176 124.95099 
L 249.551174 121.977479 
L 247.724171 118.547814 
L 245.897169 119.538805 
L 244.070166 114.709888 
L 242.243164 111.437736 
L 240.416161 107.080784 
L 238.589158 105.368119 
L 236.762156 105.457896 
L 234.935153 97.578894 
L 233.108151 97.133794 
L 231.281148 82.541162 
L 229.454146 85.782326 
L 227.627143 90.600385 
L 225.800141 76.027675 
L 223.973138 74.428815 
L 222.146136 74.075143 
L 220.319133 78.589796 
L 218.492131 70.96792 
L 216.665128 69.409348 
L 214.838125 69.296999 
L 213.011123 73.763081 
L 211.18412 81.841666 
L 209.357118 66.253694 
L 207.530115 75.960087 
L 205.703113 69.002523 
L 203.87611 63.759962 
L 202.049108 69.229028 
L 200.222105 73.784751 
L 198.395103 70.614574 
L 196.5681 68.398263 
L 194.741098 72.19064 
L 192.914095 75.192828 
L 191.087093 65.866148 
L 189.26009 74.608137 
L 187.433087 76.005322 
L 185.606085 75.357149 
L 183.779082 79.22644 
L 181.95208 74.958449 
L 180.125077 75.491818 
L 178.298075 81.932256 
L 176.471072 75.185216 
L 174.64407 78.591181 
L 172.817067 78.142659 
L 170.990065 77.282973 
L 169.163062 76.81174 
L 167.33606 74.936236 
L 165.509057 82.015844 
L 163.682054 82.647329 
L 161.855052 73.457799 
L 160.028049 78.850554 
L 158.201047 76.944764 
L 156.374044 80.088551 
L 154.547042 83.455702 
L 152.720039 84.744926 
L 150.893037 79.725467 
L 149.066034 84.001388 
L 147.239032 77.525594 
L 145.412029 74.895961 
L 143.585027 76.267837 
L 141.758024 76.946345 
L 139.931021 83.707743 
L 138.104019 84.336183 
L 136.277016 85.617481 
L 134.450014 78.883129 
L 132.623011 77.199763 
L 130.796009 79.518917 
L 128.969006 84.121904 
L 127.142004 86.733176 
L 125.315001 85.738234 
L 123.487999 83.293521 
L 121.660996 82.979048 
L 119.833994 85.772837 
L 118.006991 86.59066 
L 116.179989 90.341648 
L 114.352986 87.655595 
L 112.525983 81.219329 
L 110.698981 84.043972 
L 108.871978 85.771057 
L 107.044976 88.3432 
L 105.217973 85.719044 
L 103.390971 81.554456 
L 101.563968 83.349854 
L 99.736966 85.525995 
L 97.909963 91.420973 
L 96.082961 93.851451 
L 94.255958 89.370349 
L 92.428956 89.87833 
L 90.601953 90.122821 
L 88.77495 93.973192 
L 86.947948 91.521047 
L 85.120945 85.315649 
L 83.293943 93.507651 
L 81.46694 90.775131 
L 79.639938 94.939296 
L 77.812935 93.056868 
L 75.985933 96.048324 
L 74.15893 87.378441 
L 72.331928 91.674439 
L 70.504925 91.676666 
L 68.677923 92.286079 
L 66.85092 95.670688 
L 65.023917 96.510748 
L 63.196915 91.833021 
L 61.369912 88.384824 
L 59.54291 84.731895 
L 57.715907 88.674726 
L 55.888905 89.042954 
L 54.061902 94.793424 
" clip-path="url(#p792cbbf0c2)" style="fill: none; stroke: #ff00ff; stroke-opacity: 0.5; stroke-width: 0.5; stroke-linecap: square"/>
   </g>
   <g id="line2d_11">
    <path d="M 260.513189 126.792 
L 258.686186 126.792 
L 256.859184 126.792 
L 255.032181 126.792 
L 253.205179 126.792 
L 251.378176 118.487 
L 249.551174 117.414453 
L 247.724171 107.207322 
L 245.897169 109.16173 
L 244.070166 93.282493 
L 242.243164 89.009219 
L 240.416161 87.22249 
L 238.589158 74.196935 
L 236.762156 51.476989 
L 234.935153 54.060747 
L 233.108151 51.023391 
L 231.281148 50.97605 
L 229.454146 52.838156 
L 227.627143 46.809379 
L 225.800141 49.847164 
L 223.973138 48.179015 
L 222.146136 43.000657 
L 220.319133 41.636113 
L 218.492131 47.768518 
L 216.665128 46.292164 
L 214.838125 62.639183 
L 213.011123 57.662533 
L 211.18412 53.328214 
L 209.357118 54.170698 
L 207.530115 47.209213 
L 205.703113 57.013017 
L 203.87611 54.196102 
L 202.049108 64.330414 
L 200.222105 62.695816 
L 198.395103 61.051715 
L 196.5681 51.616861 
L 194.741098 62.849259 
L 192.914095 62.374763 
L 191.087093 66.418456 
L 189.26009 65.623484 
L 187.433087 78.314712 
L 185.606085 67.273949 
L 183.779082 73.651502 
L 181.95208 74.010397 
L 180.125077 66.374535 
L 178.298075 60.677663 
L 176.471072 70.787753 
L 174.64407 70.171051 
L 172.817067 76.220114 
L 170.990065 70.382374 
L 169.163062 76.150734 
L 167.33606 81.103978 
L 165.509057 75.319079 
L 163.682054 80.509812 
L 161.855052 80.024359 
L 160.028049 73.586857 
L 158.201047 69.948604 
L 156.374044 79.281201 
L 154.547042 75.421761 
L 152.720039 78.206154 
L 150.893037 78.365255 
L 149.066034 85.007895 
L 147.239032 80.801241 
L 145.412029 79.691324 
L 143.585027 81.807667 
L 141.758024 74.641582 
L 139.931021 83.834307 
L 138.104019 87.184066 
L 136.277016 83.79047 
L 134.450014 84.380948 
L 132.623011 78.247553 
L 130.796009 82.037233 
L 128.969006 87.292769 
L 127.142004 86.219658 
L 125.315001 86.689973 
L 123.487999 85.440983 
L 121.660996 83.299362 
L 119.833994 84.683337 
L 118.006991 87.602345 
L 116.179989 85.911222 
L 114.352986 83.198214 
L 112.525983 84.20033 
L 110.698981 90.973434 
L 108.871978 89.149441 
L 107.044976 89.809521 
L 105.217973 87.216416 
L 103.390971 88.063962 
L 101.563968 86.284464 
L 99.736966 90.62632 
L 97.909963 89.552235 
L 96.082961 87.952196 
L 94.255958 88.291174 
L 92.428956 83.578886 
L 90.601953 86.421933 
L 88.77495 89.118122 
L 86.947948 87.594191 
L 85.120945 88.41064 
L 83.293943 91.697443 
L 81.46694 87.270993 
L 79.639938 90.099102 
L 77.812935 87.052567 
L 75.985933 82.09686 
L 74.15893 82.597015 
L 72.331928 87.422973 
L 70.504925 94.041919 
L 68.677923 90.231825 
L 66.85092 91.331964 
L 65.023917 85.294451 
L 63.196915 83.917164 
L 61.369912 87.789 
L 59.54291 87.957789 
L 57.715907 87.168536 
L 55.888905 93.882911 
L 54.061902 91.831713 
" clip-path="url(#p792cbbf0c2)" style="fill: none; stroke: #ff00ff; stroke-opacity: 0.5; stroke-width: 0.5; stroke-linecap: square"/>
   </g>
   <g id="line2d_12">
    <path d="M 260.513189 126.792 
L 258.686186 126.792 
L 256.859184 126.792 
L 255.032181 126.792 
L 253.205179 126.792 
L 251.378176 110.779716 
L 249.551174 113.108592 
L 247.724171 114.173247 
L 245.897169 111.027401 
L 244.070166 104.519586 
L 242.243164 92.459145 
L 240.416161 87.269978 
L 238.589158 84.357021 
L 236.762156 72.140638 
L 234.935153 63.760491 
L 233.108151 72.146446 
L 231.281148 68.395829 
L 229.454146 67.396235 
L 227.627143 66.506661 
L 225.800141 58.528101 
L 223.973138 71.357012 
L 222.146136 73.870683 
L 220.319133 68.603536 
L 218.492131 69.595826 
L 216.665128 69.931565 
L 214.838125 69.724339 
L 213.011123 65.938092 
L 211.18412 64.626766 
L 209.357118 65.501277 
L 207.530115 68.036917 
L 205.703113 69.89061 
L 203.87611 68.614037 
L 202.049108 65.378929 
L 200.222105 61.716918 
L 198.395103 66.376994 
L 196.5681 67.019739 
L 194.741098 67.329457 
L 192.914095 61.741793 
L 191.087093 66.139929 
L 189.26009 73.789082 
L 187.433087 74.906629 
L 185.606085 66.884587 
L 183.779082 68.281894 
L 181.95208 73.330413 
L 180.125077 73.263134 
L 178.298075 75.053066 
L 176.471072 73.04092 
L 174.64407 81.301894 
L 172.817067 75.816526 
L 170.990065 78.995878 
L 169.163062 76.820203 
L 167.33606 74.971884 
L 165.509057 75.377714 
L 163.682054 72.732711 
L 161.855052 79.387976 
L 160.028049 72.46018 
L 158.201047 73.831614 
L 156.374044 68.130557 
L 154.547042 72.570233 
L 152.720039 77.51735 
L 150.893037 80.106245 
L 149.066034 73.102844 
L 147.239032 79.943383 
L 145.412029 78.427421 
L 143.585027 77.420535 
L 141.758024 73.40566 
L 139.931021 74.830072 
L 138.104019 74.260558 
L 136.277016 76.20409 
L 134.450014 62.314691 
L 132.623011 69.401967 
L 130.796009 66.853792 
L 128.969006 69.788775 
L 127.142004 78.657317 
L 125.315001 78.359795 
L 123.487999 82.162915 
L 121.660996 75.600064 
L 119.833994 78.184773 
L 118.006991 71.876154 
L 116.179989 68.441091 
L 114.352986 67.763536 
L 112.525983 68.772104 
L 110.698981 69.434234 
L 108.871978 70.590954 
L 107.044976 68.282089 
L 105.217973 72.044666 
L 103.390971 77.736348 
L 101.563968 76.372829 
L 99.736966 73.113166 
L 97.909963 68.379854 
L 96.082961 73.445873 
L 94.255958 71.968585 
L 92.428956 75.287569 
L 90.601953 70.563857 
L 88.77495 71.544848 
L 86.947948 68.238633 
L 85.120945 73.812169 
L 83.293943 72.533229 
L 81.46694 73.720615 
L 79.639938 70.90285 
L 77.812935 71.318407 
L 75.985933 71.282068 
L 74.15893 75.027836 
L 72.331928 74.907713 
L 70.504925 74.247553 
L 68.677923 72.381501 
L 66.85092 73.266903 
L 65.023917 71.689796 
L 63.196915 74.574413 
L 61.369912 75.164624 
L 59.54291 66.084183 
L 57.715907 74.224088 
L 55.888905 78.67558 
L 54.061902 74.76491 
" clip-path="url(#p792cbbf0c2)" style="fill: none; stroke: #ff00ff; stroke-opacity: 0.5; stroke-width: 0.5; stroke-linecap: square"/>
   </g>
   <g id="line2d_13">
    <path d="M 260.513189 126.792 
L 258.686186 126.792 
L 256.859184 126.792 
L 255.032181 126.792 
L 253.205179 126.792 
L 251.378176 114.982897 
L 249.551174 119.04843 
L 247.724171 125.180248 
L 245.897169 118.997046 
L 244.070166 109.22194 
L 242.243164 102.511304 
L 240.416161 103.661483 
L 238.589158 104.109844 
L 236.762156 89.067242 
L 234.935153 91.02099 
L 233.108151 90.772703 
L 231.281148 87.425367 
L 229.454146 83.626525 
L 227.627143 79.190818 
L 225.800141 73.312329 
L 223.973138 71.080683 
L 222.146136 70.072214 
L 220.319133 63.98678 
L 218.492131 63.587517 
L 216.665128 64.531098 
L 214.838125 64.388374 
L 213.011123 62.806851 
L 211.18412 68.631331 
L 209.357118 67.293493 
L 207.530115 66.893345 
L 205.703113 66.080806 
L 203.87611 58.757799 
L 202.049108 66.966357 
L 200.222105 63.863913 
L 198.395103 69.798015 
L 196.5681 64.860621 
L 194.741098 67.241572 
L 192.914095 70.685235 
L 191.087093 71.769511 
L 189.26009 75.188445 
L 187.433087 72.071393 
L 185.606085 69.434474 
L 183.779082 75.078851 
L 181.95208 74.086821 
L 180.125077 76.266848 
L 178.298075 77.025073 
L 176.471072 74.699059 
L 174.64407 77.047144 
L 172.817067 74.086605 
L 170.990065 75.388844 
L 169.163062 73.566989 
L 167.33606 66.233512 
L 165.509057 70.984711 
L 163.682054 73.777465 
L 161.855052 72.666383 
L 160.028049 75.104299 
L 158.201047 77.09328 
L 156.374044 71.619673 
L 154.547042 70.429172 
L 152.720039 73.99889 
L 150.893037 73.975477 
L 149.066034 80.418678 
L 147.239032 83.528744 
L 145.412029 78.865153 
L 143.585027 78.379554 
L 141.758024 78.322223 
L 139.931021 79.447862 
L 138.104019 77.995885 
L 136.277016 75.934126 
L 134.450014 77.317351 
L 132.623011 73.526497 
L 130.796009 78.78841 
L 128.969006 73.457162 
L 127.142004 80.378754 
L 125.315001 83.972563 
L 123.487999 82.276491 
L 121.660996 79.026865 
L 119.833994 77.740594 
L 118.006991 75.157728 
L 116.179989 79.276917 
L 114.352986 80.717224 
L 112.525983 76.395239 
L 110.698981 80.688014 
L 108.871978 80.598275 
L 107.044976 85.141072 
L 105.217973 86.555856 
L 103.390971 80.316164 
L 101.563968 83.978216 
L 99.736966 86.110731 
L 97.909963 80.647978 
L 96.082961 82.303388 
L 94.255958 81.227872 
L 92.428956 84.112056 
L 90.601953 84.331737 
L 88.77495 82.078426 
L 86.947948 83.929428 
L 85.120945 84.670345 
L 83.293943 85.600939 
L 81.46694 88.279916 
L 79.639938 86.533681 
L 77.812935 82.396151 
L 75.985933 84.652705 
L 74.15893 82.595879 
L 72.331928 83.153938 
L 70.504925 78.07939 
L 68.677923 78.694454 
L 66.85092 84.718113 
L 65.023917 87.049045 
L 63.196915 86.968594 
L 61.369912 86.954346 
L 59.54291 90.757313 
L 57.715907 88.486879 
L 55.888905 82.519053 
L 54.061902 81.002006 
" clip-path="url(#p792cbbf0c2)" style="fill: none; stroke: #ff00ff; stroke-opacity: 0.5; stroke-width: 0.5; stroke-linecap: square"/>
   </g>
   <g id="line2d_14">
    <path d="M 260.513189 126.792 
L 258.686186 126.792 
L 256.859184 126.792 
L 255.032181 126.792 
L 253.205179 126.792 
L 251.378176 14.735867 
L 249.551174 17.709378 
L 247.724171 21.139043 
L 245.897169 20.148052 
L 244.070166 24.976969 
L 242.243164 28.249121 
L 240.416161 32.606073 
L 238.589158 34.318738 
L 236.762156 34.228961 
L 234.935153 42.107963 
L 233.108151 42.553063 
L 231.281148 57.145695 
L 229.454146 53.904531 
L 227.627143 49.086473 
L 225.800141 63.659182 
L 223.973138 65.258042 
L 222.146136 65.611714 
L 220.319133 61.097061 
L 218.492131 68.718937 
L 216.665128 70.277509 
L 214.838125 70.389858 
L 213.011123 65.923776 
L 211.18412 57.845191 
L 209.357118 73.433163 
L 207.530115 63.72677 
L 205.703113 70.684334 
L 203.87611 75.926895 
L 202.049108 70.457829 
L 200.222105 65.902106 
L 198.395103 69.072283 
L 196.5681 71.288595 
L 194.741098 67.496217 
L 192.914095 64.494029 
L 191.087093 73.820709 
L 189.26009 65.078721 
L 187.433087 63.681535 
L 185.606085 64.329708 
L 183.779082 60.460417 
L 181.95208 64.728408 
L 180.125077 64.195039 
L 178.298075 57.754601 
L 176.471072 64.501642 
L 174.64407 61.095677 
L 172.817067 61.544199 
L 170.990065 62.403884 
L 169.163062 62.875117 
L 167.33606 64.750621 
L 165.509057 57.671013 
L 163.682054 57.039528 
L 161.855052 66.229058 
L 160.028049 60.836303 
L 158.201047 62.742093 
L 156.374044 59.598306 
L 154.547042 56.231156 
L 152.720039 54.941931 
L 150.893037 59.96139 
L 149.066034 55.685469 
L 147.239032 62.161263 
L 145.412029 64.790896 
L 143.585027 63.41902 
L 141.758024 62.740512 
L 139.931021 55.979114 
L 138.104019 55.350674 
L 136.277016 54.069376 
L 134.450014 60.803728 
L 132.623011 62.487094 
L 130.796009 60.16794 
L 128.969006 55.564953 
L 127.142004 52.953681 
L 125.315001 53.948623 
L 123.487999 56.393336 
L 121.660996 56.707809 
L 119.833994 53.91402 
L 118.006991 53.096197 
L 116.179989 49.34521 
L 114.352986 52.031262 
L 112.525983 58.467528 
L 110.698981 55.642885 
L 108.871978 53.915801 
L 107.044976 51.343657 
L 105.217973 53.967813 
L 103.390971 58.132401 
L 101.563968 56.337003 
L 99.736966 54.160862 
L 97.909963 48.265884 
L 96.082961 45.835407 
L 94.255958 50.316508 
L 92.428956 49.808527 
L 90.601953 49.564036 
L 88.77495 45.713666 
L 86.947948 48.16581 
L 85.120945 54.371209 
L 83.293943 46.179206 
L 81.46694 48.911726 
L 79.639938 44.747561 
L 77.812935 46.629989 
L 75.985933 43.638533 
L 74.15893 52.308416 
L 72.331928 48.012418 
L 70.504925 48.010191 
L 68.677923 47.400778 
L 66.85092 44.016169 
L 65.023917 43.176109 
L 63.196915 47.853836 
L 61.369912 51.302033 
L 59.54291 54.954962 
L 57.715907 51.012131 
L 55.888905 50.643903 
L 54.061902 44.893433 
" clip-path="url(#p792cbbf0c2)" style="fill: none; stroke: #00bfff; stroke-opacity: 0.5; stroke-width: 0.5; stroke-linecap: square"/>
   </g>
   <g id="line2d_15">
    <path d="M 260.513189 126.792 
L 258.686186 126.792 
L 256.859184 126.792 
L 255.032181 126.792 
L 253.205179 126.792 
L 251.378176 21.199857 
L 249.551174 22.272404 
L 247.724171 32.479535 
L 245.897169 30.525127 
L 244.070166 46.404364 
L 242.243164 50.677638 
L 240.416161 52.464367 
L 238.589158 65.489922 
L 236.762156 88.209868 
L 234.935153 85.626111 
L 233.108151 88.663466 
L 231.281148 88.710807 
L 229.454146 86.848701 
L 227.627143 92.877479 
L 225.800141 89.839693 
L 223.973138 91.507842 
L 222.146136 96.6862 
L 220.319133 98.050744 
L 218.492131 91.918339 
L 216.665128 93.394693 
L 214.838125 77.047674 
L 213.011123 82.024324 
L 211.18412 86.358643 
L 209.357118 85.516159 
L 207.530115 92.477645 
L 205.703113 82.67384 
L 203.87611 85.490755 
L 202.049108 75.356443 
L 200.222105 76.991041 
L 198.395103 78.635142 
L 196.5681 88.069997 
L 194.741098 76.837598 
L 192.914095 77.312094 
L 191.087093 73.268402 
L 189.26009 74.063374 
L 187.433087 61.372145 
L 185.606085 72.412909 
L 183.779082 66.035355 
L 181.95208 65.67646 
L 180.125077 73.312322 
L 178.298075 79.009194 
L 176.471072 68.899104 
L 174.64407 69.515806 
L 172.817067 63.466743 
L 170.990065 69.304483 
L 169.163062 63.536123 
L 167.33606 58.582879 
L 165.509057 64.367778 
L 163.682054 59.177046 
L 161.855052 59.662498 
L 160.028049 66.1 
L 158.201047 69.738253 
L 156.374044 60.405656 
L 154.547042 64.265097 
L 152.720039 61.480703 
L 150.893037 61.321602 
L 149.066034 54.678962 
L 147.239032 58.885616 
L 145.412029 59.995533 
L 143.585027 57.87919 
L 141.758024 65.045275 
L 139.931021 55.85255 
L 138.104019 52.502791 
L 136.277016 55.896387 
L 134.450014 55.305909 
L 132.623011 61.439304 
L 130.796009 57.649624 
L 128.969006 52.394089 
L 127.142004 53.467199 
L 125.315001 52.996885 
L 123.487999 54.245874 
L 121.660996 56.387495 
L 119.833994 55.003521 
L 118.006991 52.084513 
L 116.179989 53.775635 
L 114.352986 56.488643 
L 112.525983 55.486527 
L 110.698981 48.713423 
L 108.871978 50.537416 
L 107.044976 49.877337 
L 105.217973 52.470441 
L 103.390971 51.622895 
L 101.563968 53.402394 
L 99.736966 49.060538 
L 97.909963 50.134622 
L 96.082961 51.734662 
L 94.255958 51.395683 
L 92.428956 56.107971 
L 90.601953 53.264924 
L 88.77495 50.568735 
L 86.947948 52.092666 
L 85.120945 51.276217 
L 83.293943 47.989414 
L 81.46694 52.415864 
L 79.639938 49.587755 
L 77.812935 52.634291 
L 75.985933 57.589997 
L 74.15893 57.089843 
L 72.331928 52.263884 
L 70.504925 45.644938 
L 68.677923 49.455032 
L 66.85092 48.354893 
L 65.023917 54.392406 
L 63.196915 55.769693 
L 61.369912 51.897857 
L 59.54291 51.729068 
L 57.715907 52.518321 
L 55.888905 45.803947 
L 54.061902 47.855144 
" clip-path="url(#p792cbbf0c2)" style="fill: none; stroke: #00bfff; stroke-opacity: 0.5; stroke-width: 0.5; stroke-linecap: square"/>
   </g>
   <g id="line2d_16">
    <path d="M 260.513189 126.792 
L 258.686186 126.792 
L 256.859184 126.792 
L 255.032181 126.792 
L 253.205179 126.792 
L 251.378176 28.907141 
L 249.551174 26.578265 
L 247.724171 25.51361 
L 245.897169 28.659456 
L 244.070166 35.167271 
L 242.243164 47.227713 
L 240.416161 52.416879 
L 238.589158 55.329836 
L 236.762156 67.546219 
L 234.935153 75.926366 
L 233.108151 67.540411 
L 231.281148 71.291028 
L 229.454146 72.290623 
L 227.627143 73.180197 
L 225.800141 81.158756 
L 223.973138 68.329845 
L 222.146136 65.816174 
L 220.319133 71.083322 
L 218.492131 70.091031 
L 216.665128 69.755292 
L 214.838125 69.962518 
L 213.011123 73.748765 
L 211.18412 75.060092 
L 209.357118 74.18558 
L 207.530115 71.64994 
L 205.703113 69.796247 
L 203.87611 71.07282 
L 202.049108 74.307928 
L 200.222105 77.969939 
L 198.395103 73.309863 
L 196.5681 72.667118 
L 194.741098 72.3574 
L 192.914095 77.945064 
L 191.087093 73.546928 
L 189.26009 65.897775 
L 187.433087 64.780228 
L 185.606085 72.80227 
L 183.779082 71.404963 
L 181.95208 66.356444 
L 180.125077 66.423723 
L 178.298075 64.633791 
L 176.471072 66.645937 
L 174.64407 58.384963 
L 172.817067 63.870331 
L 170.990065 60.69098 
L 169.163062 62.866654 
L 167.33606 64.714974 
L 165.509057 64.309144 
L 163.682054 66.954146 
L 161.855052 60.298882 
L 160.028049 67.226677 
L 158.201047 65.855243 
L 156.374044 71.5563 
L 154.547042 67.116624 
L 152.720039 62.169508 
L 150.893037 59.580612 
L 149.066034 66.584013 
L 147.239032 59.743474 
L 145.412029 61.259436 
L 143.585027 62.266322 
L 141.758024 66.281197 
L 139.931021 64.856785 
L 138.104019 65.426299 
L 136.277016 63.482767 
L 134.450014 77.372166 
L 132.623011 70.28489 
L 130.796009 72.833065 
L 128.969006 69.898082 
L 127.142004 61.02954 
L 125.315001 61.327062 
L 123.487999 57.523942 
L 121.660996 64.086793 
L 119.833994 61.502084 
L 118.006991 67.810703 
L 116.179989 71.245766 
L 114.352986 71.923321 
L 112.525983 70.914753 
L 110.698981 70.252623 
L 108.871978 69.095903 
L 107.044976 71.404768 
L 105.217973 67.642191 
L 103.390971 61.950509 
L 101.563968 63.314028 
L 99.736966 66.573691 
L 97.909963 71.307003 
L 96.082961 66.240984 
L 94.255958 67.718272 
L 92.428956 64.399288 
L 90.601953 69.123 
L 88.77495 68.142009 
L 86.947948 71.448225 
L 85.120945 65.874689 
L 83.293943 67.153628 
L 81.46694 65.966242 
L 79.639938 68.784007 
L 77.812935 68.36845 
L 75.985933 68.40479 
L 74.15893 64.659021 
L 72.331928 64.779144 
L 70.504925 65.439304 
L 68.677923 67.305356 
L 66.85092 66.419954 
L 65.023917 67.997061 
L 63.196915 65.112444 
L 61.369912 64.522233 
L 59.54291 73.602674 
L 57.715907 65.462769 
L 55.888905 61.011277 
L 54.061902 64.921947 
" clip-path="url(#p792cbbf0c2)" style="fill: none; stroke: #00bfff; stroke-opacity: 0.5; stroke-width: 0.5; stroke-linecap: square"/>
   </g>
   <g id="line2d_17">
    <path d="M 260.513189 126.792 
L 258.686186 126.792 
L 256.859184 126.792 
L 255.032181 126.792 
L 253.205179 126.792 
L 251.378176 24.70396 
L 249.551174 20.638427 
L 247.724171 14.506609 
L 245.897169 20.689811 
L 244.070166 30.464917 
L 242.243164 37.175553 
L 240.416161 36.025374 
L 238.589158 35.577013 
L 236.762156 50.619615 
L 234.935153 48.665867 
L 233.108151 48.914154 
L 231.281148 52.26149 
L 229.454146 56.060332 
L 227.627143 60.496039 
L 225.800141 66.374528 
L 223.973138 68.606174 
L 222.146136 69.614643 
L 220.319133 75.700077 
L 218.492131 76.09934 
L 216.665128 75.155759 
L 214.838125 75.298483 
L 213.011123 76.880006 
L 211.18412 71.055527 
L 209.357118 72.393365 
L 207.530115 72.793512 
L 205.703113 73.606052 
L 203.87611 80.929058 
L 202.049108 72.7205 
L 200.222105 75.822944 
L 198.395103 69.888842 
L 196.5681 74.826236 
L 194.741098 72.445285 
L 192.914095 69.001622 
L 191.087093 67.917346 
L 189.26009 64.498412 
L 187.433087 67.615464 
L 185.606085 70.252383 
L 183.779082 64.608006 
L 181.95208 65.600036 
L 180.125077 63.420009 
L 178.298075 62.661784 
L 176.471072 64.987798 
L 174.64407 62.639713 
L 172.817067 65.600252 
L 170.990065 64.298014 
L 169.163062 66.119868 
L 167.33606 73.453346 
L 165.509057 68.702146 
L 163.682054 65.909392 
L 161.855052 67.020475 
L 160.028049 64.582558 
L 158.201047 62.593577 
L 156.374044 68.067184 
L 154.547042 69.257685 
L 152.720039 65.687967 
L 150.893037 65.71138 
L 149.066034 59.268179 
L 147.239032 56.158113 
L 145.412029 60.821704 
L 143.585027 61.307303 
L 141.758024 61.364634 
L 139.931021 60.238995 
L 138.104019 61.690973 
L 136.277016 63.752731 
L 134.450014 62.369506 
L 132.623011 66.16036 
L 130.796009 60.898447 
L 128.969006 66.229695 
L 127.142004 59.308103 
L 125.315001 55.714294 
L 123.487999 57.410366 
L 121.660996 60.659993 
L 119.833994 61.946263 
L 118.006991 64.529129 
L 116.179989 60.40994 
L 114.352986 58.969633 
L 112.525983 63.291618 
L 110.698981 58.998843 
L 108.871978 59.088582 
L 107.044976 54.545785 
L 105.217973 53.131001 
L 103.390971 59.370693 
L 101.563968 55.708641 
L 99.736966 53.576126 
L 97.909963 59.038879 
L 96.082961 57.383469 
L 94.255958 58.458985 
L 92.428956 55.574802 
L 90.601953 55.35512 
L 88.77495 57.608431 
L 86.947948 55.757429 
L 85.120945 55.016512 
L 83.293943 54.085918 
L 81.46694 51.406941 
L 79.639938 53.153176 
L 77.812935 57.290706 
L 75.985933 55.034152 
L 74.15893 57.090978 
L 72.331928 56.532919 
L 70.504925 61.607467 
L 68.677923 60.992404 
L 66.85092 54.968744 
L 65.023917 52.637813 
L 63.196915 52.718263 
L 61.369912 52.732511 
L 59.54291 48.929544 
L 57.715907 51.199978 
L 55.888905 57.167805 
L 54.061902 58.684851 
" clip-path="url(#p792cbbf0c2)" style="fill: none; stroke: #00bfff; stroke-opacity: 0.5; stroke-width: 0.5; stroke-linecap: square"/>
   </g>
   <g id="line2d_18">
    <path d="M 260.513189 126.792 
L 258.686186 126.792 
L 256.859184 126.792 
L 255.032181 126.792 
L 253.205179 126.792 
L 251.378176 117.300151 
L 249.551174 117.887239 
L 247.724171 116.277158 
L 245.897169 114.681245 
L 244.070166 105.433477 
L 242.243164 98.854351 
L 240.416161 96.308684 
L 238.589158 92.00798 
L 236.762156 79.535691 
L 234.935153 76.605281 
L 233.108151 77.769083 
L 231.281148 72.334602 
L 229.454146 72.410811 
L 227.627143 70.77681 
L 225.800141 64.428817 
L 223.973138 66.261381 
L 222.146136 65.254674 
L 220.319133 63.204056 
L 218.492131 62.979945 
L 216.665128 62.541044 
L 214.838125 66.512224 
L 213.011123 65.042639 
L 211.18412 67.106994 
L 209.357118 63.30479 
L 207.530115 64.524891 
L 205.703113 65.496739 
L 203.87611 61.331975 
L 202.049108 66.476182 
L 200.222105 65.515349 
L 198.395103 66.960324 
L 196.5681 62.973871 
L 194.741098 67.402732 
L 192.914095 67.498655 
L 191.087093 67.548511 
L 189.26009 72.302287 
L 187.433087 75.324514 
L 185.606085 69.73754 
L 183.779082 74.059672 
L 181.95208 74.09652 
L 180.125077 72.849084 
L 178.298075 73.672014 
L 176.471072 73.428237 
L 174.64407 76.777817 
L 172.817067 76.066476 
L 170.990065 75.512517 
L 169.163062 75.837417 
L 167.33606 74.311402 
L 165.509057 75.924337 
L 163.682054 77.416829 
L 161.855052 76.384129 
L 160.028049 75.000473 
L 158.201047 74.454566 
L 156.374044 74.779995 
L 154.547042 75.469217 
L 152.720039 78.61683 
L 150.893037 78.043111 
L 149.066034 80.632701 
L 147.239032 80.449741 
L 145.412029 77.969965 
L 143.585027 78.468898 
L 141.758024 75.828952 
L 139.931021 80.454996 
L 138.104019 80.944173 
L 136.277016 80.386542 
L 134.450014 75.72403 
L 132.623011 74.593945 
L 130.796009 76.799588 
L 128.969006 78.665153 
L 127.142004 82.997226 
L 125.315001 83.690141 
L 123.487999 83.293478 
L 121.660996 80.226335 
L 119.833994 81.595385 
L 118.006991 80.306722 
L 116.179989 80.992719 
L 114.352986 79.833642 
L 112.525983 77.64675 
L 110.698981 81.284914 
L 108.871978 81.527432 
L 107.044976 82.89397 
L 105.217973 82.883995 
L 103.390971 81.917733 
L 101.563968 82.496341 
L 99.736966 83.844053 
L 97.909963 82.50026 
L 96.082961 84.388227 
L 94.255958 82.714495 
L 92.428956 83.21421 
L 90.601953 82.860087 
L 88.77495 84.178647 
L 86.947948 82.820825 
L 85.120945 83.052201 
L 83.293943 85.834816 
L 81.46694 85.011664 
L 79.639938 85.618732 
L 77.812935 83.455998 
L 75.985933 83.519989 
L 74.15893 81.899793 
L 72.331928 84.289766 
L 70.504925 84.511382 
L 68.677923 83.398465 
L 66.85092 86.246917 
L 65.023917 85.13601 
L 63.196915 84.323298 
L 61.369912 84.573199 
L 59.54291 82.382795 
L 57.715907 84.638557 
L 55.888905 86.030124 
L 54.061902 85.598013 
" clip-path="url(#p792cbbf0c2)" style="fill: none; stroke: #ff00ff; stroke-width: 3; stroke-linecap: square"/>
   </g>
   <g id="line2d_19">
    <path d="M 260.513189 126.792 
L 258.686186 126.792 
L 256.859184 126.792 
L 255.032181 126.792 
L 253.205179 126.792 
L 251.378176 22.386706 
L 249.551174 21.799619 
L 247.724171 23.409699 
L 245.897169 25.005612 
L 244.070166 34.25338 
L 242.243164 40.832506 
L 240.416161 43.378173 
L 238.589158 47.678878 
L 236.762156 60.151166 
L 234.935153 63.081577 
L 233.108151 61.917774 
L 231.281148 67.352255 
L 229.454146 67.276046 
L 227.627143 68.910047 
L 225.800141 75.25804 
L 223.973138 73.425476 
L 222.146136 74.432183 
L 220.319133 76.482801 
L 218.492131 76.706912 
L 216.665128 77.145813 
L 214.838125 73.174633 
L 213.011123 74.644218 
L 211.18412 72.579863 
L 209.357118 76.382067 
L 207.530115 75.161967 
L 205.703113 74.190118 
L 203.87611 78.354882 
L 202.049108 73.210675 
L 200.222105 74.171508 
L 198.395103 72.726533 
L 196.5681 76.712986 
L 194.741098 72.284125 
L 192.914095 72.188202 
L 191.087093 72.138346 
L 189.26009 67.38457 
L 187.433087 64.362343 
L 185.606085 69.949318 
L 183.779082 65.627185 
L 181.95208 65.590337 
L 180.125077 66.837773 
L 178.298075 66.014843 
L 176.471072 66.25862 
L 174.64407 62.90904 
L 172.817067 63.620381 
L 170.990065 64.17434 
L 169.163062 63.849441 
L 167.33606 65.375455 
L 165.509057 63.76252 
L 163.682054 62.270028 
L 161.855052 63.302728 
L 160.028049 64.686384 
L 158.201047 65.232292 
L 156.374044 64.906862 
L 154.547042 64.21764 
L 152.720039 61.070027 
L 150.893037 61.643746 
L 149.066034 59.054156 
L 147.239032 59.237116 
L 145.412029 61.716892 
L 143.585027 61.217959 
L 141.758024 63.857905 
L 139.931021 59.231861 
L 138.104019 58.742684 
L 136.277016 59.300315 
L 134.450014 63.962827 
L 132.623011 65.092912 
L 130.796009 62.887269 
L 128.969006 61.021705 
L 127.142004 56.689631 
L 125.315001 55.996716 
L 123.487999 56.393379 
L 121.660996 59.460523 
L 119.833994 58.091472 
L 118.006991 59.380136 
L 116.179989 58.694138 
L 114.352986 59.853215 
L 112.525983 62.040107 
L 110.698981 58.401944 
L 108.871978 58.159425 
L 107.044976 56.792887 
L 105.217973 56.802862 
L 103.390971 57.769124 
L 101.563968 57.190516 
L 99.736966 55.842804 
L 97.909963 57.186597 
L 96.082961 55.29863 
L 94.255958 56.972362 
L 92.428956 56.472647 
L 90.601953 56.82677 
L 88.77495 55.50821 
L 86.947948 56.866032 
L 85.120945 56.634657 
L 83.293943 53.852042 
L 81.46694 54.675193 
L 79.639938 54.068125 
L 77.812935 56.230859 
L 75.985933 56.166868 
L 74.15893 57.787065 
L 72.331928 55.397091 
L 70.504925 55.175475 
L 68.677923 56.288392 
L 66.85092 53.43994 
L 65.023917 54.550847 
L 63.196915 55.363559 
L 61.369912 55.113659 
L 59.54291 57.304062 
L 57.715907 55.0483 
L 55.888905 53.656733 
L 54.061902 54.088844 
" clip-path="url(#p792cbbf0c2)" style="fill: none; stroke: #00bfff; stroke-width: 3; stroke-linecap: square"/>
   </g>
   <g id="line2d_20">
    <path d="M 260.513189 126.792 
L 258.686186 126.792 
L 256.859184 126.792 
L 255.032181 126.792 
L 253.205179 126.792 
L 251.378176 14.735867 
L 249.551174 17.709378 
L 247.724171 21.139043 
L 245.897169 20.148052 
L 244.070166 24.976969 
L 242.243164 28.249121 
L 240.416161 32.606073 
L 238.589158 34.318738 
L 236.762156 34.228961 
L 234.935153 42.107963 
L 233.108151 42.553063 
L 231.281148 57.145695 
L 229.454146 53.904531 
L 227.627143 49.086473 
L 225.800141 63.659182 
L 223.973138 65.258042 
L 222.146136 65.611714 
L 220.319133 61.097061 
L 218.492131 68.718937 
L 216.665128 70.277509 
L 214.838125 70.389858 
L 213.011123 65.923776 
L 211.18412 57.845191 
L 209.357118 73.433163 
L 207.530115 63.72677 
L 205.703113 70.684334 
L 203.87611 75.926895 
L 202.049108 70.457829 
L 200.222105 65.902106 
L 198.395103 69.072283 
L 196.5681 71.288595 
L 194.741098 67.496217 
L 192.914095 64.494029 
L 191.087093 73.820709 
L 189.26009 65.078721 
L 187.433087 63.681535 
L 185.606085 64.329708 
L 183.779082 60.460417 
L 181.95208 64.728408 
L 180.125077 64.195039 
L 178.298075 57.754601 
L 176.471072 64.501642 
L 174.64407 61.095677 
L 172.817067 61.544199 
L 170.990065 62.403884 
L 169.163062 62.875117 
L 167.33606 64.750621 
L 165.509057 57.671013 
L 163.682054 57.039528 
L 161.855052 66.229058 
L 160.028049 60.836303 
L 158.201047 62.742093 
L 156.374044 59.598306 
L 154.547042 56.231156 
L 152.720039 54.941931 
L 150.893037 59.96139 
L 149.066034 55.685469 
L 147.239032 62.161263 
L 145.412029 64.790896 
L 143.585027 63.41902 
L 141.758024 62.740512 
L 139.931021 55.979114 
L 138.104019 55.350674 
L 136.277016 54.069376 
L 134.450014 60.803728 
L 132.623011 62.487094 
L 130.796009 60.16794 
L 128.969006 55.564953 
L 127.142004 52.953681 
L 125.315001 53.948623 
L 123.487999 56.393336 
L 121.660996 56.707809 
L 119.833994 53.91402 
L 118.006991 53.096197 
L 116.179989 49.34521 
L 114.352986 52.031262 
L 112.525983 58.467528 
L 110.698981 55.642885 
L 108.871978 53.915801 
L 107.044976 51.343657 
L 105.217973 53.967813 
L 103.390971 58.132401 
L 101.563968 56.337003 
L 99.736966 54.160862 
L 97.909963 48.265884 
L 96.082961 45.835407 
L 94.255958 50.316508 
L 92.428956 49.808527 
L 90.601953 49.564036 
L 88.77495 45.713666 
L 86.947948 48.16581 
L 85.120945 54.371209 
L 83.293943 46.179206 
L 81.46694 48.911726 
L 79.639938 44.747561 
L 77.812935 46.629989 
L 75.985933 43.638533 
L 74.15893 52.308416 
L 72.331928 48.012418 
L 70.504925 48.010191 
L 68.677923 47.400778 
L 66.85092 44.016169 
L 65.023917 43.176109 
L 63.196915 47.853836 
L 61.369912 51.302033 
L 59.54291 54.954962 
L 57.715907 51.012131 
L 55.888905 50.643903 
L 54.061902 44.893433 
" clip-path="url(#p792cbbf0c2)" style="fill: none; stroke: #00bfff; stroke-opacity: 0.5; stroke-width: 0.5; stroke-linecap: square"/>
   </g>
   <g id="line2d_21">
    <path d="M 260.513189 126.792 
L 258.686186 126.792 
L 256.859184 126.792 
L 255.032181 126.792 
L 253.205179 126.792 
L 251.378176 21.199857 
L 249.551174 22.272404 
L 247.724171 32.479535 
L 245.897169 30.525127 
L 244.070166 46.404364 
L 242.243164 50.677638 
L 240.416161 52.464367 
L 238.589158 65.489922 
L 236.762156 88.209868 
L 234.935153 85.626111 
L 233.108151 88.663466 
L 231.281148 88.710807 
L 229.454146 86.848701 
L 227.627143 92.877479 
L 225.800141 89.839693 
L 223.973138 91.507842 
L 222.146136 96.6862 
L 220.319133 98.050744 
L 218.492131 91.918339 
L 216.665128 93.394693 
L 214.838125 77.047674 
L 213.011123 82.024324 
L 211.18412 86.358643 
L 209.357118 85.516159 
L 207.530115 92.477645 
L 205.703113 82.67384 
L 203.87611 85.490755 
L 202.049108 75.356443 
L 200.222105 76.991041 
L 198.395103 78.635142 
L 196.5681 88.069997 
L 194.741098 76.837598 
L 192.914095 77.312094 
L 191.087093 73.268402 
L 189.26009 74.063374 
L 187.433087 61.372145 
L 185.606085 72.412909 
L 183.779082 66.035355 
L 181.95208 65.67646 
L 180.125077 73.312322 
L 178.298075 79.009194 
L 176.471072 68.899104 
L 174.64407 69.515806 
L 172.817067 63.466743 
L 170.990065 69.304483 
L 169.163062 63.536123 
L 167.33606 58.582879 
L 165.509057 64.367778 
L 163.682054 59.177046 
L 161.855052 59.662498 
L 160.028049 66.1 
L 158.201047 69.738253 
L 156.374044 60.405656 
L 154.547042 64.265097 
L 152.720039 61.480703 
L 150.893037 61.321602 
L 149.066034 54.678962 
L 147.239032 58.885616 
L 145.412029 59.995533 
L 143.585027 57.87919 
L 141.758024 65.045275 
L 139.931021 55.85255 
L 138.104019 52.502791 
L 136.277016 55.896387 
L 134.450014 55.305909 
L 132.623011 61.439304 
L 130.796009 57.649624 
L 128.969006 52.394089 
L 127.142004 53.467199 
L 125.315001 52.996885 
L 123.487999 54.245874 
L 121.660996 56.387495 
L 119.833994 55.003521 
L 118.006991 52.084513 
L 116.179989 53.775635 
L 114.352986 56.488643 
L 112.525983 55.486527 
L 110.698981 48.713423 
L 108.871978 50.537416 
L 107.044976 49.877337 
L 105.217973 52.470441 
L 103.390971 51.622895 
L 101.563968 53.402394 
L 99.736966 49.060538 
L 97.909963 50.134622 
L 96.082961 51.734662 
L 94.255958 51.395683 
L 92.428956 56.107971 
L 90.601953 53.264924 
L 88.77495 50.568735 
L 86.947948 52.092666 
L 85.120945 51.276217 
L 83.293943 47.989414 
L 81.46694 52.415864 
L 79.639938 49.587755 
L 77.812935 52.634291 
L 75.985933 57.589997 
L 74.15893 57.089843 
L 72.331928 52.263884 
L 70.504925 45.644938 
L 68.677923 49.455032 
L 66.85092 48.354893 
L 65.023917 54.392406 
L 63.196915 55.769693 
L 61.369912 51.897857 
L 59.54291 51.729068 
L 57.715907 52.518321 
L 55.888905 45.803947 
L 54.061902 47.855144 
" clip-path="url(#p792cbbf0c2)" style="fill: none; stroke: #00bfff; stroke-opacity: 0.5; stroke-width: 0.5; stroke-linecap: square"/>
   </g>
   <g id="line2d_22">
    <path d="M 260.513189 126.792 
L 258.686186 126.792 
L 256.859184 126.792 
L 255.032181 126.792 
L 253.205179 126.792 
L 251.378176 28.907141 
L 249.551174 26.578265 
L 247.724171 25.51361 
L 245.897169 28.659456 
L 244.070166 35.167271 
L 242.243164 47.227713 
L 240.416161 52.416879 
L 238.589158 55.329836 
L 236.762156 67.546219 
L 234.935153 75.926366 
L 233.108151 67.540411 
L 231.281148 71.291028 
L 229.454146 72.290623 
L 227.627143 73.180197 
L 225.800141 81.158756 
L 223.973138 68.329845 
L 222.146136 65.816174 
L 220.319133 71.083322 
L 218.492131 70.091031 
L 216.665128 69.755292 
L 214.838125 69.962518 
L 213.011123 73.748765 
L 211.18412 75.060092 
L 209.357118 74.18558 
L 207.530115 71.64994 
L 205.703113 69.796247 
L 203.87611 71.07282 
L 202.049108 74.307928 
L 200.222105 77.969939 
L 198.395103 73.309863 
L 196.5681 72.667118 
L 194.741098 72.3574 
L 192.914095 77.945064 
L 191.087093 73.546928 
L 189.26009 65.897775 
L 187.433087 64.780228 
L 185.606085 72.80227 
L 183.779082 71.404963 
L 181.95208 66.356444 
L 180.125077 66.423723 
L 178.298075 64.633791 
L 176.471072 66.645937 
L 174.64407 58.384963 
L 172.817067 63.870331 
L 170.990065 60.69098 
L 169.163062 62.866654 
L 167.33606 64.714974 
L 165.509057 64.309144 
L 163.682054 66.954146 
L 161.855052 60.298882 
L 160.028049 67.226677 
L 158.201047 65.855243 
L 156.374044 71.5563 
L 154.547042 67.116624 
L 152.720039 62.169508 
L 150.893037 59.580612 
L 149.066034 66.584013 
L 147.239032 59.743474 
L 145.412029 61.259436 
L 143.585027 62.266322 
L 141.758024 66.281197 
L 139.931021 64.856785 
L 138.104019 65.426299 
L 136.277016 63.482767 
L 134.450014 77.372166 
L 132.623011 70.28489 
L 130.796009 72.833065 
L 128.969006 69.898082 
L 127.142004 61.02954 
L 125.315001 61.327062 
L 123.487999 57.523942 
L 121.660996 64.086793 
L 119.833994 61.502084 
L 118.006991 67.810703 
L 116.179989 71.245766 
L 114.352986 71.923321 
L 112.525983 70.914753 
L 110.698981 70.252623 
L 108.871978 69.095903 
L 107.044976 71.404768 
L 105.217973 67.642191 
L 103.390971 61.950509 
L 101.563968 63.314028 
L 99.736966 66.573691 
L 97.909963 71.307003 
L 96.082961 66.240984 
L 94.255958 67.718272 
L 92.428956 64.399288 
L 90.601953 69.123 
L 88.77495 68.142009 
L 86.947948 71.448225 
L 85.120945 65.874689 
L 83.293943 67.153628 
L 81.46694 65.966242 
L 79.639938 68.784007 
L 77.812935 68.36845 
L 75.985933 68.40479 
L 74.15893 64.659021 
L 72.331928 64.779144 
L 70.504925 65.439304 
L 68.677923 67.305356 
L 66.85092 66.419954 
L 65.023917 67.997061 
L 63.196915 65.112444 
L 61.369912 64.522233 
L 59.54291 73.602674 
L 57.715907 65.462769 
L 55.888905 61.011277 
L 54.061902 64.921947 
" clip-path="url(#p792cbbf0c2)" style="fill: none; stroke: #00bfff; stroke-opacity: 0.5; stroke-width: 0.5; stroke-linecap: square"/>
   </g>
   <g id="line2d_23">
    <path d="M 260.513189 126.792 
L 258.686186 126.792 
L 256.859184 126.792 
L 255.032181 126.792 
L 253.205179 126.792 
L 251.378176 24.70396 
L 249.551174 20.638427 
L 247.724171 14.506609 
L 245.897169 20.689811 
L 244.070166 30.464917 
L 242.243164 37.175553 
L 240.416161 36.025374 
L 238.589158 35.577013 
L 236.762156 50.619615 
L 234.935153 48.665867 
L 233.108151 48.914154 
L 231.281148 52.26149 
L 229.454146 56.060332 
L 227.627143 60.496039 
L 225.800141 66.374528 
L 223.973138 68.606174 
L 222.146136 69.614643 
L 220.319133 75.700077 
L 218.492131 76.09934 
L 216.665128 75.155759 
L 214.838125 75.298483 
L 213.011123 76.880006 
L 211.18412 71.055527 
L 209.357118 72.393365 
L 207.530115 72.793512 
L 205.703113 73.606052 
L 203.87611 80.929058 
L 202.049108 72.7205 
L 200.222105 75.822944 
L 198.395103 69.888842 
L 196.5681 74.826236 
L 194.741098 72.445285 
L 192.914095 69.001622 
L 191.087093 67.917346 
L 189.26009 64.498412 
L 187.433087 67.615464 
L 185.606085 70.252383 
L 183.779082 64.608006 
L 181.95208 65.600036 
L 180.125077 63.420009 
L 178.298075 62.661784 
L 176.471072 64.987798 
L 174.64407 62.639713 
L 172.817067 65.600252 
L 170.990065 64.298014 
L 169.163062 66.119868 
L 167.33606 73.453346 
L 165.509057 68.702146 
L 163.682054 65.909392 
L 161.855052 67.020475 
L 160.028049 64.582558 
L 158.201047 62.593577 
L 156.374044 68.067184 
L 154.547042 69.257685 
L 152.720039 65.687967 
L 150.893037 65.71138 
L 149.066034 59.268179 
L 147.239032 56.158113 
L 145.412029 60.821704 
L 143.585027 61.307303 
L 141.758024 61.364634 
L 139.931021 60.238995 
L 138.104019 61.690973 
L 136.277016 63.752731 
L 134.450014 62.369506 
L 132.623011 66.16036 
L 130.796009 60.898447 
L 128.969006 66.229695 
L 127.142004 59.308103 
L 125.315001 55.714294 
L 123.487999 57.410366 
L 121.660996 60.659993 
L 119.833994 61.946263 
L 118.006991 64.529129 
L 116.179989 60.40994 
L 114.352986 58.969633 
L 112.525983 63.291618 
L 110.698981 58.998843 
L 108.871978 59.088582 
L 107.044976 54.545785 
L 105.217973 53.131001 
L 103.390971 59.370693 
L 101.563968 55.708641 
L 99.736966 53.576126 
L 97.909963 59.038879 
L 96.082961 57.383469 
L 94.255958 58.458985 
L 92.428956 55.574802 
L 90.601953 55.35512 
L 88.77495 57.608431 
L 86.947948 55.757429 
L 85.120945 55.016512 
L 83.293943 54.085918 
L 81.46694 51.406941 
L 79.639938 53.153176 
L 77.812935 57.290706 
L 75.985933 55.034152 
L 74.15893 57.090978 
L 72.331928 56.532919 
L 70.504925 61.607467 
L 68.677923 60.992404 
L 66.85092 54.968744 
L 65.023917 52.637813 
L 63.196915 52.718263 
L 61.369912 52.732511 
L 59.54291 48.929544 
L 57.715907 51.199978 
L 55.888905 57.167805 
L 54.061902 58.684851 
" clip-path="url(#p792cbbf0c2)" style="fill: none; stroke: #00bfff; stroke-opacity: 0.5; stroke-width: 0.5; stroke-linecap: square"/>
   </g>
   <g id="line2d_24">
    <path d="M 260.513189 126.792 
L 258.686186 126.792 
L 256.859184 126.792 
L 255.032181 126.792 
L 253.205179 126.792 
L 251.378176 124.95099 
L 249.551174 121.977479 
L 247.724171 118.547814 
L 245.897169 119.538805 
L 244.070166 114.709888 
L 242.243164 111.437736 
L 240.416161 107.080784 
L 238.589158 105.368119 
L 236.762156 105.457896 
L 234.935153 97.578894 
L 233.108151 97.133794 
L 231.281148 82.541162 
L 229.454146 85.782326 
L 227.627143 90.600385 
L 225.800141 76.027675 
L 223.973138 74.428815 
L 222.146136 74.075143 
L 220.319133 78.589796 
L 218.492131 70.96792 
L 216.665128 69.409348 
L 214.838125 69.296999 
L 213.011123 73.763081 
L 211.18412 81.841666 
L 209.357118 66.253694 
L 207.530115 75.960087 
L 205.703113 69.002523 
L 203.87611 63.759962 
L 202.049108 69.229028 
L 200.222105 73.784751 
L 198.395103 70.614574 
L 196.5681 68.398263 
L 194.741098 72.19064 
L 192.914095 75.192828 
L 191.087093 65.866148 
L 189.26009 74.608137 
L 187.433087 76.005322 
L 185.606085 75.357149 
L 183.779082 79.22644 
L 181.95208 74.958449 
L 180.125077 75.491818 
L 178.298075 81.932256 
L 176.471072 75.185216 
L 174.64407 78.591181 
L 172.817067 78.142659 
L 170.990065 77.282973 
L 169.163062 76.81174 
L 167.33606 74.936236 
L 165.509057 82.015844 
L 163.682054 82.647329 
L 161.855052 73.457799 
L 160.028049 78.850554 
L 158.201047 76.944764 
L 156.374044 80.088551 
L 154.547042 83.455702 
L 152.720039 84.744926 
L 150.893037 79.725467 
L 149.066034 84.001388 
L 147.239032 77.525594 
L 145.412029 74.895961 
L 143.585027 76.267837 
L 141.758024 76.946345 
L 139.931021 83.707743 
L 138.104019 84.336183 
L 136.277016 85.617481 
L 134.450014 78.883129 
L 132.623011 77.199763 
L 130.796009 79.518917 
L 128.969006 84.121904 
L 127.142004 86.733176 
L 125.315001 85.738234 
L 123.487999 83.293521 
L 121.660996 82.979048 
L 119.833994 85.772837 
L 118.006991 86.59066 
L 116.179989 90.341648 
L 114.352986 87.655595 
L 112.525983 81.219329 
L 110.698981 84.043972 
L 108.871978 85.771057 
L 107.044976 88.3432 
L 105.217973 85.719044 
L 103.390971 81.554456 
L 101.563968 83.349854 
L 99.736966 85.525995 
L 97.909963 91.420973 
L 96.082961 93.851451 
L 94.255958 89.370349 
L 92.428956 89.87833 
L 90.601953 90.122821 
L 88.77495 93.973192 
L 86.947948 91.521047 
L 85.120945 85.315649 
L 83.293943 93.507651 
L 81.46694 90.775131 
L 79.639938 94.939296 
L 77.812935 93.056868 
L 75.985933 96.048324 
L 74.15893 87.378441 
L 72.331928 91.674439 
L 70.504925 91.676666 
L 68.677923 92.286079 
L 66.85092 95.670688 
L 65.023917 96.510748 
L 63.196915 91.833021 
L 61.369912 88.384824 
L 59.54291 84.731895 
L 57.715907 88.674726 
L 55.888905 89.042954 
L 54.061902 94.793424 
" clip-path="url(#p792cbbf0c2)" style="fill: none; stroke: #ff00ff; stroke-opacity: 0.5; stroke-width: 0.5; stroke-linecap: square"/>
   </g>
   <g id="line2d_25">
    <path d="M 260.513189 126.792 
L 258.686186 126.792 
L 256.859184 126.792 
L 255.032181 126.792 
L 253.205179 126.792 
L 251.378176 118.487 
L 249.551174 117.414453 
L 247.724171 107.207322 
L 245.897169 109.16173 
L 244.070166 93.282493 
L 242.243164 89.009219 
L 240.416161 87.22249 
L 238.589158 74.196935 
L 236.762156 51.476989 
L 234.935153 54.060747 
L 233.108151 51.023391 
L 231.281148 50.97605 
L 229.454146 52.838156 
L 227.627143 46.809379 
L 225.800141 49.847164 
L 223.973138 48.179015 
L 222.146136 43.000657 
L 220.319133 41.636113 
L 218.492131 47.768518 
L 216.665128 46.292164 
L 214.838125 62.639183 
L 213.011123 57.662533 
L 211.18412 53.328214 
L 209.357118 54.170698 
L 207.530115 47.209213 
L 205.703113 57.013017 
L 203.87611 54.196102 
L 202.049108 64.330414 
L 200.222105 62.695816 
L 198.395103 61.051715 
L 196.5681 51.616861 
L 194.741098 62.849259 
L 192.914095 62.374763 
L 191.087093 66.418456 
L 189.26009 65.623484 
L 187.433087 78.314712 
L 185.606085 67.273949 
L 183.779082 73.651502 
L 181.95208 74.010397 
L 180.125077 66.374535 
L 178.298075 60.677663 
L 176.471072 70.787753 
L 174.64407 70.171051 
L 172.817067 76.220114 
L 170.990065 70.382374 
L 169.163062 76.150734 
L 167.33606 81.103978 
L 165.509057 75.319079 
L 163.682054 80.509812 
L 161.855052 80.024359 
L 160.028049 73.586857 
L 158.201047 69.948604 
L 156.374044 79.281201 
L 154.547042 75.421761 
L 152.720039 78.206154 
L 150.893037 78.365255 
L 149.066034 85.007895 
L 147.239032 80.801241 
L 145.412029 79.691324 
L 143.585027 81.807667 
L 141.758024 74.641582 
L 139.931021 83.834307 
L 138.104019 87.184066 
L 136.277016 83.79047 
L 134.450014 84.380948 
L 132.623011 78.247553 
L 130.796009 82.037233 
L 128.969006 87.292769 
L 127.142004 86.219658 
L 125.315001 86.689973 
L 123.487999 85.440983 
L 121.660996 83.299362 
L 119.833994 84.683337 
L 118.006991 87.602345 
L 116.179989 85.911222 
L 114.352986 83.198214 
L 112.525983 84.20033 
L 110.698981 90.973434 
L 108.871978 89.149441 
L 107.044976 89.809521 
L 105.217973 87.216416 
L 103.390971 88.063962 
L 101.563968 86.284464 
L 99.736966 90.62632 
L 97.909963 89.552235 
L 96.082961 87.952196 
L 94.255958 88.291174 
L 92.428956 83.578886 
L 90.601953 86.421933 
L 88.77495 89.118122 
L 86.947948 87.594191 
L 85.120945 88.41064 
L 83.293943 91.697443 
L 81.46694 87.270993 
L 79.639938 90.099102 
L 77.812935 87.052567 
L 75.985933 82.09686 
L 74.15893 82.597015 
L 72.331928 87.422973 
L 70.504925 94.041919 
L 68.677923 90.231825 
L 66.85092 91.331964 
L 65.023917 85.294451 
L 63.196915 83.917164 
L 61.369912 87.789 
L 59.54291 87.957789 
L 57.715907 87.168536 
L 55.888905 93.882911 
L 54.061902 91.831713 
" clip-path="url(#p792cbbf0c2)" style="fill: none; stroke: #ff00ff; stroke-opacity: 0.5; stroke-width: 0.5; stroke-linecap: square"/>
   </g>
   <g id="line2d_26">
    <path d="M 260.513189 126.792 
L 258.686186 126.792 
L 256.859184 126.792 
L 255.032181 126.792 
L 253.205179 126.792 
L 251.378176 110.779716 
L 249.551174 113.108592 
L 247.724171 114.173247 
L 245.897169 111.027401 
L 244.070166 104.519586 
L 242.243164 92.459145 
L 240.416161 87.269978 
L 238.589158 84.357021 
L 236.762156 72.140638 
L 234.935153 63.760491 
L 233.108151 72.146446 
L 231.281148 68.395829 
L 229.454146 67.396235 
L 227.627143 66.506661 
L 225.800141 58.528101 
L 223.973138 71.357012 
L 222.146136 73.870683 
L 220.319133 68.603536 
L 218.492131 69.595826 
L 216.665128 69.931565 
L 214.838125 69.724339 
L 213.011123 65.938092 
L 211.18412 64.626766 
L 209.357118 65.501277 
L 207.530115 68.036917 
L 205.703113 69.89061 
L 203.87611 68.614037 
L 202.049108 65.378929 
L 200.222105 61.716918 
L 198.395103 66.376994 
L 196.5681 67.019739 
L 194.741098 67.329457 
L 192.914095 61.741793 
L 191.087093 66.139929 
L 189.26009 73.789082 
L 187.433087 74.906629 
L 185.606085 66.884587 
L 183.779082 68.281894 
L 181.95208 73.330413 
L 180.125077 73.263134 
L 178.298075 75.053066 
L 176.471072 73.04092 
L 174.64407 81.301894 
L 172.817067 75.816526 
L 170.990065 78.995878 
L 169.163062 76.820203 
L 167.33606 74.971884 
L 165.509057 75.377714 
L 163.682054 72.732711 
L 161.855052 79.387976 
L 160.028049 72.46018 
L 158.201047 73.831614 
L 156.374044 68.130557 
L 154.547042 72.570233 
L 152.720039 77.51735 
L 150.893037 80.106245 
L 149.066034 73.102844 
L 147.239032 79.943383 
L 145.412029 78.427421 
L 143.585027 77.420535 
L 141.758024 73.40566 
L 139.931021 74.830072 
L 138.104019 74.260558 
L 136.277016 76.20409 
L 134.450014 62.314691 
L 132.623011 69.401967 
L 130.796009 66.853792 
L 128.969006 69.788775 
L 127.142004 78.657317 
L 125.315001 78.359795 
L 123.487999 82.162915 
L 121.660996 75.600064 
L 119.833994 78.184773 
L 118.006991 71.876154 
L 116.179989 68.441091 
L 114.352986 67.763536 
L 112.525983 68.772104 
L 110.698981 69.434234 
L 108.871978 70.590954 
L 107.044976 68.282089 
L 105.217973 72.044666 
L 103.390971 77.736348 
L 101.563968 76.372829 
L 99.736966 73.113166 
L 97.909963 68.379854 
L 96.082961 73.445873 
L 94.255958 71.968585 
L 92.428956 75.287569 
L 90.601953 70.563857 
L 88.77495 71.544848 
L 86.947948 68.238633 
L 85.120945 73.812169 
L 83.293943 72.533229 
L 81.46694 73.720615 
L 79.639938 70.90285 
L 77.812935 71.318407 
L 75.985933 71.282068 
L 74.15893 75.027836 
L 72.331928 74.907713 
L 70.504925 74.247553 
L 68.677923 72.381501 
L 66.85092 73.266903 
L 65.023917 71.689796 
L 63.196915 74.574413 
L 61.369912 75.164624 
L 59.54291 66.084183 
L 57.715907 74.224088 
L 55.888905 78.67558 
L 54.061902 74.76491 
" clip-path="url(#p792cbbf0c2)" style="fill: none; stroke: #ff00ff; stroke-opacity: 0.5; stroke-width: 0.5; stroke-linecap: square"/>
   </g>
   <g id="line2d_27">
    <path d="M 260.513189 126.792 
L 258.686186 126.792 
L 256.859184 126.792 
L 255.032181 126.792 
L 253.205179 126.792 
L 251.378176 114.982897 
L 249.551174 119.04843 
L 247.724171 125.180248 
L 245.897169 118.997046 
L 244.070166 109.22194 
L 242.243164 102.511304 
L 240.416161 103.661483 
L 238.589158 104.109844 
L 236.762156 89.067242 
L 234.935153 91.02099 
L 233.108151 90.772703 
L 231.281148 87.425367 
L 229.454146 83.626525 
L 227.627143 79.190818 
L 225.800141 73.312329 
L 223.973138 71.080683 
L 222.146136 70.072214 
L 220.319133 63.98678 
L 218.492131 63.587517 
L 216.665128 64.531098 
L 214.838125 64.388374 
L 213.011123 62.806851 
L 211.18412 68.631331 
L 209.357118 67.293493 
L 207.530115 66.893345 
L 205.703113 66.080806 
L 203.87611 58.757799 
L 202.049108 66.966357 
L 200.222105 63.863913 
L 198.395103 69.798015 
L 196.5681 64.860621 
L 194.741098 67.241572 
L 192.914095 70.685235 
L 191.087093 71.769511 
L 189.26009 75.188445 
L 187.433087 72.071393 
L 185.606085 69.434474 
L 183.779082 75.078851 
L 181.95208 74.086821 
L 180.125077 76.266848 
L 178.298075 77.025073 
L 176.471072 74.699059 
L 174.64407 77.047144 
L 172.817067 74.086605 
L 170.990065 75.388844 
L 169.163062 73.566989 
L 167.33606 66.233512 
L 165.509057 70.984711 
L 163.682054 73.777465 
L 161.855052 72.666383 
L 160.028049 75.104299 
L 158.201047 77.09328 
L 156.374044 71.619673 
L 154.547042 70.429172 
L 152.720039 73.99889 
L 150.893037 73.975477 
L 149.066034 80.418678 
L 147.239032 83.528744 
L 145.412029 78.865153 
L 143.585027 78.379554 
L 141.758024 78.322223 
L 139.931021 79.447862 
L 138.104019 77.995885 
L 136.277016 75.934126 
L 134.450014 77.317351 
L 132.623011 73.526497 
L 130.796009 78.78841 
L 128.969006 73.457162 
L 127.142004 80.378754 
L 125.315001 83.972563 
L 123.487999 82.276491 
L 121.660996 79.026865 
L 119.833994 77.740594 
L 118.006991 75.157728 
L 116.179989 79.276917 
L 114.352986 80.717224 
L 112.525983 76.395239 
L 110.698981 80.688014 
L 108.871978 80.598275 
L 107.044976 85.141072 
L 105.217973 86.555856 
L 103.390971 80.316164 
L 101.563968 83.978216 
L 99.736966 86.110731 
L 97.909963 80.647978 
L 96.082961 82.303388 
L 94.255958 81.227872 
L 92.428956 84.112056 
L 90.601953 84.331737 
L 88.77495 82.078426 
L 86.947948 83.929428 
L 85.120945 84.670345 
L 83.293943 85.600939 
L 81.46694 88.279916 
L 79.639938 86.533681 
L 77.812935 82.396151 
L 75.985933 84.652705 
L 74.15893 82.595879 
L 72.331928 83.153938 
L 70.504925 78.07939 
L 68.677923 78.694454 
L 66.85092 84.718113 
L 65.023917 87.049045 
L 63.196915 86.968594 
L 61.369912 86.954346 
L 59.54291 90.757313 
L 57.715907 88.486879 
L 55.888905 82.519053 
L 54.061902 81.002006 
" clip-path="url(#p792cbbf0c2)" style="fill: none; stroke: #ff00ff; stroke-opacity: 0.5; stroke-width: 0.5; stroke-linecap: square"/>
   </g>
   <g id="line2d_28">
    <path d="M 260.513189 126.792 
L 258.686186 126.792 
L 256.859184 126.792 
L 255.032181 126.792 
L 253.205179 126.792 
L 251.378176 22.386706 
L 249.551174 21.799619 
L 247.724171 23.409699 
L 245.897169 25.005612 
L 244.070166 34.25338 
L 242.243164 40.832506 
L 240.416161 43.378173 
L 238.589158 47.678878 
L 236.762156 60.151166 
L 234.935153 63.081577 
L 233.108151 61.917774 
L 231.281148 67.352255 
L 229.454146 67.276046 
L 227.627143 68.910047 
L 225.800141 75.25804 
L 223.973138 73.425476 
L 222.146136 74.432183 
L 220.319133 76.482801 
L 218.492131 76.706912 
L 216.665128 77.145813 
L 214.838125 73.174633 
L 213.011123 74.644218 
L 211.18412 72.579863 
L 209.357118 76.382067 
L 207.530115 75.161967 
L 205.703113 74.190118 
L 203.87611 78.354882 
L 202.049108 73.210675 
L 200.222105 74.171508 
L 198.395103 72.726533 
L 196.5681 76.712986 
L 194.741098 72.284125 
L 192.914095 72.188202 
L 191.087093 72.138346 
L 189.26009 67.38457 
L 187.433087 64.362343 
L 185.606085 69.949318 
L 183.779082 65.627185 
L 181.95208 65.590337 
L 180.125077 66.837773 
L 178.298075 66.014843 
L 176.471072 66.25862 
L 174.64407 62.90904 
L 172.817067 63.620381 
L 170.990065 64.17434 
L 169.163062 63.849441 
L 167.33606 65.375455 
L 165.509057 63.76252 
L 163.682054 62.270028 
L 161.855052 63.302728 
L 160.028049 64.686384 
L 158.201047 65.232292 
L 156.374044 64.906862 
L 154.547042 64.21764 
L 152.720039 61.070027 
L 150.893037 61.643746 
L 149.066034 59.054156 
L 147.239032 59.237116 
L 145.412029 61.716892 
L 143.585027 61.217959 
L 141.758024 63.857905 
L 139.931021 59.231861 
L 138.104019 58.742684 
L 136.277016 59.300315 
L 134.450014 63.962827 
L 132.623011 65.092912 
L 130.796009 62.887269 
L 128.969006 61.021705 
L 127.142004 56.689631 
L 125.315001 55.996716 
L 123.487999 56.393379 
L 121.660996 59.460523 
L 119.833994 58.091472 
L 118.006991 59.380136 
L 116.179989 58.694138 
L 114.352986 59.853215 
L 112.525983 62.040107 
L 110.698981 58.401944 
L 108.871978 58.159425 
L 107.044976 56.792887 
L 105.217973 56.802862 
L 103.390971 57.769124 
L 101.563968 57.190516 
L 99.736966 55.842804 
L 97.909963 57.186597 
L 96.082961 55.29863 
L 94.255958 56.972362 
L 92.428956 56.472647 
L 90.601953 56.82677 
L 88.77495 55.50821 
L 86.947948 56.866032 
L 85.120945 56.634657 
L 83.293943 53.852042 
L 81.46694 54.675193 
L 79.639938 54.068125 
L 77.812935 56.230859 
L 75.985933 56.166868 
L 74.15893 57.787065 
L 72.331928 55.397091 
L 70.504925 55.175475 
L 68.677923 56.288392 
L 66.85092 53.43994 
L 65.023917 54.550847 
L 63.196915 55.363559 
L 61.369912 55.113659 
L 59.54291 57.304062 
L 57.715907 55.0483 
L 55.888905 53.656733 
L 54.061902 54.088844 
" clip-path="url(#p792cbbf0c2)" style="fill: none; stroke: #00bfff; stroke-width: 4; stroke-linecap: square"/>
   </g>
   <g id="line2d_29">
    <path d="M 260.513189 126.792 
L 258.686186 126.792 
L 256.859184 126.792 
L 255.032181 126.792 
L 253.205179 126.792 
L 251.378176 117.300151 
L 249.551174 117.887239 
L 247.724171 116.277158 
L 245.897169 114.681245 
L 244.070166 105.433477 
L 242.243164 98.854351 
L 240.416161 96.308684 
L 238.589158 92.00798 
L 236.762156 79.535691 
L 234.935153 76.605281 
L 233.108151 77.769083 
L 231.281148 72.334602 
L 229.454146 72.410811 
L 227.627143 70.77681 
L 225.800141 64.428817 
L 223.973138 66.261381 
L 222.146136 65.254674 
L 220.319133 63.204056 
L 218.492131 62.979945 
L 216.665128 62.541044 
L 214.838125 66.512224 
L 213.011123 65.042639 
L 211.18412 67.106994 
L 209.357118 63.30479 
L 207.530115 64.524891 
L 205.703113 65.496739 
L 203.87611 61.331975 
L 202.049108 66.476182 
L 200.222105 65.515349 
L 198.395103 66.960324 
L 196.5681 62.973871 
L 194.741098 67.402732 
L 192.914095 67.498655 
L 191.087093 67.548511 
L 189.26009 72.302287 
L 187.433087 75.324514 
L 185.606085 69.73754 
L 183.779082 74.059672 
L 181.95208 74.09652 
L 180.125077 72.849084 
L 178.298075 73.672014 
L 176.471072 73.428237 
L 174.64407 76.777817 
L 172.817067 76.066476 
L 170.990065 75.512517 
L 169.163062 75.837417 
L 167.33606 74.311402 
L 165.509057 75.924337 
L 163.682054 77.416829 
L 161.855052 76.384129 
L 160.028049 75.000473 
L 158.201047 74.454566 
L 156.374044 74.779995 
L 154.547042 75.469217 
L 152.720039 78.61683 
L 150.893037 78.043111 
L 149.066034 80.632701 
L 147.239032 80.449741 
L 145.412029 77.969965 
L 143.585027 78.468898 
L 141.758024 75.828952 
L 139.931021 80.454996 
L 138.104019 80.944173 
L 136.277016 80.386542 
L 134.450014 75.72403 
L 132.623011 74.593945 
L 130.796009 76.799588 
L 128.969006 78.665153 
L 127.142004 82.997226 
L 125.315001 83.690141 
L 123.487999 83.293478 
L 121.660996 80.226335 
L 119.833994 81.595385 
L 118.006991 80.306722 
L 116.179989 80.992719 
L 114.352986 79.833642 
L 112.525983 77.64675 
L 110.698981 81.284914 
L 108.871978 81.527432 
L 107.044976 82.89397 
L 105.217973 82.883995 
L 103.390971 81.917733 
L 101.563968 82.496341 
L 99.736966 83.844053 
L 97.909963 82.50026 
L 96.082961 84.388227 
L 94.255958 82.714495 
L 92.428956 83.21421 
L 90.601953 82.860087 
L 88.77495 84.178647 
L 86.947948 82.820825 
L 85.120945 83.052201 
L 83.293943 85.834816 
L 81.46694 85.011664 
L 79.639938 85.618732 
L 77.812935 83.455998 
L 75.985933 83.519989 
L 74.15893 81.899793 
L 72.331928 84.289766 
L 70.504925 84.511382 
L 68.677923 83.398465 
L 66.85092 86.246917 
L 65.023917 85.13601 
L 63.196915 84.323298 
L 61.369912 84.573199 
L 59.54291 82.382795 
L 57.715907 84.638557 
L 55.888905 86.030124 
L 54.061902 85.598013 
" clip-path="url(#p792cbbf0c2)" style="fill: none; stroke: #ff00ff; stroke-width: 4; stroke-linecap: square"/>
   </g>
   <g id="line2d_30">
    <path d="M 251.378176 126.792 
L 251.378176 7.2 
" clip-path="url(#p792cbbf0c2)" style="fill: none; stroke-dasharray: 1.5,2.475; stroke-dashoffset: 0; stroke: #000000; stroke-width: 1.5"/>
   </g>
   <g id="patch_3">
    <path d="M 53.94375 126.792 
L 53.94375 7.2 
" style="fill: none; stroke: #000000; stroke-linejoin: miter; stroke-linecap: square"/>
   </g>
   <g id="patch_4">
    <path d="M 260.40375 126.792 
L 260.40375 7.2 
" style="fill: none"/>
   </g>
   <g id="patch_5">
    <path d="M 53.94375 126.792 
L 260.40375 126.792 
" style="fill: none; stroke: #000000; stroke-linejoin: miter; stroke-linecap: square"/>
   </g>
   <g id="patch_6">
    <path d="M 53.94375 7.2 
L 260.40375 7.2 
" style="fill: none"/>
   </g>
   <g id="legend_1">
    <g id="patch_7">
     <path d="M 60.94375 121.792 
L 119.24375 121.792 
Q 121.24375 121.792 121.24375 119.792 
L 121.24375 91.413875 
Q 121.24375 89.413875 119.24375 89.413875 
L 60.94375 89.413875 
Q 58.94375 89.413875 58.94375 91.413875 
L 58.94375 119.792 
Q 58.94375 121.792 60.94375 121.792 
z
" style="fill: #ffffff; opacity: 0.8; stroke: #cccccc; stroke-linejoin: miter"/>
    </g>
    <g id="line2d_31">
     <path d="M 62.94375 97.512313 
L 72.94375 97.512313 
L 82.94375 97.512313 
" style="fill: none; stroke: #ff00ff; stroke-width: 4; stroke-linecap: square"/>
    </g>
    <g id="text_10">
     <!-- WT -->
     <g transform="translate(90.94375 101.012313) scale(0.1 -0.1)">
      <defs>
       <path id="DejaVuSans-57" d="M 213 4666 
L 850 4666 
L 1831 722 
L 2809 4666 
L 3519 4666 
L 4500 722 
L 5478 4666 
L 6119 4666 
L 4947 0 
L 4153 0 
L 3169 4050 
L 2175 0 
L 1381 0 
L 213 4666 
z
" transform="scale(0.015625)"/>
       <path id="DejaVuSans-54" d="M -19 4666 
L 3928 4666 
L 3928 4134 
L 2272 4134 
L 2272 0 
L 1638 0 
L 1638 4134 
L -19 4134 
L -19 4666 
z
" transform="scale(0.015625)"/>
      </defs>
      <use xlink:href="#DejaVuSans-57"/>
      <use xlink:href="#DejaVuSans-54" x="98.876953"/>
     </g>
    </g>
    <g id="line2d_32">
     <path d="M 62.94375 112.192 
L 72.94375 112.192 
L 82.94375 112.192 
" style="fill: none; stroke: #00bfff; stroke-width: 4; stroke-linecap: square"/>
    </g>
    <g id="text_11">
     <!-- $\Delta\mathit{pilH}$ -->
     <g transform="translate(90.94375 115.692) scale(0.1 -0.1)">
      <defs>
       <path id="DejaVuSans-394" d="M 2188 4044 
L 906 525 
L 3472 525 
L 2188 4044 
z
M 50 0 
L 1831 4666 
L 2547 4666 
L 4325 0 
L 50 0 
z
" transform="scale(0.015625)"/>
       <path id="DejaVuSans-Oblique-70" d="M 3175 2156 
Q 3175 2616 2975 2859 
Q 2775 3103 2400 3103 
Q 2144 3103 1911 2972 
Q 1678 2841 1497 2591 
Q 1319 2344 1212 1994 
Q 1106 1644 1106 1300 
Q 1106 863 1306 627 
Q 1506 391 1875 391 
Q 2147 391 2380 519 
Q 2613 647 2778 891 
Q 2956 1147 3065 1494 
Q 3175 1841 3175 2156 
z
M 1394 2969 
Q 1625 3272 1939 3428 
Q 2253 3584 2638 3584 
Q 3175 3584 3472 3232 
Q 3769 2881 3769 2247 
Q 3769 1728 3584 1258 
Q 3400 788 3053 416 
Q 2822 169 2531 39 
Q 2241 -91 1919 -91 
Q 1547 -91 1294 64 
Q 1041 219 916 525 
L 556 -1331 
L -19 -1331 
L 922 3500 
L 1497 3500 
L 1394 2969 
z
" transform="scale(0.015625)"/>
       <path id="DejaVuSans-Oblique-69" d="M 1172 4863 
L 1747 4863 
L 1606 4134 
L 1031 4134 
L 1172 4863 
z
M 909 3500 
L 1484 3500 
L 800 0 
L 225 0 
L 909 3500 
z
" transform="scale(0.015625)"/>
       <path id="DejaVuSans-Oblique-6c" d="M 1172 4863 
L 1747 4863 
L 800 0 
L 225 0 
L 1172 4863 
z
" transform="scale(0.015625)"/>
       <path id="DejaVuSans-Oblique-48" d="M 1081 4666 
L 1716 4666 
L 1344 2753 
L 3634 2753 
L 4006 4666 
L 4641 4666 
L 3731 0 
L 3097 0 
L 3531 2222 
L 1241 2222 
L 806 0 
L 172 0 
L 1081 4666 
z
" transform="scale(0.015625)"/>
      </defs>
      <use xlink:href="#DejaVuSans-394" transform="translate(0 0.015625)"/>
      <use xlink:href="#DejaVuSans-Oblique-70" transform="translate(68.408203 0.015625)"/>
      <use xlink:href="#DejaVuSans-Oblique-69" transform="translate(131.884766 0.015625)"/>
      <use xlink:href="#DejaVuSans-Oblique-6c" transform="translate(159.667969 0.015625)"/>
      <use xlink:href="#DejaVuSans-Oblique-48" transform="translate(187.451172 0.015625)"/>
     </g>
    </g>
   </g>
  </g>
 </g>
 <defs>
  <clipPath id="p792cbbf0c2">
   <rect x="53.94375" y="7.2" width="206.46" height="119.592"/>
  </clipPath>
 </defs>
</svg>
