<?xml version="1.0" encoding="utf-8" standalone="no"?>
<!DOCTYPE svg PUBLIC "-//W3C//DTD SVG 1.1//EN"
  "http://www.w3.org/Graphics/SVG/1.1/DTD/svg11.dtd">
<svg xmlns:xlink="http://www.w3.org/1999/xlink" width="267.60375pt" height="174.433563pt" viewBox="0 0 267.60375 174.433563" xmlns="http://www.w3.org/2000/svg" version="1.1">
 <metadata>
  <rdf:RDF xmlns:dc="http://purl.org/dc/elements/1.1/" xmlns:cc="http://creativecommons.org/ns#" xmlns:rdf="http://www.w3.org/1999/02/22-rdf-syntax-ns#">
   <cc:Work>
    <dc:type rdf:resource="http://purl.org/dc/dcmitype/StillImage"/>
    <dc:date>2026-05-26T16:05:03.313997</dc:date>
    <dc:format>image/svg+xml</dc:format>
    <dc:creator>
     <cc:Agent>
      <dc:title>Matplotlib v3.9.4, https://matplotlib.org/</dc:title>
     </cc:Agent>
    </dc:creator>
   </cc:Work>
  </rdf:RDF>
 </metadata>
 <defs>
  <style type="text/css">*{stroke-linejoin: round; stroke-linecap: butt}</style>
 </defs>
 <g id="figure_1">
  <g id="patch_1">
   <path d="M 0 174.433563 
L 267.60375 174.433563 
L 267.60375 0 
L 0 0 
L 0 174.433563 
z
" style="fill: none"/>
  </g>
  <g id="axes_1">
   <g id="patch_2">
    <path d="M 53.94375 126.792 
L 260.40375 126.792 
L 260.40375 7.2 
L 53.94375 7.2 
L 53.94375 126.792 
z
" style="fill: none"/>
   </g>
   <g id="matplotlib.axis_1">
    <g id="xtick_1">
     <g id="line2d_1">
      <defs>
       <path id="m22ee67bc55" d="M 0 0 
L 0 7 
" style="stroke: #000000; stroke-width: 1.25"/>
      </defs>
      <g>
       <use xlink:href="#m22ee67bc55" x="251.378176" y="126.792" style="stroke: #000000; stroke-width: 1.25"/>
      </g>
     </g>
     <g id="text_1">
      <!-- 0 -->
      <g transform="translate(247.48552 147.312938) scale(0.14 -0.14)">
       <defs>
        <path id="ArialMT-30" d="M 266 2259 
Q 266 3072 433 3567 
Q 600 4063 929 4331 
Q 1259 4600 1759 4600 
Q 2128 4600 2406 4451 
Q 2684 4303 2865 4023 
Q 3047 3744 3150 3342 
Q 3253 2941 3253 2259 
Q 3253 1453 3087 958 
Q 2922 463 2592 192 
Q 2263 -78 1759 -78 
Q 1097 -78 719 397 
Q 266 969 266 2259 
z
M 844 2259 
Q 844 1131 1108 757 
Q 1372 384 1759 384 
Q 2147 384 2411 759 
Q 2675 1134 2675 2259 
Q 2675 3391 2411 3762 
Q 2147 4134 1753 4134 
Q 1366 4134 1134 3806 
Q 844 3388 844 2259 
z
" transform="scale(0.015625)"/>
       </defs>
       <use xlink:href="#ArialMT-30"/>
      </g>
     </g>
    </g>
    <g id="xtick_2">
     <g id="line2d_2">
      <g>
       <use xlink:href="#m22ee67bc55" x="194.96834" y="126.792" style="stroke: #000000; stroke-width: 1.25"/>
      </g>
     </g>
     <g id="text_2">
      <!-- 100 -->
      <g transform="translate(183.290371 147.312938) scale(0.14 -0.14)">
       <defs>
        <path id="ArialMT-31" d="M 2384 0 
L 1822 0 
L 1822 3584 
Q 1619 3391 1289 3197 
Q 959 3003 697 2906 
L 697 3450 
Q 1169 3672 1522 3987 
Q 1875 4303 2022 4600 
L 2384 4600 
L 2384 0 
z
" transform="scale(0.015625)"/>
       </defs>
       <use xlink:href="#ArialMT-31"/>
       <use xlink:href="#ArialMT-30" x="55.615234"/>
       <use xlink:href="#ArialMT-30" x="111.230469"/>
      </g>
     </g>
    </g>
    <g id="xtick_3">
     <g id="line2d_3">
      <g>
       <use xlink:href="#m22ee67bc55" x="138.558504" y="126.792" style="stroke: #000000; stroke-width: 1.25"/>
      </g>
     </g>
     <g id="text_3">
      <!-- 200 -->
      <g transform="translate(126.880535 147.312938) scale(0.14 -0.14)">
       <defs>
        <path id="ArialMT-32" d="M 3222 541 
L 3222 0 
L 194 0 
Q 188 203 259 391 
Q 375 700 629 1000 
Q 884 1300 1366 1694 
Q 2113 2306 2375 2664 
Q 2638 3022 2638 3341 
Q 2638 3675 2398 3904 
Q 2159 4134 1775 4134 
Q 1369 4134 1125 3890 
Q 881 3647 878 3216 
L 300 3275 
Q 359 3922 746 4261 
Q 1134 4600 1788 4600 
Q 2447 4600 2831 4234 
Q 3216 3869 3216 3328 
Q 3216 3053 3103 2787 
Q 2991 2522 2730 2228 
Q 2469 1934 1863 1422 
Q 1356 997 1212 845 
Q 1069 694 975 541 
L 3222 541 
z
" transform="scale(0.015625)"/>
       </defs>
       <use xlink:href="#ArialMT-32"/>
       <use xlink:href="#ArialMT-30" x="55.615234"/>
       <use xlink:href="#ArialMT-30" x="111.230469"/>
      </g>
     </g>
    </g>
    <g id="xtick_4">
     <g id="line2d_4">
      <g>
       <use xlink:href="#m22ee67bc55" x="82.148668" y="126.792" style="stroke: #000000; stroke-width: 1.25"/>
      </g>
     </g>
     <g id="text_4">
      <!-- 300 -->
      <g transform="translate(70.470699 147.312938) scale(0.14 -0.14)">
       <defs>
        <path id="ArialMT-33" d="M 269 1209 
L 831 1284 
Q 928 806 1161 595 
Q 1394 384 1728 384 
Q 2125 384 2398 659 
Q 2672 934 2672 1341 
Q 2672 1728 2419 1979 
Q 2166 2231 1775 2231 
Q 1616 2231 1378 2169 
L 1441 2663 
Q 1497 2656 1531 2656 
Q 1891 2656 2178 2843 
Q 2466 3031 2466 3422 
Q 2466 3731 2256 3934 
Q 2047 4138 1716 4138 
Q 1388 4138 1169 3931 
Q 950 3725 888 3313 
L 325 3413 
Q 428 3978 793 4289 
Q 1159 4600 1703 4600 
Q 2078 4600 2393 4439 
Q 2709 4278 2876 4000 
Q 3044 3722 3044 3409 
Q 3044 3113 2884 2869 
Q 2725 2625 2413 2481 
Q 2819 2388 3044 2092 
Q 3269 1797 3269 1353 
Q 3269 753 2831 336 
Q 2394 -81 1725 -81 
Q 1122 -81 723 278 
Q 325 638 269 1209 
z
" transform="scale(0.015625)"/>
       </defs>
       <use xlink:href="#ArialMT-33"/>
       <use xlink:href="#ArialMT-30" x="55.615234"/>
       <use xlink:href="#ArialMT-30" x="111.230469"/>
      </g>
     </g>
    </g>
    <g id="text_5">
     <!-- Distance from the edge (µm) -->
     <g transform="translate(62.907813 164.287) scale(0.14 -0.14)">
      <defs>
       <path id="Arial-BoldMT-44" d="M 463 4581 
L 2153 4581 
Q 2725 4581 3025 4494 
Q 3428 4375 3715 4072 
Q 4003 3769 4153 3330 
Q 4303 2891 4303 2247 
Q 4303 1681 4163 1272 
Q 3991 772 3672 463 
Q 3431 228 3022 97 
Q 2716 0 2203 0 
L 463 0 
L 463 4581 
z
M 1388 3806 
L 1388 772 
L 2078 772 
Q 2466 772 2638 816 
Q 2863 872 3011 1006 
Q 3159 1141 3253 1448 
Q 3347 1756 3347 2288 
Q 3347 2819 3253 3103 
Q 3159 3388 2990 3547 
Q 2822 3706 2563 3763 
Q 2369 3806 1803 3806 
L 1388 3806 
z
" transform="scale(0.015625)"/>
       <path id="Arial-BoldMT-69" d="M 459 3769 
L 459 4581 
L 1338 4581 
L 1338 3769 
L 459 3769 
z
M 459 0 
L 459 3319 
L 1338 3319 
L 1338 0 
L 459 0 
z
" transform="scale(0.015625)"/>
       <path id="Arial-BoldMT-73" d="M 150 947 
L 1031 1081 
Q 1088 825 1259 692 
Q 1431 559 1741 559 
Q 2081 559 2253 684 
Q 2369 772 2369 919 
Q 2369 1019 2306 1084 
Q 2241 1147 2013 1200 
Q 950 1434 666 1628 
Q 272 1897 272 2375 
Q 272 2806 612 3100 
Q 953 3394 1669 3394 
Q 2350 3394 2681 3172 
Q 3013 2950 3138 2516 
L 2309 2363 
Q 2256 2556 2107 2659 
Q 1959 2763 1684 2763 
Q 1338 2763 1188 2666 
Q 1088 2597 1088 2488 
Q 1088 2394 1175 2328 
Q 1294 2241 1995 2081 
Q 2697 1922 2975 1691 
Q 3250 1456 3250 1038 
Q 3250 581 2869 253 
Q 2488 -75 1741 -75 
Q 1063 -75 667 200 
Q 272 475 150 947 
z
" transform="scale(0.015625)"/>
       <path id="Arial-BoldMT-74" d="M 1981 3319 
L 1981 2619 
L 1381 2619 
L 1381 1281 
Q 1381 875 1398 808 
Q 1416 741 1477 697 
Q 1538 653 1625 653 
Q 1747 653 1978 738 
L 2053 56 
Q 1747 -75 1359 -75 
Q 1122 -75 931 4 
Q 741 84 652 211 
Q 563 338 528 553 
Q 500 706 500 1172 
L 500 2619 
L 97 2619 
L 97 3319 
L 500 3319 
L 500 3978 
L 1381 4491 
L 1381 3319 
L 1981 3319 
z
" transform="scale(0.015625)"/>
       <path id="Arial-BoldMT-61" d="M 1116 2306 
L 319 2450 
Q 453 2931 781 3162 
Q 1109 3394 1756 3394 
Q 2344 3394 2631 3255 
Q 2919 3116 3036 2902 
Q 3153 2688 3153 2116 
L 3144 1091 
Q 3144 653 3186 445 
Q 3228 238 3344 0 
L 2475 0 
Q 2441 88 2391 259 
Q 2369 338 2359 363 
Q 2134 144 1878 34 
Q 1622 -75 1331 -75 
Q 819 -75 523 203 
Q 228 481 228 906 
Q 228 1188 362 1408 
Q 497 1628 739 1745 
Q 981 1863 1438 1950 
Q 2053 2066 2291 2166 
L 2291 2253 
Q 2291 2506 2166 2614 
Q 2041 2722 1694 2722 
Q 1459 2722 1328 2630 
Q 1197 2538 1116 2306 
z
M 2291 1594 
Q 2122 1538 1756 1459 
Q 1391 1381 1278 1306 
Q 1106 1184 1106 997 
Q 1106 813 1243 678 
Q 1381 544 1594 544 
Q 1831 544 2047 700 
Q 2206 819 2256 991 
Q 2291 1103 2291 1419 
L 2291 1594 
z
" transform="scale(0.015625)"/>
       <path id="Arial-BoldMT-6e" d="M 3478 0 
L 2600 0 
L 2600 1694 
Q 2600 2231 2544 2389 
Q 2488 2547 2361 2634 
Q 2234 2722 2056 2722 
Q 1828 2722 1647 2597 
Q 1466 2472 1398 2265 
Q 1331 2059 1331 1503 
L 1331 0 
L 453 0 
L 453 3319 
L 1269 3319 
L 1269 2831 
Q 1703 3394 2363 3394 
Q 2653 3394 2893 3289 
Q 3134 3184 3257 3021 
Q 3381 2859 3429 2653 
Q 3478 2447 3478 2063 
L 3478 0 
z
" transform="scale(0.015625)"/>
       <path id="Arial-BoldMT-63" d="M 3353 2338 
L 2488 2181 
Q 2444 2441 2289 2572 
Q 2134 2703 1888 2703 
Q 1559 2703 1364 2476 
Q 1169 2250 1169 1719 
Q 1169 1128 1367 884 
Q 1566 641 1900 641 
Q 2150 641 2309 783 
Q 2469 925 2534 1272 
L 3397 1125 
Q 3263 531 2881 228 
Q 2500 -75 1859 -75 
Q 1131 -75 698 384 
Q 266 844 266 1656 
Q 266 2478 700 2936 
Q 1134 3394 1875 3394 
Q 2481 3394 2839 3133 
Q 3197 2872 3353 2338 
z
" transform="scale(0.015625)"/>
       <path id="Arial-BoldMT-65" d="M 2381 1056 
L 3256 909 
Q 3088 428 2723 176 
Q 2359 -75 1813 -75 
Q 947 -75 531 491 
Q 203 944 203 1634 
Q 203 2459 634 2926 
Q 1066 3394 1725 3394 
Q 2466 3394 2894 2905 
Q 3322 2416 3303 1406 
L 1103 1406 
Q 1113 1016 1316 798 
Q 1519 581 1822 581 
Q 2028 581 2168 693 
Q 2309 806 2381 1056 
z
M 2431 1944 
Q 2422 2325 2234 2523 
Q 2047 2722 1778 2722 
Q 1491 2722 1303 2513 
Q 1116 2303 1119 1944 
L 2431 1944 
z
" transform="scale(0.015625)"/>
       <path id="Arial-BoldMT-20" transform="scale(0.015625)"/>
       <path id="Arial-BoldMT-66" d="M 75 3319 
L 563 3319 
L 563 3569 
Q 563 3988 652 4194 
Q 741 4400 980 4529 
Q 1219 4659 1584 4659 
Q 1959 4659 2319 4547 
L 2200 3934 
Q 1991 3984 1797 3984 
Q 1606 3984 1523 3895 
Q 1441 3806 1441 3553 
L 1441 3319 
L 2097 3319 
L 2097 2628 
L 1441 2628 
L 1441 0 
L 563 0 
L 563 2628 
L 75 2628 
L 75 3319 
z
" transform="scale(0.015625)"/>
       <path id="Arial-BoldMT-72" d="M 1300 0 
L 422 0 
L 422 3319 
L 1238 3319 
L 1238 2847 
Q 1447 3181 1614 3287 
Q 1781 3394 1994 3394 
Q 2294 3394 2572 3228 
L 2300 2463 
Q 2078 2606 1888 2606 
Q 1703 2606 1575 2504 
Q 1447 2403 1373 2137 
Q 1300 1872 1300 1025 
L 1300 0 
z
" transform="scale(0.015625)"/>
       <path id="Arial-BoldMT-6f" d="M 256 1706 
Q 256 2144 472 2553 
Q 688 2963 1083 3178 
Q 1478 3394 1966 3394 
Q 2719 3394 3200 2905 
Q 3681 2416 3681 1669 
Q 3681 916 3195 420 
Q 2709 -75 1972 -75 
Q 1516 -75 1102 131 
Q 688 338 472 736 
Q 256 1134 256 1706 
z
M 1156 1659 
Q 1156 1166 1390 903 
Q 1625 641 1969 641 
Q 2313 641 2545 903 
Q 2778 1166 2778 1666 
Q 2778 2153 2545 2415 
Q 2313 2678 1969 2678 
Q 1625 2678 1390 2415 
Q 1156 2153 1156 1659 
z
" transform="scale(0.015625)"/>
       <path id="Arial-BoldMT-6d" d="M 394 3319 
L 1203 3319 
L 1203 2866 
Q 1638 3394 2238 3394 
Q 2556 3394 2790 3262 
Q 3025 3131 3175 2866 
Q 3394 3131 3647 3262 
Q 3900 3394 4188 3394 
Q 4553 3394 4806 3245 
Q 5059 3097 5184 2809 
Q 5275 2597 5275 2122 
L 5275 0 
L 4397 0 
L 4397 1897 
Q 4397 2391 4306 2534 
Q 4184 2722 3931 2722 
Q 3747 2722 3584 2609 
Q 3422 2497 3350 2280 
Q 3278 2063 3278 1594 
L 3278 0 
L 2400 0 
L 2400 1819 
Q 2400 2303 2353 2443 
Q 2306 2584 2207 2653 
Q 2109 2722 1941 2722 
Q 1738 2722 1575 2612 
Q 1413 2503 1342 2297 
Q 1272 2091 1272 1613 
L 1272 0 
L 394 0 
L 394 3319 
z
" transform="scale(0.015625)"/>
       <path id="Arial-BoldMT-68" d="M 1334 4581 
L 1334 2897 
Q 1759 3394 2350 3394 
Q 2653 3394 2897 3281 
Q 3141 3169 3264 2994 
Q 3388 2819 3433 2606 
Q 3478 2394 3478 1947 
L 3478 0 
L 2600 0 
L 2600 1753 
Q 2600 2275 2550 2415 
Q 2500 2556 2373 2639 
Q 2247 2722 2056 2722 
Q 1838 2722 1666 2615 
Q 1494 2509 1414 2295 
Q 1334 2081 1334 1663 
L 1334 0 
L 456 0 
L 456 4581 
L 1334 4581 
z
" transform="scale(0.015625)"/>
       <path id="Arial-BoldMT-64" d="M 3503 0 
L 2688 0 
L 2688 488 
Q 2484 203 2207 64 
Q 1931 -75 1650 -75 
Q 1078 -75 670 386 
Q 263 847 263 1672 
Q 263 2516 659 2955 
Q 1056 3394 1663 3394 
Q 2219 3394 2625 2931 
L 2625 4581 
L 3503 4581 
L 3503 0 
z
M 1159 1731 
Q 1159 1200 1306 963 
Q 1519 619 1900 619 
Q 2203 619 2415 876 
Q 2628 1134 2628 1647 
Q 2628 2219 2422 2470 
Q 2216 2722 1894 2722 
Q 1581 2722 1370 2473 
Q 1159 2225 1159 1731 
z
" transform="scale(0.015625)"/>
       <path id="Arial-BoldMT-67" d="M 378 -219 
L 1381 -341 
Q 1406 -516 1497 -581 
Q 1622 -675 1891 -675 
Q 2234 -675 2406 -572 
Q 2522 -503 2581 -350 
Q 2622 -241 2622 53 
L 2622 538 
Q 2228 0 1628 0 
Q 959 0 569 566 
Q 263 1013 263 1678 
Q 263 2513 664 2953 
Q 1066 3394 1663 3394 
Q 2278 3394 2678 2853 
L 2678 3319 
L 3500 3319 
L 3500 341 
Q 3500 -247 3403 -537 
Q 3306 -828 3131 -993 
Q 2956 -1159 2664 -1253 
Q 2372 -1347 1925 -1347 
Q 1081 -1347 728 -1058 
Q 375 -769 375 -325 
Q 375 -281 378 -219 
z
M 1163 1728 
Q 1163 1200 1367 954 
Q 1572 709 1872 709 
Q 2194 709 2416 961 
Q 2638 1213 2638 1706 
Q 2638 2222 2425 2472 
Q 2213 2722 1888 2722 
Q 1572 2722 1367 2476 
Q 1163 2231 1163 1728 
z
" transform="scale(0.015625)"/>
       <path id="Arial-BoldMT-28" d="M 1916 -1347 
L 1313 -1347 
Q 834 -625 584 153 
Q 334 931 334 1659 
Q 334 2563 644 3369 
Q 913 4069 1325 4659 
L 1925 4659 
Q 1497 3713 1336 3048 
Q 1175 2384 1175 1641 
Q 1175 1128 1270 590 
Q 1366 53 1531 -431 
Q 1641 -750 1916 -1347 
z
" transform="scale(0.015625)"/>
       <path id="Arial-BoldMT-b5" d="M 347 3319 
L 1219 3319 
L 1219 1816 
Q 1219 1166 1350 931 
Q 1516 628 1841 628 
Q 2016 628 2172 740 
Q 2328 853 2403 1053 
Q 2478 1253 2478 1806 
L 2478 3319 
L 3366 3319 
L 3366 0 
L 2547 0 
L 2547 400 
Q 2453 225 2368 137 
Q 2284 50 2142 -15 
Q 2000 -81 1881 -81 
Q 1659 -81 1488 41 
Q 1366 131 1219 400 
L 1219 -1272 
L 347 -1272 
L 347 3319 
z
" transform="scale(0.015625)"/>
       <path id="Arial-BoldMT-29" d="M 216 -1347 
Q 475 -791 581 -494 
Q 688 -197 778 190 
Q 869 578 912 926 
Q 956 1275 956 1641 
Q 956 2384 797 3048 
Q 638 3713 209 4659 
L 806 4659 
Q 1278 3988 1539 3234 
Q 1800 2481 1800 1706 
Q 1800 1053 1594 306 
Q 1359 -531 822 -1347 
L 216 -1347 
z
" transform="scale(0.015625)"/>
      </defs>
      <use xlink:href="#Arial-BoldMT-44"/>
      <use xlink:href="#Arial-BoldMT-69" x="72.216797"/>
      <use xlink:href="#Arial-BoldMT-73" x="100"/>
      <use xlink:href="#Arial-BoldMT-74" x="155.615234"/>
      <use xlink:href="#Arial-BoldMT-61" x="188.916016"/>
      <use xlink:href="#Arial-BoldMT-6e" x="244.53125"/>
      <use xlink:href="#Arial-BoldMT-63" x="305.615234"/>
      <use xlink:href="#Arial-BoldMT-65" x="361.230469"/>
      <use xlink:href="#Arial-BoldMT-20" x="416.845703"/>
      <use xlink:href="#Arial-BoldMT-66" x="444.628906"/>
      <use xlink:href="#Arial-BoldMT-72" x="477.929688"/>
      <use xlink:href="#Arial-BoldMT-6f" x="516.845703"/>
      <use xlink:href="#Arial-BoldMT-6d" x="577.929688"/>
      <use xlink:href="#Arial-BoldMT-20" x="666.845703"/>
      <use xlink:href="#Arial-BoldMT-74" x="694.628906"/>
      <use xlink:href="#Arial-BoldMT-68" x="727.929688"/>
      <use xlink:href="#Arial-BoldMT-65" x="789.013672"/>
      <use xlink:href="#Arial-BoldMT-20" x="844.628906"/>
      <use xlink:href="#Arial-BoldMT-65" x="872.412109"/>
      <use xlink:href="#Arial-BoldMT-64" x="928.027344"/>
      <use xlink:href="#Arial-BoldMT-67" x="989.111328"/>
      <use xlink:href="#Arial-BoldMT-65" x="1050.195312"/>
      <use xlink:href="#Arial-BoldMT-20" x="1105.810547"/>
      <use xlink:href="#Arial-BoldMT-28" x="1133.59375"/>
      <use xlink:href="#Arial-BoldMT-b5" x="1166.894531"/>
      <use xlink:href="#Arial-BoldMT-6d" x="1224.511719"/>
      <use xlink:href="#Arial-BoldMT-29" x="1313.427734"/>
     </g>
    </g>
   </g>
   <g id="matplotlib.axis_2">
    <g id="ytick_1">
     <g id="line2d_5">
      <defs>
       <path id="m42f51713e2" d="M 0 0 
L -7 0 
" style="stroke: #000000; stroke-width: 1.25"/>
      </defs>
      <g>
       <use xlink:href="#m42f51713e2" x="53.94375" y="126.792" style="stroke: #000000; stroke-width: 1.25"/>
      </g>
     </g>
     <g id="text_6">
      <!-- 0.0 -->
      <g transform="translate(23.98375 131.802469) scale(0.14 -0.14)">
       <defs>
        <path id="ArialMT-2e" d="M 581 0 
L 581 641 
L 1222 641 
L 1222 0 
L 581 0 
z
" transform="scale(0.015625)"/>
       </defs>
       <use xlink:href="#ArialMT-30"/>
       <use xlink:href="#ArialMT-2e" x="55.615234"/>
       <use xlink:href="#ArialMT-30" x="83.398438"/>
      </g>
     </g>
    </g>
    <g id="ytick_2">
     <g id="line2d_6">
      <g>
       <use xlink:href="#m42f51713e2" x="53.94375" y="69.843429" style="stroke: #000000; stroke-width: 1.25"/>
      </g>
     </g>
     <g id="text_7">
      <!-- 0.5 -->
      <g transform="translate(23.98375 74.853897) scale(0.14 -0.14)">
       <defs>
        <path id="ArialMT-35" d="M 266 1200 
L 856 1250 
Q 922 819 1161 601 
Q 1400 384 1738 384 
Q 2144 384 2425 690 
Q 2706 997 2706 1503 
Q 2706 1984 2436 2262 
Q 2166 2541 1728 2541 
Q 1456 2541 1237 2417 
Q 1019 2294 894 2097 
L 366 2166 
L 809 4519 
L 3088 4519 
L 3088 3981 
L 1259 3981 
L 1013 2750 
Q 1425 3038 1878 3038 
Q 2478 3038 2890 2622 
Q 3303 2206 3303 1553 
Q 3303 931 2941 478 
Q 2500 -78 1738 -78 
Q 1113 -78 717 272 
Q 322 622 266 1200 
z
" transform="scale(0.015625)"/>
       </defs>
       <use xlink:href="#ArialMT-30"/>
       <use xlink:href="#ArialMT-2e" x="55.615234"/>
       <use xlink:href="#ArialMT-35" x="83.398438"/>
      </g>
     </g>
    </g>
    <g id="ytick_3">
     <g id="line2d_7">
      <g>
       <use xlink:href="#m42f51713e2" x="53.94375" y="12.894857" style="stroke: #000000; stroke-width: 1.25"/>
      </g>
     </g>
     <g id="text_8">
      <!-- 1.0 -->
      <g transform="translate(23.98375 17.905326) scale(0.14 -0.14)">
       <use xlink:href="#ArialMT-31"/>
       <use xlink:href="#ArialMT-2e" x="55.615234"/>
       <use xlink:href="#ArialMT-30" x="83.398438"/>
      </g>
     </g>
    </g>
    <g id="ytick_4">
     <g id="line2d_8">
      <defs>
       <path id="mf0ead61659" d="M 0 0 
L -4 0 
" style="stroke: #000000; stroke-width: 1.25"/>
      </defs>
      <g>
       <use xlink:href="#mf0ead61659" x="53.94375" y="98.317714" style="stroke: #000000; stroke-width: 1.25"/>
      </g>
     </g>
    </g>
    <g id="ytick_5">
     <g id="line2d_9">
      <g>
       <use xlink:href="#mf0ead61659" x="53.94375" y="41.369143" style="stroke: #000000; stroke-width: 1.25"/>
      </g>
     </g>
    </g>
    <g id="text_9">
     <!-- Relative abundance -->
     <g transform="translate(17.220938 132.73475) rotate(-90) scale(0.14 -0.14)">
      <defs>
       <path id="Arial-BoldMT-52" d="M 469 0 
L 469 4581 
L 2416 4581 
Q 3150 4581 3483 4457 
Q 3816 4334 4016 4018 
Q 4216 3703 4216 3297 
Q 4216 2781 3912 2445 
Q 3609 2109 3006 2022 
Q 3306 1847 3501 1637 
Q 3697 1428 4028 894 
L 4588 0 
L 3481 0 
L 2813 997 
Q 2456 1531 2325 1670 
Q 2194 1809 2047 1861 
Q 1900 1913 1581 1913 
L 1394 1913 
L 1394 0 
L 469 0 
z
M 1394 2644 
L 2078 2644 
Q 2744 2644 2909 2700 
Q 3075 2756 3169 2893 
Q 3263 3031 3263 3238 
Q 3263 3469 3139 3611 
Q 3016 3753 2791 3791 
Q 2678 3806 2116 3806 
L 1394 3806 
L 1394 2644 
z
" transform="scale(0.015625)"/>
       <path id="Arial-BoldMT-6c" d="M 459 0 
L 459 4581 
L 1338 4581 
L 1338 0 
L 459 0 
z
" transform="scale(0.015625)"/>
       <path id="Arial-BoldMT-76" d="M 1372 0 
L 34 3319 
L 956 3319 
L 1581 1625 
L 1763 1059 
Q 1834 1275 1853 1344 
Q 1897 1484 1947 1625 
L 2578 3319 
L 3481 3319 
L 2163 0 
L 1372 0 
z
" transform="scale(0.015625)"/>
       <path id="Arial-BoldMT-62" d="M 422 0 
L 422 4581 
L 1300 4581 
L 1300 2931 
Q 1706 3394 2263 3394 
Q 2869 3394 3266 2955 
Q 3663 2516 3663 1694 
Q 3663 844 3258 384 
Q 2853 -75 2275 -75 
Q 1991 -75 1714 67 
Q 1438 209 1238 488 
L 1238 0 
L 422 0 
z
M 1294 1731 
Q 1294 1216 1456 969 
Q 1684 619 2063 619 
Q 2353 619 2558 867 
Q 2763 1116 2763 1650 
Q 2763 2219 2556 2470 
Q 2350 2722 2028 2722 
Q 1713 2722 1503 2476 
Q 1294 2231 1294 1731 
z
" transform="scale(0.015625)"/>
       <path id="Arial-BoldMT-75" d="M 2644 0 
L 2644 497 
Q 2463 231 2167 78 
Q 1872 -75 1544 -75 
Q 1209 -75 943 72 
Q 678 219 559 484 
Q 441 750 441 1219 
L 441 3319 
L 1319 3319 
L 1319 1794 
Q 1319 1094 1367 936 
Q 1416 778 1544 686 
Q 1672 594 1869 594 
Q 2094 594 2272 717 
Q 2450 841 2515 1023 
Q 2581 1206 2581 1919 
L 2581 3319 
L 3459 3319 
L 3459 0 
L 2644 0 
z
" transform="scale(0.015625)"/>
      </defs>
      <use xlink:href="#Arial-BoldMT-52"/>
      <use xlink:href="#Arial-BoldMT-65" x="72.216797"/>
      <use xlink:href="#Arial-BoldMT-6c" x="127.832031"/>
      <use xlink:href="#Arial-BoldMT-61" x="155.615234"/>
      <use xlink:href="#Arial-BoldMT-74" x="211.230469"/>
      <use xlink:href="#Arial-BoldMT-69" x="244.53125"/>
      <use xlink:href="#Arial-BoldMT-76" x="272.314453"/>
      <use xlink:href="#Arial-BoldMT-65" x="327.929688"/>
      <use xlink:href="#Arial-BoldMT-20" x="383.544922"/>
      <use xlink:href="#Arial-BoldMT-61" x="411.328125"/>
      <use xlink:href="#Arial-BoldMT-62" x="466.943359"/>
      <use xlink:href="#Arial-BoldMT-75" x="528.027344"/>
      <use xlink:href="#Arial-BoldMT-6e" x="589.111328"/>
      <use xlink:href="#Arial-BoldMT-64" x="650.195312"/>
      <use xlink:href="#Arial-BoldMT-61" x="711.279297"/>
      <use xlink:href="#Arial-BoldMT-6e" x="766.894531"/>
      <use xlink:href="#Arial-BoldMT-63" x="827.978516"/>
      <use xlink:href="#Arial-BoldMT-65" x="883.59375"/>
     </g>
    </g>
   </g>
   <g id="line2d_10">
    <path d="M 260.513189 126.792 
L 258.686186 126.792 
L 256.859184 126.792 
L 255.032181 126.792 
L 253.205179 126.792 
L 251.378176 122.274493 
L 249.551174 124.500966 
L 247.724171 122.891592 
L 245.897169 113.556548 
L 244.070166 102.203863 
L 242.243164 96.252613 
L 240.416161 78.700578 
L 238.589158 86.943044 
L 236.762156 78.377508 
L 234.935153 69.262979 
L 233.108151 61.3781 
L 231.281148 68.843141 
L 229.454146 65.624452 
L 227.627143 51.606579 
L 225.800141 56.989246 
L 223.973138 59.863048 
L 222.146136 51.765454 
L 220.319133 57.70495 
L 218.492131 69.506455 
L 216.665128 67.875654 
L 214.838125 60.538106 
L 213.011123 66.022363 
L 211.18412 61.981126 
L 209.357118 67.14073 
L 207.530115 73.195346 
L 205.703113 70.117835 
L 203.87611 75.526384 
L 202.049108 77.594915 
L 200.222105 80.81679 
L 198.395103 61.195971 
L 196.5681 72.752701 
L 194.741098 77.963608 
L 192.914095 57.988025 
L 191.087093 65.836302 
L 189.26009 62.481525 
L 187.433087 80.112843 
L 185.606085 65.320829 
L 183.779082 77.087146 
L 181.95208 84.733063 
L 180.125077 79.054422 
L 178.298075 75.44941 
L 176.471072 75.748583 
L 174.64407 76.191142 
L 172.817067 77.500032 
L 170.990065 74.19776 
L 169.163062 87.863428 
L 167.33606 82.057738 
L 165.509057 72.455146 
L 163.682054 79.994742 
L 161.855052 81.5952 
L 160.028049 85.183333 
L 158.201047 77.224436 
L 156.374044 78.684481 
L 154.547042 82.351114 
L 152.720039 88.601065 
L 150.893037 90.502379 
L 149.066034 92.015106 
L 147.239032 93.161581 
L 145.412029 89.731445 
L 143.585027 93.893177 
L 141.758024 91.628022 
L 139.931021 94.020655 
L 138.104019 81.503611 
L 136.277016 79.896702 
L 134.450014 88.040406 
L 132.623011 93.672545 
L 130.796009 91.974018 
L 128.969006 105.644973 
L 127.142004 94.241348 
L 125.315001 85.047654 
L 123.487999 92.277714 
L 121.660996 93.359688 
L 119.833994 89.694404 
L 118.006991 90.023657 
L 116.179989 85.123108 
L 114.352986 92.466067 
L 112.525983 91.852816 
L 110.698981 96.785008 
L 108.871978 78.752157 
L 107.044976 79.682548 
L 105.217973 90.087716 
L 103.390971 84.471795 
L 101.563968 90.681798 
L 99.736966 92.603596 
L 97.909963 94.402757 
L 96.082961 83.130912 
L 94.255958 90.444979 
L 92.428956 97.511493 
L 90.601953 87.10435 
L 88.77495 83.642124 
L 86.947948 87.087554 
L 85.120945 85.6728 
L 83.293943 93.572 
L 81.46694 90.595015 
L 79.639938 78.86447 
L 77.812935 98.04203 
L 75.985933 93.212399 
L 74.15893 97.711878 
L 72.331928 98.96145 
L 70.504925 80.809254 
L 68.677923 78.636825 
L 66.85092 85.479597 
L 65.023917 87.416961 
L 63.196915 85.368927 
L 61.369912 80.512823 
L 59.54291 85.856027 
L 57.715907 94.311014 
L 55.888905 82.875858 
L 54.061902 80.673739 
" clip-path="url(#p1e2df8e0c5)" style="fill: none; stroke: #ff00ff; stroke-opacity: 0.5; stroke-width: 0.5; stroke-linecap: square"/>
   </g>
   <g id="line2d_11">
    <path d="M 260.513189 126.792 
L 258.686186 126.792 
L 256.859184 126.792 
L 255.032181 126.792 
L 253.205179 126.792 
L 251.378176 112.830112 
L 249.551174 113.200512 
L 247.724171 100.515516 
L 245.897169 95.46451 
L 244.070166 83.608019 
L 242.243164 93.042569 
L 240.416161 83.498839 
L 238.589158 72.418992 
L 236.762156 77.466887 
L 234.935153 65.454381 
L 233.108151 43.147962 
L 231.281148 68.353723 
L 229.454146 62.493735 
L 227.627143 57.675813 
L 225.800141 57.048997 
L 223.973138 56.156378 
L 222.146136 64.589496 
L 220.319133 59.77076 
L 218.492131 52.592341 
L 216.665128 64.550945 
L 214.838125 48.215859 
L 213.011123 60.407942 
L 211.18412 58.995349 
L 209.357118 58.170153 
L 207.530115 52.628838 
L 205.703113 65.768423 
L 203.87611 62.131823 
L 202.049108 63.901513 
L 200.222105 65.9648 
L 198.395103 67.721037 
L 196.5681 63.842933 
L 194.741098 64.43191 
L 192.914095 65.61267 
L 191.087093 57.614556 
L 189.26009 65.548308 
L 187.433087 66.797743 
L 185.606085 60.666231 
L 183.779082 64.031274 
L 181.95208 64.089373 
L 180.125077 56.128066 
L 178.298075 58.029351 
L 176.471072 66.964815 
L 174.64407 71.751799 
L 172.817067 60.25985 
L 170.990065 58.01666 
L 169.163062 62.06596 
L 167.33606 58.986177 
L 165.509057 65.02492 
L 163.682054 75.397338 
L 161.855052 67.998127 
L 160.028049 64.619054 
L 158.201047 74.390479 
L 156.374044 70.783527 
L 154.547042 69.903096 
L 152.720039 71.102695 
L 150.893037 75.019277 
L 149.066034 73.111905 
L 147.239032 74.171815 
L 145.412029 70.039128 
L 143.585027 73.762733 
L 141.758024 72.406331 
L 139.931021 73.72372 
L 138.104019 69.726151 
L 136.277016 72.468743 
L 134.450014 69.235977 
L 132.623011 75.676795 
L 130.796009 73.808619 
L 128.969006 73.809099 
L 127.142004 78.038825 
L 125.315001 81.414366 
L 123.487999 79.490454 
L 121.660996 73.632435 
L 119.833994 77.461071 
L 118.006991 77.371409 
L 116.179989 78.905135 
L 114.352986 75.288538 
L 112.525983 81.333428 
L 110.698981 72.70815 
L 108.871978 71.966371 
L 107.044976 77.705846 
L 105.217973 78.970392 
L 103.390971 85.714118 
L 101.563968 78.03587 
L 99.736966 83.144318 
L 97.909963 86.416225 
L 96.082961 82.16324 
L 94.255958 78.379962 
L 92.428956 79.585386 
L 90.601953 76.816119 
L 88.77495 77.35743 
L 86.947948 81.208754 
L 85.120945 88.522283 
L 83.293943 84.309681 
L 81.46694 88.729945 
L 79.639938 85.078114 
L 77.812935 82.385103 
L 75.985933 81.305016 
L 74.15893 83.062603 
L 72.331928 87.436701 
L 70.504925 84.619868 
L 68.677923 85.030494 
L 66.85092 85.656246 
L 65.023917 88.284885 
L 63.196915 86.686873 
L 61.369912 83.181522 
L 59.54291 81.224133 
L 57.715907 85.96349 
L 55.888905 83.770319 
L 54.061902 79.774481 
" clip-path="url(#p1e2df8e0c5)" style="fill: none; stroke: #ff00ff; stroke-opacity: 0.5; stroke-width: 0.5; stroke-linecap: square"/>
   </g>
   <g id="line2d_12">
    <path d="M 260.513189 126.792 
L 258.686186 126.792 
L 256.859184 126.792 
L 255.032181 126.792 
L 253.205179 126.792 
L 251.378176 123.944571 
L 249.551174 123.513224 
L 247.724171 118.356429 
L 245.897169 115.107476 
L 244.070166 113.193965 
L 242.243164 112.014845 
L 240.416161 106.111609 
L 238.589158 108.335972 
L 236.762156 116.58941 
L 234.935153 107.801589 
L 233.108151 97.214837 
L 231.281148 93.626548 
L 229.454146 94.164096 
L 227.627143 94.170974 
L 225.800141 86.451866 
L 223.973138 94.682487 
L 222.146136 97.649722 
L 220.319133 85.225337 
L 218.492131 93.573566 
L 216.665128 89.781799 
L 214.838125 87.137571 
L 213.011123 82.620658 
L 211.18412 86.235501 
L 209.357118 78.737782 
L 207.530115 88.924481 
L 205.703113 95.36036 
L 203.87611 95.184785 
L 202.049108 87.614098 
L 200.222105 73.068617 
L 198.395103 80.250711 
L 196.5681 83.044005 
L 194.741098 80.976083 
L 192.914095 81.01838 
L 191.087093 85.912123 
L 189.26009 80.960738 
L 187.433087 77.487991 
L 185.606085 85.270098 
L 183.779082 71.560596 
L 181.95208 78.725157 
L 180.125077 81.589402 
L 178.298075 87.067656 
L 176.471072 80.117736 
L 174.64407 78.388718 
L 172.817067 81.357186 
L 170.990065 80.61289 
L 169.163062 83.651962 
L 167.33606 77.359484 
L 165.509057 80.753841 
L 163.682054 84.023952 
L 161.855052 81.233143 
L 160.028049 86.965315 
L 158.201047 82.796464 
L 156.374044 74.639577 
L 154.547042 77.926788 
L 152.720039 78.569212 
L 150.893037 79.317763 
L 149.066034 82.723766 
L 147.239032 78.715064 
L 145.412029 79.374127 
L 143.585027 81.116727 
L 141.758024 72.754209 
L 139.931021 78.050483 
L 138.104019 82.641884 
L 136.277016 82.899027 
L 134.450014 83.558058 
L 132.623011 79.51953 
L 130.796009 82.500623 
L 128.969006 82.736807 
L 127.142004 82.442437 
L 125.315001 81.077001 
L 123.487999 84.341052 
L 121.660996 78.703083 
L 119.833994 80.753157 
L 118.006991 88.344591 
L 116.179989 85.959157 
L 114.352986 87.453473 
L 112.525983 82.882595 
L 110.698981 82.769059 
L 108.871978 80.852712 
L 107.044976 82.379774 
L 105.217973 83.180613 
L 103.390971 83.580215 
L 101.563968 83.501614 
L 99.736966 87.328198 
L 97.909963 86.813234 
L 96.082961 81.605499 
L 94.255958 82.298035 
L 92.428956 81.233143 
L 90.601953 85.186738 
L 88.77495 86.562819 
L 86.947948 80.405459 
L 85.120945 81.046654 
L 83.293943 76.825802 
L 81.46694 79.388688 
L 79.639938 80.53963 
L 77.812935 80.888769 
L 75.985933 79.002899 
L 74.15893 76.802331 
L 72.331928 83.847642 
L 70.504925 76.472403 
L 68.677923 83.018485 
L 66.85092 87.045862 
L 65.023917 78.160015 
L 63.196915 84.619944 
L 61.369912 88.303864 
L 59.54291 92.364031 
L 57.715907 89.941843 
L 55.888905 89.565426 
L 54.061902 84.058923 
" clip-path="url(#p1e2df8e0c5)" style="fill: none; stroke: #ff00ff; stroke-opacity: 0.5; stroke-width: 0.5; stroke-linecap: square"/>
   </g>
   <g id="line2d_13">
    <path d="M 260.513189 126.792 
L 258.686186 126.792 
L 256.859184 126.792 
L 255.032181 126.792 
L 253.205179 126.792 
L 251.378176 17.412364 
L 249.551174 15.185892 
L 247.724171 16.795265 
L 245.897169 26.130309 
L 244.070166 37.482994 
L 242.243164 43.434245 
L 240.416161 60.986279 
L 238.589158 52.743813 
L 236.762156 61.309349 
L 234.935153 70.423878 
L 233.108151 78.308757 
L 231.281148 70.843716 
L 229.454146 74.062405 
L 227.627143 88.080279 
L 225.800141 82.697611 
L 223.973138 79.82381 
L 222.146136 87.921403 
L 220.319133 81.981908 
L 218.492131 70.180402 
L 216.665128 71.811203 
L 214.838125 79.148751 
L 213.011123 73.664494 
L 211.18412 77.705731 
L 209.357118 72.546127 
L 207.530115 66.491511 
L 205.703113 69.569022 
L 203.87611 64.160473 
L 202.049108 62.091942 
L 200.222105 58.870067 
L 198.395103 78.490886 
L 196.5681 66.934156 
L 194.741098 61.723249 
L 192.914095 81.698832 
L 191.087093 73.850555 
L 189.26009 77.205332 
L 187.433087 59.574014 
L 185.606085 74.366028 
L 183.779082 62.599712 
L 181.95208 54.953795 
L 180.125077 60.632435 
L 178.298075 64.237447 
L 176.471072 63.938274 
L 174.64407 63.495715 
L 172.817067 62.186826 
L 170.990065 65.489097 
L 169.163062 51.823429 
L 167.33606 57.62912 
L 165.509057 67.231712 
L 163.682054 59.692115 
L 161.855052 58.091657 
L 160.028049 54.503524 
L 158.201047 62.462421 
L 156.374044 61.002376 
L 154.547042 57.335743 
L 152.720039 51.085792 
L 150.893037 49.184478 
L 149.066034 47.671752 
L 147.239032 46.525276 
L 145.412029 49.955412 
L 143.585027 45.79368 
L 141.758024 48.058835 
L 139.931021 45.666202 
L 138.104019 58.183246 
L 136.277016 59.790155 
L 134.450014 51.646451 
L 132.623011 46.014312 
L 130.796009 47.712839 
L 128.969006 34.041884 
L 127.142004 45.445509 
L 125.315001 54.639203 
L 123.487999 47.409143 
L 121.660996 46.327169 
L 119.833994 49.992453 
L 118.006991 49.6632 
L 116.179989 54.563749 
L 114.352986 47.220791 
L 112.525983 47.834041 
L 110.698981 42.90185 
L 108.871978 60.9347 
L 107.044976 60.00431 
L 105.217973 49.599141 
L 103.390971 55.215062 
L 101.563968 49.005059 
L 99.736966 47.083261 
L 97.909963 45.2841 
L 96.082961 56.555945 
L 94.255958 49.241878 
L 92.428956 42.175365 
L 90.601953 52.582507 
L 88.77495 56.044733 
L 86.947948 52.599303 
L 85.120945 54.014057 
L 83.293943 46.114857 
L 81.46694 49.091842 
L 79.639938 60.822387 
L 77.812935 41.644828 
L 75.985933 46.474458 
L 74.15893 41.974979 
L 72.331928 40.725407 
L 70.504925 58.877603 
L 68.677923 61.050032 
L 66.85092 54.20726 
L 65.023917 52.269897 
L 63.196915 54.31793 
L 61.369912 59.174034 
L 59.54291 53.83083 
L 57.715907 45.375843 
L 55.888905 56.810999 
L 54.061902 59.013118 
" clip-path="url(#p1e2df8e0c5)" style="fill: none; stroke: #00bfff; stroke-opacity: 0.5; stroke-width: 0.5; stroke-linecap: square"/>
   </g>
   <g id="line2d_14">
    <path d="M 260.513189 126.792 
L 258.686186 126.792 
L 256.859184 126.792 
L 255.032181 126.792 
L 253.205179 126.792 
L 251.378176 26.856745 
L 249.551174 26.486345 
L 247.724171 39.171341 
L 245.897169 44.222347 
L 244.070166 56.078838 
L 242.243164 46.644288 
L 240.416161 56.188018 
L 238.589158 67.267865 
L 236.762156 62.21997 
L 234.935153 74.232476 
L 233.108151 96.538895 
L 231.281148 71.333134 
L 229.454146 77.193122 
L 227.627143 82.011044 
L 225.800141 82.637861 
L 223.973138 83.530479 
L 222.146136 75.097361 
L 220.319133 79.916098 
L 218.492131 87.094516 
L 216.665128 75.135912 
L 214.838125 91.470998 
L 213.011123 79.278916 
L 211.18412 80.691508 
L 209.357118 81.516704 
L 207.530115 87.05802 
L 205.703113 73.918435 
L 203.87611 77.555035 
L 202.049108 75.785344 
L 200.222105 73.722057 
L 198.395103 71.965821 
L 196.5681 75.843924 
L 194.741098 75.254947 
L 192.914095 74.074187 
L 191.087093 82.072301 
L 189.26009 74.138549 
L 187.433087 72.889114 
L 185.606085 79.020627 
L 183.779082 75.655583 
L 181.95208 75.597484 
L 180.125077 83.558791 
L 178.298075 81.657507 
L 176.471072 72.722042 
L 174.64407 67.935058 
L 172.817067 79.427007 
L 170.990065 81.670197 
L 169.163062 77.620897 
L 167.33606 80.70068 
L 165.509057 74.661937 
L 163.682054 64.289519 
L 161.855052 71.68873 
L 160.028049 75.067803 
L 158.201047 65.296378 
L 156.374044 68.90333 
L 154.547042 69.783761 
L 152.720039 68.584162 
L 150.893037 64.66758 
L 149.066034 66.574952 
L 147.239032 65.515042 
L 145.412029 69.647729 
L 143.585027 65.924124 
L 141.758024 67.280526 
L 139.931021 65.963137 
L 138.104019 69.960706 
L 136.277016 67.218114 
L 134.450014 70.45088 
L 132.623011 64.010062 
L 130.796009 65.878238 
L 128.969006 65.877758 
L 127.142004 61.648032 
L 125.315001 58.272491 
L 123.487999 60.196403 
L 121.660996 66.054423 
L 119.833994 62.225786 
L 118.006991 62.315448 
L 116.179989 60.781722 
L 114.352986 64.398319 
L 112.525983 58.353429 
L 110.698981 66.978707 
L 108.871978 67.720486 
L 107.044976 61.981011 
L 105.217973 60.716465 
L 103.390971 53.972739 
L 101.563968 61.650987 
L 99.736966 56.542539 
L 97.909963 53.270632 
L 96.082961 57.523617 
L 94.255958 61.306895 
L 92.428956 60.101471 
L 90.601953 62.870739 
L 88.77495 62.329427 
L 86.947948 58.478103 
L 85.120945 51.164574 
L 83.293943 55.377176 
L 81.46694 50.956912 
L 79.639938 54.608743 
L 77.812935 57.301754 
L 75.985933 58.381841 
L 74.15893 56.624254 
L 72.331928 52.250156 
L 70.504925 55.066989 
L 68.677923 54.656363 
L 66.85092 54.030611 
L 65.023917 51.401972 
L 63.196915 52.999984 
L 61.369912 56.505335 
L 59.54291 58.462724 
L 57.715907 53.723367 
L 55.888905 55.916538 
L 54.061902 59.912376 
" clip-path="url(#p1e2df8e0c5)" style="fill: none; stroke: #00bfff; stroke-opacity: 0.5; stroke-width: 0.5; stroke-linecap: square"/>
   </g>
   <g id="line2d_15">
    <path d="M 260.513189 126.792 
L 258.686186 126.792 
L 256.859184 126.792 
L 255.032181 126.792 
L 253.205179 126.792 
L 251.378176 15.742286 
L 249.551174 16.173633 
L 247.724171 21.330428 
L 245.897169 24.579381 
L 244.070166 26.492892 
L 242.243164 27.672012 
L 240.416161 33.575248 
L 238.589158 31.350885 
L 236.762156 23.097448 
L 234.935153 31.885268 
L 233.108151 42.47202 
L 231.281148 46.060309 
L 229.454146 45.522761 
L 227.627143 45.515883 
L 225.800141 53.234991 
L 223.973138 45.00437 
L 222.146136 42.037135 
L 220.319133 54.46152 
L 218.492131 46.113291 
L 216.665128 49.905058 
L 214.838125 52.549286 
L 213.011123 57.066199 
L 211.18412 53.451356 
L 209.357118 60.949075 
L 207.530115 50.762377 
L 205.703113 44.326497 
L 203.87611 44.502072 
L 202.049108 52.072759 
L 200.222105 66.61824 
L 198.395103 59.436146 
L 196.5681 56.642852 
L 194.741098 58.710774 
L 192.914095 58.668477 
L 191.087093 53.774734 
L 189.26009 58.726119 
L 187.433087 62.198866 
L 185.606085 54.416759 
L 183.779082 68.126261 
L 181.95208 60.9617 
L 180.125077 58.097455 
L 178.298075 52.619201 
L 176.471072 59.569121 
L 174.64407 61.298139 
L 172.817067 58.329671 
L 170.990065 59.073967 
L 169.163062 56.034895 
L 167.33606 62.327373 
L 165.509057 58.933016 
L 163.682054 55.662906 
L 161.855052 58.453714 
L 160.028049 52.721542 
L 158.201047 56.890394 
L 156.374044 65.04728 
L 154.547042 61.760069 
L 152.720039 61.117645 
L 150.893037 60.369094 
L 149.066034 56.963091 
L 147.239032 60.971793 
L 145.412029 60.312731 
L 143.585027 58.57013 
L 141.758024 66.932648 
L 139.931021 61.636374 
L 138.104019 57.044973 
L 136.277016 56.78783 
L 134.450014 56.128799 
L 132.623011 60.167328 
L 130.796009 57.186234 
L 128.969006 56.95005 
L 127.142004 57.24442 
L 125.315001 58.609857 
L 123.487999 55.345805 
L 121.660996 60.983774 
L 119.833994 58.9337 
L 118.006991 51.342267 
L 116.179989 53.727701 
L 114.352986 52.233384 
L 112.525983 56.804262 
L 110.698981 56.917798 
L 108.871978 58.834146 
L 107.044976 57.307084 
L 105.217973 56.506244 
L 103.390971 56.106642 
L 101.563968 56.185243 
L 99.736966 52.358659 
L 97.909963 52.873623 
L 96.082961 58.081358 
L 94.255958 57.388822 
L 92.428956 58.453714 
L 90.601953 54.500119 
L 88.77495 53.124039 
L 86.947948 59.281398 
L 85.120945 58.640203 
L 83.293943 62.861055 
L 81.46694 60.298169 
L 79.639938 59.147227 
L 77.812935 58.798089 
L 75.985933 60.683958 
L 74.15893 62.884526 
L 72.331928 55.839215 
L 70.504925 63.214454 
L 68.677923 56.668372 
L 66.85092 52.640995 
L 65.023917 61.526842 
L 63.196915 55.066914 
L 61.369912 51.382993 
L 59.54291 47.322826 
L 57.715907 49.745014 
L 55.888905 50.121431 
L 54.061902 55.627934 
" clip-path="url(#p1e2df8e0c5)" style="fill: none; stroke: #00bfff; stroke-opacity: 0.5; stroke-width: 0.5; stroke-linecap: square"/>
   </g>
   <g id="line2d_16">
    <path d="M 260.513189 126.792 
L 258.686186 126.792 
L 256.859184 126.792 
L 255.032181 126.792 
L 253.205179 126.792 
L 251.378176 119.683059 
L 249.551174 120.404901 
L 247.724171 113.921179 
L 245.897169 108.042845 
L 244.070166 99.668616 
L 242.243164 100.436676 
L 240.416161 89.437009 
L 238.589158 89.232669 
L 236.762156 90.811268 
L 234.935153 80.83965 
L 233.108151 67.246967 
L 231.281148 76.941137 
L 229.454146 74.094094 
L 227.627143 67.817788 
L 225.800141 66.830036 
L 223.973138 70.233971 
L 222.146136 71.334891 
L 220.319133 67.567015 
L 218.492131 71.890787 
L 216.665128 74.069466 
L 214.838125 65.297179 
L 213.011123 69.683654 
L 211.18412 69.070658 
L 209.357118 68.016222 
L 207.530115 71.582888 
L 205.703113 77.082206 
L 203.87611 77.614331 
L 202.049108 76.370175 
L 200.222105 73.283402 
L 198.395103 69.722573 
L 196.5681 73.213213 
L 194.741098 74.457201 
L 192.914095 68.206358 
L 191.087093 69.78766 
L 189.26009 69.663524 
L 187.433087 74.799526 
L 185.606085 70.419053 
L 183.779082 70.893005 
L 181.95208 75.849198 
L 180.125077 72.257297 
L 178.298075 73.515472 
L 176.471072 74.277045 
L 174.64407 75.443886 
L 172.817067 73.039023 
L 170.990065 70.942437 
L 169.163062 77.86045 
L 167.33606 72.801133 
L 165.509057 72.744636 
L 163.682054 79.805344 
L 161.855052 76.942157 
L 160.028049 78.922567 
L 158.201047 78.137126 
L 156.374044 74.702528 
L 154.547042 76.726999 
L 152.720039 79.424324 
L 150.893037 81.61314 
L 149.066034 82.616926 
L 147.239032 82.016153 
L 145.412029 79.7149 
L 143.585027 82.924212 
L 141.758024 78.929521 
L 139.931021 81.93162 
L 138.104019 77.957215 
L 136.277016 78.421491 
L 134.450014 80.278147 
L 132.623011 82.95629 
L 130.796009 82.761087 
L 128.969006 87.39696 
L 127.142004 84.907537 
L 125.315001 82.513007 
L 123.487999 85.36974 
L 121.660996 81.898402 
L 119.833994 82.636211 
L 118.006991 85.246552 
L 116.179989 83.329133 
L 114.352986 85.069359 
L 112.525983 85.35628 
L 110.698981 84.087405 
L 108.871978 77.190413 
L 107.044976 79.922722 
L 105.217973 84.079574 
L 103.390971 84.588709 
L 101.563968 84.073094 
L 99.736966 87.692037 
L 97.909963 89.210739 
L 96.082961 82.299884 
L 94.255958 83.707659 
L 92.428956 86.110007 
L 90.601953 83.035736 
L 88.77495 82.520791 
L 86.947948 82.900589 
L 85.120945 85.080579 
L 83.293943 84.902494 
L 81.46694 86.237883 
L 79.639938 81.494072 
L 77.812935 87.1053 
L 75.985933 84.506771 
L 74.15893 85.858937 
L 72.331928 90.081931 
L 70.504925 80.633842 
L 68.677923 82.228601 
L 66.85092 86.060568 
L 65.023917 84.62062 
L 63.196915 85.558581 
L 61.369912 83.999403 
L 59.54291 86.481397 
L 57.715907 90.072115 
L 55.888905 85.403868 
L 54.061902 81.502381 
" clip-path="url(#p1e2df8e0c5)" style="fill: none; stroke: #ff00ff; stroke-width: 3; stroke-linecap: square"/>
   </g>
   <g id="line2d_17">
    <path d="M 260.513189 126.792 
L 258.686186 126.792 
L 256.859184 126.792 
L 255.032181 126.792 
L 253.205179 126.792 
L 251.378176 20.003798 
L 249.551174 19.281956 
L 247.724171 25.765678 
L 245.897169 31.644013 
L 244.070166 40.018241 
L 242.243164 39.250182 
L 240.416161 50.249848 
L 238.589158 50.454188 
L 236.762156 48.875589 
L 234.935153 58.847207 
L 233.108151 72.439891 
L 231.281148 62.74572 
L 229.454146 65.592763 
L 227.627143 71.869069 
L 225.800141 72.856821 
L 223.973138 69.452886 
L 222.146136 68.351966 
L 220.319133 72.119842 
L 218.492131 67.79607 
L 216.665128 65.617391 
L 214.838125 74.389678 
L 213.011123 70.003203 
L 211.18412 70.616199 
L 209.357118 71.670635 
L 207.530115 68.103969 
L 205.703113 62.604651 
L 203.87611 62.072527 
L 202.049108 63.316682 
L 200.222105 66.403455 
L 198.395103 69.964284 
L 196.5681 66.473644 
L 194.741098 65.229657 
L 192.914095 71.480499 
L 191.087093 69.899197 
L 189.26009 70.023334 
L 187.433087 64.887331 
L 185.606085 69.267805 
L 183.779082 68.793852 
L 181.95208 63.837659 
L 180.125077 67.42956 
L 178.298075 66.171385 
L 176.471072 65.409812 
L 174.64407 64.242971 
L 172.817067 66.647835 
L 170.990065 68.74442 
L 169.163062 61.826407 
L 167.33606 66.885724 
L 165.509057 66.942221 
L 163.682054 59.881513 
L 161.855052 62.744701 
L 160.028049 60.76429 
L 158.201047 61.549731 
L 156.374044 64.984329 
L 154.547042 62.959858 
L 152.720039 60.262533 
L 150.893037 58.073717 
L 149.066034 57.069932 
L 147.239032 57.670704 
L 145.412029 59.971957 
L 143.585027 56.762645 
L 141.758024 60.757336 
L 139.931021 57.755238 
L 138.104019 61.729642 
L 136.277016 61.265367 
L 134.450014 59.40871 
L 132.623011 56.730567 
L 130.796009 56.92577 
L 128.969006 52.289897 
L 127.142004 54.77932 
L 125.315001 57.17385 
L 123.487999 54.317117 
L 121.660996 57.788455 
L 119.833994 57.050647 
L 118.006991 54.440305 
L 116.179989 56.357724 
L 114.352986 54.617498 
L 112.525983 54.330578 
L 110.698981 55.599452 
L 108.871978 62.496444 
L 107.044976 59.764135 
L 105.217973 55.607283 
L 103.390971 55.098148 
L 101.563968 55.613763 
L 99.736966 51.99482 
L 97.909963 50.476118 
L 96.082961 57.386973 
L 94.255958 55.979199 
L 92.428956 53.57685 
L 90.601953 56.651122 
L 88.77495 57.166066 
L 86.947948 56.786268 
L 85.120945 54.606278 
L 83.293943 54.784363 
L 81.46694 53.448975 
L 79.639938 58.192786 
L 77.812935 52.581557 
L 75.985933 55.180086 
L 74.15893 53.82792 
L 72.331928 49.604926 
L 70.504925 59.053016 
L 68.677923 57.458256 
L 66.85092 53.626289 
L 65.023917 55.066237 
L 63.196915 54.128276 
L 61.369912 55.687454 
L 59.54291 53.20546 
L 57.715907 49.614742 
L 55.888905 54.282989 
L 54.061902 58.184476 
" clip-path="url(#p1e2df8e0c5)" style="fill: none; stroke: #00bfff; stroke-width: 3; stroke-linecap: square"/>
   </g>
   <g id="line2d_18">
    <path d="M 260.513189 126.792 
L 258.686186 126.792 
L 256.859184 126.792 
L 255.032181 126.792 
L 253.205179 126.792 
L 251.378176 17.412364 
L 249.551174 15.185892 
L 247.724171 16.795265 
L 245.897169 26.130309 
L 244.070166 37.482994 
L 242.243164 43.434245 
L 240.416161 60.986279 
L 238.589158 52.743813 
L 236.762156 61.309349 
L 234.935153 70.423878 
L 233.108151 78.308757 
L 231.281148 70.843716 
L 229.454146 74.062405 
L 227.627143 88.080279 
L 225.800141 82.697611 
L 223.973138 79.82381 
L 222.146136 87.921403 
L 220.319133 81.981908 
L 218.492131 70.180402 
L 216.665128 71.811203 
L 214.838125 79.148751 
L 213.011123 73.664494 
L 211.18412 77.705731 
L 209.357118 72.546127 
L 207.530115 66.491511 
L 205.703113 69.569022 
L 203.87611 64.160473 
L 202.049108 62.091942 
L 200.222105 58.870067 
L 198.395103 78.490886 
L 196.5681 66.934156 
L 194.741098 61.723249 
L 192.914095 81.698832 
L 191.087093 73.850555 
L 189.26009 77.205332 
L 187.433087 59.574014 
L 185.606085 74.366028 
L 183.779082 62.599712 
L 181.95208 54.953795 
L 180.125077 60.632435 
L 178.298075 64.237447 
L 176.471072 63.938274 
L 174.64407 63.495715 
L 172.817067 62.186826 
L 170.990065 65.489097 
L 169.163062 51.823429 
L 167.33606 57.62912 
L 165.509057 67.231712 
L 163.682054 59.692115 
L 161.855052 58.091657 
L 160.028049 54.503524 
L 158.201047 62.462421 
L 156.374044 61.002376 
L 154.547042 57.335743 
L 152.720039 51.085792 
L 150.893037 49.184478 
L 149.066034 47.671752 
L 147.239032 46.525276 
L 145.412029 49.955412 
L 143.585027 45.79368 
L 141.758024 48.058835 
L 139.931021 45.666202 
L 138.104019 58.183246 
L 136.277016 59.790155 
L 134.450014 51.646451 
L 132.623011 46.014312 
L 130.796009 47.712839 
L 128.969006 34.041884 
L 127.142004 45.445509 
L 125.315001 54.639203 
L 123.487999 47.409143 
L 121.660996 46.327169 
L 119.833994 49.992453 
L 118.006991 49.6632 
L 116.179989 54.563749 
L 114.352986 47.220791 
L 112.525983 47.834041 
L 110.698981 42.90185 
L 108.871978 60.9347 
L 107.044976 60.00431 
L 105.217973 49.599141 
L 103.390971 55.215062 
L 101.563968 49.005059 
L 99.736966 47.083261 
L 97.909963 45.2841 
L 96.082961 56.555945 
L 94.255958 49.241878 
L 92.428956 42.175365 
L 90.601953 52.582507 
L 88.77495 56.044733 
L 86.947948 52.599303 
L 85.120945 54.014057 
L 83.293943 46.114857 
L 81.46694 49.091842 
L 79.639938 60.822387 
L 77.812935 41.644828 
L 75.985933 46.474458 
L 74.15893 41.974979 
L 72.331928 40.725407 
L 70.504925 58.877603 
L 68.677923 61.050032 
L 66.85092 54.20726 
L 65.023917 52.269897 
L 63.196915 54.31793 
L 61.369912 59.174034 
L 59.54291 53.83083 
L 57.715907 45.375843 
L 55.888905 56.810999 
L 54.061902 59.013118 
" clip-path="url(#p1e2df8e0c5)" style="fill: none; stroke: #00bfff; stroke-opacity: 0.5; stroke-width: 0.5; stroke-linecap: square"/>
   </g>
   <g id="line2d_19">
    <path d="M 260.513189 126.792 
L 258.686186 126.792 
L 256.859184 126.792 
L 255.032181 126.792 
L 253.205179 126.792 
L 251.378176 26.856745 
L 249.551174 26.486345 
L 247.724171 39.171341 
L 245.897169 44.222347 
L 244.070166 56.078838 
L 242.243164 46.644288 
L 240.416161 56.188018 
L 238.589158 67.267865 
L 236.762156 62.21997 
L 234.935153 74.232476 
L 233.108151 96.538895 
L 231.281148 71.333134 
L 229.454146 77.193122 
L 227.627143 82.011044 
L 225.800141 82.637861 
L 223.973138 83.530479 
L 222.146136 75.097361 
L 220.319133 79.916098 
L 218.492131 87.094516 
L 216.665128 75.135912 
L 214.838125 91.470998 
L 213.011123 79.278916 
L 211.18412 80.691508 
L 209.357118 81.516704 
L 207.530115 87.05802 
L 205.703113 73.918435 
L 203.87611 77.555035 
L 202.049108 75.785344 
L 200.222105 73.722057 
L 198.395103 71.965821 
L 196.5681 75.843924 
L 194.741098 75.254947 
L 192.914095 74.074187 
L 191.087093 82.072301 
L 189.26009 74.138549 
L 187.433087 72.889114 
L 185.606085 79.020627 
L 183.779082 75.655583 
L 181.95208 75.597484 
L 180.125077 83.558791 
L 178.298075 81.657507 
L 176.471072 72.722042 
L 174.64407 67.935058 
L 172.817067 79.427007 
L 170.990065 81.670197 
L 169.163062 77.620897 
L 167.33606 80.70068 
L 165.509057 74.661937 
L 163.682054 64.289519 
L 161.855052 71.68873 
L 160.028049 75.067803 
L 158.201047 65.296378 
L 156.374044 68.90333 
L 154.547042 69.783761 
L 152.720039 68.584162 
L 150.893037 64.66758 
L 149.066034 66.574952 
L 147.239032 65.515042 
L 145.412029 69.647729 
L 143.585027 65.924124 
L 141.758024 67.280526 
L 139.931021 65.963137 
L 138.104019 69.960706 
L 136.277016 67.218114 
L 134.450014 70.45088 
L 132.623011 64.010062 
L 130.796009 65.878238 
L 128.969006 65.877758 
L 127.142004 61.648032 
L 125.315001 58.272491 
L 123.487999 60.196403 
L 121.660996 66.054423 
L 119.833994 62.225786 
L 118.006991 62.315448 
L 116.179989 60.781722 
L 114.352986 64.398319 
L 112.525983 58.353429 
L 110.698981 66.978707 
L 108.871978 67.720486 
L 107.044976 61.981011 
L 105.217973 60.716465 
L 103.390971 53.972739 
L 101.563968 61.650987 
L 99.736966 56.542539 
L 97.909963 53.270632 
L 96.082961 57.523617 
L 94.255958 61.306895 
L 92.428956 60.101471 
L 90.601953 62.870739 
L 88.77495 62.329427 
L 86.947948 58.478103 
L 85.120945 51.164574 
L 83.293943 55.377176 
L 81.46694 50.956912 
L 79.639938 54.608743 
L 77.812935 57.301754 
L 75.985933 58.381841 
L 74.15893 56.624254 
L 72.331928 52.250156 
L 70.504925 55.066989 
L 68.677923 54.656363 
L 66.85092 54.030611 
L 65.023917 51.401972 
L 63.196915 52.999984 
L 61.369912 56.505335 
L 59.54291 58.462724 
L 57.715907 53.723367 
L 55.888905 55.916538 
L 54.061902 59.912376 
" clip-path="url(#p1e2df8e0c5)" style="fill: none; stroke: #00bfff; stroke-opacity: 0.5; stroke-width: 0.5; stroke-linecap: square"/>
   </g>
   <g id="line2d_20">
    <path d="M 260.513189 126.792 
L 258.686186 126.792 
L 256.859184 126.792 
L 255.032181 126.792 
L 253.205179 126.792 
L 251.378176 15.742286 
L 249.551174 16.173633 
L 247.724171 21.330428 
L 245.897169 24.579381 
L 244.070166 26.492892 
L 242.243164 27.672012 
L 240.416161 33.575248 
L 238.589158 31.350885 
L 236.762156 23.097448 
L 234.935153 31.885268 
L 233.108151 42.47202 
L 231.281148 46.060309 
L 229.454146 45.522761 
L 227.627143 45.515883 
L 225.800141 53.234991 
L 223.973138 45.00437 
L 222.146136 42.037135 
L 220.319133 54.46152 
L 218.492131 46.113291 
L 216.665128 49.905058 
L 214.838125 52.549286 
L 213.011123 57.066199 
L 211.18412 53.451356 
L 209.357118 60.949075 
L 207.530115 50.762377 
L 205.703113 44.326497 
L 203.87611 44.502072 
L 202.049108 52.072759 
L 200.222105 66.61824 
L 198.395103 59.436146 
L 196.5681 56.642852 
L 194.741098 58.710774 
L 192.914095 58.668477 
L 191.087093 53.774734 
L 189.26009 58.726119 
L 187.433087 62.198866 
L 185.606085 54.416759 
L 183.779082 68.126261 
L 181.95208 60.9617 
L 180.125077 58.097455 
L 178.298075 52.619201 
L 176.471072 59.569121 
L 174.64407 61.298139 
L 172.817067 58.329671 
L 170.990065 59.073967 
L 169.163062 56.034895 
L 167.33606 62.327373 
L 165.509057 58.933016 
L 163.682054 55.662906 
L 161.855052 58.453714 
L 160.028049 52.721542 
L 158.201047 56.890394 
L 156.374044 65.04728 
L 154.547042 61.760069 
L 152.720039 61.117645 
L 150.893037 60.369094 
L 149.066034 56.963091 
L 147.239032 60.971793 
L 145.412029 60.312731 
L 143.585027 58.57013 
L 141.758024 66.932648 
L 139.931021 61.636374 
L 138.104019 57.044973 
L 136.277016 56.78783 
L 134.450014 56.128799 
L 132.623011 60.167328 
L 130.796009 57.186234 
L 128.969006 56.95005 
L 127.142004 57.24442 
L 125.315001 58.609857 
L 123.487999 55.345805 
L 121.660996 60.983774 
L 119.833994 58.9337 
L 118.006991 51.342267 
L 116.179989 53.727701 
L 114.352986 52.233384 
L 112.525983 56.804262 
L 110.698981 56.917798 
L 108.871978 58.834146 
L 107.044976 57.307084 
L 105.217973 56.506244 
L 103.390971 56.106642 
L 101.563968 56.185243 
L 99.736966 52.358659 
L 97.909963 52.873623 
L 96.082961 58.081358 
L 94.255958 57.388822 
L 92.428956 58.453714 
L 90.601953 54.500119 
L 88.77495 53.124039 
L 86.947948 59.281398 
L 85.120945 58.640203 
L 83.293943 62.861055 
L 81.46694 60.298169 
L 79.639938 59.147227 
L 77.812935 58.798089 
L 75.985933 60.683958 
L 74.15893 62.884526 
L 72.331928 55.839215 
L 70.504925 63.214454 
L 68.677923 56.668372 
L 66.85092 52.640995 
L 65.023917 61.526842 
L 63.196915 55.066914 
L 61.369912 51.382993 
L 59.54291 47.322826 
L 57.715907 49.745014 
L 55.888905 50.121431 
L 54.061902 55.627934 
" clip-path="url(#p1e2df8e0c5)" style="fill: none; stroke: #00bfff; stroke-opacity: 0.5; stroke-width: 0.5; stroke-linecap: square"/>
   </g>
   <g id="line2d_21">
    <path d="M 260.513189 126.792 
L 258.686186 126.792 
L 256.859184 126.792 
L 255.032181 126.792 
L 253.205179 126.792 
L 251.378176 122.274493 
L 249.551174 124.500966 
L 247.724171 122.891592 
L 245.897169 113.556548 
L 244.070166 102.203863 
L 242.243164 96.252613 
L 240.416161 78.700578 
L 238.589158 86.943044 
L 236.762156 78.377508 
L 234.935153 69.262979 
L 233.108151 61.3781 
L 231.281148 68.843141 
L 229.454146 65.624452 
L 227.627143 51.606579 
L 225.800141 56.989246 
L 223.973138 59.863048 
L 222.146136 51.765454 
L 220.319133 57.70495 
L 218.492131 69.506455 
L 216.665128 67.875654 
L 214.838125 60.538106 
L 213.011123 66.022363 
L 211.18412 61.981126 
L 209.357118 67.14073 
L 207.530115 73.195346 
L 205.703113 70.117835 
L 203.87611 75.526384 
L 202.049108 77.594915 
L 200.222105 80.81679 
L 198.395103 61.195971 
L 196.5681 72.752701 
L 194.741098 77.963608 
L 192.914095 57.988025 
L 191.087093 65.836302 
L 189.26009 62.481525 
L 187.433087 80.112843 
L 185.606085 65.320829 
L 183.779082 77.087146 
L 181.95208 84.733063 
L 180.125077 79.054422 
L 178.298075 75.44941 
L 176.471072 75.748583 
L 174.64407 76.191142 
L 172.817067 77.500032 
L 170.990065 74.19776 
L 169.163062 87.863428 
L 167.33606 82.057738 
L 165.509057 72.455146 
L 163.682054 79.994742 
L 161.855052 81.5952 
L 160.028049 85.183333 
L 158.201047 77.224436 
L 156.374044 78.684481 
L 154.547042 82.351114 
L 152.720039 88.601065 
L 150.893037 90.502379 
L 149.066034 92.015106 
L 147.239032 93.161581 
L 145.412029 89.731445 
L 143.585027 93.893177 
L 141.758024 91.628022 
L 139.931021 94.020655 
L 138.104019 81.503611 
L 136.277016 79.896702 
L 134.450014 88.040406 
L 132.623011 93.672545 
L 130.796009 91.974018 
L 128.969006 105.644973 
L 127.142004 94.241348 
L 125.315001 85.047654 
L 123.487999 92.277714 
L 121.660996 93.359688 
L 119.833994 89.694404 
L 118.006991 90.023657 
L 116.179989 85.123108 
L 114.352986 92.466067 
L 112.525983 91.852816 
L 110.698981 96.785008 
L 108.871978 78.752157 
L 107.044976 79.682548 
L 105.217973 90.087716 
L 103.390971 84.471795 
L 101.563968 90.681798 
L 99.736966 92.603596 
L 97.909963 94.402757 
L 96.082961 83.130912 
L 94.255958 90.444979 
L 92.428956 97.511493 
L 90.601953 87.10435 
L 88.77495 83.642124 
L 86.947948 87.087554 
L 85.120945 85.6728 
L 83.293943 93.572 
L 81.46694 90.595015 
L 79.639938 78.86447 
L 77.812935 98.04203 
L 75.985933 93.212399 
L 74.15893 97.711878 
L 72.331928 98.96145 
L 70.504925 80.809254 
L 68.677923 78.636825 
L 66.85092 85.479597 
L 65.023917 87.416961 
L 63.196915 85.368927 
L 61.369912 80.512823 
L 59.54291 85.856027 
L 57.715907 94.311014 
L 55.888905 82.875858 
L 54.061902 80.673739 
" clip-path="url(#p1e2df8e0c5)" style="fill: none; stroke: #ff00ff; stroke-opacity: 0.5; stroke-width: 0.5; stroke-linecap: square"/>
   </g>
   <g id="line2d_22">
    <path d="M 260.513189 126.792 
L 258.686186 126.792 
L 256.859184 126.792 
L 255.032181 126.792 
L 253.205179 126.792 
L 251.378176 112.830112 
L 249.551174 113.200512 
L 247.724171 100.515516 
L 245.897169 95.46451 
L 244.070166 83.608019 
L 242.243164 93.042569 
L 240.416161 83.498839 
L 238.589158 72.418992 
L 236.762156 77.466887 
L 234.935153 65.454381 
L 233.108151 43.147962 
L 231.281148 68.353723 
L 229.454146 62.493735 
L 227.627143 57.675813 
L 225.800141 57.048997 
L 223.973138 56.156378 
L 222.146136 64.589496 
L 220.319133 59.77076 
L 218.492131 52.592341 
L 216.665128 64.550945 
L 214.838125 48.215859 
L 213.011123 60.407942 
L 211.18412 58.995349 
L 209.357118 58.170153 
L 207.530115 52.628838 
L 205.703113 65.768423 
L 203.87611 62.131823 
L 202.049108 63.901513 
L 200.222105 65.9648 
L 198.395103 67.721037 
L 196.5681 63.842933 
L 194.741098 64.43191 
L 192.914095 65.61267 
L 191.087093 57.614556 
L 189.26009 65.548308 
L 187.433087 66.797743 
L 185.606085 60.666231 
L 183.779082 64.031274 
L 181.95208 64.089373 
L 180.125077 56.128066 
L 178.298075 58.029351 
L 176.471072 66.964815 
L 174.64407 71.751799 
L 172.817067 60.25985 
L 170.990065 58.01666 
L 169.163062 62.06596 
L 167.33606 58.986177 
L 165.509057 65.02492 
L 163.682054 75.397338 
L 161.855052 67.998127 
L 160.028049 64.619054 
L 158.201047 74.390479 
L 156.374044 70.783527 
L 154.547042 69.903096 
L 152.720039 71.102695 
L 150.893037 75.019277 
L 149.066034 73.111905 
L 147.239032 74.171815 
L 145.412029 70.039128 
L 143.585027 73.762733 
L 141.758024 72.406331 
L 139.931021 73.72372 
L 138.104019 69.726151 
L 136.277016 72.468743 
L 134.450014 69.235977 
L 132.623011 75.676795 
L 130.796009 73.808619 
L 128.969006 73.809099 
L 127.142004 78.038825 
L 125.315001 81.414366 
L 123.487999 79.490454 
L 121.660996 73.632435 
L 119.833994 77.461071 
L 118.006991 77.371409 
L 116.179989 78.905135 
L 114.352986 75.288538 
L 112.525983 81.333428 
L 110.698981 72.70815 
L 108.871978 71.966371 
L 107.044976 77.705846 
L 105.217973 78.970392 
L 103.390971 85.714118 
L 101.563968 78.03587 
L 99.736966 83.144318 
L 97.909963 86.416225 
L 96.082961 82.16324 
L 94.255958 78.379962 
L 92.428956 79.585386 
L 90.601953 76.816119 
L 88.77495 77.35743 
L 86.947948 81.208754 
L 85.120945 88.522283 
L 83.293943 84.309681 
L 81.46694 88.729945 
L 79.639938 85.078114 
L 77.812935 82.385103 
L 75.985933 81.305016 
L 74.15893 83.062603 
L 72.331928 87.436701 
L 70.504925 84.619868 
L 68.677923 85.030494 
L 66.85092 85.656246 
L 65.023917 88.284885 
L 63.196915 86.686873 
L 61.369912 83.181522 
L 59.54291 81.224133 
L 57.715907 85.96349 
L 55.888905 83.770319 
L 54.061902 79.774481 
" clip-path="url(#p1e2df8e0c5)" style="fill: none; stroke: #ff00ff; stroke-opacity: 0.5; stroke-width: 0.5; stroke-linecap: square"/>
   </g>
   <g id="line2d_23">
    <path d="M 260.513189 126.792 
L 258.686186 126.792 
L 256.859184 126.792 
L 255.032181 126.792 
L 253.205179 126.792 
L 251.378176 123.944571 
L 249.551174 123.513224 
L 247.724171 118.356429 
L 245.897169 115.107476 
L 244.070166 113.193965 
L 242.243164 112.014845 
L 240.416161 106.111609 
L 238.589158 108.335972 
L 236.762156 116.58941 
L 234.935153 107.801589 
L 233.108151 97.214837 
L 231.281148 93.626548 
L 229.454146 94.164096 
L 227.627143 94.170974 
L 225.800141 86.451866 
L 223.973138 94.682487 
L 222.146136 97.649722 
L 220.319133 85.225337 
L 218.492131 93.573566 
L 216.665128 89.781799 
L 214.838125 87.137571 
L 213.011123 82.620658 
L 211.18412 86.235501 
L 209.357118 78.737782 
L 207.530115 88.924481 
L 205.703113 95.36036 
L 203.87611 95.184785 
L 202.049108 87.614098 
L 200.222105 73.068617 
L 198.395103 80.250711 
L 196.5681 83.044005 
L 194.741098 80.976083 
L 192.914095 81.01838 
L 191.087093 85.912123 
L 189.26009 80.960738 
L 187.433087 77.487991 
L 185.606085 85.270098 
L 183.779082 71.560596 
L 181.95208 78.725157 
L 180.125077 81.589402 
L 178.298075 87.067656 
L 176.471072 80.117736 
L 174.64407 78.388718 
L 172.817067 81.357186 
L 170.990065 80.61289 
L 169.163062 83.651962 
L 167.33606 77.359484 
L 165.509057 80.753841 
L 163.682054 84.023952 
L 161.855052 81.233143 
L 160.028049 86.965315 
L 158.201047 82.796464 
L 156.374044 74.639577 
L 154.547042 77.926788 
L 152.720039 78.569212 
L 150.893037 79.317763 
L 149.066034 82.723766 
L 147.239032 78.715064 
L 145.412029 79.374127 
L 143.585027 81.116727 
L 141.758024 72.754209 
L 139.931021 78.050483 
L 138.104019 82.641884 
L 136.277016 82.899027 
L 134.450014 83.558058 
L 132.623011 79.51953 
L 130.796009 82.500623 
L 128.969006 82.736807 
L 127.142004 82.442437 
L 125.315001 81.077001 
L 123.487999 84.341052 
L 121.660996 78.703083 
L 119.833994 80.753157 
L 118.006991 88.344591 
L 116.179989 85.959157 
L 114.352986 87.453473 
L 112.525983 82.882595 
L 110.698981 82.769059 
L 108.871978 80.852712 
L 107.044976 82.379774 
L 105.217973 83.180613 
L 103.390971 83.580215 
L 101.563968 83.501614 
L 99.736966 87.328198 
L 97.909963 86.813234 
L 96.082961 81.605499 
L 94.255958 82.298035 
L 92.428956 81.233143 
L 90.601953 85.186738 
L 88.77495 86.562819 
L 86.947948 80.405459 
L 85.120945 81.046654 
L 83.293943 76.825802 
L 81.46694 79.388688 
L 79.639938 80.53963 
L 77.812935 80.888769 
L 75.985933 79.002899 
L 74.15893 76.802331 
L 72.331928 83.847642 
L 70.504925 76.472403 
L 68.677923 83.018485 
L 66.85092 87.045862 
L 65.023917 78.160015 
L 63.196915 84.619944 
L 61.369912 88.303864 
L 59.54291 92.364031 
L 57.715907 89.941843 
L 55.888905 89.565426 
L 54.061902 84.058923 
" clip-path="url(#p1e2df8e0c5)" style="fill: none; stroke: #ff00ff; stroke-opacity: 0.5; stroke-width: 0.5; stroke-linecap: square"/>
   </g>
   <g id="line2d_24">
    <path d="M 260.513189 126.792 
L 258.686186 126.792 
L 256.859184 126.792 
L 255.032181 126.792 
L 253.205179 126.792 
L 251.378176 20.003798 
L 249.551174 19.281956 
L 247.724171 25.765678 
L 245.897169 31.644013 
L 244.070166 40.018241 
L 242.243164 39.250182 
L 240.416161 50.249848 
L 238.589158 50.454188 
L 236.762156 48.875589 
L 234.935153 58.847207 
L 233.108151 72.439891 
L 231.281148 62.74572 
L 229.454146 65.592763 
L 227.627143 71.869069 
L 225.800141 72.856821 
L 223.973138 69.452886 
L 222.146136 68.351966 
L 220.319133 72.119842 
L 218.492131 67.79607 
L 216.665128 65.617391 
L 214.838125 74.389678 
L 213.011123 70.003203 
L 211.18412 70.616199 
L 209.357118 71.670635 
L 207.530115 68.103969 
L 205.703113 62.604651 
L 203.87611 62.072527 
L 202.049108 63.316682 
L 200.222105 66.403455 
L 198.395103 69.964284 
L 196.5681 66.473644 
L 194.741098 65.229657 
L 192.914095 71.480499 
L 191.087093 69.899197 
L 189.26009 70.023334 
L 187.433087 64.887331 
L 185.606085 69.267805 
L 183.779082 68.793852 
L 181.95208 63.837659 
L 180.125077 67.42956 
L 178.298075 66.171385 
L 176.471072 65.409812 
L 174.64407 64.242971 
L 172.817067 66.647835 
L 170.990065 68.74442 
L 169.163062 61.826407 
L 167.33606 66.885724 
L 165.509057 66.942221 
L 163.682054 59.881513 
L 161.855052 62.744701 
L 160.028049 60.76429 
L 158.201047 61.549731 
L 156.374044 64.984329 
L 154.547042 62.959858 
L 152.720039 60.262533 
L 150.893037 58.073717 
L 149.066034 57.069932 
L 147.239032 57.670704 
L 145.412029 59.971957 
L 143.585027 56.762645 
L 141.758024 60.757336 
L 139.931021 57.755238 
L 138.104019 61.729642 
L 136.277016 61.265367 
L 134.450014 59.40871 
L 132.623011 56.730567 
L 130.796009 56.92577 
L 128.969006 52.289897 
L 127.142004 54.77932 
L 125.315001 57.17385 
L 123.487999 54.317117 
L 121.660996 57.788455 
L 119.833994 57.050647 
L 118.006991 54.440305 
L 116.179989 56.357724 
L 114.352986 54.617498 
L 112.525983 54.330578 
L 110.698981 55.599452 
L 108.871978 62.496444 
L 107.044976 59.764135 
L 105.217973 55.607283 
L 103.390971 55.098148 
L 101.563968 55.613763 
L 99.736966 51.99482 
L 97.909963 50.476118 
L 96.082961 57.386973 
L 94.255958 55.979199 
L 92.428956 53.57685 
L 90.601953 56.651122 
L 88.77495 57.166066 
L 86.947948 56.786268 
L 85.120945 54.606278 
L 83.293943 54.784363 
L 81.46694 53.448975 
L 79.639938 58.192786 
L 77.812935 52.581557 
L 75.985933 55.180086 
L 74.15893 53.82792 
L 72.331928 49.604926 
L 70.504925 59.053016 
L 68.677923 57.458256 
L 66.85092 53.626289 
L 65.023917 55.066237 
L 63.196915 54.128276 
L 61.369912 55.687454 
L 59.54291 53.20546 
L 57.715907 49.614742 
L 55.888905 54.282989 
L 54.061902 58.184476 
" clip-path="url(#p1e2df8e0c5)" style="fill: none; stroke: #00bfff; stroke-width: 4; stroke-linecap: square"/>
   </g>
   <g id="line2d_25">
    <path d="M 260.513189 126.792 
L 258.686186 126.792 
L 256.859184 126.792 
L 255.032181 126.792 
L 253.205179 126.792 
L 251.378176 119.683059 
L 249.551174 120.404901 
L 247.724171 113.921179 
L 245.897169 108.042845 
L 244.070166 99.668616 
L 242.243164 100.436676 
L 240.416161 89.437009 
L 238.589158 89.232669 
L 236.762156 90.811268 
L 234.935153 80.83965 
L 233.108151 67.246967 
L 231.281148 76.941137 
L 229.454146 74.094094 
L 227.627143 67.817788 
L 225.800141 66.830036 
L 223.973138 70.233971 
L 222.146136 71.334891 
L 220.319133 67.567015 
L 218.492131 71.890787 
L 216.665128 74.069466 
L 214.838125 65.297179 
L 213.011123 69.683654 
L 211.18412 69.070658 
L 209.357118 68.016222 
L 207.530115 71.582888 
L 205.703113 77.082206 
L 203.87611 77.614331 
L 202.049108 76.370175 
L 200.222105 73.283402 
L 198.395103 69.722573 
L 196.5681 73.213213 
L 194.741098 74.457201 
L 192.914095 68.206358 
L 191.087093 69.78766 
L 189.26009 69.663524 
L 187.433087 74.799526 
L 185.606085 70.419053 
L 183.779082 70.893005 
L 181.95208 75.849198 
L 180.125077 72.257297 
L 178.298075 73.515472 
L 176.471072 74.277045 
L 174.64407 75.443886 
L 172.817067 73.039023 
L 170.990065 70.942437 
L 169.163062 77.86045 
L 167.33606 72.801133 
L 165.509057 72.744636 
L 163.682054 79.805344 
L 161.855052 76.942157 
L 160.028049 78.922567 
L 158.201047 78.137126 
L 156.374044 74.702528 
L 154.547042 76.726999 
L 152.720039 79.424324 
L 150.893037 81.61314 
L 149.066034 82.616926 
L 147.239032 82.016153 
L 145.412029 79.7149 
L 143.585027 82.924212 
L 141.758024 78.929521 
L 139.931021 81.93162 
L 138.104019 77.957215 
L 136.277016 78.421491 
L 134.450014 80.278147 
L 132.623011 82.95629 
L 130.796009 82.761087 
L 128.969006 87.39696 
L 127.142004 84.907537 
L 125.315001 82.513007 
L 123.487999 85.36974 
L 121.660996 81.898402 
L 119.833994 82.636211 
L 118.006991 85.246552 
L 116.179989 83.329133 
L 114.352986 85.069359 
L 112.525983 85.35628 
L 110.698981 84.087405 
L 108.871978 77.190413 
L 107.044976 79.922722 
L 105.217973 84.079574 
L 103.390971 84.588709 
L 101.563968 84.073094 
L 99.736966 87.692037 
L 97.909963 89.210739 
L 96.082961 82.299884 
L 94.255958 83.707659 
L 92.428956 86.110007 
L 90.601953 83.035736 
L 88.77495 82.520791 
L 86.947948 82.900589 
L 85.120945 85.080579 
L 83.293943 84.902494 
L 81.46694 86.237883 
L 79.639938 81.494072 
L 77.812935 87.1053 
L 75.985933 84.506771 
L 74.15893 85.858937 
L 72.331928 90.081931 
L 70.504925 80.633842 
L 68.677923 82.228601 
L 66.85092 86.060568 
L 65.023917 84.62062 
L 63.196915 85.558581 
L 61.369912 83.999403 
L 59.54291 86.481397 
L 57.715907 90.072115 
L 55.888905 85.403868 
L 54.061902 81.502381 
" clip-path="url(#p1e2df8e0c5)" style="fill: none; stroke: #ff00ff; stroke-width: 4; stroke-linecap: square"/>
   </g>
   <g id="line2d_26">
    <path d="M 251.378176 126.792 
L 251.378176 7.2 
" clip-path="url(#p1e2df8e0c5)" style="fill: none; stroke-dasharray: 1.5,2.475; stroke-dashoffset: 0; stroke: #000000; stroke-width: 1.5"/>
   </g>
   <g id="patch_3">
    <path d="M 53.94375 126.792 
L 53.94375 7.2 
" style="fill: none; stroke: #000000; stroke-linejoin: miter; stroke-linecap: square"/>
   </g>
   <g id="patch_4">
    <path d="M 260.40375 126.792 
L 260.40375 7.2 
" style="fill: none"/>
   </g>
   <g id="patch_5">
    <path d="M 53.94375 126.792 
L 260.40375 126.792 
" style="fill: none; stroke: #000000; stroke-linejoin: miter; stroke-linecap: square"/>
   </g>
   <g id="patch_6">
    <path d="M 53.94375 7.2 
L 260.40375 7.2 
" style="fill: none"/>
   </g>
   <g id="legend_1">
    <g id="patch_7">
     <path d="M 60.94375 121.792 
L 119.24375 121.792 
Q 121.24375 121.792 121.24375 119.792 
L 121.24375 91.413875 
Q 121.24375 89.413875 119.24375 89.413875 
L 60.94375 89.413875 
Q 58.94375 89.413875 58.94375 91.413875 
L 58.94375 119.792 
Q 58.94375 121.792 60.94375 121.792 
z
" style="fill: #ffffff; opacity: 0.8; stroke: #cccccc; stroke-linejoin: miter"/>
    </g>
    <g id="line2d_27">
     <path d="M 62.94375 97.512313 
L 72.94375 97.512313 
L 82.94375 97.512313 
" style="fill: none; stroke: #ff00ff; stroke-width: 4; stroke-linecap: square"/>
    </g>
    <g id="text_10">
     <!-- WT -->
     <g transform="translate(90.94375 101.012313) scale(0.1 -0.1)">
      <defs>
       <path id="DejaVuSans-57" d="M 213 4666 
L 850 4666 
L 1831 722 
L 2809 4666 
L 3519 4666 
L 4500 722 
L 5478 4666 
L 6119 4666 
L 4947 0 
L 4153 0 
L 3169 4050 
L 2175 0 
L 1381 0 
L 213 4666 
z
" transform="scale(0.015625)"/>
       <path id="DejaVuSans-54" d="M -19 4666 
L 3928 4666 
L 3928 4134 
L 2272 4134 
L 2272 0 
L 1638 0 
L 1638 4134 
L -19 4134 
L -19 4666 
z
" transform="scale(0.015625)"/>
      </defs>
      <use xlink:href="#DejaVuSans-57"/>
      <use xlink:href="#DejaVuSans-54" x="98.876953"/>
     </g>
    </g>
    <g id="line2d_28">
     <path d="M 62.94375 112.192 
L 72.94375 112.192 
L 82.94375 112.192 
" style="fill: none; stroke: #00bfff; stroke-width: 4; stroke-linecap: square"/>
    </g>
    <g id="text_11">
     <!-- $\Delta\mathit{pilH}$ -->
     <g transform="translate(90.94375 115.692) scale(0.1 -0.1)">
      <defs>
       <path id="DejaVuSans-394" d="M 2188 4044 
L 906 525 
L 3472 525 
L 2188 4044 
z
M 50 0 
L 1831 4666 
L 2547 4666 
L 4325 0 
L 50 0 
z
" transform="scale(0.015625)"/>
       <path id="DejaVuSans-Oblique-70" d="M 3175 2156 
Q 3175 2616 2975 2859 
Q 2775 3103 2400 3103 
Q 2144 3103 1911 2972 
Q 1678 2841 1497 2591 
Q 1319 2344 1212 1994 
Q 1106 1644 1106 1300 
Q 1106 863 1306 627 
Q 1506 391 1875 391 
Q 2147 391 2380 519 
Q 2613 647 2778 891 
Q 2956 1147 3065 1494 
Q 3175 1841 3175 2156 
z
M 1394 2969 
Q 1625 3272 1939 3428 
Q 2253 3584 2638 3584 
Q 3175 3584 3472 3232 
Q 3769 2881 3769 2247 
Q 3769 1728 3584 1258 
Q 3400 788 3053 416 
Q 2822 169 2531 39 
Q 2241 -91 1919 -91 
Q 1547 -91 1294 64 
Q 1041 219 916 525 
L 556 -1331 
L -19 -1331 
L 922 3500 
L 1497 3500 
L 1394 2969 
z
" transform="scale(0.015625)"/>
       <path id="DejaVuSans-Oblique-69" d="M 1172 4863 
L 1747 4863 
L 1606 4134 
L 1031 4134 
L 1172 4863 
z
M 909 3500 
L 1484 3500 
L 800 0 
L 225 0 
L 909 3500 
z
" transform="scale(0.015625)"/>
       <path id="DejaVuSans-Oblique-6c" d="M 1172 4863 
L 1747 4863 
L 800 0 
L 225 0 
L 1172 4863 
z
" transform="scale(0.015625)"/>
       <path id="DejaVuSans-Oblique-48" d="M 1081 4666 
L 1716 4666 
L 1344 2753 
L 3634 2753 
L 4006 4666 
L 4641 4666 
L 3731 0 
L 3097 0 
L 3531 2222 
L 1241 2222 
L 806 0 
L 172 0 
L 1081 4666 
z
" transform="scale(0.015625)"/>
      </defs>
      <use xlink:href="#DejaVuSans-394" transform="translate(0 0.015625)"/>
      <use xlink:href="#DejaVuSans-Oblique-70" transform="translate(68.408203 0.015625)"/>
      <use xlink:href="#DejaVuSans-Oblique-69" transform="translate(131.884766 0.015625)"/>
      <use xlink:href="#DejaVuSans-Oblique-6c" transform="translate(159.667969 0.015625)"/>
      <use xlink:href="#DejaVuSans-Oblique-48" transform="translate(187.451172 0.015625)"/>
     </g>
    </g>
   </g>
  </g>
 </g>
 <defs>
  <clipPath id="p1e2df8e0c5">
   <rect x="53.94375" y="7.2" width="206.46" height="119.592"/>
  </clipPath>
 </defs>
</svg>
