<?xml version="1.0" encoding="utf-8" standalone="no"?>
<!DOCTYPE svg PUBLIC "-//W3C//DTD SVG 1.1//EN"
  "http://www.w3.org/Graphics/SVG/1.1/DTD/svg11.dtd">
<svg xmlns:xlink="http://www.w3.org/1999/xlink" width="267.60375pt" height="174.433563pt" viewBox="0 0 267.60375 174.433563" xmlns="http://www.w3.org/2000/svg" version="1.1">
 <metadata>
  <rdf:RDF xmlns:dc="http://purl.org/dc/elements/1.1/" xmlns:cc="http://creativecommons.org/ns#" xmlns:rdf="http://www.w3.org/1999/02/22-rdf-syntax-ns#">
   <cc:Work>
    <dc:type rdf:resource="http://purl.org/dc/dcmitype/StillImage"/>
    <dc:date>2026-05-26T16:05:03.787071</dc:date>
    <dc:format>image/svg+xml</dc:format>
    <dc:creator>
     <cc:Agent>
      <dc:title>Matplotlib v3.9.4, https://matplotlib.org/</dc:title>
     </cc:Agent>
    </dc:creator>
   </cc:Work>
  </rdf:RDF>
 </metadata>
 <defs>
  <style type="text/css">*{stroke-linejoin: round; stroke-linecap: butt}</style>
 </defs>
 <g id="figure_1">
  <g id="patch_1">
   <path d="M 0 174.433563 
L 267.60375 174.433563 
L 267.60375 0 
L 0 0 
L 0 174.433563 
z
" style="fill: none"/>
  </g>
  <g id="axes_1">
   <g id="patch_2">
    <path d="M 53.94375 126.792 
L 260.40375 126.792 
L 260.40375 7.2 
L 53.94375 7.2 
L 53.94375 126.792 
z
" style="fill: none"/>
   </g>
   <g id="matplotlib.axis_1">
    <g id="xtick_1">
     <g id="line2d_1">
      <defs>
       <path id="m89d882e858" d="M 0 0 
L 0 7 
" style="stroke: #000000; stroke-width: 1.25"/>
      </defs>
      <g>
       <use xlink:href="#m89d882e858" x="251.378176" y="126.792" style="stroke: #000000; stroke-width: 1.25"/>
      </g>
     </g>
     <g id="text_1">
      <!-- 0 -->
      <g transform="translate(247.48552 147.312938) scale(0.14 -0.14)">
       <defs>
        <path id="ArialMT-30" d="M 266 2259 
Q 266 3072 433 3567 
Q 600 4063 929 4331 
Q 1259 4600 1759 4600 
Q 2128 4600 2406 4451 
Q 2684 4303 2865 4023 
Q 3047 3744 3150 3342 
Q 3253 2941 3253 2259 
Q 3253 1453 3087 958 
Q 2922 463 2592 192 
Q 2263 -78 1759 -78 
Q 1097 -78 719 397 
Q 266 969 266 2259 
z
M 844 2259 
Q 844 1131 1108 757 
Q 1372 384 1759 384 
Q 2147 384 2411 759 
Q 2675 1134 2675 2259 
Q 2675 3391 2411 3762 
Q 2147 4134 1753 4134 
Q 1366 4134 1134 3806 
Q 844 3388 844 2259 
z
" transform="scale(0.015625)"/>
       </defs>
       <use xlink:href="#ArialMT-30"/>
      </g>
     </g>
    </g>
    <g id="xtick_2">
     <g id="line2d_2">
      <g>
       <use xlink:href="#m89d882e858" x="194.96834" y="126.792" style="stroke: #000000; stroke-width: 1.25"/>
      </g>
     </g>
     <g id="text_2">
      <!-- 100 -->
      <g transform="translate(183.290371 147.312938) scale(0.14 -0.14)">
       <defs>
        <path id="ArialMT-31" d="M 2384 0 
L 1822 0 
L 1822 3584 
Q 1619 3391 1289 3197 
Q 959 3003 697 2906 
L 697 3450 
Q 1169 3672 1522 3987 
Q 1875 4303 2022 4600 
L 2384 4600 
L 2384 0 
z
" transform="scale(0.015625)"/>
       </defs>
       <use xlink:href="#ArialMT-31"/>
       <use xlink:href="#ArialMT-30" x="55.615234"/>
       <use xlink:href="#ArialMT-30" x="111.230469"/>
      </g>
     </g>
    </g>
    <g id="xtick_3">
     <g id="line2d_3">
      <g>
       <use xlink:href="#m89d882e858" x="138.558504" y="126.792" style="stroke: #000000; stroke-width: 1.25"/>
      </g>
     </g>
     <g id="text_3">
      <!-- 200 -->
      <g transform="translate(126.880535 147.312938) scale(0.14 -0.14)">
       <defs>
        <path id="ArialMT-32" d="M 3222 541 
L 3222 0 
L 194 0 
Q 188 203 259 391 
Q 375 700 629 1000 
Q 884 1300 1366 1694 
Q 2113 2306 2375 2664 
Q 2638 3022 2638 3341 
Q 2638 3675 2398 3904 
Q 2159 4134 1775 4134 
Q 1369 4134 1125 3890 
Q 881 3647 878 3216 
L 300 3275 
Q 359 3922 746 4261 
Q 1134 4600 1788 4600 
Q 2447 4600 2831 4234 
Q 3216 3869 3216 3328 
Q 3216 3053 3103 2787 
Q 2991 2522 2730 2228 
Q 2469 1934 1863 1422 
Q 1356 997 1212 845 
Q 1069 694 975 541 
L 3222 541 
z
" transform="scale(0.015625)"/>
       </defs>
       <use xlink:href="#ArialMT-32"/>
       <use xlink:href="#ArialMT-30" x="55.615234"/>
       <use xlink:href="#ArialMT-30" x="111.230469"/>
      </g>
     </g>
    </g>
    <g id="xtick_4">
     <g id="line2d_4">
      <g>
       <use xlink:href="#m89d882e858" x="82.148668" y="126.792" style="stroke: #000000; stroke-width: 1.25"/>
      </g>
     </g>
     <g id="text_4">
      <!-- 300 -->
      <g transform="translate(70.470699 147.312938) scale(0.14 -0.14)">
       <defs>
        <path id="ArialMT-33" d="M 269 1209 
L 831 1284 
Q 928 806 1161 595 
Q 1394 384 1728 384 
Q 2125 384 2398 659 
Q 2672 934 2672 1341 
Q 2672 1728 2419 1979 
Q 2166 2231 1775 2231 
Q 1616 2231 1378 2169 
L 1441 2663 
Q 1497 2656 1531 2656 
Q 1891 2656 2178 2843 
Q 2466 3031 2466 3422 
Q 2466 3731 2256 3934 
Q 2047 4138 1716 4138 
Q 1388 4138 1169 3931 
Q 950 3725 888 3313 
L 325 3413 
Q 428 3978 793 4289 
Q 1159 4600 1703 4600 
Q 2078 4600 2393 4439 
Q 2709 4278 2876 4000 
Q 3044 3722 3044 3409 
Q 3044 3113 2884 2869 
Q 2725 2625 2413 2481 
Q 2819 2388 3044 2092 
Q 3269 1797 3269 1353 
Q 3269 753 2831 336 
Q 2394 -81 1725 -81 
Q 1122 -81 723 278 
Q 325 638 269 1209 
z
" transform="scale(0.015625)"/>
       </defs>
       <use xlink:href="#ArialMT-33"/>
       <use xlink:href="#ArialMT-30" x="55.615234"/>
       <use xlink:href="#ArialMT-30" x="111.230469"/>
      </g>
     </g>
    </g>
    <g id="text_5">
     <!-- Distance from the edge (µm) -->
     <g transform="translate(62.907813 164.287) scale(0.14 -0.14)">
      <defs>
       <path id="Arial-BoldMT-44" d="M 463 4581 
L 2153 4581 
Q 2725 4581 3025 4494 
Q 3428 4375 3715 4072 
Q 4003 3769 4153 3330 
Q 4303 2891 4303 2247 
Q 4303 1681 4163 1272 
Q 3991 772 3672 463 
Q 3431 228 3022 97 
Q 2716 0 2203 0 
L 463 0 
L 463 4581 
z
M 1388 3806 
L 1388 772 
L 2078 772 
Q 2466 772 2638 816 
Q 2863 872 3011 1006 
Q 3159 1141 3253 1448 
Q 3347 1756 3347 2288 
Q 3347 2819 3253 3103 
Q 3159 3388 2990 3547 
Q 2822 3706 2563 3763 
Q 2369 3806 1803 3806 
L 1388 3806 
z
" transform="scale(0.015625)"/>
       <path id="Arial-BoldMT-69" d="M 459 3769 
L 459 4581 
L 1338 4581 
L 1338 3769 
L 459 3769 
z
M 459 0 
L 459 3319 
L 1338 3319 
L 1338 0 
L 459 0 
z
" transform="scale(0.015625)"/>
       <path id="Arial-BoldMT-73" d="M 150 947 
L 1031 1081 
Q 1088 825 1259 692 
Q 1431 559 1741 559 
Q 2081 559 2253 684 
Q 2369 772 2369 919 
Q 2369 1019 2306 1084 
Q 2241 1147 2013 1200 
Q 950 1434 666 1628 
Q 272 1897 272 2375 
Q 272 2806 612 3100 
Q 953 3394 1669 3394 
Q 2350 3394 2681 3172 
Q 3013 2950 3138 2516 
L 2309 2363 
Q 2256 2556 2107 2659 
Q 1959 2763 1684 2763 
Q 1338 2763 1188 2666 
Q 1088 2597 1088 2488 
Q 1088 2394 1175 2328 
Q 1294 2241 1995 2081 
Q 2697 1922 2975 1691 
Q 3250 1456 3250 1038 
Q 3250 581 2869 253 
Q 2488 -75 1741 -75 
Q 1063 -75 667 200 
Q 272 475 150 947 
z
" transform="scale(0.015625)"/>
       <path id="Arial-BoldMT-74" d="M 1981 3319 
L 1981 2619 
L 1381 2619 
L 1381 1281 
Q 1381 875 1398 808 
Q 1416 741 1477 697 
Q 1538 653 1625 653 
Q 1747 653 1978 738 
L 2053 56 
Q 1747 -75 1359 -75 
Q 1122 -75 931 4 
Q 741 84 652 211 
Q 563 338 528 553 
Q 500 706 500 1172 
L 500 2619 
L 97 2619 
L 97 3319 
L 500 3319 
L 500 3978 
L 1381 4491 
L 1381 3319 
L 1981 3319 
z
" transform="scale(0.015625)"/>
       <path id="Arial-BoldMT-61" d="M 1116 2306 
L 319 2450 
Q 453 2931 781 3162 
Q 1109 3394 1756 3394 
Q 2344 3394 2631 3255 
Q 2919 3116 3036 2902 
Q 3153 2688 3153 2116 
L 3144 1091 
Q 3144 653 3186 445 
Q 3228 238 3344 0 
L 2475 0 
Q 2441 88 2391 259 
Q 2369 338 2359 363 
Q 2134 144 1878 34 
Q 1622 -75 1331 -75 
Q 819 -75 523 203 
Q 228 481 228 906 
Q 228 1188 362 1408 
Q 497 1628 739 1745 
Q 981 1863 1438 1950 
Q 2053 2066 2291 2166 
L 2291 2253 
Q 2291 2506 2166 2614 
Q 2041 2722 1694 2722 
Q 1459 2722 1328 2630 
Q 1197 2538 1116 2306 
z
M 2291 1594 
Q 2122 1538 1756 1459 
Q 1391 1381 1278 1306 
Q 1106 1184 1106 997 
Q 1106 813 1243 678 
Q 1381 544 1594 544 
Q 1831 544 2047 700 
Q 2206 819 2256 991 
Q 2291 1103 2291 1419 
L 2291 1594 
z
" transform="scale(0.015625)"/>
       <path id="Arial-BoldMT-6e" d="M 3478 0 
L 2600 0 
L 2600 1694 
Q 2600 2231 2544 2389 
Q 2488 2547 2361 2634 
Q 2234 2722 2056 2722 
Q 1828 2722 1647 2597 
Q 1466 2472 1398 2265 
Q 1331 2059 1331 1503 
L 1331 0 
L 453 0 
L 453 3319 
L 1269 3319 
L 1269 2831 
Q 1703 3394 2363 3394 
Q 2653 3394 2893 3289 
Q 3134 3184 3257 3021 
Q 3381 2859 3429 2653 
Q 3478 2447 3478 2063 
L 3478 0 
z
" transform="scale(0.015625)"/>
       <path id="Arial-BoldMT-63" d="M 3353 2338 
L 2488 2181 
Q 2444 2441 2289 2572 
Q 2134 2703 1888 2703 
Q 1559 2703 1364 2476 
Q 1169 2250 1169 1719 
Q 1169 1128 1367 884 
Q 1566 641 1900 641 
Q 2150 641 2309 783 
Q 2469 925 2534 1272 
L 3397 1125 
Q 3263 531 2881 228 
Q 2500 -75 1859 -75 
Q 1131 -75 698 384 
Q 266 844 266 1656 
Q 266 2478 700 2936 
Q 1134 3394 1875 3394 
Q 2481 3394 2839 3133 
Q 3197 2872 3353 2338 
z
" transform="scale(0.015625)"/>
       <path id="Arial-BoldMT-65" d="M 2381 1056 
L 3256 909 
Q 3088 428 2723 176 
Q 2359 -75 1813 -75 
Q 947 -75 531 491 
Q 203 944 203 1634 
Q 203 2459 634 2926 
Q 1066 3394 1725 3394 
Q 2466 3394 2894 2905 
Q 3322 2416 3303 1406 
L 1103 1406 
Q 1113 1016 1316 798 
Q 1519 581 1822 581 
Q 2028 581 2168 693 
Q 2309 806 2381 1056 
z
M 2431 1944 
Q 2422 2325 2234 2523 
Q 2047 2722 1778 2722 
Q 1491 2722 1303 2513 
Q 1116 2303 1119 1944 
L 2431 1944 
z
" transform="scale(0.015625)"/>
       <path id="Arial-BoldMT-20" transform="scale(0.015625)"/>
       <path id="Arial-BoldMT-66" d="M 75 3319 
L 563 3319 
L 563 3569 
Q 563 3988 652 4194 
Q 741 4400 980 4529 
Q 1219 4659 1584 4659 
Q 1959 4659 2319 4547 
L 2200 3934 
Q 1991 3984 1797 3984 
Q 1606 3984 1523 3895 
Q 1441 3806 1441 3553 
L 1441 3319 
L 2097 3319 
L 2097 2628 
L 1441 2628 
L 1441 0 
L 563 0 
L 563 2628 
L 75 2628 
L 75 3319 
z
" transform="scale(0.015625)"/>
       <path id="Arial-BoldMT-72" d="M 1300 0 
L 422 0 
L 422 3319 
L 1238 3319 
L 1238 2847 
Q 1447 3181 1614 3287 
Q 1781 3394 1994 3394 
Q 2294 3394 2572 3228 
L 2300 2463 
Q 2078 2606 1888 2606 
Q 1703 2606 1575 2504 
Q 1447 2403 1373 2137 
Q 1300 1872 1300 1025 
L 1300 0 
z
" transform="scale(0.015625)"/>
       <path id="Arial-BoldMT-6f" d="M 256 1706 
Q 256 2144 472 2553 
Q 688 2963 1083 3178 
Q 1478 3394 1966 3394 
Q 2719 3394 3200 2905 
Q 3681 2416 3681 1669 
Q 3681 916 3195 420 
Q 2709 -75 1972 -75 
Q 1516 -75 1102 131 
Q 688 338 472 736 
Q 256 1134 256 1706 
z
M 1156 1659 
Q 1156 1166 1390 903 
Q 1625 641 1969 641 
Q 2313 641 2545 903 
Q 2778 1166 2778 1666 
Q 2778 2153 2545 2415 
Q 2313 2678 1969 2678 
Q 1625 2678 1390 2415 
Q 1156 2153 1156 1659 
z
" transform="scale(0.015625)"/>
       <path id="Arial-BoldMT-6d" d="M 394 3319 
L 1203 3319 
L 1203 2866 
Q 1638 3394 2238 3394 
Q 2556 3394 2790 3262 
Q 3025 3131 3175 2866 
Q 3394 3131 3647 3262 
Q 3900 3394 4188 3394 
Q 4553 3394 4806 3245 
Q 5059 3097 5184 2809 
Q 5275 2597 5275 2122 
L 5275 0 
L 4397 0 
L 4397 1897 
Q 4397 2391 4306 2534 
Q 4184 2722 3931 2722 
Q 3747 2722 3584 2609 
Q 3422 2497 3350 2280 
Q 3278 2063 3278 1594 
L 3278 0 
L 2400 0 
L 2400 1819 
Q 2400 2303 2353 2443 
Q 2306 2584 2207 2653 
Q 2109 2722 1941 2722 
Q 1738 2722 1575 2612 
Q 1413 2503 1342 2297 
Q 1272 2091 1272 1613 
L 1272 0 
L 394 0 
L 394 3319 
z
" transform="scale(0.015625)"/>
       <path id="Arial-BoldMT-68" d="M 1334 4581 
L 1334 2897 
Q 1759 3394 2350 3394 
Q 2653 3394 2897 3281 
Q 3141 3169 3264 2994 
Q 3388 2819 3433 2606 
Q 3478 2394 3478 1947 
L 3478 0 
L 2600 0 
L 2600 1753 
Q 2600 2275 2550 2415 
Q 2500 2556 2373 2639 
Q 2247 2722 2056 2722 
Q 1838 2722 1666 2615 
Q 1494 2509 1414 2295 
Q 1334 2081 1334 1663 
L 1334 0 
L 456 0 
L 456 4581 
L 1334 4581 
z
" transform="scale(0.015625)"/>
       <path id="Arial-BoldMT-64" d="M 3503 0 
L 2688 0 
L 2688 488 
Q 2484 203 2207 64 
Q 1931 -75 1650 -75 
Q 1078 -75 670 386 
Q 263 847 263 1672 
Q 263 2516 659 2955 
Q 1056 3394 1663 3394 
Q 2219 3394 2625 2931 
L 2625 4581 
L 3503 4581 
L 3503 0 
z
M 1159 1731 
Q 1159 1200 1306 963 
Q 1519 619 1900 619 
Q 2203 619 2415 876 
Q 2628 1134 2628 1647 
Q 2628 2219 2422 2470 
Q 2216 2722 1894 2722 
Q 1581 2722 1370 2473 
Q 1159 2225 1159 1731 
z
" transform="scale(0.015625)"/>
       <path id="Arial-BoldMT-67" d="M 378 -219 
L 1381 -341 
Q 1406 -516 1497 -581 
Q 1622 -675 1891 -675 
Q 2234 -675 2406 -572 
Q 2522 -503 2581 -350 
Q 2622 -241 2622 53 
L 2622 538 
Q 2228 0 1628 0 
Q 959 0 569 566 
Q 263 1013 263 1678 
Q 263 2513 664 2953 
Q 1066 3394 1663 3394 
Q 2278 3394 2678 2853 
L 2678 3319 
L 3500 3319 
L 3500 341 
Q 3500 -247 3403 -537 
Q 3306 -828 3131 -993 
Q 2956 -1159 2664 -1253 
Q 2372 -1347 1925 -1347 
Q 1081 -1347 728 -1058 
Q 375 -769 375 -325 
Q 375 -281 378 -219 
z
M 1163 1728 
Q 1163 1200 1367 954 
Q 1572 709 1872 709 
Q 2194 709 2416 961 
Q 2638 1213 2638 1706 
Q 2638 2222 2425 2472 
Q 2213 2722 1888 2722 
Q 1572 2722 1367 2476 
Q 1163 2231 1163 1728 
z
" transform="scale(0.015625)"/>
       <path id="Arial-BoldMT-28" d="M 1916 -1347 
L 1313 -1347 
Q 834 -625 584 153 
Q 334 931 334 1659 
Q 334 2563 644 3369 
Q 913 4069 1325 4659 
L 1925 4659 
Q 1497 3713 1336 3048 
Q 1175 2384 1175 1641 
Q 1175 1128 1270 590 
Q 1366 53 1531 -431 
Q 1641 -750 1916 -1347 
z
" transform="scale(0.015625)"/>
       <path id="Arial-BoldMT-b5" d="M 347 3319 
L 1219 3319 
L 1219 1816 
Q 1219 1166 1350 931 
Q 1516 628 1841 628 
Q 2016 628 2172 740 
Q 2328 853 2403 1053 
Q 2478 1253 2478 1806 
L 2478 3319 
L 3366 3319 
L 3366 0 
L 2547 0 
L 2547 400 
Q 2453 225 2368 137 
Q 2284 50 2142 -15 
Q 2000 -81 1881 -81 
Q 1659 -81 1488 41 
Q 1366 131 1219 400 
L 1219 -1272 
L 347 -1272 
L 347 3319 
z
" transform="scale(0.015625)"/>
       <path id="Arial-BoldMT-29" d="M 216 -1347 
Q 475 -791 581 -494 
Q 688 -197 778 190 
Q 869 578 912 926 
Q 956 1275 956 1641 
Q 956 2384 797 3048 
Q 638 3713 209 4659 
L 806 4659 
Q 1278 3988 1539 3234 
Q 1800 2481 1800 1706 
Q 1800 1053 1594 306 
Q 1359 -531 822 -1347 
L 216 -1347 
z
" transform="scale(0.015625)"/>
      </defs>
      <use xlink:href="#Arial-BoldMT-44"/>
      <use xlink:href="#Arial-BoldMT-69" x="72.216797"/>
      <use xlink:href="#Arial-BoldMT-73" x="100"/>
      <use xlink:href="#Arial-BoldMT-74" x="155.615234"/>
      <use xlink:href="#Arial-BoldMT-61" x="188.916016"/>
      <use xlink:href="#Arial-BoldMT-6e" x="244.53125"/>
      <use xlink:href="#Arial-BoldMT-63" x="305.615234"/>
      <use xlink:href="#Arial-BoldMT-65" x="361.230469"/>
      <use xlink:href="#Arial-BoldMT-20" x="416.845703"/>
      <use xlink:href="#Arial-BoldMT-66" x="444.628906"/>
      <use xlink:href="#Arial-BoldMT-72" x="477.929688"/>
      <use xlink:href="#Arial-BoldMT-6f" x="516.845703"/>
      <use xlink:href="#Arial-BoldMT-6d" x="577.929688"/>
      <use xlink:href="#Arial-BoldMT-20" x="666.845703"/>
      <use xlink:href="#Arial-BoldMT-74" x="694.628906"/>
      <use xlink:href="#Arial-BoldMT-68" x="727.929688"/>
      <use xlink:href="#Arial-BoldMT-65" x="789.013672"/>
      <use xlink:href="#Arial-BoldMT-20" x="844.628906"/>
      <use xlink:href="#Arial-BoldMT-65" x="872.412109"/>
      <use xlink:href="#Arial-BoldMT-64" x="928.027344"/>
      <use xlink:href="#Arial-BoldMT-67" x="989.111328"/>
      <use xlink:href="#Arial-BoldMT-65" x="1050.195312"/>
      <use xlink:href="#Arial-BoldMT-20" x="1105.810547"/>
      <use xlink:href="#Arial-BoldMT-28" x="1133.59375"/>
      <use xlink:href="#Arial-BoldMT-b5" x="1166.894531"/>
      <use xlink:href="#Arial-BoldMT-6d" x="1224.511719"/>
      <use xlink:href="#Arial-BoldMT-29" x="1313.427734"/>
     </g>
    </g>
   </g>
   <g id="matplotlib.axis_2">
    <g id="ytick_1">
     <g id="line2d_5">
      <defs>
       <path id="mb675c7709c" d="M 0 0 
L -7 0 
" style="stroke: #000000; stroke-width: 1.25"/>
      </defs>
      <g>
       <use xlink:href="#mb675c7709c" x="53.94375" y="126.792" style="stroke: #000000; stroke-width: 1.25"/>
      </g>
     </g>
     <g id="text_6">
      <!-- 0.0 -->
      <g transform="translate(23.98375 131.802469) scale(0.14 -0.14)">
       <defs>
        <path id="ArialMT-2e" d="M 581 0 
L 581 641 
L 1222 641 
L 1222 0 
L 581 0 
z
" transform="scale(0.015625)"/>
       </defs>
       <use xlink:href="#ArialMT-30"/>
       <use xlink:href="#ArialMT-2e" x="55.615234"/>
       <use xlink:href="#ArialMT-30" x="83.398438"/>
      </g>
     </g>
    </g>
    <g id="ytick_2">
     <g id="line2d_6">
      <g>
       <use xlink:href="#mb675c7709c" x="53.94375" y="69.843429" style="stroke: #000000; stroke-width: 1.25"/>
      </g>
     </g>
     <g id="text_7">
      <!-- 0.5 -->
      <g transform="translate(23.98375 74.853897) scale(0.14 -0.14)">
       <defs>
        <path id="ArialMT-35" d="M 266 1200 
L 856 1250 
Q 922 819 1161 601 
Q 1400 384 1738 384 
Q 2144 384 2425 690 
Q 2706 997 2706 1503 
Q 2706 1984 2436 2262 
Q 2166 2541 1728 2541 
Q 1456 2541 1237 2417 
Q 1019 2294 894 2097 
L 366 2166 
L 809 4519 
L 3088 4519 
L 3088 3981 
L 1259 3981 
L 1013 2750 
Q 1425 3038 1878 3038 
Q 2478 3038 2890 2622 
Q 3303 2206 3303 1553 
Q 3303 931 2941 478 
Q 2500 -78 1738 -78 
Q 1113 -78 717 272 
Q 322 622 266 1200 
z
" transform="scale(0.015625)"/>
       </defs>
       <use xlink:href="#ArialMT-30"/>
       <use xlink:href="#ArialMT-2e" x="55.615234"/>
       <use xlink:href="#ArialMT-35" x="83.398438"/>
      </g>
     </g>
    </g>
    <g id="ytick_3">
     <g id="line2d_7">
      <g>
       <use xlink:href="#mb675c7709c" x="53.94375" y="12.894857" style="stroke: #000000; stroke-width: 1.25"/>
      </g>
     </g>
     <g id="text_8">
      <!-- 1.0 -->
      <g transform="translate(23.98375 17.905326) scale(0.14 -0.14)">
       <use xlink:href="#ArialMT-31"/>
       <use xlink:href="#ArialMT-2e" x="55.615234"/>
       <use xlink:href="#ArialMT-30" x="83.398438"/>
      </g>
     </g>
    </g>
    <g id="ytick_4">
     <g id="line2d_8">
      <defs>
       <path id="m44d14ee6ef" d="M 0 0 
L -4 0 
" style="stroke: #000000; stroke-width: 1.25"/>
      </defs>
      <g>
       <use xlink:href="#m44d14ee6ef" x="53.94375" y="98.317714" style="stroke: #000000; stroke-width: 1.25"/>
      </g>
     </g>
    </g>
    <g id="ytick_5">
     <g id="line2d_9">
      <g>
       <use xlink:href="#m44d14ee6ef" x="53.94375" y="41.369143" style="stroke: #000000; stroke-width: 1.25"/>
      </g>
     </g>
    </g>
    <g id="text_9">
     <!-- Relative abundance -->
     <g transform="translate(17.220938 132.73475) rotate(-90) scale(0.14 -0.14)">
      <defs>
       <path id="Arial-BoldMT-52" d="M 469 0 
L 469 4581 
L 2416 4581 
Q 3150 4581 3483 4457 
Q 3816 4334 4016 4018 
Q 4216 3703 4216 3297 
Q 4216 2781 3912 2445 
Q 3609 2109 3006 2022 
Q 3306 1847 3501 1637 
Q 3697 1428 4028 894 
L 4588 0 
L 3481 0 
L 2813 997 
Q 2456 1531 2325 1670 
Q 2194 1809 2047 1861 
Q 1900 1913 1581 1913 
L 1394 1913 
L 1394 0 
L 469 0 
z
M 1394 2644 
L 2078 2644 
Q 2744 2644 2909 2700 
Q 3075 2756 3169 2893 
Q 3263 3031 3263 3238 
Q 3263 3469 3139 3611 
Q 3016 3753 2791 3791 
Q 2678 3806 2116 3806 
L 1394 3806 
L 1394 2644 
z
" transform="scale(0.015625)"/>
       <path id="Arial-BoldMT-6c" d="M 459 0 
L 459 4581 
L 1338 4581 
L 1338 0 
L 459 0 
z
" transform="scale(0.015625)"/>
       <path id="Arial-BoldMT-76" d="M 1372 0 
L 34 3319 
L 956 3319 
L 1581 1625 
L 1763 1059 
Q 1834 1275 1853 1344 
Q 1897 1484 1947 1625 
L 2578 3319 
L 3481 3319 
L 2163 0 
L 1372 0 
z
" transform="scale(0.015625)"/>
       <path id="Arial-BoldMT-62" d="M 422 0 
L 422 4581 
L 1300 4581 
L 1300 2931 
Q 1706 3394 2263 3394 
Q 2869 3394 3266 2955 
Q 3663 2516 3663 1694 
Q 3663 844 3258 384 
Q 2853 -75 2275 -75 
Q 1991 -75 1714 67 
Q 1438 209 1238 488 
L 1238 0 
L 422 0 
z
M 1294 1731 
Q 1294 1216 1456 969 
Q 1684 619 2063 619 
Q 2353 619 2558 867 
Q 2763 1116 2763 1650 
Q 2763 2219 2556 2470 
Q 2350 2722 2028 2722 
Q 1713 2722 1503 2476 
Q 1294 2231 1294 1731 
z
" transform="scale(0.015625)"/>
       <path id="Arial-BoldMT-75" d="M 2644 0 
L 2644 497 
Q 2463 231 2167 78 
Q 1872 -75 1544 -75 
Q 1209 -75 943 72 
Q 678 219 559 484 
Q 441 750 441 1219 
L 441 3319 
L 1319 3319 
L 1319 1794 
Q 1319 1094 1367 936 
Q 1416 778 1544 686 
Q 1672 594 1869 594 
Q 2094 594 2272 717 
Q 2450 841 2515 1023 
Q 2581 1206 2581 1919 
L 2581 3319 
L 3459 3319 
L 3459 0 
L 2644 0 
z
" transform="scale(0.015625)"/>
      </defs>
      <use xlink:href="#Arial-BoldMT-52"/>
      <use xlink:href="#Arial-BoldMT-65" x="72.216797"/>
      <use xlink:href="#Arial-BoldMT-6c" x="127.832031"/>
      <use xlink:href="#Arial-BoldMT-61" x="155.615234"/>
      <use xlink:href="#Arial-BoldMT-74" x="211.230469"/>
      <use xlink:href="#Arial-BoldMT-69" x="244.53125"/>
      <use xlink:href="#Arial-BoldMT-76" x="272.314453"/>
      <use xlink:href="#Arial-BoldMT-65" x="327.929688"/>
      <use xlink:href="#Arial-BoldMT-20" x="383.544922"/>
      <use xlink:href="#Arial-BoldMT-61" x="411.328125"/>
      <use xlink:href="#Arial-BoldMT-62" x="466.943359"/>
      <use xlink:href="#Arial-BoldMT-75" x="528.027344"/>
      <use xlink:href="#Arial-BoldMT-6e" x="589.111328"/>
      <use xlink:href="#Arial-BoldMT-64" x="650.195312"/>
      <use xlink:href="#Arial-BoldMT-61" x="711.279297"/>
      <use xlink:href="#Arial-BoldMT-6e" x="766.894531"/>
      <use xlink:href="#Arial-BoldMT-63" x="827.978516"/>
      <use xlink:href="#Arial-BoldMT-65" x="883.59375"/>
     </g>
    </g>
   </g>
   <g id="line2d_10">
    <path d="M 260.513189 126.792 
L 258.686186 126.792 
L 256.859184 126.792 
L 255.032181 126.792 
L 253.205179 126.792 
L 251.378176 100.58304 
L 249.551174 90.224503 
L 247.724171 57.988006 
L 245.897169 41.052014 
L 244.070166 31.557088 
L 242.243164 29.326902 
L 240.416161 29.412493 
L 238.589158 27.512236 
L 236.762156 31.425635 
L 234.935153 29.671994 
L 233.108151 33.015583 
L 231.281148 33.984653 
L 229.454146 37.550626 
L 227.627143 31.143923 
L 225.800141 34.090362 
L 223.973138 39.391402 
L 222.146136 31.08332 
L 220.319133 37.642239 
L 218.492131 29.955003 
L 216.665128 26.834632 
L 214.838125 31.836409 
L 213.011123 40.34954 
L 211.18412 50.92547 
L 209.357118 44.887356 
L 207.530115 46.566779 
L 205.703113 47.687857 
L 203.87611 38.951826 
L 202.049108 43.101364 
L 200.222105 45.799218 
L 198.395103 43.182872 
L 196.5681 40.890163 
L 194.741098 47.421473 
L 192.914095 40.328844 
L 191.087093 46.167894 
L 189.26009 44.581924 
L 187.433087 43.657749 
L 185.606085 53.217257 
L 183.779082 59.118775 
L 181.95208 54.654258 
L 180.125077 60.146162 
L 178.298075 52.984318 
L 176.471072 46.409995 
L 174.64407 49.005078 
L 172.817067 52.985985 
L 170.990065 54.294367 
L 169.163062 52.727863 
L 167.33606 58.15698 
L 165.509057 53.962383 
L 163.682054 48.190795 
L 161.855052 48.475085 
L 160.028049 56.812554 
L 158.201047 60.484833 
L 156.374044 59.406639 
L 154.547042 54.575814 
L 152.720039 64.779792 
L 150.893037 56.728559 
L 149.066034 63.93928 
L 147.239032 57.967429 
L 145.412029 65.185954 
L 143.585027 68.20858 
L 141.758024 58.70421 
L 139.931021 58.581211 
L 138.104019 53.532063 
L 136.277016 56.066336 
L 134.450014 62.164295 
L 132.623011 60.800868 
L 130.796009 63.313444 
L 128.969006 61.267751 
L 127.142004 63.91029 
L 125.315001 63.352887 
L 123.487999 58.329156 
L 121.660996 60.123804 
L 119.833994 64.989732 
L 118.006991 62.238429 
L 116.179989 61.374231 
L 114.352986 63.52066 
L 112.525983 63.204697 
L 110.698981 67.534066 
L 108.871978 60.656792 
L 107.044976 67.907192 
L 105.217973 69.927197 
L 103.390971 67.776087 
L 101.563968 65.786818 
L 99.736966 70.106721 
L 97.909963 64.212739 
L 96.082961 65.688803 
L 94.255958 63.104622 
L 92.428956 64.958966 
L 90.601953 78.944013 
L 88.77495 84.230105 
L 86.947948 77.187547 
L 85.120945 79.453694 
L 83.293943 82.533186 
L 81.46694 76.66143 
L 79.639938 76.769706 
L 77.812935 76.496617 
L 75.985933 71.447502 
L 74.15893 67.290179 
L 72.331928 69.638444 
L 70.504925 76.670373 
L 68.677923 70.346542 
L 66.85092 69.409056 
L 65.023917 73.793618 
L 63.196915 69.969491 
L 61.369912 64.794562 
L 59.54291 54.972306 
L 57.715907 49.079338 
L 55.888905 36.323801 
L 54.061902 58.111534 
" clip-path="url(#p8a2badbdc4)" style="fill: none; stroke: #ff00ff; stroke-opacity: 0.5; stroke-width: 0.5; stroke-linecap: square"/>
   </g>
   <g id="line2d_11">
    <path d="M 260.513189 126.792 
L 258.686186 126.792 
L 256.859184 126.792 
L 255.032181 126.792 
L 253.205179 126.792 
L 251.378176 50.747578 
L 249.551174 41.288722 
L 247.724171 37.01028 
L 245.897169 29.961249 
L 244.070166 32.240742 
L 242.243164 31.235945 
L 240.416161 33.4144 
L 238.589158 32.401415 
L 236.762156 31.384653 
L 234.935153 35.082612 
L 233.108151 35.358326 
L 231.281148 31.584225 
L 229.454146 37.002254 
L 227.627143 33.193161 
L 225.800141 38.182354 
L 223.973138 38.62193 
L 222.146136 37.411089 
L 220.319133 36.138793 
L 218.492131 32.495019 
L 216.665128 32.453344 
L 214.838125 37.140565 
L 213.011123 36.319494 
L 211.18412 38.531531 
L 209.357118 33.931415 
L 207.530115 32.973361 
L 205.703113 33.88093 
L 203.87611 34.482613 
L 202.049108 35.502072 
L 200.222105 33.665542 
L 198.395103 39.678346 
L 196.5681 39.313136 
L 194.741098 43.678945 
L 192.914095 39.615772 
L 191.087093 38.73896 
L 189.26009 37.85158 
L 187.433087 36.010658 
L 185.606085 41.009348 
L 183.779082 43.057059 
L 181.95208 41.450659 
L 180.125077 45.233689 
L 178.298075 45.98853 
L 176.471072 46.160955 
L 174.64407 46.55095 
L 172.817067 48.184182 
L 170.990065 44.372944 
L 169.163062 42.600689 
L 167.33606 42.720186 
L 165.509057 43.280942 
L 163.682054 45.410934 
L 161.855052 48.962706 
L 160.028049 46.905058 
L 158.201047 49.371669 
L 156.374044 50.393633 
L 154.547042 54.196702 
L 152.720039 49.756655 
L 150.893037 52.66946 
L 149.066034 54.242404 
L 147.239032 54.038534 
L 145.412029 48.86273 
L 143.585027 53.483847 
L 141.758024 54.955497 
L 139.931021 55.192336 
L 138.104019 56.551724 
L 136.277016 56.126938 
L 134.450014 55.621962 
L 132.623011 60.248938 
L 130.796009 56.946522 
L 128.969006 59.822358 
L 127.142004 66.390671 
L 125.315001 61.505406 
L 123.487999 63.072352 
L 121.660996 64.092562 
L 119.833994 60.862359 
L 118.006991 60.483984 
L 116.179989 60.674408 
L 114.352986 60.004583 
L 112.525983 59.057412 
L 110.698981 60.931103 
L 108.871978 60.510821 
L 107.044976 62.856697 
L 105.217973 61.904555 
L 103.390971 66.820279 
L 101.563968 65.206024 
L 99.736966 66.105298 
L 97.909963 68.896854 
L 96.082961 64.724842 
L 94.255958 64.231639 
L 92.428956 66.883977 
L 90.601953 68.062589 
L 88.77495 68.172455 
L 86.947948 68.48286 
L 85.120945 70.747685 
L 83.293943 69.47524 
L 81.46694 70.086089 
L 79.639938 71.169535 
L 77.812935 69.228898 
L 75.985933 65.553398 
L 74.15893 65.981923 
L 72.331928 65.184124 
L 70.504925 66.085263 
L 68.677923 66.271983 
L 66.85092 66.89565 
L 65.023917 68.199006 
L 63.196915 73.057922 
L 61.369912 69.482233 
L 59.54291 65.827 
L 57.715907 68.030525 
L 55.888905 70.458864 
L 54.061902 75.035832 
" clip-path="url(#p8a2badbdc4)" style="fill: none; stroke: #ff00ff; stroke-opacity: 0.5; stroke-width: 0.5; stroke-linecap: square"/>
   </g>
   <g id="line2d_12">
    <path d="M 260.513189 126.792 
L 258.686186 126.792 
L 256.859184 126.792 
L 255.032181 126.792 
L 253.205179 126.792 
L 251.378176 81.998626 
L 249.551174 67.866507 
L 247.724171 46.10904 
L 245.897169 36.932062 
L 244.070166 31.641902 
L 242.243164 28.406845 
L 240.416161 27.283159 
L 238.589158 27.649061 
L 236.762156 29.537662 
L 234.935153 26.936971 
L 233.108151 26.379508 
L 231.281148 26.076443 
L 229.454146 22.611201 
L 227.627143 23.276777 
L 225.800141 25.342972 
L 223.973138 31.924302 
L 222.146136 27.420073 
L 220.319133 28.576964 
L 218.492131 29.114387 
L 216.665128 37.423407 
L 214.838125 36.153031 
L 213.011123 39.984283 
L 211.18412 39.726237 
L 209.357118 34.501948 
L 207.530115 33.868373 
L 205.703113 33.928803 
L 203.87611 32.355667 
L 202.049108 40.211785 
L 200.222105 32.68066 
L 198.395103 31.40835 
L 196.5681 31.793346 
L 194.741098 33.153181 
L 192.914095 44.160169 
L 191.087093 42.207583 
L 189.26009 44.954307 
L 187.433087 47.252705 
L 185.606085 41.083791 
L 183.779082 45.044122 
L 181.95208 45.398493 
L 180.125077 44.533625 
L 178.298075 42.069059 
L 176.471072 38.423309 
L 174.64407 41.221377 
L 172.817067 44.240499 
L 170.990065 44.036506 
L 169.163062 46.899945 
L 167.33606 47.443315 
L 165.509057 50.778359 
L 163.682054 53.533864 
L 161.855052 57.029767 
L 160.028049 60.631357 
L 158.201047 56.122364 
L 156.374044 53.16788 
L 154.547042 49.743197 
L 152.720039 53.081616 
L 150.893037 50.752615 
L 149.066034 55.569612 
L 147.239032 54.077576 
L 145.412029 53.131762 
L 143.585027 56.448776 
L 141.758024 55.27412 
L 139.931021 58.839503 
L 138.104019 55.855007 
L 136.277016 54.762939 
L 134.450014 59.578322 
L 132.623011 59.47555 
L 130.796009 62.079754 
L 128.969006 59.161676 
L 127.142004 60.893623 
L 125.315001 61.558122 
L 123.487999 69.040719 
L 121.660996 65.140569 
L 119.833994 69.381574 
L 118.006991 70.481453 
L 116.179989 70.707497 
L 114.352986 68.432914 
L 112.525983 65.983728 
L 110.698981 70.1049 
L 108.871978 72.328599 
L 107.044976 73.972228 
L 105.217973 75.357037 
L 103.390971 72.49898 
L 101.563968 71.271946 
L 99.736966 72.323053 
L 97.909963 73.188736 
L 96.082961 74.192694 
L 94.255958 70.174103 
L 92.428956 72.27233 
L 90.601953 75.180919 
L 88.77495 76.052701 
L 86.947948 71.276372 
L 85.120945 78.099766 
L 83.293943 81.718336 
L 81.46694 80.573116 
L 79.639938 76.659605 
L 77.812935 77.487154 
L 75.985933 80.76057 
L 74.15893 85.077684 
L 72.331928 79.024472 
L 70.504925 78.994057 
L 68.677923 73.737567 
L 66.85092 78.585341 
L 65.023917 74.919039 
L 63.196915 76.981915 
L 61.369912 78.570453 
L 59.54291 79.985698 
L 57.715907 79.783523 
L 55.888905 81.937182 
L 54.061902 93.957665 
" clip-path="url(#p8a2badbdc4)" style="fill: none; stroke: #ff00ff; stroke-opacity: 0.5; stroke-width: 0.5; stroke-linecap: square"/>
   </g>
   <g id="line2d_13">
    <path d="M 260.513189 126.792 
L 258.686186 126.792 
L 256.859184 126.792 
L 255.032181 126.792 
L 253.205179 126.792 
L 251.378176 39.103817 
L 249.551174 49.462354 
L 247.724171 81.698852 
L 245.897169 98.634843 
L 244.070166 108.129769 
L 242.243164 110.359955 
L 240.416161 110.274364 
L 238.589158 112.174622 
L 236.762156 108.261222 
L 234.935153 110.014863 
L 233.108151 106.671274 
L 231.281148 105.702204 
L 229.454146 102.136231 
L 227.627143 108.542934 
L 225.800141 105.596495 
L 223.973138 100.295455 
L 222.146136 108.603538 
L 220.319133 102.044618 
L 218.492131 109.731854 
L 216.665128 112.852225 
L 214.838125 107.850448 
L 213.011123 99.337318 
L 211.18412 88.761387 
L 209.357118 94.799501 
L 207.530115 93.120078 
L 205.703113 91.999 
L 203.87611 100.735032 
L 202.049108 96.585493 
L 200.222105 93.887639 
L 198.395103 96.503985 
L 196.5681 98.796694 
L 194.741098 92.265385 
L 192.914095 99.358013 
L 191.087093 93.518963 
L 189.26009 95.104933 
L 187.433087 96.029108 
L 185.606085 86.4696 
L 183.779082 80.568082 
L 181.95208 85.032599 
L 180.125077 79.540695 
L 178.298075 86.702539 
L 176.471072 93.276862 
L 174.64407 90.681779 
L 172.817067 86.700873 
L 170.990065 85.39249 
L 169.163062 86.958994 
L 167.33606 81.529877 
L 165.509057 85.724474 
L 163.682054 91.496063 
L 161.855052 91.211772 
L 160.028049 82.874303 
L 158.201047 79.202024 
L 156.374044 80.280219 
L 154.547042 85.111043 
L 152.720039 74.907065 
L 150.893037 82.958298 
L 149.066034 75.747578 
L 147.239032 81.719428 
L 145.412029 74.500903 
L 143.585027 71.478278 
L 141.758024 80.982647 
L 139.931021 81.105646 
L 138.104019 86.154794 
L 136.277016 83.620521 
L 134.450014 77.522562 
L 132.623011 78.885989 
L 130.796009 76.373413 
L 128.969006 78.419106 
L 127.142004 75.776567 
L 125.315001 76.33397 
L 123.487999 81.357702 
L 121.660996 79.563053 
L 119.833994 74.697125 
L 118.006991 77.448428 
L 116.179989 78.312626 
L 114.352986 76.166197 
L 112.525983 76.48216 
L 110.698981 72.152791 
L 108.871978 79.030065 
L 107.044976 71.779665 
L 105.217973 69.75966 
L 103.390971 71.91077 
L 101.563968 73.900039 
L 99.736966 69.580136 
L 97.909963 75.474118 
L 96.082961 73.998054 
L 94.255958 76.582235 
L 92.428956 74.727891 
L 90.601953 60.742845 
L 88.77495 55.456752 
L 86.947948 62.49931 
L 85.120945 60.233163 
L 83.293943 57.153671 
L 81.46694 63.025428 
L 79.639938 62.917151 
L 77.812935 63.19024 
L 75.985933 68.239355 
L 74.15893 72.396678 
L 72.331928 70.048414 
L 70.504925 63.016484 
L 68.677923 69.340315 
L 66.85092 70.277801 
L 65.023917 65.893239 
L 63.196915 69.717366 
L 61.369912 74.892295 
L 59.54291 84.714551 
L 57.715907 90.607519 
L 55.888905 103.363056 
L 54.061902 81.575323 
" clip-path="url(#p8a2badbdc4)" style="fill: none; stroke: #00bfff; stroke-opacity: 0.5; stroke-width: 0.5; stroke-linecap: square"/>
   </g>
   <g id="line2d_14">
    <path d="M 260.513189 126.792 
L 258.686186 126.792 
L 256.859184 126.792 
L 255.032181 126.792 
L 253.205179 126.792 
L 251.378176 88.939279 
L 249.551174 98.398135 
L 247.724171 102.676577 
L 245.897169 109.725608 
L 244.070166 107.446115 
L 242.243164 108.450912 
L 240.416161 106.272457 
L 238.589158 107.285442 
L 236.762156 108.302204 
L 234.935153 104.604245 
L 233.108151 104.328532 
L 231.281148 108.102632 
L 229.454146 102.684603 
L 227.627143 106.493696 
L 225.800141 101.504503 
L 223.973138 101.064927 
L 222.146136 102.275768 
L 220.319133 103.548064 
L 218.492131 107.191838 
L 216.665128 107.233513 
L 214.838125 102.546292 
L 213.011123 103.367363 
L 211.18412 101.155326 
L 209.357118 105.755442 
L 207.530115 106.713496 
L 205.703113 105.805927 
L 203.87611 105.204245 
L 202.049108 104.184785 
L 200.222105 106.021315 
L 198.395103 100.008511 
L 196.5681 100.373721 
L 194.741098 96.007912 
L 192.914095 100.071085 
L 191.087093 100.947897 
L 189.26009 101.835277 
L 187.433087 103.676199 
L 185.606085 98.677509 
L 183.779082 96.629798 
L 181.95208 98.236198 
L 180.125077 94.453168 
L 178.298075 93.698327 
L 176.471072 93.525902 
L 174.64407 93.135907 
L 172.817067 91.502675 
L 170.990065 95.313914 
L 169.163062 97.086168 
L 167.33606 96.966671 
L 165.509057 96.405915 
L 163.682054 94.275923 
L 161.855052 90.724152 
L 160.028049 92.781799 
L 158.201047 90.315188 
L 156.374044 89.293224 
L 154.547042 85.490155 
L 152.720039 89.930202 
L 150.893037 87.017397 
L 149.066034 85.444453 
L 147.239032 85.648323 
L 145.412029 90.824127 
L 143.585027 86.20301 
L 141.758024 84.73136 
L 139.931021 84.494521 
L 138.104019 83.135133 
L 136.277016 83.559919 
L 134.450014 84.064895 
L 132.623011 79.437919 
L 130.796009 82.740335 
L 128.969006 79.864499 
L 127.142004 73.296186 
L 125.315001 78.181451 
L 123.487999 76.614505 
L 121.660996 75.594295 
L 119.833994 78.824498 
L 118.006991 79.202873 
L 116.179989 79.012449 
L 114.352986 79.682274 
L 112.525983 80.629446 
L 110.698981 78.755755 
L 108.871978 79.176036 
L 107.044976 76.83016 
L 105.217973 77.782302 
L 103.390971 72.866578 
L 101.563968 74.480833 
L 99.736966 73.581559 
L 97.909963 70.790003 
L 96.082961 74.962015 
L 94.255958 75.455219 
L 92.428956 72.80288 
L 90.601953 71.624268 
L 88.77495 71.514402 
L 86.947948 71.203997 
L 85.120945 68.939172 
L 83.293943 70.211617 
L 81.46694 69.600768 
L 79.639938 68.517322 
L 77.812935 70.457959 
L 75.985933 74.133459 
L 74.15893 73.704934 
L 72.331928 74.502733 
L 70.504925 73.601594 
L 68.677923 73.414874 
L 66.85092 72.791207 
L 65.023917 71.487851 
L 63.196915 66.628935 
L 61.369912 70.204625 
L 59.54291 73.859857 
L 57.715907 71.656332 
L 55.888905 69.227993 
L 54.061902 64.651025 
" clip-path="url(#p8a2badbdc4)" style="fill: none; stroke: #00bfff; stroke-opacity: 0.5; stroke-width: 0.5; stroke-linecap: square"/>
   </g>
   <g id="line2d_15">
    <path d="M 260.513189 126.792 
L 258.686186 126.792 
L 256.859184 126.792 
L 255.032181 126.792 
L 253.205179 126.792 
L 251.378176 57.688231 
L 249.551174 71.82035 
L 247.724171 93.577817 
L 245.897169 102.754795 
L 244.070166 108.044955 
L 242.243164 111.280012 
L 240.416161 112.403698 
L 238.589158 112.037796 
L 236.762156 110.149196 
L 234.935153 112.749886 
L 233.108151 113.307349 
L 231.281148 113.610414 
L 229.454146 117.075656 
L 227.627143 116.41008 
L 225.800141 114.343885 
L 223.973138 107.762555 
L 222.146136 112.266784 
L 220.319133 111.109893 
L 218.492131 110.57247 
L 216.665128 102.26345 
L 214.838125 103.533827 
L 213.011123 99.702574 
L 211.18412 99.96062 
L 209.357118 105.184909 
L 207.530115 105.818484 
L 205.703113 105.758054 
L 203.87611 107.33119 
L 202.049108 99.475072 
L 200.222105 107.006197 
L 198.395103 108.278507 
L 196.5681 107.893511 
L 194.741098 106.533676 
L 192.914095 95.526688 
L 191.087093 97.479275 
L 189.26009 94.73255 
L 187.433087 92.434152 
L 185.606085 98.603066 
L 183.779082 94.642735 
L 181.95208 94.288364 
L 180.125077 95.153232 
L 178.298075 97.617798 
L 176.471072 101.263548 
L 174.64407 98.465481 
L 172.817067 95.446358 
L 170.990065 95.650351 
L 169.163062 92.786913 
L 167.33606 92.243542 
L 165.509057 88.908498 
L 163.682054 86.152993 
L 161.855052 82.65709 
L 160.028049 79.0555 
L 158.201047 83.564493 
L 156.374044 86.518977 
L 154.547042 89.94366 
L 152.720039 86.605242 
L 150.893037 88.934242 
L 149.066034 84.117245 
L 147.239032 85.609281 
L 145.412029 86.555095 
L 143.585027 83.238081 
L 141.758024 84.412737 
L 139.931021 80.847354 
L 138.104019 83.83185 
L 136.277016 84.923918 
L 134.450014 80.108536 
L 132.623011 80.211307 
L 130.796009 77.607103 
L 128.969006 80.525181 
L 127.142004 78.793235 
L 125.315001 78.128735 
L 123.487999 70.646138 
L 121.660996 74.546288 
L 119.833994 70.305284 
L 118.006991 69.205404 
L 116.179989 68.97936 
L 114.352986 71.253943 
L 112.525983 73.703129 
L 110.698981 69.581957 
L 108.871978 67.358258 
L 107.044976 65.714629 
L 105.217973 64.32982 
L 103.390971 67.187877 
L 101.563968 68.414911 
L 99.736966 67.363805 
L 97.909963 66.498121 
L 96.082961 65.494163 
L 94.255958 69.512754 
L 92.428956 67.414527 
L 90.601953 64.505938 
L 88.77495 63.634157 
L 86.947948 68.410485 
L 85.120945 61.587091 
L 83.293943 57.968521 
L 81.46694 59.113741 
L 79.639938 63.027252 
L 77.812935 62.199703 
L 75.985933 58.926287 
L 74.15893 54.609173 
L 72.331928 60.662385 
L 70.504925 60.692801 
L 68.677923 65.94929 
L 66.85092 61.101516 
L 65.023917 64.767818 
L 63.196915 62.704942 
L 61.369912 61.116405 
L 59.54291 59.701159 
L 57.715907 59.903334 
L 55.888905 57.749675 
L 54.061902 45.729192 
" clip-path="url(#p8a2badbdc4)" style="fill: none; stroke: #00bfff; stroke-opacity: 0.5; stroke-width: 0.5; stroke-linecap: square"/>
   </g>
   <g id="line2d_16">
    <path d="M 260.513189 126.792 
L 258.686186 126.792 
L 256.859184 126.792 
L 255.032181 126.792 
L 253.205179 126.792 
L 251.378176 77.776415 
L 249.551174 66.459911 
L 247.724171 47.035775 
L 245.897169 35.981775 
L 244.070166 31.813244 
L 242.243164 29.656564 
L 240.416161 30.036684 
L 238.589158 29.18757 
L 236.762156 30.78265 
L 234.935153 30.563859 
L 233.108151 31.584472 
L 231.281148 30.548441 
L 229.454146 32.388027 
L 227.627143 29.20462 
L 225.800141 32.538563 
L 223.973138 36.645878 
L 222.146136 31.971494 
L 220.319133 34.119332 
L 218.492131 30.52147 
L 216.665128 32.237128 
L 214.838125 35.043335 
L 213.011123 38.884439 
L 211.18412 43.061079 
L 209.357118 37.773573 
L 207.530115 37.802838 
L 205.703113 38.499197 
L 203.87611 35.263369 
L 202.049108 39.605074 
L 200.222105 37.381807 
L 198.395103 38.089856 
L 196.5681 37.332215 
L 194.741098 41.417866 
L 192.914095 41.368262 
L 191.087093 42.371479 
L 189.26009 42.462604 
L 187.433087 42.307037 
L 185.606085 45.103465 
L 183.779082 49.073319 
L 181.95208 47.167803 
L 180.125077 49.971159 
L 178.298075 47.013969 
L 176.471072 43.664753 
L 174.64407 45.592468 
L 172.817067 48.470222 
L 170.990065 47.567939 
L 169.163062 47.409499 
L 167.33606 49.44016 
L 165.509057 49.340561 
L 163.682054 49.045198 
L 161.855052 51.489186 
L 160.028049 54.78299 
L 158.201047 55.326289 
L 156.374044 54.322717 
L 154.547042 52.838571 
L 152.720039 55.872687 
L 150.893037 53.383545 
L 149.066034 57.917098 
L 147.239032 55.36118 
L 145.412029 55.726815 
L 143.585027 59.380401 
L 141.758024 56.311276 
L 139.931021 57.537683 
L 138.104019 55.312931 
L 136.277016 55.652071 
L 134.450014 59.121526 
L 132.623011 60.175119 
L 130.796009 60.779907 
L 128.969006 60.083928 
L 127.142004 63.731528 
L 125.315001 62.138805 
L 123.487999 63.480742 
L 121.660996 63.118979 
L 119.833994 65.077888 
L 118.006991 64.401289 
L 116.179989 64.252045 
L 114.352986 63.986053 
L 112.525983 62.748612 
L 110.698981 66.190023 
L 108.871978 64.498737 
L 107.044976 68.245372 
L 105.217973 69.06293 
L 103.390971 69.031782 
L 101.563968 67.421596 
L 99.736966 69.51169 
L 97.909963 68.76611 
L 96.082961 68.202113 
L 94.255958 65.836788 
L 92.428956 68.038424 
L 90.601953 74.062507 
L 88.77495 76.151754 
L 86.947948 72.315593 
L 85.120945 76.100382 
L 83.293943 77.908921 
L 81.46694 75.773545 
L 79.639938 74.866282 
L 77.812935 74.404223 
L 75.985933 72.587157 
L 74.15893 72.783262 
L 72.331928 71.282347 
L 70.504925 73.916564 
L 68.677923 70.118697 
L 66.85092 71.630016 
L 65.023917 72.303888 
L 63.196915 73.336443 
L 61.369912 70.949082 
L 59.54291 66.928335 
L 57.715907 65.631129 
L 55.888905 62.906616 
L 54.061902 75.701677 
" clip-path="url(#p8a2badbdc4)" style="fill: none; stroke: #ff00ff; stroke-width: 3; stroke-linecap: square"/>
   </g>
   <g id="line2d_17">
    <path d="M 260.513189 126.792 
L 258.686186 126.792 
L 256.859184 126.792 
L 255.032181 126.792 
L 253.205179 126.792 
L 251.378176 61.910442 
L 249.551174 73.226946 
L 247.724171 92.651082 
L 245.897169 103.705082 
L 244.070166 107.873613 
L 242.243164 110.030293 
L 240.416161 109.650173 
L 238.589158 110.499287 
L 236.762156 108.904207 
L 234.935153 109.122998 
L 233.108151 108.102385 
L 231.281148 109.138416 
L 229.454146 107.29883 
L 227.627143 110.482237 
L 225.800141 107.148295 
L 223.973138 103.040979 
L 222.146136 107.715363 
L 220.319133 105.567525 
L 218.492131 109.165387 
L 216.665128 107.449729 
L 214.838125 104.643522 
L 213.011123 100.802418 
L 211.18412 96.625778 
L 209.357118 101.913284 
L 207.530115 101.88402 
L 205.703113 101.18766 
L 203.87611 104.423489 
L 202.049108 100.081783 
L 200.222105 102.30505 
L 198.395103 101.597001 
L 196.5681 102.354642 
L 194.741098 98.268991 
L 192.914095 98.318596 
L 191.087093 97.315378 
L 189.26009 97.224254 
L 187.433087 97.37982 
L 185.606085 94.583392 
L 183.779082 90.613538 
L 181.95208 92.519054 
L 180.125077 89.715699 
L 178.298075 92.672888 
L 176.471072 96.022104 
L 174.64407 94.094389 
L 172.817067 91.216635 
L 170.990065 92.118918 
L 169.163062 92.277358 
L 167.33606 90.246697 
L 165.509057 90.346296 
L 163.682054 90.64166 
L 161.855052 88.197671 
L 160.028049 84.903867 
L 158.201047 84.360568 
L 156.374044 85.36414 
L 154.547042 86.848286 
L 152.720039 83.81417 
L 150.893037 86.303312 
L 149.066034 81.769759 
L 147.239032 84.325677 
L 145.412029 83.960042 
L 143.585027 80.306456 
L 141.758024 83.375582 
L 139.931021 82.149174 
L 138.104019 84.373926 
L 136.277016 84.034786 
L 134.450014 80.565331 
L 132.623011 79.511738 
L 130.796009 78.90695 
L 128.969006 79.602929 
L 127.142004 75.955329 
L 125.315001 77.548052 
L 123.487999 76.206115 
L 121.660996 76.567878 
L 119.833994 74.608969 
L 118.006991 75.285568 
L 116.179989 75.434812 
L 114.352986 75.700805 
L 112.525983 76.938245 
L 110.698981 73.496834 
L 108.871978 75.18812 
L 107.044976 71.441485 
L 105.217973 70.623927 
L 103.390971 70.655075 
L 101.563968 72.265261 
L 99.736966 70.175167 
L 97.909963 70.920748 
L 96.082961 71.484744 
L 94.255958 73.850069 
L 92.428956 71.648433 
L 90.601953 65.62435 
L 88.77495 63.535104 
L 86.947948 67.371264 
L 85.120945 63.586476 
L 83.293943 61.777936 
L 81.46694 63.913312 
L 79.639938 64.820575 
L 77.812935 65.282634 
L 75.985933 67.0997 
L 74.15893 66.903595 
L 72.331928 68.404511 
L 70.504925 65.770293 
L 68.677923 69.56816 
L 66.85092 68.056841 
L 65.023917 67.382969 
L 63.196915 66.350415 
L 61.369912 68.737775 
L 59.54291 72.758522 
L 57.715907 74.055729 
L 55.888905 76.780241 
L 54.061902 63.98518 
" clip-path="url(#p8a2badbdc4)" style="fill: none; stroke: #00bfff; stroke-width: 3; stroke-linecap: square"/>
   </g>
   <g id="line2d_18">
    <path d="M 260.513189 126.792 
L 258.686186 126.792 
L 256.859184 126.792 
L 255.032181 126.792 
L 253.205179 126.792 
L 251.378176 39.103817 
L 249.551174 49.462354 
L 247.724171 81.698852 
L 245.897169 98.634843 
L 244.070166 108.129769 
L 242.243164 110.359955 
L 240.416161 110.274364 
L 238.589158 112.174622 
L 236.762156 108.261222 
L 234.935153 110.014863 
L 233.108151 106.671274 
L 231.281148 105.702204 
L 229.454146 102.136231 
L 227.627143 108.542934 
L 225.800141 105.596495 
L 223.973138 100.295455 
L 222.146136 108.603538 
L 220.319133 102.044618 
L 218.492131 109.731854 
L 216.665128 112.852225 
L 214.838125 107.850448 
L 213.011123 99.337318 
L 211.18412 88.761387 
L 209.357118 94.799501 
L 207.530115 93.120078 
L 205.703113 91.999 
L 203.87611 100.735032 
L 202.049108 96.585493 
L 200.222105 93.887639 
L 198.395103 96.503985 
L 196.5681 98.796694 
L 194.741098 92.265385 
L 192.914095 99.358013 
L 191.087093 93.518963 
L 189.26009 95.104933 
L 187.433087 96.029108 
L 185.606085 86.4696 
L 183.779082 80.568082 
L 181.95208 85.032599 
L 180.125077 79.540695 
L 178.298075 86.702539 
L 176.471072 93.276862 
L 174.64407 90.681779 
L 172.817067 86.700873 
L 170.990065 85.39249 
L 169.163062 86.958994 
L 167.33606 81.529877 
L 165.509057 85.724474 
L 163.682054 91.496063 
L 161.855052 91.211772 
L 160.028049 82.874303 
L 158.201047 79.202024 
L 156.374044 80.280219 
L 154.547042 85.111043 
L 152.720039 74.907065 
L 150.893037 82.958298 
L 149.066034 75.747578 
L 147.239032 81.719428 
L 145.412029 74.500903 
L 143.585027 71.478278 
L 141.758024 80.982647 
L 139.931021 81.105646 
L 138.104019 86.154794 
L 136.277016 83.620521 
L 134.450014 77.522562 
L 132.623011 78.885989 
L 130.796009 76.373413 
L 128.969006 78.419106 
L 127.142004 75.776567 
L 125.315001 76.33397 
L 123.487999 81.357702 
L 121.660996 79.563053 
L 119.833994 74.697125 
L 118.006991 77.448428 
L 116.179989 78.312626 
L 114.352986 76.166197 
L 112.525983 76.48216 
L 110.698981 72.152791 
L 108.871978 79.030065 
L 107.044976 71.779665 
L 105.217973 69.75966 
L 103.390971 71.91077 
L 101.563968 73.900039 
L 99.736966 69.580136 
L 97.909963 75.474118 
L 96.082961 73.998054 
L 94.255958 76.582235 
L 92.428956 74.727891 
L 90.601953 60.742845 
L 88.77495 55.456752 
L 86.947948 62.49931 
L 85.120945 60.233163 
L 83.293943 57.153671 
L 81.46694 63.025428 
L 79.639938 62.917151 
L 77.812935 63.19024 
L 75.985933 68.239355 
L 74.15893 72.396678 
L 72.331928 70.048414 
L 70.504925 63.016484 
L 68.677923 69.340315 
L 66.85092 70.277801 
L 65.023917 65.893239 
L 63.196915 69.717366 
L 61.369912 74.892295 
L 59.54291 84.714551 
L 57.715907 90.607519 
L 55.888905 103.363056 
L 54.061902 81.575323 
" clip-path="url(#p8a2badbdc4)" style="fill: none; stroke: #00bfff; stroke-opacity: 0.5; stroke-width: 0.5; stroke-linecap: square"/>
   </g>
   <g id="line2d_19">
    <path d="M 260.513189 126.792 
L 258.686186 126.792 
L 256.859184 126.792 
L 255.032181 126.792 
L 253.205179 126.792 
L 251.378176 88.939279 
L 249.551174 98.398135 
L 247.724171 102.676577 
L 245.897169 109.725608 
L 244.070166 107.446115 
L 242.243164 108.450912 
L 240.416161 106.272457 
L 238.589158 107.285442 
L 236.762156 108.302204 
L 234.935153 104.604245 
L 233.108151 104.328532 
L 231.281148 108.102632 
L 229.454146 102.684603 
L 227.627143 106.493696 
L 225.800141 101.504503 
L 223.973138 101.064927 
L 222.146136 102.275768 
L 220.319133 103.548064 
L 218.492131 107.191838 
L 216.665128 107.233513 
L 214.838125 102.546292 
L 213.011123 103.367363 
L 211.18412 101.155326 
L 209.357118 105.755442 
L 207.530115 106.713496 
L 205.703113 105.805927 
L 203.87611 105.204245 
L 202.049108 104.184785 
L 200.222105 106.021315 
L 198.395103 100.008511 
L 196.5681 100.373721 
L 194.741098 96.007912 
L 192.914095 100.071085 
L 191.087093 100.947897 
L 189.26009 101.835277 
L 187.433087 103.676199 
L 185.606085 98.677509 
L 183.779082 96.629798 
L 181.95208 98.236198 
L 180.125077 94.453168 
L 178.298075 93.698327 
L 176.471072 93.525902 
L 174.64407 93.135907 
L 172.817067 91.502675 
L 170.990065 95.313914 
L 169.163062 97.086168 
L 167.33606 96.966671 
L 165.509057 96.405915 
L 163.682054 94.275923 
L 161.855052 90.724152 
L 160.028049 92.781799 
L 158.201047 90.315188 
L 156.374044 89.293224 
L 154.547042 85.490155 
L 152.720039 89.930202 
L 150.893037 87.017397 
L 149.066034 85.444453 
L 147.239032 85.648323 
L 145.412029 90.824127 
L 143.585027 86.20301 
L 141.758024 84.73136 
L 139.931021 84.494521 
L 138.104019 83.135133 
L 136.277016 83.559919 
L 134.450014 84.064895 
L 132.623011 79.437919 
L 130.796009 82.740335 
L 128.969006 79.864499 
L 127.142004 73.296186 
L 125.315001 78.181451 
L 123.487999 76.614505 
L 121.660996 75.594295 
L 119.833994 78.824498 
L 118.006991 79.202873 
L 116.179989 79.012449 
L 114.352986 79.682274 
L 112.525983 80.629446 
L 110.698981 78.755755 
L 108.871978 79.176036 
L 107.044976 76.83016 
L 105.217973 77.782302 
L 103.390971 72.866578 
L 101.563968 74.480833 
L 99.736966 73.581559 
L 97.909963 70.790003 
L 96.082961 74.962015 
L 94.255958 75.455219 
L 92.428956 72.80288 
L 90.601953 71.624268 
L 88.77495 71.514402 
L 86.947948 71.203997 
L 85.120945 68.939172 
L 83.293943 70.211617 
L 81.46694 69.600768 
L 79.639938 68.517322 
L 77.812935 70.457959 
L 75.985933 74.133459 
L 74.15893 73.704934 
L 72.331928 74.502733 
L 70.504925 73.601594 
L 68.677923 73.414874 
L 66.85092 72.791207 
L 65.023917 71.487851 
L 63.196915 66.628935 
L 61.369912 70.204625 
L 59.54291 73.859857 
L 57.715907 71.656332 
L 55.888905 69.227993 
L 54.061902 64.651025 
" clip-path="url(#p8a2badbdc4)" style="fill: none; stroke: #00bfff; stroke-opacity: 0.5; stroke-width: 0.5; stroke-linecap: square"/>
   </g>
   <g id="line2d_20">
    <path d="M 260.513189 126.792 
L 258.686186 126.792 
L 256.859184 126.792 
L 255.032181 126.792 
L 253.205179 126.792 
L 251.378176 57.688231 
L 249.551174 71.82035 
L 247.724171 93.577817 
L 245.897169 102.754795 
L 244.070166 108.044955 
L 242.243164 111.280012 
L 240.416161 112.403698 
L 238.589158 112.037796 
L 236.762156 110.149196 
L 234.935153 112.749886 
L 233.108151 113.307349 
L 231.281148 113.610414 
L 229.454146 117.075656 
L 227.627143 116.41008 
L 225.800141 114.343885 
L 223.973138 107.762555 
L 222.146136 112.266784 
L 220.319133 111.109893 
L 218.492131 110.57247 
L 216.665128 102.26345 
L 214.838125 103.533827 
L 213.011123 99.702574 
L 211.18412 99.96062 
L 209.357118 105.184909 
L 207.530115 105.818484 
L 205.703113 105.758054 
L 203.87611 107.33119 
L 202.049108 99.475072 
L 200.222105 107.006197 
L 198.395103 108.278507 
L 196.5681 107.893511 
L 194.741098 106.533676 
L 192.914095 95.526688 
L 191.087093 97.479275 
L 189.26009 94.73255 
L 187.433087 92.434152 
L 185.606085 98.603066 
L 183.779082 94.642735 
L 181.95208 94.288364 
L 180.125077 95.153232 
L 178.298075 97.617798 
L 176.471072 101.263548 
L 174.64407 98.465481 
L 172.817067 95.446358 
L 170.990065 95.650351 
L 169.163062 92.786913 
L 167.33606 92.243542 
L 165.509057 88.908498 
L 163.682054 86.152993 
L 161.855052 82.65709 
L 160.028049 79.0555 
L 158.201047 83.564493 
L 156.374044 86.518977 
L 154.547042 89.94366 
L 152.720039 86.605242 
L 150.893037 88.934242 
L 149.066034 84.117245 
L 147.239032 85.609281 
L 145.412029 86.555095 
L 143.585027 83.238081 
L 141.758024 84.412737 
L 139.931021 80.847354 
L 138.104019 83.83185 
L 136.277016 84.923918 
L 134.450014 80.108536 
L 132.623011 80.211307 
L 130.796009 77.607103 
L 128.969006 80.525181 
L 127.142004 78.793235 
L 125.315001 78.128735 
L 123.487999 70.646138 
L 121.660996 74.546288 
L 119.833994 70.305284 
L 118.006991 69.205404 
L 116.179989 68.97936 
L 114.352986 71.253943 
L 112.525983 73.703129 
L 110.698981 69.581957 
L 108.871978 67.358258 
L 107.044976 65.714629 
L 105.217973 64.32982 
L 103.390971 67.187877 
L 101.563968 68.414911 
L 99.736966 67.363805 
L 97.909963 66.498121 
L 96.082961 65.494163 
L 94.255958 69.512754 
L 92.428956 67.414527 
L 90.601953 64.505938 
L 88.77495 63.634157 
L 86.947948 68.410485 
L 85.120945 61.587091 
L 83.293943 57.968521 
L 81.46694 59.113741 
L 79.639938 63.027252 
L 77.812935 62.199703 
L 75.985933 58.926287 
L 74.15893 54.609173 
L 72.331928 60.662385 
L 70.504925 60.692801 
L 68.677923 65.94929 
L 66.85092 61.101516 
L 65.023917 64.767818 
L 63.196915 62.704942 
L 61.369912 61.116405 
L 59.54291 59.701159 
L 57.715907 59.903334 
L 55.888905 57.749675 
L 54.061902 45.729192 
" clip-path="url(#p8a2badbdc4)" style="fill: none; stroke: #00bfff; stroke-opacity: 0.5; stroke-width: 0.5; stroke-linecap: square"/>
   </g>
   <g id="line2d_21">
    <path d="M 260.513189 126.792 
L 258.686186 126.792 
L 256.859184 126.792 
L 255.032181 126.792 
L 253.205179 126.792 
L 251.378176 100.58304 
L 249.551174 90.224503 
L 247.724171 57.988006 
L 245.897169 41.052014 
L 244.070166 31.557088 
L 242.243164 29.326902 
L 240.416161 29.412493 
L 238.589158 27.512236 
L 236.762156 31.425635 
L 234.935153 29.671994 
L 233.108151 33.015583 
L 231.281148 33.984653 
L 229.454146 37.550626 
L 227.627143 31.143923 
L 225.800141 34.090362 
L 223.973138 39.391402 
L 222.146136 31.08332 
L 220.319133 37.642239 
L 218.492131 29.955003 
L 216.665128 26.834632 
L 214.838125 31.836409 
L 213.011123 40.34954 
L 211.18412 50.92547 
L 209.357118 44.887356 
L 207.530115 46.566779 
L 205.703113 47.687857 
L 203.87611 38.951826 
L 202.049108 43.101364 
L 200.222105 45.799218 
L 198.395103 43.182872 
L 196.5681 40.890163 
L 194.741098 47.421473 
L 192.914095 40.328844 
L 191.087093 46.167894 
L 189.26009 44.581924 
L 187.433087 43.657749 
L 185.606085 53.217257 
L 183.779082 59.118775 
L 181.95208 54.654258 
L 180.125077 60.146162 
L 178.298075 52.984318 
L 176.471072 46.409995 
L 174.64407 49.005078 
L 172.817067 52.985985 
L 170.990065 54.294367 
L 169.163062 52.727863 
L 167.33606 58.15698 
L 165.509057 53.962383 
L 163.682054 48.190795 
L 161.855052 48.475085 
L 160.028049 56.812554 
L 158.201047 60.484833 
L 156.374044 59.406639 
L 154.547042 54.575814 
L 152.720039 64.779792 
L 150.893037 56.728559 
L 149.066034 63.93928 
L 147.239032 57.967429 
L 145.412029 65.185954 
L 143.585027 68.20858 
L 141.758024 58.70421 
L 139.931021 58.581211 
L 138.104019 53.532063 
L 136.277016 56.066336 
L 134.450014 62.164295 
L 132.623011 60.800868 
L 130.796009 63.313444 
L 128.969006 61.267751 
L 127.142004 63.91029 
L 125.315001 63.352887 
L 123.487999 58.329156 
L 121.660996 60.123804 
L 119.833994 64.989732 
L 118.006991 62.238429 
L 116.179989 61.374231 
L 114.352986 63.52066 
L 112.525983 63.204697 
L 110.698981 67.534066 
L 108.871978 60.656792 
L 107.044976 67.907192 
L 105.217973 69.927197 
L 103.390971 67.776087 
L 101.563968 65.786818 
L 99.736966 70.106721 
L 97.909963 64.212739 
L 96.082961 65.688803 
L 94.255958 63.104622 
L 92.428956 64.958966 
L 90.601953 78.944013 
L 88.77495 84.230105 
L 86.947948 77.187547 
L 85.120945 79.453694 
L 83.293943 82.533186 
L 81.46694 76.66143 
L 79.639938 76.769706 
L 77.812935 76.496617 
L 75.985933 71.447502 
L 74.15893 67.290179 
L 72.331928 69.638444 
L 70.504925 76.670373 
L 68.677923 70.346542 
L 66.85092 69.409056 
L 65.023917 73.793618 
L 63.196915 69.969491 
L 61.369912 64.794562 
L 59.54291 54.972306 
L 57.715907 49.079338 
L 55.888905 36.323801 
L 54.061902 58.111534 
" clip-path="url(#p8a2badbdc4)" style="fill: none; stroke: #ff00ff; stroke-opacity: 0.5; stroke-width: 0.5; stroke-linecap: square"/>
   </g>
   <g id="line2d_22">
    <path d="M 260.513189 126.792 
L 258.686186 126.792 
L 256.859184 126.792 
L 255.032181 126.792 
L 253.205179 126.792 
L 251.378176 50.747578 
L 249.551174 41.288722 
L 247.724171 37.01028 
L 245.897169 29.961249 
L 244.070166 32.240742 
L 242.243164 31.235945 
L 240.416161 33.4144 
L 238.589158 32.401415 
L 236.762156 31.384653 
L 234.935153 35.082612 
L 233.108151 35.358326 
L 231.281148 31.584225 
L 229.454146 37.002254 
L 227.627143 33.193161 
L 225.800141 38.182354 
L 223.973138 38.62193 
L 222.146136 37.411089 
L 220.319133 36.138793 
L 218.492131 32.495019 
L 216.665128 32.453344 
L 214.838125 37.140565 
L 213.011123 36.319494 
L 211.18412 38.531531 
L 209.357118 33.931415 
L 207.530115 32.973361 
L 205.703113 33.88093 
L 203.87611 34.482613 
L 202.049108 35.502072 
L 200.222105 33.665542 
L 198.395103 39.678346 
L 196.5681 39.313136 
L 194.741098 43.678945 
L 192.914095 39.615772 
L 191.087093 38.73896 
L 189.26009 37.85158 
L 187.433087 36.010658 
L 185.606085 41.009348 
L 183.779082 43.057059 
L 181.95208 41.450659 
L 180.125077 45.233689 
L 178.298075 45.98853 
L 176.471072 46.160955 
L 174.64407 46.55095 
L 172.817067 48.184182 
L 170.990065 44.372944 
L 169.163062 42.600689 
L 167.33606 42.720186 
L 165.509057 43.280942 
L 163.682054 45.410934 
L 161.855052 48.962706 
L 160.028049 46.905058 
L 158.201047 49.371669 
L 156.374044 50.393633 
L 154.547042 54.196702 
L 152.720039 49.756655 
L 150.893037 52.66946 
L 149.066034 54.242404 
L 147.239032 54.038534 
L 145.412029 48.86273 
L 143.585027 53.483847 
L 141.758024 54.955497 
L 139.931021 55.192336 
L 138.104019 56.551724 
L 136.277016 56.126938 
L 134.450014 55.621962 
L 132.623011 60.248938 
L 130.796009 56.946522 
L 128.969006 59.822358 
L 127.142004 66.390671 
L 125.315001 61.505406 
L 123.487999 63.072352 
L 121.660996 64.092562 
L 119.833994 60.862359 
L 118.006991 60.483984 
L 116.179989 60.674408 
L 114.352986 60.004583 
L 112.525983 59.057412 
L 110.698981 60.931103 
L 108.871978 60.510821 
L 107.044976 62.856697 
L 105.217973 61.904555 
L 103.390971 66.820279 
L 101.563968 65.206024 
L 99.736966 66.105298 
L 97.909963 68.896854 
L 96.082961 64.724842 
L 94.255958 64.231639 
L 92.428956 66.883977 
L 90.601953 68.062589 
L 88.77495 68.172455 
L 86.947948 68.48286 
L 85.120945 70.747685 
L 83.293943 69.47524 
L 81.46694 70.086089 
L 79.639938 71.169535 
L 77.812935 69.228898 
L 75.985933 65.553398 
L 74.15893 65.981923 
L 72.331928 65.184124 
L 70.504925 66.085263 
L 68.677923 66.271983 
L 66.85092 66.89565 
L 65.023917 68.199006 
L 63.196915 73.057922 
L 61.369912 69.482233 
L 59.54291 65.827 
L 57.715907 68.030525 
L 55.888905 70.458864 
L 54.061902 75.035832 
" clip-path="url(#p8a2badbdc4)" style="fill: none; stroke: #ff00ff; stroke-opacity: 0.5; stroke-width: 0.5; stroke-linecap: square"/>
   </g>
   <g id="line2d_23">
    <path d="M 260.513189 126.792 
L 258.686186 126.792 
L 256.859184 126.792 
L 255.032181 126.792 
L 253.205179 126.792 
L 251.378176 81.998626 
L 249.551174 67.866507 
L 247.724171 46.10904 
L 245.897169 36.932062 
L 244.070166 31.641902 
L 242.243164 28.406845 
L 240.416161 27.283159 
L 238.589158 27.649061 
L 236.762156 29.537662 
L 234.935153 26.936971 
L 233.108151 26.379508 
L 231.281148 26.076443 
L 229.454146 22.611201 
L 227.627143 23.276777 
L 225.800141 25.342972 
L 223.973138 31.924302 
L 222.146136 27.420073 
L 220.319133 28.576964 
L 218.492131 29.114387 
L 216.665128 37.423407 
L 214.838125 36.153031 
L 213.011123 39.984283 
L 211.18412 39.726237 
L 209.357118 34.501948 
L 207.530115 33.868373 
L 205.703113 33.928803 
L 203.87611 32.355667 
L 202.049108 40.211785 
L 200.222105 32.68066 
L 198.395103 31.40835 
L 196.5681 31.793346 
L 194.741098 33.153181 
L 192.914095 44.160169 
L 191.087093 42.207583 
L 189.26009 44.954307 
L 187.433087 47.252705 
L 185.606085 41.083791 
L 183.779082 45.044122 
L 181.95208 45.398493 
L 180.125077 44.533625 
L 178.298075 42.069059 
L 176.471072 38.423309 
L 174.64407 41.221377 
L 172.817067 44.240499 
L 170.990065 44.036506 
L 169.163062 46.899945 
L 167.33606 47.443315 
L 165.509057 50.778359 
L 163.682054 53.533864 
L 161.855052 57.029767 
L 160.028049 60.631357 
L 158.201047 56.122364 
L 156.374044 53.16788 
L 154.547042 49.743197 
L 152.720039 53.081616 
L 150.893037 50.752615 
L 149.066034 55.569612 
L 147.239032 54.077576 
L 145.412029 53.131762 
L 143.585027 56.448776 
L 141.758024 55.27412 
L 139.931021 58.839503 
L 138.104019 55.855007 
L 136.277016 54.762939 
L 134.450014 59.578322 
L 132.623011 59.47555 
L 130.796009 62.079754 
L 128.969006 59.161676 
L 127.142004 60.893623 
L 125.315001 61.558122 
L 123.487999 69.040719 
L 121.660996 65.140569 
L 119.833994 69.381574 
L 118.006991 70.481453 
L 116.179989 70.707497 
L 114.352986 68.432914 
L 112.525983 65.983728 
L 110.698981 70.1049 
L 108.871978 72.328599 
L 107.044976 73.972228 
L 105.217973 75.357037 
L 103.390971 72.49898 
L 101.563968 71.271946 
L 99.736966 72.323053 
L 97.909963 73.188736 
L 96.082961 74.192694 
L 94.255958 70.174103 
L 92.428956 72.27233 
L 90.601953 75.180919 
L 88.77495 76.052701 
L 86.947948 71.276372 
L 85.120945 78.099766 
L 83.293943 81.718336 
L 81.46694 80.573116 
L 79.639938 76.659605 
L 77.812935 77.487154 
L 75.985933 80.76057 
L 74.15893 85.077684 
L 72.331928 79.024472 
L 70.504925 78.994057 
L 68.677923 73.737567 
L 66.85092 78.585341 
L 65.023917 74.919039 
L 63.196915 76.981915 
L 61.369912 78.570453 
L 59.54291 79.985698 
L 57.715907 79.783523 
L 55.888905 81.937182 
L 54.061902 93.957665 
" clip-path="url(#p8a2badbdc4)" style="fill: none; stroke: #ff00ff; stroke-opacity: 0.5; stroke-width: 0.5; stroke-linecap: square"/>
   </g>
   <g id="line2d_24">
    <path d="M 260.513189 126.792 
L 258.686186 126.792 
L 256.859184 126.792 
L 255.032181 126.792 
L 253.205179 126.792 
L 251.378176 61.910442 
L 249.551174 73.226946 
L 247.724171 92.651082 
L 245.897169 103.705082 
L 244.070166 107.873613 
L 242.243164 110.030293 
L 240.416161 109.650173 
L 238.589158 110.499287 
L 236.762156 108.904207 
L 234.935153 109.122998 
L 233.108151 108.102385 
L 231.281148 109.138416 
L 229.454146 107.29883 
L 227.627143 110.482237 
L 225.800141 107.148295 
L 223.973138 103.040979 
L 222.146136 107.715363 
L 220.319133 105.567525 
L 218.492131 109.165387 
L 216.665128 107.449729 
L 214.838125 104.643522 
L 213.011123 100.802418 
L 211.18412 96.625778 
L 209.357118 101.913284 
L 207.530115 101.88402 
L 205.703113 101.18766 
L 203.87611 104.423489 
L 202.049108 100.081783 
L 200.222105 102.30505 
L 198.395103 101.597001 
L 196.5681 102.354642 
L 194.741098 98.268991 
L 192.914095 98.318596 
L 191.087093 97.315378 
L 189.26009 97.224254 
L 187.433087 97.37982 
L 185.606085 94.583392 
L 183.779082 90.613538 
L 181.95208 92.519054 
L 180.125077 89.715699 
L 178.298075 92.672888 
L 176.471072 96.022104 
L 174.64407 94.094389 
L 172.817067 91.216635 
L 170.990065 92.118918 
L 169.163062 92.277358 
L 167.33606 90.246697 
L 165.509057 90.346296 
L 163.682054 90.64166 
L 161.855052 88.197671 
L 160.028049 84.903867 
L 158.201047 84.360568 
L 156.374044 85.36414 
L 154.547042 86.848286 
L 152.720039 83.81417 
L 150.893037 86.303312 
L 149.066034 81.769759 
L 147.239032 84.325677 
L 145.412029 83.960042 
L 143.585027 80.306456 
L 141.758024 83.375582 
L 139.931021 82.149174 
L 138.104019 84.373926 
L 136.277016 84.034786 
L 134.450014 80.565331 
L 132.623011 79.511738 
L 130.796009 78.90695 
L 128.969006 79.602929 
L 127.142004 75.955329 
L 125.315001 77.548052 
L 123.487999 76.206115 
L 121.660996 76.567878 
L 119.833994 74.608969 
L 118.006991 75.285568 
L 116.179989 75.434812 
L 114.352986 75.700805 
L 112.525983 76.938245 
L 110.698981 73.496834 
L 108.871978 75.18812 
L 107.044976 71.441485 
L 105.217973 70.623927 
L 103.390971 70.655075 
L 101.563968 72.265261 
L 99.736966 70.175167 
L 97.909963 70.920748 
L 96.082961 71.484744 
L 94.255958 73.850069 
L 92.428956 71.648433 
L 90.601953 65.62435 
L 88.77495 63.535104 
L 86.947948 67.371264 
L 85.120945 63.586476 
L 83.293943 61.777936 
L 81.46694 63.913312 
L 79.639938 64.820575 
L 77.812935 65.282634 
L 75.985933 67.0997 
L 74.15893 66.903595 
L 72.331928 68.404511 
L 70.504925 65.770293 
L 68.677923 69.56816 
L 66.85092 68.056841 
L 65.023917 67.382969 
L 63.196915 66.350415 
L 61.369912 68.737775 
L 59.54291 72.758522 
L 57.715907 74.055729 
L 55.888905 76.780241 
L 54.061902 63.98518 
" clip-path="url(#p8a2badbdc4)" style="fill: none; stroke: #00bfff; stroke-width: 4; stroke-linecap: square"/>
   </g>
   <g id="line2d_25">
    <path d="M 260.513189 126.792 
L 258.686186 126.792 
L 256.859184 126.792 
L 255.032181 126.792 
L 253.205179 126.792 
L 251.378176 77.776415 
L 249.551174 66.459911 
L 247.724171 47.035775 
L 245.897169 35.981775 
L 244.070166 31.813244 
L 242.243164 29.656564 
L 240.416161 30.036684 
L 238.589158 29.18757 
L 236.762156 30.78265 
L 234.935153 30.563859 
L 233.108151 31.584472 
L 231.281148 30.548441 
L 229.454146 32.388027 
L 227.627143 29.20462 
L 225.800141 32.538563 
L 223.973138 36.645878 
L 222.146136 31.971494 
L 220.319133 34.119332 
L 218.492131 30.52147 
L 216.665128 32.237128 
L 214.838125 35.043335 
L 213.011123 38.884439 
L 211.18412 43.061079 
L 209.357118 37.773573 
L 207.530115 37.802838 
L 205.703113 38.499197 
L 203.87611 35.263369 
L 202.049108 39.605074 
L 200.222105 37.381807 
L 198.395103 38.089856 
L 196.5681 37.332215 
L 194.741098 41.417866 
L 192.914095 41.368262 
L 191.087093 42.371479 
L 189.26009 42.462604 
L 187.433087 42.307037 
L 185.606085 45.103465 
L 183.779082 49.073319 
L 181.95208 47.167803 
L 180.125077 49.971159 
L 178.298075 47.013969 
L 176.471072 43.664753 
L 174.64407 45.592468 
L 172.817067 48.470222 
L 170.990065 47.567939 
L 169.163062 47.409499 
L 167.33606 49.44016 
L 165.509057 49.340561 
L 163.682054 49.045198 
L 161.855052 51.489186 
L 160.028049 54.78299 
L 158.201047 55.326289 
L 156.374044 54.322717 
L 154.547042 52.838571 
L 152.720039 55.872687 
L 150.893037 53.383545 
L 149.066034 57.917098 
L 147.239032 55.36118 
L 145.412029 55.726815 
L 143.585027 59.380401 
L 141.758024 56.311276 
L 139.931021 57.537683 
L 138.104019 55.312931 
L 136.277016 55.652071 
L 134.450014 59.121526 
L 132.623011 60.175119 
L 130.796009 60.779907 
L 128.969006 60.083928 
L 127.142004 63.731528 
L 125.315001 62.138805 
L 123.487999 63.480742 
L 121.660996 63.118979 
L 119.833994 65.077888 
L 118.006991 64.401289 
L 116.179989 64.252045 
L 114.352986 63.986053 
L 112.525983 62.748612 
L 110.698981 66.190023 
L 108.871978 64.498737 
L 107.044976 68.245372 
L 105.217973 69.06293 
L 103.390971 69.031782 
L 101.563968 67.421596 
L 99.736966 69.51169 
L 97.909963 68.76611 
L 96.082961 68.202113 
L 94.255958 65.836788 
L 92.428956 68.038424 
L 90.601953 74.062507 
L 88.77495 76.151754 
L 86.947948 72.315593 
L 85.120945 76.100382 
L 83.293943 77.908921 
L 81.46694 75.773545 
L 79.639938 74.866282 
L 77.812935 74.404223 
L 75.985933 72.587157 
L 74.15893 72.783262 
L 72.331928 71.282347 
L 70.504925 73.916564 
L 68.677923 70.118697 
L 66.85092 71.630016 
L 65.023917 72.303888 
L 63.196915 73.336443 
L 61.369912 70.949082 
L 59.54291 66.928335 
L 57.715907 65.631129 
L 55.888905 62.906616 
L 54.061902 75.701677 
" clip-path="url(#p8a2badbdc4)" style="fill: none; stroke: #ff00ff; stroke-width: 4; stroke-linecap: square"/>
   </g>
   <g id="line2d_26">
    <path d="M 251.378176 126.792 
L 251.378176 7.2 
" clip-path="url(#p8a2badbdc4)" style="fill: none; stroke-dasharray: 1.5,2.475; stroke-dashoffset: 0; stroke: #000000; stroke-width: 1.5"/>
   </g>
   <g id="patch_3">
    <path d="M 53.94375 126.792 
L 53.94375 7.2 
" style="fill: none; stroke: #000000; stroke-linejoin: miter; stroke-linecap: square"/>
   </g>
   <g id="patch_4">
    <path d="M 260.40375 126.792 
L 260.40375 7.2 
" style="fill: none"/>
   </g>
   <g id="patch_5">
    <path d="M 53.94375 126.792 
L 260.40375 126.792 
" style="fill: none; stroke: #000000; stroke-linejoin: miter; stroke-linecap: square"/>
   </g>
   <g id="patch_6">
    <path d="M 53.94375 7.2 
L 260.40375 7.2 
" style="fill: none"/>
   </g>
   <g id="legend_1">
    <g id="patch_7">
     <path d="M 60.94375 121.792 
L 119.24375 121.792 
Q 121.24375 121.792 121.24375 119.792 
L 121.24375 91.413875 
Q 121.24375 89.413875 119.24375 89.413875 
L 60.94375 89.413875 
Q 58.94375 89.413875 58.94375 91.413875 
L 58.94375 119.792 
Q 58.94375 121.792 60.94375 121.792 
z
" style="fill: #ffffff; opacity: 0.8; stroke: #cccccc; stroke-linejoin: miter"/>
    </g>
    <g id="line2d_27">
     <path d="M 62.94375 97.512313 
L 72.94375 97.512313 
L 82.94375 97.512313 
" style="fill: none; stroke: #ff00ff; stroke-width: 4; stroke-linecap: square"/>
    </g>
    <g id="text_10">
     <!-- WT -->
     <g transform="translate(90.94375 101.012313) scale(0.1 -0.1)">
      <defs>
       <path id="DejaVuSans-57" d="M 213 4666 
L 850 4666 
L 1831 722 
L 2809 4666 
L 3519 4666 
L 4500 722 
L 5478 4666 
L 6119 4666 
L 4947 0 
L 4153 0 
L 3169 4050 
L 2175 0 
L 1381 0 
L 213 4666 
z
" transform="scale(0.015625)"/>
       <path id="DejaVuSans-54" d="M -19 4666 
L 3928 4666 
L 3928 4134 
L 2272 4134 
L 2272 0 
L 1638 0 
L 1638 4134 
L -19 4134 
L -19 4666 
z
" transform="scale(0.015625)"/>
      </defs>
      <use xlink:href="#DejaVuSans-57"/>
      <use xlink:href="#DejaVuSans-54" x="98.876953"/>
     </g>
    </g>
    <g id="line2d_28">
     <path d="M 62.94375 112.192 
L 72.94375 112.192 
L 82.94375 112.192 
" style="fill: none; stroke: #00bfff; stroke-width: 4; stroke-linecap: square"/>
    </g>
    <g id="text_11">
     <!-- $\Delta\mathit{pilH}$ -->
     <g transform="translate(90.94375 115.692) scale(0.1 -0.1)">
      <defs>
       <path id="DejaVuSans-394" d="M 2188 4044 
L 906 525 
L 3472 525 
L 2188 4044 
z
M 50 0 
L 1831 4666 
L 2547 4666 
L 4325 0 
L 50 0 
z
" transform="scale(0.015625)"/>
       <path id="DejaVuSans-Oblique-70" d="M 3175 2156 
Q 3175 2616 2975 2859 
Q 2775 3103 2400 3103 
Q 2144 3103 1911 2972 
Q 1678 2841 1497 2591 
Q 1319 2344 1212 1994 
Q 1106 1644 1106 1300 
Q 1106 863 1306 627 
Q 1506 391 1875 391 
Q 2147 391 2380 519 
Q 2613 647 2778 891 
Q 2956 1147 3065 1494 
Q 3175 1841 3175 2156 
z
M 1394 2969 
Q 1625 3272 1939 3428 
Q 2253 3584 2638 3584 
Q 3175 3584 3472 3232 
Q 3769 2881 3769 2247 
Q 3769 1728 3584 1258 
Q 3400 788 3053 416 
Q 2822 169 2531 39 
Q 2241 -91 1919 -91 
Q 1547 -91 1294 64 
Q 1041 219 916 525 
L 556 -1331 
L -19 -1331 
L 922 3500 
L 1497 3500 
L 1394 2969 
z
" transform="scale(0.015625)"/>
       <path id="DejaVuSans-Oblique-69" d="M 1172 4863 
L 1747 4863 
L 1606 4134 
L 1031 4134 
L 1172 4863 
z
M 909 3500 
L 1484 3500 
L 800 0 
L 225 0 
L 909 3500 
z
" transform="scale(0.015625)"/>
       <path id="DejaVuSans-Oblique-6c" d="M 1172 4863 
L 1747 4863 
L 800 0 
L 225 0 
L 1172 4863 
z
" transform="scale(0.015625)"/>
       <path id="DejaVuSans-Oblique-48" d="M 1081 4666 
L 1716 4666 
L 1344 2753 
L 3634 2753 
L 4006 4666 
L 4641 4666 
L 3731 0 
L 3097 0 
L 3531 2222 
L 1241 2222 
L 806 0 
L 172 0 
L 1081 4666 
z
" transform="scale(0.015625)"/>
      </defs>
      <use xlink:href="#DejaVuSans-394" transform="translate(0 0.015625)"/>
      <use xlink:href="#DejaVuSans-Oblique-70" transform="translate(68.408203 0.015625)"/>
      <use xlink:href="#DejaVuSans-Oblique-69" transform="translate(131.884766 0.015625)"/>
      <use xlink:href="#DejaVuSans-Oblique-6c" transform="translate(159.667969 0.015625)"/>
      <use xlink:href="#DejaVuSans-Oblique-48" transform="translate(187.451172 0.015625)"/>
     </g>
    </g>
   </g>
  </g>
 </g>
 <defs>
  <clipPath id="p8a2badbdc4">
   <rect x="53.94375" y="7.2" width="206.46" height="119.592"/>
  </clipPath>
 </defs>
</svg>
