<?xml version="1.0" encoding="utf-8" standalone="no"?>
<!DOCTYPE svg PUBLIC "-//W3C//DTD SVG 1.1//EN"
  "http://www.w3.org/Graphics/SVG/1.1/DTD/svg11.dtd">
<svg xmlns:xlink="http://www.w3.org/1999/xlink" width="267.60375pt" height="174.433563pt" viewBox="0 0 267.60375 174.433563" xmlns="http://www.w3.org/2000/svg" version="1.1">
 <metadata>
  <rdf:RDF xmlns:dc="http://purl.org/dc/elements/1.1/" xmlns:cc="http://creativecommons.org/ns#" xmlns:rdf="http://www.w3.org/1999/02/22-rdf-syntax-ns#">
   <cc:Work>
    <dc:type rdf:resource="http://purl.org/dc/dcmitype/StillImage"/>
    <dc:date>2026-05-26T16:05:03.631665</dc:date>
    <dc:format>image/svg+xml</dc:format>
    <dc:creator>
     <cc:Agent>
      <dc:title>Matplotlib v3.9.4, https://matplotlib.org/</dc:title>
     </cc:Agent>
    </dc:creator>
   </cc:Work>
  </rdf:RDF>
 </metadata>
 <defs>
  <style type="text/css">*{stroke-linejoin: round; stroke-linecap: butt}</style>
 </defs>
 <g id="figure_1">
  <g id="patch_1">
   <path d="M 0 174.433563 
L 267.60375 174.433563 
L 267.60375 0 
L 0 0 
L 0 174.433563 
z
" style="fill: none"/>
  </g>
  <g id="axes_1">
   <g id="patch_2">
    <path d="M 53.94375 126.792 
L 260.40375 126.792 
L 260.40375 7.2 
L 53.94375 7.2 
L 53.94375 126.792 
z
" style="fill: none"/>
   </g>
   <g id="matplotlib.axis_1">
    <g id="xtick_1">
     <g id="line2d_1">
      <defs>
       <path id="m3487046467" d="M 0 0 
L 0 7 
" style="stroke: #000000; stroke-width: 1.25"/>
      </defs>
      <g>
       <use xlink:href="#m3487046467" x="251.378176" y="126.792" style="stroke: #000000; stroke-width: 1.25"/>
      </g>
     </g>
     <g id="text_1">
      <!-- 0 -->
      <g transform="translate(247.48552 147.312938) scale(0.14 -0.14)">
       <defs>
        <path id="ArialMT-30" d="M 266 2259 
Q 266 3072 433 3567 
Q 600 4063 929 4331 
Q 1259 4600 1759 4600 
Q 2128 4600 2406 4451 
Q 2684 4303 2865 4023 
Q 3047 3744 3150 3342 
Q 3253 2941 3253 2259 
Q 3253 1453 3087 958 
Q 2922 463 2592 192 
Q 2263 -78 1759 -78 
Q 1097 -78 719 397 
Q 266 969 266 2259 
z
M 844 2259 
Q 844 1131 1108 757 
Q 1372 384 1759 384 
Q 2147 384 2411 759 
Q 2675 1134 2675 2259 
Q 2675 3391 2411 3762 
Q 2147 4134 1753 4134 
Q 1366 4134 1134 3806 
Q 844 3388 844 2259 
z
" transform="scale(0.015625)"/>
       </defs>
       <use xlink:href="#ArialMT-30"/>
      </g>
     </g>
    </g>
    <g id="xtick_2">
     <g id="line2d_2">
      <g>
       <use xlink:href="#m3487046467" x="194.96834" y="126.792" style="stroke: #000000; stroke-width: 1.25"/>
      </g>
     </g>
     <g id="text_2">
      <!-- 100 -->
      <g transform="translate(183.290371 147.312938) scale(0.14 -0.14)">
       <defs>
        <path id="ArialMT-31" d="M 2384 0 
L 1822 0 
L 1822 3584 
Q 1619 3391 1289 3197 
Q 959 3003 697 2906 
L 697 3450 
Q 1169 3672 1522 3987 
Q 1875 4303 2022 4600 
L 2384 4600 
L 2384 0 
z
" transform="scale(0.015625)"/>
       </defs>
       <use xlink:href="#ArialMT-31"/>
       <use xlink:href="#ArialMT-30" x="55.615234"/>
       <use xlink:href="#ArialMT-30" x="111.230469"/>
      </g>
     </g>
    </g>
    <g id="xtick_3">
     <g id="line2d_3">
      <g>
       <use xlink:href="#m3487046467" x="138.558504" y="126.792" style="stroke: #000000; stroke-width: 1.25"/>
      </g>
     </g>
     <g id="text_3">
      <!-- 200 -->
      <g transform="translate(126.880535 147.312938) scale(0.14 -0.14)">
       <defs>
        <path id="ArialMT-32" d="M 3222 541 
L 3222 0 
L 194 0 
Q 188 203 259 391 
Q 375 700 629 1000 
Q 884 1300 1366 1694 
Q 2113 2306 2375 2664 
Q 2638 3022 2638 3341 
Q 2638 3675 2398 3904 
Q 2159 4134 1775 4134 
Q 1369 4134 1125 3890 
Q 881 3647 878 3216 
L 300 3275 
Q 359 3922 746 4261 
Q 1134 4600 1788 4600 
Q 2447 4600 2831 4234 
Q 3216 3869 3216 3328 
Q 3216 3053 3103 2787 
Q 2991 2522 2730 2228 
Q 2469 1934 1863 1422 
Q 1356 997 1212 845 
Q 1069 694 975 541 
L 3222 541 
z
" transform="scale(0.015625)"/>
       </defs>
       <use xlink:href="#ArialMT-32"/>
       <use xlink:href="#ArialMT-30" x="55.615234"/>
       <use xlink:href="#ArialMT-30" x="111.230469"/>
      </g>
     </g>
    </g>
    <g id="xtick_4">
     <g id="line2d_4">
      <g>
       <use xlink:href="#m3487046467" x="82.148668" y="126.792" style="stroke: #000000; stroke-width: 1.25"/>
      </g>
     </g>
     <g id="text_4">
      <!-- 300 -->
      <g transform="translate(70.470699 147.312938) scale(0.14 -0.14)">
       <defs>
        <path id="ArialMT-33" d="M 269 1209 
L 831 1284 
Q 928 806 1161 595 
Q 1394 384 1728 384 
Q 2125 384 2398 659 
Q 2672 934 2672 1341 
Q 2672 1728 2419 1979 
Q 2166 2231 1775 2231 
Q 1616 2231 1378 2169 
L 1441 2663 
Q 1497 2656 1531 2656 
Q 1891 2656 2178 2843 
Q 2466 3031 2466 3422 
Q 2466 3731 2256 3934 
Q 2047 4138 1716 4138 
Q 1388 4138 1169 3931 
Q 950 3725 888 3313 
L 325 3413 
Q 428 3978 793 4289 
Q 1159 4600 1703 4600 
Q 2078 4600 2393 4439 
Q 2709 4278 2876 4000 
Q 3044 3722 3044 3409 
Q 3044 3113 2884 2869 
Q 2725 2625 2413 2481 
Q 2819 2388 3044 2092 
Q 3269 1797 3269 1353 
Q 3269 753 2831 336 
Q 2394 -81 1725 -81 
Q 1122 -81 723 278 
Q 325 638 269 1209 
z
" transform="scale(0.015625)"/>
       </defs>
       <use xlink:href="#ArialMT-33"/>
       <use xlink:href="#ArialMT-30" x="55.615234"/>
       <use xlink:href="#ArialMT-30" x="111.230469"/>
      </g>
     </g>
    </g>
    <g id="text_5">
     <!-- Distance from the edge (µm) -->
     <g transform="translate(62.907813 164.287) scale(0.14 -0.14)">
      <defs>
       <path id="Arial-BoldMT-44" d="M 463 4581 
L 2153 4581 
Q 2725 4581 3025 4494 
Q 3428 4375 3715 4072 
Q 4003 3769 4153 3330 
Q 4303 2891 4303 2247 
Q 4303 1681 4163 1272 
Q 3991 772 3672 463 
Q 3431 228 3022 97 
Q 2716 0 2203 0 
L 463 0 
L 463 4581 
z
M 1388 3806 
L 1388 772 
L 2078 772 
Q 2466 772 2638 816 
Q 2863 872 3011 1006 
Q 3159 1141 3253 1448 
Q 3347 1756 3347 2288 
Q 3347 2819 3253 3103 
Q 3159 3388 2990 3547 
Q 2822 3706 2563 3763 
Q 2369 3806 1803 3806 
L 1388 3806 
z
" transform="scale(0.015625)"/>
       <path id="Arial-BoldMT-69" d="M 459 3769 
L 459 4581 
L 1338 4581 
L 1338 3769 
L 459 3769 
z
M 459 0 
L 459 3319 
L 1338 3319 
L 1338 0 
L 459 0 
z
" transform="scale(0.015625)"/>
       <path id="Arial-BoldMT-73" d="M 150 947 
L 1031 1081 
Q 1088 825 1259 692 
Q 1431 559 1741 559 
Q 2081 559 2253 684 
Q 2369 772 2369 919 
Q 2369 1019 2306 1084 
Q 2241 1147 2013 1200 
Q 950 1434 666 1628 
Q 272 1897 272 2375 
Q 272 2806 612 3100 
Q 953 3394 1669 3394 
Q 2350 3394 2681 3172 
Q 3013 2950 3138 2516 
L 2309 2363 
Q 2256 2556 2107 2659 
Q 1959 2763 1684 2763 
Q 1338 2763 1188 2666 
Q 1088 2597 1088 2488 
Q 1088 2394 1175 2328 
Q 1294 2241 1995 2081 
Q 2697 1922 2975 1691 
Q 3250 1456 3250 1038 
Q 3250 581 2869 253 
Q 2488 -75 1741 -75 
Q 1063 -75 667 200 
Q 272 475 150 947 
z
" transform="scale(0.015625)"/>
       <path id="Arial-BoldMT-74" d="M 1981 3319 
L 1981 2619 
L 1381 2619 
L 1381 1281 
Q 1381 875 1398 808 
Q 1416 741 1477 697 
Q 1538 653 1625 653 
Q 1747 653 1978 738 
L 2053 56 
Q 1747 -75 1359 -75 
Q 1122 -75 931 4 
Q 741 84 652 211 
Q 563 338 528 553 
Q 500 706 500 1172 
L 500 2619 
L 97 2619 
L 97 3319 
L 500 3319 
L 500 3978 
L 1381 4491 
L 1381 3319 
L 1981 3319 
z
" transform="scale(0.015625)"/>
       <path id="Arial-BoldMT-61" d="M 1116 2306 
L 319 2450 
Q 453 2931 781 3162 
Q 1109 3394 1756 3394 
Q 2344 3394 2631 3255 
Q 2919 3116 3036 2902 
Q 3153 2688 3153 2116 
L 3144 1091 
Q 3144 653 3186 445 
Q 3228 238 3344 0 
L 2475 0 
Q 2441 88 2391 259 
Q 2369 338 2359 363 
Q 2134 144 1878 34 
Q 1622 -75 1331 -75 
Q 819 -75 523 203 
Q 228 481 228 906 
Q 228 1188 362 1408 
Q 497 1628 739 1745 
Q 981 1863 1438 1950 
Q 2053 2066 2291 2166 
L 2291 2253 
Q 2291 2506 2166 2614 
Q 2041 2722 1694 2722 
Q 1459 2722 1328 2630 
Q 1197 2538 1116 2306 
z
M 2291 1594 
Q 2122 1538 1756 1459 
Q 1391 1381 1278 1306 
Q 1106 1184 1106 997 
Q 1106 813 1243 678 
Q 1381 544 1594 544 
Q 1831 544 2047 700 
Q 2206 819 2256 991 
Q 2291 1103 2291 1419 
L 2291 1594 
z
" transform="scale(0.015625)"/>
       <path id="Arial-BoldMT-6e" d="M 3478 0 
L 2600 0 
L 2600 1694 
Q 2600 2231 2544 2389 
Q 2488 2547 2361 2634 
Q 2234 2722 2056 2722 
Q 1828 2722 1647 2597 
Q 1466 2472 1398 2265 
Q 1331 2059 1331 1503 
L 1331 0 
L 453 0 
L 453 3319 
L 1269 3319 
L 1269 2831 
Q 1703 3394 2363 3394 
Q 2653 3394 2893 3289 
Q 3134 3184 3257 3021 
Q 3381 2859 3429 2653 
Q 3478 2447 3478 2063 
L 3478 0 
z
" transform="scale(0.015625)"/>
       <path id="Arial-BoldMT-63" d="M 3353 2338 
L 2488 2181 
Q 2444 2441 2289 2572 
Q 2134 2703 1888 2703 
Q 1559 2703 1364 2476 
Q 1169 2250 1169 1719 
Q 1169 1128 1367 884 
Q 1566 641 1900 641 
Q 2150 641 2309 783 
Q 2469 925 2534 1272 
L 3397 1125 
Q 3263 531 2881 228 
Q 2500 -75 1859 -75 
Q 1131 -75 698 384 
Q 266 844 266 1656 
Q 266 2478 700 2936 
Q 1134 3394 1875 3394 
Q 2481 3394 2839 3133 
Q 3197 2872 3353 2338 
z
" transform="scale(0.015625)"/>
       <path id="Arial-BoldMT-65" d="M 2381 1056 
L 3256 909 
Q 3088 428 2723 176 
Q 2359 -75 1813 -75 
Q 947 -75 531 491 
Q 203 944 203 1634 
Q 203 2459 634 2926 
Q 1066 3394 1725 3394 
Q 2466 3394 2894 2905 
Q 3322 2416 3303 1406 
L 1103 1406 
Q 1113 1016 1316 798 
Q 1519 581 1822 581 
Q 2028 581 2168 693 
Q 2309 806 2381 1056 
z
M 2431 1944 
Q 2422 2325 2234 2523 
Q 2047 2722 1778 2722 
Q 1491 2722 1303 2513 
Q 1116 2303 1119 1944 
L 2431 1944 
z
" transform="scale(0.015625)"/>
       <path id="Arial-BoldMT-20" transform="scale(0.015625)"/>
       <path id="Arial-BoldMT-66" d="M 75 3319 
L 563 3319 
L 563 3569 
Q 563 3988 652 4194 
Q 741 4400 980 4529 
Q 1219 4659 1584 4659 
Q 1959 4659 2319 4547 
L 2200 3934 
Q 1991 3984 1797 3984 
Q 1606 3984 1523 3895 
Q 1441 3806 1441 3553 
L 1441 3319 
L 2097 3319 
L 2097 2628 
L 1441 2628 
L 1441 0 
L 563 0 
L 563 2628 
L 75 2628 
L 75 3319 
z
" transform="scale(0.015625)"/>
       <path id="Arial-BoldMT-72" d="M 1300 0 
L 422 0 
L 422 3319 
L 1238 3319 
L 1238 2847 
Q 1447 3181 1614 3287 
Q 1781 3394 1994 3394 
Q 2294 3394 2572 3228 
L 2300 2463 
Q 2078 2606 1888 2606 
Q 1703 2606 1575 2504 
Q 1447 2403 1373 2137 
Q 1300 1872 1300 1025 
L 1300 0 
z
" transform="scale(0.015625)"/>
       <path id="Arial-BoldMT-6f" d="M 256 1706 
Q 256 2144 472 2553 
Q 688 2963 1083 3178 
Q 1478 3394 1966 3394 
Q 2719 3394 3200 2905 
Q 3681 2416 3681 1669 
Q 3681 916 3195 420 
Q 2709 -75 1972 -75 
Q 1516 -75 1102 131 
Q 688 338 472 736 
Q 256 1134 256 1706 
z
M 1156 1659 
Q 1156 1166 1390 903 
Q 1625 641 1969 641 
Q 2313 641 2545 903 
Q 2778 1166 2778 1666 
Q 2778 2153 2545 2415 
Q 2313 2678 1969 2678 
Q 1625 2678 1390 2415 
Q 1156 2153 1156 1659 
z
" transform="scale(0.015625)"/>
       <path id="Arial-BoldMT-6d" d="M 394 3319 
L 1203 3319 
L 1203 2866 
Q 1638 3394 2238 3394 
Q 2556 3394 2790 3262 
Q 3025 3131 3175 2866 
Q 3394 3131 3647 3262 
Q 3900 3394 4188 3394 
Q 4553 3394 4806 3245 
Q 5059 3097 5184 2809 
Q 5275 2597 5275 2122 
L 5275 0 
L 4397 0 
L 4397 1897 
Q 4397 2391 4306 2534 
Q 4184 2722 3931 2722 
Q 3747 2722 3584 2609 
Q 3422 2497 3350 2280 
Q 3278 2063 3278 1594 
L 3278 0 
L 2400 0 
L 2400 1819 
Q 2400 2303 2353 2443 
Q 2306 2584 2207 2653 
Q 2109 2722 1941 2722 
Q 1738 2722 1575 2612 
Q 1413 2503 1342 2297 
Q 1272 2091 1272 1613 
L 1272 0 
L 394 0 
L 394 3319 
z
" transform="scale(0.015625)"/>
       <path id="Arial-BoldMT-68" d="M 1334 4581 
L 1334 2897 
Q 1759 3394 2350 3394 
Q 2653 3394 2897 3281 
Q 3141 3169 3264 2994 
Q 3388 2819 3433 2606 
Q 3478 2394 3478 1947 
L 3478 0 
L 2600 0 
L 2600 1753 
Q 2600 2275 2550 2415 
Q 2500 2556 2373 2639 
Q 2247 2722 2056 2722 
Q 1838 2722 1666 2615 
Q 1494 2509 1414 2295 
Q 1334 2081 1334 1663 
L 1334 0 
L 456 0 
L 456 4581 
L 1334 4581 
z
" transform="scale(0.015625)"/>
       <path id="Arial-BoldMT-64" d="M 3503 0 
L 2688 0 
L 2688 488 
Q 2484 203 2207 64 
Q 1931 -75 1650 -75 
Q 1078 -75 670 386 
Q 263 847 263 1672 
Q 263 2516 659 2955 
Q 1056 3394 1663 3394 
Q 2219 3394 2625 2931 
L 2625 4581 
L 3503 4581 
L 3503 0 
z
M 1159 1731 
Q 1159 1200 1306 963 
Q 1519 619 1900 619 
Q 2203 619 2415 876 
Q 2628 1134 2628 1647 
Q 2628 2219 2422 2470 
Q 2216 2722 1894 2722 
Q 1581 2722 1370 2473 
Q 1159 2225 1159 1731 
z
" transform="scale(0.015625)"/>
       <path id="Arial-BoldMT-67" d="M 378 -219 
L 1381 -341 
Q 1406 -516 1497 -581 
Q 1622 -675 1891 -675 
Q 2234 -675 2406 -572 
Q 2522 -503 2581 -350 
Q 2622 -241 2622 53 
L 2622 538 
Q 2228 0 1628 0 
Q 959 0 569 566 
Q 263 1013 263 1678 
Q 263 2513 664 2953 
Q 1066 3394 1663 3394 
Q 2278 3394 2678 2853 
L 2678 3319 
L 3500 3319 
L 3500 341 
Q 3500 -247 3403 -537 
Q 3306 -828 3131 -993 
Q 2956 -1159 2664 -1253 
Q 2372 -1347 1925 -1347 
Q 1081 -1347 728 -1058 
Q 375 -769 375 -325 
Q 375 -281 378 -219 
z
M 1163 1728 
Q 1163 1200 1367 954 
Q 1572 709 1872 709 
Q 2194 709 2416 961 
Q 2638 1213 2638 1706 
Q 2638 2222 2425 2472 
Q 2213 2722 1888 2722 
Q 1572 2722 1367 2476 
Q 1163 2231 1163 1728 
z
" transform="scale(0.015625)"/>
       <path id="Arial-BoldMT-28" d="M 1916 -1347 
L 1313 -1347 
Q 834 -625 584 153 
Q 334 931 334 1659 
Q 334 2563 644 3369 
Q 913 4069 1325 4659 
L 1925 4659 
Q 1497 3713 1336 3048 
Q 1175 2384 1175 1641 
Q 1175 1128 1270 590 
Q 1366 53 1531 -431 
Q 1641 -750 1916 -1347 
z
" transform="scale(0.015625)"/>
       <path id="Arial-BoldMT-b5" d="M 347 3319 
L 1219 3319 
L 1219 1816 
Q 1219 1166 1350 931 
Q 1516 628 1841 628 
Q 2016 628 2172 740 
Q 2328 853 2403 1053 
Q 2478 1253 2478 1806 
L 2478 3319 
L 3366 3319 
L 3366 0 
L 2547 0 
L 2547 400 
Q 2453 225 2368 137 
Q 2284 50 2142 -15 
Q 2000 -81 1881 -81 
Q 1659 -81 1488 41 
Q 1366 131 1219 400 
L 1219 -1272 
L 347 -1272 
L 347 3319 
z
" transform="scale(0.015625)"/>
       <path id="Arial-BoldMT-29" d="M 216 -1347 
Q 475 -791 581 -494 
Q 688 -197 778 190 
Q 869 578 912 926 
Q 956 1275 956 1641 
Q 956 2384 797 3048 
Q 638 3713 209 4659 
L 806 4659 
Q 1278 3988 1539 3234 
Q 1800 2481 1800 1706 
Q 1800 1053 1594 306 
Q 1359 -531 822 -1347 
L 216 -1347 
z
" transform="scale(0.015625)"/>
      </defs>
      <use xlink:href="#Arial-BoldMT-44"/>
      <use xlink:href="#Arial-BoldMT-69" x="72.216797"/>
      <use xlink:href="#Arial-BoldMT-73" x="100"/>
      <use xlink:href="#Arial-BoldMT-74" x="155.615234"/>
      <use xlink:href="#Arial-BoldMT-61" x="188.916016"/>
      <use xlink:href="#Arial-BoldMT-6e" x="244.53125"/>
      <use xlink:href="#Arial-BoldMT-63" x="305.615234"/>
      <use xlink:href="#Arial-BoldMT-65" x="361.230469"/>
      <use xlink:href="#Arial-BoldMT-20" x="416.845703"/>
      <use xlink:href="#Arial-BoldMT-66" x="444.628906"/>
      <use xlink:href="#Arial-BoldMT-72" x="477.929688"/>
      <use xlink:href="#Arial-BoldMT-6f" x="516.845703"/>
      <use xlink:href="#Arial-BoldMT-6d" x="577.929688"/>
      <use xlink:href="#Arial-BoldMT-20" x="666.845703"/>
      <use xlink:href="#Arial-BoldMT-74" x="694.628906"/>
      <use xlink:href="#Arial-BoldMT-68" x="727.929688"/>
      <use xlink:href="#Arial-BoldMT-65" x="789.013672"/>
      <use xlink:href="#Arial-BoldMT-20" x="844.628906"/>
      <use xlink:href="#Arial-BoldMT-65" x="872.412109"/>
      <use xlink:href="#Arial-BoldMT-64" x="928.027344"/>
      <use xlink:href="#Arial-BoldMT-67" x="989.111328"/>
      <use xlink:href="#Arial-BoldMT-65" x="1050.195312"/>
      <use xlink:href="#Arial-BoldMT-20" x="1105.810547"/>
      <use xlink:href="#Arial-BoldMT-28" x="1133.59375"/>
      <use xlink:href="#Arial-BoldMT-b5" x="1166.894531"/>
      <use xlink:href="#Arial-BoldMT-6d" x="1224.511719"/>
      <use xlink:href="#Arial-BoldMT-29" x="1313.427734"/>
     </g>
    </g>
   </g>
   <g id="matplotlib.axis_2">
    <g id="ytick_1">
     <g id="line2d_5">
      <defs>
       <path id="m1486d37147" d="M 0 0 
L -7 0 
" style="stroke: #000000; stroke-width: 1.25"/>
      </defs>
      <g>
       <use xlink:href="#m1486d37147" x="53.94375" y="126.792" style="stroke: #000000; stroke-width: 1.25"/>
      </g>
     </g>
     <g id="text_6">
      <!-- 0.0 -->
      <g transform="translate(23.98375 131.802469) scale(0.14 -0.14)">
       <defs>
        <path id="ArialMT-2e" d="M 581 0 
L 581 641 
L 1222 641 
L 1222 0 
L 581 0 
z
" transform="scale(0.015625)"/>
       </defs>
       <use xlink:href="#ArialMT-30"/>
       <use xlink:href="#ArialMT-2e" x="55.615234"/>
       <use xlink:href="#ArialMT-30" x="83.398438"/>
      </g>
     </g>
    </g>
    <g id="ytick_2">
     <g id="line2d_6">
      <g>
       <use xlink:href="#m1486d37147" x="53.94375" y="69.843429" style="stroke: #000000; stroke-width: 1.25"/>
      </g>
     </g>
     <g id="text_7">
      <!-- 0.5 -->
      <g transform="translate(23.98375 74.853897) scale(0.14 -0.14)">
       <defs>
        <path id="ArialMT-35" d="M 266 1200 
L 856 1250 
Q 922 819 1161 601 
Q 1400 384 1738 384 
Q 2144 384 2425 690 
Q 2706 997 2706 1503 
Q 2706 1984 2436 2262 
Q 2166 2541 1728 2541 
Q 1456 2541 1237 2417 
Q 1019 2294 894 2097 
L 366 2166 
L 809 4519 
L 3088 4519 
L 3088 3981 
L 1259 3981 
L 1013 2750 
Q 1425 3038 1878 3038 
Q 2478 3038 2890 2622 
Q 3303 2206 3303 1553 
Q 3303 931 2941 478 
Q 2500 -78 1738 -78 
Q 1113 -78 717 272 
Q 322 622 266 1200 
z
" transform="scale(0.015625)"/>
       </defs>
       <use xlink:href="#ArialMT-30"/>
       <use xlink:href="#ArialMT-2e" x="55.615234"/>
       <use xlink:href="#ArialMT-35" x="83.398438"/>
      </g>
     </g>
    </g>
    <g id="ytick_3">
     <g id="line2d_7">
      <g>
       <use xlink:href="#m1486d37147" x="53.94375" y="12.894857" style="stroke: #000000; stroke-width: 1.25"/>
      </g>
     </g>
     <g id="text_8">
      <!-- 1.0 -->
      <g transform="translate(23.98375 17.905326) scale(0.14 -0.14)">
       <use xlink:href="#ArialMT-31"/>
       <use xlink:href="#ArialMT-2e" x="55.615234"/>
       <use xlink:href="#ArialMT-30" x="83.398438"/>
      </g>
     </g>
    </g>
    <g id="ytick_4">
     <g id="line2d_8">
      <defs>
       <path id="mad727fad60" d="M 0 0 
L -4 0 
" style="stroke: #000000; stroke-width: 1.25"/>
      </defs>
      <g>
       <use xlink:href="#mad727fad60" x="53.94375" y="98.317714" style="stroke: #000000; stroke-width: 1.25"/>
      </g>
     </g>
    </g>
    <g id="ytick_5">
     <g id="line2d_9">
      <g>
       <use xlink:href="#mad727fad60" x="53.94375" y="41.369143" style="stroke: #000000; stroke-width: 1.25"/>
      </g>
     </g>
    </g>
    <g id="text_9">
     <!-- Relative abundance -->
     <g transform="translate(17.220938 132.73475) rotate(-90) scale(0.14 -0.14)">
      <defs>
       <path id="Arial-BoldMT-52" d="M 469 0 
L 469 4581 
L 2416 4581 
Q 3150 4581 3483 4457 
Q 3816 4334 4016 4018 
Q 4216 3703 4216 3297 
Q 4216 2781 3912 2445 
Q 3609 2109 3006 2022 
Q 3306 1847 3501 1637 
Q 3697 1428 4028 894 
L 4588 0 
L 3481 0 
L 2813 997 
Q 2456 1531 2325 1670 
Q 2194 1809 2047 1861 
Q 1900 1913 1581 1913 
L 1394 1913 
L 1394 0 
L 469 0 
z
M 1394 2644 
L 2078 2644 
Q 2744 2644 2909 2700 
Q 3075 2756 3169 2893 
Q 3263 3031 3263 3238 
Q 3263 3469 3139 3611 
Q 3016 3753 2791 3791 
Q 2678 3806 2116 3806 
L 1394 3806 
L 1394 2644 
z
" transform="scale(0.015625)"/>
       <path id="Arial-BoldMT-6c" d="M 459 0 
L 459 4581 
L 1338 4581 
L 1338 0 
L 459 0 
z
" transform="scale(0.015625)"/>
       <path id="Arial-BoldMT-76" d="M 1372 0 
L 34 3319 
L 956 3319 
L 1581 1625 
L 1763 1059 
Q 1834 1275 1853 1344 
Q 1897 1484 1947 1625 
L 2578 3319 
L 3481 3319 
L 2163 0 
L 1372 0 
z
" transform="scale(0.015625)"/>
       <path id="Arial-BoldMT-62" d="M 422 0 
L 422 4581 
L 1300 4581 
L 1300 2931 
Q 1706 3394 2263 3394 
Q 2869 3394 3266 2955 
Q 3663 2516 3663 1694 
Q 3663 844 3258 384 
Q 2853 -75 2275 -75 
Q 1991 -75 1714 67 
Q 1438 209 1238 488 
L 1238 0 
L 422 0 
z
M 1294 1731 
Q 1294 1216 1456 969 
Q 1684 619 2063 619 
Q 2353 619 2558 867 
Q 2763 1116 2763 1650 
Q 2763 2219 2556 2470 
Q 2350 2722 2028 2722 
Q 1713 2722 1503 2476 
Q 1294 2231 1294 1731 
z
" transform="scale(0.015625)"/>
       <path id="Arial-BoldMT-75" d="M 2644 0 
L 2644 497 
Q 2463 231 2167 78 
Q 1872 -75 1544 -75 
Q 1209 -75 943 72 
Q 678 219 559 484 
Q 441 750 441 1219 
L 441 3319 
L 1319 3319 
L 1319 1794 
Q 1319 1094 1367 936 
Q 1416 778 1544 686 
Q 1672 594 1869 594 
Q 2094 594 2272 717 
Q 2450 841 2515 1023 
Q 2581 1206 2581 1919 
L 2581 3319 
L 3459 3319 
L 3459 0 
L 2644 0 
z
" transform="scale(0.015625)"/>
      </defs>
      <use xlink:href="#Arial-BoldMT-52"/>
      <use xlink:href="#Arial-BoldMT-65" x="72.216797"/>
      <use xlink:href="#Arial-BoldMT-6c" x="127.832031"/>
      <use xlink:href="#Arial-BoldMT-61" x="155.615234"/>
      <use xlink:href="#Arial-BoldMT-74" x="211.230469"/>
      <use xlink:href="#Arial-BoldMT-69" x="244.53125"/>
      <use xlink:href="#Arial-BoldMT-76" x="272.314453"/>
      <use xlink:href="#Arial-BoldMT-65" x="327.929688"/>
      <use xlink:href="#Arial-BoldMT-20" x="383.544922"/>
      <use xlink:href="#Arial-BoldMT-61" x="411.328125"/>
      <use xlink:href="#Arial-BoldMT-62" x="466.943359"/>
      <use xlink:href="#Arial-BoldMT-75" x="528.027344"/>
      <use xlink:href="#Arial-BoldMT-6e" x="589.111328"/>
      <use xlink:href="#Arial-BoldMT-64" x="650.195312"/>
      <use xlink:href="#Arial-BoldMT-61" x="711.279297"/>
      <use xlink:href="#Arial-BoldMT-6e" x="766.894531"/>
      <use xlink:href="#Arial-BoldMT-63" x="827.978516"/>
      <use xlink:href="#Arial-BoldMT-65" x="883.59375"/>
     </g>
    </g>
   </g>
   <g id="line2d_10">
    <path d="M 260.513189 126.792 
L 258.686186 126.792 
L 256.859184 126.792 
L 255.032181 126.792 
L 253.205179 126.792 
L 251.378176 80.231202 
L 249.551174 73.115869 
L 247.724171 58.640091 
L 245.897169 56.195423 
L 244.070166 62.26593 
L 242.243164 66.600429 
L 240.416161 70.551428 
L 238.589158 76.4806 
L 236.762156 75.156462 
L 234.935153 73.451592 
L 233.108151 80.489362 
L 231.281148 91.466212 
L 229.454146 91.434511 
L 227.627143 90.904079 
L 225.800141 89.066923 
L 223.973138 85.619653 
L 222.146136 91.537615 
L 220.319133 91.353248 
L 218.492131 93.992435 
L 216.665128 88.578194 
L 214.838125 84.112762 
L 213.011123 79.199899 
L 211.18412 81.155217 
L 209.357118 82.181691 
L 207.530115 78.696828 
L 205.703113 77.359841 
L 203.87611 78.009262 
L 202.049108 74.467701 
L 200.222105 72.528199 
L 198.395103 73.377513 
L 196.5681 62.614075 
L 194.741098 64.690589 
L 192.914095 64.586947 
L 191.087093 70.092456 
L 189.26009 68.299944 
L 187.433087 64.671268 
L 185.606085 62.555305 
L 183.779082 65.733301 
L 181.95208 67.928366 
L 180.125077 62.108086 
L 178.298075 64.532786 
L 176.471072 64.784308 
L 174.64407 62.822953 
L 172.817067 58.945149 
L 170.990065 57.060308 
L 169.163062 53.458743 
L 167.33606 58.725198 
L 165.509057 58.091891 
L 163.682054 58.364784 
L 161.855052 57.266617 
L 160.028049 58.217303 
L 158.201047 58.244729 
L 156.374044 60.216608 
L 154.547042 54.160768 
L 152.720039 54.148697 
L 150.893037 63.91269 
L 149.066034 58.886783 
L 147.239032 61.77723 
L 145.412029 61.406298 
L 143.585027 58.433339 
L 141.758024 62.50363 
L 139.931021 53.074678 
L 138.104019 48.956335 
L 136.277016 54.360204 
L 134.450014 58.15162 
L 132.623011 71.654591 
L 130.796009 59.09523 
L 128.969006 57.169531 
L 127.142004 59.883969 
L 125.315001 59.948378 
L 123.487999 59.922075 
L 121.660996 67.837555 
L 119.833994 54.789164 
L 118.006991 59.379737 
L 116.179989 57.678281 
L 114.352986 62.978169 
L 112.525983 62.596595 
L 110.698981 57.750187 
L 108.871978 64.099525 
L 107.044976 54.566058 
L 105.217973 63.533374 
L 103.390971 66.666599 
L 101.563968 70.945151 
L 99.736966 70.18224 
L 97.909963 72.31352 
L 96.082961 72.455527 
L 94.255958 71.154698 
L 92.428956 65.471827 
L 90.601953 68.38043 
L 88.77495 65.544609 
L 86.947948 65.076677 
L 85.120945 65.977848 
L 83.293943 57.712283 
L 81.46694 55.788415 
L 79.639938 62.788174 
L 77.812935 62.636974 
L 75.985933 65.772524 
L 74.15893 67.039851 
L 72.331928 55.43726 
L 70.504925 51.485889 
L 68.677923 76.233917 
L 66.85092 63.424422 
L 65.023917 69.186398 
L 63.196915 56.884265 
L 61.369912 66.540308 
L 59.54291 75.528518 
L 57.715907 65.680461 
L 55.888905 71.623071 
L 54.061902 67.752029 
" clip-path="url(#pba4d58c234)" style="fill: none; stroke: #ff00ff; stroke-opacity: 0.5; stroke-width: 0.5; stroke-linecap: square"/>
   </g>
   <g id="line2d_11">
    <path d="M 260.513189 126.792 
L 258.686186 126.792 
L 256.859184 126.792 
L 255.032181 126.792 
L 253.205179 126.792 
L 251.378176 88.661217 
L 249.551174 86.434924 
L 247.724171 80.393606 
L 245.897169 71.530437 
L 244.070166 77.986921 
L 242.243164 69.878174 
L 240.416161 72.006033 
L 238.589158 76.65053 
L 236.762156 83.726552 
L 234.935153 88.122716 
L 233.108151 84.206564 
L 231.281148 85.813287 
L 229.454146 81.900756 
L 227.627143 74.961488 
L 225.800141 68.32507 
L 223.973138 65.629475 
L 222.146136 69.029026 
L 220.319133 65.748841 
L 218.492131 69.862571 
L 216.665128 70.428862 
L 214.838125 75.363484 
L 213.011123 63.274846 
L 211.18412 78.059889 
L 209.357118 63.809807 
L 207.530115 74.6661 
L 205.703113 78.765578 
L 203.87611 77.384968 
L 202.049108 69.962618 
L 200.222105 63.904007 
L 198.395103 72.571504 
L 196.5681 63.29985 
L 194.741098 70.655412 
L 192.914095 66.843413 
L 191.087093 50.542346 
L 189.26009 56.411421 
L 187.433087 65.578747 
L 185.606085 66.550075 
L 183.779082 60.101365 
L 181.95208 72.449477 
L 180.125077 70.691641 
L 178.298075 66.233029 
L 176.471072 69.486318 
L 174.64407 72.955234 
L 172.817067 56.413887 
L 170.990065 67.658162 
L 169.163062 69.49146 
L 167.33606 65.615583 
L 165.509057 59.86366 
L 163.682054 67.304021 
L 161.855052 67.528785 
L 160.028049 78.559808 
L 158.201047 73.103111 
L 156.374044 66.221595 
L 154.547042 60.978338 
L 152.720039 71.079795 
L 150.893037 81.276907 
L 149.066034 63.636578 
L 147.239032 60.508127 
L 145.412029 65.574299 
L 143.585027 74.629532 
L 141.758024 66.700163 
L 139.931021 55.69147 
L 138.104019 65.708633 
L 136.277016 66.093287 
L 134.450014 68.286561 
L 132.623011 71.171182 
L 130.796009 73.791223 
L 128.969006 75.774372 
L 127.142004 74.455686 
L 125.315001 71.000299 
L 123.487999 73.508038 
L 121.660996 70.410579 
L 119.833994 64.137528 
L 118.006991 66.970652 
L 116.179989 64.577517 
L 114.352986 68.015051 
L 112.525983 72.840722 
L 110.698981 68.43967 
L 108.871978 85.460904 
L 107.044976 76.024623 
L 105.217973 53.718018 
L 103.390971 67.574341 
L 101.563968 69.785554 
L 99.736966 68.860427 
L 97.909963 69.155039 
L 96.082961 66.649146 
L 94.255958 72.237857 
L 92.428956 71.650073 
L 90.601953 65.491382 
L 88.77495 64.522974 
L 86.947948 69.941672 
L 85.120945 56.394932 
L 83.293943 68.149148 
L 81.46694 63.9367 
L 79.639938 65.826309 
L 77.812935 65.089374 
L 75.985933 67.193077 
L 74.15893 71.162838 
L 72.331928 74.106046 
L 70.504925 77.48021 
L 68.677923 87.80468 
L 66.85092 58.552167 
L 65.023917 53.076545 
L 63.196915 53.164849 
L 61.369912 60.241983 
L 59.54291 66.311313 
L 57.715907 79.790166 
L 55.888905 72.101544 
L 54.061902 55.347429 
" clip-path="url(#pba4d58c234)" style="fill: none; stroke: #ff00ff; stroke-opacity: 0.5; stroke-width: 0.5; stroke-linecap: square"/>
   </g>
   <g id="line2d_12">
    <path d="M 260.513189 126.792 
L 258.686186 126.792 
L 256.859184 126.792 
L 255.032181 126.792 
L 253.205179 126.792 
L 251.378176 87.235737 
L 249.551174 85.442791 
L 247.724171 78.023034 
L 245.897169 90.532285 
L 244.070166 92.360215 
L 242.243164 92.272741 
L 240.416161 95.240369 
L 238.589158 84.285035 
L 236.762156 90.432912 
L 234.935153 86.792642 
L 233.108151 88.978429 
L 231.281148 88.229282 
L 229.454146 78.727684 
L 227.627143 82.461009 
L 225.800141 80.768743 
L 223.973138 79.426511 
L 222.146136 86.80896 
L 220.319133 82.773961 
L 218.492131 81.251528 
L 216.665128 84.661728 
L 214.838125 77.2999 
L 213.011123 78.166155 
L 211.18412 71.702396 
L 209.357118 68.440178 
L 207.530115 69.377467 
L 205.703113 74.21512 
L 203.87611 70.683103 
L 202.049108 64.630552 
L 200.222105 70.924967 
L 198.395103 72.314044 
L 196.5681 74.757679 
L 194.741098 61.09288 
L 192.914095 63.428532 
L 191.087093 68.062549 
L 189.26009 67.983802 
L 187.433087 75.630206 
L 185.606085 70.73082 
L 183.779082 69.038531 
L 181.95208 70.921264 
L 180.125077 76.307189 
L 178.298075 75.154271 
L 176.471072 70.154942 
L 174.64407 72.615685 
L 172.817067 72.148375 
L 170.990065 77.39039 
L 169.163062 63.602236 
L 167.33606 68.413189 
L 165.509057 78.06376 
L 163.682054 69.023714 
L 161.855052 63.50859 
L 160.028049 74.652977 
L 158.201047 74.591214 
L 156.374044 71.683891 
L 154.547042 59.576891 
L 152.720039 69.724389 
L 150.893037 74.001261 
L 149.066034 61.738388 
L 147.239032 73.323312 
L 145.412029 67.620804 
L 143.585027 62.988822 
L 141.758024 69.360131 
L 139.931021 70.397795 
L 138.104019 68.021952 
L 136.277016 67.748921 
L 134.450014 74.984375 
L 132.623011 74.672078 
L 130.796009 70.40601 
L 128.969006 57.640997 
L 127.142004 59.17766 
L 125.315001 62.873014 
L 123.487999 68.100952 
L 121.660996 69.800664 
L 119.833994 73.500919 
L 118.006991 61.552802 
L 116.179989 68.097333 
L 114.352986 66.935539 
L 112.525983 67.95662 
L 110.698981 62.58501 
L 108.871978 72.404462 
L 107.044976 65.933708 
L 105.217973 57.331742 
L 103.390971 64.834825 
L 101.563968 69.237788 
L 99.736966 71.610244 
L 97.909963 65.476031 
L 96.082961 69.25731 
L 94.255958 60.138583 
L 92.428956 60.30707 
L 90.601953 66.495564 
L 88.77495 66.337987 
L 86.947948 63.865003 
L 85.120945 73.53739 
L 83.293943 75.570016 
L 81.46694 70.495867 
L 79.639938 74.622053 
L 77.812935 65.033915 
L 75.985933 72.26746 
L 74.15893 55.887723 
L 72.331928 53.797714 
L 70.504925 51.991721 
L 68.677923 68.501206 
L 66.85092 66.327633 
L 65.023917 67.295111 
L 63.196915 70.664631 
L 61.369912 64.364411 
L 59.54291 66.892007 
L 57.715907 69.051429 
L 55.888905 62.094917 
L 54.061902 68.252917 
" clip-path="url(#pba4d58c234)" style="fill: none; stroke: #ff00ff; stroke-opacity: 0.5; stroke-width: 0.5; stroke-linecap: square"/>
   </g>
   <g id="line2d_13">
    <path d="M 260.513189 126.792 
L 258.686186 126.792 
L 256.859184 126.792 
L 255.032181 126.792 
L 253.205179 126.792 
L 251.378176 59.455656 
L 249.551174 66.570988 
L 247.724171 81.046766 
L 245.897169 83.491434 
L 244.070166 77.420927 
L 242.243164 73.086428 
L 240.416161 69.135429 
L 238.589158 63.206257 
L 236.762156 64.530395 
L 234.935153 66.235265 
L 233.108151 59.197495 
L 231.281148 48.220646 
L 229.454146 48.252346 
L 227.627143 48.782778 
L 225.800141 50.619934 
L 223.973138 54.067205 
L 222.146136 48.149242 
L 220.319133 48.333609 
L 218.492131 45.694423 
L 216.665128 51.108663 
L 214.838125 55.574095 
L 213.011123 60.486959 
L 211.18412 58.53164 
L 209.357118 57.505166 
L 207.530115 60.990029 
L 205.703113 62.327016 
L 203.87611 61.677595 
L 202.049108 65.219157 
L 200.222105 67.158658 
L 198.395103 66.309344 
L 196.5681 77.072783 
L 194.741098 74.996268 
L 192.914095 75.09991 
L 191.087093 69.594401 
L 189.26009 71.386913 
L 187.433087 75.015589 
L 185.606085 77.131553 
L 183.779082 73.953556 
L 181.95208 71.758492 
L 180.125077 77.578772 
L 178.298075 75.154071 
L 176.471072 74.90255 
L 174.64407 76.863904 
L 172.817067 80.741708 
L 170.990065 82.626549 
L 169.163062 86.228115 
L 167.33606 80.961659 
L 165.509057 81.594967 
L 163.682054 81.322074 
L 161.855052 82.42024 
L 160.028049 81.469554 
L 158.201047 81.442128 
L 156.374044 79.470249 
L 154.547042 85.52609 
L 152.720039 85.538161 
L 150.893037 75.774167 
L 149.066034 80.800074 
L 147.239032 77.909627 
L 145.412029 78.280559 
L 143.585027 81.253518 
L 141.758024 77.183227 
L 139.931021 86.612179 
L 138.104019 90.730522 
L 136.277016 85.326653 
L 134.450014 81.535237 
L 132.623011 68.032267 
L 130.796009 80.591627 
L 128.969006 82.517326 
L 127.142004 79.802888 
L 125.315001 79.738479 
L 123.487999 79.764782 
L 121.660996 71.849302 
L 119.833994 84.897693 
L 118.006991 80.30712 
L 116.179989 82.008576 
L 114.352986 76.708688 
L 112.525983 77.090263 
L 110.698981 81.93667 
L 108.871978 75.587332 
L 107.044976 85.120799 
L 105.217973 76.153483 
L 103.390971 73.020258 
L 101.563968 68.741706 
L 99.736966 69.504617 
L 97.909963 67.373337 
L 96.082961 67.23133 
L 94.255958 68.532159 
L 92.428956 74.21503 
L 90.601953 71.306427 
L 88.77495 74.142248 
L 86.947948 74.61018 
L 85.120945 73.709009 
L 83.293943 81.974574 
L 81.46694 83.898443 
L 79.639938 76.898684 
L 77.812935 77.049884 
L 75.985933 73.914333 
L 74.15893 72.647006 
L 72.331928 84.249597 
L 70.504925 88.200968 
L 68.677923 63.45294 
L 66.85092 76.262436 
L 65.023917 70.500459 
L 63.196915 82.802592 
L 61.369912 73.146549 
L 59.54291 64.15834 
L 57.715907 74.006396 
L 55.888905 68.063786 
L 54.061902 71.934828 
" clip-path="url(#pba4d58c234)" style="fill: none; stroke: #00bfff; stroke-opacity: 0.5; stroke-width: 0.5; stroke-linecap: square"/>
   </g>
   <g id="line2d_14">
    <path d="M 260.513189 126.792 
L 258.686186 126.792 
L 256.859184 126.792 
L 255.032181 126.792 
L 253.205179 126.792 
L 251.378176 51.02564 
L 249.551174 53.251933 
L 247.724171 59.293251 
L 245.897169 68.156421 
L 244.070166 61.699937 
L 242.243164 69.808683 
L 240.416161 67.680825 
L 238.589158 63.036327 
L 236.762156 55.960305 
L 234.935153 51.564141 
L 233.108151 55.480293 
L 231.281148 53.873571 
L 229.454146 57.786101 
L 227.627143 64.725369 
L 225.800141 71.361787 
L 223.973138 74.057382 
L 222.146136 70.657831 
L 220.319133 73.938016 
L 218.492131 69.824286 
L 216.665128 69.257995 
L 214.838125 64.323373 
L 213.011123 76.412012 
L 211.18412 61.626968 
L 209.357118 75.877051 
L 207.530115 65.020757 
L 205.703113 60.921279 
L 203.87611 62.30189 
L 202.049108 69.724239 
L 200.222105 75.78285 
L 198.395103 67.115353 
L 196.5681 76.387007 
L 194.741098 69.031445 
L 192.914095 72.843444 
L 191.087093 89.144511 
L 189.26009 83.275436 
L 187.433087 74.10811 
L 185.606085 73.136782 
L 183.779082 79.585492 
L 181.95208 67.23738 
L 180.125077 68.995216 
L 178.298075 73.453828 
L 176.471072 70.200539 
L 174.64407 66.731623 
L 172.817067 83.27297 
L 170.990065 72.028695 
L 169.163062 70.195397 
L 167.33606 74.071274 
L 165.509057 79.823198 
L 163.682054 72.382836 
L 161.855052 72.158072 
L 160.028049 61.127049 
L 158.201047 66.583746 
L 156.374044 73.465262 
L 154.547042 78.708519 
L 152.720039 68.607062 
L 150.893037 58.40995 
L 149.066034 76.050279 
L 147.239032 79.17873 
L 145.412029 74.112558 
L 143.585027 65.057325 
L 141.758024 72.986694 
L 139.931021 83.995387 
L 138.104019 73.978225 
L 136.277016 73.59357 
L 134.450014 71.400296 
L 132.623011 68.515675 
L 130.796009 65.895634 
L 128.969006 63.912485 
L 127.142004 65.231171 
L 125.315001 68.686558 
L 123.487999 66.178819 
L 121.660996 69.276278 
L 119.833994 75.549329 
L 118.006991 72.716205 
L 116.179989 75.109341 
L 114.352986 71.671806 
L 112.525983 66.846135 
L 110.698981 71.247187 
L 108.871978 54.225953 
L 107.044976 63.662234 
L 105.217973 85.968839 
L 103.390971 72.112516 
L 101.563968 69.901303 
L 99.736966 70.82643 
L 97.909963 70.531818 
L 96.082961 73.037711 
L 94.255958 67.449 
L 92.428956 68.036784 
L 90.601953 74.195475 
L 88.77495 75.163883 
L 86.947948 69.745185 
L 85.120945 83.291925 
L 83.293943 71.537709 
L 81.46694 75.750158 
L 79.639938 73.860548 
L 77.812935 74.597483 
L 75.985933 72.49378 
L 74.15893 68.524019 
L 72.331928 65.580811 
L 70.504925 62.206647 
L 68.677923 51.882177 
L 66.85092 81.13469 
L 65.023917 86.610312 
L 63.196915 86.522008 
L 61.369912 79.444874 
L 59.54291 73.375544 
L 57.715907 59.896692 
L 55.888905 67.585313 
L 54.061902 84.339429 
" clip-path="url(#pba4d58c234)" style="fill: none; stroke: #00bfff; stroke-opacity: 0.5; stroke-width: 0.5; stroke-linecap: square"/>
   </g>
   <g id="line2d_15">
    <path d="M 260.513189 126.792 
L 258.686186 126.792 
L 256.859184 126.792 
L 255.032181 126.792 
L 253.205179 126.792 
L 251.378176 52.45112 
L 249.551174 54.244066 
L 247.724171 61.663823 
L 245.897169 49.154572 
L 244.070166 47.326642 
L 242.243164 47.414116 
L 240.416161 44.446488 
L 238.589158 55.401822 
L 236.762156 49.253945 
L 234.935153 52.894215 
L 233.108151 50.708428 
L 231.281148 51.457575 
L 229.454146 60.959173 
L 227.627143 57.225848 
L 225.800141 58.918115 
L 223.973138 60.260346 
L 222.146136 52.877898 
L 220.319133 56.912896 
L 218.492131 58.435329 
L 216.665128 55.025129 
L 214.838125 62.386957 
L 213.011123 61.520702 
L 211.18412 67.984461 
L 209.357118 71.246679 
L 207.530115 70.30939 
L 205.703113 65.471737 
L 203.87611 69.003754 
L 202.049108 75.056305 
L 200.222105 68.761891 
L 198.395103 67.372813 
L 196.5681 64.929178 
L 194.741098 78.593977 
L 192.914095 76.258325 
L 191.087093 71.624308 
L 189.26009 71.703055 
L 187.433087 64.056652 
L 185.606085 68.956037 
L 183.779082 70.648326 
L 181.95208 68.765593 
L 180.125077 63.379668 
L 178.298075 64.532586 
L 176.471072 69.531915 
L 174.64407 67.071172 
L 172.817067 67.538482 
L 170.990065 62.296467 
L 169.163062 76.084622 
L 167.33606 71.273668 
L 165.509057 61.623097 
L 163.682054 70.663143 
L 161.855052 76.178267 
L 160.028049 65.03388 
L 158.201047 65.095643 
L 156.374044 68.002966 
L 154.547042 80.109966 
L 152.720039 69.962468 
L 150.893037 65.685596 
L 149.066034 77.948469 
L 147.239032 66.363545 
L 145.412029 72.066053 
L 143.585027 76.698036 
L 141.758024 70.326726 
L 139.931021 69.289062 
L 138.104019 71.664905 
L 136.277016 71.937937 
L 134.450014 64.702482 
L 132.623011 65.014779 
L 130.796009 69.280847 
L 128.969006 82.04586 
L 127.142004 80.509197 
L 125.315001 76.813843 
L 123.487999 71.585906 
L 121.660996 69.886193 
L 119.833994 66.185939 
L 118.006991 78.134055 
L 116.179989 71.589524 
L 114.352986 72.751318 
L 112.525983 71.730237 
L 110.698981 77.101847 
L 108.871978 67.282395 
L 107.044976 73.75315 
L 105.217973 82.355115 
L 103.390971 74.852032 
L 101.563968 70.449069 
L 99.736966 68.076613 
L 97.909963 74.210827 
L 96.082961 70.429547 
L 94.255958 79.548274 
L 92.428956 79.379787 
L 90.601953 73.191293 
L 88.77495 73.34887 
L 86.947948 75.821855 
L 85.120945 66.149467 
L 83.293943 64.116841 
L 81.46694 69.19099 
L 79.639938 65.064804 
L 77.812935 74.652943 
L 75.985933 67.419397 
L 74.15893 83.799134 
L 72.331928 85.889143 
L 70.504925 87.695136 
L 68.677923 71.185651 
L 66.85092 73.359225 
L 65.023917 72.391746 
L 63.196915 69.022227 
L 61.369912 75.322446 
L 59.54291 72.79485 
L 57.715907 70.635429 
L 55.888905 77.59194 
L 54.061902 71.43394 
" clip-path="url(#pba4d58c234)" style="fill: none; stroke: #00bfff; stroke-opacity: 0.5; stroke-width: 0.5; stroke-linecap: square"/>
   </g>
   <g id="line2d_16">
    <path d="M 260.513189 126.792 
L 258.686186 126.792 
L 256.859184 126.792 
L 255.032181 126.792 
L 253.205179 126.792 
L 251.378176 85.376052 
L 249.551174 81.664528 
L 247.724171 72.352244 
L 245.897169 72.752715 
L 244.070166 77.537689 
L 242.243164 76.250448 
L 240.416161 79.265943 
L 238.589158 79.138722 
L 236.762156 83.105309 
L 234.935153 82.788983 
L 233.108151 84.558119 
L 231.281148 88.502927 
L 229.454146 84.020984 
L 227.627143 82.775525 
L 225.800141 79.386912 
L 223.973138 76.89188 
L 222.146136 82.458534 
L 220.319133 79.958683 
L 218.492131 81.702178 
L 216.665128 81.222928 
L 214.838125 78.925382 
L 213.011123 73.546966 
L 211.18412 76.972501 
L 209.357118 71.477225 
L 207.530115 74.246798 
L 205.703113 76.78018 
L 203.87611 75.359111 
L 202.049108 69.686957 
L 200.222105 69.119057 
L 198.395103 72.754354 
L 196.5681 66.890535 
L 194.741098 65.479627 
L 192.914095 64.952964 
L 191.087093 62.899117 
L 189.26009 64.231722 
L 187.433087 68.62674 
L 185.606085 66.612067 
L 183.779082 64.957732 
L 181.95208 70.433036 
L 180.125077 69.702305 
L 178.298075 68.640029 
L 176.471072 68.141856 
L 174.64407 69.464624 
L 172.817067 62.50247 
L 170.990065 67.36962 
L 169.163062 62.184146 
L 167.33606 64.251323 
L 165.509057 65.33977 
L 163.682054 64.897506 
L 161.855052 62.767998 
L 160.028049 70.476696 
L 158.201047 68.646351 
L 156.374044 66.040698 
L 154.547042 58.238665 
L 152.720039 64.984294 
L 150.893037 73.063619 
L 149.066034 61.420583 
L 147.239032 65.20289 
L 145.412029 64.867134 
L 143.585027 65.350564 
L 141.758024 66.187975 
L 139.931021 59.721314 
L 138.104019 60.89564 
L 136.277016 62.734137 
L 134.450014 67.140852 
L 132.623011 72.499284 
L 130.796009 67.764154 
L 128.969006 63.5283 
L 127.142004 64.505772 
L 125.315001 64.60723 
L 123.487999 67.177022 
L 121.660996 69.349599 
L 119.833994 64.142537 
L 118.006991 62.634397 
L 116.179989 63.451044 
L 114.352986 65.976253 
L 112.525983 67.797979 
L 110.698981 62.924955 
L 108.871978 73.988297 
L 107.044976 65.50813 
L 105.217973 58.194378 
L 103.390971 66.358588 
L 101.563968 69.989498 
L 99.736966 70.217637 
L 97.909963 68.98153 
L 96.082961 69.453994 
L 94.255958 67.843713 
L 92.428956 65.809657 
L 90.601953 66.789125 
L 88.77495 65.468523 
L 86.947948 66.294451 
L 85.120945 65.30339 
L 83.293943 67.143816 
L 81.46694 63.406994 
L 79.639938 67.745512 
L 77.812935 64.253421 
L 75.985933 68.41102 
L 74.15893 64.696804 
L 72.331928 61.113674 
L 70.504925 60.319273 
L 68.677923 77.513268 
L 66.85092 62.768074 
L 65.023917 63.186018 
L 63.196915 60.237915 
L 61.369912 63.715568 
L 59.54291 69.577279 
L 57.715907 71.507352 
L 55.888905 68.606511 
L 54.061902 63.784125 
" clip-path="url(#pba4d58c234)" style="fill: none; stroke: #ff00ff; stroke-width: 3; stroke-linecap: square"/>
   </g>
   <g id="line2d_17">
    <path d="M 260.513189 126.792 
L 258.686186 126.792 
L 256.859184 126.792 
L 255.032181 126.792 
L 253.205179 126.792 
L 251.378176 54.310805 
L 249.551174 58.022329 
L 247.724171 67.334613 
L 245.897169 66.934142 
L 244.070166 62.149169 
L 242.243164 63.436409 
L 240.416161 60.420914 
L 238.589158 60.548135 
L 236.762156 56.581548 
L 234.935153 56.897874 
L 233.108151 55.128739 
L 231.281148 51.18393 
L 229.454146 55.665874 
L 227.627143 56.911332 
L 225.800141 60.299945 
L 223.973138 62.794978 
L 222.146136 57.228324 
L 220.319133 59.728174 
L 218.492131 57.984679 
L 216.665128 58.463929 
L 214.838125 60.761475 
L 213.011123 66.139891 
L 211.18412 62.714356 
L 209.357118 68.209632 
L 207.530115 65.440059 
L 205.703113 62.906677 
L 203.87611 64.327746 
L 202.049108 69.9999 
L 200.222105 70.5678 
L 198.395103 66.932504 
L 196.5681 72.796323 
L 194.741098 74.20723 
L 192.914095 74.733893 
L 191.087093 76.78774 
L 189.26009 75.455135 
L 187.433087 71.060117 
L 185.606085 73.074791 
L 183.779082 74.729125 
L 181.95208 69.253822 
L 180.125077 69.984552 
L 178.298075 71.046829 
L 176.471072 71.545001 
L 174.64407 70.222233 
L 172.817067 77.184387 
L 170.990065 72.317237 
L 169.163062 77.502711 
L 167.33606 75.435534 
L 165.509057 74.347087 
L 163.682054 74.789351 
L 161.855052 76.91886 
L 160.028049 69.210161 
L 158.201047 71.040506 
L 156.374044 73.646159 
L 154.547042 81.448192 
L 152.720039 74.702564 
L 150.893037 66.623238 
L 149.066034 78.266274 
L 147.239032 74.483967 
L 145.412029 74.819723 
L 143.585027 74.336293 
L 141.758024 73.498882 
L 139.931021 79.965543 
L 138.104019 78.791217 
L 136.277016 76.95272 
L 134.450014 72.546005 
L 132.623011 67.187574 
L 130.796009 71.922703 
L 128.969006 76.158557 
L 127.142004 75.181085 
L 125.315001 75.079627 
L 123.487999 72.509836 
L 121.660996 70.337258 
L 119.833994 75.54432 
L 118.006991 77.05246 
L 116.179989 76.235813 
L 114.352986 73.710604 
L 112.525983 71.888878 
L 110.698981 76.761902 
L 108.871978 65.69856 
L 107.044976 74.178727 
L 105.217973 81.492479 
L 103.390971 73.328269 
L 101.563968 69.697359 
L 99.736966 69.46922 
L 97.909963 70.705327 
L 96.082961 70.232863 
L 94.255958 71.843144 
L 92.428956 73.8772 
L 90.601953 72.897732 
L 88.77495 74.218334 
L 86.947948 73.392406 
L 85.120945 74.383467 
L 83.293943 72.543041 
L 81.46694 76.279863 
L 79.639938 71.941345 
L 77.812935 75.433436 
L 75.985933 71.275837 
L 74.15893 74.990053 
L 72.331928 78.573184 
L 70.504925 79.367584 
L 68.677923 62.173589 
L 66.85092 76.918784 
L 65.023917 76.500839 
L 63.196915 79.448942 
L 61.369912 75.97129 
L 59.54291 70.109578 
L 57.715907 68.179505 
L 55.888905 71.080346 
L 54.061902 75.902732 
" clip-path="url(#pba4d58c234)" style="fill: none; stroke: #00bfff; stroke-width: 3; stroke-linecap: square"/>
   </g>
   <g id="line2d_18">
    <path d="M 260.513189 126.792 
L 258.686186 126.792 
L 256.859184 126.792 
L 255.032181 126.792 
L 253.205179 126.792 
L 251.378176 59.455656 
L 249.551174 66.570988 
L 247.724171 81.046766 
L 245.897169 83.491434 
L 244.070166 77.420927 
L 242.243164 73.086428 
L 240.416161 69.135429 
L 238.589158 63.206257 
L 236.762156 64.530395 
L 234.935153 66.235265 
L 233.108151 59.197495 
L 231.281148 48.220646 
L 229.454146 48.252346 
L 227.627143 48.782778 
L 225.800141 50.619934 
L 223.973138 54.067205 
L 222.146136 48.149242 
L 220.319133 48.333609 
L 218.492131 45.694423 
L 216.665128 51.108663 
L 214.838125 55.574095 
L 213.011123 60.486959 
L 211.18412 58.53164 
L 209.357118 57.505166 
L 207.530115 60.990029 
L 205.703113 62.327016 
L 203.87611 61.677595 
L 202.049108 65.219157 
L 200.222105 67.158658 
L 198.395103 66.309344 
L 196.5681 77.072783 
L 194.741098 74.996268 
L 192.914095 75.09991 
L 191.087093 69.594401 
L 189.26009 71.386913 
L 187.433087 75.015589 
L 185.606085 77.131553 
L 183.779082 73.953556 
L 181.95208 71.758492 
L 180.125077 77.578772 
L 178.298075 75.154071 
L 176.471072 74.90255 
L 174.64407 76.863904 
L 172.817067 80.741708 
L 170.990065 82.626549 
L 169.163062 86.228115 
L 167.33606 80.961659 
L 165.509057 81.594967 
L 163.682054 81.322074 
L 161.855052 82.42024 
L 160.028049 81.469554 
L 158.201047 81.442128 
L 156.374044 79.470249 
L 154.547042 85.52609 
L 152.720039 85.538161 
L 150.893037 75.774167 
L 149.066034 80.800074 
L 147.239032 77.909627 
L 145.412029 78.280559 
L 143.585027 81.253518 
L 141.758024 77.183227 
L 139.931021 86.612179 
L 138.104019 90.730522 
L 136.277016 85.326653 
L 134.450014 81.535237 
L 132.623011 68.032267 
L 130.796009 80.591627 
L 128.969006 82.517326 
L 127.142004 79.802888 
L 125.315001 79.738479 
L 123.487999 79.764782 
L 121.660996 71.849302 
L 119.833994 84.897693 
L 118.006991 80.30712 
L 116.179989 82.008576 
L 114.352986 76.708688 
L 112.525983 77.090263 
L 110.698981 81.93667 
L 108.871978 75.587332 
L 107.044976 85.120799 
L 105.217973 76.153483 
L 103.390971 73.020258 
L 101.563968 68.741706 
L 99.736966 69.504617 
L 97.909963 67.373337 
L 96.082961 67.23133 
L 94.255958 68.532159 
L 92.428956 74.21503 
L 90.601953 71.306427 
L 88.77495 74.142248 
L 86.947948 74.61018 
L 85.120945 73.709009 
L 83.293943 81.974574 
L 81.46694 83.898443 
L 79.639938 76.898684 
L 77.812935 77.049884 
L 75.985933 73.914333 
L 74.15893 72.647006 
L 72.331928 84.249597 
L 70.504925 88.200968 
L 68.677923 63.45294 
L 66.85092 76.262436 
L 65.023917 70.500459 
L 63.196915 82.802592 
L 61.369912 73.146549 
L 59.54291 64.15834 
L 57.715907 74.006396 
L 55.888905 68.063786 
L 54.061902 71.934828 
" clip-path="url(#pba4d58c234)" style="fill: none; stroke: #ff8c00; stroke-opacity: 0.5; stroke-width: 0.5; stroke-linecap: square"/>
   </g>
   <g id="line2d_19">
    <path d="M 260.513189 126.792 
L 258.686186 126.792 
L 256.859184 126.792 
L 255.032181 126.792 
L 253.205179 126.792 
L 251.378176 51.02564 
L 249.551174 53.251933 
L 247.724171 59.293251 
L 245.897169 68.156421 
L 244.070166 61.699937 
L 242.243164 69.808683 
L 240.416161 67.680825 
L 238.589158 63.036327 
L 236.762156 55.960305 
L 234.935153 51.564141 
L 233.108151 55.480293 
L 231.281148 53.873571 
L 229.454146 57.786101 
L 227.627143 64.725369 
L 225.800141 71.361787 
L 223.973138 74.057382 
L 222.146136 70.657831 
L 220.319133 73.938016 
L 218.492131 69.824286 
L 216.665128 69.257995 
L 214.838125 64.323373 
L 213.011123 76.412012 
L 211.18412 61.626968 
L 209.357118 75.877051 
L 207.530115 65.020757 
L 205.703113 60.921279 
L 203.87611 62.30189 
L 202.049108 69.724239 
L 200.222105 75.78285 
L 198.395103 67.115353 
L 196.5681 76.387007 
L 194.741098 69.031445 
L 192.914095 72.843444 
L 191.087093 89.144511 
L 189.26009 83.275436 
L 187.433087 74.10811 
L 185.606085 73.136782 
L 183.779082 79.585492 
L 181.95208 67.23738 
L 180.125077 68.995216 
L 178.298075 73.453828 
L 176.471072 70.200539 
L 174.64407 66.731623 
L 172.817067 83.27297 
L 170.990065 72.028695 
L 169.163062 70.195397 
L 167.33606 74.071274 
L 165.509057 79.823198 
L 163.682054 72.382836 
L 161.855052 72.158072 
L 160.028049 61.127049 
L 158.201047 66.583746 
L 156.374044 73.465262 
L 154.547042 78.708519 
L 152.720039 68.607062 
L 150.893037 58.40995 
L 149.066034 76.050279 
L 147.239032 79.17873 
L 145.412029 74.112558 
L 143.585027 65.057325 
L 141.758024 72.986694 
L 139.931021 83.995387 
L 138.104019 73.978225 
L 136.277016 73.59357 
L 134.450014 71.400296 
L 132.623011 68.515675 
L 130.796009 65.895634 
L 128.969006 63.912485 
L 127.142004 65.231171 
L 125.315001 68.686558 
L 123.487999 66.178819 
L 121.660996 69.276278 
L 119.833994 75.549329 
L 118.006991 72.716205 
L 116.179989 75.109341 
L 114.352986 71.671806 
L 112.525983 66.846135 
L 110.698981 71.247187 
L 108.871978 54.225953 
L 107.044976 63.662234 
L 105.217973 85.968839 
L 103.390971 72.112516 
L 101.563968 69.901303 
L 99.736966 70.82643 
L 97.909963 70.531818 
L 96.082961 73.037711 
L 94.255958 67.449 
L 92.428956 68.036784 
L 90.601953 74.195475 
L 88.77495 75.163883 
L 86.947948 69.745185 
L 85.120945 83.291925 
L 83.293943 71.537709 
L 81.46694 75.750158 
L 79.639938 73.860548 
L 77.812935 74.597483 
L 75.985933 72.49378 
L 74.15893 68.524019 
L 72.331928 65.580811 
L 70.504925 62.206647 
L 68.677923 51.882177 
L 66.85092 81.13469 
L 65.023917 86.610312 
L 63.196915 86.522008 
L 61.369912 79.444874 
L 59.54291 73.375544 
L 57.715907 59.896692 
L 55.888905 67.585313 
L 54.061902 84.339429 
" clip-path="url(#pba4d58c234)" style="fill: none; stroke: #ff8c00; stroke-opacity: 0.5; stroke-width: 0.5; stroke-linecap: square"/>
   </g>
   <g id="line2d_20">
    <path d="M 260.513189 126.792 
L 258.686186 126.792 
L 256.859184 126.792 
L 255.032181 126.792 
L 253.205179 126.792 
L 251.378176 52.45112 
L 249.551174 54.244066 
L 247.724171 61.663823 
L 245.897169 49.154572 
L 244.070166 47.326642 
L 242.243164 47.414116 
L 240.416161 44.446488 
L 238.589158 55.401822 
L 236.762156 49.253945 
L 234.935153 52.894215 
L 233.108151 50.708428 
L 231.281148 51.457575 
L 229.454146 60.959173 
L 227.627143 57.225848 
L 225.800141 58.918115 
L 223.973138 60.260346 
L 222.146136 52.877898 
L 220.319133 56.912896 
L 218.492131 58.435329 
L 216.665128 55.025129 
L 214.838125 62.386957 
L 213.011123 61.520702 
L 211.18412 67.984461 
L 209.357118 71.246679 
L 207.530115 70.30939 
L 205.703113 65.471737 
L 203.87611 69.003754 
L 202.049108 75.056305 
L 200.222105 68.761891 
L 198.395103 67.372813 
L 196.5681 64.929178 
L 194.741098 78.593977 
L 192.914095 76.258325 
L 191.087093 71.624308 
L 189.26009 71.703055 
L 187.433087 64.056652 
L 185.606085 68.956037 
L 183.779082 70.648326 
L 181.95208 68.765593 
L 180.125077 63.379668 
L 178.298075 64.532586 
L 176.471072 69.531915 
L 174.64407 67.071172 
L 172.817067 67.538482 
L 170.990065 62.296467 
L 169.163062 76.084622 
L 167.33606 71.273668 
L 165.509057 61.623097 
L 163.682054 70.663143 
L 161.855052 76.178267 
L 160.028049 65.03388 
L 158.201047 65.095643 
L 156.374044 68.002966 
L 154.547042 80.109966 
L 152.720039 69.962468 
L 150.893037 65.685596 
L 149.066034 77.948469 
L 147.239032 66.363545 
L 145.412029 72.066053 
L 143.585027 76.698036 
L 141.758024 70.326726 
L 139.931021 69.289062 
L 138.104019 71.664905 
L 136.277016 71.937937 
L 134.450014 64.702482 
L 132.623011 65.014779 
L 130.796009 69.280847 
L 128.969006 82.04586 
L 127.142004 80.509197 
L 125.315001 76.813843 
L 123.487999 71.585906 
L 121.660996 69.886193 
L 119.833994 66.185939 
L 118.006991 78.134055 
L 116.179989 71.589524 
L 114.352986 72.751318 
L 112.525983 71.730237 
L 110.698981 77.101847 
L 108.871978 67.282395 
L 107.044976 73.75315 
L 105.217973 82.355115 
L 103.390971 74.852032 
L 101.563968 70.449069 
L 99.736966 68.076613 
L 97.909963 74.210827 
L 96.082961 70.429547 
L 94.255958 79.548274 
L 92.428956 79.379787 
L 90.601953 73.191293 
L 88.77495 73.34887 
L 86.947948 75.821855 
L 85.120945 66.149467 
L 83.293943 64.116841 
L 81.46694 69.19099 
L 79.639938 65.064804 
L 77.812935 74.652943 
L 75.985933 67.419397 
L 74.15893 83.799134 
L 72.331928 85.889143 
L 70.504925 87.695136 
L 68.677923 71.185651 
L 66.85092 73.359225 
L 65.023917 72.391746 
L 63.196915 69.022227 
L 61.369912 75.322446 
L 59.54291 72.79485 
L 57.715907 70.635429 
L 55.888905 77.59194 
L 54.061902 71.43394 
" clip-path="url(#pba4d58c234)" style="fill: none; stroke: #ff8c00; stroke-opacity: 0.5; stroke-width: 0.5; stroke-linecap: square"/>
   </g>
   <g id="line2d_21">
    <path d="M 260.513189 126.792 
L 258.686186 126.792 
L 256.859184 126.792 
L 255.032181 126.792 
L 253.205179 126.792 
L 251.378176 80.231202 
L 249.551174 73.115869 
L 247.724171 58.640091 
L 245.897169 56.195423 
L 244.070166 62.26593 
L 242.243164 66.600429 
L 240.416161 70.551428 
L 238.589158 76.4806 
L 236.762156 75.156462 
L 234.935153 73.451592 
L 233.108151 80.489362 
L 231.281148 91.466212 
L 229.454146 91.434511 
L 227.627143 90.904079 
L 225.800141 89.066923 
L 223.973138 85.619653 
L 222.146136 91.537615 
L 220.319133 91.353248 
L 218.492131 93.992435 
L 216.665128 88.578194 
L 214.838125 84.112762 
L 213.011123 79.199899 
L 211.18412 81.155217 
L 209.357118 82.181691 
L 207.530115 78.696828 
L 205.703113 77.359841 
L 203.87611 78.009262 
L 202.049108 74.467701 
L 200.222105 72.528199 
L 198.395103 73.377513 
L 196.5681 62.614075 
L 194.741098 64.690589 
L 192.914095 64.586947 
L 191.087093 70.092456 
L 189.26009 68.299944 
L 187.433087 64.671268 
L 185.606085 62.555305 
L 183.779082 65.733301 
L 181.95208 67.928366 
L 180.125077 62.108086 
L 178.298075 64.532786 
L 176.471072 64.784308 
L 174.64407 62.822953 
L 172.817067 58.945149 
L 170.990065 57.060308 
L 169.163062 53.458743 
L 167.33606 58.725198 
L 165.509057 58.091891 
L 163.682054 58.364784 
L 161.855052 57.266617 
L 160.028049 58.217303 
L 158.201047 58.244729 
L 156.374044 60.216608 
L 154.547042 54.160768 
L 152.720039 54.148697 
L 150.893037 63.91269 
L 149.066034 58.886783 
L 147.239032 61.77723 
L 145.412029 61.406298 
L 143.585027 58.433339 
L 141.758024 62.50363 
L 139.931021 53.074678 
L 138.104019 48.956335 
L 136.277016 54.360204 
L 134.450014 58.15162 
L 132.623011 71.654591 
L 130.796009 59.09523 
L 128.969006 57.169531 
L 127.142004 59.883969 
L 125.315001 59.948378 
L 123.487999 59.922075 
L 121.660996 67.837555 
L 119.833994 54.789164 
L 118.006991 59.379737 
L 116.179989 57.678281 
L 114.352986 62.978169 
L 112.525983 62.596595 
L 110.698981 57.750187 
L 108.871978 64.099525 
L 107.044976 54.566058 
L 105.217973 63.533374 
L 103.390971 66.666599 
L 101.563968 70.945151 
L 99.736966 70.18224 
L 97.909963 72.31352 
L 96.082961 72.455527 
L 94.255958 71.154698 
L 92.428956 65.471827 
L 90.601953 68.38043 
L 88.77495 65.544609 
L 86.947948 65.076677 
L 85.120945 65.977848 
L 83.293943 57.712283 
L 81.46694 55.788415 
L 79.639938 62.788174 
L 77.812935 62.636974 
L 75.985933 65.772524 
L 74.15893 67.039851 
L 72.331928 55.43726 
L 70.504925 51.485889 
L 68.677923 76.233917 
L 66.85092 63.424422 
L 65.023917 69.186398 
L 63.196915 56.884265 
L 61.369912 66.540308 
L 59.54291 75.528518 
L 57.715907 65.680461 
L 55.888905 71.623071 
L 54.061902 67.752029 
" clip-path="url(#pba4d58c234)" style="fill: none; stroke: #ff00ff; stroke-opacity: 0.5; stroke-width: 0.5; stroke-linecap: square"/>
   </g>
   <g id="line2d_22">
    <path d="M 260.513189 126.792 
L 258.686186 126.792 
L 256.859184 126.792 
L 255.032181 126.792 
L 253.205179 126.792 
L 251.378176 88.661217 
L 249.551174 86.434924 
L 247.724171 80.393606 
L 245.897169 71.530437 
L 244.070166 77.986921 
L 242.243164 69.878174 
L 240.416161 72.006033 
L 238.589158 76.65053 
L 236.762156 83.726552 
L 234.935153 88.122716 
L 233.108151 84.206564 
L 231.281148 85.813287 
L 229.454146 81.900756 
L 227.627143 74.961488 
L 225.800141 68.32507 
L 223.973138 65.629475 
L 222.146136 69.029026 
L 220.319133 65.748841 
L 218.492131 69.862571 
L 216.665128 70.428862 
L 214.838125 75.363484 
L 213.011123 63.274846 
L 211.18412 78.059889 
L 209.357118 63.809807 
L 207.530115 74.6661 
L 205.703113 78.765578 
L 203.87611 77.384968 
L 202.049108 69.962618 
L 200.222105 63.904007 
L 198.395103 72.571504 
L 196.5681 63.29985 
L 194.741098 70.655412 
L 192.914095 66.843413 
L 191.087093 50.542346 
L 189.26009 56.411421 
L 187.433087 65.578747 
L 185.606085 66.550075 
L 183.779082 60.101365 
L 181.95208 72.449477 
L 180.125077 70.691641 
L 178.298075 66.233029 
L 176.471072 69.486318 
L 174.64407 72.955234 
L 172.817067 56.413887 
L 170.990065 67.658162 
L 169.163062 69.49146 
L 167.33606 65.615583 
L 165.509057 59.86366 
L 163.682054 67.304021 
L 161.855052 67.528785 
L 160.028049 78.559808 
L 158.201047 73.103111 
L 156.374044 66.221595 
L 154.547042 60.978338 
L 152.720039 71.079795 
L 150.893037 81.276907 
L 149.066034 63.636578 
L 147.239032 60.508127 
L 145.412029 65.574299 
L 143.585027 74.629532 
L 141.758024 66.700163 
L 139.931021 55.69147 
L 138.104019 65.708633 
L 136.277016 66.093287 
L 134.450014 68.286561 
L 132.623011 71.171182 
L 130.796009 73.791223 
L 128.969006 75.774372 
L 127.142004 74.455686 
L 125.315001 71.000299 
L 123.487999 73.508038 
L 121.660996 70.410579 
L 119.833994 64.137528 
L 118.006991 66.970652 
L 116.179989 64.577517 
L 114.352986 68.015051 
L 112.525983 72.840722 
L 110.698981 68.43967 
L 108.871978 85.460904 
L 107.044976 76.024623 
L 105.217973 53.718018 
L 103.390971 67.574341 
L 101.563968 69.785554 
L 99.736966 68.860427 
L 97.909963 69.155039 
L 96.082961 66.649146 
L 94.255958 72.237857 
L 92.428956 71.650073 
L 90.601953 65.491382 
L 88.77495 64.522974 
L 86.947948 69.941672 
L 85.120945 56.394932 
L 83.293943 68.149148 
L 81.46694 63.9367 
L 79.639938 65.826309 
L 77.812935 65.089374 
L 75.985933 67.193077 
L 74.15893 71.162838 
L 72.331928 74.106046 
L 70.504925 77.48021 
L 68.677923 87.80468 
L 66.85092 58.552167 
L 65.023917 53.076545 
L 63.196915 53.164849 
L 61.369912 60.241983 
L 59.54291 66.311313 
L 57.715907 79.790166 
L 55.888905 72.101544 
L 54.061902 55.347429 
" clip-path="url(#pba4d58c234)" style="fill: none; stroke: #ff00ff; stroke-opacity: 0.5; stroke-width: 0.5; stroke-linecap: square"/>
   </g>
   <g id="line2d_23">
    <path d="M 260.513189 126.792 
L 258.686186 126.792 
L 256.859184 126.792 
L 255.032181 126.792 
L 253.205179 126.792 
L 251.378176 87.235737 
L 249.551174 85.442791 
L 247.724171 78.023034 
L 245.897169 90.532285 
L 244.070166 92.360215 
L 242.243164 92.272741 
L 240.416161 95.240369 
L 238.589158 84.285035 
L 236.762156 90.432912 
L 234.935153 86.792642 
L 233.108151 88.978429 
L 231.281148 88.229282 
L 229.454146 78.727684 
L 227.627143 82.461009 
L 225.800141 80.768743 
L 223.973138 79.426511 
L 222.146136 86.80896 
L 220.319133 82.773961 
L 218.492131 81.251528 
L 216.665128 84.661728 
L 214.838125 77.2999 
L 213.011123 78.166155 
L 211.18412 71.702396 
L 209.357118 68.440178 
L 207.530115 69.377467 
L 205.703113 74.21512 
L 203.87611 70.683103 
L 202.049108 64.630552 
L 200.222105 70.924967 
L 198.395103 72.314044 
L 196.5681 74.757679 
L 194.741098 61.09288 
L 192.914095 63.428532 
L 191.087093 68.062549 
L 189.26009 67.983802 
L 187.433087 75.630206 
L 185.606085 70.73082 
L 183.779082 69.038531 
L 181.95208 70.921264 
L 180.125077 76.307189 
L 178.298075 75.154271 
L 176.471072 70.154942 
L 174.64407 72.615685 
L 172.817067 72.148375 
L 170.990065 77.39039 
L 169.163062 63.602236 
L 167.33606 68.413189 
L 165.509057 78.06376 
L 163.682054 69.023714 
L 161.855052 63.50859 
L 160.028049 74.652977 
L 158.201047 74.591214 
L 156.374044 71.683891 
L 154.547042 59.576891 
L 152.720039 69.724389 
L 150.893037 74.001261 
L 149.066034 61.738388 
L 147.239032 73.323312 
L 145.412029 67.620804 
L 143.585027 62.988822 
L 141.758024 69.360131 
L 139.931021 70.397795 
L 138.104019 68.021952 
L 136.277016 67.748921 
L 134.450014 74.984375 
L 132.623011 74.672078 
L 130.796009 70.40601 
L 128.969006 57.640997 
L 127.142004 59.17766 
L 125.315001 62.873014 
L 123.487999 68.100952 
L 121.660996 69.800664 
L 119.833994 73.500919 
L 118.006991 61.552802 
L 116.179989 68.097333 
L 114.352986 66.935539 
L 112.525983 67.95662 
L 110.698981 62.58501 
L 108.871978 72.404462 
L 107.044976 65.933708 
L 105.217973 57.331742 
L 103.390971 64.834825 
L 101.563968 69.237788 
L 99.736966 71.610244 
L 97.909963 65.476031 
L 96.082961 69.25731 
L 94.255958 60.138583 
L 92.428956 60.30707 
L 90.601953 66.495564 
L 88.77495 66.337987 
L 86.947948 63.865003 
L 85.120945 73.53739 
L 83.293943 75.570016 
L 81.46694 70.495867 
L 79.639938 74.622053 
L 77.812935 65.033915 
L 75.985933 72.26746 
L 74.15893 55.887723 
L 72.331928 53.797714 
L 70.504925 51.991721 
L 68.677923 68.501206 
L 66.85092 66.327633 
L 65.023917 67.295111 
L 63.196915 70.664631 
L 61.369912 64.364411 
L 59.54291 66.892007 
L 57.715907 69.051429 
L 55.888905 62.094917 
L 54.061902 68.252917 
" clip-path="url(#pba4d58c234)" style="fill: none; stroke: #ff00ff; stroke-opacity: 0.5; stroke-width: 0.5; stroke-linecap: square"/>
   </g>
   <g id="line2d_24">
    <path d="M 260.513189 126.792 
L 258.686186 126.792 
L 256.859184 126.792 
L 255.032181 126.792 
L 253.205179 126.792 
L 251.378176 54.310805 
L 249.551174 58.022329 
L 247.724171 67.334613 
L 245.897169 66.934142 
L 244.070166 62.149169 
L 242.243164 63.436409 
L 240.416161 60.420914 
L 238.589158 60.548135 
L 236.762156 56.581548 
L 234.935153 56.897874 
L 233.108151 55.128739 
L 231.281148 51.18393 
L 229.454146 55.665874 
L 227.627143 56.911332 
L 225.800141 60.299945 
L 223.973138 62.794978 
L 222.146136 57.228324 
L 220.319133 59.728174 
L 218.492131 57.984679 
L 216.665128 58.463929 
L 214.838125 60.761475 
L 213.011123 66.139891 
L 211.18412 62.714356 
L 209.357118 68.209632 
L 207.530115 65.440059 
L 205.703113 62.906677 
L 203.87611 64.327746 
L 202.049108 69.9999 
L 200.222105 70.5678 
L 198.395103 66.932504 
L 196.5681 72.796323 
L 194.741098 74.20723 
L 192.914095 74.733893 
L 191.087093 76.78774 
L 189.26009 75.455135 
L 187.433087 71.060117 
L 185.606085 73.074791 
L 183.779082 74.729125 
L 181.95208 69.253822 
L 180.125077 69.984552 
L 178.298075 71.046829 
L 176.471072 71.545001 
L 174.64407 70.222233 
L 172.817067 77.184387 
L 170.990065 72.317237 
L 169.163062 77.502711 
L 167.33606 75.435534 
L 165.509057 74.347087 
L 163.682054 74.789351 
L 161.855052 76.91886 
L 160.028049 69.210161 
L 158.201047 71.040506 
L 156.374044 73.646159 
L 154.547042 81.448192 
L 152.720039 74.702564 
L 150.893037 66.623238 
L 149.066034 78.266274 
L 147.239032 74.483967 
L 145.412029 74.819723 
L 143.585027 74.336293 
L 141.758024 73.498882 
L 139.931021 79.965543 
L 138.104019 78.791217 
L 136.277016 76.95272 
L 134.450014 72.546005 
L 132.623011 67.187574 
L 130.796009 71.922703 
L 128.969006 76.158557 
L 127.142004 75.181085 
L 125.315001 75.079627 
L 123.487999 72.509836 
L 121.660996 70.337258 
L 119.833994 75.54432 
L 118.006991 77.05246 
L 116.179989 76.235813 
L 114.352986 73.710604 
L 112.525983 71.888878 
L 110.698981 76.761902 
L 108.871978 65.69856 
L 107.044976 74.178727 
L 105.217973 81.492479 
L 103.390971 73.328269 
L 101.563968 69.697359 
L 99.736966 69.46922 
L 97.909963 70.705327 
L 96.082961 70.232863 
L 94.255958 71.843144 
L 92.428956 73.8772 
L 90.601953 72.897732 
L 88.77495 74.218334 
L 86.947948 73.392406 
L 85.120945 74.383467 
L 83.293943 72.543041 
L 81.46694 76.279863 
L 79.639938 71.941345 
L 77.812935 75.433436 
L 75.985933 71.275837 
L 74.15893 74.990053 
L 72.331928 78.573184 
L 70.504925 79.367584 
L 68.677923 62.173589 
L 66.85092 76.918784 
L 65.023917 76.500839 
L 63.196915 79.448942 
L 61.369912 75.97129 
L 59.54291 70.109578 
L 57.715907 68.179505 
L 55.888905 71.080346 
L 54.061902 75.902732 
" clip-path="url(#pba4d58c234)" style="fill: none; stroke: #ff8c00; stroke-width: 4; stroke-linecap: square"/>
   </g>
   <g id="line2d_25">
    <path d="M 260.513189 126.792 
L 258.686186 126.792 
L 256.859184 126.792 
L 255.032181 126.792 
L 253.205179 126.792 
L 251.378176 85.376052 
L 249.551174 81.664528 
L 247.724171 72.352244 
L 245.897169 72.752715 
L 244.070166 77.537689 
L 242.243164 76.250448 
L 240.416161 79.265943 
L 238.589158 79.138722 
L 236.762156 83.105309 
L 234.935153 82.788983 
L 233.108151 84.558119 
L 231.281148 88.502927 
L 229.454146 84.020984 
L 227.627143 82.775525 
L 225.800141 79.386912 
L 223.973138 76.89188 
L 222.146136 82.458534 
L 220.319133 79.958683 
L 218.492131 81.702178 
L 216.665128 81.222928 
L 214.838125 78.925382 
L 213.011123 73.546966 
L 211.18412 76.972501 
L 209.357118 71.477225 
L 207.530115 74.246798 
L 205.703113 76.78018 
L 203.87611 75.359111 
L 202.049108 69.686957 
L 200.222105 69.119057 
L 198.395103 72.754354 
L 196.5681 66.890535 
L 194.741098 65.479627 
L 192.914095 64.952964 
L 191.087093 62.899117 
L 189.26009 64.231722 
L 187.433087 68.62674 
L 185.606085 66.612067 
L 183.779082 64.957732 
L 181.95208 70.433036 
L 180.125077 69.702305 
L 178.298075 68.640029 
L 176.471072 68.141856 
L 174.64407 69.464624 
L 172.817067 62.50247 
L 170.990065 67.36962 
L 169.163062 62.184146 
L 167.33606 64.251323 
L 165.509057 65.33977 
L 163.682054 64.897506 
L 161.855052 62.767998 
L 160.028049 70.476696 
L 158.201047 68.646351 
L 156.374044 66.040698 
L 154.547042 58.238665 
L 152.720039 64.984294 
L 150.893037 73.063619 
L 149.066034 61.420583 
L 147.239032 65.20289 
L 145.412029 64.867134 
L 143.585027 65.350564 
L 141.758024 66.187975 
L 139.931021 59.721314 
L 138.104019 60.89564 
L 136.277016 62.734137 
L 134.450014 67.140852 
L 132.623011 72.499284 
L 130.796009 67.764154 
L 128.969006 63.5283 
L 127.142004 64.505772 
L 125.315001 64.60723 
L 123.487999 67.177022 
L 121.660996 69.349599 
L 119.833994 64.142537 
L 118.006991 62.634397 
L 116.179989 63.451044 
L 114.352986 65.976253 
L 112.525983 67.797979 
L 110.698981 62.924955 
L 108.871978 73.988297 
L 107.044976 65.50813 
L 105.217973 58.194378 
L 103.390971 66.358588 
L 101.563968 69.989498 
L 99.736966 70.217637 
L 97.909963 68.98153 
L 96.082961 69.453994 
L 94.255958 67.843713 
L 92.428956 65.809657 
L 90.601953 66.789125 
L 88.77495 65.468523 
L 86.947948 66.294451 
L 85.120945 65.30339 
L 83.293943 67.143816 
L 81.46694 63.406994 
L 79.639938 67.745512 
L 77.812935 64.253421 
L 75.985933 68.41102 
L 74.15893 64.696804 
L 72.331928 61.113674 
L 70.504925 60.319273 
L 68.677923 77.513268 
L 66.85092 62.768074 
L 65.023917 63.186018 
L 63.196915 60.237915 
L 61.369912 63.715568 
L 59.54291 69.577279 
L 57.715907 71.507352 
L 55.888905 68.606511 
L 54.061902 63.784125 
" clip-path="url(#pba4d58c234)" style="fill: none; stroke: #ff00ff; stroke-width: 4; stroke-linecap: square"/>
   </g>
   <g id="line2d_26">
    <path d="M 251.378176 126.792 
L 251.378176 7.2 
" clip-path="url(#pba4d58c234)" style="fill: none; stroke-dasharray: 1.5,2.475; stroke-dashoffset: 0; stroke: #000000; stroke-width: 1.5"/>
   </g>
   <g id="patch_3">
    <path d="M 53.94375 126.792 
L 53.94375 7.2 
" style="fill: none; stroke: #000000; stroke-linejoin: miter; stroke-linecap: square"/>
   </g>
   <g id="patch_4">
    <path d="M 260.40375 126.792 
L 260.40375 7.2 
" style="fill: none"/>
   </g>
   <g id="patch_5">
    <path d="M 53.94375 126.792 
L 260.40375 126.792 
" style="fill: none; stroke: #000000; stroke-linejoin: miter; stroke-linecap: square"/>
   </g>
   <g id="patch_6">
    <path d="M 53.94375 7.2 
L 260.40375 7.2 
" style="fill: none"/>
   </g>
   <g id="legend_1">
    <g id="patch_7">
     <path d="M 60.94375 121.792 
L 119.44375 121.792 
Q 121.44375 121.792 121.44375 119.792 
L 121.44375 91.413875 
Q 121.44375 89.413875 119.44375 89.413875 
L 60.94375 89.413875 
Q 58.94375 89.413875 58.94375 91.413875 
L 58.94375 119.792 
Q 58.94375 121.792 60.94375 121.792 
z
" style="fill: #ffffff; opacity: 0.8; stroke: #cccccc; stroke-linejoin: miter"/>
    </g>
    <g id="line2d_27">
     <path d="M 62.94375 97.512313 
L 72.94375 97.512313 
L 82.94375 97.512313 
" style="fill: none; stroke: #ff00ff; stroke-width: 4; stroke-linecap: square"/>
    </g>
    <g id="text_10">
     <!-- WT -->
     <g transform="translate(90.94375 101.012313) scale(0.1 -0.1)">
      <defs>
       <path id="DejaVuSans-57" d="M 213 4666 
L 850 4666 
L 1831 722 
L 2809 4666 
L 3519 4666 
L 4500 722 
L 5478 4666 
L 6119 4666 
L 4947 0 
L 4153 0 
L 3169 4050 
L 2175 0 
L 1381 0 
L 213 4666 
z
" transform="scale(0.015625)"/>
       <path id="DejaVuSans-54" d="M -19 4666 
L 3928 4666 
L 3928 4134 
L 2272 4134 
L 2272 0 
L 1638 0 
L 1638 4134 
L -19 4134 
L -19 4666 
z
" transform="scale(0.015625)"/>
      </defs>
      <use xlink:href="#DejaVuSans-57"/>
      <use xlink:href="#DejaVuSans-54" x="98.876953"/>
     </g>
    </g>
    <g id="line2d_28">
     <path d="M 62.94375 112.192 
L 72.94375 112.192 
L 82.94375 112.192 
" style="fill: none; stroke: #ff8c00; stroke-width: 4; stroke-linecap: square"/>
    </g>
    <g id="text_11">
     <!-- $\Delta\mathit{pilG}$ -->
     <g transform="translate(90.94375 115.692) scale(0.1 -0.1)">
      <defs>
       <path id="DejaVuSans-394" d="M 2188 4044 
L 906 525 
L 3472 525 
L 2188 4044 
z
M 50 0 
L 1831 4666 
L 2547 4666 
L 4325 0 
L 50 0 
z
" transform="scale(0.015625)"/>
       <path id="DejaVuSans-Oblique-70" d="M 3175 2156 
Q 3175 2616 2975 2859 
Q 2775 3103 2400 3103 
Q 2144 3103 1911 2972 
Q 1678 2841 1497 2591 
Q 1319 2344 1212 1994 
Q 1106 1644 1106 1300 
Q 1106 863 1306 627 
Q 1506 391 1875 391 
Q 2147 391 2380 519 
Q 2613 647 2778 891 
Q 2956 1147 3065 1494 
Q 3175 1841 3175 2156 
z
M 1394 2969 
Q 1625 3272 1939 3428 
Q 2253 3584 2638 3584 
Q 3175 3584 3472 3232 
Q 3769 2881 3769 2247 
Q 3769 1728 3584 1258 
Q 3400 788 3053 416 
Q 2822 169 2531 39 
Q 2241 -91 1919 -91 
Q 1547 -91 1294 64 
Q 1041 219 916 525 
L 556 -1331 
L -19 -1331 
L 922 3500 
L 1497 3500 
L 1394 2969 
z
" transform="scale(0.015625)"/>
       <path id="DejaVuSans-Oblique-69" d="M 1172 4863 
L 1747 4863 
L 1606 4134 
L 1031 4134 
L 1172 4863 
z
M 909 3500 
L 1484 3500 
L 800 0 
L 225 0 
L 909 3500 
z
" transform="scale(0.015625)"/>
       <path id="DejaVuSans-Oblique-6c" d="M 1172 4863 
L 1747 4863 
L 800 0 
L 225 0 
L 1172 4863 
z
" transform="scale(0.015625)"/>
       <path id="DejaVuSans-Oblique-47" d="M 3494 697 
L 3738 1919 
L 2700 1919 
L 2797 2438 
L 4453 2438 
L 4050 384 
Q 3634 156 3143 32 
Q 2653 -91 2156 -91 
Q 1278 -91 783 396 
Q 288 884 288 1753 
Q 288 2475 589 3126 
Q 891 3778 1422 4213 
Q 1756 4484 2153 4617 
Q 2550 4750 3034 4750 
Q 3472 4750 3873 4639 
Q 4275 4528 4641 4306 
L 4513 3634 
Q 4231 3928 3853 4083 
Q 3475 4238 3047 4238 
Q 2550 4238 2172 4048 
Q 1794 3859 1497 3463 
Q 1244 3125 1098 2667 
Q 953 2209 953 1734 
Q 953 1081 1287 751 
Q 1622 422 2284 422 
Q 2616 422 2925 492 
Q 3234 563 3494 697 
z
" transform="scale(0.015625)"/>
      </defs>
      <use xlink:href="#DejaVuSans-394" transform="translate(0 0.015625)"/>
      <use xlink:href="#DejaVuSans-Oblique-70" transform="translate(68.408203 0.015625)"/>
      <use xlink:href="#DejaVuSans-Oblique-69" transform="translate(131.884766 0.015625)"/>
      <use xlink:href="#DejaVuSans-Oblique-6c" transform="translate(159.667969 0.015625)"/>
      <use xlink:href="#DejaVuSans-Oblique-47" transform="translate(187.451172 0.015625)"/>
     </g>
    </g>
   </g>
  </g>
 </g>
 <defs>
  <clipPath id="pba4d58c234">
   <rect x="53.94375" y="7.2" width="206.46" height="119.592"/>
  </clipPath>
 </defs>
</svg>
