<?xml version="1.0" encoding="utf-8" standalone="no"?>
<!DOCTYPE svg PUBLIC "-//W3C//DTD SVG 1.1//EN"
  "http://www.w3.org/Graphics/SVG/1.1/DTD/svg11.dtd">
<svg xmlns:xlink="http://www.w3.org/1999/xlink" width="267.60375pt" height="174.433563pt" viewBox="0 0 267.60375 174.433563" xmlns="http://www.w3.org/2000/svg" version="1.1">
 <metadata>
  <rdf:RDF xmlns:dc="http://purl.org/dc/elements/1.1/" xmlns:cc="http://creativecommons.org/ns#" xmlns:rdf="http://www.w3.org/1999/02/22-rdf-syntax-ns#">
   <cc:Work>
    <dc:type rdf:resource="http://purl.org/dc/dcmitype/StillImage"/>
    <dc:date>2026-05-26T16:05:02.994497</dc:date>
    <dc:format>image/svg+xml</dc:format>
    <dc:creator>
     <cc:Agent>
      <dc:title>Matplotlib v3.9.4, https://matplotlib.org/</dc:title>
     </cc:Agent>
    </dc:creator>
   </cc:Work>
  </rdf:RDF>
 </metadata>
 <defs>
  <style type="text/css">*{stroke-linejoin: round; stroke-linecap: butt}</style>
 </defs>
 <g id="figure_1">
  <g id="patch_1">
   <path d="M 0 174.433563 
L 267.60375 174.433563 
L 267.60375 0 
L 0 0 
L 0 174.433563 
z
" style="fill: none"/>
  </g>
  <g id="axes_1">
   <g id="patch_2">
    <path d="M 53.94375 126.792 
L 260.40375 126.792 
L 260.40375 7.2 
L 53.94375 7.2 
L 53.94375 126.792 
z
" style="fill: none"/>
   </g>
   <g id="matplotlib.axis_1">
    <g id="xtick_1">
     <g id="line2d_1">
      <defs>
       <path id="m7e3de6c19b" d="M 0 0 
L 0 7 
" style="stroke: #000000; stroke-width: 1.25"/>
      </defs>
      <g>
       <use xlink:href="#m7e3de6c19b" x="251.378176" y="126.792" style="stroke: #000000; stroke-width: 1.25"/>
      </g>
     </g>
     <g id="text_1">
      <!-- 0 -->
      <g transform="translate(247.48552 147.312938) scale(0.14 -0.14)">
       <defs>
        <path id="ArialMT-30" d="M 266 2259 
Q 266 3072 433 3567 
Q 600 4063 929 4331 
Q 1259 4600 1759 4600 
Q 2128 4600 2406 4451 
Q 2684 4303 2865 4023 
Q 3047 3744 3150 3342 
Q 3253 2941 3253 2259 
Q 3253 1453 3087 958 
Q 2922 463 2592 192 
Q 2263 -78 1759 -78 
Q 1097 -78 719 397 
Q 266 969 266 2259 
z
M 844 2259 
Q 844 1131 1108 757 
Q 1372 384 1759 384 
Q 2147 384 2411 759 
Q 2675 1134 2675 2259 
Q 2675 3391 2411 3762 
Q 2147 4134 1753 4134 
Q 1366 4134 1134 3806 
Q 844 3388 844 2259 
z
" transform="scale(0.015625)"/>
       </defs>
       <use xlink:href="#ArialMT-30"/>
      </g>
     </g>
    </g>
    <g id="xtick_2">
     <g id="line2d_2">
      <g>
       <use xlink:href="#m7e3de6c19b" x="194.96834" y="126.792" style="stroke: #000000; stroke-width: 1.25"/>
      </g>
     </g>
     <g id="text_2">
      <!-- 100 -->
      <g transform="translate(183.290371 147.312938) scale(0.14 -0.14)">
       <defs>
        <path id="ArialMT-31" d="M 2384 0 
L 1822 0 
L 1822 3584 
Q 1619 3391 1289 3197 
Q 959 3003 697 2906 
L 697 3450 
Q 1169 3672 1522 3987 
Q 1875 4303 2022 4600 
L 2384 4600 
L 2384 0 
z
" transform="scale(0.015625)"/>
       </defs>
       <use xlink:href="#ArialMT-31"/>
       <use xlink:href="#ArialMT-30" x="55.615234"/>
       <use xlink:href="#ArialMT-30" x="111.230469"/>
      </g>
     </g>
    </g>
    <g id="xtick_3">
     <g id="line2d_3">
      <g>
       <use xlink:href="#m7e3de6c19b" x="138.558504" y="126.792" style="stroke: #000000; stroke-width: 1.25"/>
      </g>
     </g>
     <g id="text_3">
      <!-- 200 -->
      <g transform="translate(126.880535 147.312938) scale(0.14 -0.14)">
       <defs>
        <path id="ArialMT-32" d="M 3222 541 
L 3222 0 
L 194 0 
Q 188 203 259 391 
Q 375 700 629 1000 
Q 884 1300 1366 1694 
Q 2113 2306 2375 2664 
Q 2638 3022 2638 3341 
Q 2638 3675 2398 3904 
Q 2159 4134 1775 4134 
Q 1369 4134 1125 3890 
Q 881 3647 878 3216 
L 300 3275 
Q 359 3922 746 4261 
Q 1134 4600 1788 4600 
Q 2447 4600 2831 4234 
Q 3216 3869 3216 3328 
Q 3216 3053 3103 2787 
Q 2991 2522 2730 2228 
Q 2469 1934 1863 1422 
Q 1356 997 1212 845 
Q 1069 694 975 541 
L 3222 541 
z
" transform="scale(0.015625)"/>
       </defs>
       <use xlink:href="#ArialMT-32"/>
       <use xlink:href="#ArialMT-30" x="55.615234"/>
       <use xlink:href="#ArialMT-30" x="111.230469"/>
      </g>
     </g>
    </g>
    <g id="xtick_4">
     <g id="line2d_4">
      <g>
       <use xlink:href="#m7e3de6c19b" x="82.148668" y="126.792" style="stroke: #000000; stroke-width: 1.25"/>
      </g>
     </g>
     <g id="text_4">
      <!-- 300 -->
      <g transform="translate(70.470699 147.312938) scale(0.14 -0.14)">
       <defs>
        <path id="ArialMT-33" d="M 269 1209 
L 831 1284 
Q 928 806 1161 595 
Q 1394 384 1728 384 
Q 2125 384 2398 659 
Q 2672 934 2672 1341 
Q 2672 1728 2419 1979 
Q 2166 2231 1775 2231 
Q 1616 2231 1378 2169 
L 1441 2663 
Q 1497 2656 1531 2656 
Q 1891 2656 2178 2843 
Q 2466 3031 2466 3422 
Q 2466 3731 2256 3934 
Q 2047 4138 1716 4138 
Q 1388 4138 1169 3931 
Q 950 3725 888 3313 
L 325 3413 
Q 428 3978 793 4289 
Q 1159 4600 1703 4600 
Q 2078 4600 2393 4439 
Q 2709 4278 2876 4000 
Q 3044 3722 3044 3409 
Q 3044 3113 2884 2869 
Q 2725 2625 2413 2481 
Q 2819 2388 3044 2092 
Q 3269 1797 3269 1353 
Q 3269 753 2831 336 
Q 2394 -81 1725 -81 
Q 1122 -81 723 278 
Q 325 638 269 1209 
z
" transform="scale(0.015625)"/>
       </defs>
       <use xlink:href="#ArialMT-33"/>
       <use xlink:href="#ArialMT-30" x="55.615234"/>
       <use xlink:href="#ArialMT-30" x="111.230469"/>
      </g>
     </g>
    </g>
    <g id="text_5">
     <!-- Distance from the edge (µm) -->
     <g transform="translate(62.907813 164.287) scale(0.14 -0.14)">
      <defs>
       <path id="Arial-BoldMT-44" d="M 463 4581 
L 2153 4581 
Q 2725 4581 3025 4494 
Q 3428 4375 3715 4072 
Q 4003 3769 4153 3330 
Q 4303 2891 4303 2247 
Q 4303 1681 4163 1272 
Q 3991 772 3672 463 
Q 3431 228 3022 97 
Q 2716 0 2203 0 
L 463 0 
L 463 4581 
z
M 1388 3806 
L 1388 772 
L 2078 772 
Q 2466 772 2638 816 
Q 2863 872 3011 1006 
Q 3159 1141 3253 1448 
Q 3347 1756 3347 2288 
Q 3347 2819 3253 3103 
Q 3159 3388 2990 3547 
Q 2822 3706 2563 3763 
Q 2369 3806 1803 3806 
L 1388 3806 
z
" transform="scale(0.015625)"/>
       <path id="Arial-BoldMT-69" d="M 459 3769 
L 459 4581 
L 1338 4581 
L 1338 3769 
L 459 3769 
z
M 459 0 
L 459 3319 
L 1338 3319 
L 1338 0 
L 459 0 
z
" transform="scale(0.015625)"/>
       <path id="Arial-BoldMT-73" d="M 150 947 
L 1031 1081 
Q 1088 825 1259 692 
Q 1431 559 1741 559 
Q 2081 559 2253 684 
Q 2369 772 2369 919 
Q 2369 1019 2306 1084 
Q 2241 1147 2013 1200 
Q 950 1434 666 1628 
Q 272 1897 272 2375 
Q 272 2806 612 3100 
Q 953 3394 1669 3394 
Q 2350 3394 2681 3172 
Q 3013 2950 3138 2516 
L 2309 2363 
Q 2256 2556 2107 2659 
Q 1959 2763 1684 2763 
Q 1338 2763 1188 2666 
Q 1088 2597 1088 2488 
Q 1088 2394 1175 2328 
Q 1294 2241 1995 2081 
Q 2697 1922 2975 1691 
Q 3250 1456 3250 1038 
Q 3250 581 2869 253 
Q 2488 -75 1741 -75 
Q 1063 -75 667 200 
Q 272 475 150 947 
z
" transform="scale(0.015625)"/>
       <path id="Arial-BoldMT-74" d="M 1981 3319 
L 1981 2619 
L 1381 2619 
L 1381 1281 
Q 1381 875 1398 808 
Q 1416 741 1477 697 
Q 1538 653 1625 653 
Q 1747 653 1978 738 
L 2053 56 
Q 1747 -75 1359 -75 
Q 1122 -75 931 4 
Q 741 84 652 211 
Q 563 338 528 553 
Q 500 706 500 1172 
L 500 2619 
L 97 2619 
L 97 3319 
L 500 3319 
L 500 3978 
L 1381 4491 
L 1381 3319 
L 1981 3319 
z
" transform="scale(0.015625)"/>
       <path id="Arial-BoldMT-61" d="M 1116 2306 
L 319 2450 
Q 453 2931 781 3162 
Q 1109 3394 1756 3394 
Q 2344 3394 2631 3255 
Q 2919 3116 3036 2902 
Q 3153 2688 3153 2116 
L 3144 1091 
Q 3144 653 3186 445 
Q 3228 238 3344 0 
L 2475 0 
Q 2441 88 2391 259 
Q 2369 338 2359 363 
Q 2134 144 1878 34 
Q 1622 -75 1331 -75 
Q 819 -75 523 203 
Q 228 481 228 906 
Q 228 1188 362 1408 
Q 497 1628 739 1745 
Q 981 1863 1438 1950 
Q 2053 2066 2291 2166 
L 2291 2253 
Q 2291 2506 2166 2614 
Q 2041 2722 1694 2722 
Q 1459 2722 1328 2630 
Q 1197 2538 1116 2306 
z
M 2291 1594 
Q 2122 1538 1756 1459 
Q 1391 1381 1278 1306 
Q 1106 1184 1106 997 
Q 1106 813 1243 678 
Q 1381 544 1594 544 
Q 1831 544 2047 700 
Q 2206 819 2256 991 
Q 2291 1103 2291 1419 
L 2291 1594 
z
" transform="scale(0.015625)"/>
       <path id="Arial-BoldMT-6e" d="M 3478 0 
L 2600 0 
L 2600 1694 
Q 2600 2231 2544 2389 
Q 2488 2547 2361 2634 
Q 2234 2722 2056 2722 
Q 1828 2722 1647 2597 
Q 1466 2472 1398 2265 
Q 1331 2059 1331 1503 
L 1331 0 
L 453 0 
L 453 3319 
L 1269 3319 
L 1269 2831 
Q 1703 3394 2363 3394 
Q 2653 3394 2893 3289 
Q 3134 3184 3257 3021 
Q 3381 2859 3429 2653 
Q 3478 2447 3478 2063 
L 3478 0 
z
" transform="scale(0.015625)"/>
       <path id="Arial-BoldMT-63" d="M 3353 2338 
L 2488 2181 
Q 2444 2441 2289 2572 
Q 2134 2703 1888 2703 
Q 1559 2703 1364 2476 
Q 1169 2250 1169 1719 
Q 1169 1128 1367 884 
Q 1566 641 1900 641 
Q 2150 641 2309 783 
Q 2469 925 2534 1272 
L 3397 1125 
Q 3263 531 2881 228 
Q 2500 -75 1859 -75 
Q 1131 -75 698 384 
Q 266 844 266 1656 
Q 266 2478 700 2936 
Q 1134 3394 1875 3394 
Q 2481 3394 2839 3133 
Q 3197 2872 3353 2338 
z
" transform="scale(0.015625)"/>
       <path id="Arial-BoldMT-65" d="M 2381 1056 
L 3256 909 
Q 3088 428 2723 176 
Q 2359 -75 1813 -75 
Q 947 -75 531 491 
Q 203 944 203 1634 
Q 203 2459 634 2926 
Q 1066 3394 1725 3394 
Q 2466 3394 2894 2905 
Q 3322 2416 3303 1406 
L 1103 1406 
Q 1113 1016 1316 798 
Q 1519 581 1822 581 
Q 2028 581 2168 693 
Q 2309 806 2381 1056 
z
M 2431 1944 
Q 2422 2325 2234 2523 
Q 2047 2722 1778 2722 
Q 1491 2722 1303 2513 
Q 1116 2303 1119 1944 
L 2431 1944 
z
" transform="scale(0.015625)"/>
       <path id="Arial-BoldMT-20" transform="scale(0.015625)"/>
       <path id="Arial-BoldMT-66" d="M 75 3319 
L 563 3319 
L 563 3569 
Q 563 3988 652 4194 
Q 741 4400 980 4529 
Q 1219 4659 1584 4659 
Q 1959 4659 2319 4547 
L 2200 3934 
Q 1991 3984 1797 3984 
Q 1606 3984 1523 3895 
Q 1441 3806 1441 3553 
L 1441 3319 
L 2097 3319 
L 2097 2628 
L 1441 2628 
L 1441 0 
L 563 0 
L 563 2628 
L 75 2628 
L 75 3319 
z
" transform="scale(0.015625)"/>
       <path id="Arial-BoldMT-72" d="M 1300 0 
L 422 0 
L 422 3319 
L 1238 3319 
L 1238 2847 
Q 1447 3181 1614 3287 
Q 1781 3394 1994 3394 
Q 2294 3394 2572 3228 
L 2300 2463 
Q 2078 2606 1888 2606 
Q 1703 2606 1575 2504 
Q 1447 2403 1373 2137 
Q 1300 1872 1300 1025 
L 1300 0 
z
" transform="scale(0.015625)"/>
       <path id="Arial-BoldMT-6f" d="M 256 1706 
Q 256 2144 472 2553 
Q 688 2963 1083 3178 
Q 1478 3394 1966 3394 
Q 2719 3394 3200 2905 
Q 3681 2416 3681 1669 
Q 3681 916 3195 420 
Q 2709 -75 1972 -75 
Q 1516 -75 1102 131 
Q 688 338 472 736 
Q 256 1134 256 1706 
z
M 1156 1659 
Q 1156 1166 1390 903 
Q 1625 641 1969 641 
Q 2313 641 2545 903 
Q 2778 1166 2778 1666 
Q 2778 2153 2545 2415 
Q 2313 2678 1969 2678 
Q 1625 2678 1390 2415 
Q 1156 2153 1156 1659 
z
" transform="scale(0.015625)"/>
       <path id="Arial-BoldMT-6d" d="M 394 3319 
L 1203 3319 
L 1203 2866 
Q 1638 3394 2238 3394 
Q 2556 3394 2790 3262 
Q 3025 3131 3175 2866 
Q 3394 3131 3647 3262 
Q 3900 3394 4188 3394 
Q 4553 3394 4806 3245 
Q 5059 3097 5184 2809 
Q 5275 2597 5275 2122 
L 5275 0 
L 4397 0 
L 4397 1897 
Q 4397 2391 4306 2534 
Q 4184 2722 3931 2722 
Q 3747 2722 3584 2609 
Q 3422 2497 3350 2280 
Q 3278 2063 3278 1594 
L 3278 0 
L 2400 0 
L 2400 1819 
Q 2400 2303 2353 2443 
Q 2306 2584 2207 2653 
Q 2109 2722 1941 2722 
Q 1738 2722 1575 2612 
Q 1413 2503 1342 2297 
Q 1272 2091 1272 1613 
L 1272 0 
L 394 0 
L 394 3319 
z
" transform="scale(0.015625)"/>
       <path id="Arial-BoldMT-68" d="M 1334 4581 
L 1334 2897 
Q 1759 3394 2350 3394 
Q 2653 3394 2897 3281 
Q 3141 3169 3264 2994 
Q 3388 2819 3433 2606 
Q 3478 2394 3478 1947 
L 3478 0 
L 2600 0 
L 2600 1753 
Q 2600 2275 2550 2415 
Q 2500 2556 2373 2639 
Q 2247 2722 2056 2722 
Q 1838 2722 1666 2615 
Q 1494 2509 1414 2295 
Q 1334 2081 1334 1663 
L 1334 0 
L 456 0 
L 456 4581 
L 1334 4581 
z
" transform="scale(0.015625)"/>
       <path id="Arial-BoldMT-64" d="M 3503 0 
L 2688 0 
L 2688 488 
Q 2484 203 2207 64 
Q 1931 -75 1650 -75 
Q 1078 -75 670 386 
Q 263 847 263 1672 
Q 263 2516 659 2955 
Q 1056 3394 1663 3394 
Q 2219 3394 2625 2931 
L 2625 4581 
L 3503 4581 
L 3503 0 
z
M 1159 1731 
Q 1159 1200 1306 963 
Q 1519 619 1900 619 
Q 2203 619 2415 876 
Q 2628 1134 2628 1647 
Q 2628 2219 2422 2470 
Q 2216 2722 1894 2722 
Q 1581 2722 1370 2473 
Q 1159 2225 1159 1731 
z
" transform="scale(0.015625)"/>
       <path id="Arial-BoldMT-67" d="M 378 -219 
L 1381 -341 
Q 1406 -516 1497 -581 
Q 1622 -675 1891 -675 
Q 2234 -675 2406 -572 
Q 2522 -503 2581 -350 
Q 2622 -241 2622 53 
L 2622 538 
Q 2228 0 1628 0 
Q 959 0 569 566 
Q 263 1013 263 1678 
Q 263 2513 664 2953 
Q 1066 3394 1663 3394 
Q 2278 3394 2678 2853 
L 2678 3319 
L 3500 3319 
L 3500 341 
Q 3500 -247 3403 -537 
Q 3306 -828 3131 -993 
Q 2956 -1159 2664 -1253 
Q 2372 -1347 1925 -1347 
Q 1081 -1347 728 -1058 
Q 375 -769 375 -325 
Q 375 -281 378 -219 
z
M 1163 1728 
Q 1163 1200 1367 954 
Q 1572 709 1872 709 
Q 2194 709 2416 961 
Q 2638 1213 2638 1706 
Q 2638 2222 2425 2472 
Q 2213 2722 1888 2722 
Q 1572 2722 1367 2476 
Q 1163 2231 1163 1728 
z
" transform="scale(0.015625)"/>
       <path id="Arial-BoldMT-28" d="M 1916 -1347 
L 1313 -1347 
Q 834 -625 584 153 
Q 334 931 334 1659 
Q 334 2563 644 3369 
Q 913 4069 1325 4659 
L 1925 4659 
Q 1497 3713 1336 3048 
Q 1175 2384 1175 1641 
Q 1175 1128 1270 590 
Q 1366 53 1531 -431 
Q 1641 -750 1916 -1347 
z
" transform="scale(0.015625)"/>
       <path id="Arial-BoldMT-b5" d="M 347 3319 
L 1219 3319 
L 1219 1816 
Q 1219 1166 1350 931 
Q 1516 628 1841 628 
Q 2016 628 2172 740 
Q 2328 853 2403 1053 
Q 2478 1253 2478 1806 
L 2478 3319 
L 3366 3319 
L 3366 0 
L 2547 0 
L 2547 400 
Q 2453 225 2368 137 
Q 2284 50 2142 -15 
Q 2000 -81 1881 -81 
Q 1659 -81 1488 41 
Q 1366 131 1219 400 
L 1219 -1272 
L 347 -1272 
L 347 3319 
z
" transform="scale(0.015625)"/>
       <path id="Arial-BoldMT-29" d="M 216 -1347 
Q 475 -791 581 -494 
Q 688 -197 778 190 
Q 869 578 912 926 
Q 956 1275 956 1641 
Q 956 2384 797 3048 
Q 638 3713 209 4659 
L 806 4659 
Q 1278 3988 1539 3234 
Q 1800 2481 1800 1706 
Q 1800 1053 1594 306 
Q 1359 -531 822 -1347 
L 216 -1347 
z
" transform="scale(0.015625)"/>
      </defs>
      <use xlink:href="#Arial-BoldMT-44"/>
      <use xlink:href="#Arial-BoldMT-69" x="72.216797"/>
      <use xlink:href="#Arial-BoldMT-73" x="100"/>
      <use xlink:href="#Arial-BoldMT-74" x="155.615234"/>
      <use xlink:href="#Arial-BoldMT-61" x="188.916016"/>
      <use xlink:href="#Arial-BoldMT-6e" x="244.53125"/>
      <use xlink:href="#Arial-BoldMT-63" x="305.615234"/>
      <use xlink:href="#Arial-BoldMT-65" x="361.230469"/>
      <use xlink:href="#Arial-BoldMT-20" x="416.845703"/>
      <use xlink:href="#Arial-BoldMT-66" x="444.628906"/>
      <use xlink:href="#Arial-BoldMT-72" x="477.929688"/>
      <use xlink:href="#Arial-BoldMT-6f" x="516.845703"/>
      <use xlink:href="#Arial-BoldMT-6d" x="577.929688"/>
      <use xlink:href="#Arial-BoldMT-20" x="666.845703"/>
      <use xlink:href="#Arial-BoldMT-74" x="694.628906"/>
      <use xlink:href="#Arial-BoldMT-68" x="727.929688"/>
      <use xlink:href="#Arial-BoldMT-65" x="789.013672"/>
      <use xlink:href="#Arial-BoldMT-20" x="844.628906"/>
      <use xlink:href="#Arial-BoldMT-65" x="872.412109"/>
      <use xlink:href="#Arial-BoldMT-64" x="928.027344"/>
      <use xlink:href="#Arial-BoldMT-67" x="989.111328"/>
      <use xlink:href="#Arial-BoldMT-65" x="1050.195312"/>
      <use xlink:href="#Arial-BoldMT-20" x="1105.810547"/>
      <use xlink:href="#Arial-BoldMT-28" x="1133.59375"/>
      <use xlink:href="#Arial-BoldMT-b5" x="1166.894531"/>
      <use xlink:href="#Arial-BoldMT-6d" x="1224.511719"/>
      <use xlink:href="#Arial-BoldMT-29" x="1313.427734"/>
     </g>
    </g>
   </g>
   <g id="matplotlib.axis_2">
    <g id="ytick_1">
     <g id="line2d_5">
      <defs>
       <path id="m83a4c6d32c" d="M 0 0 
L -7 0 
" style="stroke: #000000; stroke-width: 1.25"/>
      </defs>
      <g>
       <use xlink:href="#m83a4c6d32c" x="53.94375" y="126.792" style="stroke: #000000; stroke-width: 1.25"/>
      </g>
     </g>
     <g id="text_6">
      <!-- 0.0 -->
      <g transform="translate(23.98375 131.802469) scale(0.14 -0.14)">
       <defs>
        <path id="ArialMT-2e" d="M 581 0 
L 581 641 
L 1222 641 
L 1222 0 
L 581 0 
z
" transform="scale(0.015625)"/>
       </defs>
       <use xlink:href="#ArialMT-30"/>
       <use xlink:href="#ArialMT-2e" x="55.615234"/>
       <use xlink:href="#ArialMT-30" x="83.398438"/>
      </g>
     </g>
    </g>
    <g id="ytick_2">
     <g id="line2d_6">
      <g>
       <use xlink:href="#m83a4c6d32c" x="53.94375" y="69.843429" style="stroke: #000000; stroke-width: 1.25"/>
      </g>
     </g>
     <g id="text_7">
      <!-- 0.5 -->
      <g transform="translate(23.98375 74.853897) scale(0.14 -0.14)">
       <defs>
        <path id="ArialMT-35" d="M 266 1200 
L 856 1250 
Q 922 819 1161 601 
Q 1400 384 1738 384 
Q 2144 384 2425 690 
Q 2706 997 2706 1503 
Q 2706 1984 2436 2262 
Q 2166 2541 1728 2541 
Q 1456 2541 1237 2417 
Q 1019 2294 894 2097 
L 366 2166 
L 809 4519 
L 3088 4519 
L 3088 3981 
L 1259 3981 
L 1013 2750 
Q 1425 3038 1878 3038 
Q 2478 3038 2890 2622 
Q 3303 2206 3303 1553 
Q 3303 931 2941 478 
Q 2500 -78 1738 -78 
Q 1113 -78 717 272 
Q 322 622 266 1200 
z
" transform="scale(0.015625)"/>
       </defs>
       <use xlink:href="#ArialMT-30"/>
       <use xlink:href="#ArialMT-2e" x="55.615234"/>
       <use xlink:href="#ArialMT-35" x="83.398438"/>
      </g>
     </g>
    </g>
    <g id="ytick_3">
     <g id="line2d_7">
      <g>
       <use xlink:href="#m83a4c6d32c" x="53.94375" y="12.894857" style="stroke: #000000; stroke-width: 1.25"/>
      </g>
     </g>
     <g id="text_8">
      <!-- 1.0 -->
      <g transform="translate(23.98375 17.905326) scale(0.14 -0.14)">
       <use xlink:href="#ArialMT-31"/>
       <use xlink:href="#ArialMT-2e" x="55.615234"/>
       <use xlink:href="#ArialMT-30" x="83.398438"/>
      </g>
     </g>
    </g>
    <g id="ytick_4">
     <g id="line2d_8">
      <defs>
       <path id="mb8781b34df" d="M 0 0 
L -4 0 
" style="stroke: #000000; stroke-width: 1.25"/>
      </defs>
      <g>
       <use xlink:href="#mb8781b34df" x="53.94375" y="98.317714" style="stroke: #000000; stroke-width: 1.25"/>
      </g>
     </g>
    </g>
    <g id="ytick_5">
     <g id="line2d_9">
      <g>
       <use xlink:href="#mb8781b34df" x="53.94375" y="41.369143" style="stroke: #000000; stroke-width: 1.25"/>
      </g>
     </g>
    </g>
    <g id="text_9">
     <!-- Relative abundance -->
     <g transform="translate(17.220938 132.73475) rotate(-90) scale(0.14 -0.14)">
      <defs>
       <path id="Arial-BoldMT-52" d="M 469 0 
L 469 4581 
L 2416 4581 
Q 3150 4581 3483 4457 
Q 3816 4334 4016 4018 
Q 4216 3703 4216 3297 
Q 4216 2781 3912 2445 
Q 3609 2109 3006 2022 
Q 3306 1847 3501 1637 
Q 3697 1428 4028 894 
L 4588 0 
L 3481 0 
L 2813 997 
Q 2456 1531 2325 1670 
Q 2194 1809 2047 1861 
Q 1900 1913 1581 1913 
L 1394 1913 
L 1394 0 
L 469 0 
z
M 1394 2644 
L 2078 2644 
Q 2744 2644 2909 2700 
Q 3075 2756 3169 2893 
Q 3263 3031 3263 3238 
Q 3263 3469 3139 3611 
Q 3016 3753 2791 3791 
Q 2678 3806 2116 3806 
L 1394 3806 
L 1394 2644 
z
" transform="scale(0.015625)"/>
       <path id="Arial-BoldMT-6c" d="M 459 0 
L 459 4581 
L 1338 4581 
L 1338 0 
L 459 0 
z
" transform="scale(0.015625)"/>
       <path id="Arial-BoldMT-76" d="M 1372 0 
L 34 3319 
L 956 3319 
L 1581 1625 
L 1763 1059 
Q 1834 1275 1853 1344 
Q 1897 1484 1947 1625 
L 2578 3319 
L 3481 3319 
L 2163 0 
L 1372 0 
z
" transform="scale(0.015625)"/>
       <path id="Arial-BoldMT-62" d="M 422 0 
L 422 4581 
L 1300 4581 
L 1300 2931 
Q 1706 3394 2263 3394 
Q 2869 3394 3266 2955 
Q 3663 2516 3663 1694 
Q 3663 844 3258 384 
Q 2853 -75 2275 -75 
Q 1991 -75 1714 67 
Q 1438 209 1238 488 
L 1238 0 
L 422 0 
z
M 1294 1731 
Q 1294 1216 1456 969 
Q 1684 619 2063 619 
Q 2353 619 2558 867 
Q 2763 1116 2763 1650 
Q 2763 2219 2556 2470 
Q 2350 2722 2028 2722 
Q 1713 2722 1503 2476 
Q 1294 2231 1294 1731 
z
" transform="scale(0.015625)"/>
       <path id="Arial-BoldMT-75" d="M 2644 0 
L 2644 497 
Q 2463 231 2167 78 
Q 1872 -75 1544 -75 
Q 1209 -75 943 72 
Q 678 219 559 484 
Q 441 750 441 1219 
L 441 3319 
L 1319 3319 
L 1319 1794 
Q 1319 1094 1367 936 
Q 1416 778 1544 686 
Q 1672 594 1869 594 
Q 2094 594 2272 717 
Q 2450 841 2515 1023 
Q 2581 1206 2581 1919 
L 2581 3319 
L 3459 3319 
L 3459 0 
L 2644 0 
z
" transform="scale(0.015625)"/>
      </defs>
      <use xlink:href="#Arial-BoldMT-52"/>
      <use xlink:href="#Arial-BoldMT-65" x="72.216797"/>
      <use xlink:href="#Arial-BoldMT-6c" x="127.832031"/>
      <use xlink:href="#Arial-BoldMT-61" x="155.615234"/>
      <use xlink:href="#Arial-BoldMT-74" x="211.230469"/>
      <use xlink:href="#Arial-BoldMT-69" x="244.53125"/>
      <use xlink:href="#Arial-BoldMT-76" x="272.314453"/>
      <use xlink:href="#Arial-BoldMT-65" x="327.929688"/>
      <use xlink:href="#Arial-BoldMT-20" x="383.544922"/>
      <use xlink:href="#Arial-BoldMT-61" x="411.328125"/>
      <use xlink:href="#Arial-BoldMT-62" x="466.943359"/>
      <use xlink:href="#Arial-BoldMT-75" x="528.027344"/>
      <use xlink:href="#Arial-BoldMT-6e" x="589.111328"/>
      <use xlink:href="#Arial-BoldMT-64" x="650.195312"/>
      <use xlink:href="#Arial-BoldMT-61" x="711.279297"/>
      <use xlink:href="#Arial-BoldMT-6e" x="766.894531"/>
      <use xlink:href="#Arial-BoldMT-63" x="827.978516"/>
      <use xlink:href="#Arial-BoldMT-65" x="883.59375"/>
     </g>
    </g>
   </g>
   <g id="line2d_10">
    <path d="M 260.513189 126.792 
L 258.686186 126.792 
L 256.859184 126.792 
L 255.032181 126.792 
L 253.205179 126.792 
L 251.378176 82.601582 
L 249.551174 78.474033 
L 247.724171 85.445564 
L 245.897169 84.595006 
L 244.070166 76.519437 
L 242.243164 75.234353 
L 240.416161 77.14103 
L 238.589158 76.817961 
L 236.762156 85.207641 
L 234.935153 81.413625 
L 233.108151 88.544312 
L 231.281148 89.795388 
L 229.454146 86.58019 
L 227.627143 80.856701 
L 225.800141 87.099252 
L 223.973138 89.836269 
L 222.146136 92.940717 
L 220.319133 91.62951 
L 218.492131 89.977305 
L 216.665128 94.856563 
L 214.838125 101.269572 
L 213.011123 96.017291 
L 211.18412 95.962366 
L 209.357118 90.767795 
L 207.530115 94.682917 
L 205.703113 97.535176 
L 203.87611 88.835011 
L 202.049108 91.638714 
L 200.222105 95.414349 
L 198.395103 92.309617 
L 196.5681 94.324203 
L 194.741098 85.708374 
L 192.914095 87.17617 
L 191.087093 91.432377 
L 189.26009 87.237762 
L 187.433087 93.121922 
L 185.606085 92.548326 
L 183.779082 86.606886 
L 181.95208 93.056908 
L 180.125077 88.311388 
L 178.298075 86.631898 
L 176.471072 82.87018 
L 174.64407 88.984721 
L 172.817067 87.034912 
L 170.990065 76.661063 
L 169.163062 73.129766 
L 167.33606 82.581104 
L 165.509057 78.145009 
L 163.682054 85.975329 
L 161.855052 78.370837 
L 160.028049 79.749094 
L 158.201047 77.531633 
L 156.374044 80.020776 
L 154.547042 76.807096 
L 152.720039 75.685126 
L 150.893037 64.323764 
L 149.066034 75.275949 
L 147.239032 75.889146 
L 145.412029 70.880813 
L 143.585027 66.181411 
L 141.758024 63.156991 
L 139.931021 72.112064 
L 138.104019 78.871089 
L 136.277016 78.858659 
L 134.450014 70.962937 
L 132.623011 67.228244 
L 130.796009 75.287476 
L 128.969006 78.020334 
L 127.142004 71.758328 
L 125.315001 70.895655 
L 123.487999 61.780223 
L 121.660996 73.218671 
L 119.833994 69.780383 
L 118.006991 68.061082 
L 116.179989 73.580971 
L 114.352986 72.205428 
L 112.525983 64.239305 
L 110.698981 66.753469 
L 108.871978 62.710963 
L 107.044976 62.271032 
L 105.217973 65.308547 
L 103.390971 69.559307 
L 101.563968 71.661866 
L 99.736966 70.754045 
L 97.909963 62.160639 
L 96.082961 67.765014 
L 94.255958 66.150375 
L 92.428956 70.791164 
L 90.601953 75.707781 
L 88.77495 65.668458 
L 86.947948 72.784086 
L 85.120945 71.137493 
L 83.293943 65.591379 
L 81.46694 67.024597 
L 79.639938 66.300866 
L 77.812935 69.100931 
L 75.985933 76.651322 
L 74.15893 74.376114 
L 72.331928 76.812259 
L 70.504925 70.549444 
L 68.677923 73.702001 
L 66.85092 76.142833 
L 65.023917 70.519376 
L 63.196915 67.456498 
L 61.369912 80.726496 
L 59.54291 75.723225 
L 57.715907 72.254281 
L 55.888905 76.484437 
L 54.061902 74.743449 
" clip-path="url(#pcee7ee5ab4)" style="fill: none; stroke: #ff00ff; stroke-opacity: 0.5; stroke-width: 0.5; stroke-linecap: square"/>
   </g>
   <g id="line2d_11">
    <path d="M 260.513189 126.792 
L 258.686186 126.792 
L 256.859184 126.792 
L 255.032181 126.792 
L 253.205179 126.792 
L 251.378176 51.433473 
L 249.551174 53.71848 
L 247.724171 47.345914 
L 245.897169 46.793043 
L 244.070166 57.243617 
L 242.243164 64.905167 
L 240.416161 62.477804 
L 238.589158 72.440077 
L 236.762156 73.798964 
L 234.935153 77.769977 
L 233.108151 80.859396 
L 231.281148 92.310573 
L 229.454146 92.164509 
L 227.627143 88.327777 
L 225.800141 85.502246 
L 223.973138 93.455507 
L 222.146136 91.2887 
L 220.319133 91.106489 
L 218.492131 94.118014 
L 216.665128 91.900326 
L 214.838125 97.12275 
L 213.011123 97.662935 
L 211.18412 95.494141 
L 209.357118 92.141525 
L 207.530115 94.498614 
L 205.703113 93.389732 
L 203.87611 95.073926 
L 202.049108 90.61313 
L 200.222105 89.687084 
L 198.395103 93.096221 
L 196.5681 90.810961 
L 194.741098 90.901387 
L 192.914095 88.500513 
L 191.087093 91.929965 
L 189.26009 86.403012 
L 187.433087 87.66731 
L 185.606085 86.17941 
L 183.779082 91.674345 
L 181.95208 90.729329 
L 180.125077 82.987076 
L 178.298075 81.519077 
L 176.471072 77.931639 
L 174.64407 81.606968 
L 172.817067 79.047579 
L 170.990065 82.232901 
L 169.163062 75.299769 
L 167.33606 80.174965 
L 165.509057 79.986052 
L 163.682054 80.189828 
L 161.855052 76.468468 
L 160.028049 72.899505 
L 158.201047 82.102532 
L 156.374044 86.847758 
L 154.547042 73.383475 
L 152.720039 68.204667 
L 150.893037 74.123501 
L 149.066034 77.146411 
L 147.239032 69.660352 
L 145.412029 72.396024 
L 143.585027 75.651444 
L 141.758024 75.384775 
L 139.931021 71.957337 
L 138.104019 68.553702 
L 136.277016 68.709425 
L 134.450014 72.994782 
L 132.623011 77.187324 
L 130.796009 72.301083 
L 128.969006 74.655239 
L 127.142004 73.49389 
L 125.315001 84.110311 
L 123.487999 78.77949 
L 121.660996 76.703206 
L 119.833994 70.215465 
L 118.006991 74.64927 
L 116.179989 78.607963 
L 114.352986 70.505865 
L 112.525983 66.523094 
L 110.698981 76.171048 
L 108.871978 73.180532 
L 107.044976 69.985744 
L 105.217973 70.07399 
L 103.390971 73.861916 
L 101.563968 73.977703 
L 99.736966 86.903669 
L 97.909963 75.795417 
L 96.082961 78.07256 
L 94.255958 79.694598 
L 92.428956 81.610182 
L 90.601953 77.056764 
L 88.77495 76.978142 
L 86.947948 71.933589 
L 85.120945 72.123183 
L 83.293943 73.89262 
L 81.46694 74.543599 
L 79.639938 74.930918 
L 77.812935 77.522722 
L 75.985933 77.753591 
L 74.15893 72.040801 
L 72.331928 69.978059 
L 70.504925 71.920128 
L 68.677923 72.519439 
L 66.85092 70.293615 
L 65.023917 60.330068 
L 63.196915 65.687042 
L 61.369912 70.179917 
L 59.54291 73.705015 
L 57.715907 81.15889 
L 55.888905 72.170866 
L 54.061902 72.520536 
" clip-path="url(#pcee7ee5ab4)" style="fill: none; stroke: #ff00ff; stroke-opacity: 0.5; stroke-width: 0.5; stroke-linecap: square"/>
   </g>
   <g id="line2d_12">
    <path d="M 260.513189 126.792 
L 258.686186 126.792 
L 256.859184 126.792 
L 255.032181 126.792 
L 253.205179 126.792 
L 251.378176 43.799028 
L 249.551174 32.122196 
L 247.724171 29.377088 
L 245.897169 25.206542 
L 244.070166 28.392337 
L 242.243164 28.886497 
L 240.416161 27.650059 
L 238.589158 33.975121 
L 236.762156 38.682889 
L 234.935153 44.360964 
L 233.108151 46.453453 
L 231.281148 45.112134 
L 229.454146 46.236404 
L 227.627143 55.323003 
L 225.800141 59.197993 
L 223.973138 58.52207 
L 222.146136 66.37784 
L 220.319133 72.20288 
L 218.492131 80.715878 
L 216.665128 72.341696 
L 214.838125 76.001944 
L 213.011123 75.971843 
L 211.18412 78.614818 
L 209.357118 82.982959 
L 207.530115 78.296624 
L 205.703113 86.108129 
L 203.87611 88.37158 
L 202.049108 88.932816 
L 200.222105 81.641657 
L 198.395103 82.392491 
L 196.5681 84.677005 
L 194.741098 85.393132 
L 192.914095 84.960944 
L 191.087093 86.688795 
L 189.26009 81.727072 
L 187.433087 73.407844 
L 185.606085 79.499483 
L 183.779082 79.699245 
L 181.95208 82.009025 
L 180.125077 77.14649 
L 178.298075 83.540871 
L 176.471072 86.415131 
L 174.64407 83.638204 
L 172.817067 80.636847 
L 170.990065 74.006911 
L 169.163062 81.596562 
L 167.33606 80.245765 
L 165.509057 74.549525 
L 163.682054 75.502619 
L 161.855052 80.051917 
L 160.028049 79.487611 
L 158.201047 83.558543 
L 156.374044 83.39156 
L 154.547042 80.611886 
L 152.720039 73.177842 
L 150.893037 77.927192 
L 149.066034 81.233143 
L 147.239032 83.213476 
L 145.412029 80.399057 
L 143.585027 85.108893 
L 141.758024 84.733015 
L 139.931021 83.584734 
L 138.104019 75.156602 
L 136.277016 74.6049 
L 134.450014 86.308878 
L 132.623011 82.835935 
L 130.796009 80.927732 
L 128.969006 71.037441 
L 127.142004 70.702848 
L 125.315001 69.772105 
L 123.487999 71.976561 
L 121.660996 69.986464 
L 119.833994 79.851457 
L 118.006991 75.184218 
L 116.179989 81.077717 
L 114.352986 82.012047 
L 112.525983 74.533659 
L 110.698981 75.266783 
L 108.871978 71.262129 
L 107.044976 74.092229 
L 105.217973 69.008406 
L 103.390971 68.948714 
L 101.563968 73.885121 
L 99.736966 81.213083 
L 97.909963 70.539503 
L 96.082961 71.830584 
L 94.255958 72.336251 
L 92.428956 76.488464 
L 90.601953 76.23686 
L 88.77495 68.037367 
L 86.947948 66.206137 
L 85.120945 68.419506 
L 83.293943 78.323377 
L 81.46694 74.844046 
L 79.639938 70.459776 
L 77.812935 71.425839 
L 75.985933 80.226215 
L 74.15893 81.56012 
L 72.331928 69.928783 
L 70.504925 68.433949 
L 68.677923 68.026286 
L 66.85092 71.512997 
L 65.023917 67.960552 
L 63.196915 67.835594 
L 61.369912 74.218514 
L 59.54291 69.111442 
L 57.715907 71.691702 
L 55.888905 70.358369 
L 54.061902 74.394245 
" clip-path="url(#pcee7ee5ab4)" style="fill: none; stroke: #ff00ff; stroke-opacity: 0.5; stroke-width: 0.5; stroke-linecap: square"/>
   </g>
   <g id="line2d_13">
    <path d="M 260.513189 126.792 
L 258.686186 126.792 
L 256.859184 126.792 
L 255.032181 126.792 
L 253.205179 126.792 
L 251.378176 57.085275 
L 249.551174 61.212824 
L 247.724171 54.241293 
L 245.897169 55.091851 
L 244.070166 63.16742 
L 242.243164 64.452504 
L 240.416161 62.545827 
L 238.589158 62.868896 
L 236.762156 54.479216 
L 234.935153 58.273232 
L 233.108151 51.142545 
L 231.281148 49.891469 
L 229.454146 53.106667 
L 227.627143 58.830157 
L 225.800141 52.587605 
L 223.973138 49.850588 
L 222.146136 46.74614 
L 220.319133 48.057348 
L 218.492131 49.709552 
L 216.665128 44.830294 
L 214.838125 38.417285 
L 213.011123 43.669566 
L 211.18412 43.724492 
L 209.357118 48.919062 
L 207.530115 45.00394 
L 205.703113 42.151681 
L 203.87611 50.851846 
L 202.049108 48.048143 
L 200.222105 44.272508 
L 198.395103 47.37724 
L 196.5681 45.362655 
L 194.741098 53.978484 
L 192.914095 52.510687 
L 191.087093 48.25448 
L 189.26009 52.449095 
L 187.433087 46.564935 
L 185.606085 47.138531 
L 183.779082 53.079971 
L 181.95208 46.629949 
L 180.125077 51.375469 
L 178.298075 53.054959 
L 176.471072 56.816677 
L 174.64407 50.702136 
L 172.817067 52.651945 
L 170.990065 63.025795 
L 169.163062 66.557091 
L 167.33606 57.105753 
L 165.509057 61.541848 
L 163.682054 53.711528 
L 161.855052 61.31602 
L 160.028049 59.937763 
L 158.201047 62.155224 
L 156.374044 59.666081 
L 154.547042 62.879761 
L 152.720039 64.001731 
L 150.893037 75.363093 
L 149.066034 64.410908 
L 147.239032 63.797711 
L 145.412029 68.806044 
L 143.585027 73.505446 
L 141.758024 76.529866 
L 139.931021 67.574793 
L 138.104019 60.815768 
L 136.277016 60.828198 
L 134.450014 68.72392 
L 132.623011 72.458613 
L 130.796009 64.399381 
L 128.969006 61.666523 
L 127.142004 67.92853 
L 125.315001 68.791202 
L 123.487999 77.906634 
L 121.660996 66.468186 
L 119.833994 69.906475 
L 118.006991 71.625775 
L 116.179989 66.105886 
L 114.352986 67.481429 
L 112.525983 75.447552 
L 110.698981 72.933388 
L 108.871978 76.975894 
L 107.044976 77.415825 
L 105.217973 74.378311 
L 103.390971 70.12755 
L 101.563968 68.024991 
L 99.736966 68.932812 
L 97.909963 77.526218 
L 96.082961 71.921844 
L 94.255958 73.536483 
L 92.428956 68.895693 
L 90.601953 63.979076 
L 88.77495 74.018399 
L 86.947948 66.902771 
L 85.120945 68.549364 
L 83.293943 74.095478 
L 81.46694 72.66226 
L 79.639938 73.385991 
L 77.812935 70.585926 
L 75.985933 63.035535 
L 74.15893 65.310743 
L 72.331928 62.874598 
L 70.504925 69.137413 
L 68.677923 65.984856 
L 66.85092 63.544024 
L 65.023917 69.167481 
L 63.196915 72.23036 
L 61.369912 58.960361 
L 59.54291 63.963632 
L 57.715907 67.432577 
L 55.888905 63.20242 
L 54.061902 64.943408 
" clip-path="url(#pcee7ee5ab4)" style="fill: none; stroke: #00bfff; stroke-opacity: 0.5; stroke-width: 0.5; stroke-linecap: square"/>
   </g>
   <g id="line2d_14">
    <path d="M 260.513189 126.792 
L 258.686186 126.792 
L 256.859184 126.792 
L 255.032181 126.792 
L 253.205179 126.792 
L 251.378176 88.253385 
L 249.551174 85.968377 
L 247.724171 92.340943 
L 245.897169 92.893814 
L 244.070166 82.44324 
L 242.243164 74.78169 
L 240.416161 77.209053 
L 238.589158 67.24678 
L 236.762156 65.887893 
L 234.935153 61.91688 
L 233.108151 58.827461 
L 231.281148 47.376285 
L 229.454146 47.522349 
L 227.627143 51.35908 
L 225.800141 54.184611 
L 223.973138 46.23135 
L 222.146136 48.398157 
L 220.319133 48.580368 
L 218.492131 45.568843 
L 216.665128 47.786531 
L 214.838125 42.564107 
L 213.011123 42.023922 
L 211.18412 44.192716 
L 209.357118 47.545333 
L 207.530115 45.188243 
L 205.703113 46.297125 
L 203.87611 44.612931 
L 202.049108 49.073727 
L 200.222105 49.999774 
L 198.395103 46.590636 
L 196.5681 48.875896 
L 194.741098 48.78547 
L 192.914095 51.186344 
L 191.087093 47.756892 
L 189.26009 53.283845 
L 187.433087 52.019548 
L 185.606085 53.507447 
L 183.779082 48.012512 
L 181.95208 48.957528 
L 180.125077 56.699781 
L 178.298075 58.16778 
L 176.471072 61.755218 
L 174.64407 58.079889 
L 172.817067 60.639278 
L 170.990065 57.453956 
L 169.163062 64.387088 
L 167.33606 59.511892 
L 165.509057 59.700805 
L 163.682054 59.497029 
L 161.855052 63.218389 
L 160.028049 66.787352 
L 158.201047 57.584325 
L 156.374044 52.8391 
L 154.547042 66.303382 
L 152.720039 71.482191 
L 150.893037 65.563356 
L 149.066034 62.540446 
L 147.239032 70.026505 
L 145.412029 67.290833 
L 143.585027 64.035413 
L 141.758024 64.302082 
L 139.931021 67.72952 
L 138.104019 71.133155 
L 136.277016 70.977432 
L 134.450014 66.692075 
L 132.623011 62.499533 
L 130.796009 67.385774 
L 128.969006 65.031618 
L 127.142004 66.192967 
L 125.315001 55.576547 
L 123.487999 60.907367 
L 121.660996 62.983652 
L 119.833994 69.471393 
L 118.006991 65.037588 
L 116.179989 61.078894 
L 114.352986 69.180993 
L 112.525983 73.163763 
L 110.698981 63.51581 
L 108.871978 66.506325 
L 107.044976 69.701113 
L 105.217973 69.612868 
L 103.390971 65.824941 
L 101.563968 65.709154 
L 99.736966 52.783188 
L 97.909963 63.89144 
L 96.082961 61.614297 
L 94.255958 59.992259 
L 92.428956 58.076675 
L 90.601953 62.630093 
L 88.77495 62.708715 
L 86.947948 67.753268 
L 85.120945 67.563674 
L 83.293943 65.794237 
L 81.46694 65.143259 
L 79.639938 64.755939 
L 77.812935 62.164135 
L 75.985933 61.933267 
L 74.15893 67.646056 
L 72.331928 69.708798 
L 70.504925 67.76673 
L 68.677923 67.167419 
L 66.85092 69.393242 
L 65.023917 79.356789 
L 63.196915 73.999815 
L 61.369912 69.50694 
L 59.54291 65.981842 
L 57.715907 58.527967 
L 55.888905 67.515991 
L 54.061902 67.166321 
" clip-path="url(#pcee7ee5ab4)" style="fill: none; stroke: #00bfff; stroke-opacity: 0.5; stroke-width: 0.5; stroke-linecap: square"/>
   </g>
   <g id="line2d_15">
    <path d="M 260.513189 126.792 
L 258.686186 126.792 
L 256.859184 126.792 
L 255.032181 126.792 
L 253.205179 126.792 
L 251.378176 95.887829 
L 249.551174 107.564661 
L 247.724171 110.309769 
L 245.897169 114.480315 
L 244.070166 111.29452 
L 242.243164 110.80036 
L 240.416161 112.036798 
L 238.589158 105.711736 
L 236.762156 101.003968 
L 234.935153 95.325893 
L 233.108151 93.233404 
L 231.281148 94.574724 
L 229.454146 93.450454 
L 227.627143 84.363854 
L 225.800141 80.488864 
L 223.973138 81.164787 
L 222.146136 73.309017 
L 220.319133 67.483977 
L 218.492131 58.970979 
L 216.665128 67.345161 
L 214.838125 63.684913 
L 213.011123 63.715014 
L 211.18412 61.072039 
L 209.357118 56.703898 
L 207.530115 61.390233 
L 205.703113 53.578728 
L 203.87611 51.315277 
L 202.049108 50.754041 
L 200.222105 58.0452 
L 198.395103 57.294366 
L 196.5681 55.009852 
L 194.741098 54.293725 
L 192.914095 54.725913 
L 191.087093 52.998063 
L 189.26009 57.959785 
L 187.433087 66.279013 
L 185.606085 60.187374 
L 183.779082 59.987612 
L 181.95208 57.677832 
L 180.125077 62.540367 
L 178.298075 56.145986 
L 176.471072 53.271726 
L 174.64407 56.048654 
L 172.817067 59.05001 
L 170.990065 65.679947 
L 169.163062 58.090295 
L 167.33606 59.441092 
L 165.509057 65.137332 
L 163.682054 64.184239 
L 161.855052 59.63494 
L 160.028049 60.199246 
L 158.201047 56.128314 
L 156.374044 56.295297 
L 154.547042 59.074971 
L 152.720039 66.509015 
L 150.893037 61.759665 
L 149.066034 58.453714 
L 147.239032 56.473381 
L 145.412029 59.2878 
L 143.585027 54.577964 
L 141.758024 54.953842 
L 139.931021 56.102123 
L 138.104019 64.530255 
L 136.277016 65.081957 
L 134.450014 53.377979 
L 132.623011 56.850922 
L 130.796009 58.759125 
L 128.969006 68.649416 
L 127.142004 68.984009 
L 125.315001 69.914752 
L 123.487999 67.710296 
L 121.660996 69.700393 
L 119.833994 59.8354 
L 118.006991 64.502639 
L 116.179989 58.60914 
L 114.352986 57.67481 
L 112.525983 65.153198 
L 110.698981 64.420074 
L 108.871978 68.424728 
L 107.044976 65.594629 
L 105.217973 70.678452 
L 103.390971 70.738143 
L 101.563968 65.801736 
L 99.736966 58.473774 
L 97.909963 69.147355 
L 96.082961 67.856273 
L 94.255958 67.350606 
L 92.428956 63.198394 
L 90.601953 63.449998 
L 88.77495 71.64949 
L 86.947948 73.48072 
L 85.120945 71.267351 
L 83.293943 61.36348 
L 81.46694 64.842812 
L 79.639938 69.227081 
L 77.812935 68.261019 
L 75.985933 59.460642 
L 74.15893 58.126737 
L 72.331928 69.758074 
L 70.504925 71.252908 
L 68.677923 71.660571 
L 66.85092 68.17386 
L 65.023917 71.726306 
L 63.196915 71.851263 
L 61.369912 65.468343 
L 59.54291 70.575415 
L 57.715907 67.995155 
L 55.888905 69.328488 
L 54.061902 65.292612 
" clip-path="url(#pcee7ee5ab4)" style="fill: none; stroke: #00bfff; stroke-opacity: 0.5; stroke-width: 0.5; stroke-linecap: square"/>
   </g>
   <g id="line2d_16">
    <path d="M 260.513189 126.792 
L 258.686186 126.792 
L 256.859184 126.792 
L 255.032181 126.792 
L 253.205179 126.792 
L 251.378176 59.278027 
L 249.551174 54.77157 
L 247.724171 54.056189 
L 245.897169 52.198197 
L 244.070166 54.051797 
L 242.243164 56.342006 
L 240.416161 55.756298 
L 238.589158 61.07772 
L 236.762156 65.896498 
L 234.935153 67.848189 
L 233.108151 71.952387 
L 231.281148 75.739365 
L 229.454146 74.993701 
L 227.627143 74.835827 
L 225.800141 77.266497 
L 223.973138 80.604615 
L 222.146136 83.535752 
L 220.319133 84.979626 
L 218.492131 88.270399 
L 216.665128 86.366195 
L 214.838125 91.464755 
L 213.011123 89.884023 
L 211.18412 90.023775 
L 209.357118 88.63076 
L 207.530115 89.159385 
L 205.703113 92.344346 
L 203.87611 90.760172 
L 202.049108 90.394887 
L 200.222105 88.914363 
L 198.395103 89.26611 
L 196.5681 89.93739 
L 194.741098 87.334298 
L 192.914095 86.879209 
L 191.087093 90.017045 
L 189.26009 85.122615 
L 187.433087 84.732359 
L 185.606085 86.07574 
L 183.779082 85.993492 
L 181.95208 88.598421 
L 180.125077 82.814985 
L 178.298075 83.897282 
L 176.471072 82.40565 
L 174.64407 84.743298 
L 172.817067 82.23978 
L 170.990065 77.633625 
L 169.163062 76.675366 
L 167.33606 81.000611 
L 165.509057 77.560195 
L 163.682054 80.555925 
L 161.855052 78.297074 
L 160.028049 77.378737 
L 158.201047 81.064236 
L 156.374044 83.420031 
L 154.547042 76.934152 
L 152.720039 72.355878 
L 150.893037 72.124819 
L 149.066034 77.885168 
L 147.239032 76.254325 
L 145.412029 74.558632 
L 143.585027 75.64725 
L 141.758024 74.424927 
L 139.931021 75.884712 
L 138.104019 74.193798 
L 136.277016 74.057661 
L 134.450014 76.755532 
L 132.623011 75.750501 
L 130.796009 76.172097 
L 128.969006 74.571005 
L 127.142004 71.985022 
L 125.315001 74.926024 
L 123.487999 70.845425 
L 121.660996 73.30278 
L 119.833994 73.282435 
L 118.006991 72.631523 
L 116.179989 77.75555 
L 114.352986 74.90778 
L 112.525983 68.432019 
L 110.698981 72.730433 
L 108.871978 69.051208 
L 107.044976 68.783001 
L 105.217973 68.130314 
L 103.390971 70.789979 
L 101.563968 73.174897 
L 99.736966 79.623599 
L 97.909963 69.49852 
L 96.082961 72.556053 
L 94.255958 72.727074 
L 92.428956 76.296603 
L 90.601953 76.333802 
L 88.77495 70.227989 
L 86.947948 70.307937 
L 85.120945 70.560061 
L 83.293943 72.602459 
L 81.46694 72.137414 
L 79.639938 70.563853 
L 77.812935 72.683164 
L 75.985933 78.210376 
L 74.15893 75.992345 
L 72.331928 72.2397 
L 70.504925 70.301173 
L 68.677923 71.415908 
L 66.85092 72.649815 
L 65.023917 66.269999 
L 63.196915 66.993045 
L 61.369912 75.041642 
L 59.54291 72.846561 
L 57.715907 75.034958 
L 55.888905 73.004557 
L 54.061902 73.886077 
" clip-path="url(#pcee7ee5ab4)" style="fill: none; stroke: #ff00ff; stroke-width: 3; stroke-linecap: square"/>
   </g>
   <g id="line2d_17">
    <path d="M 260.513189 126.792 
L 258.686186 126.792 
L 256.859184 126.792 
L 255.032181 126.792 
L 253.205179 126.792 
L 251.378176 80.40883 
L 249.551174 84.915287 
L 247.724171 85.630668 
L 245.897169 87.48866 
L 244.070166 85.63506 
L 242.243164 83.344851 
L 240.416161 83.930559 
L 238.589158 78.609138 
L 236.762156 73.790359 
L 234.935153 71.838668 
L 233.108151 67.73447 
L 231.281148 63.947492 
L 229.454146 64.693156 
L 227.627143 64.85103 
L 225.800141 62.42036 
L 223.973138 59.082242 
L 222.146136 56.151105 
L 220.319133 54.707231 
L 218.492131 51.416458 
L 216.665128 53.320662 
L 214.838125 48.222102 
L 213.011123 49.802834 
L 211.18412 49.663082 
L 209.357118 51.056098 
L 207.530115 50.527472 
L 205.703113 47.342511 
L 203.87611 48.926685 
L 202.049108 49.29197 
L 200.222105 50.772494 
L 198.395103 50.420747 
L 196.5681 49.749468 
L 194.741098 52.35256 
L 192.914095 52.807648 
L 191.087093 49.669812 
L 189.26009 54.564242 
L 187.433087 54.954499 
L 185.606085 53.611117 
L 183.779082 53.693365 
L 181.95208 51.088436 
L 180.125077 56.871872 
L 178.298075 55.789575 
L 176.471072 57.281207 
L 174.64407 54.943559 
L 172.817067 57.447078 
L 170.990065 62.053233 
L 169.163062 63.011492 
L 167.33606 58.686246 
L 165.509057 62.126662 
L 163.682054 59.130932 
L 161.855052 61.389783 
L 160.028049 62.308121 
L 158.201047 58.622621 
L 156.374044 56.266826 
L 154.547042 62.752705 
L 152.720039 67.330979 
L 150.893037 67.562038 
L 149.066034 61.801689 
L 147.239032 63.432532 
L 145.412029 65.128226 
L 143.585027 64.039608 
L 141.758024 65.26193 
L 139.931021 63.802145 
L 138.104019 65.493059 
L 136.277016 65.629196 
L 134.450014 62.931325 
L 132.623011 63.936356 
L 130.796009 63.51476 
L 128.969006 65.115852 
L 127.142004 67.701835 
L 125.315001 64.760833 
L 123.487999 68.841433 
L 121.660996 66.384077 
L 119.833994 66.404422 
L 118.006991 67.055334 
L 116.179989 61.931307 
L 114.352986 64.779077 
L 112.525983 71.254838 
L 110.698981 66.956424 
L 108.871978 70.635649 
L 107.044976 70.903856 
L 105.217973 71.556543 
L 103.390971 68.896878 
L 101.563968 66.51196 
L 99.736966 60.063258 
L 97.909963 70.188338 
L 96.082961 67.130804 
L 94.255958 66.959783 
L 92.428956 63.390254 
L 90.601953 63.353056 
L 88.77495 69.458868 
L 86.947948 69.37892 
L 85.120945 69.126796 
L 83.293943 67.084399 
L 81.46694 67.549443 
L 79.639938 69.123004 
L 77.812935 67.003693 
L 75.985933 61.476481 
L 74.15893 63.694512 
L 72.331928 67.447157 
L 70.504925 69.385684 
L 68.677923 68.270949 
L 66.85092 67.037042 
L 65.023917 73.416859 
L 63.196915 72.693813 
L 61.369912 64.645215 
L 59.54291 66.840296 
L 57.715907 64.651899 
L 55.888905 66.6823 
L 54.061902 65.80078 
" clip-path="url(#pcee7ee5ab4)" style="fill: none; stroke: #00bfff; stroke-width: 3; stroke-linecap: square"/>
   </g>
   <g id="line2d_18">
    <path d="M 260.513189 126.792 
L 258.686186 126.792 
L 256.859184 126.792 
L 255.032181 126.792 
L 253.205179 126.792 
L 251.378176 57.085275 
L 249.551174 61.212824 
L 247.724171 54.241293 
L 245.897169 55.091851 
L 244.070166 63.16742 
L 242.243164 64.452504 
L 240.416161 62.545827 
L 238.589158 62.868896 
L 236.762156 54.479216 
L 234.935153 58.273232 
L 233.108151 51.142545 
L 231.281148 49.891469 
L 229.454146 53.106667 
L 227.627143 58.830157 
L 225.800141 52.587605 
L 223.973138 49.850588 
L 222.146136 46.74614 
L 220.319133 48.057348 
L 218.492131 49.709552 
L 216.665128 44.830294 
L 214.838125 38.417285 
L 213.011123 43.669566 
L 211.18412 43.724492 
L 209.357118 48.919062 
L 207.530115 45.00394 
L 205.703113 42.151681 
L 203.87611 50.851846 
L 202.049108 48.048143 
L 200.222105 44.272508 
L 198.395103 47.37724 
L 196.5681 45.362655 
L 194.741098 53.978484 
L 192.914095 52.510687 
L 191.087093 48.25448 
L 189.26009 52.449095 
L 187.433087 46.564935 
L 185.606085 47.138531 
L 183.779082 53.079971 
L 181.95208 46.629949 
L 180.125077 51.375469 
L 178.298075 53.054959 
L 176.471072 56.816677 
L 174.64407 50.702136 
L 172.817067 52.651945 
L 170.990065 63.025795 
L 169.163062 66.557091 
L 167.33606 57.105753 
L 165.509057 61.541848 
L 163.682054 53.711528 
L 161.855052 61.31602 
L 160.028049 59.937763 
L 158.201047 62.155224 
L 156.374044 59.666081 
L 154.547042 62.879761 
L 152.720039 64.001731 
L 150.893037 75.363093 
L 149.066034 64.410908 
L 147.239032 63.797711 
L 145.412029 68.806044 
L 143.585027 73.505446 
L 141.758024 76.529866 
L 139.931021 67.574793 
L 138.104019 60.815768 
L 136.277016 60.828198 
L 134.450014 68.72392 
L 132.623011 72.458613 
L 130.796009 64.399381 
L 128.969006 61.666523 
L 127.142004 67.92853 
L 125.315001 68.791202 
L 123.487999 77.906634 
L 121.660996 66.468186 
L 119.833994 69.906475 
L 118.006991 71.625775 
L 116.179989 66.105886 
L 114.352986 67.481429 
L 112.525983 75.447552 
L 110.698981 72.933388 
L 108.871978 76.975894 
L 107.044976 77.415825 
L 105.217973 74.378311 
L 103.390971 70.12755 
L 101.563968 68.024991 
L 99.736966 68.932812 
L 97.909963 77.526218 
L 96.082961 71.921844 
L 94.255958 73.536483 
L 92.428956 68.895693 
L 90.601953 63.979076 
L 88.77495 74.018399 
L 86.947948 66.902771 
L 85.120945 68.549364 
L 83.293943 74.095478 
L 81.46694 72.66226 
L 79.639938 73.385991 
L 77.812935 70.585926 
L 75.985933 63.035535 
L 74.15893 65.310743 
L 72.331928 62.874598 
L 70.504925 69.137413 
L 68.677923 65.984856 
L 66.85092 63.544024 
L 65.023917 69.167481 
L 63.196915 72.23036 
L 61.369912 58.960361 
L 59.54291 63.963632 
L 57.715907 67.432577 
L 55.888905 63.20242 
L 54.061902 64.943408 
" clip-path="url(#pcee7ee5ab4)" style="fill: none; stroke: #ff8c00; stroke-opacity: 0.5; stroke-width: 0.5; stroke-linecap: square"/>
   </g>
   <g id="line2d_19">
    <path d="M 260.513189 126.792 
L 258.686186 126.792 
L 256.859184 126.792 
L 255.032181 126.792 
L 253.205179 126.792 
L 251.378176 88.253385 
L 249.551174 85.968377 
L 247.724171 92.340943 
L 245.897169 92.893814 
L 244.070166 82.44324 
L 242.243164 74.78169 
L 240.416161 77.209053 
L 238.589158 67.24678 
L 236.762156 65.887893 
L 234.935153 61.91688 
L 233.108151 58.827461 
L 231.281148 47.376285 
L 229.454146 47.522349 
L 227.627143 51.35908 
L 225.800141 54.184611 
L 223.973138 46.23135 
L 222.146136 48.398157 
L 220.319133 48.580368 
L 218.492131 45.568843 
L 216.665128 47.786531 
L 214.838125 42.564107 
L 213.011123 42.023922 
L 211.18412 44.192716 
L 209.357118 47.545333 
L 207.530115 45.188243 
L 205.703113 46.297125 
L 203.87611 44.612931 
L 202.049108 49.073727 
L 200.222105 49.999774 
L 198.395103 46.590636 
L 196.5681 48.875896 
L 194.741098 48.78547 
L 192.914095 51.186344 
L 191.087093 47.756892 
L 189.26009 53.283845 
L 187.433087 52.019548 
L 185.606085 53.507447 
L 183.779082 48.012512 
L 181.95208 48.957528 
L 180.125077 56.699781 
L 178.298075 58.16778 
L 176.471072 61.755218 
L 174.64407 58.079889 
L 172.817067 60.639278 
L 170.990065 57.453956 
L 169.163062 64.387088 
L 167.33606 59.511892 
L 165.509057 59.700805 
L 163.682054 59.497029 
L 161.855052 63.218389 
L 160.028049 66.787352 
L 158.201047 57.584325 
L 156.374044 52.8391 
L 154.547042 66.303382 
L 152.720039 71.482191 
L 150.893037 65.563356 
L 149.066034 62.540446 
L 147.239032 70.026505 
L 145.412029 67.290833 
L 143.585027 64.035413 
L 141.758024 64.302082 
L 139.931021 67.72952 
L 138.104019 71.133155 
L 136.277016 70.977432 
L 134.450014 66.692075 
L 132.623011 62.499533 
L 130.796009 67.385774 
L 128.969006 65.031618 
L 127.142004 66.192967 
L 125.315001 55.576547 
L 123.487999 60.907367 
L 121.660996 62.983652 
L 119.833994 69.471393 
L 118.006991 65.037588 
L 116.179989 61.078894 
L 114.352986 69.180993 
L 112.525983 73.163763 
L 110.698981 63.51581 
L 108.871978 66.506325 
L 107.044976 69.701113 
L 105.217973 69.612868 
L 103.390971 65.824941 
L 101.563968 65.709154 
L 99.736966 52.783188 
L 97.909963 63.89144 
L 96.082961 61.614297 
L 94.255958 59.992259 
L 92.428956 58.076675 
L 90.601953 62.630093 
L 88.77495 62.708715 
L 86.947948 67.753268 
L 85.120945 67.563674 
L 83.293943 65.794237 
L 81.46694 65.143259 
L 79.639938 64.755939 
L 77.812935 62.164135 
L 75.985933 61.933267 
L 74.15893 67.646056 
L 72.331928 69.708798 
L 70.504925 67.76673 
L 68.677923 67.167419 
L 66.85092 69.393242 
L 65.023917 79.356789 
L 63.196915 73.999815 
L 61.369912 69.50694 
L 59.54291 65.981842 
L 57.715907 58.527967 
L 55.888905 67.515991 
L 54.061902 67.166321 
" clip-path="url(#pcee7ee5ab4)" style="fill: none; stroke: #ff8c00; stroke-opacity: 0.5; stroke-width: 0.5; stroke-linecap: square"/>
   </g>
   <g id="line2d_20">
    <path d="M 260.513189 126.792 
L 258.686186 126.792 
L 256.859184 126.792 
L 255.032181 126.792 
L 253.205179 126.792 
L 251.378176 95.887829 
L 249.551174 107.564661 
L 247.724171 110.309769 
L 245.897169 114.480315 
L 244.070166 111.29452 
L 242.243164 110.80036 
L 240.416161 112.036798 
L 238.589158 105.711736 
L 236.762156 101.003968 
L 234.935153 95.325893 
L 233.108151 93.233404 
L 231.281148 94.574724 
L 229.454146 93.450454 
L 227.627143 84.363854 
L 225.800141 80.488864 
L 223.973138 81.164787 
L 222.146136 73.309017 
L 220.319133 67.483977 
L 218.492131 58.970979 
L 216.665128 67.345161 
L 214.838125 63.684913 
L 213.011123 63.715014 
L 211.18412 61.072039 
L 209.357118 56.703898 
L 207.530115 61.390233 
L 205.703113 53.578728 
L 203.87611 51.315277 
L 202.049108 50.754041 
L 200.222105 58.0452 
L 198.395103 57.294366 
L 196.5681 55.009852 
L 194.741098 54.293725 
L 192.914095 54.725913 
L 191.087093 52.998063 
L 189.26009 57.959785 
L 187.433087 66.279013 
L 185.606085 60.187374 
L 183.779082 59.987612 
L 181.95208 57.677832 
L 180.125077 62.540367 
L 178.298075 56.145986 
L 176.471072 53.271726 
L 174.64407 56.048654 
L 172.817067 59.05001 
L 170.990065 65.679947 
L 169.163062 58.090295 
L 167.33606 59.441092 
L 165.509057 65.137332 
L 163.682054 64.184239 
L 161.855052 59.63494 
L 160.028049 60.199246 
L 158.201047 56.128314 
L 156.374044 56.295297 
L 154.547042 59.074971 
L 152.720039 66.509015 
L 150.893037 61.759665 
L 149.066034 58.453714 
L 147.239032 56.473381 
L 145.412029 59.2878 
L 143.585027 54.577964 
L 141.758024 54.953842 
L 139.931021 56.102123 
L 138.104019 64.530255 
L 136.277016 65.081957 
L 134.450014 53.377979 
L 132.623011 56.850922 
L 130.796009 58.759125 
L 128.969006 68.649416 
L 127.142004 68.984009 
L 125.315001 69.914752 
L 123.487999 67.710296 
L 121.660996 69.700393 
L 119.833994 59.8354 
L 118.006991 64.502639 
L 116.179989 58.60914 
L 114.352986 57.67481 
L 112.525983 65.153198 
L 110.698981 64.420074 
L 108.871978 68.424728 
L 107.044976 65.594629 
L 105.217973 70.678452 
L 103.390971 70.738143 
L 101.563968 65.801736 
L 99.736966 58.473774 
L 97.909963 69.147355 
L 96.082961 67.856273 
L 94.255958 67.350606 
L 92.428956 63.198394 
L 90.601953 63.449998 
L 88.77495 71.64949 
L 86.947948 73.48072 
L 85.120945 71.267351 
L 83.293943 61.36348 
L 81.46694 64.842812 
L 79.639938 69.227081 
L 77.812935 68.261019 
L 75.985933 59.460642 
L 74.15893 58.126737 
L 72.331928 69.758074 
L 70.504925 71.252908 
L 68.677923 71.660571 
L 66.85092 68.17386 
L 65.023917 71.726306 
L 63.196915 71.851263 
L 61.369912 65.468343 
L 59.54291 70.575415 
L 57.715907 67.995155 
L 55.888905 69.328488 
L 54.061902 65.292612 
" clip-path="url(#pcee7ee5ab4)" style="fill: none; stroke: #ff8c00; stroke-opacity: 0.5; stroke-width: 0.5; stroke-linecap: square"/>
   </g>
   <g id="line2d_21">
    <path d="M 260.513189 126.792 
L 258.686186 126.792 
L 256.859184 126.792 
L 255.032181 126.792 
L 253.205179 126.792 
L 251.378176 82.601582 
L 249.551174 78.474033 
L 247.724171 85.445564 
L 245.897169 84.595006 
L 244.070166 76.519437 
L 242.243164 75.234353 
L 240.416161 77.14103 
L 238.589158 76.817961 
L 236.762156 85.207641 
L 234.935153 81.413625 
L 233.108151 88.544312 
L 231.281148 89.795388 
L 229.454146 86.58019 
L 227.627143 80.856701 
L 225.800141 87.099252 
L 223.973138 89.836269 
L 222.146136 92.940717 
L 220.319133 91.62951 
L 218.492131 89.977305 
L 216.665128 94.856563 
L 214.838125 101.269572 
L 213.011123 96.017291 
L 211.18412 95.962366 
L 209.357118 90.767795 
L 207.530115 94.682917 
L 205.703113 97.535176 
L 203.87611 88.835011 
L 202.049108 91.638714 
L 200.222105 95.414349 
L 198.395103 92.309617 
L 196.5681 94.324203 
L 194.741098 85.708374 
L 192.914095 87.17617 
L 191.087093 91.432377 
L 189.26009 87.237762 
L 187.433087 93.121922 
L 185.606085 92.548326 
L 183.779082 86.606886 
L 181.95208 93.056908 
L 180.125077 88.311388 
L 178.298075 86.631898 
L 176.471072 82.87018 
L 174.64407 88.984721 
L 172.817067 87.034912 
L 170.990065 76.661063 
L 169.163062 73.129766 
L 167.33606 82.581104 
L 165.509057 78.145009 
L 163.682054 85.975329 
L 161.855052 78.370837 
L 160.028049 79.749094 
L 158.201047 77.531633 
L 156.374044 80.020776 
L 154.547042 76.807096 
L 152.720039 75.685126 
L 150.893037 64.323764 
L 149.066034 75.275949 
L 147.239032 75.889146 
L 145.412029 70.880813 
L 143.585027 66.181411 
L 141.758024 63.156991 
L 139.931021 72.112064 
L 138.104019 78.871089 
L 136.277016 78.858659 
L 134.450014 70.962937 
L 132.623011 67.228244 
L 130.796009 75.287476 
L 128.969006 78.020334 
L 127.142004 71.758328 
L 125.315001 70.895655 
L 123.487999 61.780223 
L 121.660996 73.218671 
L 119.833994 69.780383 
L 118.006991 68.061082 
L 116.179989 73.580971 
L 114.352986 72.205428 
L 112.525983 64.239305 
L 110.698981 66.753469 
L 108.871978 62.710963 
L 107.044976 62.271032 
L 105.217973 65.308547 
L 103.390971 69.559307 
L 101.563968 71.661866 
L 99.736966 70.754045 
L 97.909963 62.160639 
L 96.082961 67.765014 
L 94.255958 66.150375 
L 92.428956 70.791164 
L 90.601953 75.707781 
L 88.77495 65.668458 
L 86.947948 72.784086 
L 85.120945 71.137493 
L 83.293943 65.591379 
L 81.46694 67.024597 
L 79.639938 66.300866 
L 77.812935 69.100931 
L 75.985933 76.651322 
L 74.15893 74.376114 
L 72.331928 76.812259 
L 70.504925 70.549444 
L 68.677923 73.702001 
L 66.85092 76.142833 
L 65.023917 70.519376 
L 63.196915 67.456498 
L 61.369912 80.726496 
L 59.54291 75.723225 
L 57.715907 72.254281 
L 55.888905 76.484437 
L 54.061902 74.743449 
" clip-path="url(#pcee7ee5ab4)" style="fill: none; stroke: #ff00ff; stroke-opacity: 0.5; stroke-width: 0.5; stroke-linecap: square"/>
   </g>
   <g id="line2d_22">
    <path d="M 260.513189 126.792 
L 258.686186 126.792 
L 256.859184 126.792 
L 255.032181 126.792 
L 253.205179 126.792 
L 251.378176 51.433473 
L 249.551174 53.71848 
L 247.724171 47.345914 
L 245.897169 46.793043 
L 244.070166 57.243617 
L 242.243164 64.905167 
L 240.416161 62.477804 
L 238.589158 72.440077 
L 236.762156 73.798964 
L 234.935153 77.769977 
L 233.108151 80.859396 
L 231.281148 92.310573 
L 229.454146 92.164509 
L 227.627143 88.327777 
L 225.800141 85.502246 
L 223.973138 93.455507 
L 222.146136 91.2887 
L 220.319133 91.106489 
L 218.492131 94.118014 
L 216.665128 91.900326 
L 214.838125 97.12275 
L 213.011123 97.662935 
L 211.18412 95.494141 
L 209.357118 92.141525 
L 207.530115 94.498614 
L 205.703113 93.389732 
L 203.87611 95.073926 
L 202.049108 90.61313 
L 200.222105 89.687084 
L 198.395103 93.096221 
L 196.5681 90.810961 
L 194.741098 90.901387 
L 192.914095 88.500513 
L 191.087093 91.929965 
L 189.26009 86.403012 
L 187.433087 87.66731 
L 185.606085 86.17941 
L 183.779082 91.674345 
L 181.95208 90.729329 
L 180.125077 82.987076 
L 178.298075 81.519077 
L 176.471072 77.931639 
L 174.64407 81.606968 
L 172.817067 79.047579 
L 170.990065 82.232901 
L 169.163062 75.299769 
L 167.33606 80.174965 
L 165.509057 79.986052 
L 163.682054 80.189828 
L 161.855052 76.468468 
L 160.028049 72.899505 
L 158.201047 82.102532 
L 156.374044 86.847758 
L 154.547042 73.383475 
L 152.720039 68.204667 
L 150.893037 74.123501 
L 149.066034 77.146411 
L 147.239032 69.660352 
L 145.412029 72.396024 
L 143.585027 75.651444 
L 141.758024 75.384775 
L 139.931021 71.957337 
L 138.104019 68.553702 
L 136.277016 68.709425 
L 134.450014 72.994782 
L 132.623011 77.187324 
L 130.796009 72.301083 
L 128.969006 74.655239 
L 127.142004 73.49389 
L 125.315001 84.110311 
L 123.487999 78.77949 
L 121.660996 76.703206 
L 119.833994 70.215465 
L 118.006991 74.64927 
L 116.179989 78.607963 
L 114.352986 70.505865 
L 112.525983 66.523094 
L 110.698981 76.171048 
L 108.871978 73.180532 
L 107.044976 69.985744 
L 105.217973 70.07399 
L 103.390971 73.861916 
L 101.563968 73.977703 
L 99.736966 86.903669 
L 97.909963 75.795417 
L 96.082961 78.07256 
L 94.255958 79.694598 
L 92.428956 81.610182 
L 90.601953 77.056764 
L 88.77495 76.978142 
L 86.947948 71.933589 
L 85.120945 72.123183 
L 83.293943 73.89262 
L 81.46694 74.543599 
L 79.639938 74.930918 
L 77.812935 77.522722 
L 75.985933 77.753591 
L 74.15893 72.040801 
L 72.331928 69.978059 
L 70.504925 71.920128 
L 68.677923 72.519439 
L 66.85092 70.293615 
L 65.023917 60.330068 
L 63.196915 65.687042 
L 61.369912 70.179917 
L 59.54291 73.705015 
L 57.715907 81.15889 
L 55.888905 72.170866 
L 54.061902 72.520536 
" clip-path="url(#pcee7ee5ab4)" style="fill: none; stroke: #ff00ff; stroke-opacity: 0.5; stroke-width: 0.5; stroke-linecap: square"/>
   </g>
   <g id="line2d_23">
    <path d="M 260.513189 126.792 
L 258.686186 126.792 
L 256.859184 126.792 
L 255.032181 126.792 
L 253.205179 126.792 
L 251.378176 43.799028 
L 249.551174 32.122196 
L 247.724171 29.377088 
L 245.897169 25.206542 
L 244.070166 28.392337 
L 242.243164 28.886497 
L 240.416161 27.650059 
L 238.589158 33.975121 
L 236.762156 38.682889 
L 234.935153 44.360964 
L 233.108151 46.453453 
L 231.281148 45.112134 
L 229.454146 46.236404 
L 227.627143 55.323003 
L 225.800141 59.197993 
L 223.973138 58.52207 
L 222.146136 66.37784 
L 220.319133 72.20288 
L 218.492131 80.715878 
L 216.665128 72.341696 
L 214.838125 76.001944 
L 213.011123 75.971843 
L 211.18412 78.614818 
L 209.357118 82.982959 
L 207.530115 78.296624 
L 205.703113 86.108129 
L 203.87611 88.37158 
L 202.049108 88.932816 
L 200.222105 81.641657 
L 198.395103 82.392491 
L 196.5681 84.677005 
L 194.741098 85.393132 
L 192.914095 84.960944 
L 191.087093 86.688795 
L 189.26009 81.727072 
L 187.433087 73.407844 
L 185.606085 79.499483 
L 183.779082 79.699245 
L 181.95208 82.009025 
L 180.125077 77.14649 
L 178.298075 83.540871 
L 176.471072 86.415131 
L 174.64407 83.638204 
L 172.817067 80.636847 
L 170.990065 74.006911 
L 169.163062 81.596562 
L 167.33606 80.245765 
L 165.509057 74.549525 
L 163.682054 75.502619 
L 161.855052 80.051917 
L 160.028049 79.487611 
L 158.201047 83.558543 
L 156.374044 83.39156 
L 154.547042 80.611886 
L 152.720039 73.177842 
L 150.893037 77.927192 
L 149.066034 81.233143 
L 147.239032 83.213476 
L 145.412029 80.399057 
L 143.585027 85.108893 
L 141.758024 84.733015 
L 139.931021 83.584734 
L 138.104019 75.156602 
L 136.277016 74.6049 
L 134.450014 86.308878 
L 132.623011 82.835935 
L 130.796009 80.927732 
L 128.969006 71.037441 
L 127.142004 70.702848 
L 125.315001 69.772105 
L 123.487999 71.976561 
L 121.660996 69.986464 
L 119.833994 79.851457 
L 118.006991 75.184218 
L 116.179989 81.077717 
L 114.352986 82.012047 
L 112.525983 74.533659 
L 110.698981 75.266783 
L 108.871978 71.262129 
L 107.044976 74.092229 
L 105.217973 69.008406 
L 103.390971 68.948714 
L 101.563968 73.885121 
L 99.736966 81.213083 
L 97.909963 70.539503 
L 96.082961 71.830584 
L 94.255958 72.336251 
L 92.428956 76.488464 
L 90.601953 76.23686 
L 88.77495 68.037367 
L 86.947948 66.206137 
L 85.120945 68.419506 
L 83.293943 78.323377 
L 81.46694 74.844046 
L 79.639938 70.459776 
L 77.812935 71.425839 
L 75.985933 80.226215 
L 74.15893 81.56012 
L 72.331928 69.928783 
L 70.504925 68.433949 
L 68.677923 68.026286 
L 66.85092 71.512997 
L 65.023917 67.960552 
L 63.196915 67.835594 
L 61.369912 74.218514 
L 59.54291 69.111442 
L 57.715907 71.691702 
L 55.888905 70.358369 
L 54.061902 74.394245 
" clip-path="url(#pcee7ee5ab4)" style="fill: none; stroke: #ff00ff; stroke-opacity: 0.5; stroke-width: 0.5; stroke-linecap: square"/>
   </g>
   <g id="line2d_24">
    <path d="M 260.513189 126.792 
L 258.686186 126.792 
L 256.859184 126.792 
L 255.032181 126.792 
L 253.205179 126.792 
L 251.378176 80.40883 
L 249.551174 84.915287 
L 247.724171 85.630668 
L 245.897169 87.48866 
L 244.070166 85.63506 
L 242.243164 83.344851 
L 240.416161 83.930559 
L 238.589158 78.609138 
L 236.762156 73.790359 
L 234.935153 71.838668 
L 233.108151 67.73447 
L 231.281148 63.947492 
L 229.454146 64.693156 
L 227.627143 64.85103 
L 225.800141 62.42036 
L 223.973138 59.082242 
L 222.146136 56.151105 
L 220.319133 54.707231 
L 218.492131 51.416458 
L 216.665128 53.320662 
L 214.838125 48.222102 
L 213.011123 49.802834 
L 211.18412 49.663082 
L 209.357118 51.056098 
L 207.530115 50.527472 
L 205.703113 47.342511 
L 203.87611 48.926685 
L 202.049108 49.29197 
L 200.222105 50.772494 
L 198.395103 50.420747 
L 196.5681 49.749468 
L 194.741098 52.35256 
L 192.914095 52.807648 
L 191.087093 49.669812 
L 189.26009 54.564242 
L 187.433087 54.954499 
L 185.606085 53.611117 
L 183.779082 53.693365 
L 181.95208 51.088436 
L 180.125077 56.871872 
L 178.298075 55.789575 
L 176.471072 57.281207 
L 174.64407 54.943559 
L 172.817067 57.447078 
L 170.990065 62.053233 
L 169.163062 63.011492 
L 167.33606 58.686246 
L 165.509057 62.126662 
L 163.682054 59.130932 
L 161.855052 61.389783 
L 160.028049 62.308121 
L 158.201047 58.622621 
L 156.374044 56.266826 
L 154.547042 62.752705 
L 152.720039 67.330979 
L 150.893037 67.562038 
L 149.066034 61.801689 
L 147.239032 63.432532 
L 145.412029 65.128226 
L 143.585027 64.039608 
L 141.758024 65.26193 
L 139.931021 63.802145 
L 138.104019 65.493059 
L 136.277016 65.629196 
L 134.450014 62.931325 
L 132.623011 63.936356 
L 130.796009 63.51476 
L 128.969006 65.115852 
L 127.142004 67.701835 
L 125.315001 64.760833 
L 123.487999 68.841433 
L 121.660996 66.384077 
L 119.833994 66.404422 
L 118.006991 67.055334 
L 116.179989 61.931307 
L 114.352986 64.779077 
L 112.525983 71.254838 
L 110.698981 66.956424 
L 108.871978 70.635649 
L 107.044976 70.903856 
L 105.217973 71.556543 
L 103.390971 68.896878 
L 101.563968 66.51196 
L 99.736966 60.063258 
L 97.909963 70.188338 
L 96.082961 67.130804 
L 94.255958 66.959783 
L 92.428956 63.390254 
L 90.601953 63.353056 
L 88.77495 69.458868 
L 86.947948 69.37892 
L 85.120945 69.126796 
L 83.293943 67.084399 
L 81.46694 67.549443 
L 79.639938 69.123004 
L 77.812935 67.003693 
L 75.985933 61.476481 
L 74.15893 63.694512 
L 72.331928 67.447157 
L 70.504925 69.385684 
L 68.677923 68.270949 
L 66.85092 67.037042 
L 65.023917 73.416859 
L 63.196915 72.693813 
L 61.369912 64.645215 
L 59.54291 66.840296 
L 57.715907 64.651899 
L 55.888905 66.6823 
L 54.061902 65.80078 
" clip-path="url(#pcee7ee5ab4)" style="fill: none; stroke: #ff8c00; stroke-width: 4; stroke-linecap: square"/>
   </g>
   <g id="line2d_25">
    <path d="M 260.513189 126.792 
L 258.686186 126.792 
L 256.859184 126.792 
L 255.032181 126.792 
L 253.205179 126.792 
L 251.378176 59.278027 
L 249.551174 54.77157 
L 247.724171 54.056189 
L 245.897169 52.198197 
L 244.070166 54.051797 
L 242.243164 56.342006 
L 240.416161 55.756298 
L 238.589158 61.07772 
L 236.762156 65.896498 
L 234.935153 67.848189 
L 233.108151 71.952387 
L 231.281148 75.739365 
L 229.454146 74.993701 
L 227.627143 74.835827 
L 225.800141 77.266497 
L 223.973138 80.604615 
L 222.146136 83.535752 
L 220.319133 84.979626 
L 218.492131 88.270399 
L 216.665128 86.366195 
L 214.838125 91.464755 
L 213.011123 89.884023 
L 211.18412 90.023775 
L 209.357118 88.63076 
L 207.530115 89.159385 
L 205.703113 92.344346 
L 203.87611 90.760172 
L 202.049108 90.394887 
L 200.222105 88.914363 
L 198.395103 89.26611 
L 196.5681 89.93739 
L 194.741098 87.334298 
L 192.914095 86.879209 
L 191.087093 90.017045 
L 189.26009 85.122615 
L 187.433087 84.732359 
L 185.606085 86.07574 
L 183.779082 85.993492 
L 181.95208 88.598421 
L 180.125077 82.814985 
L 178.298075 83.897282 
L 176.471072 82.40565 
L 174.64407 84.743298 
L 172.817067 82.23978 
L 170.990065 77.633625 
L 169.163062 76.675366 
L 167.33606 81.000611 
L 165.509057 77.560195 
L 163.682054 80.555925 
L 161.855052 78.297074 
L 160.028049 77.378737 
L 158.201047 81.064236 
L 156.374044 83.420031 
L 154.547042 76.934152 
L 152.720039 72.355878 
L 150.893037 72.124819 
L 149.066034 77.885168 
L 147.239032 76.254325 
L 145.412029 74.558632 
L 143.585027 75.64725 
L 141.758024 74.424927 
L 139.931021 75.884712 
L 138.104019 74.193798 
L 136.277016 74.057661 
L 134.450014 76.755532 
L 132.623011 75.750501 
L 130.796009 76.172097 
L 128.969006 74.571005 
L 127.142004 71.985022 
L 125.315001 74.926024 
L 123.487999 70.845425 
L 121.660996 73.30278 
L 119.833994 73.282435 
L 118.006991 72.631523 
L 116.179989 77.75555 
L 114.352986 74.90778 
L 112.525983 68.432019 
L 110.698981 72.730433 
L 108.871978 69.051208 
L 107.044976 68.783001 
L 105.217973 68.130314 
L 103.390971 70.789979 
L 101.563968 73.174897 
L 99.736966 79.623599 
L 97.909963 69.49852 
L 96.082961 72.556053 
L 94.255958 72.727074 
L 92.428956 76.296603 
L 90.601953 76.333802 
L 88.77495 70.227989 
L 86.947948 70.307937 
L 85.120945 70.560061 
L 83.293943 72.602459 
L 81.46694 72.137414 
L 79.639938 70.563853 
L 77.812935 72.683164 
L 75.985933 78.210376 
L 74.15893 75.992345 
L 72.331928 72.2397 
L 70.504925 70.301173 
L 68.677923 71.415908 
L 66.85092 72.649815 
L 65.023917 66.269999 
L 63.196915 66.993045 
L 61.369912 75.041642 
L 59.54291 72.846561 
L 57.715907 75.034958 
L 55.888905 73.004557 
L 54.061902 73.886077 
" clip-path="url(#pcee7ee5ab4)" style="fill: none; stroke: #ff00ff; stroke-width: 4; stroke-linecap: square"/>
   </g>
   <g id="line2d_26">
    <path d="M 251.378176 126.792 
L 251.378176 7.2 
" clip-path="url(#pcee7ee5ab4)" style="fill: none; stroke-dasharray: 1.5,2.475; stroke-dashoffset: 0; stroke: #000000; stroke-width: 1.5"/>
   </g>
   <g id="patch_3">
    <path d="M 53.94375 126.792 
L 53.94375 7.2 
" style="fill: none; stroke: #000000; stroke-linejoin: miter; stroke-linecap: square"/>
   </g>
   <g id="patch_4">
    <path d="M 260.40375 126.792 
L 260.40375 7.2 
" style="fill: none"/>
   </g>
   <g id="patch_5">
    <path d="M 53.94375 126.792 
L 260.40375 126.792 
" style="fill: none; stroke: #000000; stroke-linejoin: miter; stroke-linecap: square"/>
   </g>
   <g id="patch_6">
    <path d="M 53.94375 7.2 
L 260.40375 7.2 
" style="fill: none"/>
   </g>
   <g id="legend_1">
    <g id="patch_7">
     <path d="M 60.94375 121.792 
L 119.44375 121.792 
Q 121.44375 121.792 121.44375 119.792 
L 121.44375 91.413875 
Q 121.44375 89.413875 119.44375 89.413875 
L 60.94375 89.413875 
Q 58.94375 89.413875 58.94375 91.413875 
L 58.94375 119.792 
Q 58.94375 121.792 60.94375 121.792 
z
" style="fill: #ffffff; opacity: 0.8; stroke: #cccccc; stroke-linejoin: miter"/>
    </g>
    <g id="line2d_27">
     <path d="M 62.94375 97.512313 
L 72.94375 97.512313 
L 82.94375 97.512313 
" style="fill: none; stroke: #ff00ff; stroke-width: 4; stroke-linecap: square"/>
    </g>
    <g id="text_10">
     <!-- WT -->
     <g transform="translate(90.94375 101.012313) scale(0.1 -0.1)">
      <defs>
       <path id="DejaVuSans-57" d="M 213 4666 
L 850 4666 
L 1831 722 
L 2809 4666 
L 3519 4666 
L 4500 722 
L 5478 4666 
L 6119 4666 
L 4947 0 
L 4153 0 
L 3169 4050 
L 2175 0 
L 1381 0 
L 213 4666 
z
" transform="scale(0.015625)"/>
       <path id="DejaVuSans-54" d="M -19 4666 
L 3928 4666 
L 3928 4134 
L 2272 4134 
L 2272 0 
L 1638 0 
L 1638 4134 
L -19 4134 
L -19 4666 
z
" transform="scale(0.015625)"/>
      </defs>
      <use xlink:href="#DejaVuSans-57"/>
      <use xlink:href="#DejaVuSans-54" x="98.876953"/>
     </g>
    </g>
    <g id="line2d_28">
     <path d="M 62.94375 112.192 
L 72.94375 112.192 
L 82.94375 112.192 
" style="fill: none; stroke: #ff8c00; stroke-width: 4; stroke-linecap: square"/>
    </g>
    <g id="text_11">
     <!-- $\Delta\mathit{pilG}$ -->
     <g transform="translate(90.94375 115.692) scale(0.1 -0.1)">
      <defs>
       <path id="DejaVuSans-394" d="M 2188 4044 
L 906 525 
L 3472 525 
L 2188 4044 
z
M 50 0 
L 1831 4666 
L 2547 4666 
L 4325 0 
L 50 0 
z
" transform="scale(0.015625)"/>
       <path id="DejaVuSans-Oblique-70" d="M 3175 2156 
Q 3175 2616 2975 2859 
Q 2775 3103 2400 3103 
Q 2144 3103 1911 2972 
Q 1678 2841 1497 2591 
Q 1319 2344 1212 1994 
Q 1106 1644 1106 1300 
Q 1106 863 1306 627 
Q 1506 391 1875 391 
Q 2147 391 2380 519 
Q 2613 647 2778 891 
Q 2956 1147 3065 1494 
Q 3175 1841 3175 2156 
z
M 1394 2969 
Q 1625 3272 1939 3428 
Q 2253 3584 2638 3584 
Q 3175 3584 3472 3232 
Q 3769 2881 3769 2247 
Q 3769 1728 3584 1258 
Q 3400 788 3053 416 
Q 2822 169 2531 39 
Q 2241 -91 1919 -91 
Q 1547 -91 1294 64 
Q 1041 219 916 525 
L 556 -1331 
L -19 -1331 
L 922 3500 
L 1497 3500 
L 1394 2969 
z
" transform="scale(0.015625)"/>
       <path id="DejaVuSans-Oblique-69" d="M 1172 4863 
L 1747 4863 
L 1606 4134 
L 1031 4134 
L 1172 4863 
z
M 909 3500 
L 1484 3500 
L 800 0 
L 225 0 
L 909 3500 
z
" transform="scale(0.015625)"/>
       <path id="DejaVuSans-Oblique-6c" d="M 1172 4863 
L 1747 4863 
L 800 0 
L 225 0 
L 1172 4863 
z
" transform="scale(0.015625)"/>
       <path id="DejaVuSans-Oblique-47" d="M 3494 697 
L 3738 1919 
L 2700 1919 
L 2797 2438 
L 4453 2438 
L 4050 384 
Q 3634 156 3143 32 
Q 2653 -91 2156 -91 
Q 1278 -91 783 396 
Q 288 884 288 1753 
Q 288 2475 589 3126 
Q 891 3778 1422 4213 
Q 1756 4484 2153 4617 
Q 2550 4750 3034 4750 
Q 3472 4750 3873 4639 
Q 4275 4528 4641 4306 
L 4513 3634 
Q 4231 3928 3853 4083 
Q 3475 4238 3047 4238 
Q 2550 4238 2172 4048 
Q 1794 3859 1497 3463 
Q 1244 3125 1098 2667 
Q 953 2209 953 1734 
Q 953 1081 1287 751 
Q 1622 422 2284 422 
Q 2616 422 2925 492 
Q 3234 563 3494 697 
z
" transform="scale(0.015625)"/>
      </defs>
      <use xlink:href="#DejaVuSans-394" transform="translate(0 0.015625)"/>
      <use xlink:href="#DejaVuSans-Oblique-70" transform="translate(68.408203 0.015625)"/>
      <use xlink:href="#DejaVuSans-Oblique-69" transform="translate(131.884766 0.015625)"/>
      <use xlink:href="#DejaVuSans-Oblique-6c" transform="translate(159.667969 0.015625)"/>
      <use xlink:href="#DejaVuSans-Oblique-47" transform="translate(187.451172 0.015625)"/>
     </g>
    </g>
   </g>
  </g>
 </g>
 <defs>
  <clipPath id="pcee7ee5ab4">
   <rect x="53.94375" y="7.2" width="206.46" height="119.592"/>
  </clipPath>
 </defs>
</svg>
