<?xml version="1.0" encoding="utf-8" standalone="no"?>
<!DOCTYPE svg PUBLIC "-//W3C//DTD SVG 1.1//EN"
  "http://www.w3.org/Graphics/SVG/1.1/DTD/svg11.dtd">
<svg xmlns:xlink="http://www.w3.org/1999/xlink" width="267.60375pt" height="174.433563pt" viewBox="0 0 267.60375 174.433563" xmlns="http://www.w3.org/2000/svg" version="1.1">
 <metadata>
  <rdf:RDF xmlns:dc="http://purl.org/dc/elements/1.1/" xmlns:cc="http://creativecommons.org/ns#" xmlns:rdf="http://www.w3.org/1999/02/22-rdf-syntax-ns#">
   <cc:Work>
    <dc:type rdf:resource="http://purl.org/dc/dcmitype/StillImage"/>
    <dc:date>2026-05-26T16:05:03.153989</dc:date>
    <dc:format>image/svg+xml</dc:format>
    <dc:creator>
     <cc:Agent>
      <dc:title>Matplotlib v3.9.4, https://matplotlib.org/</dc:title>
     </cc:Agent>
    </dc:creator>
   </cc:Work>
  </rdf:RDF>
 </metadata>
 <defs>
  <style type="text/css">*{stroke-linejoin: round; stroke-linecap: butt}</style>
 </defs>
 <g id="figure_1">
  <g id="patch_1">
   <path d="M 0 174.433563 
L 267.60375 174.433563 
L 267.60375 0 
L 0 0 
L 0 174.433563 
z
" style="fill: none"/>
  </g>
  <g id="axes_1">
   <g id="patch_2">
    <path d="M 53.94375 126.792 
L 260.40375 126.792 
L 260.40375 7.2 
L 53.94375 7.2 
L 53.94375 126.792 
z
" style="fill: none"/>
   </g>
   <g id="matplotlib.axis_1">
    <g id="xtick_1">
     <g id="line2d_1">
      <defs>
       <path id="m2e627bc53b" d="M 0 0 
L 0 7 
" style="stroke: #000000; stroke-width: 1.25"/>
      </defs>
      <g>
       <use xlink:href="#m2e627bc53b" x="251.378176" y="126.792" style="stroke: #000000; stroke-width: 1.25"/>
      </g>
     </g>
     <g id="text_1">
      <!-- 0 -->
      <g transform="translate(247.48552 147.312938) scale(0.14 -0.14)">
       <defs>
        <path id="ArialMT-30" d="M 266 2259 
Q 266 3072 433 3567 
Q 600 4063 929 4331 
Q 1259 4600 1759 4600 
Q 2128 4600 2406 4451 
Q 2684 4303 2865 4023 
Q 3047 3744 3150 3342 
Q 3253 2941 3253 2259 
Q 3253 1453 3087 958 
Q 2922 463 2592 192 
Q 2263 -78 1759 -78 
Q 1097 -78 719 397 
Q 266 969 266 2259 
z
M 844 2259 
Q 844 1131 1108 757 
Q 1372 384 1759 384 
Q 2147 384 2411 759 
Q 2675 1134 2675 2259 
Q 2675 3391 2411 3762 
Q 2147 4134 1753 4134 
Q 1366 4134 1134 3806 
Q 844 3388 844 2259 
z
" transform="scale(0.015625)"/>
       </defs>
       <use xlink:href="#ArialMT-30"/>
      </g>
     </g>
    </g>
    <g id="xtick_2">
     <g id="line2d_2">
      <g>
       <use xlink:href="#m2e627bc53b" x="194.96834" y="126.792" style="stroke: #000000; stroke-width: 1.25"/>
      </g>
     </g>
     <g id="text_2">
      <!-- 100 -->
      <g transform="translate(183.290371 147.312938) scale(0.14 -0.14)">
       <defs>
        <path id="ArialMT-31" d="M 2384 0 
L 1822 0 
L 1822 3584 
Q 1619 3391 1289 3197 
Q 959 3003 697 2906 
L 697 3450 
Q 1169 3672 1522 3987 
Q 1875 4303 2022 4600 
L 2384 4600 
L 2384 0 
z
" transform="scale(0.015625)"/>
       </defs>
       <use xlink:href="#ArialMT-31"/>
       <use xlink:href="#ArialMT-30" x="55.615234"/>
       <use xlink:href="#ArialMT-30" x="111.230469"/>
      </g>
     </g>
    </g>
    <g id="xtick_3">
     <g id="line2d_3">
      <g>
       <use xlink:href="#m2e627bc53b" x="138.558504" y="126.792" style="stroke: #000000; stroke-width: 1.25"/>
      </g>
     </g>
     <g id="text_3">
      <!-- 200 -->
      <g transform="translate(126.880535 147.312938) scale(0.14 -0.14)">
       <defs>
        <path id="ArialMT-32" d="M 3222 541 
L 3222 0 
L 194 0 
Q 188 203 259 391 
Q 375 700 629 1000 
Q 884 1300 1366 1694 
Q 2113 2306 2375 2664 
Q 2638 3022 2638 3341 
Q 2638 3675 2398 3904 
Q 2159 4134 1775 4134 
Q 1369 4134 1125 3890 
Q 881 3647 878 3216 
L 300 3275 
Q 359 3922 746 4261 
Q 1134 4600 1788 4600 
Q 2447 4600 2831 4234 
Q 3216 3869 3216 3328 
Q 3216 3053 3103 2787 
Q 2991 2522 2730 2228 
Q 2469 1934 1863 1422 
Q 1356 997 1212 845 
Q 1069 694 975 541 
L 3222 541 
z
" transform="scale(0.015625)"/>
       </defs>
       <use xlink:href="#ArialMT-32"/>
       <use xlink:href="#ArialMT-30" x="55.615234"/>
       <use xlink:href="#ArialMT-30" x="111.230469"/>
      </g>
     </g>
    </g>
    <g id="xtick_4">
     <g id="line2d_4">
      <g>
       <use xlink:href="#m2e627bc53b" x="82.148668" y="126.792" style="stroke: #000000; stroke-width: 1.25"/>
      </g>
     </g>
     <g id="text_4">
      <!-- 300 -->
      <g transform="translate(70.470699 147.312938) scale(0.14 -0.14)">
       <defs>
        <path id="ArialMT-33" d="M 269 1209 
L 831 1284 
Q 928 806 1161 595 
Q 1394 384 1728 384 
Q 2125 384 2398 659 
Q 2672 934 2672 1341 
Q 2672 1728 2419 1979 
Q 2166 2231 1775 2231 
Q 1616 2231 1378 2169 
L 1441 2663 
Q 1497 2656 1531 2656 
Q 1891 2656 2178 2843 
Q 2466 3031 2466 3422 
Q 2466 3731 2256 3934 
Q 2047 4138 1716 4138 
Q 1388 4138 1169 3931 
Q 950 3725 888 3313 
L 325 3413 
Q 428 3978 793 4289 
Q 1159 4600 1703 4600 
Q 2078 4600 2393 4439 
Q 2709 4278 2876 4000 
Q 3044 3722 3044 3409 
Q 3044 3113 2884 2869 
Q 2725 2625 2413 2481 
Q 2819 2388 3044 2092 
Q 3269 1797 3269 1353 
Q 3269 753 2831 336 
Q 2394 -81 1725 -81 
Q 1122 -81 723 278 
Q 325 638 269 1209 
z
" transform="scale(0.015625)"/>
       </defs>
       <use xlink:href="#ArialMT-33"/>
       <use xlink:href="#ArialMT-30" x="55.615234"/>
       <use xlink:href="#ArialMT-30" x="111.230469"/>
      </g>
     </g>
    </g>
    <g id="text_5">
     <!-- Distance from the edge (µm) -->
     <g transform="translate(62.907813 164.287) scale(0.14 -0.14)">
      <defs>
       <path id="Arial-BoldMT-44" d="M 463 4581 
L 2153 4581 
Q 2725 4581 3025 4494 
Q 3428 4375 3715 4072 
Q 4003 3769 4153 3330 
Q 4303 2891 4303 2247 
Q 4303 1681 4163 1272 
Q 3991 772 3672 463 
Q 3431 228 3022 97 
Q 2716 0 2203 0 
L 463 0 
L 463 4581 
z
M 1388 3806 
L 1388 772 
L 2078 772 
Q 2466 772 2638 816 
Q 2863 872 3011 1006 
Q 3159 1141 3253 1448 
Q 3347 1756 3347 2288 
Q 3347 2819 3253 3103 
Q 3159 3388 2990 3547 
Q 2822 3706 2563 3763 
Q 2369 3806 1803 3806 
L 1388 3806 
z
" transform="scale(0.015625)"/>
       <path id="Arial-BoldMT-69" d="M 459 3769 
L 459 4581 
L 1338 4581 
L 1338 3769 
L 459 3769 
z
M 459 0 
L 459 3319 
L 1338 3319 
L 1338 0 
L 459 0 
z
" transform="scale(0.015625)"/>
       <path id="Arial-BoldMT-73" d="M 150 947 
L 1031 1081 
Q 1088 825 1259 692 
Q 1431 559 1741 559 
Q 2081 559 2253 684 
Q 2369 772 2369 919 
Q 2369 1019 2306 1084 
Q 2241 1147 2013 1200 
Q 950 1434 666 1628 
Q 272 1897 272 2375 
Q 272 2806 612 3100 
Q 953 3394 1669 3394 
Q 2350 3394 2681 3172 
Q 3013 2950 3138 2516 
L 2309 2363 
Q 2256 2556 2107 2659 
Q 1959 2763 1684 2763 
Q 1338 2763 1188 2666 
Q 1088 2597 1088 2488 
Q 1088 2394 1175 2328 
Q 1294 2241 1995 2081 
Q 2697 1922 2975 1691 
Q 3250 1456 3250 1038 
Q 3250 581 2869 253 
Q 2488 -75 1741 -75 
Q 1063 -75 667 200 
Q 272 475 150 947 
z
" transform="scale(0.015625)"/>
       <path id="Arial-BoldMT-74" d="M 1981 3319 
L 1981 2619 
L 1381 2619 
L 1381 1281 
Q 1381 875 1398 808 
Q 1416 741 1477 697 
Q 1538 653 1625 653 
Q 1747 653 1978 738 
L 2053 56 
Q 1747 -75 1359 -75 
Q 1122 -75 931 4 
Q 741 84 652 211 
Q 563 338 528 553 
Q 500 706 500 1172 
L 500 2619 
L 97 2619 
L 97 3319 
L 500 3319 
L 500 3978 
L 1381 4491 
L 1381 3319 
L 1981 3319 
z
" transform="scale(0.015625)"/>
       <path id="Arial-BoldMT-61" d="M 1116 2306 
L 319 2450 
Q 453 2931 781 3162 
Q 1109 3394 1756 3394 
Q 2344 3394 2631 3255 
Q 2919 3116 3036 2902 
Q 3153 2688 3153 2116 
L 3144 1091 
Q 3144 653 3186 445 
Q 3228 238 3344 0 
L 2475 0 
Q 2441 88 2391 259 
Q 2369 338 2359 363 
Q 2134 144 1878 34 
Q 1622 -75 1331 -75 
Q 819 -75 523 203 
Q 228 481 228 906 
Q 228 1188 362 1408 
Q 497 1628 739 1745 
Q 981 1863 1438 1950 
Q 2053 2066 2291 2166 
L 2291 2253 
Q 2291 2506 2166 2614 
Q 2041 2722 1694 2722 
Q 1459 2722 1328 2630 
Q 1197 2538 1116 2306 
z
M 2291 1594 
Q 2122 1538 1756 1459 
Q 1391 1381 1278 1306 
Q 1106 1184 1106 997 
Q 1106 813 1243 678 
Q 1381 544 1594 544 
Q 1831 544 2047 700 
Q 2206 819 2256 991 
Q 2291 1103 2291 1419 
L 2291 1594 
z
" transform="scale(0.015625)"/>
       <path id="Arial-BoldMT-6e" d="M 3478 0 
L 2600 0 
L 2600 1694 
Q 2600 2231 2544 2389 
Q 2488 2547 2361 2634 
Q 2234 2722 2056 2722 
Q 1828 2722 1647 2597 
Q 1466 2472 1398 2265 
Q 1331 2059 1331 1503 
L 1331 0 
L 453 0 
L 453 3319 
L 1269 3319 
L 1269 2831 
Q 1703 3394 2363 3394 
Q 2653 3394 2893 3289 
Q 3134 3184 3257 3021 
Q 3381 2859 3429 2653 
Q 3478 2447 3478 2063 
L 3478 0 
z
" transform="scale(0.015625)"/>
       <path id="Arial-BoldMT-63" d="M 3353 2338 
L 2488 2181 
Q 2444 2441 2289 2572 
Q 2134 2703 1888 2703 
Q 1559 2703 1364 2476 
Q 1169 2250 1169 1719 
Q 1169 1128 1367 884 
Q 1566 641 1900 641 
Q 2150 641 2309 783 
Q 2469 925 2534 1272 
L 3397 1125 
Q 3263 531 2881 228 
Q 2500 -75 1859 -75 
Q 1131 -75 698 384 
Q 266 844 266 1656 
Q 266 2478 700 2936 
Q 1134 3394 1875 3394 
Q 2481 3394 2839 3133 
Q 3197 2872 3353 2338 
z
" transform="scale(0.015625)"/>
       <path id="Arial-BoldMT-65" d="M 2381 1056 
L 3256 909 
Q 3088 428 2723 176 
Q 2359 -75 1813 -75 
Q 947 -75 531 491 
Q 203 944 203 1634 
Q 203 2459 634 2926 
Q 1066 3394 1725 3394 
Q 2466 3394 2894 2905 
Q 3322 2416 3303 1406 
L 1103 1406 
Q 1113 1016 1316 798 
Q 1519 581 1822 581 
Q 2028 581 2168 693 
Q 2309 806 2381 1056 
z
M 2431 1944 
Q 2422 2325 2234 2523 
Q 2047 2722 1778 2722 
Q 1491 2722 1303 2513 
Q 1116 2303 1119 1944 
L 2431 1944 
z
" transform="scale(0.015625)"/>
       <path id="Arial-BoldMT-20" transform="scale(0.015625)"/>
       <path id="Arial-BoldMT-66" d="M 75 3319 
L 563 3319 
L 563 3569 
Q 563 3988 652 4194 
Q 741 4400 980 4529 
Q 1219 4659 1584 4659 
Q 1959 4659 2319 4547 
L 2200 3934 
Q 1991 3984 1797 3984 
Q 1606 3984 1523 3895 
Q 1441 3806 1441 3553 
L 1441 3319 
L 2097 3319 
L 2097 2628 
L 1441 2628 
L 1441 0 
L 563 0 
L 563 2628 
L 75 2628 
L 75 3319 
z
" transform="scale(0.015625)"/>
       <path id="Arial-BoldMT-72" d="M 1300 0 
L 422 0 
L 422 3319 
L 1238 3319 
L 1238 2847 
Q 1447 3181 1614 3287 
Q 1781 3394 1994 3394 
Q 2294 3394 2572 3228 
L 2300 2463 
Q 2078 2606 1888 2606 
Q 1703 2606 1575 2504 
Q 1447 2403 1373 2137 
Q 1300 1872 1300 1025 
L 1300 0 
z
" transform="scale(0.015625)"/>
       <path id="Arial-BoldMT-6f" d="M 256 1706 
Q 256 2144 472 2553 
Q 688 2963 1083 3178 
Q 1478 3394 1966 3394 
Q 2719 3394 3200 2905 
Q 3681 2416 3681 1669 
Q 3681 916 3195 420 
Q 2709 -75 1972 -75 
Q 1516 -75 1102 131 
Q 688 338 472 736 
Q 256 1134 256 1706 
z
M 1156 1659 
Q 1156 1166 1390 903 
Q 1625 641 1969 641 
Q 2313 641 2545 903 
Q 2778 1166 2778 1666 
Q 2778 2153 2545 2415 
Q 2313 2678 1969 2678 
Q 1625 2678 1390 2415 
Q 1156 2153 1156 1659 
z
" transform="scale(0.015625)"/>
       <path id="Arial-BoldMT-6d" d="M 394 3319 
L 1203 3319 
L 1203 2866 
Q 1638 3394 2238 3394 
Q 2556 3394 2790 3262 
Q 3025 3131 3175 2866 
Q 3394 3131 3647 3262 
Q 3900 3394 4188 3394 
Q 4553 3394 4806 3245 
Q 5059 3097 5184 2809 
Q 5275 2597 5275 2122 
L 5275 0 
L 4397 0 
L 4397 1897 
Q 4397 2391 4306 2534 
Q 4184 2722 3931 2722 
Q 3747 2722 3584 2609 
Q 3422 2497 3350 2280 
Q 3278 2063 3278 1594 
L 3278 0 
L 2400 0 
L 2400 1819 
Q 2400 2303 2353 2443 
Q 2306 2584 2207 2653 
Q 2109 2722 1941 2722 
Q 1738 2722 1575 2612 
Q 1413 2503 1342 2297 
Q 1272 2091 1272 1613 
L 1272 0 
L 394 0 
L 394 3319 
z
" transform="scale(0.015625)"/>
       <path id="Arial-BoldMT-68" d="M 1334 4581 
L 1334 2897 
Q 1759 3394 2350 3394 
Q 2653 3394 2897 3281 
Q 3141 3169 3264 2994 
Q 3388 2819 3433 2606 
Q 3478 2394 3478 1947 
L 3478 0 
L 2600 0 
L 2600 1753 
Q 2600 2275 2550 2415 
Q 2500 2556 2373 2639 
Q 2247 2722 2056 2722 
Q 1838 2722 1666 2615 
Q 1494 2509 1414 2295 
Q 1334 2081 1334 1663 
L 1334 0 
L 456 0 
L 456 4581 
L 1334 4581 
z
" transform="scale(0.015625)"/>
       <path id="Arial-BoldMT-64" d="M 3503 0 
L 2688 0 
L 2688 488 
Q 2484 203 2207 64 
Q 1931 -75 1650 -75 
Q 1078 -75 670 386 
Q 263 847 263 1672 
Q 263 2516 659 2955 
Q 1056 3394 1663 3394 
Q 2219 3394 2625 2931 
L 2625 4581 
L 3503 4581 
L 3503 0 
z
M 1159 1731 
Q 1159 1200 1306 963 
Q 1519 619 1900 619 
Q 2203 619 2415 876 
Q 2628 1134 2628 1647 
Q 2628 2219 2422 2470 
Q 2216 2722 1894 2722 
Q 1581 2722 1370 2473 
Q 1159 2225 1159 1731 
z
" transform="scale(0.015625)"/>
       <path id="Arial-BoldMT-67" d="M 378 -219 
L 1381 -341 
Q 1406 -516 1497 -581 
Q 1622 -675 1891 -675 
Q 2234 -675 2406 -572 
Q 2522 -503 2581 -350 
Q 2622 -241 2622 53 
L 2622 538 
Q 2228 0 1628 0 
Q 959 0 569 566 
Q 263 1013 263 1678 
Q 263 2513 664 2953 
Q 1066 3394 1663 3394 
Q 2278 3394 2678 2853 
L 2678 3319 
L 3500 3319 
L 3500 341 
Q 3500 -247 3403 -537 
Q 3306 -828 3131 -993 
Q 2956 -1159 2664 -1253 
Q 2372 -1347 1925 -1347 
Q 1081 -1347 728 -1058 
Q 375 -769 375 -325 
Q 375 -281 378 -219 
z
M 1163 1728 
Q 1163 1200 1367 954 
Q 1572 709 1872 709 
Q 2194 709 2416 961 
Q 2638 1213 2638 1706 
Q 2638 2222 2425 2472 
Q 2213 2722 1888 2722 
Q 1572 2722 1367 2476 
Q 1163 2231 1163 1728 
z
" transform="scale(0.015625)"/>
       <path id="Arial-BoldMT-28" d="M 1916 -1347 
L 1313 -1347 
Q 834 -625 584 153 
Q 334 931 334 1659 
Q 334 2563 644 3369 
Q 913 4069 1325 4659 
L 1925 4659 
Q 1497 3713 1336 3048 
Q 1175 2384 1175 1641 
Q 1175 1128 1270 590 
Q 1366 53 1531 -431 
Q 1641 -750 1916 -1347 
z
" transform="scale(0.015625)"/>
       <path id="Arial-BoldMT-b5" d="M 347 3319 
L 1219 3319 
L 1219 1816 
Q 1219 1166 1350 931 
Q 1516 628 1841 628 
Q 2016 628 2172 740 
Q 2328 853 2403 1053 
Q 2478 1253 2478 1806 
L 2478 3319 
L 3366 3319 
L 3366 0 
L 2547 0 
L 2547 400 
Q 2453 225 2368 137 
Q 2284 50 2142 -15 
Q 2000 -81 1881 -81 
Q 1659 -81 1488 41 
Q 1366 131 1219 400 
L 1219 -1272 
L 347 -1272 
L 347 3319 
z
" transform="scale(0.015625)"/>
       <path id="Arial-BoldMT-29" d="M 216 -1347 
Q 475 -791 581 -494 
Q 688 -197 778 190 
Q 869 578 912 926 
Q 956 1275 956 1641 
Q 956 2384 797 3048 
Q 638 3713 209 4659 
L 806 4659 
Q 1278 3988 1539 3234 
Q 1800 2481 1800 1706 
Q 1800 1053 1594 306 
Q 1359 -531 822 -1347 
L 216 -1347 
z
" transform="scale(0.015625)"/>
      </defs>
      <use xlink:href="#Arial-BoldMT-44"/>
      <use xlink:href="#Arial-BoldMT-69" x="72.216797"/>
      <use xlink:href="#Arial-BoldMT-73" x="100"/>
      <use xlink:href="#Arial-BoldMT-74" x="155.615234"/>
      <use xlink:href="#Arial-BoldMT-61" x="188.916016"/>
      <use xlink:href="#Arial-BoldMT-6e" x="244.53125"/>
      <use xlink:href="#Arial-BoldMT-63" x="305.615234"/>
      <use xlink:href="#Arial-BoldMT-65" x="361.230469"/>
      <use xlink:href="#Arial-BoldMT-20" x="416.845703"/>
      <use xlink:href="#Arial-BoldMT-66" x="444.628906"/>
      <use xlink:href="#Arial-BoldMT-72" x="477.929688"/>
      <use xlink:href="#Arial-BoldMT-6f" x="516.845703"/>
      <use xlink:href="#Arial-BoldMT-6d" x="577.929688"/>
      <use xlink:href="#Arial-BoldMT-20" x="666.845703"/>
      <use xlink:href="#Arial-BoldMT-74" x="694.628906"/>
      <use xlink:href="#Arial-BoldMT-68" x="727.929688"/>
      <use xlink:href="#Arial-BoldMT-65" x="789.013672"/>
      <use xlink:href="#Arial-BoldMT-20" x="844.628906"/>
      <use xlink:href="#Arial-BoldMT-65" x="872.412109"/>
      <use xlink:href="#Arial-BoldMT-64" x="928.027344"/>
      <use xlink:href="#Arial-BoldMT-67" x="989.111328"/>
      <use xlink:href="#Arial-BoldMT-65" x="1050.195312"/>
      <use xlink:href="#Arial-BoldMT-20" x="1105.810547"/>
      <use xlink:href="#Arial-BoldMT-28" x="1133.59375"/>
      <use xlink:href="#Arial-BoldMT-b5" x="1166.894531"/>
      <use xlink:href="#Arial-BoldMT-6d" x="1224.511719"/>
      <use xlink:href="#Arial-BoldMT-29" x="1313.427734"/>
     </g>
    </g>
   </g>
   <g id="matplotlib.axis_2">
    <g id="ytick_1">
     <g id="line2d_5">
      <defs>
       <path id="m9c66d6ff65" d="M 0 0 
L -7 0 
" style="stroke: #000000; stroke-width: 1.25"/>
      </defs>
      <g>
       <use xlink:href="#m9c66d6ff65" x="53.94375" y="126.792" style="stroke: #000000; stroke-width: 1.25"/>
      </g>
     </g>
     <g id="text_6">
      <!-- 0.0 -->
      <g transform="translate(23.98375 131.802469) scale(0.14 -0.14)">
       <defs>
        <path id="ArialMT-2e" d="M 581 0 
L 581 641 
L 1222 641 
L 1222 0 
L 581 0 
z
" transform="scale(0.015625)"/>
       </defs>
       <use xlink:href="#ArialMT-30"/>
       <use xlink:href="#ArialMT-2e" x="55.615234"/>
       <use xlink:href="#ArialMT-30" x="83.398438"/>
      </g>
     </g>
    </g>
    <g id="ytick_2">
     <g id="line2d_6">
      <g>
       <use xlink:href="#m9c66d6ff65" x="53.94375" y="69.843429" style="stroke: #000000; stroke-width: 1.25"/>
      </g>
     </g>
     <g id="text_7">
      <!-- 0.5 -->
      <g transform="translate(23.98375 74.853897) scale(0.14 -0.14)">
       <defs>
        <path id="ArialMT-35" d="M 266 1200 
L 856 1250 
Q 922 819 1161 601 
Q 1400 384 1738 384 
Q 2144 384 2425 690 
Q 2706 997 2706 1503 
Q 2706 1984 2436 2262 
Q 2166 2541 1728 2541 
Q 1456 2541 1237 2417 
Q 1019 2294 894 2097 
L 366 2166 
L 809 4519 
L 3088 4519 
L 3088 3981 
L 1259 3981 
L 1013 2750 
Q 1425 3038 1878 3038 
Q 2478 3038 2890 2622 
Q 3303 2206 3303 1553 
Q 3303 931 2941 478 
Q 2500 -78 1738 -78 
Q 1113 -78 717 272 
Q 322 622 266 1200 
z
" transform="scale(0.015625)"/>
       </defs>
       <use xlink:href="#ArialMT-30"/>
       <use xlink:href="#ArialMT-2e" x="55.615234"/>
       <use xlink:href="#ArialMT-35" x="83.398438"/>
      </g>
     </g>
    </g>
    <g id="ytick_3">
     <g id="line2d_7">
      <g>
       <use xlink:href="#m9c66d6ff65" x="53.94375" y="12.894857" style="stroke: #000000; stroke-width: 1.25"/>
      </g>
     </g>
     <g id="text_8">
      <!-- 1.0 -->
      <g transform="translate(23.98375 17.905326) scale(0.14 -0.14)">
       <use xlink:href="#ArialMT-31"/>
       <use xlink:href="#ArialMT-2e" x="55.615234"/>
       <use xlink:href="#ArialMT-30" x="83.398438"/>
      </g>
     </g>
    </g>
    <g id="ytick_4">
     <g id="line2d_8">
      <defs>
       <path id="m82a5f6ceeb" d="M 0 0 
L -4 0 
" style="stroke: #000000; stroke-width: 1.25"/>
      </defs>
      <g>
       <use xlink:href="#m82a5f6ceeb" x="53.94375" y="98.317714" style="stroke: #000000; stroke-width: 1.25"/>
      </g>
     </g>
    </g>
    <g id="ytick_5">
     <g id="line2d_9">
      <g>
       <use xlink:href="#m82a5f6ceeb" x="53.94375" y="41.369143" style="stroke: #000000; stroke-width: 1.25"/>
      </g>
     </g>
    </g>
    <g id="text_9">
     <!-- Relative abundance -->
     <g transform="translate(17.220938 132.73475) rotate(-90) scale(0.14 -0.14)">
      <defs>
       <path id="Arial-BoldMT-52" d="M 469 0 
L 469 4581 
L 2416 4581 
Q 3150 4581 3483 4457 
Q 3816 4334 4016 4018 
Q 4216 3703 4216 3297 
Q 4216 2781 3912 2445 
Q 3609 2109 3006 2022 
Q 3306 1847 3501 1637 
Q 3697 1428 4028 894 
L 4588 0 
L 3481 0 
L 2813 997 
Q 2456 1531 2325 1670 
Q 2194 1809 2047 1861 
Q 1900 1913 1581 1913 
L 1394 1913 
L 1394 0 
L 469 0 
z
M 1394 2644 
L 2078 2644 
Q 2744 2644 2909 2700 
Q 3075 2756 3169 2893 
Q 3263 3031 3263 3238 
Q 3263 3469 3139 3611 
Q 3016 3753 2791 3791 
Q 2678 3806 2116 3806 
L 1394 3806 
L 1394 2644 
z
" transform="scale(0.015625)"/>
       <path id="Arial-BoldMT-6c" d="M 459 0 
L 459 4581 
L 1338 4581 
L 1338 0 
L 459 0 
z
" transform="scale(0.015625)"/>
       <path id="Arial-BoldMT-76" d="M 1372 0 
L 34 3319 
L 956 3319 
L 1581 1625 
L 1763 1059 
Q 1834 1275 1853 1344 
Q 1897 1484 1947 1625 
L 2578 3319 
L 3481 3319 
L 2163 0 
L 1372 0 
z
" transform="scale(0.015625)"/>
       <path id="Arial-BoldMT-62" d="M 422 0 
L 422 4581 
L 1300 4581 
L 1300 2931 
Q 1706 3394 2263 3394 
Q 2869 3394 3266 2955 
Q 3663 2516 3663 1694 
Q 3663 844 3258 384 
Q 2853 -75 2275 -75 
Q 1991 -75 1714 67 
Q 1438 209 1238 488 
L 1238 0 
L 422 0 
z
M 1294 1731 
Q 1294 1216 1456 969 
Q 1684 619 2063 619 
Q 2353 619 2558 867 
Q 2763 1116 2763 1650 
Q 2763 2219 2556 2470 
Q 2350 2722 2028 2722 
Q 1713 2722 1503 2476 
Q 1294 2231 1294 1731 
z
" transform="scale(0.015625)"/>
       <path id="Arial-BoldMT-75" d="M 2644 0 
L 2644 497 
Q 2463 231 2167 78 
Q 1872 -75 1544 -75 
Q 1209 -75 943 72 
Q 678 219 559 484 
Q 441 750 441 1219 
L 441 3319 
L 1319 3319 
L 1319 1794 
Q 1319 1094 1367 936 
Q 1416 778 1544 686 
Q 1672 594 1869 594 
Q 2094 594 2272 717 
Q 2450 841 2515 1023 
Q 2581 1206 2581 1919 
L 2581 3319 
L 3459 3319 
L 3459 0 
L 2644 0 
z
" transform="scale(0.015625)"/>
      </defs>
      <use xlink:href="#Arial-BoldMT-52"/>
      <use xlink:href="#Arial-BoldMT-65" x="72.216797"/>
      <use xlink:href="#Arial-BoldMT-6c" x="127.832031"/>
      <use xlink:href="#Arial-BoldMT-61" x="155.615234"/>
      <use xlink:href="#Arial-BoldMT-74" x="211.230469"/>
      <use xlink:href="#Arial-BoldMT-69" x="244.53125"/>
      <use xlink:href="#Arial-BoldMT-76" x="272.314453"/>
      <use xlink:href="#Arial-BoldMT-65" x="327.929688"/>
      <use xlink:href="#Arial-BoldMT-20" x="383.544922"/>
      <use xlink:href="#Arial-BoldMT-61" x="411.328125"/>
      <use xlink:href="#Arial-BoldMT-62" x="466.943359"/>
      <use xlink:href="#Arial-BoldMT-75" x="528.027344"/>
      <use xlink:href="#Arial-BoldMT-6e" x="589.111328"/>
      <use xlink:href="#Arial-BoldMT-64" x="650.195312"/>
      <use xlink:href="#Arial-BoldMT-61" x="711.279297"/>
      <use xlink:href="#Arial-BoldMT-6e" x="766.894531"/>
      <use xlink:href="#Arial-BoldMT-63" x="827.978516"/>
      <use xlink:href="#Arial-BoldMT-65" x="883.59375"/>
     </g>
    </g>
   </g>
   <g id="line2d_10">
    <path d="M 260.513189 126.792 
L 258.686186 126.792 
L 256.859184 126.792 
L 255.032181 126.792 
L 253.205179 126.792 
L 251.378176 12.894857 
L 249.551174 12.894857 
L 247.724171 12.894857 
L 245.897169 13.190502 
L 244.070166 13.468069 
L 242.243164 14.219871 
L 240.416161 14.532722 
L 238.589158 15.753345 
L 236.762156 13.441618 
L 234.935153 15.718438 
L 233.108151 16.960172 
L 231.281148 16.847977 
L 229.454146 17.426733 
L 227.627143 17.056418 
L 225.800141 18.632404 
L 223.973138 22.524769 
L 222.146136 19.309935 
L 220.319133 20.387607 
L 218.492131 20.744252 
L 216.665128 27.236651 
L 214.838125 27.274587 
L 213.011123 26.304406 
L 211.18412 27.707126 
L 209.357118 29.949456 
L 207.530115 28.164087 
L 205.703113 29.46439 
L 203.87611 38.956068 
L 202.049108 34.244965 
L 200.222105 42.279886 
L 198.395103 39.929629 
L 196.5681 37.557538 
L 194.741098 39.203237 
L 192.914095 46.999893 
L 191.087093 53.58568 
L 189.26009 49.138905 
L 187.433087 54.272735 
L 185.606085 52.738372 
L 183.779082 62.833548 
L 181.95208 59.107453 
L 180.125077 64.395542 
L 178.298075 66.768893 
L 176.471072 68.27936 
L 174.64407 71.134636 
L 172.817067 74.720512 
L 170.990065 71.064737 
L 169.163062 71.736974 
L 167.33606 71.263743 
L 165.509057 75.44926 
L 163.682054 75.058342 
L 161.855052 80.069041 
L 160.028049 84.209575 
L 158.201047 89.734278 
L 156.374044 87.338914 
L 154.547042 84.507458 
L 152.720039 89.387157 
L 150.893037 79.772338 
L 149.066034 83.409711 
L 147.239032 82.984398 
L 145.412029 82.183711 
L 143.585027 85.399805 
L 141.758024 91.433112 
L 139.931021 92.463368 
L 138.104019 90.831376 
L 136.277016 92.451778 
L 134.450014 87.15625 
L 132.623011 89.791547 
L 130.796009 93.632204 
L 128.969006 93.765462 
L 127.142004 92.171597 
L 125.315001 90.776257 
L 123.487999 91.372956 
L 121.660996 91.023321 
L 119.833994 92.600456 
L 118.006991 95.979151 
L 116.179989 94.264979 
L 114.352986 94.533234 
L 112.525983 87.141054 
L 110.698981 92.358207 
L 108.871978 93.411972 
L 107.044976 93.458961 
L 105.217973 92.025204 
L 103.390971 92.242035 
L 101.563968 91.544894 
L 99.736966 86.6163 
L 97.909963 87.621025 
L 96.082961 91.407708 
L 94.255958 95.638573 
L 92.428956 93.297741 
L 90.601953 94.576947 
L 88.77495 90.166827 
L 86.947948 89.922203 
L 85.120945 87.349263 
L 83.293943 85.526732 
L 81.46694 87.865015 
L 79.639938 83.888327 
L 77.812935 87.480842 
L 75.985933 87.417293 
L 74.15893 85.519898 
L 72.331928 82.651714 
L 70.504925 82.051939 
L 68.677923 84.865998 
L 66.85092 85.497649 
L 65.023917 83.310837 
L 63.196915 87.354114 
L 61.369912 82.554221 
L 59.54291 81.915231 
L 57.715907 83.167456 
L 55.888905 84.143903 
L 54.061902 83.86919 
" clip-path="url(#p8f881c621a)" style="fill: none; stroke: #ff00ff; stroke-opacity: 0.5; stroke-width: 0.5; stroke-linecap: square"/>
   </g>
   <g id="line2d_11">
    <path d="M 260.513189 126.792 
L 258.686186 126.792 
L 256.859184 126.792 
L 255.032181 126.792 
L 253.205179 126.792 
L 251.378176 12.894857 
L 249.551174 12.894857 
L 247.724171 12.894857 
L 245.897169 12.894857 
L 244.070166 12.894857 
L 242.243164 12.894857 
L 240.416161 12.894857 
L 238.589158 12.894857 
L 236.762156 12.894857 
L 234.935153 13.393859 
L 233.108151 12.894857 
L 231.281148 12.894857 
L 229.454146 12.894857 
L 227.627143 12.894857 
L 225.800141 12.894857 
L 223.973138 13.666566 
L 222.146136 14.268031 
L 220.319133 15.343907 
L 218.492131 13.013686 
L 216.665128 12.894857 
L 214.838125 13.422446 
L 213.011123 13.301114 
L 211.18412 13.793734 
L 209.357118 14.725921 
L 207.530115 13.486999 
L 205.703113 14.313505 
L 203.87611 16.692936 
L 202.049108 17.069972 
L 200.222105 13.278729 
L 198.395103 17.568293 
L 196.5681 16.686567 
L 194.741098 17.303334 
L 192.914095 19.663258 
L 191.087093 17.216536 
L 189.26009 18.648581 
L 187.433087 19.141175 
L 185.606085 22.595819 
L 183.779082 20.733413 
L 181.95208 22.55008 
L 180.125077 21.817167 
L 178.298075 24.607196 
L 176.471072 23.680571 
L 174.64407 25.995883 
L 172.817067 33.699017 
L 170.990065 30.779196 
L 169.163062 34.869812 
L 167.33606 37.378609 
L 165.509057 37.185232 
L 163.682054 37.445387 
L 161.855052 37.94332 
L 160.028049 38.18277 
L 158.201047 43.570486 
L 156.374044 39.474287 
L 154.547042 40.726717 
L 152.720039 41.680588 
L 150.893037 43.929552 
L 149.066034 49.301805 
L 147.239032 46.266411 
L 145.412029 46.642818 
L 143.585027 47.83493 
L 141.758024 49.719662 
L 139.931021 52.855192 
L 138.104019 60.650473 
L 136.277016 59.027243 
L 134.450014 59.320921 
L 132.623011 60.911401 
L 130.796009 57.177317 
L 128.969006 61.853237 
L 127.142004 64.281622 
L 125.315001 66.105613 
L 123.487999 71.881747 
L 121.660996 67.295353 
L 119.833994 66.460452 
L 118.006991 72.308751 
L 116.179989 70.427292 
L 114.352986 73.135498 
L 112.525983 72.890783 
L 110.698981 73.963526 
L 108.871978 73.986024 
L 107.044976 71.909415 
L 105.217973 77.370059 
L 103.390971 74.674001 
L 101.563968 76.514232 
L 99.736966 73.516238 
L 97.909963 72.719691 
L 96.082961 74.28098 
L 94.255958 78.426918 
L 92.428956 78.178307 
L 90.601953 75.578125 
L 88.77495 77.439051 
L 86.947948 76.73674 
L 85.120945 78.491145 
L 83.293943 79.50399 
L 81.46694 79.538924 
L 79.639938 75.727541 
L 77.812935 73.812091 
L 75.985933 77.856134 
L 74.15893 80.781238 
L 72.331928 78.619763 
L 70.504925 78.185647 
L 68.677923 74.173909 
L 66.85092 74.989129 
L 65.023917 77.427773 
L 63.196915 78.591884 
L 61.369912 74.460439 
L 59.54291 71.937155 
L 57.715907 75.577921 
L 55.888905 73.763863 
L 54.061902 74.653319 
" clip-path="url(#p8f881c621a)" style="fill: none; stroke: #ff00ff; stroke-opacity: 0.5; stroke-width: 0.5; stroke-linecap: square"/>
   </g>
   <g id="line2d_12">
    <path d="M 260.513189 126.792 
L 258.686186 126.792 
L 256.859184 126.792 
L 255.032181 126.792 
L 253.205179 126.792 
L 251.378176 43.51768 
L 249.551174 39.158039 
L 247.724171 33.264561 
L 245.897169 36.433736 
L 244.070166 36.629339 
L 242.243164 43.710953 
L 240.416161 36.658677 
L 238.589158 33.93236 
L 236.762156 37.012309 
L 234.935153 40.865876 
L 233.108151 34.744176 
L 231.281148 26.553702 
L 229.454146 29.030568 
L 227.627143 31.468853 
L 225.800141 33.697725 
L 223.973138 50.962836 
L 222.146136 43.594563 
L 220.319133 35.301277 
L 218.492131 43.194588 
L 216.665128 36.602955 
L 214.838125 38.096838 
L 213.011123 34.704537 
L 211.18412 43.273438 
L 209.357118 46.412272 
L 207.530115 49.644775 
L 205.703113 48.530502 
L 203.87611 51.543603 
L 202.049108 50.108966 
L 200.222105 48.546976 
L 198.395103 49.867763 
L 196.5681 52.155114 
L 194.741098 51.122438 
L 192.914095 60.568574 
L 191.087093 57.717794 
L 189.26009 56.330208 
L 187.433087 56.971148 
L 185.606085 62.089729 
L 183.779082 59.631513 
L 181.95208 54.617234 
L 180.125077 56.20919 
L 178.298075 59.740275 
L 176.471072 61.205304 
L 174.64407 68.599899 
L 172.817067 64.407679 
L 170.990065 64.444968 
L 169.163062 66.320556 
L 167.33606 74.423319 
L 165.509057 72.959776 
L 163.682054 67.26763 
L 161.855052 70.829026 
L 160.028049 72.274855 
L 158.201047 74.207554 
L 156.374044 73.3692 
L 154.547042 71.582819 
L 152.720039 71.664458 
L 150.893037 70.514424 
L 149.066034 70.92423 
L 147.239032 73.592313 
L 145.412029 73.628035 
L 143.585027 75.322708 
L 141.758024 80.635863 
L 139.931021 80.949187 
L 138.104019 84.560651 
L 136.277016 83.329127 
L 134.450014 83.154137 
L 132.623011 80.05433 
L 130.796009 79.973845 
L 128.969006 82.270536 
L 127.142004 82.194154 
L 125.315001 81.896887 
L 123.487999 83.075897 
L 121.660996 83.439655 
L 119.833994 87.209632 
L 118.006991 84.89417 
L 116.179989 86.175647 
L 114.352986 89.527782 
L 112.525983 85.309894 
L 110.698981 87.391631 
L 108.871978 88.047675 
L 107.044976 87.65749 
L 105.217973 81.618672 
L 103.390971 81.542786 
L 101.563968 79.364222 
L 99.736966 79.975793 
L 97.909963 82.985407 
L 96.082961 83.811707 
L 94.255958 83.732696 
L 92.428956 81.869 
L 90.601953 78.617276 
L 88.77495 81.916703 
L 86.947948 78.188256 
L 85.120945 77.088206 
L 83.293943 79.281043 
L 81.46694 84.106129 
L 79.639938 83.297154 
L 77.812935 82.249892 
L 75.985933 82.330458 
L 74.15893 87.110543 
L 72.331928 84.003302 
L 70.504925 79.551173 
L 68.677923 81.365709 
L 66.85092 84.204485 
L 65.023917 81.688961 
L 63.196915 82.054302 
L 61.369912 80.128694 
L 59.54291 81.298545 
L 57.715907 80.686248 
L 55.888905 80.521704 
L 54.061902 81.52241 
" clip-path="url(#p8f881c621a)" style="fill: none; stroke: #ff00ff; stroke-opacity: 0.5; stroke-width: 0.5; stroke-linecap: square"/>
   </g>
   <g id="line2d_13">
    <path d="M 260.513189 126.792 
L 258.686186 126.792 
L 256.859184 126.792 
L 255.032181 126.792 
L 253.205179 126.792 
L 251.378176 126.792 
L 249.551174 126.792 
L 247.724171 126.792 
L 245.897169 126.496355 
L 244.070166 126.218788 
L 242.243164 125.466986 
L 240.416161 125.154135 
L 238.589158 123.933512 
L 236.762156 126.245239 
L 234.935153 123.968419 
L 233.108151 122.726685 
L 231.281148 122.838881 
L 229.454146 122.260124 
L 227.627143 122.630439 
L 225.800141 121.054453 
L 223.973138 117.162088 
L 222.146136 120.376922 
L 220.319133 119.29925 
L 218.492131 118.942605 
L 216.665128 112.450206 
L 214.838125 112.41227 
L 213.011123 113.382451 
L 211.18412 111.979731 
L 209.357118 109.737402 
L 207.530115 111.52277 
L 205.703113 110.222467 
L 203.87611 100.730789 
L 202.049108 105.441892 
L 200.222105 97.406971 
L 198.395103 99.757228 
L 196.5681 102.129319 
L 194.741098 100.48362 
L 192.914095 92.686964 
L 191.087093 86.101177 
L 189.26009 90.547952 
L 187.433087 85.414123 
L 185.606085 86.948485 
L 183.779082 76.853309 
L 181.95208 80.579404 
L 180.125077 75.291315 
L 178.298075 72.917964 
L 176.471072 71.407497 
L 174.64407 68.552221 
L 172.817067 64.966345 
L 170.990065 68.62212 
L 169.163062 67.949883 
L 167.33606 68.423114 
L 165.509057 64.237597 
L 163.682054 64.628515 
L 161.855052 59.617816 
L 160.028049 55.477282 
L 158.201047 49.95258 
L 156.374044 52.347943 
L 154.547042 55.1794 
L 152.720039 50.299701 
L 150.893037 59.914519 
L 149.066034 56.277146 
L 147.239032 56.702459 
L 145.412029 57.503146 
L 143.585027 54.287052 
L 141.758024 48.253745 
L 139.931021 47.223489 
L 138.104019 48.855481 
L 136.277016 47.235079 
L 134.450014 52.530607 
L 132.623011 49.895311 
L 130.796009 46.054653 
L 128.969006 45.921395 
L 127.142004 47.51526 
L 125.315001 48.9106 
L 123.487999 48.313901 
L 121.660996 48.663536 
L 119.833994 47.086401 
L 118.006991 43.707706 
L 116.179989 45.421878 
L 114.352986 45.153623 
L 112.525983 52.545803 
L 110.698981 47.32865 
L 108.871978 46.274885 
L 107.044976 46.227896 
L 105.217973 47.661653 
L 103.390971 47.444822 
L 101.563968 48.141963 
L 99.736966 53.070557 
L 97.909963 52.065832 
L 96.082961 48.279149 
L 94.255958 44.048284 
L 92.428956 46.389116 
L 90.601953 45.10991 
L 88.77495 49.52003 
L 86.947948 49.764654 
L 85.120945 52.337594 
L 83.293943 54.160125 
L 81.46694 51.821842 
L 79.639938 55.79853 
L 77.812935 52.206016 
L 75.985933 52.269564 
L 74.15893 54.166959 
L 72.331928 57.035143 
L 70.504925 57.634918 
L 68.677923 54.820859 
L 66.85092 54.189209 
L 65.023917 56.37602 
L 63.196915 52.332743 
L 61.369912 57.132636 
L 59.54291 57.771626 
L 57.715907 56.519401 
L 55.888905 55.542954 
L 54.061902 55.817667 
" clip-path="url(#p8f881c621a)" style="fill: none; stroke: #00bfff; stroke-opacity: 0.5; stroke-width: 0.5; stroke-linecap: square"/>
   </g>
   <g id="line2d_14">
    <path d="M 260.513189 126.792 
L 258.686186 126.792 
L 256.859184 126.792 
L 255.032181 126.792 
L 253.205179 126.792 
L 251.378176 126.792 
L 249.551174 126.792 
L 247.724171 126.792 
L 245.897169 126.792 
L 244.070166 126.792 
L 242.243164 126.792 
L 240.416161 126.792 
L 238.589158 126.792 
L 236.762156 126.792 
L 234.935153 126.292998 
L 233.108151 126.792 
L 231.281148 126.792 
L 229.454146 126.792 
L 227.627143 126.792 
L 225.800141 126.792 
L 223.973138 126.020292 
L 222.146136 125.418826 
L 220.319133 124.34295 
L 218.492131 126.673171 
L 216.665128 126.792 
L 214.838125 126.264411 
L 213.011123 126.385743 
L 211.18412 125.893123 
L 209.357118 124.960936 
L 207.530115 126.199858 
L 205.703113 125.373352 
L 203.87611 122.993921 
L 202.049108 122.616885 
L 200.222105 126.408128 
L 198.395103 122.118564 
L 196.5681 123.00029 
L 194.741098 122.383523 
L 192.914095 120.023599 
L 191.087093 122.470321 
L 189.26009 121.038276 
L 187.433087 120.545682 
L 185.606085 117.091038 
L 183.779082 118.953444 
L 181.95208 117.136777 
L 180.125077 117.86969 
L 178.298075 115.079661 
L 176.471072 116.006286 
L 174.64407 113.690974 
L 172.817067 105.98784 
L 170.990065 108.907662 
L 169.163062 104.817045 
L 167.33606 102.308248 
L 165.509057 102.501626 
L 163.682054 102.24147 
L 161.855052 101.743537 
L 160.028049 101.504087 
L 158.201047 96.116371 
L 156.374044 100.21257 
L 154.547042 98.96014 
L 152.720039 98.006269 
L 150.893037 95.757305 
L 149.066034 90.385053 
L 147.239032 93.420446 
L 145.412029 93.044039 
L 143.585027 91.851927 
L 141.758024 89.967195 
L 139.931021 86.831665 
L 138.104019 79.036385 
L 136.277016 80.659614 
L 134.450014 80.365936 
L 132.623011 78.775456 
L 130.796009 82.50954 
L 128.969006 77.83362 
L 127.142004 75.405236 
L 125.315001 73.581244 
L 123.487999 67.805111 
L 121.660996 72.391504 
L 119.833994 73.226405 
L 118.006991 67.378106 
L 116.179989 69.259565 
L 114.352986 66.551359 
L 112.525983 66.796075 
L 110.698981 65.723331 
L 108.871978 65.700833 
L 107.044976 67.777442 
L 105.217973 62.316798 
L 103.390971 65.012856 
L 101.563968 63.172625 
L 99.736966 66.170619 
L 97.909963 66.967167 
L 96.082961 65.405878 
L 94.255958 61.259939 
L 92.428956 61.508551 
L 90.601953 64.108732 
L 88.77495 62.247806 
L 86.947948 62.950117 
L 85.120945 61.195712 
L 83.293943 60.182867 
L 81.46694 60.147933 
L 79.639938 63.959316 
L 77.812935 65.874766 
L 75.985933 61.830723 
L 74.15893 58.90562 
L 72.331928 61.067094 
L 70.504925 61.501211 
L 68.677923 65.512948 
L 66.85092 64.697728 
L 65.023917 62.259084 
L 63.196915 61.094973 
L 61.369912 65.226419 
L 59.54291 67.749702 
L 57.715907 64.108936 
L 55.888905 65.922994 
L 54.061902 65.033538 
" clip-path="url(#p8f881c621a)" style="fill: none; stroke: #00bfff; stroke-opacity: 0.5; stroke-width: 0.5; stroke-linecap: square"/>
   </g>
   <g id="line2d_15">
    <path d="M 260.513189 126.792 
L 258.686186 126.792 
L 256.859184 126.792 
L 255.032181 126.792 
L 253.205179 126.792 
L 251.378176 96.169178 
L 249.551174 100.528818 
L 247.724171 106.422296 
L 245.897169 103.253121 
L 244.070166 103.057519 
L 242.243164 95.975904 
L 240.416161 103.02818 
L 238.589158 105.754497 
L 236.762156 102.674548 
L 234.935153 98.820981 
L 233.108151 104.942681 
L 231.281148 113.133155 
L 229.454146 110.65629 
L 227.627143 108.218004 
L 225.800141 105.989132 
L 223.973138 88.724021 
L 222.146136 96.092294 
L 220.319133 104.38558 
L 218.492131 96.492269 
L 216.665128 103.083902 
L 214.838125 101.590019 
L 213.011123 104.98232 
L 211.18412 96.413419 
L 209.357118 93.274585 
L 207.530115 90.042082 
L 205.703113 91.156355 
L 203.87611 88.143255 
L 202.049108 89.577891 
L 200.222105 91.139881 
L 198.395103 89.819094 
L 196.5681 87.531743 
L 194.741098 88.564419 
L 192.914095 79.118283 
L 191.087093 81.969063 
L 189.26009 83.356649 
L 187.433087 82.715709 
L 185.606085 77.597128 
L 183.779082 80.055344 
L 181.95208 85.069623 
L 180.125077 83.477667 
L 178.298075 79.946582 
L 176.471072 78.481553 
L 174.64407 71.086958 
L 172.817067 75.279178 
L 170.990065 75.241889 
L 169.163062 73.366301 
L 167.33606 65.263538 
L 165.509057 66.727082 
L 163.682054 72.419227 
L 161.855052 68.857831 
L 160.028049 67.412002 
L 158.201047 65.479303 
L 156.374044 66.317657 
L 154.547042 68.104038 
L 152.720039 68.022399 
L 150.893037 69.172433 
L 149.066034 68.762627 
L 147.239032 66.094544 
L 145.412029 66.058822 
L 143.585027 64.36415 
L 141.758024 59.050994 
L 139.931021 58.73767 
L 138.104019 55.126206 
L 136.277016 56.35773 
L 134.450014 56.53272 
L 132.623011 59.632527 
L 130.796009 59.713012 
L 128.969006 57.416321 
L 127.142004 57.492703 
L 125.315001 57.78997 
L 123.487999 56.61096 
L 121.660996 56.247202 
L 119.833994 52.477225 
L 118.006991 54.792687 
L 116.179989 53.51121 
L 114.352986 50.159075 
L 112.525983 54.376964 
L 110.698981 52.295227 
L 108.871978 51.639182 
L 107.044976 52.029367 
L 105.217973 58.068186 
L 103.390971 58.144072 
L 101.563968 60.322635 
L 99.736966 59.711064 
L 97.909963 56.701451 
L 96.082961 55.87515 
L 94.255958 55.954162 
L 92.428956 57.817857 
L 90.601953 61.069581 
L 88.77495 57.770154 
L 86.947948 61.498601 
L 85.120945 62.598651 
L 83.293943 60.405814 
L 81.46694 55.580728 
L 79.639938 56.389704 
L 77.812935 57.436965 
L 75.985933 57.356399 
L 74.15893 52.576314 
L 72.331928 55.683555 
L 70.504925 60.135684 
L 68.677923 58.321149 
L 66.85092 55.482372 
L 65.023917 57.997896 
L 63.196915 57.632555 
L 61.369912 59.558164 
L 59.54291 58.388313 
L 57.715907 59.000609 
L 55.888905 59.165153 
L 54.061902 58.164447 
" clip-path="url(#p8f881c621a)" style="fill: none; stroke: #00bfff; stroke-opacity: 0.5; stroke-width: 0.5; stroke-linecap: square"/>
   </g>
   <g id="line2d_16">
    <path d="M 260.513189 126.792 
L 258.686186 126.792 
L 256.859184 126.792 
L 255.032181 126.792 
L 253.205179 126.792 
L 251.378176 23.102465 
L 249.551174 21.649251 
L 247.724171 19.684758 
L 245.897169 20.839698 
L 244.070166 20.997421 
L 242.243164 23.608561 
L 240.416161 21.362085 
L 238.589158 20.860187 
L 236.762156 21.116261 
L 234.935153 23.326058 
L 233.108151 21.533068 
L 231.281148 18.765512 
L 229.454146 19.784053 
L 227.627143 20.473376 
L 225.800141 21.741662 
L 223.973138 29.05139 
L 222.146136 25.724176 
L 220.319133 23.677597 
L 218.492131 25.650842 
L 216.665128 25.578155 
L 214.838125 26.264624 
L 213.011123 24.770019 
L 211.18412 28.258099 
L 209.357118 30.36255 
L 207.530115 30.431953 
L 205.703113 30.769466 
L 203.87611 35.730869 
L 202.049108 33.807968 
L 200.222105 34.701864 
L 198.395103 35.788562 
L 196.5681 35.466406 
L 194.741098 35.876337 
L 192.914095 42.410575 
L 191.087093 42.840003 
L 189.26009 41.372565 
L 187.433087 43.461686 
L 185.606085 45.807974 
L 183.779082 47.732824 
L 181.95208 45.424922 
L 180.125077 47.473967 
L 178.298075 50.372121 
L 176.471072 51.055078 
L 174.64407 55.243473 
L 172.817067 57.609069 
L 170.990065 55.429634 
L 169.163062 57.642447 
L 167.33606 61.021891 
L 165.509057 61.864756 
L 163.682054 59.923786 
L 161.855052 62.947129 
L 160.028049 64.889067 
L 158.201047 69.170773 
L 156.374044 66.727467 
L 154.547042 65.605664 
L 152.720039 67.577401 
L 150.893037 64.738771 
L 149.066034 67.878582 
L 147.239032 67.614374 
L 145.412029 67.484855 
L 143.585027 69.519147 
L 141.758024 73.929546 
L 139.931021 75.422582 
L 138.104019 78.680833 
L 136.277016 78.269383 
L 134.450014 76.543769 
L 132.623011 76.919092 
L 130.796009 76.927789 
L 128.969006 79.296412 
L 127.142004 79.549125 
L 125.315001 79.592919 
L 123.487999 82.1102 
L 121.660996 80.58611 
L 119.833994 82.09018 
L 118.006991 84.394024 
L 116.179989 83.622639 
L 114.352986 85.732171 
L 112.525983 81.780577 
L 110.698981 84.571121 
L 108.871978 85.148557 
L 107.044976 84.341955 
L 105.217973 83.671312 
L 103.390971 82.819607 
L 101.563968 82.47445 
L 99.736966 80.036111 
L 97.909963 81.108707 
L 96.082961 83.166798 
L 94.255958 85.932729 
L 92.428956 84.448349 
L 90.601953 82.924116 
L 88.77495 83.174194 
L 86.947948 81.615733 
L 85.120945 80.976205 
L 83.293943 81.437255 
L 81.46694 83.836689 
L 79.639938 80.971007 
L 77.812935 81.180942 
L 75.985933 82.534629 
L 74.15893 84.47056 
L 72.331928 81.75826 
L 70.504925 79.929586 
L 68.677923 80.135205 
L 66.85092 81.563754 
L 65.023917 80.809191 
L 63.196915 82.666767 
L 61.369912 79.047784 
L 59.54291 78.383644 
L 57.715907 79.810542 
L 55.888905 79.47649 
L 54.061902 80.014973 
" clip-path="url(#p8f881c621a)" style="fill: none; stroke: #ff00ff; stroke-width: 3; stroke-linecap: square"/>
   </g>
   <g id="line2d_17">
    <path d="M 260.513189 126.792 
L 258.686186 126.792 
L 256.859184 126.792 
L 255.032181 126.792 
L 253.205179 126.792 
L 251.378176 116.584393 
L 249.551174 118.037606 
L 247.724171 120.002099 
L 245.897169 118.847159 
L 244.070166 118.689436 
L 242.243164 116.078297 
L 240.416161 118.324772 
L 238.589158 118.82667 
L 236.762156 118.570596 
L 234.935153 116.360799 
L 233.108151 118.153789 
L 231.281148 120.921345 
L 229.454146 119.902805 
L 227.627143 119.213481 
L 225.800141 117.945195 
L 223.973138 110.635467 
L 222.146136 113.962681 
L 220.319133 116.00926 
L 218.492131 114.036015 
L 216.665128 114.108703 
L 214.838125 113.422233 
L 213.011123 114.916838 
L 211.18412 111.428758 
L 209.357118 109.324307 
L 207.530115 109.254904 
L 205.703113 108.917392 
L 203.87611 103.955988 
L 202.049108 105.878889 
L 200.222105 104.984993 
L 198.395103 103.898295 
L 196.5681 104.220451 
L 194.741098 103.810521 
L 192.914095 97.276282 
L 191.087093 96.846854 
L 189.26009 98.314292 
L 187.433087 96.225171 
L 185.606085 93.878884 
L 183.779082 91.954033 
L 181.95208 94.261935 
L 180.125077 92.212891 
L 178.298075 89.314736 
L 176.471072 88.631779 
L 174.64407 84.443384 
L 172.817067 82.077788 
L 170.990065 84.257223 
L 169.163062 82.04441 
L 167.33606 78.664967 
L 165.509057 77.822101 
L 163.682054 79.763071 
L 161.855052 76.739728 
L 160.028049 74.79779 
L 158.201047 70.516084 
L 156.374044 72.95939 
L 154.547042 74.081193 
L 152.720039 72.109456 
L 150.893037 74.948086 
L 149.066034 71.808275 
L 147.239032 72.072483 
L 145.412029 72.202002 
L 143.585027 70.16771 
L 141.758024 65.757312 
L 139.931021 64.264275 
L 138.104019 61.006024 
L 136.277016 61.417475 
L 134.450014 63.143088 
L 132.623011 62.767765 
L 130.796009 62.759068 
L 128.969006 60.390445 
L 127.142004 60.137733 
L 125.315001 60.093938 
L 123.487999 57.576657 
L 121.660996 59.100748 
L 119.833994 57.596677 
L 118.006991 55.292833 
L 116.179989 56.064218 
L 114.352986 53.954686 
L 112.525983 57.90628 
L 110.698981 55.115736 
L 108.871978 54.5383 
L 107.044976 55.344902 
L 105.217973 56.015545 
L 103.390971 56.86725 
L 101.563968 57.212408 
L 99.736966 59.650747 
L 97.909963 58.57815 
L 96.082961 56.520059 
L 94.255958 53.754128 
L 92.428956 55.238508 
L 90.601953 56.762741 
L 88.77495 56.512663 
L 86.947948 58.071124 
L 85.120945 58.710652 
L 83.293943 58.249602 
L 81.46694 55.850168 
L 79.639938 58.71585 
L 77.812935 58.505916 
L 75.985933 57.152229 
L 74.15893 55.216297 
L 72.331928 57.928597 
L 70.504925 59.757271 
L 68.677923 59.551652 
L 66.85092 58.123103 
L 65.023917 58.877666 
L 63.196915 57.02009 
L 61.369912 60.639073 
L 59.54291 61.303214 
L 57.715907 59.876315 
L 55.888905 60.210367 
L 54.061902 59.671884 
" clip-path="url(#p8f881c621a)" style="fill: none; stroke: #00bfff; stroke-width: 3; stroke-linecap: square"/>
   </g>
   <g id="line2d_18">
    <path d="M 260.513189 126.792 
L 258.686186 126.792 
L 256.859184 126.792 
L 255.032181 126.792 
L 253.205179 126.792 
L 251.378176 126.792 
L 249.551174 126.792 
L 247.724171 126.792 
L 245.897169 126.496355 
L 244.070166 126.218788 
L 242.243164 125.466986 
L 240.416161 125.154135 
L 238.589158 123.933512 
L 236.762156 126.245239 
L 234.935153 123.968419 
L 233.108151 122.726685 
L 231.281148 122.838881 
L 229.454146 122.260124 
L 227.627143 122.630439 
L 225.800141 121.054453 
L 223.973138 117.162088 
L 222.146136 120.376922 
L 220.319133 119.29925 
L 218.492131 118.942605 
L 216.665128 112.450206 
L 214.838125 112.41227 
L 213.011123 113.382451 
L 211.18412 111.979731 
L 209.357118 109.737402 
L 207.530115 111.52277 
L 205.703113 110.222467 
L 203.87611 100.730789 
L 202.049108 105.441892 
L 200.222105 97.406971 
L 198.395103 99.757228 
L 196.5681 102.129319 
L 194.741098 100.48362 
L 192.914095 92.686964 
L 191.087093 86.101177 
L 189.26009 90.547952 
L 187.433087 85.414123 
L 185.606085 86.948485 
L 183.779082 76.853309 
L 181.95208 80.579404 
L 180.125077 75.291315 
L 178.298075 72.917964 
L 176.471072 71.407497 
L 174.64407 68.552221 
L 172.817067 64.966345 
L 170.990065 68.62212 
L 169.163062 67.949883 
L 167.33606 68.423114 
L 165.509057 64.237597 
L 163.682054 64.628515 
L 161.855052 59.617816 
L 160.028049 55.477282 
L 158.201047 49.95258 
L 156.374044 52.347943 
L 154.547042 55.1794 
L 152.720039 50.299701 
L 150.893037 59.914519 
L 149.066034 56.277146 
L 147.239032 56.702459 
L 145.412029 57.503146 
L 143.585027 54.287052 
L 141.758024 48.253745 
L 139.931021 47.223489 
L 138.104019 48.855481 
L 136.277016 47.235079 
L 134.450014 52.530607 
L 132.623011 49.895311 
L 130.796009 46.054653 
L 128.969006 45.921395 
L 127.142004 47.51526 
L 125.315001 48.9106 
L 123.487999 48.313901 
L 121.660996 48.663536 
L 119.833994 47.086401 
L 118.006991 43.707706 
L 116.179989 45.421878 
L 114.352986 45.153623 
L 112.525983 52.545803 
L 110.698981 47.32865 
L 108.871978 46.274885 
L 107.044976 46.227896 
L 105.217973 47.661653 
L 103.390971 47.444822 
L 101.563968 48.141963 
L 99.736966 53.070557 
L 97.909963 52.065832 
L 96.082961 48.279149 
L 94.255958 44.048284 
L 92.428956 46.389116 
L 90.601953 45.10991 
L 88.77495 49.52003 
L 86.947948 49.764654 
L 85.120945 52.337594 
L 83.293943 54.160125 
L 81.46694 51.821842 
L 79.639938 55.79853 
L 77.812935 52.206016 
L 75.985933 52.269564 
L 74.15893 54.166959 
L 72.331928 57.035143 
L 70.504925 57.634918 
L 68.677923 54.820859 
L 66.85092 54.189209 
L 65.023917 56.37602 
L 63.196915 52.332743 
L 61.369912 57.132636 
L 59.54291 57.771626 
L 57.715907 56.519401 
L 55.888905 55.542954 
L 54.061902 55.817667 
" clip-path="url(#p8f881c621a)" style="fill: none; stroke: #ff8c00; stroke-opacity: 0.5; stroke-width: 0.5; stroke-linecap: square"/>
   </g>
   <g id="line2d_19">
    <path d="M 260.513189 126.792 
L 258.686186 126.792 
L 256.859184 126.792 
L 255.032181 126.792 
L 253.205179 126.792 
L 251.378176 126.792 
L 249.551174 126.792 
L 247.724171 126.792 
L 245.897169 126.792 
L 244.070166 126.792 
L 242.243164 126.792 
L 240.416161 126.792 
L 238.589158 126.792 
L 236.762156 126.792 
L 234.935153 126.292998 
L 233.108151 126.792 
L 231.281148 126.792 
L 229.454146 126.792 
L 227.627143 126.792 
L 225.800141 126.792 
L 223.973138 126.020292 
L 222.146136 125.418826 
L 220.319133 124.34295 
L 218.492131 126.673171 
L 216.665128 126.792 
L 214.838125 126.264411 
L 213.011123 126.385743 
L 211.18412 125.893123 
L 209.357118 124.960936 
L 207.530115 126.199858 
L 205.703113 125.373352 
L 203.87611 122.993921 
L 202.049108 122.616885 
L 200.222105 126.408128 
L 198.395103 122.118564 
L 196.5681 123.00029 
L 194.741098 122.383523 
L 192.914095 120.023599 
L 191.087093 122.470321 
L 189.26009 121.038276 
L 187.433087 120.545682 
L 185.606085 117.091038 
L 183.779082 118.953444 
L 181.95208 117.136777 
L 180.125077 117.86969 
L 178.298075 115.079661 
L 176.471072 116.006286 
L 174.64407 113.690974 
L 172.817067 105.98784 
L 170.990065 108.907662 
L 169.163062 104.817045 
L 167.33606 102.308248 
L 165.509057 102.501626 
L 163.682054 102.24147 
L 161.855052 101.743537 
L 160.028049 101.504087 
L 158.201047 96.116371 
L 156.374044 100.21257 
L 154.547042 98.96014 
L 152.720039 98.006269 
L 150.893037 95.757305 
L 149.066034 90.385053 
L 147.239032 93.420446 
L 145.412029 93.044039 
L 143.585027 91.851927 
L 141.758024 89.967195 
L 139.931021 86.831665 
L 138.104019 79.036385 
L 136.277016 80.659614 
L 134.450014 80.365936 
L 132.623011 78.775456 
L 130.796009 82.50954 
L 128.969006 77.83362 
L 127.142004 75.405236 
L 125.315001 73.581244 
L 123.487999 67.805111 
L 121.660996 72.391504 
L 119.833994 73.226405 
L 118.006991 67.378106 
L 116.179989 69.259565 
L 114.352986 66.551359 
L 112.525983 66.796075 
L 110.698981 65.723331 
L 108.871978 65.700833 
L 107.044976 67.777442 
L 105.217973 62.316798 
L 103.390971 65.012856 
L 101.563968 63.172625 
L 99.736966 66.170619 
L 97.909963 66.967167 
L 96.082961 65.405878 
L 94.255958 61.259939 
L 92.428956 61.508551 
L 90.601953 64.108732 
L 88.77495 62.247806 
L 86.947948 62.950117 
L 85.120945 61.195712 
L 83.293943 60.182867 
L 81.46694 60.147933 
L 79.639938 63.959316 
L 77.812935 65.874766 
L 75.985933 61.830723 
L 74.15893 58.90562 
L 72.331928 61.067094 
L 70.504925 61.501211 
L 68.677923 65.512948 
L 66.85092 64.697728 
L 65.023917 62.259084 
L 63.196915 61.094973 
L 61.369912 65.226419 
L 59.54291 67.749702 
L 57.715907 64.108936 
L 55.888905 65.922994 
L 54.061902 65.033538 
" clip-path="url(#p8f881c621a)" style="fill: none; stroke: #ff8c00; stroke-opacity: 0.5; stroke-width: 0.5; stroke-linecap: square"/>
   </g>
   <g id="line2d_20">
    <path d="M 260.513189 126.792 
L 258.686186 126.792 
L 256.859184 126.792 
L 255.032181 126.792 
L 253.205179 126.792 
L 251.378176 96.169178 
L 249.551174 100.528818 
L 247.724171 106.422296 
L 245.897169 103.253121 
L 244.070166 103.057519 
L 242.243164 95.975904 
L 240.416161 103.02818 
L 238.589158 105.754497 
L 236.762156 102.674548 
L 234.935153 98.820981 
L 233.108151 104.942681 
L 231.281148 113.133155 
L 229.454146 110.65629 
L 227.627143 108.218004 
L 225.800141 105.989132 
L 223.973138 88.724021 
L 222.146136 96.092294 
L 220.319133 104.38558 
L 218.492131 96.492269 
L 216.665128 103.083902 
L 214.838125 101.590019 
L 213.011123 104.98232 
L 211.18412 96.413419 
L 209.357118 93.274585 
L 207.530115 90.042082 
L 205.703113 91.156355 
L 203.87611 88.143255 
L 202.049108 89.577891 
L 200.222105 91.139881 
L 198.395103 89.819094 
L 196.5681 87.531743 
L 194.741098 88.564419 
L 192.914095 79.118283 
L 191.087093 81.969063 
L 189.26009 83.356649 
L 187.433087 82.715709 
L 185.606085 77.597128 
L 183.779082 80.055344 
L 181.95208 85.069623 
L 180.125077 83.477667 
L 178.298075 79.946582 
L 176.471072 78.481553 
L 174.64407 71.086958 
L 172.817067 75.279178 
L 170.990065 75.241889 
L 169.163062 73.366301 
L 167.33606 65.263538 
L 165.509057 66.727082 
L 163.682054 72.419227 
L 161.855052 68.857831 
L 160.028049 67.412002 
L 158.201047 65.479303 
L 156.374044 66.317657 
L 154.547042 68.104038 
L 152.720039 68.022399 
L 150.893037 69.172433 
L 149.066034 68.762627 
L 147.239032 66.094544 
L 145.412029 66.058822 
L 143.585027 64.36415 
L 141.758024 59.050994 
L 139.931021 58.73767 
L 138.104019 55.126206 
L 136.277016 56.35773 
L 134.450014 56.53272 
L 132.623011 59.632527 
L 130.796009 59.713012 
L 128.969006 57.416321 
L 127.142004 57.492703 
L 125.315001 57.78997 
L 123.487999 56.61096 
L 121.660996 56.247202 
L 119.833994 52.477225 
L 118.006991 54.792687 
L 116.179989 53.51121 
L 114.352986 50.159075 
L 112.525983 54.376964 
L 110.698981 52.295227 
L 108.871978 51.639182 
L 107.044976 52.029367 
L 105.217973 58.068186 
L 103.390971 58.144072 
L 101.563968 60.322635 
L 99.736966 59.711064 
L 97.909963 56.701451 
L 96.082961 55.87515 
L 94.255958 55.954162 
L 92.428956 57.817857 
L 90.601953 61.069581 
L 88.77495 57.770154 
L 86.947948 61.498601 
L 85.120945 62.598651 
L 83.293943 60.405814 
L 81.46694 55.580728 
L 79.639938 56.389704 
L 77.812935 57.436965 
L 75.985933 57.356399 
L 74.15893 52.576314 
L 72.331928 55.683555 
L 70.504925 60.135684 
L 68.677923 58.321149 
L 66.85092 55.482372 
L 65.023917 57.997896 
L 63.196915 57.632555 
L 61.369912 59.558164 
L 59.54291 58.388313 
L 57.715907 59.000609 
L 55.888905 59.165153 
L 54.061902 58.164447 
" clip-path="url(#p8f881c621a)" style="fill: none; stroke: #ff8c00; stroke-opacity: 0.5; stroke-width: 0.5; stroke-linecap: square"/>
   </g>
   <g id="line2d_21">
    <path d="M 260.513189 126.792 
L 258.686186 126.792 
L 256.859184 126.792 
L 255.032181 126.792 
L 253.205179 126.792 
L 251.378176 12.894857 
L 249.551174 12.894857 
L 247.724171 12.894857 
L 245.897169 13.190502 
L 244.070166 13.468069 
L 242.243164 14.219871 
L 240.416161 14.532722 
L 238.589158 15.753345 
L 236.762156 13.441618 
L 234.935153 15.718438 
L 233.108151 16.960172 
L 231.281148 16.847977 
L 229.454146 17.426733 
L 227.627143 17.056418 
L 225.800141 18.632404 
L 223.973138 22.524769 
L 222.146136 19.309935 
L 220.319133 20.387607 
L 218.492131 20.744252 
L 216.665128 27.236651 
L 214.838125 27.274587 
L 213.011123 26.304406 
L 211.18412 27.707126 
L 209.357118 29.949456 
L 207.530115 28.164087 
L 205.703113 29.46439 
L 203.87611 38.956068 
L 202.049108 34.244965 
L 200.222105 42.279886 
L 198.395103 39.929629 
L 196.5681 37.557538 
L 194.741098 39.203237 
L 192.914095 46.999893 
L 191.087093 53.58568 
L 189.26009 49.138905 
L 187.433087 54.272735 
L 185.606085 52.738372 
L 183.779082 62.833548 
L 181.95208 59.107453 
L 180.125077 64.395542 
L 178.298075 66.768893 
L 176.471072 68.27936 
L 174.64407 71.134636 
L 172.817067 74.720512 
L 170.990065 71.064737 
L 169.163062 71.736974 
L 167.33606 71.263743 
L 165.509057 75.44926 
L 163.682054 75.058342 
L 161.855052 80.069041 
L 160.028049 84.209575 
L 158.201047 89.734278 
L 156.374044 87.338914 
L 154.547042 84.507458 
L 152.720039 89.387157 
L 150.893037 79.772338 
L 149.066034 83.409711 
L 147.239032 82.984398 
L 145.412029 82.183711 
L 143.585027 85.399805 
L 141.758024 91.433112 
L 139.931021 92.463368 
L 138.104019 90.831376 
L 136.277016 92.451778 
L 134.450014 87.15625 
L 132.623011 89.791547 
L 130.796009 93.632204 
L 128.969006 93.765462 
L 127.142004 92.171597 
L 125.315001 90.776257 
L 123.487999 91.372956 
L 121.660996 91.023321 
L 119.833994 92.600456 
L 118.006991 95.979151 
L 116.179989 94.264979 
L 114.352986 94.533234 
L 112.525983 87.141054 
L 110.698981 92.358207 
L 108.871978 93.411972 
L 107.044976 93.458961 
L 105.217973 92.025204 
L 103.390971 92.242035 
L 101.563968 91.544894 
L 99.736966 86.6163 
L 97.909963 87.621025 
L 96.082961 91.407708 
L 94.255958 95.638573 
L 92.428956 93.297741 
L 90.601953 94.576947 
L 88.77495 90.166827 
L 86.947948 89.922203 
L 85.120945 87.349263 
L 83.293943 85.526732 
L 81.46694 87.865015 
L 79.639938 83.888327 
L 77.812935 87.480842 
L 75.985933 87.417293 
L 74.15893 85.519898 
L 72.331928 82.651714 
L 70.504925 82.051939 
L 68.677923 84.865998 
L 66.85092 85.497649 
L 65.023917 83.310837 
L 63.196915 87.354114 
L 61.369912 82.554221 
L 59.54291 81.915231 
L 57.715907 83.167456 
L 55.888905 84.143903 
L 54.061902 83.86919 
" clip-path="url(#p8f881c621a)" style="fill: none; stroke: #ff00ff; stroke-opacity: 0.5; stroke-width: 0.5; stroke-linecap: square"/>
   </g>
   <g id="line2d_22">
    <path d="M 260.513189 126.792 
L 258.686186 126.792 
L 256.859184 126.792 
L 255.032181 126.792 
L 253.205179 126.792 
L 251.378176 12.894857 
L 249.551174 12.894857 
L 247.724171 12.894857 
L 245.897169 12.894857 
L 244.070166 12.894857 
L 242.243164 12.894857 
L 240.416161 12.894857 
L 238.589158 12.894857 
L 236.762156 12.894857 
L 234.935153 13.393859 
L 233.108151 12.894857 
L 231.281148 12.894857 
L 229.454146 12.894857 
L 227.627143 12.894857 
L 225.800141 12.894857 
L 223.973138 13.666566 
L 222.146136 14.268031 
L 220.319133 15.343907 
L 218.492131 13.013686 
L 216.665128 12.894857 
L 214.838125 13.422446 
L 213.011123 13.301114 
L 211.18412 13.793734 
L 209.357118 14.725921 
L 207.530115 13.486999 
L 205.703113 14.313505 
L 203.87611 16.692936 
L 202.049108 17.069972 
L 200.222105 13.278729 
L 198.395103 17.568293 
L 196.5681 16.686567 
L 194.741098 17.303334 
L 192.914095 19.663258 
L 191.087093 17.216536 
L 189.26009 18.648581 
L 187.433087 19.141175 
L 185.606085 22.595819 
L 183.779082 20.733413 
L 181.95208 22.55008 
L 180.125077 21.817167 
L 178.298075 24.607196 
L 176.471072 23.680571 
L 174.64407 25.995883 
L 172.817067 33.699017 
L 170.990065 30.779196 
L 169.163062 34.869812 
L 167.33606 37.378609 
L 165.509057 37.185232 
L 163.682054 37.445387 
L 161.855052 37.94332 
L 160.028049 38.18277 
L 158.201047 43.570486 
L 156.374044 39.474287 
L 154.547042 40.726717 
L 152.720039 41.680588 
L 150.893037 43.929552 
L 149.066034 49.301805 
L 147.239032 46.266411 
L 145.412029 46.642818 
L 143.585027 47.83493 
L 141.758024 49.719662 
L 139.931021 52.855192 
L 138.104019 60.650473 
L 136.277016 59.027243 
L 134.450014 59.320921 
L 132.623011 60.911401 
L 130.796009 57.177317 
L 128.969006 61.853237 
L 127.142004 64.281622 
L 125.315001 66.105613 
L 123.487999 71.881747 
L 121.660996 67.295353 
L 119.833994 66.460452 
L 118.006991 72.308751 
L 116.179989 70.427292 
L 114.352986 73.135498 
L 112.525983 72.890783 
L 110.698981 73.963526 
L 108.871978 73.986024 
L 107.044976 71.909415 
L 105.217973 77.370059 
L 103.390971 74.674001 
L 101.563968 76.514232 
L 99.736966 73.516238 
L 97.909963 72.719691 
L 96.082961 74.28098 
L 94.255958 78.426918 
L 92.428956 78.178307 
L 90.601953 75.578125 
L 88.77495 77.439051 
L 86.947948 76.73674 
L 85.120945 78.491145 
L 83.293943 79.50399 
L 81.46694 79.538924 
L 79.639938 75.727541 
L 77.812935 73.812091 
L 75.985933 77.856134 
L 74.15893 80.781238 
L 72.331928 78.619763 
L 70.504925 78.185647 
L 68.677923 74.173909 
L 66.85092 74.989129 
L 65.023917 77.427773 
L 63.196915 78.591884 
L 61.369912 74.460439 
L 59.54291 71.937155 
L 57.715907 75.577921 
L 55.888905 73.763863 
L 54.061902 74.653319 
" clip-path="url(#p8f881c621a)" style="fill: none; stroke: #ff00ff; stroke-opacity: 0.5; stroke-width: 0.5; stroke-linecap: square"/>
   </g>
   <g id="line2d_23">
    <path d="M 260.513189 126.792 
L 258.686186 126.792 
L 256.859184 126.792 
L 255.032181 126.792 
L 253.205179 126.792 
L 251.378176 43.51768 
L 249.551174 39.158039 
L 247.724171 33.264561 
L 245.897169 36.433736 
L 244.070166 36.629339 
L 242.243164 43.710953 
L 240.416161 36.658677 
L 238.589158 33.93236 
L 236.762156 37.012309 
L 234.935153 40.865876 
L 233.108151 34.744176 
L 231.281148 26.553702 
L 229.454146 29.030568 
L 227.627143 31.468853 
L 225.800141 33.697725 
L 223.973138 50.962836 
L 222.146136 43.594563 
L 220.319133 35.301277 
L 218.492131 43.194588 
L 216.665128 36.602955 
L 214.838125 38.096838 
L 213.011123 34.704537 
L 211.18412 43.273438 
L 209.357118 46.412272 
L 207.530115 49.644775 
L 205.703113 48.530502 
L 203.87611 51.543603 
L 202.049108 50.108966 
L 200.222105 48.546976 
L 198.395103 49.867763 
L 196.5681 52.155114 
L 194.741098 51.122438 
L 192.914095 60.568574 
L 191.087093 57.717794 
L 189.26009 56.330208 
L 187.433087 56.971148 
L 185.606085 62.089729 
L 183.779082 59.631513 
L 181.95208 54.617234 
L 180.125077 56.20919 
L 178.298075 59.740275 
L 176.471072 61.205304 
L 174.64407 68.599899 
L 172.817067 64.407679 
L 170.990065 64.444968 
L 169.163062 66.320556 
L 167.33606 74.423319 
L 165.509057 72.959776 
L 163.682054 67.26763 
L 161.855052 70.829026 
L 160.028049 72.274855 
L 158.201047 74.207554 
L 156.374044 73.3692 
L 154.547042 71.582819 
L 152.720039 71.664458 
L 150.893037 70.514424 
L 149.066034 70.92423 
L 147.239032 73.592313 
L 145.412029 73.628035 
L 143.585027 75.322708 
L 141.758024 80.635863 
L 139.931021 80.949187 
L 138.104019 84.560651 
L 136.277016 83.329127 
L 134.450014 83.154137 
L 132.623011 80.05433 
L 130.796009 79.973845 
L 128.969006 82.270536 
L 127.142004 82.194154 
L 125.315001 81.896887 
L 123.487999 83.075897 
L 121.660996 83.439655 
L 119.833994 87.209632 
L 118.006991 84.89417 
L 116.179989 86.175647 
L 114.352986 89.527782 
L 112.525983 85.309894 
L 110.698981 87.391631 
L 108.871978 88.047675 
L 107.044976 87.65749 
L 105.217973 81.618672 
L 103.390971 81.542786 
L 101.563968 79.364222 
L 99.736966 79.975793 
L 97.909963 82.985407 
L 96.082961 83.811707 
L 94.255958 83.732696 
L 92.428956 81.869 
L 90.601953 78.617276 
L 88.77495 81.916703 
L 86.947948 78.188256 
L 85.120945 77.088206 
L 83.293943 79.281043 
L 81.46694 84.106129 
L 79.639938 83.297154 
L 77.812935 82.249892 
L 75.985933 82.330458 
L 74.15893 87.110543 
L 72.331928 84.003302 
L 70.504925 79.551173 
L 68.677923 81.365709 
L 66.85092 84.204485 
L 65.023917 81.688961 
L 63.196915 82.054302 
L 61.369912 80.128694 
L 59.54291 81.298545 
L 57.715907 80.686248 
L 55.888905 80.521704 
L 54.061902 81.52241 
" clip-path="url(#p8f881c621a)" style="fill: none; stroke: #ff00ff; stroke-opacity: 0.5; stroke-width: 0.5; stroke-linecap: square"/>
   </g>
   <g id="line2d_24">
    <path d="M 260.513189 126.792 
L 258.686186 126.792 
L 256.859184 126.792 
L 255.032181 126.792 
L 253.205179 126.792 
L 251.378176 116.584393 
L 249.551174 118.037606 
L 247.724171 120.002099 
L 245.897169 118.847159 
L 244.070166 118.689436 
L 242.243164 116.078297 
L 240.416161 118.324772 
L 238.589158 118.82667 
L 236.762156 118.570596 
L 234.935153 116.360799 
L 233.108151 118.153789 
L 231.281148 120.921345 
L 229.454146 119.902805 
L 227.627143 119.213481 
L 225.800141 117.945195 
L 223.973138 110.635467 
L 222.146136 113.962681 
L 220.319133 116.00926 
L 218.492131 114.036015 
L 216.665128 114.108703 
L 214.838125 113.422233 
L 213.011123 114.916838 
L 211.18412 111.428758 
L 209.357118 109.324307 
L 207.530115 109.254904 
L 205.703113 108.917392 
L 203.87611 103.955988 
L 202.049108 105.878889 
L 200.222105 104.984993 
L 198.395103 103.898295 
L 196.5681 104.220451 
L 194.741098 103.810521 
L 192.914095 97.276282 
L 191.087093 96.846854 
L 189.26009 98.314292 
L 187.433087 96.225171 
L 185.606085 93.878884 
L 183.779082 91.954033 
L 181.95208 94.261935 
L 180.125077 92.212891 
L 178.298075 89.314736 
L 176.471072 88.631779 
L 174.64407 84.443384 
L 172.817067 82.077788 
L 170.990065 84.257223 
L 169.163062 82.04441 
L 167.33606 78.664967 
L 165.509057 77.822101 
L 163.682054 79.763071 
L 161.855052 76.739728 
L 160.028049 74.79779 
L 158.201047 70.516084 
L 156.374044 72.95939 
L 154.547042 74.081193 
L 152.720039 72.109456 
L 150.893037 74.948086 
L 149.066034 71.808275 
L 147.239032 72.072483 
L 145.412029 72.202002 
L 143.585027 70.16771 
L 141.758024 65.757312 
L 139.931021 64.264275 
L 138.104019 61.006024 
L 136.277016 61.417475 
L 134.450014 63.143088 
L 132.623011 62.767765 
L 130.796009 62.759068 
L 128.969006 60.390445 
L 127.142004 60.137733 
L 125.315001 60.093938 
L 123.487999 57.576657 
L 121.660996 59.100748 
L 119.833994 57.596677 
L 118.006991 55.292833 
L 116.179989 56.064218 
L 114.352986 53.954686 
L 112.525983 57.90628 
L 110.698981 55.115736 
L 108.871978 54.5383 
L 107.044976 55.344902 
L 105.217973 56.015545 
L 103.390971 56.86725 
L 101.563968 57.212408 
L 99.736966 59.650747 
L 97.909963 58.57815 
L 96.082961 56.520059 
L 94.255958 53.754128 
L 92.428956 55.238508 
L 90.601953 56.762741 
L 88.77495 56.512663 
L 86.947948 58.071124 
L 85.120945 58.710652 
L 83.293943 58.249602 
L 81.46694 55.850168 
L 79.639938 58.71585 
L 77.812935 58.505916 
L 75.985933 57.152229 
L 74.15893 55.216297 
L 72.331928 57.928597 
L 70.504925 59.757271 
L 68.677923 59.551652 
L 66.85092 58.123103 
L 65.023917 58.877666 
L 63.196915 57.02009 
L 61.369912 60.639073 
L 59.54291 61.303214 
L 57.715907 59.876315 
L 55.888905 60.210367 
L 54.061902 59.671884 
" clip-path="url(#p8f881c621a)" style="fill: none; stroke: #ff8c00; stroke-width: 4; stroke-linecap: square"/>
   </g>
   <g id="line2d_25">
    <path d="M 260.513189 126.792 
L 258.686186 126.792 
L 256.859184 126.792 
L 255.032181 126.792 
L 253.205179 126.792 
L 251.378176 23.102465 
L 249.551174 21.649251 
L 247.724171 19.684758 
L 245.897169 20.839698 
L 244.070166 20.997421 
L 242.243164 23.608561 
L 240.416161 21.362085 
L 238.589158 20.860187 
L 236.762156 21.116261 
L 234.935153 23.326058 
L 233.108151 21.533068 
L 231.281148 18.765512 
L 229.454146 19.784053 
L 227.627143 20.473376 
L 225.800141 21.741662 
L 223.973138 29.05139 
L 222.146136 25.724176 
L 220.319133 23.677597 
L 218.492131 25.650842 
L 216.665128 25.578155 
L 214.838125 26.264624 
L 213.011123 24.770019 
L 211.18412 28.258099 
L 209.357118 30.36255 
L 207.530115 30.431953 
L 205.703113 30.769466 
L 203.87611 35.730869 
L 202.049108 33.807968 
L 200.222105 34.701864 
L 198.395103 35.788562 
L 196.5681 35.466406 
L 194.741098 35.876337 
L 192.914095 42.410575 
L 191.087093 42.840003 
L 189.26009 41.372565 
L 187.433087 43.461686 
L 185.606085 45.807974 
L 183.779082 47.732824 
L 181.95208 45.424922 
L 180.125077 47.473967 
L 178.298075 50.372121 
L 176.471072 51.055078 
L 174.64407 55.243473 
L 172.817067 57.609069 
L 170.990065 55.429634 
L 169.163062 57.642447 
L 167.33606 61.021891 
L 165.509057 61.864756 
L 163.682054 59.923786 
L 161.855052 62.947129 
L 160.028049 64.889067 
L 158.201047 69.170773 
L 156.374044 66.727467 
L 154.547042 65.605664 
L 152.720039 67.577401 
L 150.893037 64.738771 
L 149.066034 67.878582 
L 147.239032 67.614374 
L 145.412029 67.484855 
L 143.585027 69.519147 
L 141.758024 73.929546 
L 139.931021 75.422582 
L 138.104019 78.680833 
L 136.277016 78.269383 
L 134.450014 76.543769 
L 132.623011 76.919092 
L 130.796009 76.927789 
L 128.969006 79.296412 
L 127.142004 79.549125 
L 125.315001 79.592919 
L 123.487999 82.1102 
L 121.660996 80.58611 
L 119.833994 82.09018 
L 118.006991 84.394024 
L 116.179989 83.622639 
L 114.352986 85.732171 
L 112.525983 81.780577 
L 110.698981 84.571121 
L 108.871978 85.148557 
L 107.044976 84.341955 
L 105.217973 83.671312 
L 103.390971 82.819607 
L 101.563968 82.47445 
L 99.736966 80.036111 
L 97.909963 81.108707 
L 96.082961 83.166798 
L 94.255958 85.932729 
L 92.428956 84.448349 
L 90.601953 82.924116 
L 88.77495 83.174194 
L 86.947948 81.615733 
L 85.120945 80.976205 
L 83.293943 81.437255 
L 81.46694 83.836689 
L 79.639938 80.971007 
L 77.812935 81.180942 
L 75.985933 82.534629 
L 74.15893 84.47056 
L 72.331928 81.75826 
L 70.504925 79.929586 
L 68.677923 80.135205 
L 66.85092 81.563754 
L 65.023917 80.809191 
L 63.196915 82.666767 
L 61.369912 79.047784 
L 59.54291 78.383644 
L 57.715907 79.810542 
L 55.888905 79.47649 
L 54.061902 80.014973 
" clip-path="url(#p8f881c621a)" style="fill: none; stroke: #ff00ff; stroke-width: 4; stroke-linecap: square"/>
   </g>
   <g id="line2d_26">
    <path d="M 251.378176 126.792 
L 251.378176 7.2 
" clip-path="url(#p8f881c621a)" style="fill: none; stroke-dasharray: 1.5,2.475; stroke-dashoffset: 0; stroke: #000000; stroke-width: 1.5"/>
   </g>
   <g id="patch_3">
    <path d="M 53.94375 126.792 
L 53.94375 7.2 
" style="fill: none; stroke: #000000; stroke-linejoin: miter; stroke-linecap: square"/>
   </g>
   <g id="patch_4">
    <path d="M 260.40375 126.792 
L 260.40375 7.2 
" style="fill: none"/>
   </g>
   <g id="patch_5">
    <path d="M 53.94375 126.792 
L 260.40375 126.792 
" style="fill: none; stroke: #000000; stroke-linejoin: miter; stroke-linecap: square"/>
   </g>
   <g id="patch_6">
    <path d="M 53.94375 7.2 
L 260.40375 7.2 
" style="fill: none"/>
   </g>
   <g id="legend_1">
    <g id="patch_7">
     <path d="M 60.94375 121.792 
L 119.44375 121.792 
Q 121.44375 121.792 121.44375 119.792 
L 121.44375 91.413875 
Q 121.44375 89.413875 119.44375 89.413875 
L 60.94375 89.413875 
Q 58.94375 89.413875 58.94375 91.413875 
L 58.94375 119.792 
Q 58.94375 121.792 60.94375 121.792 
z
" style="fill: #ffffff; opacity: 0.8; stroke: #cccccc; stroke-linejoin: miter"/>
    </g>
    <g id="line2d_27">
     <path d="M 62.94375 97.512313 
L 72.94375 97.512313 
L 82.94375 97.512313 
" style="fill: none; stroke: #ff00ff; stroke-width: 4; stroke-linecap: square"/>
    </g>
    <g id="text_10">
     <!-- WT -->
     <g transform="translate(90.94375 101.012313) scale(0.1 -0.1)">
      <defs>
       <path id="DejaVuSans-57" d="M 213 4666 
L 850 4666 
L 1831 722 
L 2809 4666 
L 3519 4666 
L 4500 722 
L 5478 4666 
L 6119 4666 
L 4947 0 
L 4153 0 
L 3169 4050 
L 2175 0 
L 1381 0 
L 213 4666 
z
" transform="scale(0.015625)"/>
       <path id="DejaVuSans-54" d="M -19 4666 
L 3928 4666 
L 3928 4134 
L 2272 4134 
L 2272 0 
L 1638 0 
L 1638 4134 
L -19 4134 
L -19 4666 
z
" transform="scale(0.015625)"/>
      </defs>
      <use xlink:href="#DejaVuSans-57"/>
      <use xlink:href="#DejaVuSans-54" x="98.876953"/>
     </g>
    </g>
    <g id="line2d_28">
     <path d="M 62.94375 112.192 
L 72.94375 112.192 
L 82.94375 112.192 
" style="fill: none; stroke: #ff8c00; stroke-width: 4; stroke-linecap: square"/>
    </g>
    <g id="text_11">
     <!-- $\Delta\mathit{pilG}$ -->
     <g transform="translate(90.94375 115.692) scale(0.1 -0.1)">
      <defs>
       <path id="DejaVuSans-394" d="M 2188 4044 
L 906 525 
L 3472 525 
L 2188 4044 
z
M 50 0 
L 1831 4666 
L 2547 4666 
L 4325 0 
L 50 0 
z
" transform="scale(0.015625)"/>
       <path id="DejaVuSans-Oblique-70" d="M 3175 2156 
Q 3175 2616 2975 2859 
Q 2775 3103 2400 3103 
Q 2144 3103 1911 2972 
Q 1678 2841 1497 2591 
Q 1319 2344 1212 1994 
Q 1106 1644 1106 1300 
Q 1106 863 1306 627 
Q 1506 391 1875 391 
Q 2147 391 2380 519 
Q 2613 647 2778 891 
Q 2956 1147 3065 1494 
Q 3175 1841 3175 2156 
z
M 1394 2969 
Q 1625 3272 1939 3428 
Q 2253 3584 2638 3584 
Q 3175 3584 3472 3232 
Q 3769 2881 3769 2247 
Q 3769 1728 3584 1258 
Q 3400 788 3053 416 
Q 2822 169 2531 39 
Q 2241 -91 1919 -91 
Q 1547 -91 1294 64 
Q 1041 219 916 525 
L 556 -1331 
L -19 -1331 
L 922 3500 
L 1497 3500 
L 1394 2969 
z
" transform="scale(0.015625)"/>
       <path id="DejaVuSans-Oblique-69" d="M 1172 4863 
L 1747 4863 
L 1606 4134 
L 1031 4134 
L 1172 4863 
z
M 909 3500 
L 1484 3500 
L 800 0 
L 225 0 
L 909 3500 
z
" transform="scale(0.015625)"/>
       <path id="DejaVuSans-Oblique-6c" d="M 1172 4863 
L 1747 4863 
L 800 0 
L 225 0 
L 1172 4863 
z
" transform="scale(0.015625)"/>
       <path id="DejaVuSans-Oblique-47" d="M 3494 697 
L 3738 1919 
L 2700 1919 
L 2797 2438 
L 4453 2438 
L 4050 384 
Q 3634 156 3143 32 
Q 2653 -91 2156 -91 
Q 1278 -91 783 396 
Q 288 884 288 1753 
Q 288 2475 589 3126 
Q 891 3778 1422 4213 
Q 1756 4484 2153 4617 
Q 2550 4750 3034 4750 
Q 3472 4750 3873 4639 
Q 4275 4528 4641 4306 
L 4513 3634 
Q 4231 3928 3853 4083 
Q 3475 4238 3047 4238 
Q 2550 4238 2172 4048 
Q 1794 3859 1497 3463 
Q 1244 3125 1098 2667 
Q 953 2209 953 1734 
Q 953 1081 1287 751 
Q 1622 422 2284 422 
Q 2616 422 2925 492 
Q 3234 563 3494 697 
z
" transform="scale(0.015625)"/>
      </defs>
      <use xlink:href="#DejaVuSans-394" transform="translate(0 0.015625)"/>
      <use xlink:href="#DejaVuSans-Oblique-70" transform="translate(68.408203 0.015625)"/>
      <use xlink:href="#DejaVuSans-Oblique-69" transform="translate(131.884766 0.015625)"/>
      <use xlink:href="#DejaVuSans-Oblique-6c" transform="translate(159.667969 0.015625)"/>
      <use xlink:href="#DejaVuSans-Oblique-47" transform="translate(187.451172 0.015625)"/>
     </g>
    </g>
   </g>
  </g>
 </g>
 <defs>
  <clipPath id="p8f881c621a">
   <rect x="53.94375" y="7.2" width="206.46" height="119.592"/>
  </clipPath>
 </defs>
</svg>
