<?xml version="1.0" encoding="utf-8" standalone="no"?>
<!DOCTYPE svg PUBLIC "-//W3C//DTD SVG 1.1//EN"
  "http://www.w3.org/Graphics/SVG/1.1/DTD/svg11.dtd">
<svg xmlns:xlink="http://www.w3.org/1999/xlink" width="267.60375pt" height="174.433563pt" viewBox="0 0 267.60375 174.433563" xmlns="http://www.w3.org/2000/svg" version="1.1">
 <metadata>
  <rdf:RDF xmlns:dc="http://purl.org/dc/elements/1.1/" xmlns:cc="http://creativecommons.org/ns#" xmlns:rdf="http://www.w3.org/1999/02/22-rdf-syntax-ns#">
   <cc:Work>
    <dc:type rdf:resource="http://purl.org/dc/dcmitype/StillImage"/>
    <dc:date>2026-05-26T16:05:03.471952</dc:date>
    <dc:format>image/svg+xml</dc:format>
    <dc:creator>
     <cc:Agent>
      <dc:title>Matplotlib v3.9.4, https://matplotlib.org/</dc:title>
     </cc:Agent>
    </dc:creator>
   </cc:Work>
  </rdf:RDF>
 </metadata>
 <defs>
  <style type="text/css">*{stroke-linejoin: round; stroke-linecap: butt}</style>
 </defs>
 <g id="figure_1">
  <g id="patch_1">
   <path d="M 0 174.433563 
L 267.60375 174.433563 
L 267.60375 0 
L 0 0 
L 0 174.433563 
z
" style="fill: none"/>
  </g>
  <g id="axes_1">
   <g id="patch_2">
    <path d="M 53.94375 126.792 
L 260.40375 126.792 
L 260.40375 7.2 
L 53.94375 7.2 
L 53.94375 126.792 
z
" style="fill: none"/>
   </g>
   <g id="matplotlib.axis_1">
    <g id="xtick_1">
     <g id="line2d_1">
      <defs>
       <path id="mb6216955cf" d="M 0 0 
L 0 7 
" style="stroke: #000000; stroke-width: 1.25"/>
      </defs>
      <g>
       <use xlink:href="#mb6216955cf" x="251.378176" y="126.792" style="stroke: #000000; stroke-width: 1.25"/>
      </g>
     </g>
     <g id="text_1">
      <!-- 0 -->
      <g transform="translate(247.48552 147.312938) scale(0.14 -0.14)">
       <defs>
        <path id="ArialMT-30" d="M 266 2259 
Q 266 3072 433 3567 
Q 600 4063 929 4331 
Q 1259 4600 1759 4600 
Q 2128 4600 2406 4451 
Q 2684 4303 2865 4023 
Q 3047 3744 3150 3342 
Q 3253 2941 3253 2259 
Q 3253 1453 3087 958 
Q 2922 463 2592 192 
Q 2263 -78 1759 -78 
Q 1097 -78 719 397 
Q 266 969 266 2259 
z
M 844 2259 
Q 844 1131 1108 757 
Q 1372 384 1759 384 
Q 2147 384 2411 759 
Q 2675 1134 2675 2259 
Q 2675 3391 2411 3762 
Q 2147 4134 1753 4134 
Q 1366 4134 1134 3806 
Q 844 3388 844 2259 
z
" transform="scale(0.015625)"/>
       </defs>
       <use xlink:href="#ArialMT-30"/>
      </g>
     </g>
    </g>
    <g id="xtick_2">
     <g id="line2d_2">
      <g>
       <use xlink:href="#mb6216955cf" x="194.96834" y="126.792" style="stroke: #000000; stroke-width: 1.25"/>
      </g>
     </g>
     <g id="text_2">
      <!-- 100 -->
      <g transform="translate(183.290371 147.312938) scale(0.14 -0.14)">
       <defs>
        <path id="ArialMT-31" d="M 2384 0 
L 1822 0 
L 1822 3584 
Q 1619 3391 1289 3197 
Q 959 3003 697 2906 
L 697 3450 
Q 1169 3672 1522 3987 
Q 1875 4303 2022 4600 
L 2384 4600 
L 2384 0 
z
" transform="scale(0.015625)"/>
       </defs>
       <use xlink:href="#ArialMT-31"/>
       <use xlink:href="#ArialMT-30" x="55.615234"/>
       <use xlink:href="#ArialMT-30" x="111.230469"/>
      </g>
     </g>
    </g>
    <g id="xtick_3">
     <g id="line2d_3">
      <g>
       <use xlink:href="#mb6216955cf" x="138.558504" y="126.792" style="stroke: #000000; stroke-width: 1.25"/>
      </g>
     </g>
     <g id="text_3">
      <!-- 200 -->
      <g transform="translate(126.880535 147.312938) scale(0.14 -0.14)">
       <defs>
        <path id="ArialMT-32" d="M 3222 541 
L 3222 0 
L 194 0 
Q 188 203 259 391 
Q 375 700 629 1000 
Q 884 1300 1366 1694 
Q 2113 2306 2375 2664 
Q 2638 3022 2638 3341 
Q 2638 3675 2398 3904 
Q 2159 4134 1775 4134 
Q 1369 4134 1125 3890 
Q 881 3647 878 3216 
L 300 3275 
Q 359 3922 746 4261 
Q 1134 4600 1788 4600 
Q 2447 4600 2831 4234 
Q 3216 3869 3216 3328 
Q 3216 3053 3103 2787 
Q 2991 2522 2730 2228 
Q 2469 1934 1863 1422 
Q 1356 997 1212 845 
Q 1069 694 975 541 
L 3222 541 
z
" transform="scale(0.015625)"/>
       </defs>
       <use xlink:href="#ArialMT-32"/>
       <use xlink:href="#ArialMT-30" x="55.615234"/>
       <use xlink:href="#ArialMT-30" x="111.230469"/>
      </g>
     </g>
    </g>
    <g id="xtick_4">
     <g id="line2d_4">
      <g>
       <use xlink:href="#mb6216955cf" x="82.148668" y="126.792" style="stroke: #000000; stroke-width: 1.25"/>
      </g>
     </g>
     <g id="text_4">
      <!-- 300 -->
      <g transform="translate(70.470699 147.312938) scale(0.14 -0.14)">
       <defs>
        <path id="ArialMT-33" d="M 269 1209 
L 831 1284 
Q 928 806 1161 595 
Q 1394 384 1728 384 
Q 2125 384 2398 659 
Q 2672 934 2672 1341 
Q 2672 1728 2419 1979 
Q 2166 2231 1775 2231 
Q 1616 2231 1378 2169 
L 1441 2663 
Q 1497 2656 1531 2656 
Q 1891 2656 2178 2843 
Q 2466 3031 2466 3422 
Q 2466 3731 2256 3934 
Q 2047 4138 1716 4138 
Q 1388 4138 1169 3931 
Q 950 3725 888 3313 
L 325 3413 
Q 428 3978 793 4289 
Q 1159 4600 1703 4600 
Q 2078 4600 2393 4439 
Q 2709 4278 2876 4000 
Q 3044 3722 3044 3409 
Q 3044 3113 2884 2869 
Q 2725 2625 2413 2481 
Q 2819 2388 3044 2092 
Q 3269 1797 3269 1353 
Q 3269 753 2831 336 
Q 2394 -81 1725 -81 
Q 1122 -81 723 278 
Q 325 638 269 1209 
z
" transform="scale(0.015625)"/>
       </defs>
       <use xlink:href="#ArialMT-33"/>
       <use xlink:href="#ArialMT-30" x="55.615234"/>
       <use xlink:href="#ArialMT-30" x="111.230469"/>
      </g>
     </g>
    </g>
    <g id="text_5">
     <!-- Distance from the edge (µm) -->
     <g transform="translate(62.907813 164.287) scale(0.14 -0.14)">
      <defs>
       <path id="Arial-BoldMT-44" d="M 463 4581 
L 2153 4581 
Q 2725 4581 3025 4494 
Q 3428 4375 3715 4072 
Q 4003 3769 4153 3330 
Q 4303 2891 4303 2247 
Q 4303 1681 4163 1272 
Q 3991 772 3672 463 
Q 3431 228 3022 97 
Q 2716 0 2203 0 
L 463 0 
L 463 4581 
z
M 1388 3806 
L 1388 772 
L 2078 772 
Q 2466 772 2638 816 
Q 2863 872 3011 1006 
Q 3159 1141 3253 1448 
Q 3347 1756 3347 2288 
Q 3347 2819 3253 3103 
Q 3159 3388 2990 3547 
Q 2822 3706 2563 3763 
Q 2369 3806 1803 3806 
L 1388 3806 
z
" transform="scale(0.015625)"/>
       <path id="Arial-BoldMT-69" d="M 459 3769 
L 459 4581 
L 1338 4581 
L 1338 3769 
L 459 3769 
z
M 459 0 
L 459 3319 
L 1338 3319 
L 1338 0 
L 459 0 
z
" transform="scale(0.015625)"/>
       <path id="Arial-BoldMT-73" d="M 150 947 
L 1031 1081 
Q 1088 825 1259 692 
Q 1431 559 1741 559 
Q 2081 559 2253 684 
Q 2369 772 2369 919 
Q 2369 1019 2306 1084 
Q 2241 1147 2013 1200 
Q 950 1434 666 1628 
Q 272 1897 272 2375 
Q 272 2806 612 3100 
Q 953 3394 1669 3394 
Q 2350 3394 2681 3172 
Q 3013 2950 3138 2516 
L 2309 2363 
Q 2256 2556 2107 2659 
Q 1959 2763 1684 2763 
Q 1338 2763 1188 2666 
Q 1088 2597 1088 2488 
Q 1088 2394 1175 2328 
Q 1294 2241 1995 2081 
Q 2697 1922 2975 1691 
Q 3250 1456 3250 1038 
Q 3250 581 2869 253 
Q 2488 -75 1741 -75 
Q 1063 -75 667 200 
Q 272 475 150 947 
z
" transform="scale(0.015625)"/>
       <path id="Arial-BoldMT-74" d="M 1981 3319 
L 1981 2619 
L 1381 2619 
L 1381 1281 
Q 1381 875 1398 808 
Q 1416 741 1477 697 
Q 1538 653 1625 653 
Q 1747 653 1978 738 
L 2053 56 
Q 1747 -75 1359 -75 
Q 1122 -75 931 4 
Q 741 84 652 211 
Q 563 338 528 553 
Q 500 706 500 1172 
L 500 2619 
L 97 2619 
L 97 3319 
L 500 3319 
L 500 3978 
L 1381 4491 
L 1381 3319 
L 1981 3319 
z
" transform="scale(0.015625)"/>
       <path id="Arial-BoldMT-61" d="M 1116 2306 
L 319 2450 
Q 453 2931 781 3162 
Q 1109 3394 1756 3394 
Q 2344 3394 2631 3255 
Q 2919 3116 3036 2902 
Q 3153 2688 3153 2116 
L 3144 1091 
Q 3144 653 3186 445 
Q 3228 238 3344 0 
L 2475 0 
Q 2441 88 2391 259 
Q 2369 338 2359 363 
Q 2134 144 1878 34 
Q 1622 -75 1331 -75 
Q 819 -75 523 203 
Q 228 481 228 906 
Q 228 1188 362 1408 
Q 497 1628 739 1745 
Q 981 1863 1438 1950 
Q 2053 2066 2291 2166 
L 2291 2253 
Q 2291 2506 2166 2614 
Q 2041 2722 1694 2722 
Q 1459 2722 1328 2630 
Q 1197 2538 1116 2306 
z
M 2291 1594 
Q 2122 1538 1756 1459 
Q 1391 1381 1278 1306 
Q 1106 1184 1106 997 
Q 1106 813 1243 678 
Q 1381 544 1594 544 
Q 1831 544 2047 700 
Q 2206 819 2256 991 
Q 2291 1103 2291 1419 
L 2291 1594 
z
" transform="scale(0.015625)"/>
       <path id="Arial-BoldMT-6e" d="M 3478 0 
L 2600 0 
L 2600 1694 
Q 2600 2231 2544 2389 
Q 2488 2547 2361 2634 
Q 2234 2722 2056 2722 
Q 1828 2722 1647 2597 
Q 1466 2472 1398 2265 
Q 1331 2059 1331 1503 
L 1331 0 
L 453 0 
L 453 3319 
L 1269 3319 
L 1269 2831 
Q 1703 3394 2363 3394 
Q 2653 3394 2893 3289 
Q 3134 3184 3257 3021 
Q 3381 2859 3429 2653 
Q 3478 2447 3478 2063 
L 3478 0 
z
" transform="scale(0.015625)"/>
       <path id="Arial-BoldMT-63" d="M 3353 2338 
L 2488 2181 
Q 2444 2441 2289 2572 
Q 2134 2703 1888 2703 
Q 1559 2703 1364 2476 
Q 1169 2250 1169 1719 
Q 1169 1128 1367 884 
Q 1566 641 1900 641 
Q 2150 641 2309 783 
Q 2469 925 2534 1272 
L 3397 1125 
Q 3263 531 2881 228 
Q 2500 -75 1859 -75 
Q 1131 -75 698 384 
Q 266 844 266 1656 
Q 266 2478 700 2936 
Q 1134 3394 1875 3394 
Q 2481 3394 2839 3133 
Q 3197 2872 3353 2338 
z
" transform="scale(0.015625)"/>
       <path id="Arial-BoldMT-65" d="M 2381 1056 
L 3256 909 
Q 3088 428 2723 176 
Q 2359 -75 1813 -75 
Q 947 -75 531 491 
Q 203 944 203 1634 
Q 203 2459 634 2926 
Q 1066 3394 1725 3394 
Q 2466 3394 2894 2905 
Q 3322 2416 3303 1406 
L 1103 1406 
Q 1113 1016 1316 798 
Q 1519 581 1822 581 
Q 2028 581 2168 693 
Q 2309 806 2381 1056 
z
M 2431 1944 
Q 2422 2325 2234 2523 
Q 2047 2722 1778 2722 
Q 1491 2722 1303 2513 
Q 1116 2303 1119 1944 
L 2431 1944 
z
" transform="scale(0.015625)"/>
       <path id="Arial-BoldMT-20" transform="scale(0.015625)"/>
       <path id="Arial-BoldMT-66" d="M 75 3319 
L 563 3319 
L 563 3569 
Q 563 3988 652 4194 
Q 741 4400 980 4529 
Q 1219 4659 1584 4659 
Q 1959 4659 2319 4547 
L 2200 3934 
Q 1991 3984 1797 3984 
Q 1606 3984 1523 3895 
Q 1441 3806 1441 3553 
L 1441 3319 
L 2097 3319 
L 2097 2628 
L 1441 2628 
L 1441 0 
L 563 0 
L 563 2628 
L 75 2628 
L 75 3319 
z
" transform="scale(0.015625)"/>
       <path id="Arial-BoldMT-72" d="M 1300 0 
L 422 0 
L 422 3319 
L 1238 3319 
L 1238 2847 
Q 1447 3181 1614 3287 
Q 1781 3394 1994 3394 
Q 2294 3394 2572 3228 
L 2300 2463 
Q 2078 2606 1888 2606 
Q 1703 2606 1575 2504 
Q 1447 2403 1373 2137 
Q 1300 1872 1300 1025 
L 1300 0 
z
" transform="scale(0.015625)"/>
       <path id="Arial-BoldMT-6f" d="M 256 1706 
Q 256 2144 472 2553 
Q 688 2963 1083 3178 
Q 1478 3394 1966 3394 
Q 2719 3394 3200 2905 
Q 3681 2416 3681 1669 
Q 3681 916 3195 420 
Q 2709 -75 1972 -75 
Q 1516 -75 1102 131 
Q 688 338 472 736 
Q 256 1134 256 1706 
z
M 1156 1659 
Q 1156 1166 1390 903 
Q 1625 641 1969 641 
Q 2313 641 2545 903 
Q 2778 1166 2778 1666 
Q 2778 2153 2545 2415 
Q 2313 2678 1969 2678 
Q 1625 2678 1390 2415 
Q 1156 2153 1156 1659 
z
" transform="scale(0.015625)"/>
       <path id="Arial-BoldMT-6d" d="M 394 3319 
L 1203 3319 
L 1203 2866 
Q 1638 3394 2238 3394 
Q 2556 3394 2790 3262 
Q 3025 3131 3175 2866 
Q 3394 3131 3647 3262 
Q 3900 3394 4188 3394 
Q 4553 3394 4806 3245 
Q 5059 3097 5184 2809 
Q 5275 2597 5275 2122 
L 5275 0 
L 4397 0 
L 4397 1897 
Q 4397 2391 4306 2534 
Q 4184 2722 3931 2722 
Q 3747 2722 3584 2609 
Q 3422 2497 3350 2280 
Q 3278 2063 3278 1594 
L 3278 0 
L 2400 0 
L 2400 1819 
Q 2400 2303 2353 2443 
Q 2306 2584 2207 2653 
Q 2109 2722 1941 2722 
Q 1738 2722 1575 2612 
Q 1413 2503 1342 2297 
Q 1272 2091 1272 1613 
L 1272 0 
L 394 0 
L 394 3319 
z
" transform="scale(0.015625)"/>
       <path id="Arial-BoldMT-68" d="M 1334 4581 
L 1334 2897 
Q 1759 3394 2350 3394 
Q 2653 3394 2897 3281 
Q 3141 3169 3264 2994 
Q 3388 2819 3433 2606 
Q 3478 2394 3478 1947 
L 3478 0 
L 2600 0 
L 2600 1753 
Q 2600 2275 2550 2415 
Q 2500 2556 2373 2639 
Q 2247 2722 2056 2722 
Q 1838 2722 1666 2615 
Q 1494 2509 1414 2295 
Q 1334 2081 1334 1663 
L 1334 0 
L 456 0 
L 456 4581 
L 1334 4581 
z
" transform="scale(0.015625)"/>
       <path id="Arial-BoldMT-64" d="M 3503 0 
L 2688 0 
L 2688 488 
Q 2484 203 2207 64 
Q 1931 -75 1650 -75 
Q 1078 -75 670 386 
Q 263 847 263 1672 
Q 263 2516 659 2955 
Q 1056 3394 1663 3394 
Q 2219 3394 2625 2931 
L 2625 4581 
L 3503 4581 
L 3503 0 
z
M 1159 1731 
Q 1159 1200 1306 963 
Q 1519 619 1900 619 
Q 2203 619 2415 876 
Q 2628 1134 2628 1647 
Q 2628 2219 2422 2470 
Q 2216 2722 1894 2722 
Q 1581 2722 1370 2473 
Q 1159 2225 1159 1731 
z
" transform="scale(0.015625)"/>
       <path id="Arial-BoldMT-67" d="M 378 -219 
L 1381 -341 
Q 1406 -516 1497 -581 
Q 1622 -675 1891 -675 
Q 2234 -675 2406 -572 
Q 2522 -503 2581 -350 
Q 2622 -241 2622 53 
L 2622 538 
Q 2228 0 1628 0 
Q 959 0 569 566 
Q 263 1013 263 1678 
Q 263 2513 664 2953 
Q 1066 3394 1663 3394 
Q 2278 3394 2678 2853 
L 2678 3319 
L 3500 3319 
L 3500 341 
Q 3500 -247 3403 -537 
Q 3306 -828 3131 -993 
Q 2956 -1159 2664 -1253 
Q 2372 -1347 1925 -1347 
Q 1081 -1347 728 -1058 
Q 375 -769 375 -325 
Q 375 -281 378 -219 
z
M 1163 1728 
Q 1163 1200 1367 954 
Q 1572 709 1872 709 
Q 2194 709 2416 961 
Q 2638 1213 2638 1706 
Q 2638 2222 2425 2472 
Q 2213 2722 1888 2722 
Q 1572 2722 1367 2476 
Q 1163 2231 1163 1728 
z
" transform="scale(0.015625)"/>
       <path id="Arial-BoldMT-28" d="M 1916 -1347 
L 1313 -1347 
Q 834 -625 584 153 
Q 334 931 334 1659 
Q 334 2563 644 3369 
Q 913 4069 1325 4659 
L 1925 4659 
Q 1497 3713 1336 3048 
Q 1175 2384 1175 1641 
Q 1175 1128 1270 590 
Q 1366 53 1531 -431 
Q 1641 -750 1916 -1347 
z
" transform="scale(0.015625)"/>
       <path id="Arial-BoldMT-b5" d="M 347 3319 
L 1219 3319 
L 1219 1816 
Q 1219 1166 1350 931 
Q 1516 628 1841 628 
Q 2016 628 2172 740 
Q 2328 853 2403 1053 
Q 2478 1253 2478 1806 
L 2478 3319 
L 3366 3319 
L 3366 0 
L 2547 0 
L 2547 400 
Q 2453 225 2368 137 
Q 2284 50 2142 -15 
Q 2000 -81 1881 -81 
Q 1659 -81 1488 41 
Q 1366 131 1219 400 
L 1219 -1272 
L 347 -1272 
L 347 3319 
z
" transform="scale(0.015625)"/>
       <path id="Arial-BoldMT-29" d="M 216 -1347 
Q 475 -791 581 -494 
Q 688 -197 778 190 
Q 869 578 912 926 
Q 956 1275 956 1641 
Q 956 2384 797 3048 
Q 638 3713 209 4659 
L 806 4659 
Q 1278 3988 1539 3234 
Q 1800 2481 1800 1706 
Q 1800 1053 1594 306 
Q 1359 -531 822 -1347 
L 216 -1347 
z
" transform="scale(0.015625)"/>
      </defs>
      <use xlink:href="#Arial-BoldMT-44"/>
      <use xlink:href="#Arial-BoldMT-69" x="72.216797"/>
      <use xlink:href="#Arial-BoldMT-73" x="100"/>
      <use xlink:href="#Arial-BoldMT-74" x="155.615234"/>
      <use xlink:href="#Arial-BoldMT-61" x="188.916016"/>
      <use xlink:href="#Arial-BoldMT-6e" x="244.53125"/>
      <use xlink:href="#Arial-BoldMT-63" x="305.615234"/>
      <use xlink:href="#Arial-BoldMT-65" x="361.230469"/>
      <use xlink:href="#Arial-BoldMT-20" x="416.845703"/>
      <use xlink:href="#Arial-BoldMT-66" x="444.628906"/>
      <use xlink:href="#Arial-BoldMT-72" x="477.929688"/>
      <use xlink:href="#Arial-BoldMT-6f" x="516.845703"/>
      <use xlink:href="#Arial-BoldMT-6d" x="577.929688"/>
      <use xlink:href="#Arial-BoldMT-20" x="666.845703"/>
      <use xlink:href="#Arial-BoldMT-74" x="694.628906"/>
      <use xlink:href="#Arial-BoldMT-68" x="727.929688"/>
      <use xlink:href="#Arial-BoldMT-65" x="789.013672"/>
      <use xlink:href="#Arial-BoldMT-20" x="844.628906"/>
      <use xlink:href="#Arial-BoldMT-65" x="872.412109"/>
      <use xlink:href="#Arial-BoldMT-64" x="928.027344"/>
      <use xlink:href="#Arial-BoldMT-67" x="989.111328"/>
      <use xlink:href="#Arial-BoldMT-65" x="1050.195312"/>
      <use xlink:href="#Arial-BoldMT-20" x="1105.810547"/>
      <use xlink:href="#Arial-BoldMT-28" x="1133.59375"/>
      <use xlink:href="#Arial-BoldMT-b5" x="1166.894531"/>
      <use xlink:href="#Arial-BoldMT-6d" x="1224.511719"/>
      <use xlink:href="#Arial-BoldMT-29" x="1313.427734"/>
     </g>
    </g>
   </g>
   <g id="matplotlib.axis_2">
    <g id="ytick_1">
     <g id="line2d_5">
      <defs>
       <path id="m12b93aed96" d="M 0 0 
L -7 0 
" style="stroke: #000000; stroke-width: 1.25"/>
      </defs>
      <g>
       <use xlink:href="#m12b93aed96" x="53.94375" y="126.792" style="stroke: #000000; stroke-width: 1.25"/>
      </g>
     </g>
     <g id="text_6">
      <!-- 0.0 -->
      <g transform="translate(23.98375 131.802469) scale(0.14 -0.14)">
       <defs>
        <path id="ArialMT-2e" d="M 581 0 
L 581 641 
L 1222 641 
L 1222 0 
L 581 0 
z
" transform="scale(0.015625)"/>
       </defs>
       <use xlink:href="#ArialMT-30"/>
       <use xlink:href="#ArialMT-2e" x="55.615234"/>
       <use xlink:href="#ArialMT-30" x="83.398438"/>
      </g>
     </g>
    </g>
    <g id="ytick_2">
     <g id="line2d_6">
      <g>
       <use xlink:href="#m12b93aed96" x="53.94375" y="69.843429" style="stroke: #000000; stroke-width: 1.25"/>
      </g>
     </g>
     <g id="text_7">
      <!-- 0.5 -->
      <g transform="translate(23.98375 74.853897) scale(0.14 -0.14)">
       <defs>
        <path id="ArialMT-35" d="M 266 1200 
L 856 1250 
Q 922 819 1161 601 
Q 1400 384 1738 384 
Q 2144 384 2425 690 
Q 2706 997 2706 1503 
Q 2706 1984 2436 2262 
Q 2166 2541 1728 2541 
Q 1456 2541 1237 2417 
Q 1019 2294 894 2097 
L 366 2166 
L 809 4519 
L 3088 4519 
L 3088 3981 
L 1259 3981 
L 1013 2750 
Q 1425 3038 1878 3038 
Q 2478 3038 2890 2622 
Q 3303 2206 3303 1553 
Q 3303 931 2941 478 
Q 2500 -78 1738 -78 
Q 1113 -78 717 272 
Q 322 622 266 1200 
z
" transform="scale(0.015625)"/>
       </defs>
       <use xlink:href="#ArialMT-30"/>
       <use xlink:href="#ArialMT-2e" x="55.615234"/>
       <use xlink:href="#ArialMT-35" x="83.398438"/>
      </g>
     </g>
    </g>
    <g id="ytick_3">
     <g id="line2d_7">
      <g>
       <use xlink:href="#m12b93aed96" x="53.94375" y="12.894857" style="stroke: #000000; stroke-width: 1.25"/>
      </g>
     </g>
     <g id="text_8">
      <!-- 1.0 -->
      <g transform="translate(23.98375 17.905326) scale(0.14 -0.14)">
       <use xlink:href="#ArialMT-31"/>
       <use xlink:href="#ArialMT-2e" x="55.615234"/>
       <use xlink:href="#ArialMT-30" x="83.398438"/>
      </g>
     </g>
    </g>
    <g id="ytick_4">
     <g id="line2d_8">
      <defs>
       <path id="mb093c17bac" d="M 0 0 
L -4 0 
" style="stroke: #000000; stroke-width: 1.25"/>
      </defs>
      <g>
       <use xlink:href="#mb093c17bac" x="53.94375" y="98.317714" style="stroke: #000000; stroke-width: 1.25"/>
      </g>
     </g>
    </g>
    <g id="ytick_5">
     <g id="line2d_9">
      <g>
       <use xlink:href="#mb093c17bac" x="53.94375" y="41.369143" style="stroke: #000000; stroke-width: 1.25"/>
      </g>
     </g>
    </g>
    <g id="text_9">
     <!-- Relative abundance -->
     <g transform="translate(17.220938 132.73475) rotate(-90) scale(0.14 -0.14)">
      <defs>
       <path id="Arial-BoldMT-52" d="M 469 0 
L 469 4581 
L 2416 4581 
Q 3150 4581 3483 4457 
Q 3816 4334 4016 4018 
Q 4216 3703 4216 3297 
Q 4216 2781 3912 2445 
Q 3609 2109 3006 2022 
Q 3306 1847 3501 1637 
Q 3697 1428 4028 894 
L 4588 0 
L 3481 0 
L 2813 997 
Q 2456 1531 2325 1670 
Q 2194 1809 2047 1861 
Q 1900 1913 1581 1913 
L 1394 1913 
L 1394 0 
L 469 0 
z
M 1394 2644 
L 2078 2644 
Q 2744 2644 2909 2700 
Q 3075 2756 3169 2893 
Q 3263 3031 3263 3238 
Q 3263 3469 3139 3611 
Q 3016 3753 2791 3791 
Q 2678 3806 2116 3806 
L 1394 3806 
L 1394 2644 
z
" transform="scale(0.015625)"/>
       <path id="Arial-BoldMT-6c" d="M 459 0 
L 459 4581 
L 1338 4581 
L 1338 0 
L 459 0 
z
" transform="scale(0.015625)"/>
       <path id="Arial-BoldMT-76" d="M 1372 0 
L 34 3319 
L 956 3319 
L 1581 1625 
L 1763 1059 
Q 1834 1275 1853 1344 
Q 1897 1484 1947 1625 
L 2578 3319 
L 3481 3319 
L 2163 0 
L 1372 0 
z
" transform="scale(0.015625)"/>
       <path id="Arial-BoldMT-62" d="M 422 0 
L 422 4581 
L 1300 4581 
L 1300 2931 
Q 1706 3394 2263 3394 
Q 2869 3394 3266 2955 
Q 3663 2516 3663 1694 
Q 3663 844 3258 384 
Q 2853 -75 2275 -75 
Q 1991 -75 1714 67 
Q 1438 209 1238 488 
L 1238 0 
L 422 0 
z
M 1294 1731 
Q 1294 1216 1456 969 
Q 1684 619 2063 619 
Q 2353 619 2558 867 
Q 2763 1116 2763 1650 
Q 2763 2219 2556 2470 
Q 2350 2722 2028 2722 
Q 1713 2722 1503 2476 
Q 1294 2231 1294 1731 
z
" transform="scale(0.015625)"/>
       <path id="Arial-BoldMT-75" d="M 2644 0 
L 2644 497 
Q 2463 231 2167 78 
Q 1872 -75 1544 -75 
Q 1209 -75 943 72 
Q 678 219 559 484 
Q 441 750 441 1219 
L 441 3319 
L 1319 3319 
L 1319 1794 
Q 1319 1094 1367 936 
Q 1416 778 1544 686 
Q 1672 594 1869 594 
Q 2094 594 2272 717 
Q 2450 841 2515 1023 
Q 2581 1206 2581 1919 
L 2581 3319 
L 3459 3319 
L 3459 0 
L 2644 0 
z
" transform="scale(0.015625)"/>
      </defs>
      <use xlink:href="#Arial-BoldMT-52"/>
      <use xlink:href="#Arial-BoldMT-65" x="72.216797"/>
      <use xlink:href="#Arial-BoldMT-6c" x="127.832031"/>
      <use xlink:href="#Arial-BoldMT-61" x="155.615234"/>
      <use xlink:href="#Arial-BoldMT-74" x="211.230469"/>
      <use xlink:href="#Arial-BoldMT-69" x="244.53125"/>
      <use xlink:href="#Arial-BoldMT-76" x="272.314453"/>
      <use xlink:href="#Arial-BoldMT-65" x="327.929688"/>
      <use xlink:href="#Arial-BoldMT-20" x="383.544922"/>
      <use xlink:href="#Arial-BoldMT-61" x="411.328125"/>
      <use xlink:href="#Arial-BoldMT-62" x="466.943359"/>
      <use xlink:href="#Arial-BoldMT-75" x="528.027344"/>
      <use xlink:href="#Arial-BoldMT-6e" x="589.111328"/>
      <use xlink:href="#Arial-BoldMT-64" x="650.195312"/>
      <use xlink:href="#Arial-BoldMT-61" x="711.279297"/>
      <use xlink:href="#Arial-BoldMT-6e" x="766.894531"/>
      <use xlink:href="#Arial-BoldMT-63" x="827.978516"/>
      <use xlink:href="#Arial-BoldMT-65" x="883.59375"/>
     </g>
    </g>
   </g>
   <g id="line2d_10">
    <path d="M 260.513189 126.792 
L 258.686186 126.792 
L 256.859184 126.792 
L 255.032181 126.792 
L 253.205179 126.792 
L 251.378176 12.894857 
L 249.551174 12.894857 
L 247.724171 12.894857 
L 245.897169 12.894857 
L 244.070166 12.894857 
L 242.243164 12.894857 
L 240.416161 13.817699 
L 238.589158 13.457569 
L 236.762156 12.976125 
L 234.935153 13.742727 
L 233.108151 13.559418 
L 231.281148 13.244092 
L 229.454146 13.852182 
L 227.627143 16.756926 
L 225.800141 16.75075 
L 223.973138 14.818247 
L 222.146136 13.509687 
L 220.319133 13.985009 
L 218.492131 17.767596 
L 216.665128 14.574618 
L 214.838125 15.593401 
L 213.011123 17.307806 
L 211.18412 15.676908 
L 209.357118 14.853045 
L 207.530115 14.961018 
L 205.703113 16.631023 
L 203.87611 14.701993 
L 202.049108 18.51219 
L 200.222105 17.735793 
L 198.395103 16.734355 
L 196.5681 16.433912 
L 194.741098 21.58157 
L 192.914095 25.919696 
L 191.087093 23.800997 
L 189.26009 26.106926 
L 187.433087 25.447349 
L 185.606085 27.609495 
L 183.779082 22.859576 
L 181.95208 26.117744 
L 180.125077 26.082354 
L 178.298075 27.576569 
L 176.471072 25.218658 
L 174.64407 26.326887 
L 172.817067 33.188491 
L 170.990065 38.374538 
L 169.163062 32.489881 
L 167.33606 37.288728 
L 165.509057 42.696263 
L 163.682054 42.786348 
L 161.855052 37.869677 
L 160.028049 42.153686 
L 158.201047 43.186964 
L 156.374044 43.693108 
L 154.547042 41.236499 
L 152.720039 52.095782 
L 150.893037 53.644887 
L 149.066034 57.365509 
L 147.239032 57.92481 
L 145.412029 53.815259 
L 143.585027 57.635123 
L 141.758024 59.971641 
L 139.931021 68.466135 
L 138.104019 64.883909 
L 136.277016 63.77654 
L 134.450014 65.798538 
L 132.623011 67.927381 
L 130.796009 69.305957 
L 128.969006 72.461555 
L 127.142004 72.852209 
L 125.315001 77.680289 
L 123.487999 79.094063 
L 121.660996 78.822294 
L 119.833994 79.027392 
L 118.006991 78.828863 
L 116.179989 80.631732 
L 114.352986 78.308757 
L 112.525983 80.694083 
L 110.698981 86.25879 
L 108.871978 87.506391 
L 107.044976 86.015265 
L 105.217973 87.507443 
L 103.390971 86.446963 
L 101.563968 82.720055 
L 99.736966 85.135522 
L 97.909963 87.315466 
L 96.082961 90.539088 
L 94.255958 89.688192 
L 92.428956 86.761273 
L 90.601953 90.918691 
L 88.77495 91.147655 
L 86.947948 86.170305 
L 85.120945 86.014613 
L 83.293943 87.994138 
L 81.46694 87.166596 
L 79.639938 86.334794 
L 77.812935 84.053373 
L 75.985933 86.080865 
L 74.15893 84.871358 
L 72.331928 87.580549 
L 70.504925 87.925343 
L 68.677923 88.190232 
L 66.85092 88.47514 
L 65.023917 80.372576 
L 63.196915 84.346715 
L 61.369912 85.005674 
L 59.54291 84.824959 
L 57.715907 86.487598 
L 55.888905 86.984046 
L 54.061902 88.663407 
" clip-path="url(#p0e8d95ed89)" style="fill: none; stroke: #ff00ff; stroke-opacity: 0.5; stroke-width: 0.5; stroke-linecap: square"/>
   </g>
   <g id="line2d_11">
    <path d="M 260.513189 126.792 
L 258.686186 126.792 
L 256.859184 126.792 
L 255.032181 126.792 
L 253.205179 126.792 
L 251.378176 14.43343 
L 249.551174 14.393757 
L 247.724171 13.070818 
L 245.897169 14.450175 
L 244.070166 13.538495 
L 242.243164 16.478937 
L 240.416161 17.139648 
L 238.589158 18.97688 
L 236.762156 18.958762 
L 234.935153 22.098373 
L 233.108151 18.730473 
L 231.281148 23.578099 
L 229.454146 24.11722 
L 227.627143 31.962874 
L 225.800141 27.505782 
L 223.973138 29.494962 
L 222.146136 31.595441 
L 220.319133 37.29609 
L 218.492131 35.669872 
L 216.665128 31.560345 
L 214.838125 32.952079 
L 213.011123 42.556671 
L 211.18412 41.755483 
L 209.357118 38.210029 
L 207.530115 40.28936 
L 205.703113 42.532206 
L 203.87611 40.015073 
L 202.049108 41.144789 
L 200.222105 42.416129 
L 198.395103 42.970986 
L 196.5681 40.922941 
L 194.741098 44.005809 
L 192.914095 41.187131 
L 191.087093 44.619707 
L 189.26009 52.025265 
L 187.433087 46.978315 
L 185.606085 47.056361 
L 183.779082 46.080817 
L 181.95208 50.618546 
L 180.125077 46.895535 
L 178.298075 50.224821 
L 176.471072 52.493145 
L 174.64407 47.645108 
L 172.817067 48.688586 
L 170.990065 48.091479 
L 169.163062 48.289303 
L 167.33606 54.540452 
L 165.509057 54.040945 
L 163.682054 58.25035 
L 161.855052 56.08497 
L 160.028049 61.071775 
L 158.201047 60.898761 
L 156.374044 59.04973 
L 154.547042 63.857195 
L 152.720039 59.765417 
L 150.893037 63.002474 
L 149.066034 66.151901 
L 147.239032 63.990834 
L 145.412029 60.191574 
L 143.585027 64.565777 
L 141.758024 69.853922 
L 139.931021 67.229002 
L 138.104019 66.736295 
L 136.277016 72.073161 
L 134.450014 73.192721 
L 132.623011 74.450659 
L 130.796009 71.878221 
L 128.969006 70.895573 
L 127.142004 65.115823 
L 125.315001 66.908845 
L 123.487999 70.781159 
L 121.660996 78.206627 
L 119.833994 78.455872 
L 118.006991 76.358418 
L 116.179989 77.004466 
L 114.352986 78.669631 
L 112.525983 74.558809 
L 110.698981 73.673936 
L 108.871978 84.478422 
L 107.044976 83.662701 
L 105.217973 81.288892 
L 103.390971 77.377371 
L 101.563968 76.033216 
L 99.736966 78.432557 
L 97.909963 79.674436 
L 96.082961 82.304426 
L 94.255958 79.644725 
L 92.428956 77.361236 
L 90.601953 80.950859 
L 88.77495 80.739083 
L 86.947948 77.661864 
L 85.120945 81.651366 
L 83.293943 87.650109 
L 81.46694 82.879944 
L 79.639938 79.138785 
L 77.812935 75.915691 
L 75.985933 75.746523 
L 74.15893 77.939292 
L 72.331928 78.523016 
L 70.504925 79.742942 
L 68.677923 81.686089 
L 66.85092 84.77594 
L 65.023917 78.612218 
L 63.196915 78.621839 
L 61.369912 82.405823 
L 59.54291 80.413929 
L 57.715907 78.933242 
L 55.888905 79.412064 
L 54.061902 78.435492 
" clip-path="url(#p0e8d95ed89)" style="fill: none; stroke: #ff00ff; stroke-opacity: 0.5; stroke-width: 0.5; stroke-linecap: square"/>
   </g>
   <g id="line2d_12">
    <path d="M 260.513189 126.792 
L 258.686186 126.792 
L 256.859184 126.792 
L 255.032181 126.792 
L 253.205179 126.792 
L 251.378176 14.707446 
L 249.551174 18.132996 
L 247.724171 16.625706 
L 245.897169 14.806591 
L 244.070166 15.000007 
L 242.243164 15.569624 
L 240.416161 14.457635 
L 238.589158 14.656955 
L 236.762156 14.991021 
L 234.935153 15.327312 
L 233.108151 16.004418 
L 231.281148 14.632418 
L 229.454146 14.842591 
L 227.627143 15.029799 
L 225.800141 14.36738 
L 223.973138 13.96683 
L 222.146136 13.648623 
L 220.319133 15.230703 
L 218.492131 15.324024 
L 216.665128 16.553456 
L 214.838125 15.802232 
L 213.011123 17.100134 
L 211.18412 14.516228 
L 209.357118 13.240228 
L 207.530115 13.263236 
L 205.703113 15.920744 
L 203.87611 14.868743 
L 202.049108 14.955084 
L 200.222105 14.54902 
L 198.395103 15.652339 
L 196.5681 15.826888 
L 194.741098 15.635697 
L 192.914095 14.513595 
L 191.087093 16.969731 
L 189.26009 15.516168 
L 187.433087 13.737292 
L 185.606085 14.102396 
L 183.779082 15.381393 
L 181.95208 16.267097 
L 180.125077 14.978408 
L 178.298075 18.880753 
L 176.471072 15.962666 
L 174.64407 14.600439 
L 172.817067 15.174802 
L 170.990065 14.788502 
L 169.163062 14.38542 
L 167.33606 15.28405 
L 165.509057 14.744153 
L 163.682054 15.919302 
L 161.855052 15.569092 
L 160.028049 16.570415 
L 158.201047 15.601177 
L 156.374044 14.58921 
L 154.547042 15.502303 
L 152.720039 15.23219 
L 150.893037 15.925746 
L 149.066034 16.700718 
L 147.239032 14.888572 
L 145.412029 16.799465 
L 143.585027 15.170939 
L 141.758024 16.595599 
L 139.931021 17.649383 
L 138.104019 15.65305 
L 136.277016 17.401113 
L 134.450014 19.034821 
L 132.623011 17.014243 
L 130.796009 17.070703 
L 128.969006 17.294185 
L 127.142004 18.317066 
L 125.315001 17.631001 
L 123.487999 18.34147 
L 121.660996 18.302413 
L 119.833994 18.986098 
L 118.006991 20.914707 
L 116.179989 20.458869 
L 114.352986 21.061478 
L 112.525983 21.838231 
L 110.698981 20.402838 
L 108.871978 16.770091 
L 107.044976 19.925166 
L 105.217973 21.415781 
L 103.390971 20.275492 
L 101.563968 23.969542 
L 99.736966 22.941996 
L 97.909963 21.829954 
L 96.082961 22.70347 
L 94.255958 26.060962 
L 92.428956 27.132924 
L 90.601953 25.84273 
L 88.77495 23.546124 
L 86.947948 23.620933 
L 85.120945 26.460221 
L 83.293943 32.108899 
L 81.46694 29.570154 
L 79.639938 29.724089 
L 77.812935 30.807865 
L 75.985933 31.567845 
L 74.15893 31.2075 
L 72.331928 31.141236 
L 70.504925 33.21036 
L 68.677923 33.921675 
L 66.85092 34.624803 
L 65.023917 37.131723 
L 63.196915 39.648373 
L 61.369912 39.035309 
L 59.54291 38.426744 
L 57.715907 43.04563 
L 55.888905 37.355465 
L 54.061902 36.085484 
" clip-path="url(#p0e8d95ed89)" style="fill: none; stroke: #ff00ff; stroke-opacity: 0.5; stroke-width: 0.5; stroke-linecap: square"/>
   </g>
   <g id="line2d_13">
    <path d="M 260.513189 126.792 
L 258.686186 126.792 
L 256.859184 126.792 
L 255.032181 126.792 
L 253.205179 126.792 
L 251.378176 126.792 
L 249.551174 126.792 
L 247.724171 126.792 
L 245.897169 126.792 
L 244.070166 126.792 
L 242.243164 126.792 
L 240.416161 125.869158 
L 238.589158 126.229288 
L 236.762156 126.710732 
L 234.935153 125.94413 
L 233.108151 126.127439 
L 231.281148 126.442765 
L 229.454146 125.834675 
L 227.627143 122.929932 
L 225.800141 122.936107 
L 223.973138 124.86861 
L 222.146136 126.177171 
L 220.319133 125.701848 
L 218.492131 121.919261 
L 216.665128 125.112239 
L 214.838125 124.093457 
L 213.011123 122.379051 
L 211.18412 124.00995 
L 209.357118 124.833812 
L 207.530115 124.725839 
L 205.703113 123.055834 
L 203.87611 124.984864 
L 202.049108 121.174667 
L 200.222105 121.951064 
L 198.395103 122.952503 
L 196.5681 123.252945 
L 194.741098 118.105287 
L 192.914095 113.767161 
L 191.087093 115.88586 
L 189.26009 113.579931 
L 187.433087 114.239508 
L 185.606085 112.077362 
L 183.779082 116.827281 
L 181.95208 113.569113 
L 180.125077 113.604503 
L 178.298075 112.110289 
L 176.471072 114.4682 
L 174.64407 113.35997 
L 172.817067 106.498366 
L 170.990065 101.31232 
L 169.163062 107.196976 
L 167.33606 102.398129 
L 165.509057 96.990594 
L 163.682054 96.900509 
L 161.855052 101.81718 
L 160.028049 97.533172 
L 158.201047 96.499894 
L 156.374044 95.993749 
L 154.547042 98.450358 
L 152.720039 87.591075 
L 150.893037 86.04197 
L 149.066034 82.321348 
L 147.239032 81.762047 
L 145.412029 85.871598 
L 143.585027 82.051734 
L 141.758024 79.715216 
L 139.931021 71.220722 
L 138.104019 74.802948 
L 136.277016 75.910317 
L 134.450014 73.888319 
L 132.623011 71.759476 
L 130.796009 70.3809 
L 128.969006 67.225302 
L 127.142004 66.834648 
L 125.315001 62.006569 
L 123.487999 60.592794 
L 121.660996 60.864563 
L 119.833994 60.659465 
L 118.006991 60.857994 
L 116.179989 59.055126 
L 114.352986 61.3781 
L 112.525983 58.992774 
L 110.698981 53.428067 
L 108.871978 52.180466 
L 107.044976 53.671592 
L 105.217973 52.179414 
L 103.390971 53.239894 
L 101.563968 56.966802 
L 99.736966 54.551335 
L 97.909963 52.371391 
L 96.082961 49.14777 
L 94.255958 49.998665 
L 92.428956 52.925584 
L 90.601953 48.768166 
L 88.77495 48.539202 
L 86.947948 53.516553 
L 85.120945 53.672245 
L 83.293943 51.692719 
L 81.46694 52.520261 
L 79.639938 53.352063 
L 77.812935 55.633484 
L 75.985933 53.605992 
L 74.15893 54.815499 
L 72.331928 52.106308 
L 70.504925 51.761514 
L 68.677923 51.496625 
L 66.85092 51.211718 
L 65.023917 59.314281 
L 63.196915 55.340143 
L 61.369912 54.681183 
L 59.54291 54.861898 
L 57.715907 53.199259 
L 55.888905 52.702812 
L 54.061902 51.02345 
" clip-path="url(#p0e8d95ed89)" style="fill: none; stroke: #00bfff; stroke-opacity: 0.5; stroke-width: 0.5; stroke-linecap: square"/>
   </g>
   <g id="line2d_14">
    <path d="M 260.513189 126.792 
L 258.686186 126.792 
L 256.859184 126.792 
L 255.032181 126.792 
L 253.205179 126.792 
L 251.378176 125.253427 
L 249.551174 125.293101 
L 247.724171 126.616039 
L 245.897169 125.236682 
L 244.070166 126.148362 
L 242.243164 123.20792 
L 240.416161 122.547209 
L 238.589158 120.709977 
L 236.762156 120.728095 
L 234.935153 117.588484 
L 233.108151 120.956384 
L 231.281148 116.108758 
L 229.454146 115.569637 
L 227.627143 107.723983 
L 225.800141 112.181075 
L 223.973138 110.191895 
L 222.146136 108.091416 
L 220.319133 102.390767 
L 218.492131 104.016985 
L 216.665128 108.126512 
L 214.838125 106.734778 
L 213.011123 97.130186 
L 211.18412 97.931375 
L 209.357118 101.476828 
L 207.530115 99.397498 
L 205.703113 97.154651 
L 203.87611 99.671784 
L 202.049108 98.542068 
L 200.222105 97.270728 
L 198.395103 96.715872 
L 196.5681 98.763916 
L 194.741098 95.681048 
L 192.914095 98.499726 
L 191.087093 95.06715 
L 189.26009 87.661592 
L 187.433087 92.708542 
L 185.606085 92.630496 
L 183.779082 93.60604 
L 181.95208 89.068311 
L 180.125077 92.791322 
L 178.298075 89.462036 
L 176.471072 87.193712 
L 174.64407 92.041749 
L 172.817067 90.998271 
L 170.990065 91.595378 
L 169.163062 91.397554 
L 167.33606 85.146405 
L 165.509057 85.645912 
L 163.682054 81.436507 
L 161.855052 83.601888 
L 160.028049 78.615082 
L 158.201047 78.788096 
L 156.374044 80.637127 
L 154.547042 75.829662 
L 152.720039 79.92144 
L 150.893037 76.684383 
L 149.066034 73.534957 
L 147.239032 75.696023 
L 145.412029 79.495283 
L 143.585027 75.12108 
L 141.758024 69.832935 
L 139.931021 72.457855 
L 138.104019 72.950562 
L 136.277016 67.613696 
L 134.450014 66.494136 
L 132.623011 65.236199 
L 130.796009 67.808636 
L 128.969006 68.791285 
L 127.142004 74.571034 
L 125.315001 72.778012 
L 123.487999 68.905698 
L 121.660996 61.480231 
L 119.833994 61.230985 
L 118.006991 63.328439 
L 116.179989 62.682392 
L 114.352986 61.017226 
L 112.525983 65.128048 
L 110.698981 66.012921 
L 108.871978 55.208435 
L 107.044976 56.024156 
L 105.217973 58.397965 
L 103.390971 62.309486 
L 101.563968 63.653642 
L 99.736966 61.254301 
L 97.909963 60.012421 
L 96.082961 57.382431 
L 94.255958 60.042132 
L 92.428956 62.325621 
L 90.601953 58.735998 
L 88.77495 58.947775 
L 86.947948 62.024994 
L 85.120945 58.035491 
L 83.293943 52.036748 
L 81.46694 56.806913 
L 79.639938 60.548072 
L 77.812935 63.771166 
L 75.985933 63.940335 
L 74.15893 61.747566 
L 72.331928 61.163841 
L 70.504925 59.943915 
L 68.677923 58.000768 
L 66.85092 54.910917 
L 65.023917 61.074639 
L 63.196915 61.065018 
L 61.369912 57.281034 
L 59.54291 59.272928 
L 57.715907 60.753615 
L 55.888905 60.274793 
L 54.061902 61.251365 
" clip-path="url(#p0e8d95ed89)" style="fill: none; stroke: #00bfff; stroke-opacity: 0.5; stroke-width: 0.5; stroke-linecap: square"/>
   </g>
   <g id="line2d_15">
    <path d="M 260.513189 126.792 
L 258.686186 126.792 
L 256.859184 126.792 
L 255.032181 126.792 
L 253.205179 126.792 
L 251.378176 124.979411 
L 249.551174 121.553861 
L 247.724171 123.061151 
L 245.897169 124.880266 
L 244.070166 124.68685 
L 242.243164 124.117234 
L 240.416161 125.229222 
L 238.589158 125.029903 
L 236.762156 124.695836 
L 234.935153 124.359545 
L 233.108151 123.682439 
L 231.281148 125.054439 
L 229.454146 124.844266 
L 227.627143 124.657058 
L 225.800141 125.319477 
L 223.973138 125.720027 
L 222.146136 126.038234 
L 220.319133 124.456154 
L 218.492131 124.362833 
L 216.665128 123.133401 
L 214.838125 123.884626 
L 213.011123 122.586723 
L 211.18412 125.170629 
L 209.357118 126.44663 
L 207.530115 126.423622 
L 205.703113 123.766113 
L 203.87611 124.818114 
L 202.049108 124.731773 
L 200.222105 125.137837 
L 198.395103 124.034518 
L 196.5681 123.859969 
L 194.741098 124.05116 
L 192.914095 125.173262 
L 191.087093 122.717127 
L 189.26009 124.170689 
L 187.433087 125.949566 
L 185.606085 125.584461 
L 183.779082 124.305464 
L 181.95208 123.41976 
L 180.125077 124.708449 
L 178.298075 120.806104 
L 176.471072 123.724191 
L 174.64407 125.086419 
L 172.817067 124.512055 
L 170.990065 124.898356 
L 169.163062 125.301437 
L 167.33606 124.402807 
L 165.509057 124.942704 
L 163.682054 123.767555 
L 161.855052 124.117765 
L 160.028049 123.116442 
L 158.201047 124.08568 
L 156.374044 125.097647 
L 154.547042 124.184555 
L 152.720039 124.454667 
L 150.893037 123.761111 
L 149.066034 122.986139 
L 147.239032 124.798285 
L 145.412029 122.887393 
L 143.585027 124.515919 
L 141.758024 123.091258 
L 139.931021 122.037474 
L 138.104019 124.033807 
L 136.277016 122.285744 
L 134.450014 120.652036 
L 132.623011 122.672614 
L 130.796009 122.616155 
L 128.969006 122.392672 
L 127.142004 121.369791 
L 125.315001 122.055856 
L 123.487999 121.345387 
L 121.660996 121.384444 
L 119.833994 120.700759 
L 118.006991 118.77215 
L 116.179989 119.227988 
L 114.352986 118.625379 
L 112.525983 117.848626 
L 110.698981 119.284019 
L 108.871978 122.916766 
L 107.044976 119.761691 
L 105.217973 118.271076 
L 103.390971 119.411365 
L 101.563968 115.717316 
L 99.736966 116.744861 
L 97.909963 117.856903 
L 96.082961 116.983387 
L 94.255958 113.625895 
L 92.428956 112.553933 
L 90.601953 113.844127 
L 88.77495 116.140733 
L 86.947948 116.065924 
L 85.120945 113.226637 
L 83.293943 107.577958 
L 81.46694 110.116704 
L 79.639938 109.962769 
L 77.812935 108.878992 
L 75.985933 108.119012 
L 74.15893 108.479357 
L 72.331928 108.545621 
L 70.504925 106.476497 
L 68.677923 105.765183 
L 66.85092 105.062054 
L 65.023917 102.555134 
L 63.196915 100.038484 
L 61.369912 100.651548 
L 59.54291 101.260113 
L 57.715907 96.641227 
L 55.888905 102.331392 
L 54.061902 103.601373 
" clip-path="url(#p0e8d95ed89)" style="fill: none; stroke: #00bfff; stroke-opacity: 0.5; stroke-width: 0.5; stroke-linecap: square"/>
   </g>
   <g id="line2d_16">
    <path d="M 260.513189 126.792 
L 258.686186 126.792 
L 256.859184 126.792 
L 255.032181 126.792 
L 253.205179 126.792 
L 251.378176 14.011911 
L 249.551174 15.140536 
L 247.724171 14.197127 
L 245.897169 14.050541 
L 244.070166 13.81112 
L 242.243164 14.981139 
L 240.416161 15.138328 
L 238.589158 15.697135 
L 236.762156 15.641969 
L 234.935153 17.056137 
L 233.108151 16.098103 
L 231.281148 17.151536 
L 229.454146 17.603998 
L 227.627143 21.249866 
L 225.800141 19.541304 
L 223.973138 19.42668 
L 222.146136 19.584584 
L 220.319133 22.1706 
L 218.492131 22.920497 
L 216.665128 20.89614 
L 214.838125 21.449237 
L 213.011123 25.654871 
L 211.18412 23.982873 
L 209.357118 22.101101 
L 207.530115 22.837871 
L 205.703113 25.027991 
L 203.87611 23.19527 
L 202.049108 24.870688 
L 200.222105 24.900314 
L 198.395103 25.119226 
L 196.5681 24.39458 
L 194.741098 27.074359 
L 192.914095 27.206807 
L 191.087093 28.463478 
L 189.26009 31.21612 
L 187.433087 28.720985 
L 185.606085 29.589417 
L 183.779082 28.107262 
L 181.95208 31.001129 
L 180.125077 29.318766 
L 178.298075 32.227381 
L 176.471072 31.224823 
L 174.64407 29.524145 
L 172.817067 32.350626 
L 170.990065 33.751506 
L 169.163062 31.721535 
L 167.33606 35.70441 
L 165.509057 37.160454 
L 163.682054 38.985333 
L 161.855052 36.507913 
L 160.028049 39.931958 
L 158.201047 39.895634 
L 156.374044 39.110683 
L 154.547042 40.198665 
L 152.720039 42.364463 
L 150.893037 44.191036 
L 149.066034 46.739376 
L 147.239032 45.601406 
L 145.412029 43.602099 
L 143.585027 45.790613 
L 141.758024 48.807054 
L 139.931021 51.11484 
L 138.104019 49.091085 
L 136.277016 51.083605 
L 134.450014 52.67536 
L 132.623011 53.130761 
L 130.796009 52.751627 
L 128.969006 53.550438 
L 127.142004 52.095033 
L 125.315001 54.073378 
L 123.487999 56.072231 
L 121.660996 58.443778 
L 119.833994 58.823121 
L 118.006991 58.700663 
L 116.179989 59.365022 
L 114.352986 59.346622 
L 112.525983 59.030374 
L 110.698981 60.111855 
L 108.871978 62.918301 
L 107.044976 63.201044 
L 105.217973 63.404039 
L 103.390971 61.366609 
L 101.563968 60.907604 
L 99.736966 62.170025 
L 97.909963 62.939952 
L 96.082961 65.182328 
L 94.255958 65.131293 
L 92.428956 63.751811 
L 90.601953 65.904093 
L 88.77495 65.144287 
L 86.947948 62.484367 
L 85.120945 64.708733 
L 83.293943 69.251049 
L 81.46694 66.538898 
L 79.639938 65.065889 
L 77.812935 63.59231 
L 75.985933 64.465077 
L 74.15893 64.672717 
L 72.331928 65.748267 
L 70.504925 66.959549 
L 68.677923 67.932665 
L 66.85092 69.291961 
L 65.023917 65.372173 
L 63.196915 67.538976 
L 61.369912 68.815602 
L 59.54291 67.888544 
L 57.715907 69.488823 
L 55.888905 67.917192 
L 54.061902 67.728128 
" clip-path="url(#p0e8d95ed89)" style="fill: none; stroke: #ff00ff; stroke-width: 3; stroke-linecap: square"/>
   </g>
   <g id="line2d_17">
    <path d="M 260.513189 126.792 
L 258.686186 126.792 
L 256.859184 126.792 
L 255.032181 126.792 
L 253.205179 126.792 
L 251.378176 125.674946 
L 249.551174 124.546321 
L 247.724171 125.48973 
L 245.897169 125.636316 
L 244.070166 125.875737 
L 242.243164 124.705718 
L 240.416161 124.54853 
L 238.589158 123.989722 
L 236.762156 124.044888 
L 234.935153 122.63072 
L 233.108151 123.588754 
L 231.281148 122.535321 
L 229.454146 122.082859 
L 227.627143 118.436991 
L 225.800141 120.145553 
L 223.973138 120.260177 
L 222.146136 120.102274 
L 220.319133 117.516257 
L 218.492131 116.76636 
L 216.665128 118.790717 
L 214.838125 118.23762 
L 213.011123 114.031987 
L 211.18412 115.703984 
L 209.357118 117.585757 
L 207.530115 116.848986 
L 205.703113 114.658866 
L 203.87611 116.491587 
L 202.049108 114.81617 
L 200.222105 114.786543 
L 198.395103 114.567631 
L 196.5681 115.292277 
L 194.741098 112.612498 
L 192.914095 112.48005 
L 191.087093 111.223379 
L 189.26009 108.470737 
L 187.433087 110.965872 
L 185.606085 110.09744 
L 183.779082 111.579595 
L 181.95208 108.685728 
L 180.125077 110.368092 
L 178.298075 107.459476 
L 176.471072 108.462034 
L 174.64407 110.162713 
L 172.817067 107.336231 
L 170.990065 105.935351 
L 169.163062 107.965323 
L 167.33606 103.982447 
L 165.509057 102.526403 
L 163.682054 100.701524 
L 161.855052 103.178944 
L 160.028049 99.754899 
L 158.201047 99.791223 
L 156.374044 100.576175 
L 154.547042 99.488192 
L 152.720039 97.322394 
L 150.893037 95.495822 
L 149.066034 92.947481 
L 147.239032 94.085452 
L 145.412029 96.084758 
L 143.585027 93.896244 
L 141.758024 90.879803 
L 139.931021 88.572017 
L 138.104019 90.595772 
L 136.277016 88.603253 
L 134.450014 87.011497 
L 132.623011 86.556096 
L 130.796009 86.93523 
L 128.969006 86.136419 
L 127.142004 87.591825 
L 125.315001 85.613479 
L 123.487999 83.614626 
L 121.660996 81.243079 
L 119.833994 80.863736 
L 118.006991 80.986194 
L 116.179989 80.321835 
L 114.352986 80.340235 
L 112.525983 80.656483 
L 110.698981 79.575003 
L 108.871978 76.768556 
L 107.044976 76.485813 
L 105.217973 76.282818 
L 103.390971 78.320248 
L 101.563968 78.779253 
L 99.736966 77.516832 
L 97.909963 76.746905 
L 96.082961 74.504529 
L 94.255958 74.555564 
L 92.428956 75.935046 
L 90.601953 73.782764 
L 88.77495 74.54257 
L 86.947948 77.20249 
L 85.120945 74.978124 
L 83.293943 70.435809 
L 81.46694 73.147959 
L 79.639938 74.620968 
L 77.812935 76.094547 
L 75.985933 75.22178 
L 74.15893 75.01414 
L 72.331928 73.93859 
L 70.504925 72.727309 
L 68.677923 71.754192 
L 66.85092 70.394896 
L 65.023917 74.314685 
L 63.196915 72.147881 
L 61.369912 70.871255 
L 59.54291 71.798313 
L 57.715907 70.198034 
L 55.888905 71.769666 
L 54.061902 71.958729 
" clip-path="url(#p0e8d95ed89)" style="fill: none; stroke: #00bfff; stroke-width: 3; stroke-linecap: square"/>
   </g>
   <g id="line2d_18">
    <path d="M 260.513189 126.792 
L 258.686186 126.792 
L 256.859184 126.792 
L 255.032181 126.792 
L 253.205179 126.792 
L 251.378176 126.792 
L 249.551174 126.792 
L 247.724171 126.792 
L 245.897169 126.792 
L 244.070166 126.792 
L 242.243164 126.792 
L 240.416161 125.869158 
L 238.589158 126.229288 
L 236.762156 126.710732 
L 234.935153 125.94413 
L 233.108151 126.127439 
L 231.281148 126.442765 
L 229.454146 125.834675 
L 227.627143 122.929932 
L 225.800141 122.936107 
L 223.973138 124.86861 
L 222.146136 126.177171 
L 220.319133 125.701848 
L 218.492131 121.919261 
L 216.665128 125.112239 
L 214.838125 124.093457 
L 213.011123 122.379051 
L 211.18412 124.00995 
L 209.357118 124.833812 
L 207.530115 124.725839 
L 205.703113 123.055834 
L 203.87611 124.984864 
L 202.049108 121.174667 
L 200.222105 121.951064 
L 198.395103 122.952503 
L 196.5681 123.252945 
L 194.741098 118.105287 
L 192.914095 113.767161 
L 191.087093 115.88586 
L 189.26009 113.579931 
L 187.433087 114.239508 
L 185.606085 112.077362 
L 183.779082 116.827281 
L 181.95208 113.569113 
L 180.125077 113.604503 
L 178.298075 112.110289 
L 176.471072 114.4682 
L 174.64407 113.35997 
L 172.817067 106.498366 
L 170.990065 101.31232 
L 169.163062 107.196976 
L 167.33606 102.398129 
L 165.509057 96.990594 
L 163.682054 96.900509 
L 161.855052 101.81718 
L 160.028049 97.533172 
L 158.201047 96.499894 
L 156.374044 95.993749 
L 154.547042 98.450358 
L 152.720039 87.591075 
L 150.893037 86.04197 
L 149.066034 82.321348 
L 147.239032 81.762047 
L 145.412029 85.871598 
L 143.585027 82.051734 
L 141.758024 79.715216 
L 139.931021 71.220722 
L 138.104019 74.802948 
L 136.277016 75.910317 
L 134.450014 73.888319 
L 132.623011 71.759476 
L 130.796009 70.3809 
L 128.969006 67.225302 
L 127.142004 66.834648 
L 125.315001 62.006569 
L 123.487999 60.592794 
L 121.660996 60.864563 
L 119.833994 60.659465 
L 118.006991 60.857994 
L 116.179989 59.055126 
L 114.352986 61.3781 
L 112.525983 58.992774 
L 110.698981 53.428067 
L 108.871978 52.180466 
L 107.044976 53.671592 
L 105.217973 52.179414 
L 103.390971 53.239894 
L 101.563968 56.966802 
L 99.736966 54.551335 
L 97.909963 52.371391 
L 96.082961 49.14777 
L 94.255958 49.998665 
L 92.428956 52.925584 
L 90.601953 48.768166 
L 88.77495 48.539202 
L 86.947948 53.516553 
L 85.120945 53.672245 
L 83.293943 51.692719 
L 81.46694 52.520261 
L 79.639938 53.352063 
L 77.812935 55.633484 
L 75.985933 53.605992 
L 74.15893 54.815499 
L 72.331928 52.106308 
L 70.504925 51.761514 
L 68.677923 51.496625 
L 66.85092 51.211718 
L 65.023917 59.314281 
L 63.196915 55.340143 
L 61.369912 54.681183 
L 59.54291 54.861898 
L 57.715907 53.199259 
L 55.888905 52.702812 
L 54.061902 51.02345 
" clip-path="url(#p0e8d95ed89)" style="fill: none; stroke: #ff8c00; stroke-opacity: 0.5; stroke-width: 0.5; stroke-linecap: square"/>
   </g>
   <g id="line2d_19">
    <path d="M 260.513189 126.792 
L 258.686186 126.792 
L 256.859184 126.792 
L 255.032181 126.792 
L 253.205179 126.792 
L 251.378176 125.253427 
L 249.551174 125.293101 
L 247.724171 126.616039 
L 245.897169 125.236682 
L 244.070166 126.148362 
L 242.243164 123.20792 
L 240.416161 122.547209 
L 238.589158 120.709977 
L 236.762156 120.728095 
L 234.935153 117.588484 
L 233.108151 120.956384 
L 231.281148 116.108758 
L 229.454146 115.569637 
L 227.627143 107.723983 
L 225.800141 112.181075 
L 223.973138 110.191895 
L 222.146136 108.091416 
L 220.319133 102.390767 
L 218.492131 104.016985 
L 216.665128 108.126512 
L 214.838125 106.734778 
L 213.011123 97.130186 
L 211.18412 97.931375 
L 209.357118 101.476828 
L 207.530115 99.397498 
L 205.703113 97.154651 
L 203.87611 99.671784 
L 202.049108 98.542068 
L 200.222105 97.270728 
L 198.395103 96.715872 
L 196.5681 98.763916 
L 194.741098 95.681048 
L 192.914095 98.499726 
L 191.087093 95.06715 
L 189.26009 87.661592 
L 187.433087 92.708542 
L 185.606085 92.630496 
L 183.779082 93.60604 
L 181.95208 89.068311 
L 180.125077 92.791322 
L 178.298075 89.462036 
L 176.471072 87.193712 
L 174.64407 92.041749 
L 172.817067 90.998271 
L 170.990065 91.595378 
L 169.163062 91.397554 
L 167.33606 85.146405 
L 165.509057 85.645912 
L 163.682054 81.436507 
L 161.855052 83.601888 
L 160.028049 78.615082 
L 158.201047 78.788096 
L 156.374044 80.637127 
L 154.547042 75.829662 
L 152.720039 79.92144 
L 150.893037 76.684383 
L 149.066034 73.534957 
L 147.239032 75.696023 
L 145.412029 79.495283 
L 143.585027 75.12108 
L 141.758024 69.832935 
L 139.931021 72.457855 
L 138.104019 72.950562 
L 136.277016 67.613696 
L 134.450014 66.494136 
L 132.623011 65.236199 
L 130.796009 67.808636 
L 128.969006 68.791285 
L 127.142004 74.571034 
L 125.315001 72.778012 
L 123.487999 68.905698 
L 121.660996 61.480231 
L 119.833994 61.230985 
L 118.006991 63.328439 
L 116.179989 62.682392 
L 114.352986 61.017226 
L 112.525983 65.128048 
L 110.698981 66.012921 
L 108.871978 55.208435 
L 107.044976 56.024156 
L 105.217973 58.397965 
L 103.390971 62.309486 
L 101.563968 63.653642 
L 99.736966 61.254301 
L 97.909963 60.012421 
L 96.082961 57.382431 
L 94.255958 60.042132 
L 92.428956 62.325621 
L 90.601953 58.735998 
L 88.77495 58.947775 
L 86.947948 62.024994 
L 85.120945 58.035491 
L 83.293943 52.036748 
L 81.46694 56.806913 
L 79.639938 60.548072 
L 77.812935 63.771166 
L 75.985933 63.940335 
L 74.15893 61.747566 
L 72.331928 61.163841 
L 70.504925 59.943915 
L 68.677923 58.000768 
L 66.85092 54.910917 
L 65.023917 61.074639 
L 63.196915 61.065018 
L 61.369912 57.281034 
L 59.54291 59.272928 
L 57.715907 60.753615 
L 55.888905 60.274793 
L 54.061902 61.251365 
" clip-path="url(#p0e8d95ed89)" style="fill: none; stroke: #ff8c00; stroke-opacity: 0.5; stroke-width: 0.5; stroke-linecap: square"/>
   </g>
   <g id="line2d_20">
    <path d="M 260.513189 126.792 
L 258.686186 126.792 
L 256.859184 126.792 
L 255.032181 126.792 
L 253.205179 126.792 
L 251.378176 124.979411 
L 249.551174 121.553861 
L 247.724171 123.061151 
L 245.897169 124.880266 
L 244.070166 124.68685 
L 242.243164 124.117234 
L 240.416161 125.229222 
L 238.589158 125.029903 
L 236.762156 124.695836 
L 234.935153 124.359545 
L 233.108151 123.682439 
L 231.281148 125.054439 
L 229.454146 124.844266 
L 227.627143 124.657058 
L 225.800141 125.319477 
L 223.973138 125.720027 
L 222.146136 126.038234 
L 220.319133 124.456154 
L 218.492131 124.362833 
L 216.665128 123.133401 
L 214.838125 123.884626 
L 213.011123 122.586723 
L 211.18412 125.170629 
L 209.357118 126.44663 
L 207.530115 126.423622 
L 205.703113 123.766113 
L 203.87611 124.818114 
L 202.049108 124.731773 
L 200.222105 125.137837 
L 198.395103 124.034518 
L 196.5681 123.859969 
L 194.741098 124.05116 
L 192.914095 125.173262 
L 191.087093 122.717127 
L 189.26009 124.170689 
L 187.433087 125.949566 
L 185.606085 125.584461 
L 183.779082 124.305464 
L 181.95208 123.41976 
L 180.125077 124.708449 
L 178.298075 120.806104 
L 176.471072 123.724191 
L 174.64407 125.086419 
L 172.817067 124.512055 
L 170.990065 124.898356 
L 169.163062 125.301437 
L 167.33606 124.402807 
L 165.509057 124.942704 
L 163.682054 123.767555 
L 161.855052 124.117765 
L 160.028049 123.116442 
L 158.201047 124.08568 
L 156.374044 125.097647 
L 154.547042 124.184555 
L 152.720039 124.454667 
L 150.893037 123.761111 
L 149.066034 122.986139 
L 147.239032 124.798285 
L 145.412029 122.887393 
L 143.585027 124.515919 
L 141.758024 123.091258 
L 139.931021 122.037474 
L 138.104019 124.033807 
L 136.277016 122.285744 
L 134.450014 120.652036 
L 132.623011 122.672614 
L 130.796009 122.616155 
L 128.969006 122.392672 
L 127.142004 121.369791 
L 125.315001 122.055856 
L 123.487999 121.345387 
L 121.660996 121.384444 
L 119.833994 120.700759 
L 118.006991 118.77215 
L 116.179989 119.227988 
L 114.352986 118.625379 
L 112.525983 117.848626 
L 110.698981 119.284019 
L 108.871978 122.916766 
L 107.044976 119.761691 
L 105.217973 118.271076 
L 103.390971 119.411365 
L 101.563968 115.717316 
L 99.736966 116.744861 
L 97.909963 117.856903 
L 96.082961 116.983387 
L 94.255958 113.625895 
L 92.428956 112.553933 
L 90.601953 113.844127 
L 88.77495 116.140733 
L 86.947948 116.065924 
L 85.120945 113.226637 
L 83.293943 107.577958 
L 81.46694 110.116704 
L 79.639938 109.962769 
L 77.812935 108.878992 
L 75.985933 108.119012 
L 74.15893 108.479357 
L 72.331928 108.545621 
L 70.504925 106.476497 
L 68.677923 105.765183 
L 66.85092 105.062054 
L 65.023917 102.555134 
L 63.196915 100.038484 
L 61.369912 100.651548 
L 59.54291 101.260113 
L 57.715907 96.641227 
L 55.888905 102.331392 
L 54.061902 103.601373 
" clip-path="url(#p0e8d95ed89)" style="fill: none; stroke: #ff8c00; stroke-opacity: 0.5; stroke-width: 0.5; stroke-linecap: square"/>
   </g>
   <g id="line2d_21">
    <path d="M 260.513189 126.792 
L 258.686186 126.792 
L 256.859184 126.792 
L 255.032181 126.792 
L 253.205179 126.792 
L 251.378176 12.894857 
L 249.551174 12.894857 
L 247.724171 12.894857 
L 245.897169 12.894857 
L 244.070166 12.894857 
L 242.243164 12.894857 
L 240.416161 13.817699 
L 238.589158 13.457569 
L 236.762156 12.976125 
L 234.935153 13.742727 
L 233.108151 13.559418 
L 231.281148 13.244092 
L 229.454146 13.852182 
L 227.627143 16.756926 
L 225.800141 16.75075 
L 223.973138 14.818247 
L 222.146136 13.509687 
L 220.319133 13.985009 
L 218.492131 17.767596 
L 216.665128 14.574618 
L 214.838125 15.593401 
L 213.011123 17.307806 
L 211.18412 15.676908 
L 209.357118 14.853045 
L 207.530115 14.961018 
L 205.703113 16.631023 
L 203.87611 14.701993 
L 202.049108 18.51219 
L 200.222105 17.735793 
L 198.395103 16.734355 
L 196.5681 16.433912 
L 194.741098 21.58157 
L 192.914095 25.919696 
L 191.087093 23.800997 
L 189.26009 26.106926 
L 187.433087 25.447349 
L 185.606085 27.609495 
L 183.779082 22.859576 
L 181.95208 26.117744 
L 180.125077 26.082354 
L 178.298075 27.576569 
L 176.471072 25.218658 
L 174.64407 26.326887 
L 172.817067 33.188491 
L 170.990065 38.374538 
L 169.163062 32.489881 
L 167.33606 37.288728 
L 165.509057 42.696263 
L 163.682054 42.786348 
L 161.855052 37.869677 
L 160.028049 42.153686 
L 158.201047 43.186964 
L 156.374044 43.693108 
L 154.547042 41.236499 
L 152.720039 52.095782 
L 150.893037 53.644887 
L 149.066034 57.365509 
L 147.239032 57.92481 
L 145.412029 53.815259 
L 143.585027 57.635123 
L 141.758024 59.971641 
L 139.931021 68.466135 
L 138.104019 64.883909 
L 136.277016 63.77654 
L 134.450014 65.798538 
L 132.623011 67.927381 
L 130.796009 69.305957 
L 128.969006 72.461555 
L 127.142004 72.852209 
L 125.315001 77.680289 
L 123.487999 79.094063 
L 121.660996 78.822294 
L 119.833994 79.027392 
L 118.006991 78.828863 
L 116.179989 80.631732 
L 114.352986 78.308757 
L 112.525983 80.694083 
L 110.698981 86.25879 
L 108.871978 87.506391 
L 107.044976 86.015265 
L 105.217973 87.507443 
L 103.390971 86.446963 
L 101.563968 82.720055 
L 99.736966 85.135522 
L 97.909963 87.315466 
L 96.082961 90.539088 
L 94.255958 89.688192 
L 92.428956 86.761273 
L 90.601953 90.918691 
L 88.77495 91.147655 
L 86.947948 86.170305 
L 85.120945 86.014613 
L 83.293943 87.994138 
L 81.46694 87.166596 
L 79.639938 86.334794 
L 77.812935 84.053373 
L 75.985933 86.080865 
L 74.15893 84.871358 
L 72.331928 87.580549 
L 70.504925 87.925343 
L 68.677923 88.190232 
L 66.85092 88.47514 
L 65.023917 80.372576 
L 63.196915 84.346715 
L 61.369912 85.005674 
L 59.54291 84.824959 
L 57.715907 86.487598 
L 55.888905 86.984046 
L 54.061902 88.663407 
" clip-path="url(#p0e8d95ed89)" style="fill: none; stroke: #ff00ff; stroke-opacity: 0.5; stroke-width: 0.5; stroke-linecap: square"/>
   </g>
   <g id="line2d_22">
    <path d="M 260.513189 126.792 
L 258.686186 126.792 
L 256.859184 126.792 
L 255.032181 126.792 
L 253.205179 126.792 
L 251.378176 14.43343 
L 249.551174 14.393757 
L 247.724171 13.070818 
L 245.897169 14.450175 
L 244.070166 13.538495 
L 242.243164 16.478937 
L 240.416161 17.139648 
L 238.589158 18.97688 
L 236.762156 18.958762 
L 234.935153 22.098373 
L 233.108151 18.730473 
L 231.281148 23.578099 
L 229.454146 24.11722 
L 227.627143 31.962874 
L 225.800141 27.505782 
L 223.973138 29.494962 
L 222.146136 31.595441 
L 220.319133 37.29609 
L 218.492131 35.669872 
L 216.665128 31.560345 
L 214.838125 32.952079 
L 213.011123 42.556671 
L 211.18412 41.755483 
L 209.357118 38.210029 
L 207.530115 40.28936 
L 205.703113 42.532206 
L 203.87611 40.015073 
L 202.049108 41.144789 
L 200.222105 42.416129 
L 198.395103 42.970986 
L 196.5681 40.922941 
L 194.741098 44.005809 
L 192.914095 41.187131 
L 191.087093 44.619707 
L 189.26009 52.025265 
L 187.433087 46.978315 
L 185.606085 47.056361 
L 183.779082 46.080817 
L 181.95208 50.618546 
L 180.125077 46.895535 
L 178.298075 50.224821 
L 176.471072 52.493145 
L 174.64407 47.645108 
L 172.817067 48.688586 
L 170.990065 48.091479 
L 169.163062 48.289303 
L 167.33606 54.540452 
L 165.509057 54.040945 
L 163.682054 58.25035 
L 161.855052 56.08497 
L 160.028049 61.071775 
L 158.201047 60.898761 
L 156.374044 59.04973 
L 154.547042 63.857195 
L 152.720039 59.765417 
L 150.893037 63.002474 
L 149.066034 66.151901 
L 147.239032 63.990834 
L 145.412029 60.191574 
L 143.585027 64.565777 
L 141.758024 69.853922 
L 139.931021 67.229002 
L 138.104019 66.736295 
L 136.277016 72.073161 
L 134.450014 73.192721 
L 132.623011 74.450659 
L 130.796009 71.878221 
L 128.969006 70.895573 
L 127.142004 65.115823 
L 125.315001 66.908845 
L 123.487999 70.781159 
L 121.660996 78.206627 
L 119.833994 78.455872 
L 118.006991 76.358418 
L 116.179989 77.004466 
L 114.352986 78.669631 
L 112.525983 74.558809 
L 110.698981 73.673936 
L 108.871978 84.478422 
L 107.044976 83.662701 
L 105.217973 81.288892 
L 103.390971 77.377371 
L 101.563968 76.033216 
L 99.736966 78.432557 
L 97.909963 79.674436 
L 96.082961 82.304426 
L 94.255958 79.644725 
L 92.428956 77.361236 
L 90.601953 80.950859 
L 88.77495 80.739083 
L 86.947948 77.661864 
L 85.120945 81.651366 
L 83.293943 87.650109 
L 81.46694 82.879944 
L 79.639938 79.138785 
L 77.812935 75.915691 
L 75.985933 75.746523 
L 74.15893 77.939292 
L 72.331928 78.523016 
L 70.504925 79.742942 
L 68.677923 81.686089 
L 66.85092 84.77594 
L 65.023917 78.612218 
L 63.196915 78.621839 
L 61.369912 82.405823 
L 59.54291 80.413929 
L 57.715907 78.933242 
L 55.888905 79.412064 
L 54.061902 78.435492 
" clip-path="url(#p0e8d95ed89)" style="fill: none; stroke: #ff00ff; stroke-opacity: 0.5; stroke-width: 0.5; stroke-linecap: square"/>
   </g>
   <g id="line2d_23">
    <path d="M 260.513189 126.792 
L 258.686186 126.792 
L 256.859184 126.792 
L 255.032181 126.792 
L 253.205179 126.792 
L 251.378176 14.707446 
L 249.551174 18.132996 
L 247.724171 16.625706 
L 245.897169 14.806591 
L 244.070166 15.000007 
L 242.243164 15.569624 
L 240.416161 14.457635 
L 238.589158 14.656955 
L 236.762156 14.991021 
L 234.935153 15.327312 
L 233.108151 16.004418 
L 231.281148 14.632418 
L 229.454146 14.842591 
L 227.627143 15.029799 
L 225.800141 14.36738 
L 223.973138 13.96683 
L 222.146136 13.648623 
L 220.319133 15.230703 
L 218.492131 15.324024 
L 216.665128 16.553456 
L 214.838125 15.802232 
L 213.011123 17.100134 
L 211.18412 14.516228 
L 209.357118 13.240228 
L 207.530115 13.263236 
L 205.703113 15.920744 
L 203.87611 14.868743 
L 202.049108 14.955084 
L 200.222105 14.54902 
L 198.395103 15.652339 
L 196.5681 15.826888 
L 194.741098 15.635697 
L 192.914095 14.513595 
L 191.087093 16.969731 
L 189.26009 15.516168 
L 187.433087 13.737292 
L 185.606085 14.102396 
L 183.779082 15.381393 
L 181.95208 16.267097 
L 180.125077 14.978408 
L 178.298075 18.880753 
L 176.471072 15.962666 
L 174.64407 14.600439 
L 172.817067 15.174802 
L 170.990065 14.788502 
L 169.163062 14.38542 
L 167.33606 15.28405 
L 165.509057 14.744153 
L 163.682054 15.919302 
L 161.855052 15.569092 
L 160.028049 16.570415 
L 158.201047 15.601177 
L 156.374044 14.58921 
L 154.547042 15.502303 
L 152.720039 15.23219 
L 150.893037 15.925746 
L 149.066034 16.700718 
L 147.239032 14.888572 
L 145.412029 16.799465 
L 143.585027 15.170939 
L 141.758024 16.595599 
L 139.931021 17.649383 
L 138.104019 15.65305 
L 136.277016 17.401113 
L 134.450014 19.034821 
L 132.623011 17.014243 
L 130.796009 17.070703 
L 128.969006 17.294185 
L 127.142004 18.317066 
L 125.315001 17.631001 
L 123.487999 18.34147 
L 121.660996 18.302413 
L 119.833994 18.986098 
L 118.006991 20.914707 
L 116.179989 20.458869 
L 114.352986 21.061478 
L 112.525983 21.838231 
L 110.698981 20.402838 
L 108.871978 16.770091 
L 107.044976 19.925166 
L 105.217973 21.415781 
L 103.390971 20.275492 
L 101.563968 23.969542 
L 99.736966 22.941996 
L 97.909963 21.829954 
L 96.082961 22.70347 
L 94.255958 26.060962 
L 92.428956 27.132924 
L 90.601953 25.84273 
L 88.77495 23.546124 
L 86.947948 23.620933 
L 85.120945 26.460221 
L 83.293943 32.108899 
L 81.46694 29.570154 
L 79.639938 29.724089 
L 77.812935 30.807865 
L 75.985933 31.567845 
L 74.15893 31.2075 
L 72.331928 31.141236 
L 70.504925 33.21036 
L 68.677923 33.921675 
L 66.85092 34.624803 
L 65.023917 37.131723 
L 63.196915 39.648373 
L 61.369912 39.035309 
L 59.54291 38.426744 
L 57.715907 43.04563 
L 55.888905 37.355465 
L 54.061902 36.085484 
" clip-path="url(#p0e8d95ed89)" style="fill: none; stroke: #ff00ff; stroke-opacity: 0.5; stroke-width: 0.5; stroke-linecap: square"/>
   </g>
   <g id="line2d_24">
    <path d="M 260.513189 126.792 
L 258.686186 126.792 
L 256.859184 126.792 
L 255.032181 126.792 
L 253.205179 126.792 
L 251.378176 125.674946 
L 249.551174 124.546321 
L 247.724171 125.48973 
L 245.897169 125.636316 
L 244.070166 125.875737 
L 242.243164 124.705718 
L 240.416161 124.54853 
L 238.589158 123.989722 
L 236.762156 124.044888 
L 234.935153 122.63072 
L 233.108151 123.588754 
L 231.281148 122.535321 
L 229.454146 122.082859 
L 227.627143 118.436991 
L 225.800141 120.145553 
L 223.973138 120.260177 
L 222.146136 120.102274 
L 220.319133 117.516257 
L 218.492131 116.76636 
L 216.665128 118.790717 
L 214.838125 118.23762 
L 213.011123 114.031987 
L 211.18412 115.703984 
L 209.357118 117.585757 
L 207.530115 116.848986 
L 205.703113 114.658866 
L 203.87611 116.491587 
L 202.049108 114.81617 
L 200.222105 114.786543 
L 198.395103 114.567631 
L 196.5681 115.292277 
L 194.741098 112.612498 
L 192.914095 112.48005 
L 191.087093 111.223379 
L 189.26009 108.470737 
L 187.433087 110.965872 
L 185.606085 110.09744 
L 183.779082 111.579595 
L 181.95208 108.685728 
L 180.125077 110.368092 
L 178.298075 107.459476 
L 176.471072 108.462034 
L 174.64407 110.162713 
L 172.817067 107.336231 
L 170.990065 105.935351 
L 169.163062 107.965323 
L 167.33606 103.982447 
L 165.509057 102.526403 
L 163.682054 100.701524 
L 161.855052 103.178944 
L 160.028049 99.754899 
L 158.201047 99.791223 
L 156.374044 100.576175 
L 154.547042 99.488192 
L 152.720039 97.322394 
L 150.893037 95.495822 
L 149.066034 92.947481 
L 147.239032 94.085452 
L 145.412029 96.084758 
L 143.585027 93.896244 
L 141.758024 90.879803 
L 139.931021 88.572017 
L 138.104019 90.595772 
L 136.277016 88.603253 
L 134.450014 87.011497 
L 132.623011 86.556096 
L 130.796009 86.93523 
L 128.969006 86.136419 
L 127.142004 87.591825 
L 125.315001 85.613479 
L 123.487999 83.614626 
L 121.660996 81.243079 
L 119.833994 80.863736 
L 118.006991 80.986194 
L 116.179989 80.321835 
L 114.352986 80.340235 
L 112.525983 80.656483 
L 110.698981 79.575003 
L 108.871978 76.768556 
L 107.044976 76.485813 
L 105.217973 76.282818 
L 103.390971 78.320248 
L 101.563968 78.779253 
L 99.736966 77.516832 
L 97.909963 76.746905 
L 96.082961 74.504529 
L 94.255958 74.555564 
L 92.428956 75.935046 
L 90.601953 73.782764 
L 88.77495 74.54257 
L 86.947948 77.20249 
L 85.120945 74.978124 
L 83.293943 70.435809 
L 81.46694 73.147959 
L 79.639938 74.620968 
L 77.812935 76.094547 
L 75.985933 75.22178 
L 74.15893 75.01414 
L 72.331928 73.93859 
L 70.504925 72.727309 
L 68.677923 71.754192 
L 66.85092 70.394896 
L 65.023917 74.314685 
L 63.196915 72.147881 
L 61.369912 70.871255 
L 59.54291 71.798313 
L 57.715907 70.198034 
L 55.888905 71.769666 
L 54.061902 71.958729 
" clip-path="url(#p0e8d95ed89)" style="fill: none; stroke: #ff8c00; stroke-width: 4; stroke-linecap: square"/>
   </g>
   <g id="line2d_25">
    <path d="M 260.513189 126.792 
L 258.686186 126.792 
L 256.859184 126.792 
L 255.032181 126.792 
L 253.205179 126.792 
L 251.378176 14.011911 
L 249.551174 15.140536 
L 247.724171 14.197127 
L 245.897169 14.050541 
L 244.070166 13.81112 
L 242.243164 14.981139 
L 240.416161 15.138328 
L 238.589158 15.697135 
L 236.762156 15.641969 
L 234.935153 17.056137 
L 233.108151 16.098103 
L 231.281148 17.151536 
L 229.454146 17.603998 
L 227.627143 21.249866 
L 225.800141 19.541304 
L 223.973138 19.42668 
L 222.146136 19.584584 
L 220.319133 22.1706 
L 218.492131 22.920497 
L 216.665128 20.89614 
L 214.838125 21.449237 
L 213.011123 25.654871 
L 211.18412 23.982873 
L 209.357118 22.101101 
L 207.530115 22.837871 
L 205.703113 25.027991 
L 203.87611 23.19527 
L 202.049108 24.870688 
L 200.222105 24.900314 
L 198.395103 25.119226 
L 196.5681 24.39458 
L 194.741098 27.074359 
L 192.914095 27.206807 
L 191.087093 28.463478 
L 189.26009 31.21612 
L 187.433087 28.720985 
L 185.606085 29.589417 
L 183.779082 28.107262 
L 181.95208 31.001129 
L 180.125077 29.318766 
L 178.298075 32.227381 
L 176.471072 31.224823 
L 174.64407 29.524145 
L 172.817067 32.350626 
L 170.990065 33.751506 
L 169.163062 31.721535 
L 167.33606 35.70441 
L 165.509057 37.160454 
L 163.682054 38.985333 
L 161.855052 36.507913 
L 160.028049 39.931958 
L 158.201047 39.895634 
L 156.374044 39.110683 
L 154.547042 40.198665 
L 152.720039 42.364463 
L 150.893037 44.191036 
L 149.066034 46.739376 
L 147.239032 45.601406 
L 145.412029 43.602099 
L 143.585027 45.790613 
L 141.758024 48.807054 
L 139.931021 51.11484 
L 138.104019 49.091085 
L 136.277016 51.083605 
L 134.450014 52.67536 
L 132.623011 53.130761 
L 130.796009 52.751627 
L 128.969006 53.550438 
L 127.142004 52.095033 
L 125.315001 54.073378 
L 123.487999 56.072231 
L 121.660996 58.443778 
L 119.833994 58.823121 
L 118.006991 58.700663 
L 116.179989 59.365022 
L 114.352986 59.346622 
L 112.525983 59.030374 
L 110.698981 60.111855 
L 108.871978 62.918301 
L 107.044976 63.201044 
L 105.217973 63.404039 
L 103.390971 61.366609 
L 101.563968 60.907604 
L 99.736966 62.170025 
L 97.909963 62.939952 
L 96.082961 65.182328 
L 94.255958 65.131293 
L 92.428956 63.751811 
L 90.601953 65.904093 
L 88.77495 65.144287 
L 86.947948 62.484367 
L 85.120945 64.708733 
L 83.293943 69.251049 
L 81.46694 66.538898 
L 79.639938 65.065889 
L 77.812935 63.59231 
L 75.985933 64.465077 
L 74.15893 64.672717 
L 72.331928 65.748267 
L 70.504925 66.959549 
L 68.677923 67.932665 
L 66.85092 69.291961 
L 65.023917 65.372173 
L 63.196915 67.538976 
L 61.369912 68.815602 
L 59.54291 67.888544 
L 57.715907 69.488823 
L 55.888905 67.917192 
L 54.061902 67.728128 
" clip-path="url(#p0e8d95ed89)" style="fill: none; stroke: #ff00ff; stroke-width: 4; stroke-linecap: square"/>
   </g>
   <g id="line2d_26">
    <path d="M 251.378176 126.792 
L 251.378176 7.2 
" clip-path="url(#p0e8d95ed89)" style="fill: none; stroke-dasharray: 1.5,2.475; stroke-dashoffset: 0; stroke: #000000; stroke-width: 1.5"/>
   </g>
   <g id="patch_3">
    <path d="M 53.94375 126.792 
L 53.94375 7.2 
" style="fill: none; stroke: #000000; stroke-linejoin: miter; stroke-linecap: square"/>
   </g>
   <g id="patch_4">
    <path d="M 260.40375 126.792 
L 260.40375 7.2 
" style="fill: none"/>
   </g>
   <g id="patch_5">
    <path d="M 53.94375 126.792 
L 260.40375 126.792 
" style="fill: none; stroke: #000000; stroke-linejoin: miter; stroke-linecap: square"/>
   </g>
   <g id="patch_6">
    <path d="M 53.94375 7.2 
L 260.40375 7.2 
" style="fill: none"/>
   </g>
   <g id="legend_1">
    <g id="patch_7">
     <path d="M 60.94375 121.792 
L 119.44375 121.792 
Q 121.44375 121.792 121.44375 119.792 
L 121.44375 91.413875 
Q 121.44375 89.413875 119.44375 89.413875 
L 60.94375 89.413875 
Q 58.94375 89.413875 58.94375 91.413875 
L 58.94375 119.792 
Q 58.94375 121.792 60.94375 121.792 
z
" style="fill: #ffffff; opacity: 0.8; stroke: #cccccc; stroke-linejoin: miter"/>
    </g>
    <g id="line2d_27">
     <path d="M 62.94375 97.512313 
L 72.94375 97.512313 
L 82.94375 97.512313 
" style="fill: none; stroke: #ff00ff; stroke-width: 4; stroke-linecap: square"/>
    </g>
    <g id="text_10">
     <!-- WT -->
     <g transform="translate(90.94375 101.012313) scale(0.1 -0.1)">
      <defs>
       <path id="DejaVuSans-57" d="M 213 4666 
L 850 4666 
L 1831 722 
L 2809 4666 
L 3519 4666 
L 4500 722 
L 5478 4666 
L 6119 4666 
L 4947 0 
L 4153 0 
L 3169 4050 
L 2175 0 
L 1381 0 
L 213 4666 
z
" transform="scale(0.015625)"/>
       <path id="DejaVuSans-54" d="M -19 4666 
L 3928 4666 
L 3928 4134 
L 2272 4134 
L 2272 0 
L 1638 0 
L 1638 4134 
L -19 4134 
L -19 4666 
z
" transform="scale(0.015625)"/>
      </defs>
      <use xlink:href="#DejaVuSans-57"/>
      <use xlink:href="#DejaVuSans-54" x="98.876953"/>
     </g>
    </g>
    <g id="line2d_28">
     <path d="M 62.94375 112.192 
L 72.94375 112.192 
L 82.94375 112.192 
" style="fill: none; stroke: #ff8c00; stroke-width: 4; stroke-linecap: square"/>
    </g>
    <g id="text_11">
     <!-- $\Delta\mathit{pilG}$ -->
     <g transform="translate(90.94375 115.692) scale(0.1 -0.1)">
      <defs>
       <path id="DejaVuSans-394" d="M 2188 4044 
L 906 525 
L 3472 525 
L 2188 4044 
z
M 50 0 
L 1831 4666 
L 2547 4666 
L 4325 0 
L 50 0 
z
" transform="scale(0.015625)"/>
       <path id="DejaVuSans-Oblique-70" d="M 3175 2156 
Q 3175 2616 2975 2859 
Q 2775 3103 2400 3103 
Q 2144 3103 1911 2972 
Q 1678 2841 1497 2591 
Q 1319 2344 1212 1994 
Q 1106 1644 1106 1300 
Q 1106 863 1306 627 
Q 1506 391 1875 391 
Q 2147 391 2380 519 
Q 2613 647 2778 891 
Q 2956 1147 3065 1494 
Q 3175 1841 3175 2156 
z
M 1394 2969 
Q 1625 3272 1939 3428 
Q 2253 3584 2638 3584 
Q 3175 3584 3472 3232 
Q 3769 2881 3769 2247 
Q 3769 1728 3584 1258 
Q 3400 788 3053 416 
Q 2822 169 2531 39 
Q 2241 -91 1919 -91 
Q 1547 -91 1294 64 
Q 1041 219 916 525 
L 556 -1331 
L -19 -1331 
L 922 3500 
L 1497 3500 
L 1394 2969 
z
" transform="scale(0.015625)"/>
       <path id="DejaVuSans-Oblique-69" d="M 1172 4863 
L 1747 4863 
L 1606 4134 
L 1031 4134 
L 1172 4863 
z
M 909 3500 
L 1484 3500 
L 800 0 
L 225 0 
L 909 3500 
z
" transform="scale(0.015625)"/>
       <path id="DejaVuSans-Oblique-6c" d="M 1172 4863 
L 1747 4863 
L 800 0 
L 225 0 
L 1172 4863 
z
" transform="scale(0.015625)"/>
       <path id="DejaVuSans-Oblique-47" d="M 3494 697 
L 3738 1919 
L 2700 1919 
L 2797 2438 
L 4453 2438 
L 4050 384 
Q 3634 156 3143 32 
Q 2653 -91 2156 -91 
Q 1278 -91 783 396 
Q 288 884 288 1753 
Q 288 2475 589 3126 
Q 891 3778 1422 4213 
Q 1756 4484 2153 4617 
Q 2550 4750 3034 4750 
Q 3472 4750 3873 4639 
Q 4275 4528 4641 4306 
L 4513 3634 
Q 4231 3928 3853 4083 
Q 3475 4238 3047 4238 
Q 2550 4238 2172 4048 
Q 1794 3859 1497 3463 
Q 1244 3125 1098 2667 
Q 953 2209 953 1734 
Q 953 1081 1287 751 
Q 1622 422 2284 422 
Q 2616 422 2925 492 
Q 3234 563 3494 697 
z
" transform="scale(0.015625)"/>
      </defs>
      <use xlink:href="#DejaVuSans-394" transform="translate(0 0.015625)"/>
      <use xlink:href="#DejaVuSans-Oblique-70" transform="translate(68.408203 0.015625)"/>
      <use xlink:href="#DejaVuSans-Oblique-69" transform="translate(131.884766 0.015625)"/>
      <use xlink:href="#DejaVuSans-Oblique-6c" transform="translate(159.667969 0.015625)"/>
      <use xlink:href="#DejaVuSans-Oblique-47" transform="translate(187.451172 0.015625)"/>
     </g>
    </g>
   </g>
  </g>
 </g>
 <defs>
  <clipPath id="p0e8d95ed89">
   <rect x="53.94375" y="7.2" width="206.46" height="119.592"/>
  </clipPath>
 </defs>
</svg>
